0
SECTION
2
HEADER
9
$EXTMIN
10
-1.311096
20
0.855057
9
$EXTMAX
10
39.988724
20
47.030823
0
ENDSEC
0
SECTION
2
TABLES
0
TABLE
2
LTYPE
70
1
0
LTYPE
2
0
70
0
3
Solid Line
72
65
73
0
40
0.0
0
ENDTAB
0
TABLE
2
LAYER
70
1
0
LAYER
2
1
70
0
62
7
6
0
0
ENDTAB
0
ENDSEC
0
SECTION
2
BLOCKS
0
ENDSEC
0
SECTION
2
ENTITIES
0
POLYLINE
8
1
66
1
70
1
0
VERTEX
8
1
10
33.539524
20
9.493683
42
-0.029237
0
VERTEX
8
1
10
36.468754
20
9.543823
0
VERTEX
8
1
10
36.463169
20
9.556137
42
-0.008740
0
VERTEX
8
1
10
34.171238
20
10.070969
42
-0.028822
0
VERTEX
8
1
10
31.840061
20
10.784317
0
VERTEX
8
1
10
31.694370
20
10.848267
0
VERTEX
8
1
10
36.877567
20
10.565384
0
VERTEX
8
1
10
36.806705
20
10.593521
0
VERTEX
8
1
10
32.670444
20
11.872391
42
0.079321
0
VERTEX
8
1
10
36.395329
20
11.491653
0
VERTEX
8
1
10
36.391209
20
11.495743
42
0.006872
0
VERTEX
8
1
10
36.092808
20
11.581528
42
-0.042307
0
VERTEX
8
1
10
32.991032
20
12.297791
0
VERTEX
8
1
10
33.013279
20
12.302567
42
0.023975
0
VERTEX
8
1
10
35.204868
20
12.293427
0
VERTEX
8
1
10
35.144321
20
12.423462
0
VERTEX
8
1
10
35.065830
20
12.438858
42
-0.002677
0
VERTEX
8
1
10
32.353245
20
12.917099
42
-0.032855
0
VERTEX
8
1
10
31.009281
20
13.248993
0
VERTEX
8
1
10
30.814152
20
13.317368
42
-0.067350
0
VERTEX
8
1
10
29.725315
20
13.883743
42
0.060206
0
VERTEX
8
1
10
33.161533
20
13.438736
0
VERTEX
8
1
10
33.161137
20
13.449951
42
-0.099280
0
VERTEX
8
1
10
31.264072
20
14.212097
42
0.083892
0
VERTEX
8
1
10
34.394840
20
14.023788
0
VERTEX
8
1
10
34.350803
20
14.117355
42
-0.019060
0
VERTEX
8
1
10
32.902622
20
14.439957
42
-0.046887
0
VERTEX
8
1
10
31.508396
20
14.952148
42
-0.070395
0
VERTEX
8
1
10
30.374546
20
15.712494
0
VERTEX
8
1
10
30.384647
20
15.714920
0
VERTEX
8
1
10
31.816196
20
15.648621
42
-0.098352
0
VERTEX
8
1
10
30.326450
20
16.287323
0
VERTEX
8
1
10
30.365513
20
16.283951
0
VERTEX
8
1
10
30.361454
20
16.285873
42
0.037908
0
VERTEX
8
1
10
27.514370
20
17.053604
0
VERTEX
8
1
10
27.468616
20
17.066605
0
VERTEX
8
1
10
27.905521
20
17.196823
0
VERTEX
8
1
10
27.918858
20
17.207352
42
0.118403
0
VERTEX
8
1
10
22.217167
20
18.221222
0
VERTEX
8
1
10
22.144718
20
18.220596
42
0.066472
0
VERTEX
8
1
10
22.752522
20
18.461853
0
VERTEX
8
1
10
22.708965
20
18.485352
42
-0.022272
0
VERTEX
8
1
10
18.677128
20
19.419266
0
VERTEX
8
1
10
18.740849
20
19.420547
0
VERTEX
8
1
10
20.182255
20
19.397247
0
VERTEX
8
1
10
20.207905
20
19.398300
0
VERTEX
8
1
10
20.195179
20
19.404480
0
VERTEX
8
1
10
20.178333
20
19.414322
42
-0.006542
0
VERTEX
8
1
10
19.725796
20
19.720474
42
0.026530
0
VERTEX
8
1
10
19.670643
20
19.752884
42
0.025527
0
VERTEX
8
1
10
17.035900
20
20.487061
42
0.017728
0
VERTEX
8
1
10
15.841372
20
20.701889
0
VERTEX
8
1
10
15.807239
20
20.708878
0
VERTEX
8
1
10
15.804164
20
20.710495
0
VERTEX
8
1
10
15.818751
20
20.861313
0
VERTEX
8
1
10
15.818500
20
20.861710
42
0.010180
0
VERTEX
8
1
10
15.502963
20
21.032471
0
VERTEX
8
1
10
15.474475
20
21.032089
42
-0.010924
0
VERTEX
8
1
10
14.819346
20
21.016144
0
VERTEX
8
1
10
13.950694
20
21.037262
42
0.009210
0
VERTEX
8
1
10
11.720714
20
21.001099
42
-0.024716
0
VERTEX
8
1
10
11.413943
20
20.993774
0
VERTEX
8
1
10
11.364802
20
20.999725
0
VERTEX
8
1
10
11.333499
20
21.009140
0
VERTEX
8
1
10
11.318187
20
21.021515
0
VERTEX
8
1
10
11.316989
20
21.036545
0
VERTEX
8
1
10
11.328044
20
21.053726
0
VERTEX
8
1
10
11.349475
20
21.072708
0
VERTEX
8
1
10
11.379413
20
21.093033
42
-0.012233
0
VERTEX
8
1
10
11.701510
20
21.254639
0
VERTEX
8
1
10
11.724093
20
21.268509
0
VERTEX
8
1
10
11.736522
20
21.279572
0
VERTEX
8
1
10
11.736941
20
21.287430
0
VERTEX
8
1
10
11.715533
20
21.294006
0
VERTEX
8
1
10
11.666026
20
21.301361
42
0.011388
0
VERTEX
8
1
10
10.469066
20
21.382492
42
0.001792
0
VERTEX
8
1
10
9.498530
20
21.431946
42
0.077456
0
VERTEX
8
1
10
7.750537
20
21.438766
0
VERTEX
8
1
10
7.692538
20
21.433563
0
VERTEX
8
1
10
8.027484
20
21.763092
0
VERTEX
8
1
10
7.927379
20
21.744797
42
0.043083
0
VERTEX
8
1
10
4.924861
20
20.859924
42
0.022995
0
VERTEX
8
1
10
2.990459
20
20.011490
0
VERTEX
8
1
10
2.902950
20
19.954803
0
VERTEX
8
1
10
2.869258
20
19.872482
42
0.092151
0
VERTEX
8
1
10
2.759464
20
19.152466
42
0.048706
0
VERTEX
8
1
10
2.886798
20
18.179047
0
VERTEX
8
1
10
2.901736
20
18.109436
0
VERTEX
8
1
10
2.910938
20
18.104263
0
VERTEX
8
1
10
3.050304
20
18.292496
0
VERTEX
8
1
10
3.080547
20
18.253677
42
-0.202950
0
VERTEX
8
1
10
3.359760
20
16.099304
42
0.082036
0
VERTEX
8
1
10
3.313388
20
15.702621
42
0.130734
0
VERTEX
8
1
10
3.438937
20
15.376862
42
-0.016979
0
VERTEX
8
1
10
3.638088
20
15.081940
42
-0.139674
0
VERTEX
8
1
10
3.721256
20
14.760193
42
-0.138576
0
VERTEX
8
1
10
3.661113
20
14.588516
42
0.176626
0
VERTEX
8
1
10
4.389514
20
15.008408
0
VERTEX
8
1
10
4.395541
20
14.989059
42
0.128062
0
VERTEX
8
1
10
4.563388
20
14.110611
42
-0.123212
0
VERTEX
8
1
10
4.612102
20
13.891006
42
-0.167666
0
VERTEX
8
1
10
4.551898
20
13.762131
0
VERTEX
8
1
10
4.781840
20
13.778763
0
VERTEX
8
1
10
4.782603
20
13.778625
0
VERTEX
8
1
10
4.514079
20
13.337509
0
VERTEX
8
1
10
4.710925
20
12.906677
0
VERTEX
8
1
10
4.710368
20
12.906204
0
VERTEX
8
1
10
4.299045
20
12.992126
0
VERTEX
8
1
10
4.152354
20
12.783676
42
0.052830
0
VERTEX
8
1
10
4.262439
20
12.294907
42
-0.023433
0
VERTEX
8
1
10
4.428050
20
11.713989
0
VERTEX
8
1
10
4.440318
20
11.648712
42
-0.114454
0
VERTEX
8
1
10
4.420230
20
11.073975
0
VERTEX
8
1
10
5.048816
20
10.917953
0
VERTEX
8
1
10
5.030185
20
10.886719
42
0.066436
0
VERTEX
8
1
10
4.745624
20
10.486420
42
0.129783
0
VERTEX
8
1
10
4.667651
20
10.145828
42
0.181368
0
VERTEX
8
1
10
4.824809
20
9.822342
42
0.032932
0
VERTEX
8
1
10
4.909526
20
9.741577
42
-0.023070
0
VERTEX
8
1
10
6.013179
20
9.991638
0
VERTEX
8
1
10
6.016147
20
10.000015
0
VERTEX
8
1
10
5.579585
20
10.137543
0
VERTEX
8
1
10
5.610156
20
10.157394
42
-0.040034
0
VERTEX
8
1
10
6.388873
20
10.323349
42
0.006945
0
VERTEX
8
1
10
7.341189
20
10.459335
42
0.051167
0
VERTEX
8
1
10
8.088405
20
10.661957
42
0.074014
0
VERTEX
8
1
10
8.618182
20
10.969650
0
VERTEX
8
1
10
8.602450
20
10.982452
42
-0.295227
0
VERTEX
8
1
10
8.516566
20
11.132339
42
-0.280765
0
VERTEX
8
1
10
8.644885
20
11.359787
42
-0.210739
0
VERTEX
8
1
10
8.945178
20
11.344543
42
-0.085948
0
VERTEX
8
1
10
9.201388
20
11.165054
42
0.063551
0
VERTEX
8
1
10
9.465137
20
10.960968
42
0.141984
0
VERTEX
8
1
10
9.798106
20
10.898972
42
0.019273
0
VERTEX
8
1
10
9.955684
20
10.914520
0
VERTEX
8
1
10
10.887988
20
11.039429
0
VERTEX
8
1
10
10.919368
20
11.041550
0
VERTEX
8
1
10
9.941096
20
10.640915
0
VERTEX
8
1
10
9.969386
20
10.585876
42
0.133427
0
VERTEX
8
1
10
10.477977
20
10.227921
42
0.093164
0
VERTEX
8
1
10
11.281459
20
10.098923
0
VERTEX
8
1
10
11.362880
20
10.100800
42
0.017023
0
VERTEX
8
1
10
12.116336
20
10.170502
42
-0.048247
0
VERTEX
8
1
10
12.836307
20
10.189636
42
-0.022870
0
VERTEX
8
1
10
13.037326
20
10.162033
0
VERTEX
8
1
10
13.028712
20
10.157257
42
-0.025306
0
VERTEX
8
1
10
11.931460
20
9.908020
42
-0.073171
0
VERTEX
8
1
10
10.760417
20
9.880646
42
0.045946
0
VERTEX
8
1
10
10.214831
20
9.895584
42
0.092169
0
VERTEX
8
1
10
9.515170
20
9.685181
42
0.034504
0
VERTEX
8
1
10
8.866694
20
9.295074
0
VERTEX
8
1
10
8.830195
20
9.260849
42
-0.260801
0
VERTEX
8
1
10
8.957812
20
9.061920
42
-0.280232
0
VERTEX
8
1
10
8.736781
20
8.624512
42
-0.036142
0
VERTEX
8
1
10
8.422061
20
8.452484
42
0.092276
0
VERTEX
8
1
10
8.072749
20
8.195114
0
VERTEX
8
1
10
8.047847
20
8.171478
42
-0.107395
0
VERTEX
8
1
10
7.767108
20
7.977219
42
-0.339975
0
VERTEX
8
1
10
7.156962
20
8.196838
0
VERTEX
8
1
10
7.200473
20
8.245499
42
0.006262
0
VERTEX
8
1
10
8.082561
20
9.075150
0
VERTEX
8
1
10
8.162715
20
9.155243
0
VERTEX
8
1
10
8.242114
20
9.236084
0
VERTEX
8
1
10
8.235621
20
9.283875
42
-0.112478
0
VERTEX
8
1
10
8.109355
20
9.402115
42
-0.269499
0
VERTEX
8
1
10
8.109477
20
9.548981
42
-0.086709
0
VERTEX
8
1
10
8.226878
20
9.686996
42
0.031093
0
VERTEX
8
1
10
8.443233
20
9.885666
42
0.291821
0
VERTEX
8
1
10
8.484675
20
10.086533
0
VERTEX
8
1
10
8.459498
20
10.120438
0
VERTEX
8
1
10
8.422755
20
10.145218
0
VERTEX
8
1
10
8.375758
20
10.161697
42
0.089370
0
VERTEX
8
1
10
8.111583
20
10.160934
42
0.033303
0
VERTEX
8
1
10
7.631518
20
10.048737
42
-0.012763
0
VERTEX
8
1
10
7.335528
20
9.964935
0
VERTEX
8
1
10
5.197192
20
9.518097
0
VERTEX
8
1
10
5.135242
20
9.502075
42
-0.093579
0
VERTEX
8
1
10
5.195193
20
9.354477
0
VERTEX
8
1
10
5.239062
20
9.343292
42
-0.330234
0
VERTEX
8
1
10
5.675708
20
8.724609
42
-0.090320
0
VERTEX
8
1
10
5.598910
20
8.442154
0
VERTEX
8
1
10
5.583980
20
8.408615
42
0.002270
0
VERTEX
8
1
10
4.799823
20
6.700043
42
0.044818
0
VERTEX
8
1
10
4.500537
20
5.840622
42
0.070165
0
VERTEX
8
1
10
4.434031
20
5.147858
0
VERTEX
8
1
10
4.450290
20
5.120590
42
-0.142360
0
VERTEX
8
1
10
4.755603
20
5.252884
0
VERTEX
8
1
10
4.782466
20
5.253250
42
-0.459943
0
VERTEX
8
1
10
4.936664
20
5.082855
42
-0.034297
0
VERTEX
8
1
10
4.931430
20
5.030518
0
VERTEX
8
1
10
4.710460
20
3.685852
0
VERTEX
8
1
10
4.662318
20
3.625595
42
0.034548
0
VERTEX
8
1
10
3.959323
20
3.087967
42
0.084751
0
VERTEX
8
1
10
3.480510
20
2.492996
0
VERTEX
8
1
10
3.438068
20
2.407669
0
VERTEX
8
1
10
3.400455
20
2.319519
0
VERTEX
8
1
10
3.380679
20
2.244141
42
0.088432
0
VERTEX
8
1
10
4.209262
20
2.324127
0
VERTEX
8
1
10
4.214351
20
2.295868
42
-0.161472
0
VERTEX
8
1
10
3.936534
20
1.659302
0
VERTEX
8
1
10
3.927966
20
1.635727
42
-0.266062
0
VERTEX
8
1
10
3.917247
20
1.217957
42
-0.076901
0
VERTEX
8
1
10
4.292926
20
1.245697
42
-0.275393
0
VERTEX
8
1
10
4.622386
20
1.009598
42
-0.138187
0
VERTEX
8
1
10
4.636325
20
0.875427
0
VERTEX
8
1
10
4.636218
20
0.855057
0
VERTEX
8
1
10
4.690478
20
0.863159
0
VERTEX
8
1
10
4.807567
20
0.904144
0
VERTEX
8
1
10
4.981593
20
0.974991
0
VERTEX
8
1
10
5.206691
20
1.072708
0
VERTEX
8
1
10
5.476977
20
1.194275
42
0.005735
0
VERTEX
8
1
10
8.973971
20
2.866806
42
-0.001184
0
VERTEX
8
1
10
11.263797
20
3.985474
0
VERTEX
8
1
10
11.367114
20
4.033920
0
VERTEX
8
1
10
11.389827
20
4.051025
42
0.033027
0
VERTEX
8
1
10
11.807834
20
4.474564
0
VERTEX
8
1
10
11.783221
20
4.479523
0
VERTEX
8
1
10
9.226985
20
3.716141
42
-0.070371
0
VERTEX
8
1
10
12.964877
20
5.387634
0
VERTEX
8
1
10
12.987254
20
5.396423
42
0.082462
0
VERTEX
8
1
10
13.738223
20
5.975067
0
VERTEX
8
1
10
13.695552
20
5.981277
0
VERTEX
8
1
10
11.597247
20
6.051559
0
VERTEX
8
1
10
11.550944
20
6.060455
42
-0.235482
0
VERTEX
8
1
10
11.659427
20
6.346542
42
-0.114112
0
VERTEX
8
1
10
12.011760
20
6.544052
42
-0.043182
0
VERTEX
8
1
10
12.327792
20
6.616882
42
0.033563
0
VERTEX
8
1
10
15.243297
20
7.305588
0
VERTEX
8
1
10
15.362018
20
7.345306
42
0.044800
0
VERTEX
8
1
10
14.338489
20
7.704514
0
VERTEX
8
1
10
14.347064
20
7.734222
42
-0.127846
0
VERTEX
8
1
10
14.638324
20
7.897369
42
-0.007913
0
VERTEX
8
1
10
15.032977
20
7.995178
0
VERTEX
8
1
10
15.081752
20
8.009460
42
0.192711
0
VERTEX
8
1
10
15.552417
20
8.367630
42
0.088936
0
VERTEX
8
1
10
15.742015
20
8.886826
42
0.025857
0
VERTEX
8
1
10
15.800754
20
9.309418
42
-0.000184
0
VERTEX
8
1
10
16.216190
20
8.310257
0
VERTEX
8
1
10
16.325199
20
8.306244
42
-0.079439
0
VERTEX
8
1
10
19.374783
20
8.230164
0
VERTEX
8
1
10
19.470844
20
8.204727
0
VERTEX
8
1
10
18.127842
20
7.958893
0
VERTEX
8
1
10
18.132473
20
7.914810
0
VERTEX
8
1
10
18.148792
20
7.870163
0
VERTEX
8
1
10
18.170086
20
7.828110
42
0.325248
0
VERTEX
8
1
10
18.750507
20
7.598816
42
0.066634
0
VERTEX
8
1
10
18.870899
20
7.654785
42
-0.113281
0
VERTEX
8
1
10
17.944340
20
7.194611
0
VERTEX
8
1
10
17.957546
20
7.171722
0
VERTEX
8
1
10
18.246960
20
7.108902
42
0.037051
0
VERTEX
8
1
10
21.339764
20
6.738770
42
0.021152
0
VERTEX
8
1
10
21.805431
20
6.738464
0
VERTEX
8
1
10
21.891438
20
6.747818
0
VERTEX
8
1
10
21.937298
20
6.761871
0
VERTEX
8
1
10
21.939686
20
6.780609
0
VERTEX
8
1
10
21.895275
20
6.804016
0
VERTEX
8
1
10
21.800755
20
6.832092
0
VERTEX
8
1
10
21.940479
20
6.882645
42
-0.066188
0
VERTEX
8
1
10
24.218060
20
7.214233
42
-0.028213
0
VERTEX
8
1
10
25.860714
20
7.141647
0
VERTEX
8
1
10
26.179661
20
7.109055
0
VERTEX
8
1
10
26.513767
20
7.070221
0
VERTEX
8
1
10
26.681065
20
7.089569
0
VERTEX
8
1
10
26.643970
20
7.171341
0
VERTEX
8
1
10
26.592899
20
7.245865
0
VERTEX
8
1
10
26.528957
20
7.313721
42
0.087600
0
VERTEX
8
1
10
26.167210
20
7.528946
42
0.039395
0
VERTEX
8
1
10
25.561703
20
7.712311
42
-0.008916
0
VERTEX
8
1
10
24.797451
20
7.896103
0
VERTEX
8
1
10
24.681965
20
7.930496
0
VERTEX
8
1
10
24.612980
20
7.964981
0
VERTEX
8
1
10
24.837559
20
7.978485
0
VERTEX
8
1
10
25.063168
20
7.984100
42
-0.025848
0
VERTEX
8
1
10
26.428608
20
7.907333
42
0.012264
0
VERTEX
8
1
10
27.786732
20
7.794037
42
0.040779
0
VERTEX
8
1
10
28.885502
20
7.824448
0
VERTEX
8
1
10
29.099537
20
7.855911
0
VERTEX
8
1
10
29.023121
20
7.929657
42
0.013854
0
VERTEX
8
1
10
26.822285
20
8.958817
42
0.001721
0
VERTEX
8
1
10
25.793682
20
9.406326
0
VERTEX
8
1
10
25.789852
20
9.424194
42
0.003119
0
VERTEX
8
1
10
28.109097
20
8.805664
0
VERTEX
8
1
10
28.259083
20
8.768021
42
0.039052
0
VERTEX
8
1
10
31.041599
20
8.284470
42
0.007573
0
VERTEX
8
1
10
32.403965
20
8.170898
0
VERTEX
8
1
10
32.439091
20
8.182724
42
-0.035727
0
VERTEX
8
1
10
31.575932
20
8.717087
42
0.080547
0
VERTEX
8
1
10
36.347477
20
8.906830
0
VERTEX
8
1
10
36.345066
20
8.908722
42
-0.077493
0
VERTEX
8
1
10
33.569614
20
9.478729
0
SEQEND
0
POLYLINE
8
1
66
1
70
1
0
VERTEX
8
1
10
31.813374
20
34.766022
42
-0.029364
0
VERTEX
8
1
10
34.745060
20
34.816010
0
VERTEX
8
1
10
34.739277
20
34.828751
42
-0.008881
0
VERTEX
8
1
10
32.443684
20
35.344421
42
-0.028260
0
VERTEX
8
1
10
30.148197
20
36.044785
0
VERTEX
8
1
10
29.955723
20
36.121597
0
VERTEX
8
1
10
35.164616
20
35.837296
0
VERTEX
8
1
10
35.036106
20
35.880478
0
VERTEX
8
1
10
30.945957
20
37.145065
42
0.079846
0
VERTEX
8
1
10
34.674625
20
36.766037
42
0.007125
0
VERTEX
8
1
10
34.365910
20
36.854874
42
-0.042492
0
VERTEX
8
1
10
31.259418
20
37.572830
0
VERTEX
8
1
10
31.310886
20
37.573990
42
0.023548
0
VERTEX
8
1
10
33.473194
20
37.565308
0
VERTEX
8
1
10
33.478397
20
37.571594
0
VERTEX
8
1
10
33.421772
20
37.693176
0
VERTEX
8
1
10
33.392323
20
37.702698
42
-0.003087
0
VERTEX
8
1
10
30.563877
20
38.202072
42
-0.035885
0
VERTEX
8
1
10
29.195721
20
38.552032
42
-0.072301
0
VERTEX
8
1
10
28.001980
20
39.155914
42
0.058789
0
VERTEX
8
1
10
31.360645
20
38.712097
0
VERTEX
8
1
10
31.484440
20
38.713913
42
-0.101771
0
VERTEX
8
1
10
29.541676
20
39.484268
42
0.083019
0
VERTEX
8
1
10
32.654697
20
39.293488
0
VERTEX
8
1
10
32.670506
20
39.297333
0
VERTEX
8
1
10
32.627155
20
39.389450
42
-0.022179
0
VERTEX
8
1
10
31.057316
20
39.746445
42
-0.048392
0
VERTEX
8
1
10
29.694752
20
40.269821
42
-0.066148
0
VERTEX
8
1
10
28.647686
20
40.987747
0
VERTEX
8
1
10
28.712109
20
40.985077
0
VERTEX
8
1
10
30.050983
20
40.923065
0
VERTEX
8
1
10
30.086063
20
40.924438
42
-0.099237
0
VERTEX
8
1
10
28.602757
20
41.559830
0
VERTEX
8
1
10
28.643253
20
41.556320
42
0.038004
0
VERTEX
8
1
10
25.740231
20
42.337738
0
VERTEX
8
1
10
26.192989
20
42.472687
0
VERTEX
8
1
10
26.067303
20
42.534943
42
0.116535
0
VERTEX
8
1
10
20.445118
20
43.490692
0
VERTEX
8
1
10
20.425900
20
43.494354
42
0.065431
0
VERTEX
8
1
10
21.024311
20
43.731918
0
VERTEX
8
1
10
21.017887
20
43.751801
42
-0.021922
0
VERTEX
8
1
10
17.047337
20
44.665634
0
VERTEX
8
1
10
16.980061
20
44.693649
0
VERTEX
8
1
10
18.473759
20
44.669510
0
VERTEX
8
1
10
18.482113
20
44.671631
0
VERTEX
8
1
10
18.468632
20
44.678467
42
-0.015316
0
VERTEX
8
1
10
18.101147
20
44.926605
42
0.027625
0
VERTEX
8
1
10
17.948025
20
45.024857
42
0.024811
0
VERTEX
8
1
10
15.365794
20
45.747803
42
0.017418
0
VERTEX
8
1
10
14.096431
20
45.978455
0
VERTEX
8
1
10
14.080264
20
45.982376
0
VERTEX
8
1
10
14.094928
20
46.134018
42
0.010130
0
VERTEX
8
1
10
13.782588
20
46.303207
0
VERTEX
8
1
10
13.764445
20
46.305252
42
-0.011283
0
VERTEX
8
1
10
13.093669
20
46.288712
0
VERTEX
8
1
10
12.227244
20
46.309753
42
0.010527
0
VERTEX
8
1
10
9.960887
20
46.272003
42
-0.051959
0
VERTEX
8
1
10
9.643542
20
46.271759
0
VERTEX
8
1
10
9.611545
20
46.280777
0
VERTEX
8
1
10
9.595172
20
46.292755
0
VERTEX
8
1
10
9.592654
20
46.307297
0
VERTEX
8
1
10
9.602214
20
46.323990
0
VERTEX
8
1
10
9.622050
20
46.342453
0
VERTEX
8
1
10
9.650401
20
46.362289
42
-0.016315
0
VERTEX
8
1
10
9.969752
20
46.522812
0
VERTEX
8
1
10
9.994533
20
46.537170
0
VERTEX
8
1
10
10.010005
20
46.548950
0
VERTEX
8
1
10
10.014400
20
46.557739
0
VERTEX
8
1
10
10.002368
20
46.564163
0
VERTEX
8
1
10
9.962985
20
46.571136
42
0.013131
0
VERTEX
8
1
10
8.801150
20
46.651901
42
0.001969
0
VERTEX
8
1
10
7.772723
20
46.704544
42
0.077604
0
VERTEX
8
1
10
6.023585
20
46.710815
0
VERTEX
8
1
10
5.969043
20
46.706406
0
VERTEX
8
1
10
6.298785
20
47.030823
0
VERTEX
8
1
10
6.237033
20
47.023834
42
0.041941
0
VERTEX
8
1
10
3.347560
20
46.188278
42
0.024788
0
VERTEX
8
1
10
1.259197
20
45.280319
0
VERTEX
8
1
10
1.177058
20
45.222702
42
0.098244
0
VERTEX
8
1
10
1.036258
20
44.525604
42
0.053864
0
VERTEX
8
1
10
1.134845
20
43.589203
0
VERTEX
8
1
10
1.153354
20
43.497086
0
VERTEX
8
1
10
1.172862
20
43.405182
0
VERTEX
8
1
10
1.185130
20
43.374100
0
VERTEX
8
1
10
1.329547
20
43.569168
42
-0.207717
0
VERTEX
8
1
10
1.637576
20
41.379196
42
0.080086
0
VERTEX
8
1
10
1.589061
20
40.980576
42
0.129756
0
VERTEX
8
1
10
1.705798
20
40.663559
42
-0.009703
0
VERTEX
8
1
10
1.906505
20
40.368240
42
-0.146330
0
VERTEX
8
1
10
1.996913
20
40.026291
42
-0.124861
0
VERTEX
8
1
10
1.947597
20
39.878525
0
VERTEX
8
1
10
1.942806
20
39.862000
42
0.173755
0
VERTEX
8
1
10
2.660716
20
40.275009
0
VERTEX
8
1
10
2.672282
20
40.269836
42
0.129708
0
VERTEX
8
1
10
2.842586
20
39.375839
42
-0.126521
0
VERTEX
8
1
10
2.887820
20
39.159576
42
-0.161268
0
VERTEX
8
1
10
2.827777
20
39.034607
0
VERTEX
8
1
10
3.058826
20
39.051331
0
VERTEX
8
1
10
2.790233
20
38.609955
0
VERTEX
8
1
10
2.986942
20
38.179520
0
VERTEX
8
1
10
2.986865
20
38.178665
0
VERTEX
8
1
10
2.575427
20
38.264633
0
VERTEX
8
1
10
2.574680
20
38.263885
0
VERTEX
8
1
10
2.429355
20
38.057373
0
VERTEX
8
1
10
2.428615
20
38.054871
42
0.051983
0
VERTEX
8
1
10
2.537128
20
37.572144
42
-0.022107
0
VERTEX
8
1
10
2.700969
20
37.002167
0
VERTEX
8
1
10
2.713557
20
36.937881
42
-0.116453
0
VERTEX
8
1
10
2.698734
20
36.365692
0
VERTEX
8
1
10
2.714916
20
36.341858
0
VERTEX
8
1
10
3.302791
20
36.195969
0
VERTEX
8
1
10
3.332088
20
36.187531
42
0.071774
0
VERTEX
8
1
10
3.018932
20
35.753036
42
0.128678
0
VERTEX
8
1
10
2.943874
20
35.417633
42
0.181174
0
VERTEX
8
1
10
3.101085
20
35.094727
42
0.020034
0
VERTEX
8
1
10
3.180499
20
35.017059
0
VERTEX
8
1
10
3.219684
20
35.023788
42
-0.021799
0
VERTEX
8
1
10
4.306788
20
35.267532
0
VERTEX
8
1
10
4.285411
20
35.274704
0
VERTEX
8
1
10
3.855632
20
35.410095
0
VERTEX
8
1
10
3.884738
20
35.429382
0
VERTEX
8
1
10
4.034198
20
35.472321
42
-0.031585
0
VERTEX
8
1
10
4.965152
20
35.637314
42
0.024393
0
VERTEX
8
1
10
5.892444
20
35.787750
42
0.066392
0
VERTEX
8
1
10
6.600253
20
36.045914
0
VERTEX
8
1
10
6.729945
20
36.123123
0
VERTEX
8
1
10
6.854747
20
36.211014
0
VERTEX
8
1
10
6.886043
20
36.251846
42
-0.300387
0
VERTEX
8
1
10
6.793216
20
36.393738
42
-0.306248
0
VERTEX
8
1
10
6.929172
20
36.635864
42
-0.201863
0
VERTEX
8
1
10
7.213656
20
36.620407
42
-0.088939
0
VERTEX
8
1
10
7.472369
20
36.442352
42
0.061441
0
VERTEX
8
1
10
7.736056
20
36.236252
42
0.143811
0
VERTEX
8
1
10
8.063670
20
36.171005
42
0.020744
0
VERTEX
8
1
10
8.218875
20
36.185364
0
VERTEX
8
1
10
9.167789
20
36.312424
0
VERTEX
8
1
10
9.192431
20
36.312775
0
VERTEX
8
1
10
8.229350
20
35.918381
0
VERTEX
8
1
10
8.232593
20
35.874893
42
0.133669
0
VERTEX
8
1
10
8.725436
20
35.511856
42
0.094454
0
VERTEX
8
1
10
9.513186
20
35.371353
42
0.027203
0
VERTEX
8
1
10
10.229136
20
35.425400
42
-0.040025
0
VERTEX
8
1
10
11.020053
20
35.468491
42
-0.025952
0
VERTEX
8
1
10
11.255099
20
35.444626
0
VERTEX
8
1
10
11.302272
20
35.429077
42
-0.026578
0
VERTEX
8
1
10
10.175326
20
35.175476
42
-0.071206
0
VERTEX
8
1
10
9.041636
20
35.152542
42
0.047332
0
VERTEX
8
1
10
8.483081
20
35.167358
42
0.090957
0
VERTEX
8
1
10
7.789554
20
34.956818
42
0.034235
0
VERTEX
8
1
10
7.150935
20
34.572998
0
VERTEX
8
1
10
7.102092
20
34.535492
42
-0.259915
0
VERTEX
8
1
10
7.232928
20
34.342941
42
-0.273739
0
VERTEX
8
1
10
7.033092
20
33.911591
0
VERTEX
8
1
10
7.006511
20
33.892654
42
-0.027742
0
VERTEX
8
1
10
6.659709
20
33.704849
42
0.083162
0
VERTEX
8
1
10
6.352130
20
33.470596
42
-0.071625
0
VERTEX
8
1
10
6.106181
20
33.276703
0
VERTEX
8
1
10
6.081210
20
33.264694
42
-0.354312
0
VERTEX
8
1
10
5.441264
20
33.456238
0
VERTEX
8
1
10
5.452800
20
33.495590
42
0.006759
0
VERTEX
8
1
10
6.374957
20
34.363724
0
VERTEX
8
1
10
6.453692
20
34.442703
0
VERTEX
8
1
10
6.531680
20
34.522430
0
VERTEX
8
1
10
6.496745
20
34.566132
42
-0.118124
0
VERTEX
8
1
10
6.381602
20
34.681992
42
-0.260888
0
VERTEX
8
1
10
6.388087
20
34.826141
42
-0.082174
0
VERTEX
8
1
10
6.505618
20
34.961838
42
0.031216
0
VERTEX
8
1
10
6.718738
20
35.157394
42
0.284448
0
VERTEX
8
1
10
6.762691
20
35.355072
0
VERTEX
8
1
10
6.739230
20
35.389465
0
VERTEX
8
1
10
6.704402
20
35.414932
0
VERTEX
8
1
10
6.659480
20
35.432266
42
0.093259
0
VERTEX
8
1
10
6.403842
20
35.435623
42
0.035108
0
VERTEX
8
1
10
5.930697
20
35.327850
42
-0.008462
0
VERTEX
8
1
10
5.626819
20
35.240997
0
VERTEX
8
1
10
5.563243
20
35.227249
0
VERTEX
8
1
10
3.441814
20
34.784012
0
VERTEX
8
1
10
3.412578
20
34.772705
42
-0.099720
0
VERTEX
8
1
10
3.469852
20
34.627289
0
VERTEX
8
1
10
3.513080
20
34.616470
42
-0.345326
0
VERTEX
8
1
10
3.949649
20
33.967590
42
-0.083270
0
VERTEX
8
1
10
3.857616
20
33.675522
0
VERTEX
8
1
10
3.201305
20
32.252136
42
0.035015
0
VERTEX
8
1
10
2.832431
20
31.323471
42
0.081937
0
VERTEX
8
1
10
2.708728
20
30.451202
0
VERTEX
8
1
10
2.719142
20
30.387039
42
-0.156600
0
VERTEX
8
1
10
3.045085
20
30.525925
0
VERTEX
8
1
10
3.070964
20
30.524994
42
-0.436583
0
VERTEX
8
1
10
3.212779
20
30.353958
42
-0.032853
0
VERTEX
8
1
10
3.207500
20
30.302414
0
VERTEX
8
1
10
2.989574
20
28.976334
0
VERTEX
8
1
10
2.961459
20
28.913803
42
0.031840
0
VERTEX
8
1
10
2.266277
20
28.388412
42
0.080098
0
VERTEX
8
1
10
1.781963
20
27.811249
42
0.042605
0
VERTEX
8
1
10
1.662875
20
27.555618
0
VERTEX
8
1
10
1.673030
20
27.515396
42
0.087081
0
VERTEX
8
1
10
2.488536
20
27.597519
0
VERTEX
8
1
10
2.490291
20
27.566101
42
-0.158927
0
VERTEX
8
1
10
2.218494
20
26.938278
0
VERTEX
8
1
10
2.201404
20
26.912994
42
-0.267992
0
VERTEX
8
1
10
2.196506
20
26.498672
0
VERTEX
8
1
10
2.203288
20
26.492264
42
-0.082493
0
VERTEX
8
1
10
2.584537
20
26.515961
42
-0.284025
0
VERTEX
8
1
10
2.905063
20
26.263092
42
-0.133219
0
VERTEX
8
1
10
2.909496
20
26.130356
0
VERTEX
8
1
10
2.948573
20
26.130844
0
VERTEX
8
1
10
3.049823
20
26.163834
42
0.015667
0
VERTEX
8
1
10
3.964488
20
26.563751
42
0.005096
0
VERTEX
8
1
10
8.357272
20
28.681229
42
-0.004038
0
VERTEX
8
1
10
9.544681
20
29.260208
0
VERTEX
8
1
10
9.646487
20
29.307922
42
0.036836
0
VERTEX
8
1
10
10.080722
20
29.743286
0
VERTEX
8
1
10
10.081737
20
29.758682
0
VERTEX
8
1
10
7.565204
20
29.007187
0
VERTEX
8
1
10
7.572398
20
29.034164
42
-0.067994
0
VERTEX
8
1
10
11.209857
20
30.651123
0
VERTEX
8
1
10
11.285686
20
30.681030
42
0.077054
0
VERTEX
8
1
10
11.989490
20
31.221100
0
VERTEX
8
1
10
12.009151
20
31.252548
0
VERTEX
8
1
10
9.890460
20
31.323502
0
VERTEX
8
1
10
9.826076
20
31.345383
42
-0.229466
0
VERTEX
8
1
10
9.940372
20
31.623810
42
-0.111075
0
VERTEX
8
1
10
10.289004
20
31.816910
42
-0.045478
0
VERTEX
8
1
10
10.664775
20
31.899582
42
0.034950
0
VERTEX
8
1
10
13.639354
20
32.617310
42
0.044044
0
VERTEX
8
1
10
12.632236
20
32.972549
0
VERTEX
8
1
10
12.611407
20
32.994293
42
-0.132333
0
VERTEX
8
1
10
12.892947
20
33.162949
42
-0.014751
0
VERTEX
8
1
10
13.280414
20
33.259995
0
VERTEX
8
1
10
13.328822
20
33.273239
42
0.204411
0
VERTEX
8
1
10
13.836635
20
33.653275
42
0.085886
0
VERTEX
8
1
10
14.019679
20
34.166824
42
0.024686
0
VERTEX
8
1
10
14.077113
20
34.581940
0
VERTEX
8
1
10
14.486171
20
33.597626
0
VERTEX
8
1
10
14.551402
20
33.571869
42
-0.082360
0
VERTEX
8
1
10
17.710598
20
33.491394
0
VERTEX
8
1
10
17.722767
20
33.472809
0
VERTEX
8
1
10
16.400623
20
33.230789
0
VERTEX
8
1
10
16.409122
20
33.185730
0
VERTEX
8
1
10
16.425312
20
33.141846
0
VERTEX
8
1
10
16.446331
20
33.100464
42
0.346202
0
VERTEX
8
1
10
17.061039
20
32.882919
42
0.067897
0
VERTEX
8
1
10
17.158733
20
32.936951
42
-0.117469
0
VERTEX
8
1
10
16.198391
20
32.461960
0
VERTEX
8
1
10
16.347492
20
32.418655
0
VERTEX
8
1
10
16.636539
20
32.358704
42
0.035977
0
VERTEX
8
1
10
19.657734
20
32.009857
42
0.022380
0
VERTEX
8
1
10
20.098408
20
32.012207
0
VERTEX
8
1
10
20.177082
20
32.022141
0
VERTEX
8
1
10
20.216373
20
32.036621
0
VERTEX
8
1
10
20.213093
20
32.055649
0
VERTEX
8
1
10
20.164089
20
32.079208
0
VERTEX
8
1
10
20.066174
20
32.107285
0
VERTEX
8
1
10
20.230282
20
32.158966
42
-0.065167
0
VERTEX
8
1
10
22.470387
20
32.486282
42
-0.028044
0
VERTEX
8
1
10
24.077213
20
32.419724
0
VERTEX
8
1
10
24.388325
20
32.388855
0
VERTEX
8
1
10
24.713947
20
32.351959
0
VERTEX
8
1
10
24.963879
20
32.341415
0
VERTEX
8
1
10
24.930943
20
32.423752
0
VERTEX
8
1
10
24.884167
20
32.498947
0
VERTEX
8
1
10
24.824619
20
32.567505
42
0.092408
0
VERTEX
8
1
10
24.480419
20
32.785782
0
VERTEX
8
1
10
24.373280
20
32.828934
42
0.031972
0
VERTEX
8
1
10
23.636654
20
33.031815
42
-0.023389
0
VERTEX
8
1
10
22.908138
20
33.219284
0
VERTEX
8
1
10
22.986675
20
33.244400
0
VERTEX
8
1
10
23.208233
20
33.254242
42
-0.029506
0
VERTEX
8
1
10
24.551090
20
33.194199
42
0.007541
0
VERTEX
8
1
10
25.891010
20
33.075699
42
0.035341
0
VERTEX
8
1
10
26.979191
20
33.078033
0
VERTEX
8
1
10
27.191715
20
33.100739
0
VERTEX
8
1
10
27.402142
20
33.133057
0
VERTEX
8
1
10
27.281155
20
33.211319
42
0.014677
0
VERTEX
8
1
10
24.861553
20
34.335144
42
0.001315
0
VERTEX
8
1
10
24.101833
20
34.665009
0
VERTEX
8
1
10
24.061138
20
34.697983
42
0.001664
0
VERTEX
8
1
10
26.261715
20
34.109604
0
VERTEX
8
1
10
26.554478
20
34.035812
42
0.035754
0
VERTEX
8
1
10
29.070461
20
33.583145
42
0.009573
0
VERTEX
8
1
10
30.540760
20
33.453308
0
VERTEX
8
1
10
30.723026
20
33.451172
42
-0.034513
0
VERTEX
8
1
10
29.855625
20
33.985321
0
VERTEX
8
1
10
29.856617
20
33.989044
42
0.080486
0
VERTEX
8
1
10
34.624714
20
34.179550
0
VERTEX
8
1
10
34.603275
20
34.182098
42
-0.076272
0
VERTEX
8
1
10
31.871159
20
34.741806
0
SEQEND
0
POLYLINE
8
1
66
1
70
1
0
VERTEX
8
1
10
24.519512
20
37.761154
0
VERTEX
8
1
10
22.085957
20
35.942764
42
0.161241
0
VERTEX
8
1
10
21.870167
20
35.745972
42
0.169774
0
VERTEX
8
1
10
21.850437
20
35.599167
0
VERTEX
8
1
10
22.080814
20
34.871078
0
VERTEX
8
1
10
22.077724
20
34.871506
42
0.004680
0
VERTEX
8
1
10
22.085949
20
34.844940
0
VERTEX
8
1
10
19.616268
20
35.256271
42
0.323007
0
VERTEX
8
1
10
19.444866
20
35.183838
42
0.120278
0
VERTEX
8
1
10
19.424107
20
35.086578
0
VERTEX
8
1
10
19.424618
20
35.040955
42
0.002632
0
VERTEX
8
1
10
19.500034
20
32.546204
0
VERTEX
8
1
10
19.234463
20
32.566223
0
VERTEX
8
1
10
18.967861
20
32.546188
0
VERTEX
8
1
10
18.968639
20
32.572708
0
VERTEX
8
1
10
18.962681
20
32.572250
42
0.002823
0
VERTEX
8
1
10
19.038647
20
35.097031
42
0.453793
0
VERTEX
8
1
10
18.900974
20
35.257950
0
VERTEX
8
1
10
18.879101
20
35.258698
0
VERTEX
8
1
10
18.857265
20
35.257141
0
VERTEX
8
1
10
16.382000
20
34.844940
0
VERTEX
8
1
10
16.390942
20
34.873337
0
VERTEX
8
1
10
16.376980
20
34.871002
0
VERTEX
8
1
10
16.605572
20
35.593140
42
0.246825
0
VERTEX
8
1
10
16.580608
20
35.776337
42
0.136517
0
VERTEX
8
1
10
16.382023
20
35.942749
0
VERTEX
8
1
10
13.948298
20
37.761108
0
VERTEX
8
1
10
13.967631
20
37.768921
0
VERTEX
8
1
10
13.943202
20
37.787155
42
0.017465
0
VERTEX
8
1
10
14.548945
20
38.045334
42
0.284849
0
VERTEX
8
1
10
14.656085
20
38.208664
42
0.127372
0
VERTEX
8
1
10
14.632998
20
38.275391
0
VERTEX
8
1
10
14.138446
20
39.716690
0
VERTEX
8
1
10
14.142589
20
39.715744
0
VERTEX
8
1
10
14.133349
20
39.742676
42
0.019247
0
VERTEX
8
1
10
15.451816
20
39.489502
42
0.048062
0
VERTEX
8
1
10
15.724864
20
39.470474
42
0.187428
0
VERTEX
8
1
10
15.886973
20
39.564484
42
0.108223
0
VERTEX
8
1
10
16.022511
20
39.852097
42
0.046116
0
VERTEX
8
1
10
16.072666
20
40.154465
42
0.015439
0
VERTEX
8
1
10
17.174015
20
39.042007
42
0.040230
0
VERTEX
8
1
10
17.411297
20
38.845917
0
VERTEX
8
1
10
17.448177
20
38.827347
42
0.369804
0
VERTEX
8
1
10
17.608509
20
38.872711
0
VERTEX
8
1
10
17.626324
20
38.898453
42
0.104354
0
VERTEX
8
1
10
17.707363
20
39.188721
0
VERTEX
8
1
10
17.703152
20
39.213104
42
0.004124
0
VERTEX
8
1
10
17.207249
20
41.466522
42
0.016304
0
VERTEX
8
1
10
17.180561
20
41.569382
0
VERTEX
8
1
10
17.183491
20
41.567734
42
0.003603
0
VERTEX
8
1
10
17.176006
20
41.595139
42
0.050459
0
VERTEX
8
1
10
17.810612
20
41.298843
42
0.083373
0
VERTEX
8
1
10
18.036419
20
41.258362
0
VERTEX
8
1
10
18.079090
20
41.264313
0
VERTEX
8
1
10
18.114132
20
41.278351
0
VERTEX
8
1
10
18.161022
20
41.317017
0
VERTEX
8
1
10
18.224094
20
41.380096
42
0.039972
0
VERTEX
8
1
10
18.656429
20
41.965439
42
0.017459
0
VERTEX
8
1
10
19.228764
20
42.933258
42
0.028192
0
VERTEX
8
1
10
20.004459
20
41.666504
42
0.041917
0
VERTEX
8
1
10
20.280323
20
41.332413
0
VERTEX
8
1
10
20.335651
20
41.283539
0
VERTEX
8
1
10
20.368481
20
41.267242
42
0.129410
0
VERTEX
8
1
10
20.568394
20
41.276672
0
VERTEX
8
1
10
20.630192
20
41.293610
0
VERTEX
8
1
10
20.694561
20
41.314728
42
0.042030
0
VERTEX
8
1
10
21.282146
20
41.595093
42
0.042299
0
VERTEX
8
1
10
21.273396
20
41.561295
0
VERTEX
8
1
10
21.287388
20
41.569397
42
0.008881
0
VERTEX
8
1
10
21.026318
20
40.417862
42
0.000877
0
VERTEX
8
1
10
20.755024
20
39.167770
42
0.110938
0
VERTEX
8
1
10
20.836452
20
38.890472
0
VERTEX
8
1
10
20.849262
20
38.872635
42
0.395059
0
VERTEX
8
1
10
21.022457
20
38.832977
42
0.062776
0
VERTEX
8
1
10
21.211399
20
38.976715
42
0.015927
0
VERTEX
8
1
10
21.890125
20
39.639282
42
0.004430
0
VERTEX
8
1
10
22.385044
20
40.154495
0
VERTEX
8
1
10
22.387409
20
40.125519
0
VERTEX
8
1
10
22.390011
20
40.128281
42
0.099298
0
VERTEX
8
1
10
22.510174
20
39.654434
42
0.180093
0
VERTEX
8
1
10
22.681293
20
39.483551
42
0.102539
0
VERTEX
8
1
10
22.776196
20
39.468430
0
VERTEX
8
1
10
22.837269
20
39.471268
42
0.025023
0
VERTEX
8
1
10
23.603306
20
39.591843
42
0.006525
0
VERTEX
8
1
10
24.324352
20
39.742691
0
VERTEX
8
1
10
24.314266
20
39.713287
0
VERTEX
8
1
10
24.329327
20
39.716660
0
VERTEX
8
1
10
23.835148
20
38.275696
42
0.199868
0
VERTEX
8
1
10
23.811375
20
38.148773
42
0.197363
0
VERTEX
8
1
10
23.942478
20
38.028076
42
0.010780
0
VERTEX
8
1
10
24.514515
20
37.787170
0
VERTEX
8
1
10
24.493702
20
37.771622
0
SEQEND
0
LINE
8
1
10
10.911166
20
32.552155
11
10.911166
21
35.091888
0
LINE
8
1
10
27.546543
20
34.329956
11
27.546543
21
41.274414
0
LINE
8
1
10
10.911166
20
35.706406
11
10.911166
21
45.718842
0
POLYLINE
8
1
66
1
70
1
0
VERTEX
8
1
10
42.335361
20
20.083084
0
VERTEX
8
1
10
42.335361
20
28.164734
42
0.023383
0
VERTEX
8
1
10
40.521793
20
28.595718
0
VERTEX
8
1
10
40.979191
20
28.732056
0
VERTEX
8
1
10
40.933903
20
28.757996
42
0.118846
0
VERTEX
8
1
10
35.192081
20
29.748627
42
0.069584
0
VERTEX
8
1
10
35.827976
20
30.001770
0
VERTEX
8
1
10
35.751316
20
30.019714
42
-0.022145
0
VERTEX
8
1
10
31.741581
20
30.949112
0
VERTEX
8
1
10
31.766239
20
30.952225
0
VERTEX
8
1
10
33.272495
20
30.927917
42
-0.056477
0
VERTEX
8
1
10
33.160557
20
30.995270
42
0.011537
0
VERTEX
8
1
10
32.744785
20
31.276749
0
VERTEX
8
1
10
32.736088
20
31.281219
0
VERTEX
8
1
10
32.727238
20
31.285355
42
0.024981
0
VERTEX
8
1
10
30.123783
20
32.012070
42
0.016801
0
VERTEX
8
1
10
28.899609
20
32.233429
0
VERTEX
8
1
10
28.873165
20
32.238586
0
VERTEX
8
1
10
28.863964
20
32.240860
0
VERTEX
8
1
10
28.878658
20
32.392624
42
0.011559
0
VERTEX
8
1
10
28.561413
20
32.564331
42
-0.011136
0
VERTEX
8
1
10
27.880413
20
32.547256
0
VERTEX
8
1
10
27.011166
20
32.568375
42
0.003678
0
VERTEX
8
1
10
25.729183
20
32.558167
0
VERTEX
8
1
10
25.699993
20
32.552094
0
VERTEX
8
1
10
25.700008
20
21.733383
0
VERTEX
8
1
10
25.707348
20
21.730209
42
-0.043657
0
VERTEX
8
1
10
26.100811
20
21.692459
0
VERTEX
8
1
10
26.093487
20
21.689651
42
-0.003488
0
VERTEX
8
1
10
25.700008
20
21.588089
0
VERTEX
8
1
10
25.700008
20
18.207565
0
VERTEX
8
1
10
25.713757
20
18.204788
42
0.030830
0
VERTEX
8
1
10
28.377117
20
18.859680
0
VERTEX
8
1
10
28.415508
20
18.879349
42
0.044503
0
VERTEX
8
1
10
27.397305
20
19.235916
0
VERTEX
8
1
10
27.393093
20
19.250656
42
-0.131406
0
VERTEX
8
1
10
27.670452
20
19.419464
42
-0.018567
0
VERTEX
8
1
10
28.061230
20
19.517853
0
VERTEX
8
1
10
28.103222
20
19.529327
0
VERTEX
8
1
10
28.144985
20
19.541611
42
0.208580
0
VERTEX
8
1
10
28.641613
20
19.948792
42
0.076712
0
VERTEX
8
1
10
28.801510
20
20.416351
42
0.025458
0
VERTEX
8
1
10
28.860226
20
20.836273
0
VERTEX
8
1
10
28.871090
20
20.815887
0
VERTEX
8
1
10
29.272503
20
19.849945
0
VERTEX
8
1
10
29.288815
20
19.823914
42
-0.083193
0
VERTEX
8
1
10
32.480259
20
19.752701
0
VERTEX
8
1
10
32.540379
20
19.737610
0
VERTEX
8
1
10
31.204716
20
19.493134
0
VERTEX
8
1
10
31.184269
20
19.477905
42
0.242367
0
VERTEX
8
1
10
31.462406
20
19.158691
42
0.233099
0
VERTEX
8
1
10
31.900120
20
19.167923
42
0.017233
0
VERTEX
8
1
10
31.940342
20
19.193802
42
-0.118669
0
VERTEX
8
1
10
30.968632
20
18.717545
0
VERTEX
8
1
10
31.083836
20
18.687759
0
VERTEX
8
1
10
31.248478
20
18.652115
0
VERTEX
8
1
10
31.416477
20
18.618042
42
0.035919
0
VERTEX
8
1
10
34.432835
20
18.268753
42
0.031769
0
VERTEX
8
1
10
34.919651
20
18.274414
0
VERTEX
8
1
10
34.960575
20
18.280701
0
VERTEX
8
1
10
34.988346
20
18.288498
0
VERTEX
8
1
10
35.002384
20
18.297806
0
VERTEX
8
1
10
35.002079
20
18.308640
0
VERTEX
8
1
10
34.986851
20
18.320969
42
0.069877
0
VERTEX
8
1
10
34.845280
20
18.367020
42
-0.075268
0
VERTEX
8
1
10
37.430729
20
18.747086
42
-0.029855
0
VERTEX
8
1
10
39.386692
20
18.623642
0
VERTEX
8
1
10
39.578587
20
18.600739
0
VERTEX
8
1
10
39.751987
20
18.584320
42
0.145378
0
VERTEX
8
1
10
39.589329
20
18.844376
0
VERTEX
8
1
10
39.547733
20
18.880157
42
0.083055
0
VERTEX
8
1
10
39.103519
20
19.106903
42
0.027509
0
VERTEX
8
1
10
38.314762
20
19.314468
42
-0.023186
0
VERTEX
8
1
10
37.689335
20
19.478745
0
VERTEX
8
1
10
37.682194
20
19.496841
42
-0.038396
0
VERTEX
8
1
10
39.002048
20
19.480896
42
-0.002726
0
VERTEX
8
1
10
40.262669
20
19.364975
42
0.032165
0
VERTEX
8
1
10
41.530979
20
19.321808
42
0.030528
0
VERTEX
8
1
10
42.145054
20
19.384583
0
VERTEX
8
1
10
42.166172
20
19.418457
42
0.015236
0
VERTEX
8
1
10
39.663517
20
20.585709
42
0.001499
0
VERTEX
8
1
10
38.786381
20
20.966476
0
VERTEX
8
1
10
38.839970
20
20.957916
42
0.003365
0
VERTEX
8
1
10
41.231144
20
20.321121
42
0.012976
0
VERTEX
8
1
10
42.320591
20
20.073547
0
SEQEND
0
POLYLINE
8
1
66
1
70
1
0
VERTEX
8
1
10
39.300358
20
24.017517
0
VERTEX
8
1
10
36.869663
20
22.201370
42
0.164710
0
VERTEX
8
1
10
36.652988
20
22.002777
42
0.207874
0
VERTEX
8
1
10
36.645664
20
21.810959
0
VERTEX
8
1
10
36.869663
20
21.103531
0
VERTEX
8
1
10
34.401524
20
21.514618
42
0.277306
0
VERTEX
8
1
10
34.241520
20
21.462784
42
0.183581
0
VERTEX
8
1
10
34.208073
20
21.316223
42
0.002735
0
VERTEX
8
1
10
34.283726
20
18.804794
0
VERTEX
8
1
10
34.017735
20
18.824875
0
VERTEX
8
1
10
33.752018
20
18.804840
0
VERTEX
8
1
10
33.751499
20
18.805634
42
0.002811
0
VERTEX
8
1
10
33.827091
20
21.301514
0
VERTEX
8
1
10
33.827549
20
21.337677
0
VERTEX
8
1
10
33.827091
20
21.360840
0
VERTEX
8
1
10
33.825138
20
21.381638
42
0.390568
0
VERTEX
8
1
10
33.685551
20
21.516525
0
VERTEX
8
1
10
33.664371
20
21.517365
0
VERTEX
8
1
10
33.643192
20
21.516022
0
VERTEX
8
1
10
31.166599
20
21.103683
0
VERTEX
8
1
10
31.166050
20
21.104538
0
VERTEX
8
1
10
31.395298
20
21.828735
42
0.290168
0
VERTEX
8
1
10
31.309666
20
22.101440
42
0.077760
0
VERTEX
8
1
10
31.165867
20
22.201294
0
VERTEX
8
1
10
28.732052
20
24.019730
42
0.010017
0
VERTEX
8
1
10
29.317104
20
24.266815
0
VERTEX
8
1
10
29.339809
20
24.279053
0
VERTEX
8
1
10
29.359844
20
24.291733
42
0.436079
0
VERTEX
8
1
10
29.416485
20
24.534363
0
VERTEX
8
1
10
28.922604
20
25.973953
0
VERTEX
8
1
10
28.923580
20
25.974991
42
0.018276
0
VERTEX
8
1
10
30.202885
20
25.727341
42
0.029995
0
VERTEX
8
1
10
30.481266
20
25.700882
42
0.219500
0
VERTEX
8
1
10
30.669834
20
25.790314
42
0.114019
0
VERTEX
8
1
10
30.810551
20
26.081650
42
0.041362
0
VERTEX
8
1
10
30.862492
20
26.385986
42
0.014308
0
VERTEX
8
1
10
31.902470
20
25.330841
42
0.036439
0
VERTEX
8
1
10
32.190678
20
25.084396
0
VERTEX
8
1
10
32.219913
20
25.067535
42
0.334246
0
VERTEX
8
1
10
32.375248
20
25.081512
42
0.134009
0
VERTEX
8
1
10
32.466373
20
25.256851
42
0.046745
0
VERTEX
8
1
10
32.496250
20
25.428070
42
0.004295
0
VERTEX
8
1
10
31.999577
20
27.688461
42
-0.019455
0
VERTEX
8
1
10
31.966770
20
27.826538
42
0.051050
0
VERTEX
8
1
10
32.598515
20
27.531693
42
0.100548
0
VERTEX
8
1
10
32.845158
20
27.492615
42
0.170475
0
VERTEX
8
1
10
32.930393
20
27.532196
42
0.052850
0
VERTEX
8
1
10
33.232548
20
27.885864
0
VERTEX
8
1
10
33.287479
20
27.963043
42
0.026563
0
VERTEX
8
1
10
34.017612
20
29.165817
42
0.025202
0
VERTEX
8
1
10
34.728825
20
27.990417
42
0.038963
0
VERTEX
8
1
10
35.043339
20
27.590668
0
VERTEX
8
1
10
35.089603
20
27.545792
0
VERTEX
8
1
10
35.126713
20
27.514511
42
0.163688
0
VERTEX
8
1
10
35.248264
20
27.491333
42
0.076202
0
VERTEX
8
1
10
35.615604
20
27.598740
42
0.029484
0
VERTEX
8
1
10
36.070927
20
27.827911
0
VERTEX
8
1
10
36.066654
20
27.813614
42
0.009634
0
VERTEX
8
1
10
35.890903
20
27.045334
42
0.001131
0
VERTEX
8
1
10
35.538731
20
25.426285
42
0.095252
0
VERTEX
8
1
10
35.612461
20
25.144501
42
0.244733
0
VERTEX
8
1
10
35.730961
20
25.048798
42
0.161672
0
VERTEX
8
1
10
35.834385
20
25.077927
0
VERTEX
8
1
10
35.866093
20
25.099121
0
VERTEX
8
1
10
35.903996
20
25.127945
42
0.024118
0
VERTEX
8
1
10
36.486698
20
25.676605
42
0.006239
0
VERTEX
8
1
10
37.173862
20
26.386963
42
0.080756
0
VERTEX
8
1
10
37.276768
20
25.932526
42
0.153712
0
VERTEX
8
1
10
37.438663
20
25.730850
42
0.151788
0
VERTEX
8
1
10
37.581059
20
25.701370
42
0.030963
0
VERTEX
8
1
10
38.236851
20
25.794846
42
0.008321
0
VERTEX
8
1
10
39.113163
20
25.975204
0
VERTEX
8
1
10
38.618717
20
24.534103
42
0.424358
0
VERTEX
8
1
10
38.669254
20
24.296188
42
0.054218
0
VERTEX
8
1
10
38.734745
20
24.259079
42
0.008947
0
VERTEX
8
1
10
39.303043
20
24.019852
0
SEQEND
0
ENDSEC
0
EOF
