0
SECTION
2
HEADER
9
$EXTMIN
10
1.012489
20
0.023926
9
$EXTMAX
10
17.844597
20
15.367218
0
ENDSEC
0
SECTION
2
TABLES
0
TABLE
2
LTYPE
70
1
0
LTYPE
2
0
70
0
3
Solid Line
72
65
73
0
40
0.0
0
ENDTAB
0
TABLE
2
LAYER
70
1
0
LAYER
2
1
70
0
62
7
6
0
0
ENDTAB
0
ENDSEC
0
SECTION
2
BLOCKS
0
ENDSEC
0
SECTION
2
ENTITIES
0
POLYLINE
8
1
66
1
70
1
0
VERTEX
8
1
10
17.842697
20
13.034012
42
0.267587
0
VERTEX
8
1
10
17.814857
20
13.117142
42
0.118100
0
VERTEX
8
1
10
17.789108
20
13.257248
42
0.091956
0
VERTEX
8
1
10
17.563812
20
13.632843
0
VERTEX
8
1
10
17.550652
20
13.656204
0
VERTEX
8
1
10
17.536804
20
13.679184
42
0.223281
0
VERTEX
8
1
10
17.315895
20
13.850250
0
VERTEX
8
1
10
17.278076
20
13.857254
42
0.024044
0
VERTEX
8
1
10
16.760178
20
13.908752
42
-0.028649
0
VERTEX
8
1
10
16.307571
20
14.104843
0
VERTEX
8
1
10
16.292671
20
14.113556
42
0.002493
0
VERTEX
8
1
10
15.329300
20
14.714035
42
0.072454
0
VERTEX
8
1
10
14.984818
20
14.962357
0
VERTEX
8
1
10
14.943703
20
14.979294
42
0.039163
0
VERTEX
8
1
10
14.059395
20
15.205139
42
0.054330
0
VERTEX
8
1
10
12.007538
20
15.364182
42
0.014870
0
VERTEX
8
1
10
10.279213
20
15.305023
42
0.038576
0
VERTEX
8
1
10
9.278175
20
15.167694
0
VERTEX
8
1
10
9.178268
20
15.142197
0
VERTEX
8
1
10
9.091530
20
15.116730
0
VERTEX
8
1
10
9.070732
20
15.104645
42
0.017844
0
VERTEX
8
1
10
8.600273
20
14.730927
42
0.002993
0
VERTEX
8
1
10
7.620361
20
13.908813
0
VERTEX
8
1
10
7.440308
20
13.881104
0
VERTEX
8
1
10
7.301186
20
13.783966
42
0.015648
0
VERTEX
8
1
10
3.724495
20
13.421997
42
0.021696
0
VERTEX
8
1
10
2.190659
20
13.152573
42
0.023895
0
VERTEX
8
1
10
1.490662
20
12.946732
42
0.161270
0
VERTEX
8
1
10
1.420280
20
12.794632
42
0.088515
0
VERTEX
8
1
10
1.427132
20
12.425079
42
0.100753
0
VERTEX
8
1
10
1.555328
20
12.050980
42
0.077694
0
VERTEX
8
1
10
1.633339
20
11.964111
0
VERTEX
8
1
10
1.568695
20
11.948120
42
0.078462
0
VERTEX
8
1
10
1.370407
20
11.884460
42
0.333641
0
VERTEX
8
1
10
1.302567
20
11.752426
0
VERTEX
8
1
10
1.314384
20
11.733185
42
0.119364
0
VERTEX
8
1
10
1.468254
20
11.632156
42
0.047966
0
VERTEX
8
1
10
1.851974
20
11.519653
42
0.011522
0
VERTEX
8
1
10
1.988380
20
11.040100
42
0.103943
0
VERTEX
8
1
10
2.138802
20
10.871872
42
0.366133
0
VERTEX
8
1
10
2.183426
20
10.670715
42
0.025437
0
VERTEX
8
1
10
2.530579
20
10.420944
42
-0.014009
0
VERTEX
8
1
10
2.982468
20
10.105118
42
-0.044260
0
VERTEX
8
1
10
3.162079
20
9.936584
42
-0.007604
0
VERTEX
8
1
10
4.516548
20
9.770660
42
0.017799
0
VERTEX
8
1
10
5.383202
20
9.652451
42
0.025552
0
VERTEX
8
1
10
5.894966
20
9.613312
0
VERTEX
8
1
10
5.924622
20
9.614868
0
VERTEX
8
1
10
5.963669
20
9.621674
0
VERTEX
8
1
10
5.985008
20
9.625000
42
0.170624
0
VERTEX
8
1
10
6.619125
20
9.916992
42
0.015520
0
VERTEX
8
1
10
6.751823
20
10.050034
42
-0.049907
0
VERTEX
8
1
10
7.106209
20
10.117111
42
-0.048014
0
VERTEX
8
1
10
7.242867
20
10.011276
0
VERTEX
8
1
10
7.273582
20
9.874512
42
0.151139
0
VERTEX
8
1
10
7.766708
20
9.037323
42
0.104349
0
VERTEX
8
1
10
8.265060
20
8.761200
42
0.060171
0
VERTEX
8
1
10
8.587418
20
8.715134
42
0.033866
0
VERTEX
8
1
10
9.163315
20
8.733505
42
0.159926
0
VERTEX
8
1
10
9.847610
20
8.934952
42
0.125165
0
VERTEX
8
1
10
10.335640
20
9.493774
42
0.110672
0
VERTEX
8
1
10
10.542336
20
10.291321
0
VERTEX
8
1
10
10.550911
20
10.347702
0
VERTEX
8
1
10
15.165390
20
11.347961
0
VERTEX
8
1
10
15.177116
20
11.316391
42
0.086440
0
VERTEX
8
1
10
15.366425
20
10.868164
42
0.146309
0
VERTEX
8
1
10
15.548004
20
10.708847
42
-0.043773
0
VERTEX
8
1
10
15.678925
20
10.666840
42
0.085130
0
VERTEX
8
1
10
16.021660
20
10.620895
0
VERTEX
8
1
10
16.080238
20
10.622177
42
0.059301
0
VERTEX
8
1
10
16.421349
20
10.668030
42
0.143674
0
VERTEX
8
1
10
16.619385
20
10.815247
42
0.097278
0
VERTEX
8
1
10
16.822548
20
11.230057
42
0.073396
0
VERTEX
8
1
10
16.917511
20
11.979446
0
VERTEX
8
1
10
17.036873
20
12.005981
42
0.372715
0
VERTEX
8
1
10
17.108696
20
12.179688
0
VERTEX
8
1
10
17.116814
20
12.194397
0
VERTEX
8
1
10
17.140289
20
12.210754
0
VERTEX
8
1
10
17.163948
20
12.226852
42
0.110352
0
VERTEX
8
1
10
17.558571
20
12.604568
42
0.009158
0
VERTEX
8
1
10
17.684319
20
12.792435
42
0.068475
0
SEQEND
0
POLYLINE
8
1
66
1
70
1
0
VERTEX
8
1
10
8.251022
20
12.157181
42
0.070491
0
VERTEX
8
1
10
8.300972
20
12.061584
42
-0.121075
0
VERTEX
8
1
10
9.659302
20
12.412750
0
VERTEX
8
1
10
9.775406
20
12.410034
0
VERTEX
8
1
10
9.893799
20
12.401520
0
VERTEX
8
1
10
9.953690
20
12.400452
42
0.318776
0
VERTEX
8
1
10
9.871010
20
12.525742
42
0.089146
0
VERTEX
8
1
10
9.642357
20
12.573700
42
0.074964
0
VERTEX
8
1
10
8.788620
20
12.520432
42
0.093724
0
VERTEX
8
1
10
8.337463
20
12.330444
0
VERTEX
8
1
10
8.274803
20
12.282181
0
VERTEX
8
1
10
8.243721
20
12.250427
42
0.145296
0
SEQEND
0
POLYLINE
8
1
66
1
70
1
0
VERTEX
8
1
10
8.384186
20
13.198486
42
0.022091
0
VERTEX
8
1
10
6.549118
20
12.883087
42
0.036520
0
VERTEX
8
1
10
5.585571
20
12.600327
0
VERTEX
8
1
10
5.458397
20
12.547134
0
VERTEX
8
1
10
5.342636
20
12.492142
42
-0.154491
0
VERTEX
8
1
10
5.615532
20
12.321426
0
VERTEX
8
1
10
5.630287
20
12.300598
0
VERTEX
8
1
10
5.643570
20
12.278809
0
VERTEX
8
1
10
5.653801
20
12.271027
0
VERTEX
8
1
10
5.877243
20
12.311813
42
-0.000595
0
VERTEX
8
1
10
11.925972
20
13.381104
0
VERTEX
8
1
10
11.925972
20
13.519913
42
0.018199
0
SEQEND
0
POLYLINE
8
1
66
1
70
1
0
VERTEX
8
1
10
8.031891
20
13.409180
42
-0.017741
0
VERTEX
8
1
10
9.537086
20
13.575485
42
0.013039
0
VERTEX
8
1
10
6.694771
20
13.019257
42
0.022074
0
VERTEX
8
1
10
5.507599
20
12.704727
42
0.047688
0
VERTEX
8
1
10
5.062820
20
12.522202
42
0.026969
0
VERTEX
8
1
10
4.946190
20
12.658249
42
0.110217
0
VERTEX
8
1
10
4.859245
20
12.699799
0
VERTEX
8
1
10
4.934525
20
12.724884
42
-0.038412
0
SEQEND
0
POLYLINE
8
1
66
1
70
1
0
VERTEX
8
1
10
5.943718
20
13.355392
42
0.023618
0
VERTEX
8
1
10
4.065933
20
12.967102
42
0.031019
0
VERTEX
8
1
10
3.223518
20
12.690475
0
VERTEX
8
1
10
3.085938
20
12.629913
42
0.012234
0
VERTEX
8
1
10
4.022095
20
12.542007
42
0.056037
0
VERTEX
8
1
10
4.201836
20
12.542557
42
-0.044026
0
VERTEX
8
1
10
4.445801
20
12.655090
0
VERTEX
8
1
10
4.532784
20
12.689575
0
VERTEX
8
1
10
4.620293
20
12.722672
42
-0.035429
0
VERTEX
8
1
10
6.416420
20
13.217178
42
-0.031421
0
VERTEX
8
1
10
9.420692
20
13.634796
0
VERTEX
8
1
10
9.632629
20
13.651260
42
0.034264
0
VERTEX
8
1
10
10.086044
20
13.714142
42
0.143961
0
VERTEX
8
1
10
10.210594
20
13.775681
42
0.003642
0
VERTEX
8
1
10
8.960899
20
13.838165
0
VERTEX
8
1
10
8.773392
20
13.714508
42
0.016662
0
SEQEND
0
POLYLINE
8
1
66
1
70
1
0
VERTEX
8
1
10
7.925308
20
13.839172
0
VERTEX
8
1
10
8.627342
20
13.859024
42
-0.090777
0
VERTEX
8
1
10
7.992020
20
13.713776
42
0.038032
0
VERTEX
8
1
10
4.643349
20
13.239578
42
0.042849
0
VERTEX
8
1
10
2.748779
20
12.652420
42
-0.082423
0
VERTEX
8
1
10
2.544319
20
12.775742
42
-0.056679
0
VERTEX
8
1
10
2.790108
20
12.905746
42
-0.037406
0
VERTEX
8
1
10
3.498047
20
13.141006
42
-0.028500
0
VERTEX
8
1
10
5.079102
20
13.450912
42
-0.014643
0
VERTEX
8
1
10
6.786575
20
13.644104
42
0.012100
0
VERTEX
8
1
10
7.606110
20
13.742081
0
SEQEND
0
POLYLINE
8
1
66
1
70
1
0
VERTEX
8
1
10
3.777161
20
13.269730
42
0.022595
0
VERTEX
8
1
10
2.794296
20
13.004898
0
VERTEX
8
1
10
2.127663
20
12.734070
42
0.255608
0
VERTEX
8
1
10
1.836006
20
12.734070
42
-0.082205
0
VERTEX
8
1
10
1.779793
20
12.808533
42
0.023333
0
VERTEX
8
1
10
1.750061
20
12.843994
42
-0.049012
0
VERTEX
8
1
10
3.703194
20
13.341064
42
-0.034468
0
VERTEX
8
1
10
4.398186
20
13.394913
42
0.010172
0
SEQEND
0
POLYLINE
8
1
66
1
70
1
0
VERTEX
8
1
10
10.092560
20
14.899567
42
0.056749
0
VERTEX
8
1
10
9.359764
20
14.902298
0
VERTEX
8
1
10
9.287506
20
14.889160
0
VERTEX
8
1
10
9.222298
20
14.871765
42
0.027592
0
VERTEX
8
1
10
8.465675
20
14.179718
42
0.042604
0
VERTEX
8
1
10
8.281891
20
13.952530
0
VERTEX
8
1
10
8.331863
20
13.947189
42
-0.007494
0
VERTEX
8
1
10
9.739983
20
13.927338
42
-0.043661
0
VERTEX
8
1
10
10.173889
20
13.982635
42
-0.012778
0
VERTEX
8
1
10
10.620712
20
13.955307
0
VERTEX
8
1
10
10.675766
20
13.991989
0
VERTEX
8
1
10
10.675873
20
13.992615
42
-0.274981
0
VERTEX
8
1
10
10.705711
20
14.108154
42
-0.153516
0
VERTEX
8
1
10
10.768295
20
14.130219
0
VERTEX
8
1
10
10.791199
20
14.136932
0
VERTEX
8
1
10
10.807106
20
14.161545
42
-0.007390
0
VERTEX
8
1
10
11.156281
20
14.719498
0
VERTEX
8
1
10
11.166588
20
14.732956
42
0.093349
0
VERTEX
8
1
10
10.790260
20
14.792679
42
0.055309
0
VERTEX
8
1
10
10.789482
20
14.677704
42
-0.363185
0
VERTEX
8
1
10
10.732201
20
14.631073
42
-0.006108
0
VERTEX
8
1
10
10.122185
20
14.614258
42
-0.452801
0
VERTEX
8
1
10
10.082458
20
14.683014
42
-0.007410
0
VERTEX
8
1
10
10.120422
20
14.803436
42
-0.319288
0
VERTEX
8
1
10
10.143417
20
14.819580
42
-0.000269
0
VERTEX
8
1
10
10.234871
20
14.831131
42
0.099341
0
VERTEX
8
1
10
10.240753
20
14.834503
0
VERTEX
8
1
10
10.213219
20
14.871506
0
VERTEX
8
1
10
10.111168
20
14.862534
0
SEQEND
0
POLYLINE
8
1
66
1
70
1
0
VERTEX
8
1
10
12.199196
20
14.511307
0
VERTEX
8
1
10
12.222267
20
14.756027
42
0.057197
0
VERTEX
8
1
10
12.014923
20
14.647888
0
VERTEX
8
1
10
11.996002
20
14.631714
0
VERTEX
8
1
10
11.998665
20
14.619446
42
0.051384
0
SEQEND
0
POLYLINE
8
1
66
1
70
1
0
VERTEX
8
1
10
13.808060
20
14.870575
0
VERTEX
8
1
10
12.560242
20
14.816208
0
VERTEX
8
1
10
12.495522
20
14.353180
42
0.116296
0
VERTEX
8
1
10
12.830574
20
14.230530
0
VERTEX
8
1
10
12.875008
20
14.223618
0
VERTEX
8
1
10
14.800949
20
14.274612
0
VERTEX
8
1
10
14.601830
20
14.742203
42
0.088695
0
VERTEX
8
1
10
14.488060
20
14.805344
42
0.006680
0
VERTEX
8
1
10
14.254707
20
14.867142
0
VERTEX
8
1
10
14.235306
20
14.856781
42
-0.169198
0
VERTEX
8
1
10
14.094810
20
14.823227
42
-0.005669
0
VERTEX
8
1
10
13.971657
20
14.822006
0
SEQEND
0
POLYLINE
8
1
66
1
70
1
0
VERTEX
8
1
10
11.939423
20
15.230225
42
0.017116
0
VERTEX
8
1
10
12.120415
20
15.200485
42
-0.098900
0
VERTEX
8
1
10
12.296005
20
15.115662
42
-0.214181
0
VERTEX
8
1
10
12.370880
20
14.932220
0
VERTEX
8
1
10
12.371170
20
14.900436
42
-0.017460
0
VERTEX
8
1
10
12.310043
20
14.314133
42
-0.002871
0
VERTEX
8
1
10
12.231544
20
13.700607
0
VERTEX
8
1
10
12.314590
20
13.714325
0
VERTEX
8
1
10
12.314949
20
13.714981
42
-0.017605
0
VERTEX
8
1
10
12.474648
20
14.690964
42
-0.045039
0
VERTEX
8
1
10
12.558479
20
14.986801
42
-0.229010
0
VERTEX
8
1
10
12.645248
20
15.060226
42
-0.069936
0
VERTEX
8
1
10
12.961151
20
15.112350
42
-0.020995
0
VERTEX
8
1
10
13.370171
20
15.117950
0
VERTEX
8
1
10
13.368706
20
15.120468
42
0.145162
0
VERTEX
8
1
10
13.288925
20
15.162247
0
VERTEX
8
1
10
13.273140
20
15.167191
42
0.045937
0
VERTEX
8
1
10
12.807251
20
15.243896
42
0.023938
0
VERTEX
8
1
10
11.941254
20
15.288940
42
0.079152
0
VERTEX
8
1
10
11.832367
20
15.276199
0
VERTEX
8
1
10
11.826752
20
15.271011
0
VERTEX
8
1
10
11.828873
20
15.265213
42
0.079103
0
SEQEND
0
POLYLINE
8
1
66
1
70
1
0
VERTEX
8
1
10
16.445869
20
13.997452
42
0.003070
0
VERTEX
8
1
10
16.833389
20
13.825485
42
0.012686
0
VERTEX
8
1
10
15.771416
20
13.907761
42
-0.001570
0
VERTEX
8
1
10
15.611229
20
13.912506
0
VERTEX
8
1
10
15.630493
20
13.921051
42
-0.046988
0
VERTEX
8
1
10
15.900429
20
13.953552
42
-0.005563
0
VERTEX
8
1
10
16.315437
20
13.965683
0
VERTEX
8
1
10
16.315781
20
13.970245
0
VERTEX
8
1
10
16.315178
20
13.974792
42
0.166459
0
VERTEX
8
1
10
16.245041
20
14.034439
42
0.033870
0
VERTEX
8
1
10
16.120461
20
14.089386
42
-0.107702
0
VERTEX
8
1
10
16.388123
20
14.024857
0
SEQEND
0
POLYLINE
8
1
66
1
70
1
0
VERTEX
8
1
10
6.459770
20
11.776215
42
-0.028055
0
VERTEX
8
1
10
5.814980
20
12.109070
42
-0.031522
0
VERTEX
8
1
10
5.936691
20
11.738464
42
-0.013973
0
VERTEX
8
1
10
5.941948
20
11.702042
42
-0.118555
0
VERTEX
8
1
10
6.008408
20
11.817184
42
-0.229383
0
VERTEX
8
1
10
6.085800
20
11.838257
0
VERTEX
8
1
10
6.460022
20
11.775879
0
SEQEND
0
POLYLINE
8
1
66
1
70
1
0
VERTEX
8
1
10
6.755272
20
10.230865
42
0.049857
0
VERTEX
8
1
10
7.232849
20
10.737076
0
VERTEX
8
1
10
7.273071
20
10.796600
0
VERTEX
8
1
10
7.272964
20
10.800522
0
VERTEX
8
1
10
7.261353
20
10.794312
42
-0.017331
0
VERTEX
8
1
10
6.702278
20
10.401917
42
-0.061978
0
VERTEX
8
1
10
6.213852
20
10.162125
42
-0.076024
0
VERTEX
8
1
10
5.998184
20
10.128174
0
VERTEX
8
1
10
5.905457
20
10.126312
42
-0.022743
0
VERTEX
8
1
10
4.898132
20
10.171509
42
0.156778
0
VERTEX
8
1
10
4.868828
20
10.032654
42
0.327574
0
VERTEX
8
1
10
4.919022
20
9.984146
42
-0.031304
0
VERTEX
8
1
10
5.334282
20
9.867767
42
-0.096124
0
VERTEX
8
1
10
5.370064
20
9.847366
0
VERTEX
8
1
10
5.369072
20
9.842896
0
VERTEX
8
1
10
5.360413
20
9.839844
42
0.117737
0
VERTEX
8
1
10
5.239464
20
9.818527
42
0.388784
0
VERTEX
8
1
10
5.211266
20
9.734116
42
0.026677
0
VERTEX
8
1
10
5.812904
20
9.713928
42
0.063423
0
VERTEX
8
1
10
5.970833
20
9.734436
0
VERTEX
8
1
10
5.991188
20
9.743729
0
VERTEX
8
1
10
6.002296
20
9.754990
0
VERTEX
8
1
10
6.008163
20
9.768570
42
0.036255
0
VERTEX
8
1
10
6.048698
20
9.974228
42
-0.147074
0
VERTEX
8
1
10
6.063866
20
10.015778
0
VERTEX
8
1
10
6.068130
20
10.016281
0
VERTEX
8
1
10
6.072807
20
10.012421
42
-0.101587
0
VERTEX
8
1
10
6.108673
20
9.856705
42
0.144518
0
VERTEX
8
1
10
6.131737
20
9.767151
42
0.347672
0
VERTEX
8
1
10
6.180016
20
9.770340
42
0.032109
0
VERTEX
8
1
10
6.382950
20
9.918030
42
0.017313
0
SEQEND
0
POLYLINE
8
1
66
1
70
1
0
VERTEX
8
1
10
2.825264
20
10.360687
42
0.025719
0
VERTEX
8
1
10
3.317223
20
10.294540
0
VERTEX
8
1
10
3.343826
20
10.294922
0
VERTEX
8
1
10
3.361176
20
10.297684
0
VERTEX
8
1
10
3.211151
20
10.026260
0
VERTEX
8
1
10
3.208748
20
10.027725
0
VERTEX
8
1
10
2.817062
20
10.360641
0
VERTEX
8
1
10
2.815552
20
10.362381
0
SEQEND
0
POLYLINE
8
1
66
1
70
1
0
VERTEX
8
1
10
4.669212
20
10.171616
0
VERTEX
8
1
10
3.564880
20
10.251389
0
VERTEX
8
1
10
3.419708
20
9.985016
0
VERTEX
8
1
10
3.420555
20
9.984024
42
0.012047
0
VERTEX
8
1
10
4.733597
20
9.809616
42
0.028073
0
VERTEX
8
1
10
4.896034
20
9.801239
0
VERTEX
8
1
10
4.912445
20
9.805435
0
VERTEX
8
1
10
4.905998
20
9.813782
0
VERTEX
8
1
10
4.878639
20
9.825806
0
VERTEX
8
1
10
4.848625
20
9.836838
42
0.019204
0
VERTEX
8
1
10
4.292870
20
9.989853
42
-0.049644
0
VERTEX
8
1
10
4.173714
20
10.025116
0
VERTEX
8
1
10
4.174858
20
10.027451
42
0.073440
0
VERTEX
8
1
10
4.626297
20
10.054733
0
VERTEX
8
1
10
4.690010
20
10.067627
0
SEQEND
0
POLYLINE
8
1
66
1
70
1
0
VERTEX
8
1
10
1.555901
20
11.848709
42
0.036975
0
VERTEX
8
1
10
1.627693
20
11.859116
42
0.164256
0
VERTEX
8
1
10
1.685562
20
11.811920
42
0.064962
0
VERTEX
8
1
10
1.905396
20
11.741974
0
VERTEX
8
1
10
1.970482
20
11.729019
0
VERTEX
8
1
10
2.044991
20
11.716370
0
VERTEX
8
1
10
2.068085
20
11.695007
42
-0.033991
0
VERTEX
8
1
10
2.085999
20
11.484467
0
VERTEX
8
1
10
2.083992
20
11.484863
42
-0.016453
0
VERTEX
8
1
10
1.469650
20
11.729431
0
VERTEX
8
1
10
1.428551
20
11.749619
0
VERTEX
8
1
10
1.398453
20
11.766617
0
VERTEX
8
1
10
1.386101
20
11.780823
42
-0.239563
0
VERTEX
8
1
10
1.481148
20
11.839844
42
-0.022251
0
SEQEND
0
POLYLINE
8
1
66
1
70
1
0
VERTEX
8
1
10
4.862961
20
11.173218
42
-0.008080
0
VERTEX
8
1
10
4.377541
20
11.275803
42
0.148834
0
VERTEX
8
1
10
4.393333
20
11.138153
42
0.213232
0
VERTEX
8
1
10
4.439781
20
11.100357
0
VERTEX
8
1
10
4.477837
20
11.088943
42
0.015405
0
VERTEX
8
1
10
5.338097
20
10.910675
0
VERTEX
8
1
10
5.502495
20
10.880005
42
-0.168463
0
VERTEX
8
1
10
5.489677
20
10.995392
42
-0.376363
0
VERTEX
8
1
10
5.562126
20
11.023956
0
VERTEX
8
1
10
5.579231
20
11.018738
42
-0.107866
0
VERTEX
8
1
10
5.686943
20
10.922379
42
0.204172
0
VERTEX
8
1
10
5.736877
20
10.888428
42
0.497069
0
VERTEX
8
1
10
5.755829
20
10.938416
42
0.088759
0
VERTEX
8
1
10
5.736908
20
10.951340
0
VERTEX
8
1
10
5.738136
20
10.952576
42
-0.164582
0
VERTEX
8
1
10
5.971329
20
10.941513
42
-0.043447
0
VERTEX
8
1
10
6.064972
20
10.900818
42
0.034729
0
VERTEX
8
1
10
6.544899
20
10.979599
42
0.076015
0
VERTEX
8
1
10
6.637398
20
11.018173
42
0.563749
0
VERTEX
8
1
10
6.639053
20
11.060516
42
0.159760
0
VERTEX
8
1
10
6.492615
20
11.120087
42
0.036602
0
VERTEX
8
1
10
6.377457
20
11.129990
42
-0.117238
0
VERTEX
8
1
10
5.201836
20
11.108765
42
-0.003439
0
SEQEND
0
POLYLINE
8
1
66
1
70
1
0
VERTEX
8
1
10
16.327957
20
13.028519
42
-0.161423
0
VERTEX
8
1
10
16.726974
20
13.131042
42
-0.192986
0
VERTEX
8
1
10
17.030556
20
12.963852
0
VERTEX
8
1
10
17.077477
20
12.903610
0
VERTEX
8
1
10
17.094749
20
12.902710
42
0.342499
0
VERTEX
8
1
10
16.880516
20
13.233505
42
0.186080
0
VERTEX
8
1
10
16.464073
20
13.228973
42
0.220844
0
VERTEX
8
1
10
16.314804
20
13.076874
42
0.144858
0
VERTEX
8
1
10
16.314857
20
13.019928
0
SEQEND
0
POLYLINE
8
1
66
1
0
VERTEX
8
1
10
8.134308
20
11.936584
42
-0.008114
0
VERTEX
8
1
10
7.477356
20
10.976761
42
-0.014011
0
VERTEX
8
1
10
7.425972
20
10.908813
0
SEQEND
0
POLYLINE
8
1
66
1
0
VERTEX
8
1
10
6.925972
20
10.186584
42
0.013140
0
VERTEX
8
1
10
7.331345
20
10.694595
42
0.037626
0
VERTEX
8
1
10
7.370415
20
10.756027
0
SEQEND
0
POLYLINE
8
1
66
1
0
VERTEX
8
1
10
2.412086
20
10.658813
42
0.024696
0
VERTEX
8
1
10
2.669922
20
10.495285
0
VERTEX
8
1
10
2.675972
20
10.492142
42
0.022326
0
VERTEX
8
1
10
3.059021
20
10.453613
42
0.003443
0
VERTEX
8
1
10
5.912086
20
10.242142
0
SEQEND
0
POLYLINE
8
1
66
1
0
VERTEX
8
1
10
4.481544
20
10.955109
42
0.012015
0
VERTEX
8
1
10
5.536682
20
10.757538
0
VERTEX
8
1
10
5.568855
20
10.753494
42
0.052661
0
VERTEX
8
1
10
6.296555
20
10.778122
42
0.075235
0
VERTEX
8
1
10
6.555618
20
10.853241
0
SEQEND
0
POLYLINE
8
1
66
1
70
1
0
VERTEX
8
1
10
5.551979
20
11.434586
42
-0.051189
0
VERTEX
8
1
10
5.467636
20
11.422699
42
-0.252986
0
VERTEX
8
1
10
5.241844
20
11.644623
42
-0.098945
0
VERTEX
8
1
10
5.184410
20
12.102005
42
-0.022779
0
VERTEX
8
1
10
5.202888
20
12.297745
42
-0.149713
0
VERTEX
8
1
10
5.034958
20
12.357452
42
-0.161324
0
VERTEX
8
1
10
4.992859
20
12.425568
0
VERTEX
8
1
10
4.987534
20
12.424301
42
0.105794
0
VERTEX
8
1
10
4.995140
20
11.705627
42
0.074098
0
VERTEX
8
1
10
5.088593
20
11.473785
0
VERTEX
8
1
10
5.108368
20
11.447510
0
VERTEX
8
1
10
5.133766
20
11.422989
42
0.238679
0
VERTEX
8
1
10
5.534775
20
11.346985
42
0.220519
0
VERTEX
8
1
10
5.681747
20
11.481155
42
-0.057604
0
SEQEND
0
POLYLINE
8
1
66
1
70
1
0
VERTEX
8
1
10
5.671333
20
12.052597
42
-0.183391
0
VERTEX
8
1
10
5.679169
20
11.721100
42
-0.238832
0
VERTEX
8
1
10
5.574661
20
11.616165
42
-0.250141
0
VERTEX
8
1
10
5.461502
20
11.654388
0
VERTEX
8
1
10
5.444748
20
11.671646
0
VERTEX
8
1
10
5.428978
20
11.691513
42
-0.233774
0
VERTEX
8
1
10
5.381073
20
12.096481
42
-0.238868
0
VERTEX
8
1
10
5.485596
20
12.201431
42
-0.249861
0
VERTEX
8
1
10
5.598740
20
12.163193
42
-0.110622
0
SEQEND
0
POLYLINE
8
1
66
1
70
1
0
VERTEX
8
1
10
1.812057
20
12.595139
42
-0.144245
0
VERTEX
8
1
10
1.828644
20
12.230545
42
-0.167570
0
VERTEX
8
1
10
1.779129
20
12.152588
42
-0.368375
0
VERTEX
8
1
10
1.712959
20
12.166107
42
-0.135052
0
VERTEX
8
1
10
1.636971
20
12.331955
42
-0.139029
0
VERTEX
8
1
10
1.647163
20
12.650909
42
-0.217834
0
VERTEX
8
1
10
1.701721
20
12.712418
0
VERTEX
8
1
10
1.715202
20
12.713638
42
-0.243999
0
VERTEX
8
1
10
1.789276
20
12.646622
42
-0.039943
0
SEQEND
0
ARC
8
1
10
1.705791
20
12.146511
40
0.170212
50
-81.302664
51
-14.721661
0
POLYLINE
8
1
66
1
0
VERTEX
8
1
10
1.662086
20
12.867142
42
0.258003
0
VERTEX
8
1
10
1.583961
20
12.816788
42
0.123890
0
VERTEX
8
1
10
1.536057
20
12.663635
42
0.051569
0
VERTEX
8
1
10
1.537087
20
12.422699
0
SEQEND
0
POLYLINE
8
1
66
1
70
1
0
VERTEX
8
1
10
4.537254
20
11.740906
42
-0.172203
0
VERTEX
8
1
10
4.534111
20
12.037521
42
-0.270832
0
VERTEX
8
1
10
4.639900
20
12.131104
42
-0.222872
0
VERTEX
8
1
10
4.754738
20
12.082916
0
VERTEX
8
1
10
4.772148
20
12.064453
42
-0.233700
0
VERTEX
8
1
10
4.854355
20
11.665039
42
-0.238879
0
VERTEX
8
1
10
4.759148
20
11.551575
42
-0.250081
0
VERTEX
8
1
10
4.643166
20
11.580032
42
-0.143572
0
SEQEND
0
POLYLINE
8
1
66
1
70
1
0
VERTEX
8
1
10
2.301659
20
11.009796
42
-0.040988
0
VERTEX
8
1
10
2.250046
20
11.131027
0
VERTEX
8
1
10
2.490562
20
10.844269
0
VERTEX
8
1
10
3.842743
20
10.760666
42
0.229544
0
VERTEX
8
1
10
3.951363
20
10.781525
42
0.149140
0
VERTEX
8
1
10
3.963020
20
10.806946
42
-0.331755
0
VERTEX
8
1
10
3.877113
20
10.673630
42
-0.115680
0
VERTEX
8
1
10
3.732735
20
10.649155
42
-0.000927
0
VERTEX
8
1
10
2.490623
20
10.714584
42
-0.040521
0
SEQEND
0
POLYLINE
8
1
66
1
70
1
0
VERTEX
8
1
10
3.226913
20
12.196075
42
0.003878
0
VERTEX
8
1
10
2.231529
20
12.223618
42
0.120919
0
VERTEX
8
1
10
2.343918
20
12.117905
42
0.097675
0
VERTEX
8
1
10
2.378304
20
12.110703
42
0.004685
0
VERTEX
8
1
10
3.870422
20
12.019913
42
0.432488
0
VERTEX
8
1
10
3.753242
20
12.164017
42
0.021224
0
SEQEND
0
POLYLINE
8
1
66
1
0
VERTEX
8
1
10
3.916718
20
11.908798
42
-0.010184
0
VERTEX
8
1
10
3.972420
20
10.985535
42
-0.019573
0
VERTEX
8
1
10
3.972267
20
10.908798
0
SEQEND
0
POLYLINE
8
1
66
1
70
1
0
VERTEX
8
1
10
2.018593
20
12.371399
0
VERTEX
8
1
10
2.101906
20
12.482880
42
0.240052
0
VERTEX
8
1
10
2.034637
20
12.511063
42
0.247053
0
VERTEX
8
1
10
1.992020
20
12.470169
42
0.230923
0
VERTEX
8
1
10
2.027771
20
12.095459
0
SEQEND
0
LINE
8
1
10
2.083382
20
12.353241
11
2.166718
21
12.279175
0
POLYLINE
8
1
66
1
0
VERTEX
8
1
10
2.120415
20
11.325470
0
VERTEX
8
1
10
2.138939
20
11.103241
0
VERTEX
8
1
10
2.324135
20
10.797684
0
SEQEND
0
LINE
8
1
10
3.493103
20
11.955109
11
3.576439
21
10.899551
0
LINE
8
1
10
3.020882
20
11.968979
11
3.104218
21
10.894913
0
LINE
8
1
10
2.571808
20
12.019928
11
2.625046
21
10.964355
0
LINE
8
1
10
2.180618
20
12.121765
11
2.213020
21
11.288437
0
LINE
8
1
10
3.689857
20
10.879471
11
3.863472
21
10.867142
0
LINE
8
1
10
3.203827
20
10.900940
11
3.467636
21
10.886734
0
LINE
8
1
10
2.919235
20
10.905319
11
3.002357
21
10.901550
0
LINE
8
1
10
2.717636
20
11.999084
11
2.766251
21
10.901871
0
LINE
8
1
10
2.919029
20
11.957428
11
2.821808
21
11.964371
0
LINE
8
1
10
3.384117
20
11.929245
11
3.113182
21
11.946167
0
LINE
8
1
10
3.821808
20
11.901871
11
3.592392
21
11.916214
0
LINE
8
1
10
2.981712
20
11.179642
11
2.880836
21
11.190063
0
LINE
8
1
10
3.439857
20
11.142136
11
3.190170
21
11.155014
0
LINE
8
1
10
3.877357
20
11.124084
11
3.654579
21
11.133911
0
LINE
8
1
10
2.959915
20
11.432709
11
2.856529
21
11.436584
0
LINE
8
1
10
3.419029
20
11.410278
11
3.182945
21
11.427795
0
LINE
8
1
10
3.800972
20
11.387985
11
3.648338
21
11.397598
0
LINE
8
1
10
2.960251
20
11.711090
11
2.849586
21
11.714371
0
LINE
8
1
10
3.433228
20
11.697174
11
3.155525
21
11.710373
0
LINE
8
1
10
3.787086
20
11.679642
11
3.634666
21
11.686905
0
ARC
8
1
10
285.946320
20
27.426403
40
283.957181
50
-176.898227
51
-176.697538
0
POLYLINE
8
1
66
1
70
1
0
VERTEX
8
1
10
6.800941
20
11.707993
42
0.107612
0
VERTEX
8
1
10
6.689857
20
11.714371
0
VERTEX
8
1
10
6.228638
20
11.660110
42
0.215602
0
VERTEX
8
1
10
6.128883
20
11.608109
0
VERTEX
8
1
10
6.122681
20
11.593079
42
0.058638
0
VERTEX
8
1
10
6.123047
20
11.487198
42
0.363805
0
VERTEX
8
1
10
6.203896
20
11.421509
0
VERTEX
8
1
10
6.231529
20
11.422699
42
0.005873
0
VERTEX
8
1
10
6.781448
20
11.496658
42
0.161144
0
VERTEX
8
1
10
6.840446
20
11.527634
0
VERTEX
8
1
10
6.843826
20
11.537018
42
-0.092126
0
VERTEX
8
1
10
6.841576
20
11.687531
42
0.097345
0
SEQEND
0
POLYLINE
8
1
66
1
0
VERTEX
8
1
10
12.273193
20
14.950485
42
0.219041
0
VERTEX
8
1
10
12.196152
20
15.051834
42
0.122162
0
VERTEX
8
1
10
11.973915
20
15.117599
42
0.018375
0
VERTEX
8
1
10
11.573364
20
15.133392
42
0.014430
0
VERTEX
8
1
10
9.724632
20
15.119293
42
0.051747
0
VERTEX
8
1
10
9.238609
20
15.054520
42
0.125788
0
VERTEX
8
1
10
9.038376
20
14.945969
42
0.001064
0
VERTEX
8
1
10
7.939857
20
14.033813
0
SEQEND
0
LINE
8
1
10
12.134308
20
13.714371
11
12.207787
21
14.368256
0
POLYLINE
8
1
66
1
0
VERTEX
8
1
10
11.009308
20
13.936584
42
-0.222764
0
VERTEX
8
1
10
11.334724
20
14.098099
42
-0.133141
0
VERTEX
8
1
10
11.687111
20
14.019760
42
-0.145852
0
VERTEX
8
1
10
11.842636
20
13.853256
0
SEQEND
0
POLYLINE
8
1
66
1
70
1
0
VERTEX
8
1
10
13.333084
20
14.020370
42
0.160551
0
VERTEX
8
1
10
13.256035
20
14.064133
42
0.099203
0
VERTEX
8
1
10
13.029045
20
14.078659
0
VERTEX
8
1
10
12.959114
20
14.070496
0
VERTEX
8
1
10
12.879684
20
14.056961
42
0.095468
0
VERTEX
8
1
10
12.764458
20
13.971909
42
0.549720
0
VERTEX
8
1
10
12.777328
20
13.903046
42
0.150559
0
VERTEX
8
1
10
12.949814
20
13.887650
42
0.086417
0
VERTEX
8
1
10
13.235855
20
13.975739
42
0.010759
0
SEQEND
0
POLYLINE
8
1
66
1
0
VERTEX
8
1
10
13.398216
20
13.945847
42
-0.182580
0
VERTEX
8
1
10
13.385277
20
13.793808
42
-0.240311
0
VERTEX
8
1
10
13.286377
20
13.735474
42
-0.106195
0
VERTEX
8
1
10
12.840210
20
13.764679
42
-0.090588
0
VERTEX
8
1
10
12.759323
20
13.806961
0
SEQEND
0
POLYLINE
8
1
66
1
70
1
0
VERTEX
8
1
10
12.932678
20
13.686340
0
VERTEX
8
1
10
12.835693
20
13.700485
0
VERTEX
8
1
10
12.678688
20
13.550278
0
VERTEX
8
1
10
12.676331
20
13.547577
42
0.051482
0
VERTEX
8
1
10
12.811646
20
13.514526
0
VERTEX
8
1
10
12.825134
20
13.515961
0
VERTEX
8
1
10
12.830147
20
13.521896
0
VERTEX
8
1
10
12.826988
20
13.533188
0
VERTEX
8
1
10
12.829269
20
13.549271
42
-0.090261
0
SEQEND
0
POLYLINE
8
1
66
1
0
VERTEX
8
1
10
13.523193
20
15.103256
42
-0.029454
0
VERTEX
8
1
10
14.478943
20
14.939514
42
-0.055359
0
VERTEX
8
1
10
14.755714
20
14.842972
42
-0.201257
0
VERTEX
8
1
10
14.822166
20
14.772980
42
-0.040823
0
VERTEX
8
1
10
14.976707
20
14.368607
42
-0.012051
0
VERTEX
8
1
10
15.078751
20
14.019928
0
SEQEND
0
LINE
8
1
10
12.620323
20
13.636383
11
11.953751
21
13.617142
0
POLYLINE
8
1
66
1
0
VERTEX
8
1
10
15.078751
20
13.825485
42
-0.089912
0
VERTEX
8
1
10
14.877930
20
13.744431
42
-0.052892
0
VERTEX
8
1
10
14.436142
20
13.687790
0
VERTEX
8
1
10
13.453728
20
13.660248
0
SEQEND
0
LINE
8
1
10
10.481529
20
13.783813
11
11.787086
21
13.672699
0
POLYLINE
8
1
66
1
70
1
0
VERTEX
8
1
10
14.814865
20
14.200409
0
VERTEX
8
1
10
14.821808
20
14.144928
0
VERTEX
8
1
10
12.898140
20
14.124115
42
-0.823543
0
VERTEX
8
1
10
12.903862
20
14.131378
42
-0.063388
0
VERTEX
8
1
10
13.070213
20
14.157852
42
-0.023797
0
VERTEX
8
1
10
13.778870
20
14.191391
42
-0.004094
0
SEQEND
0
POLYLINE
8
1
66
1
0
VERTEX
8
1
10
12.023193
20
13.353256
42
-0.011511
0
VERTEX
8
1
10
12.040627
20
12.509384
42
-0.034892
0
VERTEX
8
1
10
12.036461
20
12.432800
0
VERTEX
8
1
10
11.773308
20
10.840073
0
VERTEX
8
1
10
11.779335
20
10.840652
0
VERTEX
8
1
10
15.106529
20
11.533813
0
VERTEX
8
1
10
15.606552
20
12.839447
42
0.174737
0
VERTEX
8
1
10
15.550468
20
13.248871
42
0.025934
0
VERTEX
8
1
10
15.259308
20
13.769928
0
SEQEND
0
POLYLINE
8
1
66
1
0
VERTEX
8
1
10
15.037086
20
13.381027
42
-0.230111
0
VERTEX
8
1
10
15.109215
20
13.371689
42
-0.245329
0
VERTEX
8
1
10
15.120415
20
13.325485
0
VERTEX
8
1
10
15.407463
20
13.343994
0
SEQEND
0
POLYLINE
8
1
66
1
70
1
0
VERTEX
8
1
10
11.939789
20
12.464157
0
VERTEX
8
1
10
10.273094
20
12.234100
42
-0.207118
0
VERTEX
8
1
10
10.598709
20
11.844223
0
VERTEX
8
1
10
10.609818
20
11.821289
42
0.213107
0
VERTEX
8
1
10
10.614532
20
11.918045
42
0.070645
0
VERTEX
8
1
10
10.523109
20
12.129852
0
VERTEX
8
1
10
11.877197
20
12.275803
0
SEQEND
0
POLYLINE
8
1
66
1
70
1
0
VERTEX
8
1
10
15.522827
20
12.900726
0
VERTEX
8
1
10
12.189667
20
12.504929
42
-0.084816
0
VERTEX
8
1
10
12.147995
20
12.296585
42
-0.012177
0
VERTEX
8
1
10
12.696396
20
12.362915
42
-0.001694
0
VERTEX
8
1
10
15.418663
20
12.650742
0
SEQEND
0
POLYLINE
8
1
66
1
70
1
0
VERTEX
8
1
10
15.945480
20
12.934494
42
0.008614
0
VERTEX
8
1
10
15.731155
20
12.900726
0
VERTEX
8
1
10
15.662086
20
12.686584
0
VERTEX
8
1
10
15.898193
20
12.728256
42
-0.076826
0
VERTEX
8
1
10
16.050972
20
12.936584
0
VERTEX
8
1
10
16.051994
20
12.941498
42
0.066003
0
SEQEND
0
POLYLINE
8
1
66
1
0
VERTEX
8
1
10
10.620415
20
11.658813
42
-0.037043
0
VERTEX
8
1
10
10.589188
20
10.948975
42
-0.056400
0
VERTEX
8
1
10
10.550972
20
10.783813
0
SEQEND
0
LINE
8
1
10
11.634308
20
10.783813
11
10.481529
21
10.561584
0
POLYLINE
8
1
66
1
70
1
0
VERTEX
8
1
10
9.057922
20
11.149872
42
0.097157
0
VERTEX
8
1
10
8.898193
20
11.061935
42
-0.050443
0
VERTEX
8
1
10
8.967537
20
10.640732
0
VERTEX
8
1
10
8.975342
20
10.628952
0
VERTEX
8
1
10
8.988426
20
10.636261
42
0.087311
0
VERTEX
8
1
10
9.052162
20
10.754990
42
0.042559
0
VERTEX
8
1
10
9.161316
20
11.121979
42
0.538518
0
VERTEX
8
1
10
9.129868
20
11.159714
42
0.094376
0
SEQEND
0
POLYLINE
8
1
66
1
70
1
0
VERTEX
8
1
10
9.563217
20
10.895782
42
0.001837
0
VERTEX
8
1
10
9.189857
20
10.575485
0
VERTEX
8
1
10
9.286247
20
10.492859
0
VERTEX
8
1
10
9.291161
20
10.492279
42
0.044168
0
VERTEX
8
1
10
9.587494
20
10.582703
42
0.012026
0
VERTEX
8
1
10
9.717575
20
10.632095
42
0.097699
0
VERTEX
8
1
10
9.665680
20
10.845612
42
0.256794
0
VERTEX
8
1
10
9.585457
20
10.908539
0
SEQEND
0
POLYLINE
8
1
66
1
70
1
0
VERTEX
8
1
10
9.189857
20
10.200485
42
-0.219144
0
VERTEX
8
1
10
9.078751
20
10.144928
0
VERTEX
8
1
10
9.328751
20
9.672699
42
0.288570
0
VERTEX
8
1
10
9.500229
20
9.819687
42
0.092783
0
VERTEX
8
1
10
9.523193
20
9.964371
42
-0.001939
0
SEQEND
0
POLYLINE
8
1
66
1
70
1
0
VERTEX
8
1
10
8.895294
20
10.226685
42
0.142453
0
VERTEX
8
1
10
8.872704
20
10.216324
0
VERTEX
8
1
10
8.616829
20
9.860092
0
VERTEX
8
1
10
8.616447
20
9.857712
42
0.038742
0
VERTEX
8
1
10
8.769920
20
9.665802
0
VERTEX
8
1
10
8.784721
20
9.653793
42
0.676982
0
VERTEX
8
1
10
8.811867
20
9.661560
0
VERTEX
8
1
10
8.821274
20
9.685974
42
0.040870
0
VERTEX
8
1
10
8.926277
20
10.157166
0
VERTEX
8
1
10
8.927010
20
10.182724
42
0.358560
0
VERTEX
8
1
10
8.899597
20
10.226654
0
SEQEND
0
POLYLINE
8
1
66
1
70
1
0
VERTEX
8
1
10
8.659866
20
10.600204
42
-0.039732
0
VERTEX
8
1
10
8.828751
20
10.476028
0
VERTEX
8
1
10
8.828751
20
10.377945
0
VERTEX
8
1
10
8.524940
20
10.353394
0
VERTEX
8
1
10
8.523270
20
10.354385
42
-0.079807
0
VERTEX
8
1
10
8.582069
20
10.617096
0
VERTEX
8
1
10
8.600060
20
10.632309
0
VERTEX
8
1
10
8.629997
20
10.617249
0
SEQEND
0
POLYLINE
8
1
66
1
70
1
0
VERTEX
8
1
10
9.144852
20
10.514008
42
-0.091135
0
VERTEX
8
1
10
9.162086
20
10.478256
42
0.192997
0
VERTEX
8
1
10
9.100441
20
10.352646
42
0.206697
0
VERTEX
8
1
10
9.138779
20
10.274948
0
VERTEX
8
1
10
9.159355
20
10.252609
0
VERTEX
8
1
10
9.147087
20
10.240997
42
-0.210831
0
VERTEX
8
1
10
9.022835
20
10.229080
42
-0.211989
0
VERTEX
8
1
10
9.025322
20
10.455505
42
-0.173674
0
VERTEX
8
1
10
9.100708
20
10.530258
42
-0.332417
0
SEQEND
0
POLYLINE
8
1
66
1
70
1
0
VERTEX
8
1
10
8.475082
20
10.265442
42
0.052042
0
VERTEX
8
1
10
8.431488
20
10.232773
42
0.142597
0
VERTEX
8
1
10
8.587387
20
9.605499
42
0.197031
0
VERTEX
8
1
10
8.974495
20
9.307373
42
0.173961
0
VERTEX
8
1
10
9.387352
20
9.356979
42
0.149003
0
VERTEX
8
1
10
9.829453
20
9.781555
42
0.213277
0
VERTEX
8
1
10
9.944267
20
10.928268
42
0.149427
0
VERTEX
8
1
10
9.649689
20
11.346939
42
0.296049
0
VERTEX
8
1
10
9.023338
20
11.385559
42
0.127659
0
VERTEX
8
1
10
8.671898
20
11.043564
42
0.052661
0
VERTEX
8
1
10
8.536362
20
10.769958
42
0.212335
0
VERTEX
8
1
10
8.568985
20
10.711349
42
0.379696
0
VERTEX
8
1
10
8.601082
20
10.729401
42
-0.072952
0
VERTEX
8
1
10
8.857697
20
11.116257
42
-0.168977
0
VERTEX
8
1
10
9.227425
20
11.323853
42
-0.239134
0
VERTEX
8
1
10
9.667786
20
11.161148
42
-0.150210
0
VERTEX
8
1
10
9.899315
20
10.680252
42
-0.217368
0
VERTEX
8
1
10
9.646332
20
9.681427
42
-0.146552
0
VERTEX
8
1
10
9.259430
20
9.415009
42
-0.250856
0
VERTEX
8
1
10
8.813156
20
9.496628
42
-0.129341
0
VERTEX
8
1
10
8.605797
20
9.814255
42
-0.053565
0
VERTEX
8
1
10
8.502480
20
10.267502
42
0.417250
0
SEQEND
0
POLYLINE
8
1
66
1
0
VERTEX
8
1
10
9.546356
20
10.418076
0
VERTEX
8
1
10
9.428001
20
10.399857
0
VERTEX
8
1
10
9.424782
20
10.395691
42
0.017793
0
VERTEX
8
1
10
9.381248
20
10.194901
0
VERTEX
8
1
10
9.472267
20
10.140305
0
SEQEND
0
POLYLINE
8
1
66
1
0
VERTEX
8
1
10
9.194496
20
10.918076
0
VERTEX
8
1
10
9.296356
20
10.825485
0
VERTEX
8
1
10
9.453751
20
10.945847
0
SEQEND
0
LINE
8
1
10
8.675972
20
10.705109
11
8.833382
21
10.853256
0
LINE
8
1
10
8.592636
20
10.242142
11
8.657463
21
10.131027
0
POLYLINE
8
1
66
1
0
VERTEX
8
1
10
8.944496
20
9.843994
0
VERTEX
8
1
10
9.092636
20
9.871765
0
VERTEX
8
1
10
9.175972
20
9.686584
0
SEQEND
0
POLYLINE
8
1
66
1
0
VERTEX
8
1
10
8.773193
20
8.797699
42
-0.151823
0
VERTEX
8
1
10
8.237595
20
9.243362
42
-0.122948
0
VERTEX
8
1
10
7.937943
20
10.106918
0
VERTEX
8
1
10
7.932274
20
10.169846
42
-0.264566
0
VERTEX
8
1
10
8.616920
20
11.699371
42
-0.149071
0
VERTEX
8
1
10
9.293320
20
11.936356
0
VERTEX
8
1
10
9.347122
20
11.936142
42
-0.334934
0
VERTEX
8
1
10
10.389618
20
11.129486
42
-0.031992
0
VERTEX
8
1
10
10.425972
20
10.964371
0
SEQEND
0
POLYLINE
8
1
66
1
70
1
0
VERTEX
8
1
10
16.251732
20
12.261276
42
0.097133
0
VERTEX
8
1
10
16.185104
20
12.205612
42
-0.031108
0
VERTEX
8
1
10
16.217438
20
11.922409
0
VERTEX
8
1
10
16.222038
20
11.913025
0
VERTEX
8
1
10
16.229897
20
11.921768
0
VERTEX
8
1
10
16.238747
20
11.940842
42
0.048007
0
VERTEX
8
1
10
16.308136
20
12.255936
0
VERTEX
8
1
10
16.305901
20
12.263489
42
0.344910
0
VERTEX
8
1
10
16.259827
20
12.265198
0
SEQEND
0
POLYLINE
8
1
66
1
70
1
0
VERTEX
8
1
10
16.499817
20
12.098389
42
0.002072
0
VERTEX
8
1
10
16.321266
20
11.876602
0
VERTEX
8
1
10
16.366592
20
11.820343
0
VERTEX
8
1
10
16.375854
20
11.821671
42
0.042767
0
VERTEX
8
1
10
16.567627
20
11.915451
42
0.079314
0
VERTEX
8
1
10
16.539490
20
12.068726
0
VERTEX
8
1
10
16.528427
20
12.087479
0
VERTEX
8
1
10
16.514839
20
12.099167
0
SEQEND
0
POLYLINE
8
1
66
1
70
1
0
VERTEX
8
1
10
16.299866
20
11.597122
42
-0.172780
0
VERTEX
8
1
10
16.269394
20
11.585388
0
VERTEX
8
1
10
16.386292
20
11.266022
42
0.220543
0
VERTEX
8
1
10
16.442505
20
11.308777
42
0.132286
0
VERTEX
8
1
10
16.476334
20
11.438217
0
VERTEX
8
1
10
16.467697
20
11.472641
0
VERTEX
8
1
10
16.321411
20
11.622818
42
-0.084596
0
SEQEND
0
POLYLINE
8
1
66
1
70
1
0
VERTEX
8
1
10
16.182716
20
11.640533
42
0.145526
0
VERTEX
8
1
10
16.173401
20
11.633957
0
VERTEX
8
1
10
16.078918
20
11.436935
42
0.048261
0
VERTEX
8
1
10
16.140137
20
11.287338
0
VERTEX
8
1
10
16.146049
20
11.282669
0
VERTEX
8
1
10
16.150246
20
11.288040
42
0.042312
0
VERTEX
8
1
10
16.198692
20
11.603958
42
0.277757
0
VERTEX
8
1
10
16.185989
20
11.640625
0
SEQEND
0
POLYLINE
8
1
66
1
70
1
0
VERTEX
8
1
10
16.070137
20
11.896484
42
-0.043296
0
VERTEX
8
1
10
16.152679
20
11.809326
0
VERTEX
8
1
10
16.152679
20
11.743546
0
VERTEX
8
1
10
16.151253
20
11.742737
0
VERTEX
8
1
10
16.010025
20
11.726288
42
-0.058368
0
VERTEX
8
1
10
16.038048
20
11.906311
0
VERTEX
8
1
10
16.051636
20
11.911026
0
SEQEND
0
POLYLINE
8
1
66
1
70
1
0
VERTEX
8
1
10
15.998817
20
11.573181
0
VERTEX
8
1
10
15.992249
20
11.562073
42
0.201440
0
VERTEX
8
1
10
15.974884
20
11.476379
42
0.101565
0
VERTEX
8
1
10
16.031425
20
11.193146
42
0.302891
0
VERTEX
8
1
10
16.320831
20
11.008698
42
0.183847
0
VERTEX
8
1
10
16.522774
20
11.119553
42
0.124983
0
VERTEX
8
1
10
16.717270
20
11.500641
42
0.133222
0
VERTEX
8
1
10
16.705551
20
12.164597
42
0.122235
0
VERTEX
8
1
10
16.569794
20
12.401779
42
0.451988
0
VERTEX
8
1
10
16.166237
20
12.369675
42
0.101650
0
VERTEX
8
1
10
16.041801
20
12.102844
42
0.247729
0
VERTEX
8
1
10
16.066292
20
12.069153
42
0.230008
0
VERTEX
8
1
10
16.084190
20
12.091263
42
-0.091884
0
VERTEX
8
1
10
16.203995
20
12.316330
0
VERTEX
8
1
10
16.221703
20
12.333817
42
-0.325446
0
VERTEX
8
1
10
16.495445
20
12.355713
42
-0.149731
0
VERTEX
8
1
10
16.634666
20
12.180832
0
VERTEX
8
1
10
16.651512
20
12.139481
42
-0.184081
0
VERTEX
8
1
10
16.615059
20
11.353043
42
-0.131644
0
VERTEX
8
1
10
16.432465
20
11.119766
42
-0.439298
0
VERTEX
8
1
10
16.108368
20
11.189621
42
-0.104770
0
VERTEX
8
1
10
16.024071
20
11.451767
42
0.000606
0
VERTEX
8
1
10
16.007164
20
11.580521
42
0.211099
0
SEQEND
0
POLYLINE
8
1
66
1
0
VERTEX
8
1
10
16.092636
20
10.728256
0
VERTEX
8
1
10
16.077950
20
10.729568
42
-0.167684
0
VERTEX
8
1
10
15.916214
20
10.843063
42
-0.118129
0
VERTEX
8
1
10
15.766724
20
11.170547
42
-0.086900
0
VERTEX
8
1
10
15.753601
20
11.723679
42
-0.089560
0
VERTEX
8
1
10
15.978523
20
12.471710
42
-0.113737
0
VERTEX
8
1
10
16.201111
20
12.738693
42
-0.209880
0
VERTEX
8
1
10
16.474152
20
12.789413
42
-0.229050
0
VERTEX
8
1
10
16.757561
20
12.587097
42
-0.073053
0
VERTEX
8
1
10
16.870415
20
12.311585
0
SEQEND
0
POLYLINE
8
1
66
1
0
VERTEX
8
1
10
16.266251
20
11.797699
42
0.129427
0
VERTEX
8
1
10
16.254532
20
11.715668
0
VERTEX
8
1
10
16.260933
20
11.699341
0
VERTEX
8
1
10
16.273193
20
11.686584
0
SEQEND
0
POLYLINE
8
1
66
1
0
VERTEX
8
1
10
15.277824
20
11.381027
42
0.110289
0
VERTEX
8
1
10
15.425957
20
11.428085
42
0.234059
0
VERTEX
8
1
10
15.447021
20
11.466660
0
VERTEX
8
1
10
15.450760
20
11.482361
42
-0.032937
0
VERTEX
8
1
10
15.734917
20
12.332947
42
-0.061247
0
VERTEX
8
1
10
15.888946
20
12.612503
0
SEQEND
0
POLYLINE
8
1
66
1
0
VERTEX
8
1
10
17.106529
20
12.756027
42
-0.081226
0
VERTEX
8
1
10
17.049454
20
12.311111
42
-0.064259
0
VERTEX
8
1
10
16.995415
20
12.200485
0
SEQEND
0
POLYLINE
8
1
66
1
70
1
0
VERTEX
8
1
10
17.166725
20
13.056931
0
VERTEX
8
1
10
17.185249
20
12.973602
42
-0.064662
0
VERTEX
8
1
10
17.480164
20
12.942047
42
-0.122753
0
VERTEX
8
1
10
17.593063
20
12.882828
0
VERTEX
8
1
10
17.611176
20
12.853226
0
VERTEX
8
1
10
17.622177
20
12.859116
42
0.190634
0
VERTEX
8
1
10
17.674568
20
12.955887
42
-0.331922
0
VERTEX
8
1
10
17.639549
20
13.053680
0
VERTEX
8
1
10
17.646164
20
13.076965
0
VERTEX
8
1
10
17.657471
20
13.103226
42
0.001927
0
SEQEND
0
LINE
8
1
10
17.009315
20
13.797668
11
17.342651
21
13.695831
0
POLYLINE
8
1
66
1
0
VERTEX
8
1
10
4.328751
20
11.422699
0
VERTEX
8
1
10
4.275291
20
12.171097
0
VERTEX
8
1
10
4.274338
20
12.180725
42
0.308687
0
VERTEX
8
1
10
4.183105
20
12.339172
42
0.109208
0
VERTEX
8
1
10
4.030365
20
12.379639
42
-0.003220
0
VERTEX
8
1
10
2.592499
20
12.478348
0
VERTEX
8
1
10
2.328751
20
12.617142
0
SEQEND
0
POLYLINE
8
1
66
1
70
1
0
VERTEX
8
1
10
17.554924
20
4.346039
42
0.267439
0
VERTEX
8
1
10
17.527084
20
4.429184
42
0.118065
0
VERTEX
8
1
10
17.501320
20
4.569290
42
0.091932
0
VERTEX
8
1
10
17.276047
20
4.944901
42
0.125093
0
VERTEX
8
1
10
17.129776
20
5.121719
42
0.107309
0
VERTEX
8
1
10
16.990295
20
5.169281
42
0.024109
0
VERTEX
8
1
10
16.472397
20
5.220795
42
-0.028649
0
VERTEX
8
1
10
16.019791
20
5.416885
0
VERTEX
8
1
10
16.004890
20
5.425598
42
0.002493
0
VERTEX
8
1
10
15.041519
20
6.026077
42
0.072395
0
VERTEX
8
1
10
14.697037
20
6.274399
0
VERTEX
8
1
10
14.655922
20
6.291336
42
0.039204
0
VERTEX
8
1
10
13.771622
20
6.517181
42
0.054322
0
VERTEX
8
1
10
11.719765
20
6.676239
42
0.014880
0
VERTEX
8
1
10
9.991432
20
6.617065
42
0.038545
0
VERTEX
8
1
10
8.990402
20
6.479736
0
VERTEX
8
1
10
8.890495
20
6.454239
0
VERTEX
8
1
10
8.803749
20
6.428772
0
VERTEX
8
1
10
8.782959
20
6.416702
42
0.017852
0
VERTEX
8
1
10
8.312492
20
6.042969
42
0.003010
0
VERTEX
8
1
10
7.332581
20
5.220840
0
VERTEX
8
1
10
7.152534
20
5.193146
0
VERTEX
8
1
10
7.013405
20
5.096008
42
0.015665
0
VERTEX
8
1
10
3.436722
20
4.734039
42
0.021696
0
VERTEX
8
1
10
1.902878
20
4.464615
42
0.023964
0
VERTEX
8
1
10
1.202888
20
4.258759
42
0.161406
0
VERTEX
8
1
10
1.132500
20
4.106674
42
0.088515
0
VERTEX
8
1
10
1.139351
20
3.737122
42
0.100770
0
VERTEX
8
1
10
1.267548
20
3.363037
42
0.076467
0
VERTEX
8
1
10
1.345551
20
3.276138
0
VERTEX
8
1
10
1.280907
20
3.260162
42
0.078489
0
VERTEX
8
1
10
1.082619
20
3.196503
42
0.333670
0
VERTEX
8
1
10
1.014786
20
3.064484
0
VERTEX
8
1
10
1.026588
20
3.045227
42
0.119333
0
VERTEX
8
1
10
1.180466
20
2.944199
42
0.047963
0
VERTEX
8
1
10
1.564201
20
2.831696
42
0.006399
0
VERTEX
8
1
10
1.695633
20
2.363739
42
0.111021
0
VERTEX
8
1
10
1.792381
20
2.235962
0
VERTEX
8
1
10
1.821068
20
2.209229
0
VERTEX
8
1
10
1.851013
20
2.183914
42
0.366053
0
VERTEX
8
1
10
1.895645
20
1.982742
42
0.025378
0
VERTEX
8
1
10
2.242790
20
1.732986
42
-0.013652
0
VERTEX
8
1
10
2.691765
20
1.419495
42
-0.043557
0
VERTEX
8
1
10
2.874306
20
1.248627
42
-0.008080
0
VERTEX
8
1
10
4.241585
20
1.080688
42
0.017732
0
VERTEX
8
1
10
5.065331
20
0.967834
42
0.026096
0
VERTEX
8
1
10
5.607193
20
0.925354
0
VERTEX
8
1
10
5.636848
20
0.926910
0
VERTEX
8
1
10
5.675888
20
0.933716
0
VERTEX
8
1
10
5.697235
20
0.937027
42
0.170590
0
VERTEX
8
1
10
6.331352
20
1.229034
42
0.015476
0
VERTEX
8
1
10
6.464050
20
1.362061
42
-0.049966
0
VERTEX
8
1
10
6.818428
20
1.429153
42
-0.048068
0
VERTEX
8
1
10
6.955086
20
1.323318
0
VERTEX
8
1
10
6.985802
20
1.186554
42
0.151152
0
VERTEX
8
1
10
7.478928
20
0.349365
42
0.104349
0
VERTEX
8
1
10
7.977280
20
0.073242
42
0.060108
0
VERTEX
8
1
10
8.299637
20
0.027191
42
0.034213
0
VERTEX
8
1
10
8.875519
20
0.045547
42
0.159942
0
VERTEX
8
1
10
9.559822
20
0.247009
42
0.125188
0
VERTEX
8
1
10
10.047859
20
0.805817
42
0.110672
0
VERTEX
8
1
10
10.254555
20
1.603363
0
VERTEX
8
1
10
10.263123
20
1.659729
0
VERTEX
8
1
10
14.877609
20
2.660004
0
VERTEX
8
1
10
14.889328
20
2.628448
42
0.086489
0
VERTEX
8
1
10
15.078636
20
2.180222
42
0.146345
0
VERTEX
8
1
10
15.260216
20
2.020874
0
VERTEX
8
1
10
15.284431
20
2.013062
0
VERTEX
8
1
10
15.308868
20
2.008194
42
0.109459
0
VERTEX
8
1
10
15.733879
20
1.932922
0
VERTEX
8
1
10
15.792458
20
1.934204
42
0.059332
0
VERTEX
8
1
10
16.133568
20
1.980087
42
0.143783
0
VERTEX
8
1
10
16.331596
20
2.127289
42
0.097264
0
VERTEX
8
1
10
16.534767
20
2.542099
42
0.073377
0
VERTEX
8
1
10
16.629730
20
3.291504
0
VERTEX
8
1
10
16.749084
20
3.318024
42
0.372747
0
VERTEX
8
1
10
16.820915
20
3.491730
0
VERTEX
8
1
10
16.829025
20
3.506409
0
VERTEX
8
1
10
16.846779
20
3.519196
0
VERTEX
8
1
10
16.924042
20
3.570251
42
0.097773
0
VERTEX
8
1
10
17.270790
20
3.916595
42
0.009190
0
VERTEX
8
1
10
17.396530
20
4.104492
42
0.068527
0
SEQEND
0
POLYLINE
8
1
66
1
70
1
0
VERTEX
8
1
10
7.963249
20
3.469223
42
0.070556
0
VERTEX
8
1
10
8.013191
20
3.373627
42
-0.121079
0
VERTEX
8
1
10
9.371521
20
3.724792
0
VERTEX
8
1
10
9.487625
20
3.722076
0
VERTEX
8
1
10
9.606018
20
3.713562
0
VERTEX
8
1
10
9.665901
20
3.712494
42
0.318809
0
VERTEX
8
1
10
9.583237
20
3.837784
42
0.089146
0
VERTEX
8
1
10
9.354584
20
3.885742
42
0.074965
0
VERTEX
8
1
10
8.500847
20
3.832474
42
0.093717
0
VERTEX
8
1
10
8.049683
20
3.642487
0
VERTEX
8
1
10
7.987030
20
3.594223
0
VERTEX
8
1
10
7.955940
20
3.562485
42
0.145186
0
SEQEND
0
POLYLINE
8
1
66
1
70
1
0
VERTEX
8
1
10
7.882622
20
4.481506
42
0.024388
0
VERTEX
8
1
10
6.080421
20
4.152222
42
0.031589
0
VERTEX
8
1
10
5.297798
20
3.912369
0
VERTEX
8
1
10
5.170624
20
3.859177
0
VERTEX
8
1
10
5.054863
20
3.804184
42
-0.154491
0
VERTEX
8
1
10
5.327759
20
3.633469
0
VERTEX
8
1
10
5.342514
20
3.612640
0
VERTEX
8
1
10
5.355789
20
3.590851
0
VERTEX
8
1
10
5.366013
20
3.583069
0
VERTEX
8
1
10
5.550644
20
3.616898
0
VERTEX
8
1
10
5.735352
20
3.650360
42
-0.000429
0
VERTEX
8
1
10
11.638191
20
4.693146
0
VERTEX
8
1
10
11.638191
20
4.831955
42
0.019742
0
SEQEND
0
POLYLINE
8
1
66
1
70
1
0
VERTEX
8
1
10
6.082344
20
4.416306
42
-0.035712
0
VERTEX
8
1
10
9.249306
20
4.887512
42
0.013033
0
VERTEX
8
1
10
6.406990
20
4.331299
42
0.022091
0
VERTEX
8
1
10
5.219826
20
4.016754
42
0.047726
0
VERTEX
8
1
10
4.775047
20
3.834244
42
0.027092
0
VERTEX
8
1
10
4.658417
20
3.970276
42
0.110250
0
VERTEX
8
1
10
4.571465
20
4.011826
42
-0.022575
0
SEQEND
0
POLYLINE
8
1
66
1
70
1
0
VERTEX
8
1
10
5.655937
20
4.667435
42
0.023625
0
VERTEX
8
1
10
3.778152
20
4.279129
42
0.031044
0
VERTEX
8
1
10
2.935738
20
4.002518
0
VERTEX
8
1
10
2.798157
20
3.941956
42
0.012267
0
VERTEX
8
1
10
3.734314
20
3.854050
42
0.056042
0
VERTEX
8
1
10
3.914047
20
3.854599
42
-0.043626
0
VERTEX
8
1
10
4.186302
20
3.978683
0
VERTEX
8
1
10
4.293533
20
4.019928
42
-0.034928
0
VERTEX
8
1
10
5.991943
20
4.500076
42
-0.030843
0
VERTEX
8
1
10
8.831009
20
4.921051
0
VERTEX
8
1
10
9.132904
20
4.946838
42
0.021238
0
VERTEX
8
1
10
9.705574
20
5.006363
0
VERTEX
8
1
10
9.752075
20
5.015564
42
0.129822
0
VERTEX
8
1
10
9.916031
20
5.080124
0
VERTEX
8
1
10
9.922806
20
5.087723
42
0.003641
0
VERTEX
8
1
10
8.673111
20
5.150208
0
VERTEX
8
1
10
8.485611
20
5.026550
0
VERTEX
8
1
10
8.484322
20
5.026321
42
0.016696
0
SEQEND
0
POLYLINE
8
1
66
1
70
1
0
VERTEX
8
1
10
7.637527
20
5.151215
0
VERTEX
8
1
10
8.339554
20
5.171066
42
-0.088977
0
VERTEX
8
1
10
7.704239
20
5.025818
42
0.038009
0
VERTEX
8
1
10
4.357132
20
4.552032
42
0.042848
0
VERTEX
8
1
10
2.460991
20
3.964462
42
-0.082423
0
VERTEX
8
1
10
2.256531
20
4.087784
42
-0.056500
0
VERTEX
8
1
10
2.502319
20
4.217789
42
-0.037464
0
VERTEX
8
1
10
3.210258
20
4.453033
42
-0.028510
0
VERTEX
8
1
10
4.791328
20
4.762955
42
-0.014642
0
VERTEX
8
1
10
6.498795
20
4.956146
42
0.012103
0
VERTEX
8
1
10
7.318329
20
5.054123
0
SEQEND
0
POLYLINE
8
1
66
1
70
1
0
VERTEX
8
1
10
3.489380
20
4.581772
42
0.022595
0
VERTEX
8
1
10
2.506516
20
4.316940
0
VERTEX
8
1
10
1.839882
20
4.046112
42
0.255600
0
VERTEX
8
1
10
1.548218
20
4.046112
42
-0.093618
0
VERTEX
8
1
10
1.494049
20
4.117905
42
0.030198
0
VERTEX
8
1
10
1.462280
20
4.156036
42
-0.049022
0
VERTEX
8
1
10
3.415413
20
4.653122
42
-0.034424
0
VERTEX
8
1
10
4.110405
20
4.706970
42
0.010196
0
SEQEND
0
POLYLINE
8
1
66
1
70
1
0
VERTEX
8
1
10
9.804771
20
6.211609
42
0.056791
0
VERTEX
8
1
10
9.071976
20
6.214340
0
VERTEX
8
1
10
8.999718
20
6.201202
0
VERTEX
8
1
10
8.934509
20
6.183807
42
0.027612
0
VERTEX
8
1
10
8.177902
20
5.491745
42
0.042685
0
VERTEX
8
1
10
7.994102
20
5.264557
0
VERTEX
8
1
10
8.044075
20
5.259201
42
-0.007542
0
VERTEX
8
1
10
9.452202
20
5.239380
42
-0.032221
0
VERTEX
8
1
10
9.859444
20
5.294815
42
-0.015445
0
VERTEX
8
1
10
10.332916
20
5.267349
0
VERTEX
8
1
10
10.387978
20
5.304031
0
VERTEX
8
1
10
10.388084
20
5.304657
42
-0.274854
0
VERTEX
8
1
10
10.417923
20
5.420197
42
-0.153408
0
VERTEX
8
1
10
10.480515
20
5.442261
0
VERTEX
8
1
10
10.503418
20
5.448959
0
VERTEX
8
1
10
10.519318
20
5.473572
42
-0.007392
0
VERTEX
8
1
10
10.868500
20
6.031540
0
VERTEX
8
1
10
10.878807
20
6.044998
42
0.093389
0
VERTEX
8
1
10
10.502480
20
6.104706
42
0.055118
0
VERTEX
8
1
10
10.501694
20
5.989746
42
-0.363597
0
VERTEX
8
1
10
10.444420
20
5.943115
42
-0.006159
0
VERTEX
8
1
10
9.834404
20
5.926300
42
-0.452719
0
VERTEX
8
1
10
9.794670
20
5.995056
42
-0.007407
0
VERTEX
8
1
10
9.832649
20
6.115494
42
-0.319587
0
VERTEX
8
1
10
9.855644
20
6.131607
0
VERTEX
8
1
10
9.867096
20
6.134415
42
0.063129
0
VERTEX
8
1
10
9.952972
20
6.146545
0
VERTEX
8
1
10
9.925438
20
6.183548
0
VERTEX
8
1
10
9.823387
20
6.174576
0
SEQEND
0
POLYLINE
8
1
66
1
70
1
0
VERTEX
8
1
10
11.911407
20
5.823318
0
VERTEX
8
1
10
11.934486
20
6.068069
42
0.057263
0
VERTEX
8
1
10
11.727135
20
5.959930
0
VERTEX
8
1
10
11.708221
20
5.943756
0
VERTEX
8
1
10
11.710876
20
5.931488
42
0.051392
0
SEQEND
0
POLYLINE
8
1
66
1
70
1
0
VERTEX
8
1
10
13.520287
20
6.182617
0
VERTEX
8
1
10
12.272461
20
6.128250
0
VERTEX
8
1
10
12.207748
20
5.665237
42
0.117972
0
VERTEX
8
1
10
12.541573
20
5.542755
0
VERTEX
8
1
10
12.585594
20
5.535889
0
VERTEX
8
1
10
14.513168
20
5.586639
0
VERTEX
8
1
10
14.314041
20
6.054245
0
VERTEX
8
1
10
14.295410
20
6.067520
42
0.121581
0
VERTEX
8
1
10
14.187599
20
6.120834
42
0.006924
0
VERTEX
8
1
10
13.966927
20
6.179184
0
VERTEX
8
1
10
13.947525
20
6.168823
42
-0.167294
0
VERTEX
8
1
10
13.814766
20
6.135498
42
-0.006907
0
VERTEX
8
1
10
13.683876
20
6.134048
0
SEQEND
0
POLYLINE
8
1
66
1
70
1
0
VERTEX
8
1
10
11.651642
20
6.542267
42
0.017026
0
VERTEX
8
1
10
11.832642
20
6.512512
42
-0.098840
0
VERTEX
8
1
10
12.008240
20
6.427719
42
-0.213959
0
VERTEX
8
1
10
12.083099
20
6.244263
0
VERTEX
8
1
10
12.083397
20
6.212479
42
-0.017458
0
VERTEX
8
1
10
12.022270
20
5.626160
42
-0.002880
0
VERTEX
8
1
10
11.943764
20
5.012634
0
VERTEX
8
1
10
12.026817
20
5.026367
42
-0.022139
0
VERTEX
8
1
10
12.204651
20
6.082855
42
-0.046205
0
VERTEX
8
1
10
12.270699
20
6.298843
42
-0.228835
0
VERTEX
8
1
10
12.357468
20
6.372253
42
-0.069938
0
VERTEX
8
1
10
12.673378
20
6.424377
42
-0.021032
0
VERTEX
8
1
10
13.082390
20
6.429993
0
VERTEX
8
1
10
13.080940
20
6.432510
42
0.144614
0
VERTEX
8
1
10
13.001144
20
6.474289
42
0.046845
0
VERTEX
8
1
10
12.642731
20
6.542191
42
0.026663
0
VERTEX
8
1
10
11.653465
20
6.600967
42
0.079148
0
VERTEX
8
1
10
11.544586
20
6.588226
0
VERTEX
8
1
10
11.538971
20
6.583054
0
VERTEX
8
1
10
11.541084
20
6.577255
42
0.079074
0
SEQEND
0
POLYLINE
8
1
66
1
70
1
0
VERTEX
8
1
10
16.158089
20
5.309494
42
0.003102
0
VERTEX
8
1
10
16.545609
20
5.137512
42
0.012685
0
VERTEX
8
1
10
15.483635
20
5.219788
42
-0.001475
0
VERTEX
8
1
10
15.323448
20
5.224548
0
VERTEX
8
1
10
15.342720
20
5.233093
0
VERTEX
8
1
10
15.371620
20
5.240616
42
-0.038000
0
VERTEX
8
1
10
15.819679
20
5.273453
42
-0.004735
0
VERTEX
8
1
10
16.027229
20
5.276657
42
0.312856
0
VERTEX
8
1
10
16.007454
20
5.312973
42
0.086914
0
VERTEX
8
1
10
15.832695
20
5.401413
42
-0.107645
0
VERTEX
8
1
10
16.100342
20
5.336899
0
SEQEND
0
POLYLINE
8
1
66
1
70
1
0
VERTEX
8
1
10
6.171974
20
3.088257
42
-0.028050
0
VERTEX
8
1
10
5.527191
20
3.421112
42
-0.031522
0
VERTEX
8
1
10
5.648903
20
3.050507
42
-0.013919
0
VERTEX
8
1
10
5.654160
20
3.014099
42
-0.118486
0
VERTEX
8
1
10
5.720634
20
3.129227
42
-0.229383
0
VERTEX
8
1
10
5.798027
20
3.150299
0
VERTEX
8
1
10
6.172226
20
3.087921
0
SEQEND
0
POLYLINE
8
1
66
1
70
1
0
VERTEX
8
1
10
6.467484
20
1.542908
42
0.049857
0
VERTEX
8
1
10
6.945061
20
2.049118
0
VERTEX
8
1
10
6.985283
20
2.108643
0
VERTEX
8
1
10
6.985168
20
2.112579
0
VERTEX
8
1
10
6.973564
20
2.106339
42
-0.018904
0
VERTEX
8
1
10
6.414482
20
1.713943
42
-0.062007
0
VERTEX
8
1
10
5.926071
20
1.474167
42
-0.076012
0
VERTEX
8
1
10
5.710396
20
1.440216
0
VERTEX
8
1
10
5.617668
20
1.438370
42
-0.022779
0
VERTEX
8
1
10
4.610344
20
1.483536
42
0.156882
0
VERTEX
8
1
10
4.581047
20
1.344681
42
0.327576
0
VERTEX
8
1
10
4.631233
20
1.296188
42
-0.031340
0
VERTEX
8
1
10
5.046501
20
1.179794
42
-0.096309
0
VERTEX
8
1
10
5.082283
20
1.159409
0
VERTEX
8
1
10
5.081291
20
1.154938
0
VERTEX
8
1
10
5.072632
20
1.151886
42
0.117618
0
VERTEX
8
1
10
4.951683
20
1.130585
42
0.388475
0
VERTEX
8
1
10
4.923485
20
1.046143
42
0.026603
0
VERTEX
8
1
10
5.525124
20
1.025970
42
0.063423
0
VERTEX
8
1
10
5.683052
20
1.046478
42
0.292816
0
VERTEX
8
1
10
5.721069
20
1.083176
0
VERTEX
8
1
10
5.726669
20
1.099670
42
-0.001366
0
VERTEX
8
1
10
5.768524
20
1.315414
42
-0.309407
0
VERTEX
8
1
10
5.780350
20
1.328323
0
VERTEX
8
1
10
5.785027
20
1.324463
42
-0.101683
0
VERTEX
8
1
10
5.820892
20
1.168747
42
0.144433
0
VERTEX
8
1
10
5.843948
20
1.079193
42
0.348301
0
VERTEX
8
1
10
5.892235
20
1.082382
42
0.032198
0
VERTEX
8
1
10
6.095161
20
1.230087
42
0.017290
0
SEQEND
0
POLYLINE
8
1
66
1
70
1
0
VERTEX
8
1
10
2.537476
20
1.672729
42
0.025719
0
VERTEX
8
1
10
3.029434
20
1.606583
0
VERTEX
8
1
10
3.056038
20
1.606949
0
VERTEX
8
1
10
3.073387
20
1.609726
0
VERTEX
8
1
10
2.923370
20
1.338303
0
VERTEX
8
1
10
2.920967
20
1.339767
0
VERTEX
8
1
10
2.529282
20
1.672699
0
VERTEX
8
1
10
2.527771
20
1.674408
0
SEQEND
0
POLYLINE
8
1
66
1
70
1
0
VERTEX
8
1
10
4.381424
20
1.483658
0
VERTEX
8
1
10
3.277100
20
1.563431
0
VERTEX
8
1
10
3.131920
20
1.297058
0
VERTEX
8
1
10
3.132759
20
1.296051
42
0.012012
0
VERTEX
8
1
10
4.445816
20
1.121658
42
0.028073
0
VERTEX
8
1
10
4.608253
20
1.113281
0
VERTEX
8
1
10
4.624664
20
1.117477
0
VERTEX
8
1
10
4.618217
20
1.125824
0
VERTEX
8
1
10
4.590858
20
1.137848
0
VERTEX
8
1
10
4.560837
20
1.148865
42
0.019219
0
VERTEX
8
1
10
4.005089
20
1.301910
42
-0.050049
0
VERTEX
8
1
10
3.885933
20
1.337158
0
VERTEX
8
1
10
3.887070
20
1.339493
42
0.073414
0
VERTEX
8
1
10
4.338516
20
1.366760
0
VERTEX
8
1
10
4.402229
20
1.379654
0
SEQEND
0
POLYLINE
8
1
66
1
70
1
0
VERTEX
8
1
10
1.268120
20
3.160751
42
0.036994
0
VERTEX
8
1
10
1.339905
20
3.171158
42
0.164257
0
VERTEX
8
1
10
1.397774
20
3.123962
42
0.064944
0
VERTEX
8
1
10
1.617615
20
3.054016
0
VERTEX
8
1
10
1.682701
20
3.041061
0
VERTEX
8
1
10
1.757210
20
3.028412
0
VERTEX
8
1
10
1.780312
20
3.007065
42
-0.043314
0
VERTEX
8
1
10
1.796227
20
2.796906
42
-0.016467
0
VERTEX
8
1
10
1.181862
20
3.041458
0
VERTEX
8
1
10
1.140762
20
3.061661
0
VERTEX
8
1
10
1.110664
20
3.078659
0
VERTEX
8
1
10
1.098312
20
3.092880
42
-0.239644
0
VERTEX
8
1
10
1.193367
20
3.151871
42
-0.022452
0
SEQEND
0
POLYLINE
8
1
66
1
70
1
0
VERTEX
8
1
10
4.575172
20
2.485275
42
-0.008113
0
VERTEX
8
1
10
4.089760
20
2.587845
42
0.148885
0
VERTEX
8
1
10
4.105545
20
2.450195
42
0.213685
0
VERTEX
8
1
10
4.152000
20
2.412430
42
0.023288
0
VERTEX
8
1
10
4.654938
20
2.299545
42
0.003721
0
VERTEX
8
1
10
5.214722
20
2.192047
42
-0.168560
0
VERTEX
8
1
10
5.201904
20
2.307434
42
-0.376257
0
VERTEX
8
1
10
5.274330
20
2.336014
0
VERTEX
8
1
10
5.291458
20
2.330795
42
-0.107649
0
VERTEX
8
1
10
5.399155
20
2.234436
42
0.204345
0
VERTEX
8
1
10
5.449089
20
2.200470
42
0.393190
0
VERTEX
8
1
10
5.470589
20
2.246964
42
0.138009
0
VERTEX
8
1
10
5.449112
20
2.263382
0
VERTEX
8
1
10
5.450340
20
2.264618
42
-0.164328
0
VERTEX
8
1
10
5.683540
20
2.253571
42
-0.043212
0
VERTEX
8
1
10
5.777191
20
2.212860
42
0.034700
0
VERTEX
8
1
10
6.257111
20
2.291626
42
0.075892
0
VERTEX
8
1
10
6.349609
20
2.330215
42
0.563485
0
VERTEX
8
1
10
6.351273
20
2.372574
42
0.159828
0
VERTEX
8
1
10
6.204819
20
2.432129
42
0.036602
0
VERTEX
8
1
10
6.089661
20
2.442032
42
-0.117240
0
VERTEX
8
1
10
4.914055
20
2.420807
42
-0.003478
0
SEQEND
0
POLYLINE
8
1
66
1
70
1
0
VERTEX
8
1
10
16.040184
20
4.340561
42
-0.161506
0
VERTEX
8
1
10
16.439201
20
4.443085
42
-0.192966
0
VERTEX
8
1
10
16.742783
20
4.275894
0
VERTEX
8
1
10
16.789703
20
4.215652
0
VERTEX
8
1
10
16.806969
20
4.214752
42
0.342511
0
VERTEX
8
1
10
16.592743
20
4.545532
42
0.186117
0
VERTEX
8
1
10
16.176300
20
4.541016
42
0.220820
0
VERTEX
8
1
10
16.027023
20
4.388931
42
0.144964
0
VERTEX
8
1
10
16.027084
20
4.331970
0
SEQEND
0
POLYLINE
8
1
66
1
70
1
0
VERTEX
8
1
10
7.158020
20
2.209457
42
-0.983028
0
VERTEX
8
1
10
7.118523
20
2.231796
42
0.018919
0
VERTEX
8
1
10
7.316956
20
2.509399
42
0.001158
0
VERTEX
8
1
10
7.833191
20
3.266739
42
-0.778592
0
VERTEX
8
1
10
7.866882
20
3.239044
42
-0.006948
0
VERTEX
8
1
10
7.185829
20
2.245575
0
SEQEND
0
POLYLINE
8
1
66
1
70
1
0
VERTEX
8
1
10
6.654564
20
1.483200
42
-0.939423
0
VERTEX
8
1
10
6.620003
20
1.511856
42
0.016903
0
VERTEX
8
1
10
7.047897
20
2.052277
0
VERTEX
8
1
10
7.060852
20
2.074356
42
-1.303238
0
VERTEX
8
1
10
7.098503
20
2.049454
0
VERTEX
8
1
10
7.075233
20
2.012894
42
-0.018038
0
SEQEND
0
POLYLINE
8
1
66
1
70
1
0
VERTEX
8
1
10
5.626694
20
1.576569
42
-0.964300
0
VERTEX
8
1
10
5.623550
20
1.531693
42
-0.004111
0
VERTEX
8
1
10
2.645981
20
1.754211
42
-0.014800
0
VERTEX
8
1
10
2.385574
20
1.781967
0
VERTEX
8
1
10
2.373169
20
1.786591
42
-0.015569
0
VERTEX
8
1
10
2.108093
20
1.955154
42
-0.893749
0
VERTEX
8
1
10
2.136612
20
1.989670
42
0.015768
0
VERTEX
8
1
10
2.394272
20
1.826370
0
VERTEX
8
1
10
2.413071
20
1.821976
42
0.007645
0
VERTEX
8
1
10
3.244568
20
1.750229
42
0.001531
0
SEQEND
0
POLYLINE
8
1
66
1
70
1
0
VERTEX
8
1
10
5.906914
20
2.053665
42
-0.045044
0
VERTEX
8
1
10
5.255959
20
2.045959
0
VERTEX
8
1
10
5.182030
20
2.057053
42
-0.009325
0
VERTEX
8
1
10
4.181908
20
2.248032
42
-0.831967
0
VERTEX
8
1
10
4.197990
20
2.289246
42
0.008666
0
VERTEX
8
1
10
5.222321
20
2.096100
0
VERTEX
8
1
10
5.274246
20
2.088943
42
0.057588
0
VERTEX
8
1
10
6.030357
20
2.116364
42
0.073780
0
VERTEX
8
1
10
6.264709
20
2.187546
42
-0.832062
0
VERTEX
8
1
10
6.278732
20
2.145584
0
VERTEX
8
1
10
6.253952
20
2.133545
42
-0.076711
0
SEQEND
0
POLYLINE
8
1
66
1
70
1
0
VERTEX
8
1
10
5.264198
20
2.746628
42
-0.051561
0
VERTEX
8
1
10
5.179863
20
2.734741
42
-0.252991
0
VERTEX
8
1
10
4.954063
20
2.956680
42
-0.098962
0
VERTEX
8
1
10
4.896629
20
3.414047
42
-0.022766
0
VERTEX
8
1
10
4.915108
20
3.609802
42
-0.149984
0
VERTEX
8
1
10
4.747177
20
3.669495
42
-0.161398
0
VERTEX
8
1
10
4.705070
20
3.737610
0
VERTEX
8
1
10
4.699730
20
3.736343
42
0.105745
0
VERTEX
8
1
10
4.707352
20
3.017670
42
0.074127
0
VERTEX
8
1
10
4.800812
20
2.785828
0
VERTEX
8
1
10
4.820572
20
2.759552
0
VERTEX
8
1
10
4.845978
20
2.735016
42
0.238709
0
VERTEX
8
1
10
5.246986
20
2.659027
42
0.220618
0
VERTEX
8
1
10
5.393967
20
2.793198
42
-0.057604
0
SEQEND
0
POLYLINE
8
1
66
1
70
1
0
VERTEX
8
1
10
5.383537
20
3.364639
42
-0.205076
0
VERTEX
8
1
10
5.380676
20
3.010147
42
-0.270825
0
VERTEX
8
1
10
5.267319
20
2.925903
42
-0.223067
0
VERTEX
8
1
10
5.156967
20
2.983688
0
VERTEX
8
1
10
5.141190
20
3.003555
42
-0.233766
0
VERTEX
8
1
10
5.093292
20
3.408524
42
-0.238974
0
VERTEX
8
1
10
5.197800
20
3.513458
42
-0.250000
0
VERTEX
8
1
10
5.310944
20
3.475235
42
-0.110722
0
SEQEND
0
POLYLINE
8
1
66
1
70
1
0
VERTEX
8
1
10
1.524269
20
3.907181
42
-0.144264
0
VERTEX
8
1
10
1.540863
20
3.542587
42
-0.167487
0
VERTEX
8
1
10
1.491341
20
3.464630
42
-0.367887
0
VERTEX
8
1
10
1.425171
20
3.478149
42
-0.135012
0
VERTEX
8
1
10
1.349190
20
3.643997
42
-0.138945
0
VERTEX
8
1
10
1.359375
20
3.962952
42
-0.217833
0
VERTEX
8
1
10
1.413933
20
4.024460
0
VERTEX
8
1
10
1.427414
20
4.025681
42
-0.243887
0
VERTEX
8
1
10
1.501503
20
3.958664
42
-0.039856
0
SEQEND
0
POLYLINE
8
1
66
1
70
1
0
VERTEX
8
1
10
1.464287
20
3.271606
0
VERTEX
8
1
10
1.448975
20
3.268326
42
-1.170414
0
VERTEX
8
1
10
1.446648
20
3.313629
42
0.297846
0
VERTEX
8
1
10
1.564095
20
3.428040
42
-0.973363
0
VERTEX
8
1
10
1.602310
20
3.401886
42
-0.272048
0
SEQEND
0
POLYLINE
8
1
66
1
70
1
0
VERTEX
8
1
10
1.271812
20
3.734787
42
-0.937000
0
VERTEX
8
1
10
1.226997
20
3.731766
42
-0.072238
0
VERTEX
8
1
10
1.236282
20
4.040390
42
-0.185263
0
VERTEX
8
1
10
1.318665
20
4.183609
42
-0.252078
0
VERTEX
8
1
10
1.387123
20
4.197708
42
-0.817535
0
VERTEX
8
1
10
1.368004
20
4.156418
42
0.241710
0
VERTEX
8
1
10
1.307312
20
4.103790
42
0.106357
0
VERTEX
8
1
10
1.267578
20
3.939362
42
0.041831
0
SEQEND
0
POLYLINE
8
1
66
1
70
1
0
VERTEX
8
1
10
4.249481
20
3.052933
42
-0.172076
0
VERTEX
8
1
10
4.246315
20
3.349548
42
-0.270870
0
VERTEX
8
1
10
4.352119
20
3.443146
42
-0.223091
0
VERTEX
8
1
10
4.466949
20
3.394958
0
VERTEX
8
1
10
4.484367
20
3.376495
42
-0.233717
0
VERTEX
8
1
10
4.566566
20
2.977066
42
-0.238800
0
VERTEX
8
1
10
4.471367
20
2.863617
42
-0.249803
0
VERTEX
8
1
10
4.355377
20
2.892075
42
-0.143534
0
SEQEND
0
POLYLINE
8
1
66
1
70
1
0
VERTEX
8
1
10
2.013870
20
2.321823
42
-0.040936
0
VERTEX
8
1
10
1.962265
20
2.443054
0
VERTEX
8
1
10
2.202774
20
2.156311
0
VERTEX
8
1
10
3.554962
20
2.072678
42
0.229464
0
VERTEX
8
1
10
3.663574
20
2.093552
42
0.149274
0
VERTEX
8
1
10
3.675232
20
2.118988
42
-0.331558
0
VERTEX
8
1
10
3.589333
20
1.985672
42
-0.115680
0
VERTEX
8
1
10
3.444954
20
1.961197
42
-0.000963
0
VERTEX
8
1
10
2.202835
20
2.026642
42
-0.040553
0
SEQEND
0
POLYLINE
8
1
66
1
70
1
0
VERTEX
8
1
10
2.939125
20
3.508118
42
0.003817
0
VERTEX
8
1
10
1.943741
20
3.535660
42
0.120675
0
VERTEX
8
1
10
2.056122
20
3.429932
42
0.097675
0
VERTEX
8
1
10
2.090508
20
3.422729
42
0.004690
0
VERTEX
8
1
10
3.582642
20
3.331955
42
0.432411
0
VERTEX
8
1
10
3.465462
20
3.476074
42
0.021176
0
SEQEND
0
POLYLINE
8
1
66
1
70
1
0
VERTEX
8
1
10
3.706696
20
2.217224
42
-0.956075
0
VERTEX
8
1
10
3.662041
20
2.222443
0
VERTEX
8
1
10
3.662941
20
2.253571
0
VERTEX
8
1
10
3.661728
20
2.313004
42
0.005792
0
VERTEX
8
1
10
3.607155
20
3.226486
42
-0.878685
0
VERTEX
8
1
10
3.651489
20
3.220886
42
-0.008414
0
VERTEX
8
1
10
3.707489
20
2.280930
0
VERTEX
8
1
10
3.707603
20
2.231888
0
SEQEND
0
POLYLINE
8
1
66
1
70
1
0
VERTEX
8
1
10
1.730804
20
3.683441
0
VERTEX
8
1
10
1.814125
20
3.794922
42
0.240182
0
VERTEX
8
1
10
1.746849
20
3.823090
42
0.247588
0
VERTEX
8
1
10
1.704239
20
3.782211
42
0.230897
0
VERTEX
8
1
10
1.739990
20
3.407501
0
SEQEND
0
POLYLINE
8
1
66
1
70
1
0
VERTEX
8
1
10
1.896591
20
3.605164
42
-0.897489
0
VERTEX
8
1
10
1.864685
20
3.573807
0
VERTEX
8
1
10
1.778549
20
3.650589
42
-0.915521
0
VERTEX
8
1
10
1.809784
20
3.682755
0
VERTEX
8
1
10
1.892319
20
3.609421
0
SEQEND
0
POLYLINE
8
1
66
1
70
1
0
VERTEX
8
1
10
2.056450
20
2.119812
42
-0.888335
0
VERTEX
8
1
10
2.019157
20
2.095200
0
VERTEX
8
1
10
1.833191
20
2.401520
42
-0.094932
0
VERTEX
8
1
10
1.829239
20
2.410156
0
VERTEX
8
1
10
1.810143
20
2.636551
42
-0.960834
0
VERTEX
8
1
10
1.854958
20
2.640274
0
VERTEX
8
1
10
1.873016
20
2.423920
0
VERTEX
8
1
10
1.875931
20
2.417831
0
SEQEND
0
POLYLINE
8
1
66
1
70
1
0
VERTEX
8
1
10
3.310966
20
2.214905
42
-0.980599
0
VERTEX
8
1
10
3.266525
20
2.207489
0
VERTEX
8
1
10
3.182831
20
3.266174
42
-0.955881
0
VERTEX
8
1
10
3.227623
20
3.270142
0
SEQEND
0
POLYLINE
8
1
66
1
70
1
0
VERTEX
8
1
10
2.823639
20
2.185623
42
-0.451763
0
VERTEX
8
1
10
2.794365
20
2.202545
0
VERTEX
8
1
10
2.710655
20
3.279282
42
-0.938939
0
VERTEX
8
1
10
2.755135
20
3.285553
0
VERTEX
8
1
10
2.838867
20
2.208679
42
-0.342013
0
SEQEND
0
POLYLINE
8
1
66
1
70
1
0
VERTEX
8
1
10
2.344330
20
2.255020
42
-0.461982
0
VERTEX
8
1
10
2.315033
20
2.272888
0
VERTEX
8
1
10
2.261513
20
3.331650
42
-0.953922
0
VERTEX
8
1
10
2.306396
20
3.334335
0
VERTEX
8
1
10
2.359673
20
2.279068
42
-0.353151
0
SEQEND
0
POLYLINE
8
1
66
1
70
1
0
VERTEX
8
1
10
1.947708
20
2.601730
42
-0.978229
0
VERTEX
8
1
10
1.902847
20
2.598251
0
VERTEX
8
1
10
1.870338
20
3.433395
42
-0.940520
0
VERTEX
8
1
10
1.915115
20
3.436966
0
SEQEND
0
POLYLINE
8
1
66
1
70
1
0
VERTEX
8
1
10
3.577293
20
2.201630
42
-0.964707
0
VERTEX
8
1
10
3.575722
20
2.156677
0
VERTEX
8
1
10
3.400482
20
2.169067
42
-1.000000
0
VERTEX
8
1
10
3.403687
20
2.213959
0
SEQEND
0
POLYLINE
8
1
66
1
70
1
0
VERTEX
8
1
10
3.181068
20
2.221252
42
-0.973025
0
VERTEX
8
1
10
3.179871
20
2.176270
0
VERTEX
8
1
10
2.914833
20
2.190521
42
-1.000149
0
VERTEX
8
1
10
2.917244
20
2.235443
0
SEQEND
0
POLYLINE
8
1
66
1
70
1
0
VERTEX
8
1
10
2.735931
20
2.206467
42
-0.321770
0
VERTEX
8
1
10
2.714600
20
2.191101
0
VERTEX
8
1
10
2.628273
20
2.195084
42
-0.889653
0
VERTEX
8
1
10
2.629288
20
2.239655
0
VERTEX
8
1
10
2.714767
20
2.236099
42
-0.509541
0
SEQEND
0
POLYLINE
8
1
66
1
70
1
0
VERTEX
8
1
10
2.484970
20
2.192368
42
-0.452138
0
VERTEX
8
1
10
2.456276
20
2.210190
0
VERTEX
8
1
10
2.407372
20
3.310135
42
-0.939020
0
VERTEX
8
1
10
2.452026
20
3.314926
0
VERTEX
8
1
10
2.500954
20
2.214905
42
-0.342858
0
SEQEND
0
POLYLINE
8
1
66
1
70
1
0
VERTEX
8
1
10
2.653687
20
3.267868
42
-0.393517
0
VERTEX
8
1
10
2.631264
20
3.246964
0
VERTEX
8
1
10
2.532417
20
3.253967
42
-0.999660
0
VERTEX
8
1
10
2.535622
20
3.298859
0
VERTEX
8
1
10
2.632843
20
3.291916
42
-0.413304
0
SEQEND
0
POLYLINE
8
1
66
1
70
1
0
VERTEX
8
1
10
3.099205
20
3.263611
42
-0.937369
0
VERTEX
8
1
10
3.096367
20
3.218781
0
VERTEX
8
1
10
2.825264
20
3.235672
42
-0.963534
0
VERTEX
8
1
10
2.823868
20
3.280640
0
SEQEND
0
POLYLINE
8
1
66
1
70
1
0
VERTEX
8
1
10
3.537773
20
3.236115
42
-0.919286
0
VERTEX
8
1
10
3.534058
20
3.191406
0
VERTEX
8
1
10
3.305893
20
3.205627
42
-1.064777
0
VERTEX
8
1
10
3.306335
20
3.250702
0
SEQEND
0
POLYLINE
8
1
66
1
70
1
0
VERTEX
8
1
10
2.698257
20
2.513763
42
-0.907258
0
VERTEX
8
1
10
2.693954
20
2.469177
0
VERTEX
8
1
10
2.591644
20
2.479630
42
-1.064712
0
VERTEX
8
1
10
2.597359
20
2.524261
0
SEQEND
0
POLYLINE
8
1
66
1
70
1
0
VERTEX
8
1
10
3.151970
20
2.476700
42
-1.001590
0
VERTEX
8
1
10
3.152100
20
2.431686
0
VERTEX
8
1
10
2.899696
20
2.444702
42
-0.918079
0
VERTEX
8
1
10
2.901199
20
2.489502
0
SEQEND
0
POLYLINE
8
1
66
1
70
1
0
VERTEX
8
1
10
3.591385
20
2.458542
42
-0.960933
0
VERTEX
8
1
10
3.589600
20
2.413635
0
VERTEX
8
1
10
3.366112
20
2.423462
42
-0.970656
0
VERTEX
8
1
10
3.366150
20
2.468445
0
SEQEND
0
POLYLINE
8
1
66
1
70
1
0
VERTEX
8
1
10
2.681656
20
2.765137
42
-0.801599
0
VERTEX
8
1
10
2.672142
20
2.722244
0
VERTEX
8
1
10
2.568825
20
2.726105
42
-0.931012
0
VERTEX
8
1
10
2.565582
20
2.770920
42
-0.017549
0
SEQEND
0
POLYLINE
8
1
66
1
70
1
0
VERTEX
8
1
10
3.135254
20
2.744476
42
-0.913767
0
VERTEX
8
1
10
3.131279
20
2.699814
0
VERTEX
8
1
10
2.896255
20
2.717209
42
-1.066872
0
VERTEX
8
1
10
2.897148
20
2.762253
0
SEQEND
0
POLYLINE
8
1
66
1
70
1
0
VERTEX
8
1
10
3.517342
20
2.722122
42
-0.911081
0
VERTEX
8
1
10
3.513222
20
2.677521
0
VERTEX
8
1
10
3.361588
20
2.687027
42
-1.055716
0
VERTEX
8
1
10
3.362236
20
2.732086
0
SEQEND
0
POLYLINE
8
1
66
1
70
1
0
VERTEX
8
1
10
2.677063
20
3.045135
42
-0.901968
0
VERTEX
8
1
10
2.672485
20
3.000626
0
VERTEX
8
1
10
2.558159
20
3.004196
42
-0.914219
0
VERTEX
8
1
10
2.561462
20
3.048920
0
VERTEX
8
1
10
2.671066
20
3.045670
0
SEQEND
0
POLYLINE
8
1
66
1
70
1
0
VERTEX
8
1
10
3.147987
20
3.031570
42
-0.944368
0
VERTEX
8
1
10
3.145447
20
2.986710
0
VERTEX
8
1
10
2.867966
20
2.999878
42
-0.960804
0
VERTEX
8
1
10
2.865791
20
3.044861
0
SEQEND
0
POLYLINE
8
1
66
1
70
1
0
VERTEX
8
1
10
3.503120
20
3.013870
42
-0.917053
0
VERTEX
8
1
10
3.499321
20
2.969177
0
VERTEX
8
1
10
3.348251
20
2.976334
42
-1.059314
0
VERTEX
8
1
10
3.348236
20
3.021393
0
SEQEND
0
POLYLINE
8
1
66
1
70
1
0
VERTEX
8
1
10
2.195381
20
2.379333
42
-0.919330
0
VERTEX
8
1
10
2.150551
20
2.378067
42
-0.002525
0
VERTEX
8
1
10
2.095955
20
3.380554
42
-0.896646
0
VERTEX
8
1
10
2.139931
20
3.371307
0
VERTEX
8
1
10
2.141022
20
3.348526
0
SEQEND
0
POLYLINE
8
1
66
1
70
1
0
VERTEX
8
1
10
6.513168
20
3.020050
42
0.107438
0
VERTEX
8
1
10
6.402084
20
3.026413
0
VERTEX
8
1
10
5.940865
20
2.972153
42
0.215643
0
VERTEX
8
1
10
5.841110
20
2.920135
0
VERTEX
8
1
10
5.834908
20
2.905106
42
0.058644
0
VERTEX
8
1
10
5.835274
20
2.799255
42
0.363872
0
VERTEX
8
1
10
5.916115
20
2.733551
0
VERTEX
8
1
10
5.943748
20
2.734741
42
0.005876
0
VERTEX
8
1
10
6.493660
20
2.808701
42
0.161259
0
VERTEX
8
1
10
6.552666
20
2.839691
0
VERTEX
8
1
10
6.556053
20
2.849060
42
-0.103566
0
VERTEX
8
1
10
6.554863
20
2.998627
42
0.110372
0
SEQEND
0
POLYLINE
8
1
66
1
70
1
0
VERTEX
8
1
10
7.668320
20
5.330109
42
-0.997298
0
VERTEX
8
1
10
7.635979
20
5.361557
42
-0.002332
0
VERTEX
8
1
10
8.781990
20
6.311844
42
-0.111431
0
VERTEX
8
1
10
8.991020
20
6.400131
42
-0.046476
0
VERTEX
8
1
10
9.559044
20
6.459045
42
-0.014492
0
VERTEX
8
1
10
11.548965
20
6.460266
0
VERTEX
8
1
10
11.639946
20
6.455917
0
VERTEX
8
1
10
11.692680
20
6.451904
0
VERTEX
8
1
10
11.735527
20
6.446686
42
-0.156635
0
VERTEX
8
1
10
11.958717
20
6.352371
42
-0.192445
0
VERTEX
8
1
10
12.007133
20
6.255981
42
-0.811874
0
VERTEX
8
1
10
11.963066
20
6.260040
42
0.227339
0
VERTEX
8
1
10
11.857330
20
6.366119
42
0.088728
0
VERTEX
8
1
10
11.670128
20
6.408707
42
0.014184
0
VERTEX
8
1
10
10.951714
20
6.427551
42
0.010904
0
VERTEX
8
1
10
9.523994
20
6.412598
0
VERTEX
8
1
10
9.416069
20
6.407471
42
0.053679
0
VERTEX
8
1
10
8.956139
20
6.344559
42
0.102967
0
VERTEX
8
1
10
8.802116
20
6.270477
42
0.001954
0
SEQEND
0
POLYLINE
8
1
66
1
70
1
0
VERTEX
8
1
10
11.868767
20
5.022949
42
-0.935395
0
VERTEX
8
1
10
11.824020
20
5.026871
0
VERTEX
8
1
10
11.897690
20
5.683334
42
-0.955057
0
VERTEX
8
1
10
11.942490
20
5.679337
0
SEQEND
0
POLYLINE
8
1
66
1
70
1
0
VERTEX
8
1
10
11.575851
20
5.173386
42
-1.128012
0
VERTEX
8
1
10
11.530548
20
5.163483
42
0.191611
0
VERTEX
8
1
10
11.310722
20
5.348434
42
0.101264
0
VERTEX
8
1
10
11.012428
20
5.384628
42
0.209871
0
VERTEX
8
1
10
10.735611
20
5.231079
42
-0.983241
0
VERTEX
8
1
10
10.706978
20
5.266830
42
-0.180491
0
VERTEX
8
1
10
10.959663
20
5.421494
42
-0.100172
0
VERTEX
8
1
10
11.183716
20
5.423569
0
VERTEX
8
1
10
11.242851
20
5.414154
0
VERTEX
8
1
10
11.296349
20
5.400772
42
-0.215934
0
SEQEND
0
POLYLINE
8
1
66
1
70
1
0
VERTEX
8
1
10
13.045296
20
5.332413
42
0.161116
0
VERTEX
8
1
10
12.968246
20
5.376175
42
0.099370
0
VERTEX
8
1
10
12.741264
20
5.390701
0
VERTEX
8
1
10
12.671333
20
5.382538
0
VERTEX
8
1
10
12.591904
20
5.369003
42
0.095428
0
VERTEX
8
1
10
12.476669
20
5.283951
42
0.549835
0
VERTEX
8
1
10
12.489540
20
5.215103
42
0.150406
0
VERTEX
8
1
10
12.662025
20
5.199677
42
0.086408
0
VERTEX
8
1
10
12.948074
20
5.287766
42
0.010918
0
SEQEND
0
POLYLINE
8
1
66
1
70
1
0
VERTEX
8
1
10
13.000671
20
5.025040
42
-0.103796
0
VERTEX
8
1
10
12.551468
20
5.053955
42
-0.138560
0
VERTEX
8
1
10
12.451065
20
5.109650
42
-0.813685
0
VERTEX
8
1
10
12.486595
20
5.135727
0
VERTEX
8
1
10
12.517464
20
5.115280
0
VERTEX
8
1
10
12.559547
20
5.098022
42
0.108897
0
VERTEX
8
1
10
13.008347
20
5.072586
42
0.385910
0
VERTEX
8
1
10
13.095993
20
5.183517
42
0.053118
0
VERTEX
8
1
10
13.088165
20
5.262054
42
-0.768762
0
VERTEX
8
1
10
13.131752
20
5.265060
42
-0.232649
0
VERTEX
8
1
10
13.103256
20
5.075729
42
-0.166065
0
SEQEND
0
POLYLINE
8
1
66
1
70
1
0
VERTEX
8
1
10
12.644905
20
4.998383
0
VERTEX
8
1
10
12.547913
20
5.012512
0
VERTEX
8
1
10
12.390900
20
4.862320
0
VERTEX
8
1
10
12.388535
20
4.859634
42
0.051463
0
VERTEX
8
1
10
12.523865
20
4.826553
0
VERTEX
8
1
10
12.537354
20
4.828003
0
VERTEX
8
1
10
12.542366
20
4.833939
0
VERTEX
8
1
10
12.539200
20
4.845261
0
VERTEX
8
1
10
12.541496
20
4.861328
42
-0.090207
0
SEQEND
0
POLYLINE
8
1
66
1
70
1
0
VERTEX
8
1
10
14.812981
20
5.336716
42
-0.926234
0
VERTEX
8
1
10
14.769951
20
5.323929
42
0.029602
0
VERTEX
8
1
10
14.554672
20
5.988068
0
VERTEX
8
1
10
14.529808
20
6.043777
0
VERTEX
8
1
10
14.505264
20
6.092209
0
VERTEX
8
1
10
14.470207
20
6.127823
0
VERTEX
8
1
10
14.411324
20
6.158066
0
VERTEX
8
1
10
14.334610
20
6.187164
42
0.037273
0
VERTEX
8
1
10
13.658913
20
6.333649
42
0.005686
0
VERTEX
8
1
10
13.225502
20
6.395096
42
-0.796956
0
VERTEX
8
1
10
13.235550
20
6.437790
42
-0.031004
0
VERTEX
8
1
10
14.214989
20
6.268570
42
-0.046892
0
VERTEX
8
1
10
14.469437
20
6.179443
0
VERTEX
8
1
10
14.520744
20
6.146835
42
-0.159090
0
VERTEX
8
1
10
14.547409
20
6.108856
42
-0.042816
0
VERTEX
8
1
10
14.710258
20
5.688324
42
-0.012425
0
SEQEND
0
POLYLINE
8
1
66
1
70
1
0
VERTEX
8
1
10
12.335068
20
4.926071
0
VERTEX
8
1
10
11.667183
20
4.906723
42
-0.971064
0
VERTEX
8
1
10
11.663429
20
4.951538
0
VERTEX
8
1
10
12.331932
20
4.970917
42
-0.957966
0
SEQEND
0
POLYLINE
8
1
66
1
70
1
0
VERTEX
8
1
10
14.111015
20
4.976135
0
VERTEX
8
1
10
13.166580
20
4.949799
42
-0.943076
0
VERTEX
8
1
10
13.162689
20
4.994553
0
VERTEX
8
1
10
14.109818
20
5.021118
42
0.065202
0
VERTEX
8
1
10
14.634079
20
5.092651
42
0.063794
0
VERTEX
8
1
10
14.788513
20
5.159836
42
-0.822120
0
VERTEX
8
1
10
14.801422
20
5.117233
42
-0.088097
0
VERTEX
8
1
10
14.604446
20
5.036972
42
-0.057489
0
SEQEND
0
POLYLINE
8
1
66
1
70
1
0
VERTEX
8
1
10
11.501976
20
5.007095
42
-0.941686
0
VERTEX
8
1
10
11.499329
20
4.962234
0
VERTEX
8
1
10
10.193413
20
5.073273
42
-1.001059
0
VERTEX
8
1
10
10.194176
20
5.118347
0
SEQEND
0
POLYLINE
8
1
66
1
70
1
0
VERTEX
8
1
10
14.527092
20
5.512436
0
VERTEX
8
1
10
14.534027
20
5.456970
0
VERTEX
8
1
10
12.610359
20
5.436157
42
-0.929920
0
VERTEX
8
1
10
12.614792
20
5.442688
42
-0.079958
0
VERTEX
8
1
10
12.705475
20
5.461243
42
-0.027483
0
VERTEX
8
1
10
13.371780
20
5.501144
42
-0.004707
0
SEQEND
0
POLYLINE
8
1
66
1
70
1
0
VERTEX
8
1
10
11.489952
20
2.129364
42
-0.488656
0
VERTEX
8
1
10
11.462936
20
2.152481
0
VERTEX
8
1
10
11.727760
20
3.757080
42
0.020996
0
VERTEX
8
1
10
11.727463
20
4.121094
42
0.000797
0
VERTEX
8
1
10
11.713852
20
4.671722
42
-0.810847
0
VERTEX
8
1
10
11.757744
20
4.668137
42
-0.012446
0
VERTEX
8
1
10
11.774857
20
3.800735
0
VERTEX
8
1
10
11.773773
20
3.770660
0
VERTEX
8
1
10
11.772156
20
3.749710
0
VERTEX
8
1
10
11.516144
20
2.199371
0
VERTEX
8
1
10
11.518364
20
2.181259
0
VERTEX
8
1
10
14.790062
20
2.862854
0
VERTEX
8
1
10
14.802429
20
2.866135
0
VERTEX
8
1
10
15.297173
20
4.158112
42
0.175833
0
VERTEX
8
1
10
15.237633
20
4.561188
42
0.019740
0
VERTEX
8
1
10
14.949829
20
5.076004
42
-0.810715
0
VERTEX
8
1
10
14.988953
20
5.096191
42
-0.032244
0
VERTEX
8
1
10
15.313225
20
4.503662
42
-0.143535
0
VERTEX
8
1
10
15.340683
20
4.146408
0
VERTEX
8
1
10
14.840424
20
2.839569
42
-0.239937
0
VERTEX
8
1
10
14.826187
20
2.824615
0
SEQEND
0
POLYLINE
8
1
66
1
70
1
0
VERTEX
8
1
10
15.124275
20
4.634018
0
VERTEX
8
1
10
14.834038
20
4.615051
42
-0.515920
0
VERTEX
8
1
10
14.810631
20
4.648666
42
0.566110
0
VERTEX
8
1
10
14.779060
20
4.674927
42
-0.167252
0
VERTEX
8
1
10
14.735939
20
4.675034
42
-0.737206
0
VERTEX
8
1
10
14.751938
20
4.716873
42
-0.361969
0
VERTEX
8
1
10
14.849686
20
4.680801
0
VERTEX
8
1
10
14.853195
20
4.671356
0
VERTEX
8
1
10
14.855392
20
4.661530
0
VERTEX
8
1
10
15.118103
20
4.678482
42
-0.933957
0
SEQEND
0
POLYLINE
8
1
66
1
70
1
0
VERTEX
8
1
10
11.652016
20
3.776199
0
VERTEX
8
1
10
9.985306
20
3.546143
42
-0.207172
0
VERTEX
8
1
10
10.310913
20
3.156265
0
VERTEX
8
1
10
10.322029
20
3.133331
42
0.212995
0
VERTEX
8
1
10
10.326736
20
3.230103
42
0.070666
0
VERTEX
8
1
10
10.235321
20
3.441895
0
VERTEX
8
1
10
11.589409
20
3.587845
0
SEQEND
0
POLYLINE
8
1
66
1
70
1
0
VERTEX
8
1
10
15.235039
20
4.212769
0
VERTEX
8
1
10
11.901878
20
3.816956
42
-0.084773
0
VERTEX
8
1
10
11.860214
20
3.608627
0
VERTEX
8
1
10
11.896957
20
3.614136
42
-0.006927
0
VERTEX
8
1
10
13.283386
20
3.769470
42
-0.000929
0
VERTEX
8
1
10
15.130867
20
3.962784
0
SEQEND
0
POLYLINE
8
1
66
1
70
1
0
VERTEX
8
1
10
15.657692
20
4.246536
42
0.008614
0
VERTEX
8
1
10
15.443367
20
4.212769
0
VERTEX
8
1
10
15.374306
20
3.998627
0
VERTEX
8
1
10
15.610413
20
4.040298
42
-0.076826
0
VERTEX
8
1
10
15.763191
20
4.248627
0
VERTEX
8
1
10
15.764198
20
4.253555
42
0.065799
0
SEQEND
0
POLYLINE
8
1
66
1
70
1
0
VERTEX
8
1
10
10.283241
20
2.085648
42
-0.909924
0
VERTEX
8
1
10
10.241585
20
2.102097
42
0.068040
0
VERTEX
8
1
10
10.290131
20
2.353424
42
0.023871
0
VERTEX
8
1
10
10.311462
20
2.978409
42
-0.814292
0
VERTEX
8
1
10
10.355103
20
2.972214
42
-0.028458
0
VERTEX
8
1
10
10.332611
20
2.326889
42
-0.068904
0
SEQEND
0
POLYLINE
8
1
66
1
70
1
0
VERTEX
8
1
10
10.204086
20
1.852707
42
-1.063976
0
VERTEX
8
1
10
10.187210
20
1.895157
0
VERTEX
8
1
10
11.340729
20
2.117661
42
-0.964294
0
VERTEX
8
1
10
11.353806
20
2.074554
0
SEQEND
0
POLYLINE
8
1
66
1
70
1
0
VERTEX
8
1
10
8.770134
20
2.461914
42
0.097141
0
VERTEX
8
1
10
8.610413
20
2.373978
42
-0.050456
0
VERTEX
8
1
10
8.679764
20
1.952774
0
VERTEX
8
1
10
8.687561
20
1.940994
0
VERTEX
8
1
10
8.700653
20
1.948303
42
0.087332
0
VERTEX
8
1
10
8.764381
20
2.067017
42
0.042521
0
VERTEX
8
1
10
8.873535
20
2.434006
42
0.537914
0
VERTEX
8
1
10
8.842094
20
2.471771
42
0.094123
0
SEQEND
0
POLYLINE
8
1
66
1
70
1
0
VERTEX
8
1
10
9.275436
20
2.207840
42
0.001827
0
VERTEX
8
1
10
8.902084
20
1.887512
0
VERTEX
8
1
10
8.998466
20
1.804901
0
VERTEX
8
1
10
9.003380
20
1.804321
42
0.047174
0
VERTEX
8
1
10
9.203606
20
1.861084
42
0.015411
0
VERTEX
8
1
10
9.429810
20
1.944138
42
0.097725
0
VERTEX
8
1
10
9.377907
20
2.157639
42
0.256827
0
VERTEX
8
1
10
9.297676
20
2.220581
0
SEQEND
0
POLYLINE
8
1
66
1
70
1
0
VERTEX
8
1
10
8.902084
20
1.512512
42
-0.219064
0
VERTEX
8
1
10
8.790970
20
1.456970
0
VERTEX
8
1
10
9.040970
20
0.984741
42
0.288552
0
VERTEX
8
1
10
9.212456
20
1.131729
42
0.092697
0
VERTEX
8
1
10
9.235413
20
1.276413
42
-0.001959
0
SEQEND
0
POLYLINE
8
1
66
1
70
1
0
VERTEX
8
1
10
8.607521
20
1.538727
42
0.142541
0
VERTEX
8
1
10
8.584923
20
1.528366
0
VERTEX
8
1
10
8.329041
20
1.172134
0
VERTEX
8
1
10
8.328659
20
1.169769
42
0.038685
0
VERTEX
8
1
10
8.482132
20
0.977844
0
VERTEX
8
1
10
8.496941
20
0.965836
42
0.676971
0
VERTEX
8
1
10
8.524086
20
0.973602
0
VERTEX
8
1
10
8.533501
20
0.998001
42
0.040839
0
VERTEX
8
1
10
8.638496
20
1.469193
0
VERTEX
8
1
10
8.639229
20
1.494766
42
0.358812
0
VERTEX
8
1
10
8.611824
20
1.538681
0
SEQEND
0
POLYLINE
8
1
66
1
70
1
0
VERTEX
8
1
10
8.372086
20
1.912231
42
-0.039835
0
VERTEX
8
1
10
8.540970
20
1.788071
0
VERTEX
8
1
10
8.540970
20
1.689987
0
VERTEX
8
1
10
8.237160
20
1.665436
0
VERTEX
8
1
10
8.235489
20
1.666428
42
-0.079794
0
VERTEX
8
1
10
8.294296
20
1.929123
0
VERTEX
8
1
10
8.312286
20
1.944336
0
VERTEX
8
1
10
8.342224
20
1.929276
0
SEQEND
0
POLYLINE
8
1
66
1
70
1
0
VERTEX
8
1
10
8.857079
20
1.826035
42
-0.091862
0
VERTEX
8
1
10
8.874306
20
1.790298
42
0.192997
0
VERTEX
8
1
10
8.812660
20
1.664688
42
0.206698
0
VERTEX
8
1
10
8.850998
20
1.586990
0
VERTEX
8
1
10
8.871574
20
1.564636
0
VERTEX
8
1
10
8.859306
20
1.553040
42
-0.211077
0
VERTEX
8
1
10
8.735046
20
1.541122
42
-0.211942
0
VERTEX
8
1
10
8.737541
20
1.767548
42
-0.173674
0
VERTEX
8
1
10
8.812927
20
1.842300
42
-0.332580
0
SEQEND
0
POLYLINE
8
1
66
1
70
1
0
VERTEX
8
1
10
8.187302
20
1.577484
42
0.052120
0
VERTEX
8
1
10
8.143700
20
1.544815
42
0.142611
0
VERTEX
8
1
10
8.299606
20
0.917526
42
0.197078
0
VERTEX
8
1
10
8.686714
20
0.619415
42
0.173953
0
VERTEX
8
1
10
9.099571
20
0.669022
42
0.148984
0
VERTEX
8
1
10
9.541672
20
1.093597
42
0.213286
0
VERTEX
8
1
10
9.656479
20
2.240311
42
0.149383
0
VERTEX
8
1
10
9.361908
20
2.658981
42
0.296046
0
VERTEX
8
1
10
8.735550
20
2.697601
42
0.127638
0
VERTEX
8
1
10
8.384109
20
2.355606
42
0.052641
0
VERTEX
8
1
10
8.248573
20
2.082016
42
0.143486
0
VERTEX
8
1
10
8.277596
20
2.025497
0
VERTEX
8
1
10
8.282784
20
2.022766
42
0.333334
0
VERTEX
8
1
10
8.320564
20
2.053848
42
-0.088840
0
VERTEX
8
1
10
8.601036
20
2.459335
42
-0.178291
0
VERTEX
8
1
10
8.976601
20
2.639313
42
-0.216997
0
VERTEX
8
1
10
9.379997
20
2.473190
42
-0.150197
0
VERTEX
8
1
10
9.611534
20
1.992294
42
-0.217346
0
VERTEX
8
1
10
9.358551
20
0.993469
42
-0.146552
0
VERTEX
8
1
10
8.971649
20
0.727051
0
VERTEX
8
1
10
8.924500
20
0.715622
42
-0.297726
0
VERTEX
8
1
10
8.442978
20
0.893829
42
-0.101196
0
VERTEX
8
1
10
8.273666
20
1.265778
42
-0.027946
0
VERTEX
8
1
10
8.214691
20
1.579544
42
0.417331
0
SEQEND
0
POLYLINE
8
1
66
1
70
1
0
VERTEX
8
1
10
9.195229
20
1.472137
42
-0.964444
0
VERTEX
8
1
10
9.175201
20
1.431839
0
VERTEX
8
1
10
9.082794
20
1.487122
42
-0.358177
0
VERTEX
8
1
10
9.070030
20
1.513260
42
-0.025139
0
VERTEX
8
1
10
9.120605
20
1.725632
42
-0.163984
0
VERTEX
8
1
10
9.132668
20
1.733398
0
VERTEX
8
1
10
9.256050
20
1.752487
42
-0.923303
0
VERTEX
8
1
10
9.264618
20
1.708435
0
VERTEX
8
1
10
9.160255
20
1.692230
0
VERTEX
8
1
10
9.154854
20
1.687393
42
0.006765
0
VERTEX
8
1
10
9.117622
20
1.520737
0
VERTEX
8
1
10
9.121811
20
1.516190
0
SEQEND
0
POLYLINE
8
1
66
1
70
1
0
VERTEX
8
1
10
9.024895
20
2.121674
42
-0.379982
0
VERTEX
8
1
10
8.994438
20
2.120010
0
VERTEX
8
1
10
8.891571
20
2.213470
42
-1.000106
0
VERTEX
8
1
10
8.921844
20
2.246765
0
VERTEX
8
1
10
9.008339
20
2.168152
0
VERTEX
8
1
10
9.012215
20
2.168655
0
VERTEX
8
1
10
9.152298
20
2.275772
42
-1.000642
0
VERTEX
8
1
10
9.179642
20
2.240021
0
SEQEND
0
POLYLINE
8
1
66
1
70
1
0
VERTEX
8
1
10
8.405533
20
2.002579
42
-1.037084
0
VERTEX
8
1
10
8.372192
20
2.032959
0
VERTEX
8
1
10
8.531380
20
2.182739
42
-0.971610
0
VERTEX
8
1
10
8.560806
20
2.148712
0
SEQEND
0
POLYLINE
8
1
66
1
70
1
0
VERTEX
8
1
10
8.388985
20
1.454636
42
-0.962722
0
VERTEX
8
1
10
8.351295
20
1.430099
0
VERTEX
8
1
10
8.284966
20
1.543701
42
-1.002007
0
VERTEX
8
1
10
8.324814
20
1.564621
0
SEQEND
0
POLYLINE
8
1
66
1
70
1
0
VERTEX
8
1
10
8.909164
20
1.006836
42
-0.923204
0
VERTEX
8
1
10
8.868805
20
0.987213
0
VERTEX
8
1
10
8.791817
20
1.157974
0
VERTEX
8
1
10
8.786324
20
1.157440
0
VERTEX
8
1
10
8.659752
20
1.133743
42
-0.975438
0
VERTEX
8
1
10
8.652557
20
1.178146
0
VERTEX
8
1
10
8.797264
20
1.205276
42
-0.371851
0
VERTEX
8
1
10
8.824974
20
1.193909
0
SEQEND
0
POLYLINE
8
1
66
1
70
1
0
VERTEX
8
1
10
8.493584
20
0.130707
42
-1.000323
0
VERTEX
8
1
10
8.477249
20
0.088776
42
-0.134387
0
VERTEX
8
1
10
7.990669
20
0.461777
42
-0.122864
0
VERTEX
8
1
10
7.648964
20
1.263519
0
VERTEX
8
1
10
7.634560
20
1.357895
0
VERTEX
8
1
10
7.624146
20
1.454117
0
VERTEX
8
1
10
7.617821
20
1.552017
42
-0.258473
0
VERTEX
8
1
10
8.333038
20
3.041611
42
-0.187672
0
VERTEX
8
1
10
9.183395
20
3.261414
42
-0.273395
0
VERTEX
8
1
10
10.075493
20
2.582748
42
-0.064877
0
VERTEX
8
1
10
10.160492
20
2.273468
42
-0.866353
0
VERTEX
8
1
10
10.115967
20
2.272949
42
0.157705
0
VERTEX
8
1
10
9.813393
20
2.903152
42
0.336150
0
VERTEX
8
1
10
8.485703
20
3.082443
0
VERTEX
8
1
10
8.441711
20
3.057556
0
VERTEX
8
1
10
8.398636
20
3.031143
42
0.266854
0
VERTEX
8
1
10
7.662766
20
1.554489
42
0.126384
0
VERTEX
8
1
10
7.931671
20
0.624435
42
0.142402
0
VERTEX
8
1
10
8.426712
20
0.159714
0
SEQEND
0
POLYLINE
8
1
66
1
70
1
0
VERTEX
8
1
10
15.963943
20
3.573318
42
0.097321
0
VERTEX
8
1
10
15.897324
20
3.517639
42
-0.031170
0
VERTEX
8
1
10
15.929657
20
3.234451
0
VERTEX
8
1
10
15.934258
20
3.225052
0
VERTEX
8
1
10
15.942123
20
3.233826
0
VERTEX
8
1
10
15.950958
20
3.252884
42
0.048010
0
VERTEX
8
1
10
16.020363
20
3.567993
0
VERTEX
8
1
10
16.018127
20
3.575531
42
0.344782
0
VERTEX
8
1
10
15.972038
20
3.577240
0
SEQEND
0
POLYLINE
8
1
66
1
70
1
0
VERTEX
8
1
10
16.212044
20
3.410416
42
0.002101
0
VERTEX
8
1
10
16.033485
20
3.188644
0
VERTEX
8
1
10
16.078804
20
3.132355
0
VERTEX
8
1
10
16.088074
20
3.133698
42
0.043937
0
VERTEX
8
1
10
16.279854
20
3.227509
42
0.079255
0
VERTEX
8
1
10
16.251709
20
3.380768
0
VERTEX
8
1
10
16.240654
20
3.399521
0
VERTEX
8
1
10
16.227066
20
3.411209
0
SEQEND
0
POLYLINE
8
1
66
1
70
1
0
VERTEX
8
1
10
16.012077
20
2.909180
42
-0.173269
0
VERTEX
8
1
10
15.981621
20
2.897430
0
VERTEX
8
1
10
16.098488
20
2.578079
42
0.221470
0
VERTEX
8
1
10
16.154724
20
2.620819
42
0.132286
0
VERTEX
8
1
10
16.188553
20
2.750259
0
VERTEX
8
1
10
16.179916
20
2.784668
0
VERTEX
8
1
10
16.033630
20
2.934860
42
-0.084496
0
SEQEND
0
POLYLINE
8
1
66
1
70
1
0
VERTEX
8
1
10
15.894936
20
2.952560
42
0.144080
0
VERTEX
8
1
10
15.885612
20
2.945999
0
VERTEX
8
1
10
15.791138
20
2.748978
42
0.048261
0
VERTEX
8
1
10
15.852356
20
2.599380
0
VERTEX
8
1
10
15.858261
20
2.594711
0
VERTEX
8
1
10
15.862457
20
2.600082
42
0.042294
0
VERTEX
8
1
10
15.910912
20
2.916000
42
0.277593
0
VERTEX
8
1
10
15.898201
20
2.952667
0
SEQEND
0
POLYLINE
8
1
66
1
70
1
0
VERTEX
8
1
10
15.782356
20
3.208527
42
-0.042892
0
VERTEX
8
1
10
15.864891
20
3.121368
0
VERTEX
8
1
10
15.864891
20
3.055588
0
VERTEX
8
1
10
15.863472
20
3.054779
0
VERTEX
8
1
10
15.722229
20
3.038330
42
-0.058370
0
VERTEX
8
1
10
15.750267
20
3.218353
0
VERTEX
8
1
10
15.763863
20
3.223068
0
SEQEND
0
POLYLINE
8
1
66
1
70
1
0
VERTEX
8
1
10
15.711021
20
2.885223
0
VERTEX
8
1
10
15.704453
20
2.874115
42
0.201104
0
VERTEX
8
1
10
15.687096
20
2.788422
42
0.101555
0
VERTEX
8
1
10
15.743637
20
2.505157
42
0.302890
0
VERTEX
8
1
10
16.033051
20
2.320724
42
0.183866
0
VERTEX
8
1
10
16.234993
20
2.431595
42
0.125000
0
VERTEX
8
1
10
16.429482
20
2.812683
42
0.133223
0
VERTEX
8
1
10
16.417778
20
3.476639
42
0.122163
0
VERTEX
8
1
10
16.282013
20
3.713821
42
0.451989
0
VERTEX
8
1
10
15.878456
20
3.681717
42
0.101657
0
VERTEX
8
1
10
15.754028
20
3.414902
42
0.248287
0
VERTEX
8
1
10
15.778511
20
3.381195
42
0.229601
0
VERTEX
8
1
10
15.796410
20
3.403305
42
-0.091884
0
VERTEX
8
1
10
15.916214
20
3.628372
0
VERTEX
8
1
10
15.933922
20
3.645859
42
-0.325509
0
VERTEX
8
1
10
16.207657
20
3.667740
42
-0.149814
0
VERTEX
8
1
10
16.346870
20
3.492874
0
VERTEX
8
1
10
16.363716
20
3.451538
42
-0.184089
0
VERTEX
8
1
10
16.327271
20
2.665085
42
-0.131696
0
VERTEX
8
1
10
16.144684
20
2.431793
42
-0.439349
0
VERTEX
8
1
10
15.820587
20
2.501663
42
-0.104799
0
VERTEX
8
1
10
15.736282
20
2.763809
42
0.000594
0
VERTEX
8
1
10
15.719376
20
2.892548
42
0.212509
0
SEQEND
0
POLYLINE
8
1
66
1
70
1
0
VERTEX
8
1
10
15.802002
20
2.062897
42
-1.248474
0
VERTEX
8
1
10
15.796471
20
2.018143
42
-0.157269
0
VERTEX
8
1
10
15.668343
20
2.082397
42
-0.133618
0
VERTEX
8
1
10
15.486435
20
2.371185
42
-0.096655
0
VERTEX
8
1
10
15.428635
20
2.880432
42
-0.086169
0
VERTEX
8
1
10
15.619980
20
3.694199
42
-0.091753
0
VERTEX
8
1
10
15.833160
20
4.015305
42
-0.200568
0
VERTEX
8
1
10
16.103119
20
4.131592
42
-0.269695
0
VERTEX
8
1
10
16.479424
20
3.925797
42
-0.079946
0
VERTEX
8
1
10
16.605125
20
3.623032
42
-0.800053
0
VERTEX
8
1
10
16.562050
20
3.614563
42
0.058695
0
VERTEX
8
1
10
16.456749
20
3.878098
0
VERTEX
8
1
10
16.434074
20
3.913483
42
0.250974
0
VERTEX
8
1
10
16.122559
20
4.085907
42
0.179228
0
VERTEX
8
1
10
15.924316
20
4.031296
42
0.101976
0
VERTEX
8
1
10
15.746704
20
3.835236
0
VERTEX
8
1
10
15.707970
20
3.768921
0
VERTEX
8
1
10
15.671730
20
3.697037
42
0.111433
0
VERTEX
8
1
10
15.472824
20
2.695206
42
0.113620
0
VERTEX
8
1
10
15.584854
20
2.258926
42
0.157346
0
VERTEX
8
1
10
15.769104
20
2.070831
42
0.071934
0
SEQEND
0
POLYLINE
8
1
66
1
70
1
0
VERTEX
8
1
10
16.000641
20
3.015198
42
-0.912977
0
VERTEX
8
1
10
15.973488
20
2.979568
0
VERTEX
8
1
10
15.954407
20
2.998703
42
-0.222151
0
VERTEX
8
1
10
15.959274
20
3.121490
42
-0.924981
0
VERTEX
8
1
10
15.999252
20
3.101120
42
0.181022
0
VERTEX
8
1
10
15.993156
20
3.022018
0
SEQEND
0
POLYLINE
8
1
66
1
70
1
0
VERTEX
8
1
10
15.045517
20
2.679474
42
-0.104880
0
VERTEX
8
1
10
14.979240
20
2.673325
42
-0.709358
0
VERTEX
8
1
10
14.986168
20
2.715210
42
0.137919
0
VERTEX
8
1
10
15.129776
20
2.762146
0
VERTEX
8
1
10
15.133408
20
2.767380
42
-0.030426
0
VERTEX
8
1
10
15.402344
20
3.596481
42
-0.039677
0
VERTEX
8
1
10
15.542671
20
3.882080
0
VERTEX
8
1
10
15.584145
20
3.939270
42
-0.972036
0
VERTEX
8
1
10
15.618980
20
3.910812
0
VERTEX
8
1
10
15.589775
20
3.871780
0
VERTEX
8
1
10
15.545731
20
3.798553
0
VERTEX
8
1
10
15.501053
20
3.709656
42
0.039183
0
VERTEX
8
1
10
15.181488
20
2.775818
42
-0.293424
0
VERTEX
8
1
10
15.117630
20
2.702026
42
-0.051611
0
SEQEND
0
POLYLINE
8
1
66
1
70
1
0
VERTEX
8
1
10
16.724937
20
3.498123
42
-0.901944
0
VERTEX
8
1
10
16.687752
20
3.523056
42
0.104123
0
VERTEX
8
1
10
16.769936
20
3.741562
42
0.044818
0
VERTEX
8
1
10
16.797531
20
4.075516
42
-0.967698
0
VERTEX
8
1
10
16.841484
20
4.060150
42
-0.070980
0
VERTEX
8
1
10
16.791199
20
3.640717
42
-0.076413
0
SEQEND
0
POLYLINE
8
1
66
1
70
1
0
VERTEX
8
1
10
16.878944
20
4.368973
0
VERTEX
8
1
10
16.897469
20
4.285645
42
-0.064662
0
VERTEX
8
1
10
17.192383
20
4.254089
42
-0.122753
0
VERTEX
8
1
10
17.305283
20
4.194870
0
VERTEX
8
1
10
17.323387
20
4.165268
0
VERTEX
8
1
10
17.334396
20
4.171173
42
0.191049
0
VERTEX
8
1
10
17.386772
20
4.267929
42
-0.331774
0
VERTEX
8
1
10
17.351768
20
4.365723
0
VERTEX
8
1
10
17.358383
20
4.389008
0
VERTEX
8
1
10
17.369690
20
4.415268
42
0.001927
0
SEQEND
0
POLYLINE
8
1
66
1
70
1
0
VERTEX
8
1
10
17.060150
20
5.029770
42
-0.956977
0
VERTEX
8
1
10
17.051521
20
4.985626
0
VERTEX
8
1
10
16.713669
20
5.088638
42
-0.927490
0
VERTEX
8
1
10
16.726158
20
5.131729
0
SEQEND
0
POLYLINE
8
1
66
1
70
1
0
VERTEX
8
1
10
4.063156
20
2.739975
42
-0.999372
0
VERTEX
8
1
10
4.018997
20
2.729904
0
VERTEX
8
1
10
3.963173
20
3.508041
42
0.309781
0
VERTEX
8
1
10
3.876450
20
3.635513
42
0.099325
0
VERTEX
8
1
10
3.724312
20
3.670380
42
-0.003350
0
VERTEX
8
1
10
2.297356
20
3.769089
0
VERTEX
8
1
10
2.030182
20
3.909424
42
-0.913025
0
VERTEX
8
1
10
2.047997
20
3.950562
42
-0.001327
0
VERTEX
8
1
10
2.309677
20
3.813187
0
VERTEX
8
1
10
2.321465
20
3.811646
42
0.001899
0
VERTEX
8
1
10
3.774399
20
3.710999
0
VERTEX
8
1
10
3.796654
20
3.707520
42
-0.210776
0
VERTEX
8
1
10
3.983727
20
3.599136
42
-0.136969
0
VERTEX
8
1
10
4.007980
20
3.513565
0
SEQEND
0
ENDSEC
0
EOF
