0
SECTION
2
HEADER
9
$EXTMIN
10
0.904310
20
0.334366
9
$EXTMAX
10
18.200441
20
12.334030
0
ENDSEC
0
SECTION
2
TABLES
0
TABLE
2
LTYPE
70
1
0
LTYPE
2
0
70
0
3
Solid Line
72
65
73
0
40
0.0
0
ENDTAB
0
TABLE
2
LAYER
70
1
0
LAYER
2
1
70
0
62
7
6
0
0
ENDTAB
0
ENDSEC
0
SECTION
2
BLOCKS
0
ENDSEC
0
SECTION
2
ENTITIES
0
POLYLINE
8
1
66
1
70
1
0
VERTEX
8
1
10
18.136084
20
2.704803
42
0.138369
0
VERTEX
8
1
10
17.939188
20
2.841232
0
VERTEX
8
1
10
17.911169
20
2.853195
0
VERTEX
8
1
10
17.882952
20
2.865326
42
-0.210958
0
VERTEX
8
1
10
17.607508
20
3.126389
0
VERTEX
8
1
10
17.590010
20
3.172104
0
VERTEX
8
1
10
17.579763
20
3.171463
42
0.176863
0
VERTEX
8
1
10
17.511839
20
2.715073
42
0.190612
0
VERTEX
8
1
10
17.684080
20
2.463318
42
-0.381125
0
VERTEX
8
1
10
17.740259
20
2.287552
42
-0.174730
0
VERTEX
8
1
10
17.595369
20
2.162201
42
-0.196532
0
VERTEX
8
1
10
17.030165
20
2.165939
42
0.007765
0
VERTEX
8
1
10
15.898481
20
2.586609
42
0.032596
0
VERTEX
8
1
10
14.702349
20
2.918030
42
0.043615
0
VERTEX
8
1
10
13.896749
20
3.012955
42
0.042480
0
VERTEX
8
1
10
13.396570
20
2.980667
42
-0.088588
0
VERTEX
8
1
10
13.764742
20
3.210876
42
-0.079891
0
VERTEX
8
1
10
13.951143
20
3.244354
42
0.165597
0
VERTEX
8
1
10
13.782202
20
3.279663
42
0.117765
0
VERTEX
8
1
10
13.350435
20
3.135925
0
VERTEX
8
1
10
13.335459
20
3.124146
0
VERTEX
8
1
10
13.324411
20
3.113235
42
0.059830
0
VERTEX
8
1
10
13.113035
20
3.283142
0
VERTEX
8
1
10
13.087000
20
3.296127
42
0.302187
0
VERTEX
8
1
10
12.842123
20
3.275864
0
VERTEX
8
1
10
12.816095
20
3.251587
42
-0.180289
0
VERTEX
8
1
10
12.527239
20
3.107315
42
-0.152485
0
VERTEX
8
1
10
12.402479
20
3.131302
0
VERTEX
8
1
10
12.400251
20
3.127319
42
0.236582
0
VERTEX
8
1
10
12.459051
20
3.062225
0
VERTEX
8
1
10
12.477777
20
3.052612
42
0.150937
0
VERTEX
8
1
10
12.918547
20
3.016556
42
-0.501912
0
VERTEX
8
1
10
13.014273
20
2.918030
42
-0.110814
0
VERTEX
8
1
10
12.994169
20
2.846268
42
0.046753
0
VERTEX
8
1
10
12.776899
20
2.692474
42
-0.139559
0
VERTEX
8
1
10
12.521013
20
2.719177
0
VERTEX
8
1
10
12.520201
20
2.730270
42
0.294492
0
VERTEX
8
1
10
12.417521
20
2.958496
42
0.187272
0
VERTEX
8
1
10
12.219328
20
3.026642
42
0.306095
0
VERTEX
8
1
10
12.161772
20
2.981979
0
VERTEX
8
1
10
12.156439
20
2.980042
42
-0.294444
0
VERTEX
8
1
10
12.196684
20
3.465042
42
-0.079010
0
VERTEX
8
1
10
12.380449
20
3.655289
42
-0.071315
0
VERTEX
8
1
10
12.738749
20
3.876099
42
-0.112381
0
VERTEX
8
1
10
12.995607
20
3.923813
42
-0.234441
0
VERTEX
8
1
10
13.183859
20
3.824860
42
-0.189056
0
VERTEX
8
1
10
13.201212
20
3.743164
0
VERTEX
8
1
10
13.171328
20
3.739716
42
0.173058
0
VERTEX
8
1
10
13.000814
20
3.686951
42
0.275552
0
VERTEX
8
1
10
12.962744
20
3.540298
42
0.095464
0
VERTEX
8
1
10
13.027330
20
3.397614
42
0.318794
0
VERTEX
8
1
10
13.185308
20
3.367767
0
VERTEX
8
1
10
13.214029
20
3.380234
0
VERTEX
8
1
10
13.242659
20
3.396606
42
0.198467
0
VERTEX
8
1
10
13.495447
20
3.795929
42
0.270631
0
VERTEX
8
1
10
13.434603
20
3.957123
42
0.140043
0
VERTEX
8
1
10
13.171331
20
4.068619
42
0.082933
0
VERTEX
8
1
10
12.722792
20
4.060928
0
VERTEX
8
1
10
12.690340
20
4.068115
42
-0.083697
0
VERTEX
8
1
10
13.127035
20
4.356567
42
-0.197139
0
VERTEX
8
1
10
13.623621
20
4.362335
42
-0.023769
0
VERTEX
8
1
10
13.775156
20
4.297104
42
0.119144
0
VERTEX
8
1
10
14.050520
20
4.264694
42
0.092791
0
VERTEX
8
1
10
14.505434
20
4.384644
42
0.116181
0
VERTEX
8
1
10
14.616514
20
4.470322
42
0.258269
0
VERTEX
8
1
10
14.626566
20
4.536575
0
VERTEX
8
1
10
14.586855
20
4.526123
42
-0.119945
0
VERTEX
8
1
10
14.280615
20
4.488983
42
-0.096884
0
VERTEX
8
1
10
14.010687
20
4.606491
0
VERTEX
8
1
10
13.980818
20
4.624542
0
VERTEX
8
1
10
13.949671
20
4.643433
42
0.184982
0
VERTEX
8
1
10
13.671679
20
4.701447
0
VERTEX
8
1
10
13.634584
20
4.696381
42
0.074615
0
VERTEX
8
1
10
13.185080
20
4.529800
0
VERTEX
8
1
10
13.131811
20
4.502151
0
VERTEX
8
1
10
13.076944
20
4.472610
0
VERTEX
8
1
10
13.058928
20
4.472305
0
VERTEX
8
1
10
13.083853
20
4.505341
0
VERTEX
8
1
10
13.115248
20
4.542068
0
VERTEX
8
1
10
13.152548
20
4.581955
42
-0.067043
0
VERTEX
8
1
10
13.975412
20
5.198639
42
-0.081747
0
VERTEX
8
1
10
14.221972
20
5.289627
0
VERTEX
8
1
10
14.253717
20
5.294693
0
VERTEX
8
1
10
14.287111
20
5.302826
0
VERTEX
8
1
10
14.321840
20
5.313751
0
VERTEX
8
1
10
14.357599
20
5.327103
0
VERTEX
8
1
10
14.394083
20
5.342560
42
0.052444
0
VERTEX
8
1
10
14.825407
20
5.611588
42
-0.061766
0
VERTEX
8
1
10
14.345613
20
5.564713
42
0.188643
0
VERTEX
8
1
10
15.098982
20
6.185089
42
0.132222
0
VERTEX
8
1
10
15.198751
20
6.574249
0
VERTEX
8
1
10
15.193316
20
6.625809
0
VERTEX
8
1
10
15.169004
20
6.587891
0
VERTEX
8
1
10
15.138239
20
6.526550
42
-0.169446
0
VERTEX
8
1
10
14.739531
20
6.151398
42
0.044494
0
VERTEX
8
1
10
14.453905
20
6.000305
0
VERTEX
8
1
10
14.422823
20
5.975403
0
VERTEX
8
1
10
14.417891
20
5.986130
42
-0.018130
0
VERTEX
8
1
10
14.628405
20
6.580261
0
VERTEX
8
1
10
14.651999
20
6.633194
42
-0.105791
0
VERTEX
8
1
10
14.980909
20
7.100632
42
0.131443
0
VERTEX
8
1
10
15.269163
20
7.596512
42
0.190969
0
VERTEX
8
1
10
15.230345
20
7.954529
0
VERTEX
8
1
10
15.213381
20
7.974197
0
VERTEX
8
1
10
15.211611
20
7.939240
0
VERTEX
8
1
10
15.206343
20
7.902405
42
-0.097926
0
VERTEX
8
1
10
15.047773
20
7.555511
42
-0.077200
0
VERTEX
8
1
10
14.488604
20
6.971909
42
0.028778
0
VERTEX
8
1
10
14.839762
20
7.465012
42
0.079295
0
VERTEX
8
1
10
14.997698
20
7.836044
42
0.154210
0
VERTEX
8
1
10
14.977091
20
8.119537
42
-0.228795
0
VERTEX
8
1
10
15.011103
20
8.419022
42
0.080353
0
VERTEX
8
1
10
15.106359
20
8.632523
0
VERTEX
8
1
10
15.110964
20
8.662659
0
VERTEX
8
1
10
15.062304
20
8.642624
0
VERTEX
8
1
10
14.988127
20
8.587555
42
0.122536
0
VERTEX
8
1
10
14.591906
20
8.034683
42
0.068431
0
VERTEX
8
1
10
14.440500
20
7.457642
42
-0.000016
0
VERTEX
8
1
10
14.319155
20
7.798264
0
VERTEX
8
1
10
14.322004
20
7.826813
42
0.173477
0
VERTEX
8
1
10
14.684347
20
8.775742
0
VERTEX
8
1
10
14.683298
20
8.819229
0
VERTEX
8
1
10
14.678930
20
8.870102
0
VERTEX
8
1
10
14.645361
20
9.038452
0
VERTEX
8
1
10
14.598940
20
9.195480
42
0.113500
0
VERTEX
8
1
10
14.205370
20
9.825562
0
VERTEX
8
1
10
14.100634
20
9.923386
0
VERTEX
8
1
10
13.989317
20
10.012787
42
0.079013
0
VERTEX
8
1
10
13.233313
20
10.394608
42
0.047551
0
VERTEX
8
1
10
12.350565
20
10.591705
0
VERTEX
8
1
10
12.224791
20
10.600677
42
-0.077456
0
VERTEX
8
1
10
11.631269
20
10.731903
0
VERTEX
8
1
10
11.558607
20
10.764511
42
-0.148609
0
VERTEX
8
1
10
11.164347
20
11.111298
42
-0.064131
0
VERTEX
8
1
10
11.090582
20
11.283371
42
-0.196823
0
VERTEX
8
1
10
11.239527
20
11.873642
42
-0.111835
0
VERTEX
8
1
10
11.558645
20
12.132278
42
-0.410858
0
VERTEX
8
1
10
12.196001
20
11.812469
0
VERTEX
8
1
10
12.201303
20
11.789627
0
VERTEX
8
1
10
12.203852
20
11.768845
0
VERTEX
8
1
10
12.194544
20
11.755966
42
0.308832
0
VERTEX
8
1
10
11.951963
20
11.582153
42
0.129598
0
VERTEX
8
1
10
11.923025
20
11.412872
0
VERTEX
8
1
10
11.936430
20
11.388718
0
VERTEX
8
1
10
11.950819
20
11.366821
42
0.331721
0
VERTEX
8
1
10
12.209795
20
11.265900
42
0.121991
0
VERTEX
8
1
10
12.275408
20
11.306198
42
0.130503
0
VERTEX
8
1
10
12.439497
20
11.643082
42
0.180540
0
VERTEX
8
1
10
12.367777
20
11.950012
42
0.075701
0
VERTEX
8
1
10
12.132494
20
12.213089
42
0.226187
0
VERTEX
8
1
10
11.588797
20
12.313400
42
0.119165
0
VERTEX
8
1
10
11.219625
20
12.124466
42
0.136500
0
VERTEX
8
1
10
10.964247
20
11.664597
42
0.157526
0
VERTEX
8
1
10
11.031630
20
11.090103
42
0.037617
0
VERTEX
8
1
10
11.131807
20
10.899185
0
VERTEX
8
1
10
11.131933
20
10.881897
42
-0.198802
0
VERTEX
8
1
10
10.858629
20
11.007233
42
0.071933
0
VERTEX
8
1
10
10.818670
20
11.036987
0
VERTEX
8
1
10
10.819155
20
11.019501
42
0.104651
0
VERTEX
8
1
10
11.037455
20
10.628036
42
0.172150
0
VERTEX
8
1
10
11.537470
20
10.367249
42
0.077083
0
VERTEX
8
1
10
12.080538
20
10.376266
0
VERTEX
8
1
10
12.142778
20
10.385986
42
0.037396
0
VERTEX
8
1
10
11.580935
20
10.171448
42
0.000254
0
VERTEX
8
1
10
11.546148
20
10.154266
42
0.262507
0
VERTEX
8
1
10
7.604914
20
10.178467
0
VERTEX
8
1
10
7.555830
20
10.155624
42
0.040525
0
VERTEX
8
1
10
7.051561
20
10.356522
0
VERTEX
8
1
10
7.001310
20
10.373154
0
VERTEX
8
1
10
6.977541
20
10.383484
42
0.069599
0
VERTEX
8
1
10
7.516367
20
10.359909
0
VERTEX
8
1
10
7.585093
20
10.370377
42
0.200279
0
VERTEX
8
1
10
8.131449
20
10.707214
42
0.081197
0
VERTEX
8
1
10
8.291365
20
11.038849
42
0.069960
0
VERTEX
8
1
10
8.201067
20
10.967361
42
-0.173920
0
VERTEX
8
1
10
7.965361
20
10.881607
0
VERTEX
8
1
10
7.977747
20
10.907013
42
0.118240
0
VERTEX
8
1
10
8.157740
20
11.427139
42
0.163403
0
VERTEX
8
1
10
8.019121
20
11.954208
42
0.055200
0
VERTEX
8
1
10
7.878698
20
12.130127
42
0.183332
0
VERTEX
8
1
10
7.309443
20
12.333282
42
0.210571
0
VERTEX
8
1
10
6.859240
20
12.106293
42
0.108244
0
VERTEX
8
1
10
6.681959
20
11.833054
42
0.195850
0
VERTEX
8
1
10
6.710039
20
11.494965
42
0.075218
0
VERTEX
8
1
10
6.843275
20
11.293427
42
0.361559
0
VERTEX
8
1
10
7.110350
20
11.317764
42
0.101886
0
VERTEX
8
1
10
7.183561
20
11.418060
42
0.243697
0
VERTEX
8
1
10
7.050714
20
11.711914
42
0.156120
0
VERTEX
8
1
10
6.902456
20
11.756042
0
VERTEX
8
1
10
6.901297
20
11.774033
0
VERTEX
8
1
10
6.904558
20
11.795380
0
VERTEX
8
1
10
6.910582
20
11.818695
42
-0.389623
0
VERTEX
8
1
10
7.521509
20
12.141129
42
-0.177331
0
VERTEX
8
1
10
7.948061
20
11.736435
42
-0.143681
0
VERTEX
8
1
10
8.011976
20
11.275787
42
-0.168402
0
VERTEX
8
1
10
7.712202
20
10.863724
42
-0.092701
0
VERTEX
8
1
10
7.283102
20
10.667862
42
-0.047935
0
VERTEX
8
1
10
6.847490
20
10.598175
0
VERTEX
8
1
10
6.724707
20
10.587646
42
0.058450
0
VERTEX
8
1
10
5.705244
20
10.334061
42
0.069651
0
VERTEX
8
1
10
5.085890
20
9.990326
0
VERTEX
8
1
10
4.976198
20
9.898788
42
0.135073
0
VERTEX
8
1
10
4.492548
20
9.155701
0
VERTEX
8
1
10
4.449379
20
8.995758
0
VERTEX
8
1
10
4.423389
20
8.850510
0
VERTEX
8
1
10
4.420998
20
8.808044
42
0.182598
0
VERTEX
8
1
10
4.791983
20
7.816208
42
-0.006077
0
VERTEX
8
1
10
4.663149
20
7.458832
42
0.105983
0
VERTEX
8
1
10
4.390095
20
8.272858
42
0.110682
0
VERTEX
8
1
10
4.022421
20
8.655869
0
VERTEX
8
1
10
3.994764
20
8.654739
42
0.107550
0
VERTEX
8
1
10
4.084728
20
8.434937
42
-0.243563
0
VERTEX
8
1
10
4.124683
20
8.109863
42
0.156076
0
VERTEX
8
1
10
4.109869
20
7.822952
42
0.083912
0
VERTEX
8
1
10
4.306107
20
7.398438
42
0.021562
0
VERTEX
8
1
10
4.591261
20
7.004318
0
VERTEX
8
1
10
4.601458
20
6.983429
42
-0.077701
0
VERTEX
8
1
10
4.049065
20
7.567459
42
-0.100664
0
VERTEX
8
1
10
3.896761
20
7.911819
0
VERTEX
8
1
10
3.892365
20
7.948212
0
VERTEX
8
1
10
3.890089
20
7.978760
42
0.185256
0
VERTEX
8
1
10
3.822386
20
7.673386
42
0.132754
0
VERTEX
8
1
10
4.020498
20
7.221237
42
0.042313
0
VERTEX
8
1
10
4.177107
20
7.048111
0
VERTEX
8
1
10
4.216427
20
7.007492
42
-0.087363
0
VERTEX
8
1
10
4.504007
20
6.513763
42
-0.012058
0
VERTEX
8
1
10
4.690413
20
5.976257
0
VERTEX
8
1
10
4.674383
20
5.981781
0
VERTEX
8
1
10
4.642958
20
6.006058
42
0.038741
0
VERTEX
8
1
10
4.355841
20
6.156067
42
-0.170851
0
VERTEX
8
1
10
3.958834
20
6.541016
0
VERTEX
8
1
10
3.928436
20
6.603897
0
VERTEX
8
1
10
3.909611
20
6.613342
42
0.127111
0
VERTEX
8
1
10
3.959541
20
6.284607
0
VERTEX
8
1
10
3.984249
20
6.227844
42
0.190125
0
VERTEX
8
1
10
4.710691
20
5.582077
0
VERTEX
8
1
10
4.750177
20
5.564514
42
-0.055011
0
VERTEX
8
1
10
4.280626
20
5.609756
42
0.052548
0
VERTEX
8
1
10
4.719473
20
5.338684
42
0.075149
0
VERTEX
8
1
10
4.890108
20
5.288925
0
VERTEX
8
1
10
4.931753
20
5.280624
42
-0.067966
0
VERTEX
8
1
10
5.266703
20
5.120117
42
-0.056424
0
VERTEX
8
1
10
5.961580
20
4.572205
42
-0.039329
0
VERTEX
8
1
10
6.050734
20
4.465027
0
VERTEX
8
1
10
6.014624
20
4.479797
42
0.061385
0
VERTEX
8
1
10
5.538919
20
4.682114
42
0.146694
0
VERTEX
8
1
10
5.231245
20
4.682083
0
VERTEX
8
1
10
5.203402
20
4.670532
0
VERTEX
8
1
10
5.176748
20
4.656586
42
-0.050824
0
VERTEX
8
1
10
4.898745
20
4.507843
42
-0.153823
0
VERTEX
8
1
10
4.589663
20
4.505249
0
VERTEX
8
1
10
4.549927
20
4.516174
0
VERTEX
8
1
10
4.507826
20
4.529434
0
VERTEX
8
1
10
4.476238
20
4.531494
0
VERTEX
8
1
10
4.473352
20
4.509537
42
0.214258
0
VERTEX
8
1
10
4.538733
20
4.421432
0
VERTEX
8
1
10
4.571051
20
4.400314
42
0.127120
0
VERTEX
8
1
10
5.169542
20
4.263138
42
0.119255
0
VERTEX
8
1
10
5.375502
20
4.318512
42
-0.116390
0
VERTEX
8
1
10
5.741552
20
4.408157
42
-0.107873
0
VERTEX
8
1
10
6.045805
20
4.326385
42
-0.068798
0
VERTEX
8
1
10
6.431021
20
4.053314
42
0.088225
0
VERTEX
8
1
10
5.923189
20
4.066772
42
0.142898
0
VERTEX
8
1
10
5.665567
20
3.952820
42
0.268588
0
VERTEX
8
1
10
5.610189
20
3.788437
42
0.198659
0
VERTEX
8
1
10
5.868570
20
3.392578
0
VERTEX
8
1
10
5.897245
20
3.377045
42
0.281758
0
VERTEX
8
1
10
6.061392
20
3.380981
42
0.198913
0
VERTEX
8
1
10
6.145075
20
3.607666
42
0.299119
0
VERTEX
8
1
10
6.042578
20
3.722168
42
0.081094
0
VERTEX
8
1
10
5.925596
20
3.739853
0
VERTEX
8
1
10
5.902769
20
3.747437
42
-0.260430
0
VERTEX
8
1
10
5.958960
20
3.868149
42
-0.187546
0
VERTEX
8
1
10
6.162588
20
3.924576
42
-0.107431
0
VERTEX
8
1
10
6.444288
20
3.840591
42
-0.070109
0
VERTEX
8
1
10
6.828554
20
3.562851
42
-0.135953
0
VERTEX
8
1
10
6.992708
20
3.276535
42
-0.175934
0
VERTEX
8
1
10
6.944693
20
2.973190
42
0.368233
0
VERTEX
8
1
10
6.882601
20
3.027039
0
VERTEX
8
1
10
6.869173
20
3.028107
0
VERTEX
8
1
10
6.854822
20
3.027878
42
0.212539
0
VERTEX
8
1
10
6.615095
20
2.883896
42
0.161300
0
VERTEX
8
1
10
6.584932
20
2.726318
0
VERTEX
8
1
10
6.582788
20
2.718811
42
-0.144410
0
VERTEX
8
1
10
6.325697
20
2.694275
42
0.044423
0
VERTEX
8
1
10
6.108889
20
2.847977
42
-0.277519
0
VERTEX
8
1
10
6.110605
20
2.987839
42
-0.278451
0
VERTEX
8
1
10
6.202971
20
3.014847
42
0.151835
0
VERTEX
8
1
10
6.631048
20
3.054581
42
0.192056
0
VERTEX
8
1
10
6.702749
20
3.118317
0
VERTEX
8
1
10
6.704615
20
3.129684
0
VERTEX
8
1
10
6.701200
20
3.130569
0
VERTEX
8
1
10
6.695051
20
3.126907
42
-0.207563
0
VERTEX
8
1
10
6.465204
20
3.133301
42
-0.103922
0
VERTEX
8
1
10
6.283361
20
3.257019
42
0.324486
0
VERTEX
8
1
10
6.038866
20
3.304993
42
0.100765
0
VERTEX
8
1
10
5.801702
20
3.132141
0
VERTEX
8
1
10
5.788897
20
3.119370
0
VERTEX
8
1
10
5.778418
20
3.115402
0
VERTEX
8
1
10
5.766542
20
3.126465
0
VERTEX
8
1
10
5.750811
20
3.138412
42
0.118191
0
VERTEX
8
1
10
5.315748
20
3.279984
42
0.123650
0
VERTEX
8
1
10
5.171000
20
3.255081
0
VERTEX
8
1
10
5.156225
20
3.243423
42
-0.143802
0
VERTEX
8
1
10
5.522406
20
3.119995
42
-0.032944
0
VERTEX
8
1
10
5.712809
20
2.976776
0
VERTEX
8
1
10
5.545759
20
2.999893
0
VERTEX
8
1
10
5.360868
20
3.012146
42
0.049177
0
VERTEX
8
1
10
4.566889
20
2.948318
0
VERTEX
8
1
10
4.361338
20
2.909744
0
VERTEX
8
1
10
4.155579
20
2.864365
42
0.031866
0
VERTEX
8
1
10
2.659403
20
2.389282
42
-0.008521
0
VERTEX
8
1
10
1.987234
20
2.136093
42
-0.169383
0
VERTEX
8
1
10
1.502399
20
2.165436
42
-0.179217
0
VERTEX
8
1
10
1.362356
20
2.292343
42
-0.314164
0
VERTEX
8
1
10
1.394346
20
2.442383
0
VERTEX
8
1
10
1.428823
20
2.469055
42
0.233570
0
VERTEX
8
1
10
1.606228
20
2.804199
42
0.143552
0
VERTEX
8
1
10
1.523211
20
3.174072
0
VERTEX
8
1
10
1.511486
20
3.162811
42
-0.225314
0
VERTEX
8
1
10
1.244576
20
2.875549
42
0.057192
0
VERTEX
8
1
10
1.029707
20
2.766953
42
0.229318
0
VERTEX
8
1
10
0.904541
20
2.516861
42
0.106786
0
VERTEX
8
1
10
0.959349
20
2.364273
42
-0.294958
0
VERTEX
8
1
10
0.958887
20
2.268005
42
0.303324
0
VERTEX
8
1
10
0.976889
20
1.953018
42
0.067756
0
VERTEX
8
1
10
1.014538
20
1.920212
42
-0.208384
0
VERTEX
8
1
10
1.046532
20
2.068909
42
-0.230660
0
VERTEX
8
1
10
1.154118
20
2.109558
42
-0.119299
0
VERTEX
8
1
10
1.376997
20
2.033279
42
0.125285
0
VERTEX
8
1
10
1.787443
20
1.952362
42
0.076157
0
VERTEX
8
1
10
2.349072
20
2.074356
42
0.014107
0
VERTEX
8
1
10
2.753853
20
2.237381
0
VERTEX
8
1
10
2.761652
20
2.233948
42
0.158995
0
VERTEX
8
1
10
2.505081
20
1.815674
42
0.101597
0
VERTEX
8
1
10
2.473433
20
1.360886
42
0.328679
0
VERTEX
8
1
10
2.852116
20
1.048080
42
0.262946
0
VERTEX
8
1
10
2.944790
20
1.087402
42
-0.211346
0
VERTEX
8
1
10
2.784853
20
1.127441
42
-0.212774
0
VERTEX
8
1
10
2.758226
20
1.192734
42
0.290411
0
VERTEX
8
1
10
2.684660
20
1.324799
42
-0.137896
0
VERTEX
8
1
10
2.640697
20
1.378937
0
VERTEX
8
1
10
2.649412
20
1.382156
0
VERTEX
8
1
10
2.664549
20
1.383194
0
VERTEX
8
1
10
2.679737
20
1.386230
0
VERTEX
8
1
10
2.694889
20
1.391144
42
0.310868
0
VERTEX
8
1
10
2.851807
20
1.673080
0
VERTEX
8
1
10
2.847544
20
1.676651
42
-0.165687
0
VERTEX
8
1
10
2.734922
20
1.546722
42
-0.460461
0
VERTEX
8
1
10
2.658072
20
1.576767
0
VERTEX
8
1
10
2.651297
20
1.592361
0
VERTEX
8
1
10
2.647064
20
1.630402
0
VERTEX
8
1
10
2.650909
20
1.710510
0
VERTEX
8
1
10
2.660553
20
1.784729
42
-0.245964
0
VERTEX
8
1
10
3.027424
20
2.281876
42
-0.064542
0
VERTEX
8
1
10
3.377775
20
2.402191
0
VERTEX
8
1
10
3.404684
20
2.403549
42
0.227493
0
VERTEX
8
1
10
3.219328
20
1.745132
42
0.104428
0
VERTEX
8
1
10
3.427608
20
1.232758
42
0.028407
0
VERTEX
8
1
10
3.564657
20
1.045074
42
0.093837
0
VERTEX
8
1
10
4.055338
20
0.791351
0
VERTEX
8
1
10
4.120726
20
0.776627
42
0.160091
0
VERTEX
8
1
10
4.449045
20
0.809219
42
0.158782
0
VERTEX
8
1
10
4.559443
20
0.906647
0
VERTEX
8
1
10
4.563322
20
0.918396
0
VERTEX
8
1
10
4.563185
20
0.927109
0
VERTEX
8
1
10
4.548525
20
0.926178
42
-0.133189
0
VERTEX
8
1
10
4.355356
20
0.925720
42
-0.189445
0
VERTEX
8
1
10
4.230453
20
1.044998
42
0.203872
0
VERTEX
8
1
10
4.057224
20
1.178696
42
-0.066332
0
VERTEX
8
1
10
3.918278
20
1.230820
42
-0.269646
0
VERTEX
8
1
10
3.898281
20
1.276627
0
VERTEX
8
1
10
3.909346
20
1.290756
42
0.305276
0
VERTEX
8
1
10
4.056543
20
1.522049
42
0.130097
0
VERTEX
8
1
10
4.017681
20
1.697800
0
VERTEX
8
1
10
4.010546
20
1.704926
42
-0.393952
0
VERTEX
8
1
10
3.739637
20
1.480698
42
-0.097225
0
VERTEX
8
1
10
3.601576
20
1.511307
42
-0.154310
0
VERTEX
8
1
10
3.413122
20
1.774429
42
-0.129593
0
VERTEX
8
1
10
3.419430
20
2.062302
0
VERTEX
8
1
10
3.429314
20
2.101074
0
VERTEX
8
1
10
3.441061
20
2.141495
42
0.260985
0
VERTEX
8
1
10
3.568377
20
1.854385
42
0.071482
0
VERTEX
8
1
10
3.604300
20
1.832718
42
-0.166399
0
VERTEX
8
1
10
3.670242
20
2.305954
0
VERTEX
8
1
10
3.698990
20
2.350418
0
VERTEX
8
1
10
3.747023
20
2.404465
0
VERTEX
8
1
10
3.799620
20
2.454269
42
-0.109508
0
VERTEX
8
1
10
4.318409
20
2.716614
42
-0.084348
0
VERTEX
8
1
10
4.896379
20
2.783463
0
VERTEX
8
1
10
4.930586
20
2.779022
0
VERTEX
8
1
10
4.946138
20
2.773911
0
VERTEX
8
1
10
4.914778
20
2.770248
42
0.112259
0
VERTEX
8
1
10
4.196873
20
2.471329
42
-0.034928
0
VERTEX
8
1
10
3.854666
20
2.239822
42
0.114591
0
VERTEX
8
1
10
4.208630
20
2.127365
0
VERTEX
8
1
10
4.236986
20
2.127045
0
VERTEX
8
1
10
4.265509
20
2.128372
0
VERTEX
8
1
10
4.289265
20
2.145508
0
VERTEX
8
1
10
4.314741
20
2.171570
0
VERTEX
8
1
10
4.345009
20
2.198746
0
VERTEX
8
1
10
4.379583
20
2.226776
42
-0.078261
0
VERTEX
8
1
10
5.086744
20
2.590637
42
-0.049282
0
VERTEX
8
1
10
5.187998
20
2.610306
0
VERTEX
8
1
10
5.167566
20
2.599854
0
VERTEX
8
1
10
5.097311
20
2.575378
42
0.157173
0
VERTEX
8
1
10
4.547848
20
2.158676
42
-0.084274
0
VERTEX
8
1
10
4.472382
20
2.081512
42
0.049931
0
VERTEX
8
1
10
4.862139
20
2.042282
42
0.112058
0
VERTEX
8
1
10
4.971388
20
2.066727
0
VERTEX
8
1
10
4.982538
20
2.078232
0
VERTEX
8
1
10
4.992891
20
2.128479
42
-0.301072
0
VERTEX
8
1
10
5.508764
20
2.635468
0
VERTEX
8
1
10
5.487032
20
2.623596
0
VERTEX
8
1
10
5.460459
20
2.606735
42
0.184481
0
VERTEX
8
1
10
5.231428
20
2.224701
42
0.190772
0
VERTEX
8
1
10
5.248991
20
2.128220
0
VERTEX
8
1
10
5.260969
20
2.118134
0
VERTEX
8
1
10
5.289492
20
2.169800
42
-0.235506
0
VERTEX
8
1
10
5.655664
20
2.456314
0
VERTEX
8
1
10
5.719561
20
2.466995
0
VERTEX
8
1
10
5.784582
20
2.471710
42
-0.158106
0
VERTEX
8
1
10
6.437338
20
2.262115
0
VERTEX
8
1
10
6.433451
20
2.260101
0
VERTEX
8
1
10
6.399263
20
2.276306
0
VERTEX
8
1
10
6.363287
20
2.290558
0
VERTEX
8
1
10
6.325724
20
2.302856
42
0.183898
0
VERTEX
8
1
10
5.589247
20
2.224472
42
0.311169
0
VERTEX
8
1
10
5.420298
20
1.827286
42
0.172711
0
VERTEX
8
1
10
5.557768
20
1.566086
42
0.344514
0
VERTEX
8
1
10
5.920626
20
1.570389
42
0.206970
0
VERTEX
8
1
10
6.042200
20
1.764648
0
VERTEX
8
1
10
6.042383
20
1.787689
42
-0.191368
0
VERTEX
8
1
10
5.922369
20
1.651077
42
-0.302059
0
VERTEX
8
1
10
5.773794
20
1.686493
42
-0.370784
0
VERTEX
8
1
10
5.750494
20
1.922134
42
-0.261889
0
VERTEX
8
1
10
6.069857
20
2.094955
42
-0.092799
0
VERTEX
8
1
10
6.340868
20
2.035828
0
VERTEX
8
1
10
6.413153
20
2.004807
42
-0.059961
0
VERTEX
8
1
10
7.009996
20
1.607819
42
-0.015201
0
VERTEX
8
1
10
7.475187
20
1.197464
42
0.219907
0
VERTEX
8
1
10
8.064974
20
1.041046
42
0.078967
0
VERTEX
8
1
10
8.548662
20
1.210510
0
VERTEX
8
1
10
8.550577
20
1.202759
42
-0.108475
0
VERTEX
8
1
10
8.165037
20
0.962479
42
-0.187017
0
VERTEX
8
1
10
7.575392
20
0.997589
42
-0.070189
0
VERTEX
8
1
10
7.251837
20
1.197983
42
0.066937
0
VERTEX
8
1
10
6.872408
20
1.581894
42
0.118583
0
VERTEX
8
1
10
6.536917
20
1.738480
42
0.163581
0
VERTEX
8
1
10
6.358583
20
1.717239
0
VERTEX
8
1
10
6.386854
20
1.710281
42
-0.240794
0
VERTEX
8
1
10
6.637262
20
1.514297
42
-0.032788
0
VERTEX
8
1
10
6.773539
20
1.158310
0
VERTEX
8
1
10
6.787481
20
1.117783
0
VERTEX
8
1
10
6.802462
20
1.080597
0
VERTEX
8
1
10
6.818380
20
1.046585
42
0.223114
0
VERTEX
8
1
10
7.118418
20
0.799194
0
VERTEX
8
1
10
7.134871
20
0.793777
0
VERTEX
8
1
10
7.150446
20
0.788544
0
VERTEX
8
1
10
7.150026
20
0.773880
42
0.353388
0
VERTEX
8
1
10
7.194590
20
0.365005
42
0.078323
0
VERTEX
8
1
10
7.241442
20
0.334366
0
VERTEX
8
1
10
7.252592
20
0.341095
42
-0.303924
0
VERTEX
8
1
10
7.378717
20
0.545837
42
-0.083073
0
VERTEX
8
1
10
7.685217
20
0.629257
42
0.003109
0
VERTEX
8
1
10
8.030779
20
0.677139
42
0.185770
0
VERTEX
8
1
10
8.753061
20
1.118546
42
0.083338
0
VERTEX
8
1
10
8.998507
20
1.563614
42
0.234014
0
VERTEX
8
1
10
8.837790
20
2.742142
0
VERTEX
8
1
10
8.856928
20
2.744110
42
0.086996
0
VERTEX
8
1
10
10.251238
20
2.744720
0
VERTEX
8
1
10
10.265169
20
2.739517
42
0.300401
0
VERTEX
8
1
10
10.251207
20
1.261398
42
0.157105
0
VERTEX
8
1
10
10.832338
20
0.748260
42
0.072765
0
VERTEX
8
1
10
11.195021
20
0.659210
42
-0.025325
0
VERTEX
8
1
10
11.591990
20
0.595993
42
-0.115615
0
VERTEX
8
1
10
11.781710
20
0.507339
42
-0.234405
0
VERTEX
8
1
10
11.852076
20
0.337067
0
VERTEX
8
1
10
11.865068
20
0.335144
0
VERTEX
8
1
10
11.881117
20
0.343491
0
VERTEX
8
1
10
11.896719
20
0.353973
42
0.374942
0
VERTEX
8
1
10
11.952948
20
0.776596
0
VERTEX
8
1
10
11.955938
20
0.789093
0
VERTEX
8
1
10
11.971617
20
0.794357
0
VERTEX
8
1
10
11.988161
20
0.799805
42
0.243606
0
VERTEX
8
1
10
12.303953
20
1.084457
42
-0.008044
0
VERTEX
8
1
10
12.442133
20
1.461929
0
VERTEX
8
1
10
12.455191
20
1.490158
42
-0.226480
0
VERTEX
8
1
10
12.688002
20
1.702789
0
VERTEX
8
1
10
12.721678
20
1.711075
0
VERTEX
8
1
10
12.744371
20
1.718277
42
0.171312
0
VERTEX
8
1
10
12.564154
20
1.737885
42
0.117844
0
VERTEX
8
1
10
12.227003
20
1.577942
42
0.068003
0
VERTEX
8
1
10
11.848940
20
1.193726
42
-0.098472
0
VERTEX
8
1
10
11.408407
20
0.954956
42
-0.206920
0
VERTEX
8
1
10
10.780165
20
1.033539
42
-0.063788
0
VERTEX
8
1
10
10.545591
20
1.210907
0
VERTEX
8
1
10
10.559027
20
1.209106
42
0.065159
0
VERTEX
8
1
10
10.990202
20
1.049484
0
VERTEX
8
1
10
11.045874
20
1.040176
42
0.248142
0
VERTEX
8
1
10
11.694948
20
1.256516
42
-0.037278
0
VERTEX
8
1
10
12.401476
20
1.837692
42
-0.072006
0
VERTEX
8
1
10
12.842218
20
2.063217
42
-0.147819
0
VERTEX
8
1
10
13.161493
20
2.076050
42
-0.225458
0
VERTEX
8
1
10
13.378801
20
1.866837
42
-0.497899
0
VERTEX
8
1
10
13.223291
20
1.642105
0
VERTEX
8
1
10
13.208857
20
1.643616
42
-0.234006
0
VERTEX
8
1
10
13.077539
20
1.756149
0
VERTEX
8
1
10
13.069078
20
1.773193
0
VERTEX
8
1
10
13.062235
20
1.785202
0
VERTEX
8
1
10
13.062757
20
1.762131
0
VERTEX
8
1
10
13.066381
20
1.738785
42
0.389492
0
VERTEX
8
1
10
13.438990
20
1.513977
42
0.230017
0
VERTEX
8
1
10
13.632471
20
1.674286
42
0.239719
0
VERTEX
8
1
10
13.650156
20
2.077820
42
0.195637
0
VERTEX
8
1
10
13.440954
20
2.260437
42
0.162385
0
VERTEX
8
1
10
12.774885
20
2.301620
42
0.046985
0
VERTEX
8
1
10
12.667711
20
2.258224
0
VERTEX
8
1
10
12.670614
20
2.264725
42
-0.158596
0
VERTEX
8
1
10
13.327250
20
2.471481
0
VERTEX
8
1
10
13.392176
20
2.466125
42
-0.226413
0
VERTEX
8
1
10
13.780321
20
2.230392
0
VERTEX
8
1
10
13.819197
20
2.161896
0
VERTEX
8
1
10
13.845228
20
2.119034
0
VERTEX
8
1
10
13.856882
20
2.129547
0
VERTEX
8
1
10
13.865572
20
2.143509
42
0.163438
0
VERTEX
8
1
10
13.861807
20
2.281601
42
0.160231
0
VERTEX
8
1
10
13.641459
20
2.608688
0
VERTEX
8
1
10
13.614794
20
2.625244
0
VERTEX
8
1
10
13.598726
20
2.634888
42
-0.301674
0
VERTEX
8
1
10
14.113146
20
2.122986
0
VERTEX
8
1
10
14.123259
20
2.073700
42
0.149567
0
VERTEX
8
1
10
14.268942
20
2.041412
42
0.043704
0
VERTEX
8
1
10
14.634977
20
2.081985
42
-0.107859
0
VERTEX
8
1
10
14.554979
20
2.161118
42
0.158132
0
VERTEX
8
1
10
13.999338
20
2.578384
0
VERTEX
8
1
10
13.928392
20
2.602676
0
VERTEX
8
1
10
13.920046
20
2.610092
0
VERTEX
8
1
10
13.950125
20
2.606430
0
VERTEX
8
1
10
13.984541
20
2.599411
0
VERTEX
8
1
10
14.022799
20
2.589264
42
-0.078498
0
VERTEX
8
1
10
14.729628
20
2.223282
42
-0.041901
0
VERTEX
8
1
10
14.818270
20
2.142380
0
VERTEX
8
1
10
14.842768
20
2.128113
0
VERTEX
8
1
10
14.871283
20
2.126984
42
0.132660
0
VERTEX
8
1
10
15.249086
20
2.241425
42
-0.039015
0
VERTEX
8
1
10
14.877096
20
2.493774
42
0.106544
0
VERTEX
8
1
10
14.185678
20
2.770813
0
VERTEX
8
1
10
14.154474
20
2.774292
0
VERTEX
8
1
10
14.178408
20
2.779724
0
VERTEX
8
1
10
14.213457
20
2.783951
42
-0.134613
0
VERTEX
8
1
10
15.134279
20
2.574615
42
-0.094401
0
VERTEX
8
1
10
15.412012
20
2.342606
0
VERTEX
8
1
10
15.436865
20
2.301010
42
-0.163624
0
VERTEX
8
1
10
15.500402
20
1.832504
42
0.272479
0
VERTEX
8
1
10
15.665545
20
2.118225
0
VERTEX
8
1
10
15.663294
20
2.137787
0
VERTEX
8
1
10
15.665518
20
2.135483
42
-0.106804
0
VERTEX
8
1
10
15.702349
20
1.826096
42
-0.177116
0
VERTEX
8
1
10
15.549620
20
1.552612
0
VERTEX
8
1
10
15.525274
20
1.530121
0
VERTEX
8
1
10
15.498831
20
1.509506
42
-0.275952
0
VERTEX
8
1
10
15.185789
20
1.539566
42
-0.202512
0
VERTEX
8
1
10
15.093840
20
1.708359
42
0.254956
0
VERTEX
8
1
10
15.085138
20
1.385941
42
0.168204
0
VERTEX
8
1
10
15.199598
20
1.289001
0
VERTEX
8
1
10
15.206614
20
1.274277
42
-0.345442
0
VERTEX
8
1
10
15.158575
20
1.214890
42
0.013497
0
VERTEX
8
1
10
15.001013
20
1.160309
42
0.192154
0
VERTEX
8
1
10
14.860159
20
1.019623
42
-0.307668
0
VERTEX
8
1
10
14.641554
20
0.914093
42
-0.029507
0
VERTEX
8
1
10
14.553114
20
0.926758
0
VERTEX
8
1
10
14.541269
20
0.925903
0
VERTEX
8
1
10
14.541788
20
0.916641
42
0.174547
0
VERTEX
8
1
10
14.631193
20
0.822617
42
0.142833
0
VERTEX
8
1
10
14.876394
20
0.765137
42
0.099898
0
VERTEX
8
1
10
15.207621
20
0.847534
42
0.066139
0
VERTEX
8
1
10
15.548540
20
1.055466
42
0.100358
0
VERTEX
8
1
10
15.860163
20
1.628067
0
VERTEX
8
1
10
15.875742
20
1.692169
42
0.223532
0
VERTEX
8
1
10
15.736300
20
2.358307
0
VERTEX
8
1
10
15.697042
20
2.409042
42
-0.083273
0
VERTEX
8
1
10
16.130369
20
2.251526
42
-0.228934
0
VERTEX
8
1
10
16.446295
20
1.772095
0
VERTEX
8
1
10
16.454954
20
1.696854
0
VERTEX
8
1
10
16.457731
20
1.615662
42
-0.357651
0
VERTEX
8
1
10
16.400137
20
1.540634
0
VERTEX
8
1
10
16.389624
20
1.541016
0
VERTEX
8
1
10
16.378832
20
1.543381
42
-0.191009
0
VERTEX
8
1
10
16.256231
20
1.678986
0
VERTEX
8
1
10
16.252470
20
1.669571
42
0.290752
0
VERTEX
8
1
10
16.397577
20
1.396484
42
0.120060
0
VERTEX
8
1
10
16.458105
20
1.382187
0
VERTEX
8
1
10
16.463179
20
1.376907
42
-0.137007
0
VERTEX
8
1
10
16.390127
20
1.301544
42
0.230323
0
VERTEX
8
1
10
16.346392
20
1.189163
0
VERTEX
8
1
10
16.345350
20
1.171921
42
-0.304414
0
VERTEX
8
1
10
16.233652
20
1.088257
42
-0.049358
0
VERTEX
8
1
10
16.160475
20
1.085800
42
0.253043
0
VERTEX
8
1
10
16.257021
20
1.048050
42
0.349735
0
VERTEX
8
1
10
16.637075
20
1.394669
42
0.135460
0
VERTEX
8
1
10
16.526445
20
2.006012
42
0.109736
0
VERTEX
8
1
10
16.334856
20
2.240417
0
VERTEX
8
1
10
16.360369
20
2.233475
42
0.035009
0
VERTEX
8
1
10
16.974802
20
2.006012
42
0.091295
0
VERTEX
8
1
10
17.472864
20
1.958740
42
0.104714
0
VERTEX
8
1
10
17.791574
20
2.066086
42
-0.134914
0
VERTEX
8
1
10
17.979544
20
2.108200
42
-0.389141
0
VERTEX
8
1
10
18.092794
20
1.977890
42
-0.072216
0
VERTEX
8
1
10
18.089205
20
1.924774
0
VERTEX
8
1
10
18.093088
20
1.922119
42
0.295153
0
VERTEX
8
1
10
18.178495
20
2.177734
42
0.088734
0
VERTEX
8
1
10
18.134336
20
2.288681
0
VERTEX
8
1
10
18.131262
20
2.301392
0
VERTEX
8
1
10
18.130686
20
2.314133
42
-0.081479
0
VERTEX
8
1
10
18.176451
20
2.427582
42
0.245248
0
VERTEX
8
1
10
18.171366
20
2.645218
0
VERTEX
8
1
10
18.155550
20
2.674484
0
SEQEND
0
POLYLINE
8
1
66
1
70
1
0
VERTEX
8
1
10
13.143042
20
4.720108
42
0.008267
0
VERTEX
8
1
10
12.960512
20
4.589188
42
0.050741
0
VERTEX
8
1
10
13.311823
20
5.314590
42
-0.227319
0
VERTEX
8
1
10
13.437380
20
5.183014
42
-0.155791
0
VERTEX
8
1
10
13.422018
20
5.057022
42
-0.080903
0
VERTEX
8
1
10
13.308794
20
4.884552
42
-0.034984
0
SEQEND
0
POLYLINE
8
1
66
1
70
1
0
VERTEX
8
1
10
13.650919
20
5.401474
42
0.182359
0
VERTEX
8
1
10
13.510489
20
5.477203
42
0.050392
0
VERTEX
8
1
10
13.380789
20
5.491760
0
VERTEX
8
1
10
13.374018
20
5.499161
42
0.008642
0
VERTEX
8
1
10
13.412298
20
5.631851
0
VERTEX
8
1
10
13.431540
20
5.640335
42
-0.179895
0
VERTEX
8
1
10
13.624590
20
5.584457
42
-0.239695
0
VERTEX
8
1
10
13.684759
20
5.463364
42
-0.210577
0
SEQEND
0
POLYLINE
8
1
66
1
70
1
0
VERTEX
8
1
10
14.218195
20
8.081680
42
1.372501
0
VERTEX
8
1
10
14.215517
20
8.081421
42
-0.021337
0
VERTEX
8
1
10
14.152315
20
7.956024
42
0.130327
0
VERTEX
8
1
10
14.104105
20
8.267883
42
0.082276
0
VERTEX
8
1
10
13.798777
20
8.735840
0
VERTEX
8
1
10
13.778086
20
8.752960
42
0.525166
0
VERTEX
8
1
10
13.722063
20
8.740265
0
VERTEX
8
1
10
13.713514
20
8.721497
42
0.053967
0
VERTEX
8
1
10
13.685251
20
8.493301
42
-0.104596
0
VERTEX
8
1
10
13.672274
20
8.424637
42
0.096702
0
VERTEX
8
1
10
13.470789
20
8.334839
42
0.295808
0
VERTEX
8
1
10
13.370565
20
8.066574
42
0.167684
0
VERTEX
8
1
10
13.533960
20
7.784134
0
VERTEX
8
1
10
13.552988
20
7.772903
0
VERTEX
8
1
10
13.551218
20
7.781250
42
-0.192733
0
VERTEX
8
1
10
13.504244
20
8.084900
0
VERTEX
8
1
10
13.519629
20
8.114883
42
-0.265857
0
VERTEX
8
1
10
13.749861
20
8.221466
0
VERTEX
8
1
10
13.784510
20
8.218582
42
-0.314025
0
VERTEX
8
1
10
14.029272
20
8.012131
42
-0.278231
0
VERTEX
8
1
10
13.915308
20
7.549759
42
-0.010533
0
VERTEX
8
1
10
13.884756
20
7.519699
42
0.067448
0
VERTEX
8
1
10
14.126791
20
7.648712
42
0.035054
0
VERTEX
8
1
10
14.210562
20
7.211990
42
-0.079138
0
VERTEX
8
1
10
14.266275
20
6.647049
42
-0.058113
0
VERTEX
8
1
10
14.208620
20
6.215286
42
-0.109640
0
VERTEX
8
1
10
14.159040
20
6.111282
42
-0.578734
0
VERTEX
8
1
10
14.105494
20
6.114304
42
0.245548
0
VERTEX
8
1
10
14.002920
20
6.179474
42
0.228536
0
VERTEX
8
1
10
13.705011
20
6.079559
0
VERTEX
8
1
10
13.692820
20
6.061172
0
VERTEX
8
1
10
13.719206
20
6.060379
0
VERTEX
8
1
10
13.745192
20
6.055206
42
-0.265145
0
VERTEX
8
1
10
13.941092
20
5.825897
42
-0.294265
0
VERTEX
8
1
10
13.916777
20
5.767227
0
VERTEX
8
1
10
13.884901
20
5.789261
0
VERTEX
8
1
10
13.853907
20
5.807312
42
0.288392
0
VERTEX
8
1
10
13.555830
20
5.794235
42
0.049017
0
VERTEX
8
1
10
13.434660
20
5.701370
0
VERTEX
8
1
10
13.439692
20
5.737701
42
0.178010
0
VERTEX
8
1
10
13.122423
20
8.489105
0
VERTEX
8
1
10
13.108290
20
8.547867
42
0.235293
0
VERTEX
8
1
10
13.547636
20
8.748901
42
0.261421
0
VERTEX
8
1
10
13.588247
20
9.029221
42
0.329583
0
VERTEX
8
1
10
13.170427
20
9.318817
42
0.335557
0
VERTEX
8
1
10
12.921755
20
9.103333
42
0.118107
0
VERTEX
8
1
10
12.918943
20
8.901566
42
-0.099765
0
VERTEX
8
1
10
12.878599
20
8.907425
42
0.012320
0
VERTEX
8
1
10
12.732687
20
9.109665
0
VERTEX
8
1
10
12.731810
20
9.143036
0
VERTEX
8
1
10
12.755167
20
9.226166
42
-0.236982
0
VERTEX
8
1
10
13.194914
20
9.658340
42
-0.083315
0
VERTEX
8
1
10
13.376505
20
9.697845
42
0.083370
0
VERTEX
8
1
10
13.320818
20
9.521240
42
0.099481
0
VERTEX
8
1
10
13.325983
20
9.483688
42
-0.162611
0
VERTEX
8
1
10
13.494116
20
9.592804
42
-0.088354
0
VERTEX
8
1
10
13.800615
20
9.620605
42
0.070434
0
VERTEX
8
1
10
13.672064
20
9.465775
42
0.253047
0
VERTEX
8
1
10
13.667841
20
9.419357
0
VERTEX
8
1
10
13.675768
20
9.419235
42
-0.244102
0
VERTEX
8
1
10
13.964941
20
9.478653
42
-0.146796
0
VERTEX
8
1
10
14.034662
20
9.429169
42
-0.094677
0
VERTEX
8
1
10
14.302641
20
8.967270
42
-0.173300
0
VERTEX
8
1
10
14.282934
20
8.231689
42
-0.026881
0
SEQEND
0
POLYLINE
8
1
66
1
70
1
0
VERTEX
8
1
10
12.849798
20
10.379288
0
VERTEX
8
1
10
12.790083
20
10.369278
0
VERTEX
8
1
10
12.731436
20
10.355972
0
VERTEX
8
1
10
12.673960
20
10.339630
42
0.093373
0
VERTEX
8
1
10
12.083437
20
10.003006
42
0.004820
0
VERTEX
8
1
10
11.949907
20
9.891388
42
0.035771
0
VERTEX
8
1
10
12.350973
20
9.946365
42
0.105915
0
VERTEX
8
1
10
12.411169
20
9.975143
42
-0.061455
0
VERTEX
8
1
10
12.940081
20
10.260025
42
-0.105972
0
VERTEX
8
1
10
13.107431
20
10.291626
0
VERTEX
8
1
10
13.125463
20
10.287491
0
VERTEX
8
1
10
13.114420
20
10.281113
0
VERTEX
8
1
10
13.077154
20
10.272842
0
VERTEX
8
1
10
13.040339
20
10.262146
0
VERTEX
8
1
10
13.004103
20
10.249344
42
0.099932
0
VERTEX
8
1
10
12.600927
20
9.971329
42
-0.046385
0
VERTEX
8
1
10
13.130243
20
10.160889
0
VERTEX
8
1
10
13.166422
20
10.165634
0
VERTEX
8
1
10
13.202711
20
10.168320
42
-0.128796
0
VERTEX
8
1
10
13.711679
20
10.038696
42
-0.074496
0
VERTEX
8
1
10
13.935049
20
9.885223
42
-0.124261
0
VERTEX
8
1
10
14.429590
20
9.179504
42
-0.116391
0
VERTEX
8
1
10
14.513323
20
8.555405
42
0.172760
0
VERTEX
8
1
10
14.071501
20
9.545059
42
0.110649
0
VERTEX
8
1
10
13.662954
20
9.791092
42
0.184219
0
VERTEX
8
1
10
13.080427
20
9.750473
42
0.126469
0
VERTEX
8
1
10
12.688871
20
9.446274
42
0.070017
0
VERTEX
8
1
10
12.603029
20
9.278183
0
VERTEX
8
1
10
12.590891
20
9.284882
42
0.062589
0
VERTEX
8
1
10
11.848341
20
9.959305
0
VERTEX
8
1
10
11.823179
20
9.988174
0
VERTEX
8
1
10
11.871264
20
10.023651
42
-0.101694
0
VERTEX
8
1
10
12.748285
20
10.377457
42
-0.086996
0
SEQEND
0
POLYLINE
8
1
66
1
70
1
0
VERTEX
8
1
10
5.262751
20
9.963562
42
-0.103640
0
VERTEX
8
1
10
5.757261
20
10.160858
42
-0.127355
0
VERTEX
8
1
10
6.086584
20
10.130554
42
-0.034726
0
VERTEX
8
1
10
6.505720
20
9.970795
42
0.097460
0
VERTEX
8
1
10
6.100645
20
10.249344
42
0.044498
0
VERTEX
8
1
10
5.990324
20
10.281113
0
VERTEX
8
1
10
5.979280
20
10.287476
42
-0.141493
0
VERTEX
8
1
10
6.131037
20
10.271164
42
-0.068939
0
VERTEX
8
1
10
6.693579
20
9.975128
0
VERTEX
8
1
10
6.719484
20
9.957825
0
VERTEX
8
1
10
6.735376
20
9.951981
0
VERTEX
8
1
10
6.753782
20
9.946365
42
0.040628
0
VERTEX
8
1
10
7.154196
20
9.892899
42
0.048888
0
VERTEX
8
1
10
6.696718
20
10.224579
42
0.091371
0
VERTEX
8
1
10
6.254957
20
10.379288
42
-0.093191
0
VERTEX
8
1
10
6.433973
20
10.363663
42
-0.090957
0
VERTEX
8
1
10
7.233446
20
10.023666
0
VERTEX
8
1
10
7.281527
20
9.988190
0
VERTEX
8
1
10
7.256437
20
9.959305
42
0.062601
0
VERTEX
8
1
10
6.513880
20
9.284897
0
VERTEX
8
1
10
6.501715
20
9.278168
42
0.143771
0
VERTEX
8
1
10
6.278555
20
9.591049
42
0.147406
0
VERTEX
8
1
10
5.754709
20
9.822983
42
0.152731
0
VERTEX
8
1
10
5.273787
20
9.720001
42
0.087770
0
VERTEX
8
1
10
4.981958
20
9.489578
42
0.160058
0
VERTEX
8
1
10
4.591417
20
8.555405
0
VERTEX
8
1
10
4.588537
20
8.580917
42
-0.149042
0
VERTEX
8
1
10
4.780115
20
9.407578
42
-0.098931
0
SEQEND
0
POLYLINE
8
1
66
1
70
1
0
VERTEX
8
1
10
5.187963
20
5.767227
42
-0.294024
0
VERTEX
8
1
10
5.163656
20
5.825928
42
-0.265137
0
VERTEX
8
1
10
5.359564
20
6.055206
0
VERTEX
8
1
10
5.385553
20
6.060379
0
VERTEX
8
1
10
5.411943
20
6.061172
0
VERTEX
8
1
10
5.399736
20
6.079559
42
0.251009
0
VERTEX
8
1
10
5.078577
20
6.174179
42
0.211272
0
VERTEX
8
1
10
4.999258
20
6.114304
42
-0.578968
0
VERTEX
8
1
10
4.945707
20
6.111298
0
VERTEX
8
1
10
4.932451
20
6.128326
42
-0.089154
0
VERTEX
8
1
10
4.866644
20
6.348541
42
-0.057077
0
VERTEX
8
1
10
4.844313
20
6.939514
42
-0.026635
0
VERTEX
8
1
10
4.935484
20
7.390747
42
0.029778
0
VERTEX
8
1
10
4.977964
20
7.648712
42
0.070329
0
VERTEX
8
1
10
5.218966
20
7.521057
42
-0.198688
0
VERTEX
8
1
10
5.053560
20
7.864273
42
-0.138211
0
VERTEX
8
1
10
5.116091
20
8.102570
0
VERTEX
8
1
10
5.137636
20
8.129211
42
-0.330416
0
VERTEX
8
1
10
5.516104
20
8.182312
42
-0.274751
0
VERTEX
8
1
10
5.610018
20
8.021622
42
-0.155180
0
VERTEX
8
1
10
5.553530
20
7.781235
0
VERTEX
8
1
10
5.551771
20
7.772888
0
VERTEX
8
1
10
5.570799
20
7.784134
42
0.196386
0
VERTEX
8
1
10
5.739157
20
8.113953
42
0.252920
0
VERTEX
8
1
10
5.633936
20
8.334869
0
VERTEX
8
1
10
5.579016
20
8.370255
0
VERTEX
8
1
10
5.510176
20
8.400848
0
VERTEX
8
1
10
5.432474
20
8.424637
0
VERTEX
8
1
10
5.427946
20
8.433823
42
-0.019289
0
VERTEX
8
1
10
5.407740
20
8.642838
42
0.090814
0
VERTEX
8
1
10
5.382685
20
8.740265
42
0.525893
0
VERTEX
8
1
10
5.326658
20
8.752945
0
VERTEX
8
1
10
5.305964
20
8.735840
42
0.082312
0
VERTEX
8
1
10
5.000635
20
8.267853
42
0.123895
0
VERTEX
8
1
10
4.950983
20
7.958786
42
0.013461
0
VERTEX
8
1
10
4.886885
20
8.082596
42
0.005502
0
VERTEX
8
1
10
4.886717
20
8.082138
42
-0.025313
0
VERTEX
8
1
10
4.886545
20
8.081696
0
VERTEX
8
1
10
4.864901
20
8.127274
42
-0.170133
0
VERTEX
8
1
10
4.777281
20
8.880539
42
-0.100653
0
VERTEX
8
1
10
4.994692
20
9.333313
0
VERTEX
8
1
10
5.069918
20
9.428970
0
VERTEX
8
1
10
5.101290
20
9.459671
0
VERTEX
8
1
10
5.119947
20
9.470306
0
VERTEX
8
1
10
5.139761
20
9.478653
42
-0.244017
0
VERTEX
8
1
10
5.428961
20
9.419250
0
VERTEX
8
1
10
5.436899
20
9.419357
0
VERTEX
8
1
10
5.440592
20
9.428665
0
VERTEX
8
1
10
5.440855
20
9.439682
0
VERTEX
8
1
10
5.438089
20
9.452133
0
VERTEX
8
1
10
5.432692
20
9.465759
42
0.068420
0
VERTEX
8
1
10
5.303900
20
9.621231
42
-0.099288
0
VERTEX
8
1
10
5.644606
20
9.580948
42
-0.140104
0
VERTEX
8
1
10
5.778761
20
9.483688
0
VERTEX
8
1
10
5.782129
20
9.494843
0
VERTEX
8
1
10
5.783796
20
9.507446
0
VERTEX
8
1
10
5.783930
20
9.521210
42
0.084012
0
VERTEX
8
1
10
5.727476
20
9.699402
42
-0.170737
0
VERTEX
8
1
10
6.199053
20
9.476685
42
-0.140004
0
VERTEX
8
1
10
6.372908
20
9.143188
0
VERTEX
8
1
10
6.372080
20
9.109680
42
0.012306
0
VERTEX
8
1
10
6.226156
20
8.907440
42
-0.098673
0
VERTEX
8
1
10
6.185804
20
8.901581
0
VERTEX
8
1
10
6.185438
20
8.905655
42
0.212975
0
VERTEX
8
1
10
6.128645
20
9.217163
42
0.297792
0
VERTEX
8
1
10
5.819017
20
9.307907
42
0.337109
0
VERTEX
8
1
10
5.497629
20
8.911453
42
0.218197
0
VERTEX
8
1
10
5.636110
20
8.667084
42
0.171087
0
VERTEX
8
1
10
5.996378
20
8.547882
0
VERTEX
8
1
10
5.982409
20
8.489273
42
0.178051
0
VERTEX
8
1
10
5.665030
20
5.737808
0
VERTEX
8
1
10
5.670134
20
5.701324
42
0.100543
0
VERTEX
8
1
10
5.473623
20
5.829712
42
0.215661
0
VERTEX
8
1
10
5.250914
20
5.807358
0
VERTEX
8
1
10
5.219919
20
5.789322
0
SEQEND
0
POLYLINE
8
1
66
1
70
1
0
VERTEX
8
1
10
5.453833
20
5.401474
42
-0.344324
0
VERTEX
8
1
10
5.427168
20
5.513153
42
-0.249314
0
VERTEX
8
1
10
5.580988
20
5.632294
0
VERTEX
8
1
10
5.624678
20
5.639236
0
VERTEX
8
1
10
5.673204
20
5.640335
0
VERTEX
8
1
10
5.692446
20
5.631851
42
0.008674
0
VERTEX
8
1
10
5.730726
20
5.499176
0
VERTEX
8
1
10
5.723955
20
5.491760
42
0.129209
0
VERTEX
8
1
10
5.492067
20
5.437683
42
0.098157
0
SEQEND
0
POLYLINE
8
1
66
1
70
1
0
VERTEX
8
1
10
5.961706
20
4.720108
42
-0.062809
0
VERTEX
8
1
10
5.725382
20
4.977081
42
-0.149890
0
VERTEX
8
1
10
5.663546
20
5.155472
42
-0.242933
0
VERTEX
8
1
10
5.743727
20
5.286758
0
VERTEX
8
1
10
5.767424
20
5.301529
0
VERTEX
8
1
10
5.792925
20
5.314590
42
0.050723
0
VERTEX
8
1
10
6.144236
20
4.589172
42
0.008433
0
SEQEND
0
POLYLINE
8
1
66
1
70
1
0
VERTEX
8
1
10
8.615248
20
1.982666
0
VERTEX
8
1
10
8.607840
20
1.987213
0
VERTEX
8
1
10
8.598326
20
1.990524
0
VERTEX
8
1
10
8.586916
20
1.992722
42
0.155936
0
VERTEX
8
1
10
8.335649
20
1.918060
0
VERTEX
8
1
10
8.348959
20
1.909622
42
-0.200436
0
VERTEX
8
1
10
8.537409
20
1.799606
42
-0.202485
0
VERTEX
8
1
10
8.562258
20
1.630066
42
-0.101284
0
VERTEX
8
1
10
8.479433
20
1.451736
0
VERTEX
8
1
10
8.377520
20
1.368973
0
VERTEX
8
1
10
8.276064
20
1.307800
0
VERTEX
8
1
10
8.175444
20
1.266525
0
VERTEX
8
1
10
8.076036
20
1.243500
0
VERTEX
8
1
10
7.978224
20
1.237045
42
-0.124219
0
VERTEX
8
1
10
7.610479
20
1.343735
0
VERTEX
8
1
10
7.526320
20
1.395218
0
VERTEX
8
1
10
7.446024
20
1.453308
42
-0.074976
0
VERTEX
8
1
10
6.975939
20
1.972885
42
0.038324
0
VERTEX
8
1
10
6.512968
20
2.521545
42
0.032856
0
VERTEX
8
1
10
6.655256
20
2.530289
42
0.017379
0
VERTEX
8
1
10
6.686163
20
2.481125
0
VERTEX
8
1
10
6.695955
20
2.474121
42
0.145568
0
VERTEX
8
1
10
6.973478
20
2.421921
0
VERTEX
8
1
10
6.994909
20
2.423645
0
VERTEX
8
1
10
7.003077
20
2.415634
42
0.193982
0
VERTEX
8
1
10
7.010996
20
2.227783
42
0.144960
0
VERTEX
8
1
10
7.032431
20
2.207703
0
VERTEX
8
1
10
7.034544
20
2.223938
42
-0.170629
0
VERTEX
8
1
10
7.197100
20
2.482330
42
0.056690
0
VERTEX
8
1
10
7.291147
20
2.551651
42
-0.012248
0
VERTEX
8
1
10
7.303534
20
2.557632
42
0.151536
0
VERTEX
8
1
10
7.221540
20
2.125168
42
0.277074
0
VERTEX
8
1
10
7.604319
20
1.635254
0
VERTEX
8
1
10
7.660540
20
1.626053
42
0.341120
0
VERTEX
8
1
10
8.099043
20
1.881042
42
0.161554
0
VERTEX
8
1
10
8.128641
20
2.158264
42
0.327229
0
VERTEX
8
1
10
7.950178
20
2.300919
42
0.198269
0
VERTEX
8
1
10
7.781099
20
2.252365
0
VERTEX
8
1
10
7.767992
20
2.236969
42
0.286051
0
VERTEX
8
1
10
7.774675
20
2.085358
42
0.114498
0
VERTEX
8
1
10
7.899698
20
2.013214
0
VERTEX
8
1
10
7.907869
20
1.989243
0
VERTEX
8
1
10
7.906645
20
1.951157
42
-0.361406
0
VERTEX
8
1
10
7.776133
20
1.815430
42
-0.223428
0
VERTEX
8
1
10
7.504251
20
1.896301
42
-0.219128
0
VERTEX
8
1
10
7.409647
20
2.260315
42
-0.197020
0
VERTEX
8
1
10
7.722734
20
2.752747
42
-0.173200
0
VERTEX
8
1
10
8.083990
20
2.841949
42
-0.131447
0
VERTEX
8
1
10
8.364092
20
2.717819
42
-0.065193
0
VERTEX
8
1
10
8.621756
20
2.451416
0
VERTEX
8
1
10
8.587442
20
2.479355
42
0.161083
0
VERTEX
8
1
10
8.054213
20
2.626785
42
0.213554
0
VERTEX
8
1
10
7.979460
20
2.595795
0
VERTEX
8
1
10
8.011660
20
2.589554
42
-0.203901
0
VERTEX
8
1
10
8.381029
20
2.418961
42
-0.116108
0
SEQEND
0
POLYLINE
8
1
66
1
70
1
0
VERTEX
8
1
10
7.378660
20
2.830460
42
0.002475
0
VERTEX
8
1
10
7.378309
20
2.835709
42
-0.012299
0
VERTEX
8
1
10
7.445795
20
2.864929
42
0.015212
0
SEQEND
0
POLYLINE
8
1
66
1
70
1
0
VERTEX
8
1
10
7.316862
20
3.087524
42
0.036833
0
VERTEX
8
1
10
7.167498
20
3.460678
0
VERTEX
8
1
10
7.168386
20
3.471542
42
0.033105
0
VERTEX
8
1
10
7.613134
20
3.184692
0
VERTEX
8
1
10
7.609575
20
3.175766
42
0.045662
0
SEQEND
0
POLYLINE
8
1
66
1
70
1
0
VERTEX
8
1
10
6.900732
20
4.032120
42
-0.109633
0
VERTEX
8
1
10
6.038370
20
5.375397
42
0.137445
0
VERTEX
8
1
10
6.049341
20
5.378265
42
0.149574
0
VERTEX
8
1
10
6.020185
20
5.420837
42
-0.240080
0
VERTEX
8
1
10
6.460230
20
8.807190
0
VERTEX
8
1
10
6.517866
20
8.888412
42
-0.287733
0
VERTEX
8
1
10
10.209337
20
10.376770
42
-0.343835
0
VERTEX
8
1
10
13.293566
20
6.943634
42
-0.104737
0
VERTEX
8
1
10
13.082800
20
5.419281
42
0.200319
0
VERTEX
8
1
10
13.056894
20
5.376587
42
0.000606
0
VERTEX
8
1
10
13.068331
20
5.375168
42
-0.265894
0
VERTEX
8
1
10
10.195433
20
2.988342
42
-0.244895
0
SEQEND
0
POLYLINE
8
1
66
1
70
1
0
VERTEX
8
1
10
11.946447
20
3.479050
42
0.037915
0
VERTEX
8
1
10
11.793558
20
3.104828
0
VERTEX
8
1
10
11.781252
20
3.090149
42
0.046173
0
VERTEX
8
1
10
11.487875
20
3.177185
0
VERTEX
8
1
10
11.502668
20
3.190857
42
0.033057
0
SEQEND
0
POLYLINE
8
1
66
1
70
1
0
VERTEX
8
1
10
11.726091
20
2.830444
42
0.014805
0
VERTEX
8
1
10
11.658949
20
2.864929
42
-0.044400
0
VERTEX
8
1
10
11.726301
20
2.833603
42
0.007212
0
SEQEND
0
POLYLINE
8
1
66
1
70
1
0
VERTEX
8
1
10
12.099432
20
1.931259
42
-0.079498
0
VERTEX
8
1
10
11.619089
20
1.423553
42
-0.099162
0
VERTEX
8
1
10
11.269430
20
1.254791
42
-0.114529
0
VERTEX
8
1
10
10.979181
20
1.252823
0
VERTEX
8
1
10
10.879122
20
1.284775
0
VERTEX
8
1
10
10.778032
20
1.335800
0
VERTEX
8
1
10
10.676302
20
1.407562
0
VERTEX
8
1
10
10.612627
20
1.470688
42
-0.158435
0
VERTEX
8
1
10
10.536848
20
1.707657
42
-0.288612
0
VERTEX
8
1
10
10.669626
20
1.883087
42
-0.069109
0
VERTEX
8
1
10
10.775457
20
1.913055
42
0.168150
0
VERTEX
8
1
10
10.511908
20
1.991776
0
VERTEX
8
1
10
10.501417
20
1.989014
0
VERTEX
8
1
10
10.492929
20
1.985092
0
VERTEX
8
1
10
10.493155
20
1.995026
42
-0.103896
0
VERTEX
8
1
10
10.704874
20
2.398499
42
-0.231901
0
VERTEX
8
1
10
11.127752
20
2.589539
0
VERTEX
8
1
10
11.121107
20
2.601547
42
0.168356
0
VERTEX
8
1
10
11.035406
20
2.628220
42
0.146683
0
VERTEX
8
1
10
10.535715
20
2.492371
0
VERTEX
8
1
10
10.499662
20
2.465668
0
VERTEX
8
1
10
10.503851
20
2.477982
42
-0.084550
0
VERTEX
8
1
10
10.808222
20
2.763901
42
-0.265463
0
VERTEX
8
1
10
11.306166
20
2.794022
0
VERTEX
8
1
10
11.361643
20
2.765991
42
-0.216534
0
VERTEX
8
1
10
11.698473
20
2.233185
42
-0.213745
0
VERTEX
8
1
10
11.591776
20
1.887665
42
-0.223337
0
VERTEX
8
1
10
11.314463
20
1.818512
42
-0.367637
0
VERTEX
8
1
10
11.196775
20
1.969589
0
VERTEX
8
1
10
11.198503
20
2.010330
42
0.096610
0
VERTEX
8
1
10
11.325476
20
2.080078
0
VERTEX
8
1
10
11.334372
20
2.090942
42
0.298475
0
VERTEX
8
1
10
11.330709
20
2.244873
0
VERTEX
8
1
10
11.315584
20
2.259476
42
0.323842
0
VERTEX
8
1
10
11.035196
20
2.253372
42
0.213964
0
VERTEX
8
1
10
10.966501
20
2.099243
42
0.309161
0
VERTEX
8
1
10
11.227053
20
1.655563
42
0.177738
0
VERTEX
8
1
10
11.523367
20
1.643799
42
0.330365
0
VERTEX
8
1
10
11.885275
20
2.283142
42
0.080429
0
VERTEX
8
1
10
11.802740
20
2.556946
42
-0.127109
0
VERTEX
8
1
10
11.846102
20
2.524017
42
0.055503
0
VERTEX
8
1
10
11.916265
20
2.477768
42
-0.166792
0
VERTEX
8
1
10
12.071398
20
2.215805
0
VERTEX
8
1
10
12.075262
20
2.209183
0
VERTEX
8
1
10
12.080935
20
2.213043
0
VERTEX
8
1
10
12.086317
20
2.218094
42
0.197638
0
VERTEX
8
1
10
12.113180
20
2.355377
42
0.044447
0
VERTEX
8
1
10
12.099112
20
2.424774
42
0.136580
0
VERTEX
8
1
10
12.391836
20
2.464218
42
0.156587
0
VERTEX
8
1
10
12.440748
20
2.515594
42
0.005299
0
VERTEX
8
1
10
12.450270
20
2.531601
42
0.041116
0
VERTEX
8
1
10
12.587873
20
2.521484
0
VERTEX
8
1
10
12.576014
20
2.505615
42
0.039990
0
SEQEND
0
ENDSEC
0
EOF
