  0
SECTION
  2
HEADER
  9
$ACADVER
  1
AC1009
  9
$INSBASE
 10
0.0
 20
0.0
 30
0.0
  9
$EXTMIN
 10
17.55361286949022
 20
4.8122390208940109
 30
-0.0015258207003583
  9
$EXTMAX
 10
80.913537011777919
 20
39.43292264334967
 30
0.0000000349246037
  9
$LIMMIN
 10
0.0
 20
0.0
  9
$LIMMAX
 10
12.0
 20
9.0
  9
$ORTHOMODE
 70
     0
  9
$REGENMODE
 70
     1
  9
$FILLMODE
 70
     1
  9
$QTEXTMODE
 70
     0
  9
$MIRRTEXT
 70
     1
  9
$DRAGMODE
 70
     2
  9
$LTSCALE
 40
1.0
  9
$OSMODE
 70
   167
  9
$ATTMODE
 70
     1
  9
$TEXTSIZE
 40
2.7410987140255672
  9
$TRACEWID
 40
0.05
  9
$TEXTSTYLE
  7
STANDARD
  9
$CLAYER
  8
ROUTE_T79Z0_244
  9
$CELTYPE
  6
CONTINUOUS
  9
$CECOLOR
 62
   256
  9
$DIMSCALE
 40
40.0
  9
$DIMASZ
 40
0.18
  9
$DIMEXO
 40
0.0625
  9
$DIMDLI
 40
0.38
  9
$DIMRND
 40
0.0
  9
$DIMDLE
 40
0.0
  9
$DIMEXE
 40
0.18
  9
$DIMTP
 40
0.0
  9
$DIMTM
 40
0.0
  9
$DIMTXT
 40
0.18
  9
$DIMCEN
 40
0.09
  9
$DIMTSZ
 40
0.0
  9
$DIMTOL
 70
     0
  9
$DIMLIM
 70
     0
  9
$DIMTIH
 70
     1
  9
$DIMTOH
 70
     1
  9
$DIMSE1
 70
     0
  9
$DIMSE2
 70
     0
  9
$DIMTAD
 70
     0
  9
$DIMZIN
 70
     0
  9
$DIMBLK
  1

  9
$DIMASO
 70
     1
  9
$DIMSHO
 70
     1
  9
$DIMPOST
  1

  9
$DIMAPOST
  1

  9
$DIMALT
 70
     0
  9
$DIMALTD
 70
     2
  9
$DIMALTF
 40
25.399999999999999
  9
$DIMLFAC
 40
1.0
  9
$DIMTOFL
 70
     0
  9
$DIMTVP
 40
0.0
  9
$DIMTIX
 70
     0
  9
$DIMSOXD
 70
     0
  9
$DIMSAH
 70
     0
  9
$DIMBLK1
  1

  9
$DIMBLK2
  1

  9
$DIMSTYLE
  2
STANDARD
  9
$DIMCLRD
 70
     0
  9
$DIMCLRE
 70
     0
  9
$DIMCLRT
 70
     0
  9
$DIMTFAC
 40
1.0
  9
$DIMGAP
 40
0.09
  9
$LUNITS
 70
     2
  9
$LUPREC
 70
     4
  9
$SKETCHINC
 40
0.1
  9
$FILLETRAD
 40
0.0
  9
$AUNITS
 70
     0
  9
$AUPREC
 70
     0
  9
$MENU
  1
.
  9
$ELEVATION
 40
0.0
  9
$PELEVATION
 40
0.0
  9
$THICKNESS
 40
0.0
  9
$LIMCHECK
 70
     0
  9
$BLIPMODE
 70
     0
  9
$CHAMFERA
 40
0.0
  9
$CHAMFERB
 40
0.0
  9
$SKPOLY
 70
     0
  9
$TDCREATE
 40
2451184.7175349989
  9
$TDUPDATE
 40
2453208.3194171288
  9
$TDINDWG
 40
12.192654409699999
  9
$TDUSRTIMER
 40
12.192654409699999
  9
$USRTIMER
 70
     1
  9
$ANGBASE
 50
0.0
  9
$ANGDIR
 70
     0
  9
$PDMODE
 70
     3
  9
$PDSIZE
 40
0.0
  9
$PLINEWID
 40
0.0
  9
$COORDS
 70
     2
  9
$SPLFRAME
 70
     0
  9
$SPLINETYPE
 70
     6
  9
$SPLINESEGS
 70
     8
  9
$ATTDIA
 70
     1
  9
$ATTREQ
 70
     1
  9
$HANDLING
 70
 22529
  9
$HANDSEED
  5
F36F
  9
$SURFTAB1
 70
     6
  9
$SURFTAB2
 70
     6
  9
$SURFTYPE
 70
     6
  9
$SURFU
 70
     6
  9
$SURFV
 70
     6
  9
$UCSNAME
  2
_ACTIVE1
  9
$UCSORG
 10
0.0
 20
0.0
 30
0.0
  9
$UCSXDIR
 10
1.0
 20
0.0
 30
0.0
  9
$UCSYDIR
 10
0.0
 20
1.0
 30
0.0
  9
$PUCSNAME
  2

  9
$PUCSORG
 10
0.0
 20
0.0
 30
0.0
  9
$PUCSXDIR
 10
1.0
 20
0.0
 30
0.0
  9
$PUCSYDIR
 10
0.0
 20
1.0
 30
0.0
  9
$USERI1
 70
     0
  9
$USERI2
 70
     0
  9
$USERI3
 70
     0
  9
$USERI4
 70
     0
  9
$USERI5
 70
     0
  9
$USERR1
 40
0.0
  9
$USERR2
 40
0.0
  9
$USERR3
 40
0.0
  9
$USERR4
 40
0.0
  9
$USERR5
 40
0.0
  9
$WORLDVIEW
 70
     1
  9
$SHADEDGE
 70
     3
  9
$SHADEDIF
 70
    70
  9
$TILEMODE
 70
     1
  9
$MAXACTVP
 70
    48
  9
$PLIMCHECK
 70
     0
  9
$PEXTMIN
 10
1.0000000000000000E+020
 20
1.0000000000000000E+020
 30
1.0000000000000000E+020
  9
$PEXTMAX
 10
-1.0000000000000000E+020
 20
-1.0000000000000000E+020
 30
-1.0000000000000000E+020
  9
$PLIMMIN
 10
0.0
 20
0.0
  9
$PLIMMAX
 10
12.0
 20
9.0
  9
$UNITMODE
 70
     0
  9
$VISRETAIN
 70
     1
  9
$PLINEGEN
 70
     0
  9
$PSLTSCALE
 70
     1
  0
ENDSEC
  0
SECTION
  2
TABLES
  0
TABLE
  2
VPORT
 70
     2
  0
VPORT
  2
*ACTIVE
 70
     0
 10
0.0
 20
0.0
 11
1.0
 21
1.0
 12
49.575310803918562
 22
27.520150899897018
 13
0.0
 23
0.0
 14
1.0
 24
1.0
 15
0.0
 25
0.0
 16
0.0
 26
0.0
 36
1.0
 17
0.0
 27
0.0
 37
0.0
 40
53.31458690197244
 41
1.440677966101694
 42
50.0
 43
0.0
 44
0.0
 50
0.0
 51
0.0
 71
     0
 72
   100
 73
     1
 74
     0
 75
     0
 76
     0
 77
     0
 78
     0
  0
ENDTAB
  0
TABLE
  2
LTYPE
 70
     1
  0
LTYPE
  2
CONTINUOUS
 70
     0
  3
Solid line
 72
    65
 73
     0
 40
0.0
  0
ENDTAB
  0
TABLE
  2
LAYER
 70
     8
  0
LAYER
  2
0
 70
     0
 62
     7
  6
CONTINUOUS
  0
LAYER
  2
SHAPE_Z0_25C
 70
     0
 62
     2
  6
CONTINUOUS
  0
LAYER
  2
ROUTE_T79Z0_244
 70
     0
 62
     4
  6
CONTINUOUS
  0
LAYER
  2
QUANTITY
 70
     0
 62
     3
  6
CONTINUOUS
  0
LAYER
  2
GLOBALSHEETSTOCK
 70
     0
 62
   131
  6
CONTINUOUS
  0
LAYER
  2
TEMP
 70
     0
 62
     7
  6
CONTINUOUS
  0
LAYER
  2
DEFPOINTS
 70
     0
 62
     7
  6
CONTINUOUS
  0
LAYER
  2
BORDER_Z0_25
 70
     0
 62
     1
  6
CONTINUOUS
  0
ENDTAB
  0
TABLE
  2
STYLE
 70
     1
  0
STYLE
  2
STANDARD
 70
     0
 40
0.0
 41
1.0
 50
0.0
 71
     0
 42
2.7410987140255672
  3
txt
  4

  0
ENDTAB
  0
TABLE
  2
VIEW
 70
     0
  0
ENDTAB
  0
TABLE
  2
UCS
 70
    33
  0
UCS
  2
_ACTIVE1
 70
     0
 10
0.0
 20
0.0
 30
0.0
 11
1.0
 21
0.0
 31
0.0
 12
0.0
 22
1.0
 32
0.0
  0
UCS
  2
BORDER_UCS-1C1D
 70
     0
 10
61.945652008056641
 20
2.1676216125488281
 30
-0.375
 11
1.0
 21
0.0
 31
0.0
 12
0.0
 22
1.0
 32
0.0
  0
UCS
  2
BORDER_UCS-599
 70
     0
 10
55.318595886230469
 20
2.0578761100769039
 30
-0.25
 11
1.0
 21
0.0
 31
0.0
 12
0.0
 22
1.0
 32
0.0
  0
UCS
  2
BORDER_UCS-E6E
 70
     0
 10
12.48240184783935
 20
10.1329231262207
 30
-0.25
 11
1.0
 21
0.0
 31
0.0
 12
0.0
 22
1.0
 32
0.0
  0
UCS
  2
BORDER_UCS-E97
 70
     0
 10
18.784915924072259
 20
18.20168304443359
 30
-0.25
 11
1.0
 21
0.0
 31
0.0
 12
0.0
 22
1.0
 32
0.0
  0
UCS
  2
BORDER_UCS-EBA
 70
     0
 10
17.231424331665028
 20
-2.0355489253997798
 30
-0.25
 11
1.0
 21
0.0
 31
0.0
 12
0.0
 22
1.0
 32
0.0
  0
UCS
  2
BORDER_UCS-1BBA
 70
     0
 10
57.475685119628899
 20
21.592166900634759
 30
-0.25
 11
1.0
 21
0.0
 31
0.0
 12
0.0
 22
1.0
 32
0.0
  0
UCS
  2
BORDER_UCS-1BCD
 70
     0
 10
63.688896179199219
 20
21.612541198730469
 30
-0.25
 11
1.0
 21
0.0
 31
0.0
 12
0.0
 22
1.0
 32
0.0
  0
UCS
  2
BORDER_UCS-1C3E
 70
     0
 10
62.275291442871087
 20
16.31419563293457
 30
-0.25
 11
1.0
 21
0.0
 31
0.0
 12
0.0
 22
1.0
 32
0.0
  0
UCS
  2
BORDER_UCS-1CA6
 70
     0
 10
26.671022415161129
 20
12.49951648712158
 30
-0.25
 11
1.0
 21
0.0
 31
0.0
 12
0.0
 22
1.0
 32
0.0
  0
UCS
  2
BORDER_UCS-AFE0
 70
     0
 10
60.868488311767578
 20
1.047558426856994
 30
-0.25
 11
1.0
 21
0.0
 31
0.0
 12
0.0
 22
1.0
 32
0.0
  0
UCS
  2
BORDER_UCS-CE48
 70
     0
 10
39.29266357421875
 20
-25.00909423828125
 30
-0.25
 11
1.0
 21
0.0
 31
0.0
 12
0.0
 22
1.0
 32
0.0
  0
UCS
  2
BORDER_UCS-CD15
 70
     0
 10
15.29289627075195
 20
-35.420463562011719
 30
-0.25
 11
1.0
 21
0.0
 31
0.0
 12
0.0
 22
1.0
 32
0.0
  0
UCS
  2
BORDER_UCS-CF05
 70
     0
 10
22.12060546875
 20
-25.01412200927734
 30
-0.25
 11
1.0
 21
0.0
 31
0.0
 12
0.0
 22
1.0
 32
0.0
  0
UCS
  2
BORDER_UCS-5A0
 70
     0
 10
36.972671508789063
 20
17.450712203979489
 30
-0.25
 11
1.0
 21
0.0
 31
0.0
 12
0.0
 22
1.0
 32
0.0
  0
UCS
  2
BORDER_UCS-9AB
 70
     0
 10
45.57438659667968
 20
22.059236526489251
 30
-0.25
 11
1.0
 21
0.0
 31
0.0
 12
0.0
 22
1.0
 32
0.0
  0
UCS
  2
BORDER_UCS-E23
 70
     0
 10
28.110467910766602
 20
17.411943435668942
 30
-0.25
 11
1.0
 21
0.0
 31
0.0
 12
0.0
 22
1.0
 32
0.0
  0
UCS
  2
BORDER_UCS-E46
 70
     0
 10
28.705734252929691
 20
22.335878372192379
 30
-0.25
 11
1.0
 21
0.0
 31
0.0
 12
0.0
 22
1.0
 32
0.0
  0
UCS
  2
BORDER_UCS-1BA5
 70
     0
 10
51.153003692626953
 20
21.734403610229489
 30
-0.25
 11
1.0
 21
0.0
 31
0.0
 12
0.0
 22
1.0
 32
0.0
  0
UCS
  2
BORDER_UCS-1BE7
 70
     0
 10
46.669830322265618
 20
9.0112991333007812
 30
-0.25
 11
1.0
 21
0.0
 31
0.0
 12
0.0
 22
1.0
 32
0.0
  0
UCS
  2
BORDER_UCS-1BFD
 70
     0
 10
45.816909790039063
 20
2.5151309967041011
 30
-0.25
 11
1.0
 21
0.0
 31
0.0
 12
0.0
 22
1.0
 32
0.0
  0
UCS
  2
BORDER_UCS-1CD3
 70
     0
 10
41.069389343261719
 20
-2.0074610710144039
 30
-0.25
 11
1.0
 21
0.0
 31
0.0
 12
0.0
 22
1.0
 32
0.0
  0
UCS
  2
BORDER_UCS-1D2C
 70
     0
 10
31.77374076843261
 20
6.0634860992431641
 30
-0.25
 11
1.0
 21
0.0
 31
0.0
 12
0.0
 22
1.0
 32
0.0
  0
UCS
  2
BORDER_UCS-CD10
 70
     0
 10
55.86126708984375
 20
1.7077429294586179
 30
-0.25
 11
1.0
 21
0.0
 31
0.0
 12
0.0
 22
1.0
 32
0.0
  0
UCS
  2
BORDER_UCS-CD40
 70
     0
 10
17.769100189208981
 20
17.02343559265136
 30
-0.25
 11
1.0
 21
0.0
 31
0.0
 12
0.0
 22
1.0
 32
0.0
  0
UCS
  2
BORDER_UCS-D1E3
 70
     0
 10
27.180238723754879
 20
11.675040245056151
 30
-0.25
 11
1.0
 21
0.0
 31
0.0
 12
0.0
 22
1.0
 32
0.0
  0
UCS
  2
BORDER_UCS-D425
 70
     0
 10
21.71937179565429
 20
27.203166961669918
 30
-0.25
 11
1.0
 21
0.0
 31
0.0
 12
0.0
 22
1.0
 32
0.0
  0
UCS
  2
BORDER_UCS-D464
 70
     0
 10
60.773311614990227
 20
0.6875419616699219
 30
-0.25
 11
1.0
 21
0.0
 31
0.0
 12
0.0
 22
1.0
 32
0.0
  0
UCS
  2
BORDER_UCS-1C58
 70
     0
 10
28.029226303100579
 20
-1.127826452255249
 30
-0.25
 11
1.0
 21
0.0
 31
0.0
 12
0.0
 22
1.0
 32
0.0
  0
UCS
  2
BORDER_UCS-D4EF
 70
     0
 10
62.404277801513672
 20
27.274326324462891
 30
-0.25
 11
1.0
 21
0.0
 31
0.0
 12
0.0
 22
1.0
 32
0.0
  0
UCS
  2
BORDER_UCS-D4ED
 70
     0
 10
70.054183959960937
 20
27.235527038574212
 30
-0.25
 11
1.0
 21
0.0
 31
0.0
 12
0.0
 22
1.0
 32
0.0
  0
UCS
  2
BORDER_UCS-D51A
 70
     0
 10
59.226779937744141
 20
21.212848663330071
 30
-0.25
 11
1.0
 21
0.0
 31
0.0
 12
0.0
 22
1.0
 32
0.0
  0
UCS
  2
BORDER_UCS-D548
 70
     0
 10
66.056449890136719
 20
20.669448852539059
 30
-0.25
 11
1.0
 21
0.0
 31
0.0
 12
0.0
 22
1.0
 32
0.0
  0
ENDTAB
  0
TABLE
  2
APPID
 70
     2
  0
APPID
  2
ACAD
 70
     0
  0
APPID
  2
CADCODE
 70
     0
  0
ENDTAB
  0
TABLE
  2
DIMSTYLE
 70
     1
  0
DIMSTYLE
  2
STANDARD
 70
     0
  3

  4

  5

  6

  7

 40
1.0
 41
0.18
 42
0.0625
 43
0.38
 44
0.18
 45
0.0
 46
0.0
 47
0.0
 48
0.0
140
0.18
141
0.09
142
0.0
143
25.399999999999999
144
1.0
145
0.0
146
1.0
147
0.09
 71
     0
 72
     0
 73
     1
 74
     1
 75
     0
 76
     0
 77
     0
 78
     0
170
     0
171
     2
172
     0
173
     0
174
     0
175
     0
176
     0
177
     0
178
     0
  0
ENDTAB
  0
ENDSEC
  0
SECTION
  2
BLOCKS
  0
BLOCK
  8
0
  2
$MODEL_SPACE
 70
     0
 10
0.0
 20
0.0
 30
0.0
  3
$MODEL_SPACE
  1

  0
ENDBLK
  5
2D4
  8
0
  0
BLOCK
 67
     1
  8
0
  2
$PAPER_SPACE
 70
     0
 10
0.0
 20
0.0
 30
0.0
  3
$PAPER_SPACE
  1

  0
ENDBLK
  5
2D0
 67
     1
  8
0
  0
BLOCK
  8
0
  2
*U0
 70
     1
 10
0.0
 20
0.0
 30
0.0
  3
*U0
  1

  0
ARC
  5
F18E
  8
ROUTE_T79Z0_244
 10
55.484882221171922
 20
15.47269362397196
 30
0.0
 40
0.5340002340823374
 50
159.4439547804165
 51
339.44395478041639
  0
LINE
  5
F18F
  8
ROUTE_T79Z0_244
 10
55.984882221171908
 20
15.28519362397196
 30
0.0
 11
55.922882221171903
 21
16.066193623971941
 31
0.0
  0
LINE
  5
F190
  8
ROUTE_T79Z0_244
 10
55.422882221171903
 20
16.22219362397194
 30
0.0
 11
54.984882221171922
 21
15.66019362397196
 31
0.0
  0
ARC
  5
F191
  8
ROUTE_T79Z0_244
 10
55.592940357955626
 20
15.887969703407119
 30
0.0
 40
0.3750005319517339
 50
28.376482734638401
 51
116.9676737108675
  0
ENDBLK
  5
F193
  8
0
  0
ENDSEC
  0
SECTION
  2
ENTITIES
  0
POLYLINE
  5
443
  8
ROUTE_T79Z0_244
 66
     1
 10
0.0
 20
0.0
 30
0.0
  0
VERTEX
  5
F136
  8
ROUTE_T79Z0_244
 10
54.984882221171922
 20
15.66019362397196
 30
0.0
 42
1.0
  0
VERTEX
  5
F137
  8
ROUTE_T79Z0_244
 10
55.984882221171908
 20
15.28519362397196
 30
0.0
  0
VERTEX
  5
F138
  8
ROUTE_T79Z0_244
 10
55.922882221171903
 20
16.066193623971941
 30
0.0
 42
0.40703
  0
VERTEX
  5
F139
  8
ROUTE_T79Z0_244
 10
55.422882221171903
 20
16.22219362397194
 30
0.0
  0
VERTEX
  5
F13A
  8
ROUTE_T79Z0_244
 10
54.984882221171922
 20
15.66019362397196
 30
0.0
  0
SEQEND
  5
F13B
  8
ROUTE_T79Z0_244
  0
POLYLINE
  5
57D
  8
ROUTE_T79Z0_244
 66
     1
 10
0.0
 20
0.0
 30
0.0
  0
VERTEX
  5
F13C
  8
ROUTE_T79Z0_244
 10
24.09169568795668
 20
5.368781817524729
 30
0.0
  0
VERTEX
  5
F13D
  8
ROUTE_T79Z0_244
 10
23.567584910760669
 20
9.7064566287931484
 30
0.0
  0
VERTEX
  5
F13E
  8
ROUTE_T79Z0_244
 10
24.00558491076066
 20
6.0814566287932053
 30
0.0
  0
SEQEND
  5
F13F
  8
ROUTE_T79Z0_244
  0
LINE
  5
581
  8
ROUTE_T79Z0_244
 10
20.224584910760711
 20
9.7064566287931484
 30
0.0
 11
19.700474133564558
 21
5.3687818175247273
 31
0.0
  0
POLYLINE
  5
59E
  8
ROUTE_T79Z0_244
 66
     1
 10
0.0
 20
0.0
 30
0.0
  0
VERTEX
  5
F140
  8
ROUTE_T79Z0_244
 10
40.941647853944509
 20
8.0749184219306187
 30
0.0
 42
0.792033
  0
VERTEX
  5
F141
  8
ROUTE_T79Z0_244
 10
40.816647853944509
 20
7.7309184219306237
 30
0.0
 42
-0.128281
  0
VERTEX
  5
F142
  8
ROUTE_T79Z0_244
 10
41.379647853944512
 20
7.3249184219306178
 30
0.0
 42
0.4574270000000001
  0
VERTEX
  5
F143
  8
ROUTE_T79Z0_244
 10
41.847647853944579
 20
7.262918421930606
 30
0.0
 42
-0.098324
  0
VERTEX
  5
F144
  8
ROUTE_T79Z0_244
 10
42.379647853944498
 20
7.6059184219306237
 30
0.0
 42
0.501339
  0
VERTEX
  5
F145
  8
ROUTE_T79Z0_244
 10
42.379647853944498
 20
7.8559184219306237
 30
0.0
  0
VERTEX
  5
F146
  8
ROUTE_T79Z0_244
 10
40.941647853944509
 20
8.0749184219306187
 30
0.0
  0
SEQEND
  5
F147
  8
ROUTE_T79Z0_244
  0
POLYLINE
  5
5A0
  8
SHAPE_Z0_25C
 66
     1
 10
0.0
 20
0.0
 30
0.0
 70
     1
  0
VERTEX
  5
F148
  8
SHAPE_Z0_25C
 10
44.428513355577017
 20
20.830909801615601
 30
0.0
  0
VERTEX
  5
F149
  8
SHAPE_Z0_25C
 10
44.428513355577017
 20
19.48690980161561
 30
0.0
 42
0.252187
  0
VERTEX
  5
F14A
  8
SHAPE_Z0_25C
 10
44.772513355577068
 20
18.830909801615601
 30
0.0
 42
-0.861843
  0
VERTEX
  5
F14B
  8
SHAPE_Z0_25C
 10
43.803513355577017
 20
17.54990980161562
 30
0.0
 42
0.329307
  0
VERTEX
  5
F14C
  8
SHAPE_Z0_25C
 10
39.585513355577177
 20
18.42490980161562
 30
0.0
 42
-0.456882
  0
VERTEX
  5
F14D
  8
SHAPE_Z0_25C
 10
38.022513355577182
 20
20.674909801615591
 30
0.0
  0
VERTEX
  5
F14E
  8
SHAPE_Z0_25C
 10
37.959513355577201
 20
20.36190980161561
 30
0.0
 42
-0.7804630000000001
  0
VERTEX
  5
F14F
  8
SHAPE_Z0_25C
 10
36.991513355577119
 20
20.424909801615591
 30
0.0
 42
-0.452178
  0
VERTEX
  5
F150
  8
SHAPE_Z0_25C
 10
39.585513355577177
 20
23.33090980161554
 30
0.0
 42
0.360314
  0
VERTEX
  5
F151
  8
SHAPE_Z0_25C
 10
40.33551335557717
 20
23.924909801615541
 30
0.0
 42
-0.17391
  0
VERTEX
  5
F152
  8
SHAPE_Z0_25C
 10
41.053513355577131
 20
25.018909801615528
 30
0.0
 42
-1.0
  0
VERTEX
  5
F153
  8
SHAPE_Z0_25C
 10
41.928513355577138
 20
24.299909801615541
 30
0.0
 42
0.551056
  0
VERTEX
  5
F154
  8
SHAPE_Z0_25C
 10
42.616513355577119
 20
23.36190980161555
 30
0.0
  0
VERTEX
  5
F155
  8
SHAPE_Z0_25C
 10
43.585513355577064
 20
23.45590980161554
 30
0.0
 42
-0.4534470000000001
  0
VERTEX
  5
F156
  8
SHAPE_Z0_25C
 10
44.428513355577017
 20
22.705909801615569
 30
0.0
  0
VERTEX
  5
F157
  8
SHAPE_Z0_25C
 10
44.428513355577017
 20
20.830909801615601
 30
0.0
  0
SEQEND
  5
F158
  8
SHAPE_Z0_25C
  0
POLYLINE
  5
9AB
  8
SHAPE_Z0_25C
 66
     1
 10
0.0
 20
0.0
 30
0.0
  0
VERTEX
  5
F159
  8
SHAPE_Z0_25C
 10
46.288053500248878
 20
24.90904357859624
 30
0.0
  0
VERTEX
  5
F15A
  8
SHAPE_Z0_25C
 10
47.632053500248837
 20
24.53304357859626
 30
0.0
 42
0.4345890000000001
  0
VERTEX
  5
F15B
  8
SHAPE_Z0_25C
 10
48.226053500248831
 20
25.03304357859626
 30
0.0
  0
VERTEX
  5
F15C
  8
SHAPE_Z0_25C
 10
48.226053500248831
 20
25.90904357859624
 30
0.0
 42
0.6188229999999999
  0
VERTEX
  5
F15D
  8
SHAPE_Z0_25C
 10
47.382053500248837
 20
26.346043578596252
 30
0.0
 42
-0.469587
  0
VERTEX
  5
F15E
  8
SHAPE_Z0_25C
 10
47.069053500248849
 20
26.471043578596252
 30
0.0
  0
VERTEX
  5
F15F
  8
SHAPE_Z0_25C
 10
46.850053500248862
 20
27.002043578596201
 30
0.0
 42
0.30305
  0
VERTEX
  5
F160
  8
SHAPE_Z0_25C
 10
46.288053500248878
 20
27.40904357859624
 30
0.0
 42
0.30305
  0
VERTEX
  5
F161
  8
SHAPE_Z0_25C
 10
45.726053500248888
 20
27.002043578596201
 30
0.0
  0
VERTEX
  5
F162
  8
SHAPE_Z0_25C
 10
45.507053500248873
 20
26.471043578596252
 30
0.0
 42
-0.469586
  0
VERTEX
  5
F163
  8
SHAPE_Z0_25C
 10
45.194053500248877
 20
26.346043578596252
 30
0.0
 42
0.618824
  0
VERTEX
  5
F164
  8
SHAPE_Z0_25C
 10
44.35005350024889
 20
25.90904357859624
 30
0.0
  0
VERTEX
  5
F165
  8
SHAPE_Z0_25C
 10
44.35005350024889
 20
25.03304357859626
 30
0.0
 42
0.4345890000000001
  0
VERTEX
  5
F166
  8
SHAPE_Z0_25C
 10
44.944053500248877
 20
24.53304357859626
 30
0.0
  0
VERTEX
  5
F167
  8
SHAPE_Z0_25C
 10
46.288053500248878
 20
24.90904357859624
 30
0.0
  0
SEQEND
  5
F168
  8
SHAPE_Z0_25C
  0
TEXT
  5
A64
  8
QUANTITY
  6
CONTINUOUS
 10
45.558952460856219
 20
25.762428078105799
 30
0.0
 40
0.3076148722666296
  1
7 pcs.
  0
TEXT
  5
A69
  8
QUANTITY
  6
CONTINUOUS
 10
57.2312816773333
 20
15.34763329511258
 30
0.0
 40
0.3076148722666296
  1
2 pcs.
  0
TEXT
  5
A6A
  8
QUANTITY
  6
CONTINUOUS
 10
30.693121738915799
 20
9.0583576105595398
 30
0.0
 40
0.3076148722666296
  1
2 pcs.
  0
TEXT
  5
A7C
  8
GLOBALSHEETSTOCK
  6
CONTINUOUS
 10
21.909379932586472
 20
35.374047049466711
 30
0.0
 40
0.7874015748031403
  1
1/4 Baltic Birch
  0
TEXT
  5
B09
  8
QUANTITY
  6
CONTINUOUS
 10
31.4796766331051
 20
19.43447083922203
 30
0.0
 40
0.3076148722666296
  1
2 pcs.
  0
POLYLINE
  5
E23
  8
SHAPE_Z0_25C
  6
CONTINUOUS
 66
     1
 10
0.0
 20
0.0
 30
0.0
 70
     1
  0
VERTEX
  5
F169
  8
SHAPE_Z0_25C
  6
CONTINUOUS
 10
33.52133446635218
 20
18.257798582292651
 30
0.0
 42
-0.177228
  0
VERTEX
  5
F16A
  8
SHAPE_Z0_25C
  6
CONTINUOUS
 10
33.114334466352148
 20
17.757798582292679
 30
0.0
 42
0.0501279999999999
  0
VERTEX
  5
F16B
  8
SHAPE_Z0_25C
  6
CONTINUOUS
 10
33.052334466352129
 20
17.66379858229265
 30
0.0
 42
-0.1942659999999998
  0
VERTEX
  5
F16C
  8
SHAPE_Z0_25C
  6
CONTINUOUS
 10
32.396334466352187
 20
17.412798582292648
 30
0.0
  0
VERTEX
  5
F16D
  8
SHAPE_Z0_25C
  6
CONTINUOUS
 10
31.89633446635218
 20
17.412798582292648
 30
0.0
  0
VERTEX
  5
F16E
  8
SHAPE_Z0_25C
  6
CONTINUOUS
 10
30.77133446635218
 20
17.412798582292648
 30
0.0
 42
-0.3129720000000002
  0
VERTEX
  5
F16F
  8
SHAPE_Z0_25C
  6
CONTINUOUS
 10
29.927334466352249
 20
17.944798582292659
 30
0.0
 42
0.4297229999999984
  0
VERTEX
  5
F170
  8
SHAPE_Z0_25C
  6
CONTINUOUS
 10
29.114334466352261
 20
18.007798582292651
 30
0.0
 42
-0.56617598811737
  0
VERTEX
  5
F171
  8
SHAPE_Z0_25C
  6
CONTINUOUS
 10
28.114334466352261
 20
18.757798582292651
 30
0.0
  0
VERTEX
  5
F172
  8
SHAPE_Z0_25C
  6
CONTINUOUS
 10
28.114334466352261
 20
19.507798582292651
 30
0.0
  0
VERTEX
  5
F173
  8
SHAPE_Z0_25C
  6
CONTINUOUS
 10
28.114334466352261
 20
20.163798582292621
 30
0.0
 42
-0.2619789999999998
  0
VERTEX
  5
F174
  8
SHAPE_Z0_25C
  6
CONTINUOUS
 10
28.427334466352249
 20
20.72579858229264
 30
0.0
 42
-0.3162349999999999
  0
VERTEX
  5
F175
  8
SHAPE_Z0_25C
  6
CONTINUOUS
 10
35.614334466352148
 20
20.007798582292619
 30
0.0
 42
-0.8967919999999997
  0
VERTEX
  5
F176
  8
SHAPE_Z0_25C
  6
CONTINUOUS
 10
34.39633446635218
 20
18.131798582292639
 30
0.0
 42
0.5356080000000016
  0
SEQEND
  5
F177
  8
SHAPE_Z0_25C
  6
CONTINUOUS
  0
LINE
  5
E24
  8
ROUTE_T79Z0_244
 10
27.926834466352261
 20
19.507798582292619
 30
0.0
 11
30.614334466352151
 21
19.507798582292619
 31
0.0
  0
LINE
  5
E25
  8
ROUTE_T79Z0_244
 10
31.89633446635218
 20
17.225298582292648
 30
0.0
 11
31.89633446635218
 21
18.194798582292631
 31
0.0
  0
POLYLINE
  5
E46
  8
SHAPE_Z0_25C
 66
     1
 10
0.0
 20
0.0
 30
0.0
 70
     1
  0
VERTEX
  5
F178
  8
SHAPE_Z0_25C
 10
32.85091661348946
 20
22.335963847055218
 30
0.0
 42
-0.3729400000000005
  0
VERTEX
  5
F179
  8
SHAPE_Z0_25C
 10
31.632916613489488
 20
23.367963847055229
 30
0.0
 42
0.8711419999999973
  0
VERTEX
  5
F17A
  8
SHAPE_Z0_25C
 10
30.913916613489452
 20
23.55496384705522
 30
0.0
 42
-0.2513469999999994
  0
VERTEX
  5
F17B
  8
SHAPE_Z0_25C
 10
30.22691661348955
 20
23.21196384705523
 30
0.0
  0
VERTEX
  5
F17C
  8
SHAPE_Z0_25C
 10
29.663916613489452
 20
23.21196384705523
 30
0.0
  0
VERTEX
  5
F17D
  8
SHAPE_Z0_25C
 10
29.476916613489539
 20
23.21196384705523
 30
0.0
 42
-0.5707330000000012
  0
VERTEX
  5
F17E
  8
SHAPE_Z0_25C
 10
28.788916613489562
 20
24.30496384705522
 30
0.0
 42
0.2107119999999998
  0
VERTEX
  5
F17F
  8
SHAPE_Z0_25C
 10
28.788916613489562
 20
25.086963847055198
 30
0.0
 42
-0.8883520000000009
  0
VERTEX
  5
F180
  8
SHAPE_Z0_25C
 10
30.757916613489488
 20
25.648963847055189
 30
0.0
 42
0.3505689999999931
  0
VERTEX
  5
F181
  8
SHAPE_Z0_25C
 10
31.007916613489488
 20
25.461963847055198
 30
0.0
  0
VERTEX
  5
F182
  8
SHAPE_Z0_25C
 10
32.85091661348946
 20
25.461963847055198
 30
0.0
  0
VERTEX
  5
F183
  8
SHAPE_Z0_25C
 10
34.69491661348939
 20
25.461963847055198
 30
0.0
 42
0.3505689999999968
  0
VERTEX
  5
F184
  8
SHAPE_Z0_25C
 10
34.944916613489397
 20
25.648963847055189
 30
0.0
 42
-0.888352000000002
  0
VERTEX
  5
F185
  8
SHAPE_Z0_25C
 10
36.913916613489441
 20
25.086963847055198
 30
0.0
 42
0.2107120000000001
  0
VERTEX
  5
F186
  8
SHAPE_Z0_25C
 10
36.913916613489441
 20
24.30496384705522
 30
0.0
 42
-0.5702710000000013
  0
VERTEX
  5
F187
  8
SHAPE_Z0_25C
 10
36.226916613489429
 20
23.21196384705523
 30
0.0
  0
VERTEX
  5
F188
  8
SHAPE_Z0_25C
 10
36.038916613489441
 20
23.21196384705523
 30
0.0
  0
VERTEX
  5
F189
  8
SHAPE_Z0_25C
 10
35.476916613489429
 20
23.21196384705523
 30
0.0
 42
-0.2516800000000001
  0
VERTEX
  5
F18A
  8
SHAPE_Z0_25C
 10
34.788916613489441
 20
23.55496384705522
 30
0.0
 42
0.8711440000000006
  0
VERTEX
  5
F18B
  8
SHAPE_Z0_25C
 10
34.069916613489511
 20
23.367963847055229
 30
0.0
 42
-0.3731749999999999
  0
SEQEND
  5
F18C
  8
SHAPE_Z0_25C
  0
LINE
  5
E49
  8
ROUTE_T79Z0_244
 10
32.85091661348946
 20
25.649463847055198
 30
0.0
 11
32.85091661348946
 21
24.335963847055229
 31
0.0
  0
INSERT
  5
110A
  8
ROUTE_T79Z0_244
  6
CONTINUOUS
  2
*U0
 10
0.0
 20
0.0
 30
0.0
  0
LINE
  5
1B8D
  8
ROUTE_T79Z0_244
 10
42.866513355577133
 20
20.830909801615569
 30
0.0
 11
44.616013355577017
 21
20.830909801615569
 31
0.0
  0
LINE
  5
1B8F
  8
ROUTE_T79Z0_244
  6
CONTINUOUS
 10
46.28805350024885
 20
24.714344286114262
 30
0.0
 11
46.28805350024885
 21
25.53304357859626
 31
0.0
  0
LINE
  5
1BE6
  8
ROUTE_T79Z0_244
  6
CONTINUOUS
 10
58.359882221171802
 20
18.5351936239719
 30
0.0
 11
58.16204106566191
 21
22.171450583796219
 31
0.0
  0
POLYLINE
  5
1BE7
  8
SHAPE_Z0_25C
  6
CONTINUOUS
 66
     1
 10
0.0
 20
0.0
 30
0.0
 70
     1
  0
VERTEX
  5
F194
  8
SHAPE_Z0_25C
  6
CONTINUOUS
 10
57.796882221171813
 20
21.972193623971862
 30
0.0
 42
0.4133630000000014
  0
VERTEX
  5
F195
  8
SHAPE_Z0_25C
  6
CONTINUOUS
 10
57.109882221171802
 20
21.285193623971882
 30
0.0
  0
VERTEX
  5
F196
  8
SHAPE_Z0_25C
  6
CONTINUOUS
 10
56.984882221171908
 20
18.6601936239719
 30
0.0
 42
-0.3911640000000027
  0
VERTEX
  5
F197
  8
SHAPE_Z0_25C
  6
CONTINUOUS
 10
56.296882221171813
 20
17.910193623971931
 30
0.0
 42
0.1085759999999999
  0
VERTEX
  5
F198
  8
SHAPE_Z0_25C
  6
CONTINUOUS
 10
54.047882221171903
 20
17.285193623971931
 30
0.0
 42
-0.166976
  0
VERTEX
  5
F199
  8
SHAPE_Z0_25C
  6
CONTINUOUS
 10
50.796882221171927
 20
16.785193623971931
 30
0.0
 42
0.1810189999999999
  0
VERTEX
  5
F19A
  8
SHAPE_Z0_25C
  6
CONTINUOUS
 10
47.046882221171927
 20
16.09719362397194
 30
0.0
 42
0.6591709999999967
  0
VERTEX
  5
F19B
  8
SHAPE_Z0_25C
  6
CONTINUOUS
 10
47.484882221171908
 20
15.03519362397196
 30
0.0
 42
-0.1410559999999999
  0
VERTEX
  5
F19C
  8
SHAPE_Z0_25C
  6
CONTINUOUS
 10
50.734882221171908
 20
15.066193623971969
 30
0.0
 42
0.0994149999999999
  0
VERTEX
  5
F19D
  8
SHAPE_Z0_25C
  6
CONTINUOUS
 10
53.609882221171922
 20
14.91019362397196
 30
0.0
 42
-0.7219799999999916
  0
VERTEX
  5
F19E
  8
SHAPE_Z0_25C
  6
CONTINUOUS
 10
53.79688222117192
 20
14.34819362397198
 30
0.0
 42
0.282793
  0
VERTEX
  5
F19F
  8
SHAPE_Z0_25C
  6
CONTINUOUS
 10
54.484882221171908
 20
13.84819362397198
 30
0.0
 42
-0.6349320000000036
  0
VERTEX
  5
F1A0
  8
SHAPE_Z0_25C
  6
CONTINUOUS
 10
55.109882221171908
 20
11.91019362397199
 30
0.0
 42
0.7117810000000027
  0
VERTEX
  5
F1A1
  8
SHAPE_Z0_25C
  6
CONTINUOUS
 10
55.859882221171908
 20
10.848193623972
 30
0.0
 42
-0.2685000000000002
  0
VERTEX
  5
F1A2
  8
SHAPE_Z0_25C
  6
CONTINUOUS
 10
56.422882221171911
 20
10.848193623972
 30
0.0
 42
0.6824639999999912
  0
VERTEX
  5
F1A3
  8
SHAPE_Z0_25C
  6
CONTINUOUS
 10
57.296882221171813
 20
11.78519362397199
 30
0.0
 42
-0.6936849999999959
  0
VERTEX
  5
F1A4
  8
SHAPE_Z0_25C
  6
CONTINUOUS
 10
58.609882221171802
 20
12.28519362397199
 30
0.0
 42
0.8043260000000007
  0
VERTEX
  5
F1A5
  8
SHAPE_Z0_25C
  6
CONTINUOUS
 10
60.67288222117179
 20
13.34819362397198
 30
0.0
 42
-0.2416089999999998
  0
VERTEX
  5
F1A6
  8
SHAPE_Z0_25C
  6
CONTINUOUS
 10
60.234882221171802
 20
15.47219362397194
 30
0.0
 42
0.2535739999999996
  0
VERTEX
  5
F1A7
  8
SHAPE_Z0_25C
  6
CONTINUOUS
 10
58.984882221171802
 20
21.72219362397189
 30
0.0
 42
0.1449182582141601
  0
VERTEX
  5
F1A8
  8
SHAPE_Z0_25C
  6
CONTINUOUS
 10
58.172230046609911
 20
21.984180383166802
 30
0.0
  0
SEQEND
  5
F1A9
  8
SHAPE_Z0_25C
  6
CONTINUOUS
  0
LINE
  5
1BED
  8
ROUTE_T79Z0_244
  6
CONTINUOUS
 10
44.754647853944498
 20
8.6369184219306021
 30
0.0
 11
46.660147853944459
 21
8.6369184219306021
 31
0.0
  0
POLYLINE
  5
1BFD
  8
SHAPE_Z0_25C
 66
     1
 10
0.0
 20
0.0
 30
0.0
 70
     1
  0
VERTEX
  5
F1AA
  8
SHAPE_Z0_25C
 10
44.003647853944528
 20
11.07491842193056
 30
0.0
 42
-0.23264
  0
VERTEX
  5
F1AB
  8
SHAPE_Z0_25C
 10
40.582647853944593
 20
10.19991842193059
 30
0.0
 42
0.5157229999999993
  0
VERTEX
  5
F1AC
  8
SHAPE_Z0_25C
 10
38.722647853944579
 20
8.3869184219306021
 30
0.0
  0
VERTEX
  5
F1AD
  8
SHAPE_Z0_25C
 10
38.629647853944618
 20
8.6999184219305903
 30
0.0
 42
0.6299120000000076
  0
VERTEX
  5
F1AE
  8
SHAPE_Z0_25C
 10
38.06664785394463
 20
8.3249184219306187
 30
0.0
 42
0.3975189999999993
  0
VERTEX
  5
F1AF
  8
SHAPE_Z0_25C
 10
40.066647853944509
 20
6.6369184219306296
 30
0.0
 42
-0.3363639999999988
  0
VERTEX
  5
F1B0
  8
SHAPE_Z0_25C
 10
40.754647853944512
 20
6.3249184219306178
 30
0.0
 42
0.4022740000000002
  0
VERTEX
  5
F1B1
  8
SHAPE_Z0_25C
 10
41.754647853944498
 20
6.0439184219306412
 30
0.0
 42
-0.27492
  0
VERTEX
  5
F1B2
  8
SHAPE_Z0_25C
 10
44.629647853944498
 20
6.0439184219306412
 30
0.0
 42
0.5502210000000005
  0
VERTEX
  5
F1B3
  8
SHAPE_Z0_25C
 10
46.472647853944473
 20
7.0749184219306178
 30
0.0
  0
VERTEX
  5
F1B4
  8
SHAPE_Z0_25C
 10
46.472647853944473
 20
8.6369184219306021
 30
0.0
  0
VERTEX
  5
F1B5
  8
SHAPE_Z0_25C
 10
46.472647853944473
 20
9.1369184219306021
 30
0.0
 42
0.4572939999999983
  0
VERTEX
  5
F1B6
  8
SHAPE_Z0_25C
 10
45.691647853944509
 20
9.8249184219305903
 30
0.0
 42
-0.5739690000000041
  0
VERTEX
  5
F1B7
  8
SHAPE_Z0_25C
 10
45.003647853944521
 20
10.51191842193057
 30
0.0
 42
0.6574539999999988
  0
SEQEND
  5
F1B8
  8
SHAPE_Z0_25C
  0
TEXT
  5
1CB9
  8
QUANTITY
  6
CONTINUOUS
 10
42.606501824445502
 20
9.1880851764636304
 30
0.0
 40
0.3076148722666296
  1
2 pcs.
  0
LINE
  5
1D1C
  8
ROUTE_T79Z0_244
 10
32.274855855066328
 20
9.5904968607584635
 30
0.0
 11
32.274855855066328
 21
11.100347254459219
 31
0.0
  0
POLYLINE
  5
1D2C
  8
SHAPE_Z0_25C
 66
     1
 10
0.0
 20
0.0
 30
0.0
 70
     1
  0
VERTEX
  5
F1B9
  8
SHAPE_Z0_25C
 10
33.68085585506639
 20
10.059496860758451
 30
0.0
 42
0.3345820000000003
  0
VERTEX
  5
F1BA
  8
SHAPE_Z0_25C
 10
35.087855855066323
 20
8.1524968607584753
 30
0.0
 42
-0.7116800000000041
  0
VERTEX
  5
F1BB
  8
SHAPE_Z0_25C
 10
35.024855855066328
 20
7.0904968607584911
 30
0.0
 42
0.356662000000001
  0
VERTEX
  5
F1BC
  8
SHAPE_Z0_25C
 10
34.806855855066367
 20
6.809496860758486
 30
0.0
 42
-0.5386629999999996
  0
VERTEX
  5
F1BD
  8
SHAPE_Z0_25C
 10
33.993855855066379
 20
6.3404968607584911
 30
0.0
 42
-0.2783509999999996
  0
VERTEX
  5
F1BE
  8
SHAPE_Z0_25C
 10
32.962855855066429
 20
7.9034968607584801
 30
0.0
 42
0.2132179999999988
  0
VERTEX
  5
F1BF
  8
SHAPE_Z0_25C
 10
32.587855855066429
 20
8.684496860758486
 30
0.0
 42
-0.6567430000000013
  0
VERTEX
  5
F1C0
  8
SHAPE_Z0_25C
 10
30.868855855066379
 20
8.5904968607584902
 30
0.0
 42
0.4677839999999999
  0
VERTEX
  5
F1C1
  8
SHAPE_Z0_25C
 10
28.243855855066499
 20
6.6534968607585077
 30
0.0
 42
-0.9999999999999971
  0
VERTEX
  5
F1C2
  8
SHAPE_Z0_25C
 10
27.430855855066511
 20
6.684496860758486
 30
0.0
 42
-0.4016030000000004
  0
VERTEX
  5
F1C3
  8
SHAPE_Z0_25C
 10
29.399855855066448
 20
9.5274968607584452
 30
0.0
 42
0.290334
  0
VERTEX
  5
F1C4
  8
SHAPE_Z0_25C
 10
30.087855855066429
 20
10.059496860758451
 30
0.0
  0
VERTEX
  5
F1C5
  8
SHAPE_Z0_25C
 10
30.087855855066429
 20
10.90349686075845
 30
0.0
  0
VERTEX
  5
F1C6
  8
SHAPE_Z0_25C
 10
33.68085585506639
 20
10.90349686075845
 30
0.0
  0
SEQEND
  5
F1C7
  8
SHAPE_Z0_25C
  0
POLYLINE
  5
24BA
  8
TEMP
  6
CONTINUOUS
 66
     1
 10
0.0
 20
0.0
 30
0.0
 70
     1
  0
VERTEX
  5
F1C8
  8
TEMP
  6
CONTINUOUS
 10
570.80532398832815
 20
207.911559947889
 30
0.0
  0
VERTEX
  5
F1C9
  8
TEMP
  6
CONTINUOUS
 10
577.90942583428534
 20
207.911559947889
 30
0.0
  0
VERTEX
  5
F1CA
  8
TEMP
  6
CONTINUOUS
 10
577.90939550224721
 20
215.015631461808
 30
0.0
  0
VERTEX
  5
F1CB
  8
TEMP
  6
CONTINUOUS
 10
570.80532398832815
 20
215.0156011296402
 30
0.0
  0
SEQEND
  5
F1CC
  8
TEMP
  6
CONTINUOUS
  0
POLYLINE
  5
252D
  8
TEMP
  6
CONTINUOUS
 66
     1
 10
0.0
 20
0.0
 30
0.0
 70
     1
  0
VERTEX
  5
F1CD
  8
TEMP
  6
CONTINUOUS
 10
570.80532398832815
 20
207.911559947889
 30
0.0
  0
VERTEX
  5
F1CE
  8
TEMP
  6
CONTINUOUS
 10
577.90942583428534
 20
207.911559947889
 30
0.0
  0
VERTEX
  5
F1CF
  8
TEMP
  6
CONTINUOUS
 10
577.90939550224721
 20
215.015631461808
 30
0.0
  0
VERTEX
  5
F1D0
  8
TEMP
  6
CONTINUOUS
 10
570.80532398832815
 20
215.0156011296402
 30
0.0
  0
SEQEND
  5
F1D1
  8
TEMP
  6
CONTINUOUS
  0
POLYLINE
  5
2625
  8
TEMP
  6
CONTINUOUS
 66
     1
 10
0.0
 20
0.0
 30
0.0
 70
     1
  0
VERTEX
  5
F1D2
  8
TEMP
  6
CONTINUOUS
 10
575.81756591796875
 20
196.93991088867179
 30
0.0
  0
VERTEX
  5
F1D3
  8
TEMP
  6
CONTINUOUS
 10
582.01190172709244
 20
196.93991088867179
 30
0.0
  0
VERTEX
  5
F1D4
  8
TEMP
  6
CONTINUOUS
 10
582.01190185546875
 20
206.05905151367179
 30
0.0
  0
VERTEX
  5
F1D5
  8
TEMP
  6
CONTINUOUS
 10
575.81756591796875
 20
206.05905160087369
 30
0.0
  0
SEQEND
  5
F1D6
  8
TEMP
  6
CONTINUOUS
  0
TEXT
  5
CCB9
  8
0
  6
CONTINUOUS
 10
21.909379932586472
 20
37.009182332815847
 30
0.0
 40
0.7874015748031403
  1
1/4 interior cuts
  0
TEXT
  5
CCBA
  8
0
  6
CONTINUOUS
 10
21.909379932586472
 20
38.64431761616499
 30
0.0
 40
0.7874015748031403
  1
3/8 shape cutter
  0
LINE
  5
CCFE
  8
ROUTE_T79Z0_244
  6
CONTINUOUS
 10
21.896084910760671
 20
10.175456628793141
 30
0.0
 11
21.896084910760671
 21
5.406109218883639
 31
0.0
  0
POLYLINE
  5
CD01
  8
SHAPE_Z0_25C
 66
     1
 10
0.0
 20
0.0
 30
0.0
 70
     1
  0
VERTEX
  5
F1D7
  8
SHAPE_Z0_25C
 10
21.896084910760681
 20
15.60695578099056
 30
0.0
 42
0.3666089976367483
  0
VERTEX
  5
F1D8
  8
SHAPE_Z0_25C
 10
23.602736945299821
 20
15.174281578124971
 30
0.0
 42
0.3221733151927171
  0
VERTEX
  5
F1D9
  8
SHAPE_Z0_25C
 10
25.008680852102259
 20
14.146336775332429
 30
0.0
 42
0.328104774160666
  0
VERTEX
  5
F1DA
  8
SHAPE_Z0_25C
 10
25.855895715970821
 20
12.62439207130056
 30
0.0
 42
0.361900655616751
  0
VERTEX
  5
F1DB
  8
SHAPE_Z0_25C
 10
26.15776288314926
 20
10.900524315566949
 30
0.0
 42
0.3619006556167535
  0
VERTEX
  5
F1DC
  8
SHAPE_Z0_25C
 10
25.995516323259309
 20
9.1579630168798083
 30
0.0
 42
0.3535063457936577
  0
VERTEX
  5
F1DD
  8
SHAPE_Z0_25C
 10
25.349451789760661
 20
6.8720356277931627
 30
0.0
 42
0.1503066944498157
  0
VERTEX
  5
F1DE
  8
SHAPE_Z0_25C
 10
25.739179652279759
 20
6.3934566287931878
 30
0.0
 42
-0.8902127117332195
  0
VERTEX
  5
F1DF
  8
SHAPE_Z0_25C
 10
25.005584910760621
 20
5.2844566287932082
 30
0.0
  0
VERTEX
  5
F1E0
  8
SHAPE_Z0_25C
 10
24.005584910760621
 20
6.0814566287932053
 30
0.0
  0
VERTEX
  5
F1E1
  8
SHAPE_Z0_25C
 10
24.058191945811711
 20
5.646067354683491
 30
0.0
  0
VERTEX
  5
F1E2
  8
SHAPE_Z0_25C
 10
22.94358491076061
 20
6.4564566287931759
 30
0.0
  0
VERTEX
  5
F1E3
  8
SHAPE_Z0_25C
 10
21.896084910760631
 20
5.6434566287931878
 30
0.0
  0
VERTEX
  5
F1E4
  8
SHAPE_Z0_25C
 10
20.848584910760732
 20
6.4564566287931759
 30
0.0
  0
VERTEX
  5
F1E5
  8
SHAPE_Z0_25C
 10
19.733977875709549
 20
5.6460673546835016
 30
0.0
  0
VERTEX
  5
F1E6
  8
SHAPE_Z0_25C
 10
19.78658491076072
 20
6.0814566287932053
 30
0.0
  0
VERTEX
  5
F1E7
  8
SHAPE_Z0_25C
 10
18.78658491076072
 20
5.2844566287932082
 30
0.0
 42
-0.8902127117332195
  0
VERTEX
  5
F1E8
  8
SHAPE_Z0_25C
 10
18.052990169241578
 20
6.3934566287931878
 30
0.0
 42
0.1503066944498157
  0
VERTEX
  5
F1E9
  8
SHAPE_Z0_25C
 10
18.44271803176068
 20
6.8720356277931627
 30
0.0
 42
0.3535063457936577
  0
VERTEX
  5
F1EA
  8
SHAPE_Z0_25C
 10
17.796653498262039
 20
9.1579630168798083
 30
0.0
 42
0.3619006556167535
  0
VERTEX
  5
F1EB
  8
SHAPE_Z0_25C
 10
17.634406938372081
 20
10.900524315566949
 30
0.0
 42
0.361900655616751
  0
VERTEX
  5
F1EC
  8
SHAPE_Z0_25C
 10
17.93627410555052
 20
12.62439207130056
 30
0.0
 42
0.328104774160666
  0
VERTEX
  5
F1ED
  8
SHAPE_Z0_25C
 10
18.783488969419079
 20
14.146336775332429
 30
0.0
 42
0.3221733151927171
  0
VERTEX
  5
F1EE
  8
SHAPE_Z0_25C
 10
20.18943287622152
 20
15.174281578124971
 30
0.0
 42
0.3666089976367483
  0
SEQEND
  5
F1EF
  8
SHAPE_Z0_25C
  0
POLYLINE
  5
CD10
  8
SHAPE_Z0_25C
 66
     1
 10
0.0
 20
0.0
 30
0.0
 70
     1
  0
VERTEX
  5
F1F0
  8
SHAPE_Z0_25C
 10
49.549081100278237
 20
11.22813355671024
 30
0.0
  0
VERTEX
  5
F1F1
  8
SHAPE_Z0_25C
 10
48.805081100278322
 20
7.9151335567102867
 30
0.0
 42
1.0562486025372759
  0
VERTEX
  5
F1F2
  8
SHAPE_Z0_25C
 10
49.96913985628774
 20
7.8841335567103101
 30
0.0
  0
VERTEX
  5
F1F3
  8
SHAPE_Z0_25C
 10
50.211081100278278
 20
5.852133556710327
 30
0.0
 42
0.3593779999999993
  0
VERTEX
  5
F1F4
  8
SHAPE_Z0_25C
 10
50.805081100278329
 20
5.3841335567103377
 30
0.0
  0
VERTEX
  5
F1F5
  8
SHAPE_Z0_25C
 10
51.993081100278197
 20
5.3841335567103377
 30
0.0
 42
0.3593779999999993
  0
VERTEX
  5
F1F6
  8
SHAPE_Z0_25C
 10
52.587081100278247
 20
5.852133556710327
 30
0.0
  0
VERTEX
  5
F1F7
  8
SHAPE_Z0_25C
 10
52.829022344268793
 20
7.8841335567103101
 30
0.0
 42
1.0562486025372759
  0
VERTEX
  5
F1F8
  8
SHAPE_Z0_25C
 10
53.993081100278211
 20
7.9151335567102867
 30
0.0
  0
VERTEX
  5
F1F9
  8
SHAPE_Z0_25C
 10
53.249081100278289
 20
11.22813355671024
 30
0.0
  0
SEQEND
  5
F1FA
  8
SHAPE_Z0_25C
  0
LINE
  5
CD11
  8
ROUTE_T79Z0_244
  6
CONTINUOUS
 10
49.898533971599562
 20
8.4771335567102994
 30
0.0
 11
49.96913985628774
 21
7.884133556710359
 31
0.0
  0
LINE
  5
CD12
  8
ROUTE_T79Z0_244
 10
51.399081100278259
 20
5.1966335567103377
 30
0.0
 11
51.399081100278259
 21
6.9461335567102926
 31
0.0
  0
LINE
  5
CD13
  8
ROUTE_T79Z0_244
 10
51.399081100278259
 20
9.9781335567102758
 30
0.0
 11
51.399081100278259
 21
11.41563355671024
 31
0.0
  0
LINE
  5
CD14
  8
ROUTE_T79Z0_244
  6
CONTINUOUS
 10
52.899628228956971
 20
8.4771335567102994
 30
0.0
 11
52.829022344268793
 21
7.884133556710359
 31
0.0
  0
LINE
  5
CD16
  8
ROUTE_T79Z0_244
  6
CONTINUOUS
 10
26.187945685848199
 20
27.13932858033553
 30
0.0
 11
26.756424008973401
 21
28.89925028994665
 31
0.0
  0
LINE
  5
CD17
  8
ROUTE_T79Z0_244
  6
CONTINUOUS
 10
28.49601153399129
 20
27.578375039767788
 30
0.0
 11
28.351424008973421
 21
29.02425028994665
 31
0.0
  0
LINE
  5
CD18
  8
ROUTE_T79Z0_244
  6
CONTINUOUS
 10
24.85690233209862
 20
27.13932858033553
 30
0.0
 11
24.288424008973429
 21
28.89925028994665
 31
0.0
  0
LINE
  5
CD19
  8
ROUTE_T79Z0_244
  6
CONTINUOUS
 10
22.54983648395563
 20
27.578375039767788
 30
0.0
 11
22.694424008973499
 21
29.02425028994665
 31
0.0
  0
LINE
  5
CD1A
  8
ROUTE_T79Z0_244
  6
CONTINUOUS
 10
25.52242400897347
 20
29.930250289946649
 30
0.0
 11
25.52242400897347
 21
30.8781006836474
 31
0.0
  0
LINE
  5
CD1B
  8
ROUTE_T79Z0_244
  6
CONTINUOUS
 10
23.475424008973441
 20
30.8781006836474
 30
0.0
 11
23.475424008973441
 21
29.930250289946649
 31
0.0
  0
LINE
  5
CD1C
  8
ROUTE_T79Z0_244
  6
CONTINUOUS
 10
27.569424008973382
 20
30.8781006836474
 30
0.0
 11
27.569424008973382
 21
29.930250289946649
 31
0.0
  0
LINE
  5
CD3C
  8
ROUTE_T79Z0_244
 10
31.887010449298408
 20
29.915958377796048
 30
0.0
 11
33.28922602748608
 21
30.208562269454561
 31
0.0
  0
POLYLINE
  5
CD40
  8
SHAPE_Z0_25C
  6
CONTINUOUS
 66
     1
 10
0.0
 20
0.0
 30
0.0
 70
     1
  0
VERTEX
  5
F1FB
  8
SHAPE_Z0_25C
  6
CONTINUOUS
 10
22.125606150061522
 20
24.77455070140072
 30
0.0
  0
VERTEX
  5
F1FC
  8
SHAPE_Z0_25C
  6
CONTINUOUS
 10
21.625606150061529
 20
24.77455070140072
 30
0.0
  0
VERTEX
  5
F1FD
  8
SHAPE_Z0_25C
  6
CONTINUOUS
 10
21.125606150061522
 20
24.77455070140072
 30
0.0
  0
VERTEX
  5
F1FE
  8
SHAPE_Z0_25C
  6
CONTINUOUS
 10
21.125606150061522
 20
24.77455070140072
 30
0.0
 42
0.3824369999999997
  0
VERTEX
  5
F1FF
  8
SHAPE_Z0_25C
  6
CONTINUOUS
 10
20.34460615006158
 20
24.148550701400719
 30
0.0
 42
-0.2439280000000001
  0
VERTEX
  5
F200
  8
SHAPE_Z0_25C
  6
CONTINUOUS
 10
19.937606150061541
 20
23.55555070140073
 30
0.0
 42
0.0821300000000001
  0
VERTEX
  5
F201
  8
SHAPE_Z0_25C
  6
CONTINUOUS
 10
19.594606150061569
 20
23.398550701400719
 30
0.0
  0
VERTEX
  5
F202
  8
SHAPE_Z0_25C
  6
CONTINUOUS
 10
19.594606150061569
 20
22.898550701400751
 30
0.0
  0
VERTEX
  5
F203
  8
SHAPE_Z0_25C
  6
CONTINUOUS
 10
19.406606150061592
 20
22.898550701400751
 30
0.0
 42
0.3216210000000003
  0
VERTEX
  5
F204
  8
SHAPE_Z0_25C
  6
CONTINUOUS
 10
18.531606150061592
 20
22.242550701400742
 30
0.0
 42
-0.3033120000000007
  0
VERTEX
  5
F205
  8
SHAPE_Z0_25C
  6
CONTINUOUS
 10
18.281606150061592
 20
22.05555070140073
 30
0.0
 42
0.6582959999999992
  0
VERTEX
  5
F206
  8
SHAPE_Z0_25C
  6
CONTINUOUS
 10
18.094606150061569
 20
20.805550701400762
 30
0.0
 42
-0.2977210000000003
  0
VERTEX
  5
F207
  8
SHAPE_Z0_25C
  6
CONTINUOUS
 10
18.406606150061592
 20
20.274550701400781
 30
0.0
  0
VERTEX
  5
F208
  8
SHAPE_Z0_25C
  6
CONTINUOUS
 10
18.406606150061592
 20
18.430550701400779
 30
0.0
 42
0.9057920000000006
  0
VERTEX
  5
F209
  8
SHAPE_Z0_25C
  6
CONTINUOUS
 10
20.906606150061592
 20
17.930550701400779
 30
0.0
 42
-0.32658
  0
VERTEX
  5
F20A
  8
SHAPE_Z0_25C
  6
CONTINUOUS
 10
21.156606150061592
 20
18.148550701400801
 30
0.0
  0
VERTEX
  5
F20B
  8
SHAPE_Z0_25C
  6
CONTINUOUS
 10
21.625606150061529
 20
18.148550701400801
 30
0.0
  0
VERTEX
  5
F20C
  8
SHAPE_Z0_25C
  6
CONTINUOUS
 10
22.094606150061569
 20
18.148550701400801
 30
0.0
 42
-0.3265800000000002
  0
VERTEX
  5
F20D
  8
SHAPE_Z0_25C
  6
CONTINUOUS
 10
22.344606150061569
 20
17.930550701400779
 30
0.0
 42
0.9057920000000006
  0
VERTEX
  5
F20E
  8
SHAPE_Z0_25C
  6
CONTINUOUS
 10
24.844606150061459
 20
18.430550701400779
 30
0.0
  0
VERTEX
  5
F20F
  8
SHAPE_Z0_25C
  6
CONTINUOUS
 10
24.844606150061459
 20
20.274550701400781
 30
0.0
 42
-0.2977210000000005
  0
VERTEX
  5
F210
  8
SHAPE_Z0_25C
  6
CONTINUOUS
 10
25.156606150061471
 20
20.805550701400762
 30
0.0
 42
0.6584919999999994
  0
VERTEX
  5
F211
  8
SHAPE_Z0_25C
  6
CONTINUOUS
 10
24.968606150061479
 20
22.05555070140073
 30
0.0
 42
-0.3033119999999985
  0
VERTEX
  5
F212
  8
SHAPE_Z0_25C
  6
CONTINUOUS
 10
24.71860615006149
 20
22.242550701400742
 30
0.0
 42
0.3213309999999993
  0
VERTEX
  5
F213
  8
SHAPE_Z0_25C
  6
CONTINUOUS
 10
23.844606150061459
 20
22.898550701400751
 30
0.0
  0
VERTEX
  5
F214
  8
SHAPE_Z0_25C
  6
CONTINUOUS
 10
23.656606150061471
 20
22.898550701400751
 30
0.0
  0
VERTEX
  5
F215
  8
SHAPE_Z0_25C
  6
CONTINUOUS
 10
23.656606150061471
 20
23.398550701400719
 30
0.0
 42
0.082331
  0
VERTEX
  5
F216
  8
SHAPE_Z0_25C
  6
CONTINUOUS
 10
23.312606150061541
 20
23.55555070140073
 30
0.0
 42
-0.243711999999999
  0
VERTEX
  5
F217
  8
SHAPE_Z0_25C
  6
CONTINUOUS
 10
22.906606150061471
 20
24.148550701400719
 30
0.0
 42
0.3824369999999995
  0
SEQEND
  5
F218
  8
SHAPE_Z0_25C
  6
CONTINUOUS
  0
LINE
  5
CD41
  8
ROUTE_T79Z0_244
 10
23.656606150061471
 20
20.274550701400749
 30
0.0
 11
23.656606150061471
 21
23.617830115945988
 31
0.0
  0
LINE
  5
CD42
  8
ROUTE_T79Z0_244
 10
19.594606150061569
 20
20.274550701400749
 30
0.0
 11
19.594606150061569
 21
23.617914463200261
 31
0.0
  0
LINE
  5
CD43
  8
ROUTE_T79Z0_244
 10
21.625606150061529
 20
23.08705070140072
 30
0.0
 11
21.625606150061529
 21
24.962050701400731
 31
0.0
  0
LINE
  5
CDC6
  8
ROUTE_T79Z0_244
  6
CONTINUOUS
 10
35.742399404487429
 20
32.684585131319309
 30
0.0
 11
38.519195323846731
 21
36.696166079055978
 31
0.0
  0
LINE
  5
CDCD
  8
ROUTE_T79Z0_244
  6
CONTINUOUS
 10
41.129976799953397
 20
27.602202898131459
 30
0.0
 11
41.113816093845031
 21
26.13374136119355
 31
0.0
  0
LINE
  5
CE0D
  8
ROUTE_T79Z0_244
  6
CONTINUOUS
 10
40.399322119131917
 20
31.93994742103143
 30
0.0
 11
40.472090611412717
 21
30.986763795954861
 31
0.0
  0
LINE
  5
CE15
  8
ROUTE_T79Z0_244
  6
CONTINUOUS
 10
47.955077352452328
 20
31.431860639099039
 30
0.0
 11
48.153215623636953
 21
32.349376204363523
 31
0.0
  0
LINE
  5
CE1A
  8
ROUTE_T79Z0_244
  6
CONTINUOUS
 10
41.716467841481673
 20
31.371666136878758
 30
0.0
 11
41.643520468486223
 21
32.325334286862272
 31
0.0
  0
LINE
  5
CE1B
  8
ROUTE_T79Z0_244
  6
CONTINUOUS
 10
39.240683698775811
 20
31.683154501843308
 30
0.0
 11
39.310275426440541
 21
30.726984765275851
 31
0.0
  0
LINE
  5
CE1C
  8
ROUTE_T79Z0_244
  6
CONTINUOUS
 10
38.277756361990093
 20
31.52955005557677
 30
0.0
 11
38.330148462102201
 21
30.59260491051554
 31
0.0
  0
LINE
  5
CE4F
  8
ROUTE_T79Z0_244
  6
CONTINUOUS
 10
33.269323609900809
 20
14.14858866112618
 30
0.0
 11
33.345771995643879
 21
15.020242631642731
 31
0.0
  0
LINE
  5
CE51
  8
ROUTE_T79Z0_244
  6
CONTINUOUS
 10
34.436314073932898
 20
13.98608651536823
 30
0.0
 11
34.600910204780398
 21
14.84546600878779
 31
0.0
  0
LINE
  5
CE52
  8
ROUTE_T79Z0_244
  6
CONTINUOUS
 10
35.858407954364523
 20
14.575449203920581
 30
0.0
 11
35.700983191272591
 21
13.71472715589028
 31
0.0
  0
LINE
  5
CE53
  8
ROUTE_T79Z0_244
  6
CONTINUOUS
 10
37.097583155343287
 20
14.41597550624903
 30
0.0
 11
37.031949147879402
 21
13.543440591724551
 31
0.0
  0
LINE
  5
CE54
  8
ROUTE_T79Z0_244
  6
CONTINUOUS
 10
38.365912018905469
 20
14.38888387670284
 30
0.0
 11
38.3942282976314
 21
13.51434217480457
 31
0.0
  0
LINE
  5
CE55
  8
ROUTE_T79Z0_244
  6
CONTINUOUS
 10
39.542962696582393
 20
14.486068959360169
 30
0.0
 11
39.658467914395459
 21
13.618726152473529
 31
0.0
  0
LINE
  5
CE56
  8
ROUTE_T79Z0_244
  6
CONTINUOUS
 10
40.64848248720638
 20
14.68720907024057
 30
0.0
 11
40.845878059880498
 21
13.83476553082658
 31
0.0
  0
LINE
  5
CEFA
  8
ROUTE_T79Z0_244
  6
CONTINUOUS
 10
29.294939982594471
 20
13.536902617453039
 30
0.0
 11
27.677864154847949
 21
12.71602015490574
 31
0.0
  0
LINE
  5
CEFF
  8
ROUTE_T79Z0_244
  6
CONTINUOUS
 10
52.841370737230299
 20
28.124325887407998
 30
0.0
 11
51.482753390767698
 21
29.325550743915219
 31
0.0
  0
POLYLINE
  5
D197
  8
SHAPE_Z0_25C
 66
     1
 10
0.0
 20
0.0
 30
0.0
  0
VERTEX
  5
F219
  8
SHAPE_Z0_25C
 10
52.249643215625021
 20
30.16823540157494
 30
0.0
  0
VERTEX
  5
F21A
  8
SHAPE_Z0_25C
 10
52.624994027058008
 20
30.726946387187819
 30
0.0
 42
0.418106924042861
  0
VERTEX
  5
F21B
  8
SHAPE_Z0_25C
 10
52.515712165195147
 20
31.430291610559969
 30
0.0
 42
0.0088734365435309
  0
VERTEX
  5
F21C
  8
SHAPE_Z0_25C
 10
52.120113478516352
 20
31.704945460845838
 30
0.0
 42
0.4345762535573908
  0
VERTEX
  5
F21D
  8
SHAPE_Z0_25C
 10
51.40841320845098
 20
31.537718881231172
 30
0.0
  0
VERTEX
  5
F21E
  8
SHAPE_Z0_25C
 10
51.0414672644593
 20
30.95987473283601
 30
0.0
  0
VERTEX
  5
F21F
  8
SHAPE_Z0_25C
 10
51.369148007954642
 20
31.594919135056781
 30
0.0
 42
0.4178302939224177
  0
VERTEX
  5
F220
  8
SHAPE_Z0_25C
 10
51.178382166197771
 20
32.280320097913162
 30
0.0
 42
0.0088767198234255
  0
VERTEX
  5
F221
  8
SHAPE_Z0_25C
 10
50.75330347585404
 20
32.507064020048531
 30
0.0
 42
0.4347396376634098
  0
VERTEX
  5
F222
  8
SHAPE_Z0_25C
 10
50.06584643608128
 20
32.257746942698141
 30
0.0
  0
VERTEX
  5
F223
  8
SHAPE_Z0_25C
 10
49.752096092875277
 20
31.600948242228231
 30
0.0
  0
VERTEX
  5
F224
  8
SHAPE_Z0_25C
 10
50.020380070381911
 20
32.31049112784406
 30
0.0
 42
0.4176692660596623
  0
VERTEX
  5
F225
  8
SHAPE_Z0_25C
 10
49.75089499825831
 20
32.968723380865192
 30
0.0
 42
0.0094794845856692
  0
VERTEX
  5
F226
  8
SHAPE_Z0_25C
 10
49.27159545489004
 20
33.155706502523479
 30
0.0
 42
0.4340724103562229
  0
VERTEX
  5
F227
  8
SHAPE_Z0_25C
 10
48.619002808316687
 20
32.827439775049712
 30
0.0
  0
VERTEX
  5
F228
  8
SHAPE_Z0_25C
 10
48.401014725000799
 20
32.085252047867442
 30
0.0
  0
VERTEX
  5
F229
  8
SHAPE_Z0_25C
 10
48.401014725000799
 20
32.085252047867442
 30
0.0
 42
0.1544518714872223
  0
VERTEX
  5
F22A
  8
SHAPE_Z0_25C
 10
40.997746449971991
 20
31.93120031638302
 30
0.0
 42
-0.0787978592774653
  0
VERTEX
  5
F22B
  8
SHAPE_Z0_25C
 10
37.20911955212955
 20
31.280791019303251
 30
0.0
 42
-0.5804009767130789
  0
VERTEX
  5
F22C
  8
SHAPE_Z0_25C
 10
36.87890637684913
 20
31.842088207233399
 30
0.0
  0
VERTEX
  5
F22D
  8
SHAPE_Z0_25C
 10
38.806699428216938
 20
35.316213125986039
 30
0.0
 42
0.8272235792019502
  0
VERTEX
  5
F22E
  8
SHAPE_Z0_25C
 10
37.053886399856637
 20
36.374568211772612
 30
0.0
  0
VERTEX
  5
F22F
  8
SHAPE_Z0_25C
 10
34.62435532899049
 20
33.555114935746218
 30
0.0
 42
-0.3847389999999994
  0
VERTEX
  5
F230
  8
SHAPE_Z0_25C
 10
33.124774331901442
 20
33.395137333660507
 30
0.0
 42
0.6507739999999928
  0
VERTEX
  5
F231
  8
SHAPE_Z0_25C
 10
31.596431816633508
 20
32.391080484660108
 30
0.0
  0
VERTEX
  5
F232
  8
SHAPE_Z0_25C
 10
32.166635439043333
 20
29.29858184618173
 30
0.0
 42
0.3346259999999987
  0
VERTEX
  5
F233
  8
SHAPE_Z0_25C
 10
33.012621546198467
 20
28.550822856599979
 30
0.0
 42
-0.3014549999999981
  0
VERTEX
  5
F234
  8
SHAPE_Z0_25C
 10
33.419614656045319
 20
28.176900928201459
 30
0.0
 42
0.683690000000005
  0
VERTEX
  5
F235
  8
SHAPE_Z0_25C
 10
35.511700431573942
 20
28.901451897996228
 30
0.0
 42
0.7155819999999911
  0
VERTEX
  5
F236
  8
SHAPE_Z0_25C
 10
36.573529614376319
 20
28.96726820713922
 30
0.0
 42
0.4529599999999994
  0
VERTEX
  5
F237
  8
SHAPE_Z0_25C
 10
37.637523065769777
 20
28.594088712268711
 30
0.0
 42
0.4980659999999974
  0
VERTEX
  5
F238
  8
SHAPE_Z0_25C
 10
38.824932618972838
 20
28.441237304155528
 30
0.0
 42
0.4810919999999937
  0
VERTEX
  5
F239
  8
SHAPE_Z0_25C
 10
39.982424492795211
 20
28.257306442049661
 30
0.0
  0
VERTEX
  5
F23A
  8
SHAPE_Z0_25C
 10
39.954158917405103
 20
27.226227852781211
 30
0.0
 42
0.4150150000000045
  0
VERTEX
  5
F23B
  8
SHAPE_Z0_25C
 10
40.714109143883093
 20
26.3632257361696
 30
0.0
  0
VERTEX
  5
F23C
  8
SHAPE_Z0_25C
 10
41.518476664139882
 20
26.35437351445934
 30
0.0
 42
0.4150150000000043
  0
VERTEX
  5
F23D
  8
SHAPE_Z0_25C
 10
42.297235544700051
 20
27.20044183672924
 30
0.0
  0
VERTEX
  5
F23E
  8
SHAPE_Z0_25C
 10
42.262008205566673
 20
28.794354015796031
 30
0.0
 42
0.8288169999999986
  0
VERTEX
  5
F23F
  8
SHAPE_Z0_25C
 10
43.449176572231323
 20
29.10950361390935
 30
0.0
 42
0.6805959999999962
  0
VERTEX
  5
F240
  8
SHAPE_Z0_25C
 10
44.604838342122328
 20
29.238568998936909
 30
0.0
 42
0.5630079999999987
  0
VERTEX
  5
F241
  8
SHAPE_Z0_25C
 10
45.885669406840563
 20
29.303966121600411
 30
0.0
 42
0.6724699999999979
  0
VERTEX
  5
F242
  8
SHAPE_Z0_25C
 10
47.04182977162057
 20
29.245032167791059
 30
0.0
 42
0.695993000000004
  0
VERTEX
  5
F243
  8
SHAPE_Z0_25C
 10
48.199324297543512
 20
29.060101309202039
 30
0.0
 42
0.7817439999999961
  0
VERTEX
  5
F244
  8
SHAPE_Z0_25C
 10
49.386983148191092
 20
28.813250231670331
 30
0.0
 42
0.8581013986528637
  0
VERTEX
  5
F245
  8
SHAPE_Z0_25C
 10
50.525418945400759
 20
28.338273858639951
 30
0.0
 42
-0.0488162898325699
  0
VERTEX
  5
F246
  8
SHAPE_Z0_25C
 10
51.829023389202348
 20
27.446156946794929
 30
0.0
 42
0.4065334977115028
  0
VERTEX
  5
F247
  8
SHAPE_Z0_25C
 10
52.002976369664751
 20
27.45914994085425
 30
0.0
  0
VERTEX
  5
F248
  8
SHAPE_Z0_25C
 10
53.398826861110493
 20
29.03789407062575
 30
0.0
 42
0.4038933368304569
  0
VERTEX
  5
F249
  8
SHAPE_Z0_25C
 10
53.391237394454819
 20
29.211351612387411
 30
0.0
 42
0.0008700115859313
  0
VERTEX
  5
F24A
  8
SHAPE_Z0_25C
 10
53.360212520552693
 20
29.240698658153029
 30
0.0
  0
VERTEX
  5
F24B
  8
SHAPE_Z0_25C
 10
53.816139527671218
 20
29.698599452627018
 30
0.0
 42
0.4080618544877783
  0
VERTEX
  5
F24C
  8
SHAPE_Z0_25C
 10
53.780555466945628
 20
30.397319808910112
 30
0.0
 42
0.0097680396487853
  0
VERTEX
  5
F24D
  8
SHAPE_Z0_25C
 10
53.383923922579058
 20
30.74907347801182
 30
0.0
 42
0.4342956819399789
  0
VERTEX
  5
F24E
  8
SHAPE_Z0_25C
 10
52.657862486316731
 20
30.666333815174621
 30
0.0
  0
VERTEX
  5
F24F
  8
SHAPE_Z0_25C
 10
52.25060668653974
 20
30.16941100343557
 30
0.0
  0
SEQEND
  5
F250
  8
SHAPE_Z0_25C
  0
POLYLINE
  5
D1E3
  8
SHAPE_Z0_25C
 66
     1
 10
0.0
 20
0.0
 30
0.0
 70
     1
  0
VERTEX
  5
F251
  8
SHAPE_Z0_25C
 10
32.959667578856248
 20
15.295112498511459
 30
0.0
 42
0.4205326731737315
  0
VERTEX
  5
F252
  8
SHAPE_Z0_25C
 10
32.480938052174359
 20
15.825754049056711
 30
0.0
 42
0.007082472586405
  0
VERTEX
  5
F253
  8
SHAPE_Z0_25C
 10
32.096669558051509
 20
15.83592295224757
 30
0.0
 42
0.431872446947537
  0
VERTEX
  5
F254
  8
SHAPE_Z0_25C
 10
31.591090467497729
 20
15.31215947116849
 30
0.0
  0
VERTEX
  5
F255
  8
SHAPE_Z0_25C
 10
31.581269660904681
 20
14.86175618518973
 30
0.0
  0
VERTEX
  5
F256
  8
SHAPE_Z0_25C
 10
31.52768779169498
 20
15.32961232972889
 30
0.0
 42
0.420501641012979
  0
VERTEX
  5
F257
  8
SHAPE_Z0_25C
 10
30.993761270749101
 20
15.804619865374139
 30
0.0
 42
0.0094421370246201
  0
VERTEX
  5
F258
  8
SHAPE_Z0_25C
 10
30.48328641465088
 20
15.75962022254623
 30
0.0
 42
0.4326138867447627
  0
VERTEX
  5
F259
  8
SHAPE_Z0_25C
 10
30.043731229749429
 20
15.17826254859528
 30
0.0
  0
VERTEX
  5
F25A
  8
SHAPE_Z0_25C
 10
30.09570259090896
 20
14.688522864938189
 30
0.0
  0
VERTEX
  5
F25B
  8
SHAPE_Z0_25C
 10
29.9782327243853
 20
15.190511813128589
 30
0.0
 42
0.4197678739133196
  0
VERTEX
  5
F25C
  8
SHAPE_Z0_25C
 10
29.391855205217521
 20
15.597481085906811
 30
0.0
 42
0.0094441815653163
  0
VERTEX
  5
F25D
  8
SHAPE_Z0_25C
 10
28.890235770368271
 20
15.4921188118521
 30
0.0
 42
0.4332588436902346
  0
VERTEX
  5
F25E
  8
SHAPE_Z0_25C
 10
28.523189004539532
 20
14.861606090637171
 30
0.0
  0
VERTEX
  5
F25F
  8
SHAPE_Z0_25C
 10
28.647288301242181
 20
14.337410121533919
 30
0.0
  0
VERTEX
  5
F260
  8
SHAPE_Z0_25C
 10
28.456028693382638
 20
14.868051549962701
 30
0.0
 42
0.419130346958631
  0
VERTEX
  5
F261
  8
SHAPE_Z0_25C
 10
27.825753172137411
 20
15.201415070771811
 30
0.0
 42
0.0059784337800303
  0
VERTEX
  5
F262
  8
SHAPE_Z0_25C
 10
27.517660417914009
 20
15.099582707184959
 30
0.0
 42
0.4330196174961221
  0
VERTEX
  5
F263
  8
SHAPE_Z0_25C
 10
27.218732146976599
 20
14.43436885574735
 30
0.0
  0
VERTEX
  5
F264
  8
SHAPE_Z0_25C
 10
27.44293377782542
 20
13.896534825962419
 30
0.0
 42
0.443568617385954
  0
VERTEX
  5
F265
  8
SHAPE_Z0_25C
 10
27.376740155416439
 20
13.723437938042251
 30
0.0
  0
VERTEX
  5
F266
  8
SHAPE_Z0_25C
 10
28.318821790585272
 20
11.86760898627236
 30
0.0
 42
0.4209711079414164
  0
VERTEX
  5
F267
  8
SHAPE_Z0_25C
 10
28.489414356024071
 20
11.81406108748779
 30
0.0
 42
-0.2058835262031902
  0
VERTEX
  5
F268
  8
SHAPE_Z0_25C
 10
33.34256000251235
 20
12.23568977615748
 30
0.0
 42
0.4101665284552131
  0
VERTEX
  5
F269
  8
SHAPE_Z0_25C
 10
34.48394779273449
 20
12.5711460510006
 30
0.0
 42
0.5833723347345307
  0
VERTEX
  5
F26A
  8
SHAPE_Z0_25C
 10
35.332608905190291
 20
12.27004613798638
 30
0.0
 42
0.5822680331571348
  0
VERTEX
  5
F26B
  8
SHAPE_Z0_25C
 10
36.20769344906531
 20
12.061838158971639
 30
0.0
 42
0.5822656256289656
  0
VERTEX
  5
F26C
  8
SHAPE_Z0_25C
 10
37.09985068527368
 20
11.94703838834721
 30
0.0
 42
0.5822680331571761
  0
VERTEX
  5
F26D
  8
SHAPE_Z0_25C
 10
37.999138746903057
 20
11.926926111865431
 30
0.0
 42
0.5822656256289905
  0
VERTEX
  5
F26E
  8
SHAPE_Z0_25C
 10
38.895536303786791
 20
12.00172545322096
 30
0.0
 42
0.5822680331571549
  0
VERTEX
  5
F26F
  8
SHAPE_Z0_25C
 10
39.779054236463203
 20
12.17060287650037
 30
0.0
 42
0.5822656256289813
  0
VERTEX
  5
F270
  8
SHAPE_Z0_25C
 10
40.639846951190812
 20
12.43167647479464
 30
0.0
 42
0.5822680331571523
  0
VERTEX
  5
F271
  8
SHAPE_Z0_25C
 10
41.46832209556608
 20
12.78203694146673
 30
0.0
 42
0.5822656256290053
  0
VERTEX
  5
F272
  8
SHAPE_Z0_25C
 10
42.255247452115242
 20
13.21777999037778
 30
0.0
 42
0.5822680331572194
  0
VERTEX
  5
F273
  8
SHAPE_Z0_25C
 10
42.991853818676098
 20
13.734049863793141
 30
0.0
 42
0.6014154655287268
  0
VERTEX
  5
F274
  8
SHAPE_Z0_25C
 10
43.647972119145749
 20
14.30388648910011
 30
0.0
 42
0.0474376211196982
  0
VERTEX
  5
F275
  8
SHAPE_Z0_25C
 10
44.699348120156749
 20
15.52747707957343
 30
0.0
 42
0.8554600670716208
  0
VERTEX
  5
F276
  8
SHAPE_Z0_25C
 10
43.975447145056059
 20
16.206295367960401
 30
0.0
  0
VERTEX
  5
F277
  8
SHAPE_Z0_25C
 10
43.676780955059243
 20
15.979535032566719
 30
0.0
 42
0.8373370000000036
  0
VERTEX
  5
F278
  8
SHAPE_Z0_25C
 10
43.008837503709039
 20
15.54039434235642
 30
0.0
 42
0.9594644355102603
  0
VERTEX
  5
F279
  8
SHAPE_Z0_25C
 10
42.095063911675581
 20
15.02852441502894
 30
0.0
 42
0.9789155986851094
  0
VERTEX
  5
F27A
  8
SHAPE_Z0_25C
 10
40.919161350233878
 20
14.559788494733731
 30
0.0
 42
-0.1219264793854808
  0
VERTEX
  5
F27B
  8
SHAPE_Z0_25C
 10
35.15247696531501
 20
14.5339575058353
 30
0.0
 42
0.0458080187262538
  0
VERTEX
  5
F27C
  8
SHAPE_Z0_25C
 10
32.932702220136427
 20
14.86178214296312
 30
0.0
  0
SEQEND
  5
F27D
  8
SHAPE_Z0_25C
  0
POLYLINE
  5
D425
  8
SHAPE_Z0_25C
 66
     1
 10
0.0
 20
0.0
 30
0.0
  0
VERTEX
  5
F27E
  8
SHAPE_Z0_25C
 10
21.719371466820999
 20
28.708023536200962
 30
0.0
 42
0.3866634085640411
  0
VERTEX
  5
F27F
  8
SHAPE_Z0_25C
 10
22.568424008971409
 20
27.774250289946881
 30
0.0
 42
0.1253538459766189
  0
VERTEX
  5
F280
  8
SHAPE_Z0_25C
 10
24.60134940543599
 20
27.930563160012529
 30
0.0
 42
0.7895869968858282
  0
VERTEX
  5
F281
  8
SHAPE_Z0_25C
 10
26.443424008973409
 20
27.930250289946681
 30
0.0
 42
0.1251950254787449
  0
VERTEX
  5
F282
  8
SHAPE_Z0_25C
 10
28.476424008973421
 20
27.774250289946671
 30
0.0
 42
0.3866634085640431
  0
VERTEX
  5
F283
  8
SHAPE_Z0_25C
 10
29.325476551125941
 20
28.708023536200962
 30
0.0
  0
VERTEX
  5
F284
  8
SHAPE_Z0_25C
 10
29.13242400897337
 20
30.681250289946661
 30
0.0
  0
VERTEX
  5
F285
  8
SHAPE_Z0_25C
 10
21.913424008973539
 20
30.681250289946661
 30
0.0
  0
VERTEX
  5
F286
  8
SHAPE_Z0_25C
 10
21.725424008973452
 20
28.805250289946681
 30
0.0
 42
0.0259657729287517
  0
VERTEX
  5
F287
  8
SHAPE_Z0_25C
 10
21.720371466820861
 20
28.708023536201011
 30
0.0
  0
SEQEND
  5
F288
  8
SHAPE_Z0_25C
  0
LINE
  5
D433
  8
ROUTE_T79Z0_244
  6
CONTINUOUS
 10
46.760393966892103
 20
31.688333751512388
 30
0.0
 11
46.872190968748427
 21
32.619807293793173
 31
0.0
  0
LINE
  5
D434
  8
ROUTE_T79Z0_244
  6
CONTINUOUS
 10
45.374122103898749
 20
31.82452958790131
 30
0.0
 11
45.383627032645727
 21
32.762304825829418
 31
0.0
  0
LINE
  5
D435
  8
ROUTE_T79Z0_244
  6
CONTINUOUS
 10
44.141558083977891
 20
31.804713655651781
 30
0.0
 11
44.095558492834492
 21
32.736950124505029
 31
0.0
  0
LINE
  5
D436
  8
ROUTE_T79Z0_244
  6
CONTINUOUS
 10
42.993439331715983
 20
31.66650450861755
 30
0.0
 11
42.936459919829922
 21
32.607503931363432
 31
0.0
  0
LINE
  5
D4B0
  8
ROUTE_T79Z0_244
  6
CONTINUOUS
 10
36.027970285805822
 20
23.02446384705523
 30
0.0
 11
36.027970285805822
 21
24.273963847055239
 31
0.0
  0
LINE
  5
D4B3
  8
ROUTE_T79Z0_244
  6
CONTINUOUS
 10
29.673862941173091
 20
23.02446384705523
 30
0.0
 11
29.673862941173091
 21
24.273963847055239
 31
0.0
  0
LINE
  5
D4BA
  8
ROUTE_T79Z0_244
 10
21.625606150061529
 20
19.774550701400749
 30
0.0
 11
21.625606150061529
 21
17.899550701400749
 31
0.0
  0
TEXT
  5
D4C0
  8
QUANTITY
  6
CONTINUOUS
 10
75.56166931562646
 20
25.471370113027259
 30
0.0
 40
0.3076148722666296
  1
3 pcs.
  0
LINE
  5
D4C1
  8
ROUTE_T79Z0_244
  6
CONTINUOUS
 10
76.34900258403141
 20
24.126995249792081
 30
0.0
 11
76.34900258403141
 21
25.20462164865058
 31
0.0
  0
LINE
  5
D4E6
  8
ROUTE_T79Z0_244
  6
CONTINUOUS
 10
61.61509479713304
 20
26.152481977610829
 30
0.0
 11
61.61509479713304
 21
25.153211770165541
 31
0.0
  0
LINE
  5
D4EA
  8
ROUTE_T79Z0_244
  6
CONTINUOUS
 10
72.973869797358532
 20
33.748333951916159
 30
0.0
 11
72.973869797358503
 21
32.749134413014467
 31
0.0
  0
LINE
  5
D4EB
  8
ROUTE_T79Z0_244
  6
CONTINUOUS
 10
68.798881538322533
 20
26.656322858950048
 30
0.0
 11
68.798881538322533
 21
25.658185885706992
 31
0.0
  0
LINE
  5
D4EC
  8
ROUTE_T79Z0_244
  6
CONTINUOUS
 10
64.969466555554476
 20
32.735268109029377
 30
0.0
 11
64.969466555554476
 21
31.73588001335353
 31
0.0
  0
POLYLINE
  5
D4ED
  8
SHAPE_Z0_25C
  6
CONTINUOUS
 66
     1
 10
0.0
 20
0.0
 30
0.0
 70
     1
  0
VERTEX
  5
F289
  8
SHAPE_Z0_25C
  6
CONTINUOUS
 10
72.384640532235863
 20
35.43263956922533
 30
0.0
  0
VERTEX
  5
F28A
  8
SHAPE_Z0_25C
  6
CONTINUOUS
 10
72.208343136111168
 20
34.696338679528097
 30
0.0
 42
-0.1484810000000013
  0
VERTEX
  5
F28B
  8
SHAPE_Z0_25C
  6
CONTINUOUS
 10
71.972651430062101
 20
34.402195430378868
 30
0.0
 42
0.5277680000000004
  0
VERTEX
  5
F28C
  8
SHAPE_Z0_25C
  6
CONTINUOUS
 10
71.884031348587612
 20
27.30127571053297
 30
0.0
 42
0.803210999999999
  0
VERTEX
  5
F28D
  8
SHAPE_Z0_25C
  6
CONTINUOUS
 10
72.620332238284931
 20
28.18559099162902
 30
0.0
 42
-0.24313
  0
VERTEX
  5
F28E
  8
SHAPE_Z0_25C
  6
CONTINUOUS
 10
71.589888099438483
 20
31.66157227244047
 30
0.0
 42
-0.3775354134225111
  0
VERTEX
  5
F28F
  8
SHAPE_Z0_25C
  6
CONTINUOUS
 10
72.973869797358503
 20
32.936689073492211
 30
0.0
 42
-0.3776634551496736
  0
VERTEX
  5
F290
  8
SHAPE_Z0_25C
  6
CONTINUOUS
 10
74.358794262102705
 20
31.66157227244047
 30
0.0
 42
-0.2431510000000013
  0
VERTEX
  5
F291
  8
SHAPE_Z0_25C
  6
CONTINUOUS
 10
73.32740735643209
 20
28.18559099162902
 30
0.0
 42
0.8032110000000027
  0
VERTEX
  5
F292
  8
SHAPE_Z0_25C
  6
CONTINUOUS
 10
74.063708246129309
 20
27.30127571053297
 30
0.0
 42
0.5277659999999999
  0
VERTEX
  5
F293
  8
SHAPE_Z0_25C
  6
CONTINUOUS
 10
73.976030931479087
 20
34.402195430378868
 30
0.0
 42
-0.1484810000000015
  0
VERTEX
  5
F294
  8
SHAPE_Z0_25C
  6
CONTINUOUS
 10
73.740339225430034
 20
34.696338679528097
 30
0.0
  0
VERTEX
  5
F295
  8
SHAPE_Z0_25C
  6
CONTINUOUS
 10
73.563099062481157
 20
35.43263956922533
 30
0.0
 42
0.7913065640460597
  0
SEQEND
  5
F296
  8
SHAPE_Z0_25C
  6
CONTINUOUS
  0
POLYLINE
  5
D4EF
  8
SHAPE_Z0_25C
  6
CONTINUOUS
 66
     1
 10
0.0
 20
0.0
 30
0.0
 70
     1
  0
VERTEX
  5
F297
  8
SHAPE_Z0_25C
  6
CONTINUOUS
 10
64.969466555554476
 20
31.92362323060539
 30
0.0
 42
-0.3770556187211995
  0
VERTEX
  5
F298
  8
SHAPE_Z0_25C
  6
CONTINUOUS
 10
66.306601114893951
 20
30.855395422862681
 30
0.0
 42
-0.2797891080545145
  0
VERTEX
  5
F299
  8
SHAPE_Z0_25C
  6
CONTINUOUS
 10
65.280079232775236
 20
28.109039228167841
 30
0.0
 42
0.803210999999958
  0
VERTEX
  5
F29A
  8
SHAPE_Z0_25C
  6
CONTINUOUS
 10
65.926981901866952
 20
27.332093384879659
 30
0.0
 42
0.5277659999999999
  0
VERTEX
  5
F29B
  8
SHAPE_Z0_25C
  6
CONTINUOUS
 10
65.849949957916238
 20
33.570852544417541
 30
0.0
 42
-0.1484810000000015
  0
VERTEX
  5
F29C
  8
SHAPE_Z0_25C
  6
CONTINUOUS
 10
65.642874839769064
 20
33.829282291865219
 30
0.0
  0
VERTEX
  5
F29D
  8
SHAPE_Z0_25C
  6
CONTINUOUS
 10
65.487154350922395
 20
34.476184960956971
 30
0.0
 42
0.7913065640460597
  0
VERTEX
  5
F29E
  8
SHAPE_Z0_25C
  6
CONTINUOUS
 10
64.451778760186542
 20
34.476184960956971
 30
0.0
  0
VERTEX
  5
F29F
  8
SHAPE_Z0_25C
  6
CONTINUOUS
 10
64.29688657181245
 20
33.829282291865219
 30
0.0
 42
-0.1484810000000013
  0
VERTEX
  5
F2A0
  8
SHAPE_Z0_25C
  6
CONTINUOUS
 10
64.089811453665277
 20
33.570852544417541
 30
0.0
 42
0.5277680000000004
  0
VERTEX
  5
F2A1
  8
SHAPE_Z0_25C
  6
CONTINUOUS
 10
64.0119512092419
 20
27.332093384879659
 30
0.0
 42
0.803210999999999
  0
VERTEX
  5
F2A2
  8
SHAPE_Z0_25C
  6
CONTINUOUS
 10
64.658853878333716
 20
28.109039228167841
 30
0.0
 42
-0.2797891080545143
  0
VERTEX
  5
F2A3
  8
SHAPE_Z0_25C
  6
CONTINUOUS
 10
63.632331996215029
 20
30.855395422862681
 30
0.0
 42
-0.3770556187211994
  0
SEQEND
  5
F2A4
  8
SHAPE_Z0_25C
  6
CONTINUOUS
  0
POLYLINE
  5
D51A
  8
SHAPE_Z0_25C
  6
CONTINUOUS
 66
     1
 10
0.0
 20
0.0
 30
0.0
 70
     1
  0
VERTEX
  5
F2A5
  8
SHAPE_Z0_25C
  6
CONTINUOUS
 10
61.61509479713304
 20
28.303048580139588
 30
0.0
 42
-0.3477946252701302
  0
VERTEX
  5
F2A6
  8
SHAPE_Z0_25C
  6
CONTINUOUS
 10
62.097011857623599
 20
27.92170444684762
 30
0.0
  0
VERTEX
  5
F2A7
  8
SHAPE_Z0_25C
  6
CONTINUOUS
 10
62.241972509419163
 20
27.31950088805862
 30
0.0
 42
0.1484810000000015
  0
VERTEX
  5
F2A8
  8
SHAPE_Z0_25C
  6
CONTINUOUS
 10
62.434739333615383
 20
27.07892789146171
 30
0.0
 42
-0.5277659999999999
  0
VERTEX
  5
F2A9
  8
SHAPE_Z0_25C
  6
CONTINUOUS
 10
62.506448592216358
 20
21.271249012077821
 30
0.0
 42
-0.8538544171004376
  0
VERTEX
  5
F2AA
  8
SHAPE_Z0_25C
  6
CONTINUOUS
 10
61.94050875753863
 20
21.994510136462068
 30
0.0
 42
0.2575032240126589
  0
VERTEX
  5
F2AB
  8
SHAPE_Z0_25C
  6
CONTINUOUS
 10
62.802164453215298
 20
24.261847678255499
 30
0.0
 42
0.3673344587965524
  0
VERTEX
  5
F2AC
  8
SHAPE_Z0_25C
  6
CONTINUOUS
 10
61.615094797133551
 20
25.340837099186889
 30
0.0
 42
0.3673344587965524
  0
VERTEX
  5
F2AD
  8
SHAPE_Z0_25C
  6
CONTINUOUS
 10
60.428025141050803
 20
24.261847678255489
 30
0.0
 42
0.257503224012659
  0
VERTEX
  5
F2AE
  8
SHAPE_Z0_25C
  6
CONTINUOUS
 10
61.289680836727491
 20
21.994510136462061
 30
0.0
 42
-0.8538544171004376
  0
VERTEX
  5
F2AF
  8
SHAPE_Z0_25C
  6
CONTINUOUS
 10
60.723741002049763
 20
21.27124901207781
 30
0.0
 42
-0.5277659999999999
  0
VERTEX
  5
F2B0
  8
SHAPE_Z0_25C
  6
CONTINUOUS
 10
60.795450260650711
 20
27.07892789146171
 30
0.0
 42
0.1484810000000015
  0
VERTEX
  5
F2B1
  8
SHAPE_Z0_25C
  6
CONTINUOUS
 10
60.988217084846937
 20
27.319500888058609
 30
0.0
  0
VERTEX
  5
F2B2
  8
SHAPE_Z0_25C
  6
CONTINUOUS
 10
61.13317773664248
 20
27.92170444684761
 30
0.0
 42
-0.3477946252701302
  0
SEQEND
  5
F2B3
  8
SHAPE_Z0_25C
  6
CONTINUOUS
  0
POLYLINE
  5
D548
  8
SHAPE_Z0_25C
  6
CONTINUOUS
 66
     1
 10
0.0
 20
0.0
 30
0.0
 70
     1
  0
VERTEX
  5
F2B4
  8
SHAPE_Z0_25C
  6
CONTINUOUS
 10
67.858444803729739
 20
27.401045815875499
 30
0.0
 42
0.5277679999999999
  0
VERTEX
  5
F2B5
  8
SHAPE_Z0_25C
  6
CONTINUOUS
 10
67.775204640780814
 20
20.731206376183611
 30
0.0
 42
0.8032110000000052
  0
VERTEX
  5
F2B6
  8
SHAPE_Z0_25C
  6
CONTINUOUS
 10
68.466806420175374
 20
21.56183693837572
 30
0.0
 42
-0.2227979202275348
  0
VERTEX
  5
F2B7
  8
SHAPE_Z0_25C
  6
CONTINUOUS
 10
67.367219493807454
 20
24.435876403927399
 30
0.0
 42
-0.3945750200595272
  0
VERTEX
  5
F2B8
  8
SHAPE_Z0_25C
  6
CONTINUOUS
 10
68.798881538322561
 20
25.845759056901709
 30
0.0
 42
-0.3945750200595298
  0
VERTEX
  5
F2B9
  8
SHAPE_Z0_25C
  6
CONTINUOUS
 10
70.23054358283764
 20
24.435876403927399
 30
0.0
 42
-0.2227979202275349
  0
VERTEX
  5
F2BA
  8
SHAPE_Z0_25C
  6
CONTINUOUS
 10
69.130956656469721
 20
21.56183693837572
 30
0.0
 42
0.8032110000000324
  0
VERTEX
  5
F2BB
  8
SHAPE_Z0_25C
  6
CONTINUOUS
 10
69.822558435864181
 20
20.731206376183611
 30
0.0
 42
0.5277659999999981
  0
VERTEX
  5
F2BC
  8
SHAPE_Z0_25C
  6
CONTINUOUS
 10
69.740203806563713
 20
27.401045815875499
 30
0.0
 42
-0.1484809999999989
  0
VERTEX
  5
F2BD
  8
SHAPE_Z0_25C
  6
CONTINUOUS
 10
69.518820394465592
 20
27.677332314173938
 30
0.0
  0
VERTEX
  5
F2BE
  8
SHAPE_Z0_25C
  6
CONTINUOUS
 10
69.352340068567827
 20
28.368934093568431
 30
0.0
 42
0.7913065640460542
  0
VERTEX
  5
F2BF
  8
SHAPE_Z0_25C
  6
CONTINUOUS
 10
68.245423008077253
 20
28.368934093568431
 30
0.0
  0
VERTEX
  5
F2C0
  8
SHAPE_Z0_25C
  6
CONTINUOUS
 10
68.07982821582786
 20
27.677332314173938
 30
0.0
 42
-0.1484809999999992
  0
SEQEND
  5
F2C1
  8
SHAPE_Z0_25C
  6
CONTINUOUS
  0
ARC
  5
D55B
  8
SHAPE_Z0_25C
  6
CONTINUOUS
 10
75.479902390579426
 20
18.790881511215769
 30
0.0
 40
0.6250000111784566
 50
242.67484270120519
 51
270.0
  0
POLYLINE
  5
D560
  8
SHAPE_Z0_25C
  6
CONTINUOUS
 66
     1
 10
0.0
 20
0.0
 30
0.0
 70
     1
  0
VERTEX
  5
F2C2
  8
SHAPE_Z0_25C
  6
CONTINUOUS
 10
75.287002584031512
 20
25.767621648650572
 30
0.0
 42
0.527768000000001
  0
VERTEX
  5
F2C3
  8
SHAPE_Z0_25C
  6
CONTINUOUS
 10
75.193002584031461
 20
18.235621648650671
 30
0.0
 42
0.8376632280711318
  0
VERTEX
  5
F2C4
  8
SHAPE_Z0_25C
  6
CONTINUOUS
 10
75.941862269982451
 20
19.136310019747931
 30
0.0
 42
-0.1962130605802506
  0
VERTEX
  5
F2C5
  8
SHAPE_Z0_25C
  6
CONTINUOUS
 10
74.761371981362871
 20
22.070869479335471
 30
0.0
 42
-0.1735582129969285
  0
VERTEX
  5
F2C6
  8
SHAPE_Z0_25C
  6
CONTINUOUS
 10
75.237389690247653
 20
23.780178400871879
 30
0.0
 42
-0.2298159943052548
  0
VERTEX
  5
F2C7
  8
SHAPE_Z0_25C
  6
CONTINUOUS
 10
76.349002584031254
 20
24.31449674839428
 30
0.0
 42
-0.2298159943052549
  0
VERTEX
  5
F2C8
  8
SHAPE_Z0_25C
  6
CONTINUOUS
 10
77.460615477815153
 20
23.780178400871879
 30
0.0
 42
-0.1735582129969284
  0
VERTEX
  5
F2C9
  8
SHAPE_Z0_25C
  6
CONTINUOUS
 10
77.93663318669995
 20
22.070869479335471
 30
0.0
 42
-0.1962130605802505
  0
VERTEX
  5
F2CA
  8
SHAPE_Z0_25C
  6
CONTINUOUS
 10
76.75614289808037
 20
19.136310019747921
 30
0.0
 42
0.8376632280711321
  0
VERTEX
  5
F2CB
  8
SHAPE_Z0_25C
  6
CONTINUOUS
 10
77.505002584031487
 20
18.23562164865066
 30
0.0
 42
0.5277660000000001
  0
VERTEX
  5
F2CC
  8
SHAPE_Z0_25C
  6
CONTINUOUS
 10
77.412002584031512
 20
25.767621648650572
 30
0.0
 42
-0.1484810000000022
  0
VERTEX
  5
F2CD
  8
SHAPE_Z0_25C
  6
CONTINUOUS
 10
77.162002584031512
 20
26.07962164865058
 30
0.0
  0
VERTEX
  5
F2CE
  8
SHAPE_Z0_25C
  6
CONTINUOUS
 10
76.974002584031524
 20
26.860621648650561
 30
0.0
 42
0.791306564046062
  0
VERTEX
  5
F2CF
  8
SHAPE_Z0_25C
  6
CONTINUOUS
 10
75.724002584031524
 20
26.860621648650561
 30
0.0
  0
VERTEX
  5
F2D0
  8
SHAPE_Z0_25C
  6
CONTINUOUS
 10
75.537002584031512
 20
26.07962164865058
 30
0.0
 42
-0.1484810000000015
  0
SEQEND
  5
F2D1
  8
SHAPE_Z0_25C
  6
CONTINUOUS
  0
LINE
  5
F023
  8
ROUTE_T79Z0_244
  6
CONTINUOUS
 10
37.420731100124527
 20
31.47289955641779
 30
0.0
 11
37.473088131920257
 21
30.536581549583499
 31
0.0
  0
POLYLINE
  5
F033
  8
SHAPE_Z0_25C
  6
CONTINUOUS
 66
     1
 10
0.0
 20
0.0
 30
0.0
 70
     1
  0
VERTEX
  5
F2D2
  8
SHAPE_Z0_25C
  6
CONTINUOUS
 10
56.772045815269593
 20
31.397858975313252
 30
0.0
 42
-0.3477946252701302
  0
VERTEX
  5
F2D3
  8
SHAPE_Z0_25C
  6
CONTINUOUS
 10
57.218529962840456
 20
31.044553138597891
 30
0.0
  0
VERTEX
  5
F2D4
  8
SHAPE_Z0_25C
  6
CONTINUOUS
 10
57.352832394429782
 20
30.486626547793339
 30
0.0
 42
0.1484810000000015
  0
VERTEX
  5
F2D5
  8
SHAPE_Z0_25C
  6
CONTINUOUS
 10
57.531426053458119
 20
30.263741661325948
 30
0.0
 42
-0.5277659999999999
  0
VERTEX
  5
F2D6
  8
SHAPE_Z0_25C
  6
CONTINUOUS
 10
57.597862894616647
 20
24.88307190211982
 30
0.0
 42
-0.8538544171004376
  0
VERTEX
  5
F2D7
  8
SHAPE_Z0_25C
  6
CONTINUOUS
 10
57.073533740539261
 20
25.553155310794189
 30
0.0
 42
0.2575032240126589
  0
VERTEX
  5
F2D8
  8
SHAPE_Z0_25C
  6
CONTINUOUS
 10
57.871836270838052
 20
27.653787043093921
 30
0.0
 42
0.3673344587965524
  0
VERTEX
  5
F2D9
  8
SHAPE_Z0_25C
  6
CONTINUOUS
 10
56.772045815270069
 20
28.653443854064971
 30
0.0
 42
0.3673344587965524
  0
VERTEX
  5
F2DA
  8
SHAPE_Z0_25C
  6
CONTINUOUS
 10
55.672255359701133
 20
27.65378704309391
 30
0.0
 42
0.257503224012659
  0
VERTEX
  5
F2DB
  8
SHAPE_Z0_25C
  6
CONTINUOUS
 10
56.470557889999959
 20
25.553155310794189
 30
0.0
 42
-0.8538544171004376
  0
VERTEX
  5
F2DC
  8
SHAPE_Z0_25C
  6
CONTINUOUS
 10
55.946228735922567
 20
24.883071902119809
 30
0.0
 42
-0.5277659999999999
  0
VERTEX
  5
F2DD
  8
SHAPE_Z0_25C
  6
CONTINUOUS
 10
56.012665577081073
 20
30.263741661325941
 30
0.0
 42
0.1484810000000015
  0
VERTEX
  5
F2DE
  8
SHAPE_Z0_25C
  6
CONTINUOUS
 10
56.191259236109431
 20
30.486626547793328
 30
0.0
  0
VERTEX
  5
F2DF
  8
SHAPE_Z0_25C
  6
CONTINUOUS
 10
56.325561667698722
 20
31.044553138597891
 30
0.0
 42
-0.3477946252701302
  0
SEQEND
  5
F2E0
  8
SHAPE_Z0_25C
  6
CONTINUOUS
  0
POLYLINE
  5
F036
  8
SHAPE_Z0_25C
  6
CONTINUOUS
 66
     1
 10
0.0
 20
0.0
 30
0.0
 70
     1
  0
VERTEX
  5
F2E1
  8
SHAPE_Z0_25C
  6
CONTINUOUS
 10
52.589125960785978
 20
26.656241202904852
 30
0.0
 42
-0.3477946252701302
  0
VERTEX
  5
F2E2
  8
SHAPE_Z0_25C
  6
CONTINUOUS
 10
53.000177195437168
 20
26.33097366276612
 30
0.0
  0
VERTEX
  5
F2E3
  8
SHAPE_Z0_25C
  6
CONTINUOUS
 10
53.123821406820241
 20
25.817324039946008
 30
0.0
 42
0.1484810000000015
  0
VERTEX
  5
F2E4
  8
SHAPE_Z0_25C
  6
CONTINUOUS
 10
53.28824190068071
 20
25.61212726360813
 30
0.0
 42
-0.5277659999999999
  0
VERTEX
  5
F2E5
  8
SHAPE_Z0_25C
  6
CONTINUOUS
 10
53.349406324396789
 20
20.658466624579759
 30
0.0
 42
-0.8538544171004376
  0
VERTEX
  5
F2E6
  8
SHAPE_Z0_25C
  6
CONTINUOUS
 10
52.866687850919718
 20
21.27537231754426
 30
0.0
 42
0.2575032240126589
  0
VERTEX
  5
F2E7
  8
SHAPE_Z0_25C
  6
CONTINUOUS
 10
53.601637215840682
 20
23.209298240350272
 30
0.0
 42
0.3673344587965524
  0
VERTEX
  5
F2E8
  8
SHAPE_Z0_25C
  6
CONTINUOUS
 10
52.589125960786419
 20
24.129622441361001
 30
0.0
 42
0.3673344587965524
  0
VERTEX
  5
F2E9
  8
SHAPE_Z0_25C
  6
CONTINUOUS
 10
51.576614705731302
 20
23.209298240350272
 30
0.0
 42
0.257503224012659
  0
VERTEX
  5
F2EA
  8
SHAPE_Z0_25C
  6
CONTINUOUS
 10
52.311564070652281
 20
21.27537231754426
 30
0.0
 42
-0.8538544171004376
  0
VERTEX
  5
F2EB
  8
SHAPE_Z0_25C
  6
CONTINUOUS
 10
51.82884559717521
 20
20.658466624579749
 30
0.0
 42
-0.5277659999999999
  0
VERTEX
  5
F2EC
  8
SHAPE_Z0_25C
  6
CONTINUOUS
 10
51.890010020891268
 20
25.612127263608119
 30
0.0
 42
0.1484810000000015
  0
VERTEX
  5
F2ED
  8
SHAPE_Z0_25C
  6
CONTINUOUS
 10
52.054430514751751
 20
25.817324039946001
 30
0.0
  0
VERTEX
  5
F2EE
  8
SHAPE_Z0_25C
  6
CONTINUOUS
 10
52.178074726134803
 20
26.330973662766109
 30
0.0
 42
-0.3477946252701302
  0
SEQEND
  5
F2EF
  8
SHAPE_Z0_25C
  6
CONTINUOUS
  0
POLYLINE
  5
F039
  8
SHAPE_Z0_25C
  6
CONTINUOUS
 66
     1
 10
0.0
 20
0.0
 30
0.0
 70
     1
  0
VERTEX
  5
F2F0
  8
SHAPE_Z0_25C
  6
CONTINUOUS
 10
48.199803958989342
 20
23.18379033678309
 30
0.0
 42
-0.3477946252701302
  0
VERTEX
  5
F2F1
  8
SHAPE_Z0_25C
  6
CONTINUOUS
 10
48.575867165338472
 20
22.8862090531028
 30
0.0
  0
VERTEX
  5
F2F2
  8
SHAPE_Z0_25C
  6
CONTINUOUS
 10
48.688986977808291
 20
22.416280470448921
 30
0.0
 42
0.1484810000000015
  0
VERTEX
  5
F2F3
  8
SHAPE_Z0_25C
  6
CONTINUOUS
 10
48.839412260347942
 20
22.228549717839421
 30
0.0
 42
-0.5277659999999999
  0
VERTEX
  5
F2F4
  8
SHAPE_Z0_25C
  6
CONTINUOUS
 10
48.895370465452672
 20
17.69653680548468
 30
0.0
 42
-0.8538544171004376
  0
VERTEX
  5
F2F5
  8
SHAPE_Z0_25C
  6
CONTINUOUS
 10
48.453740221831588
 20
18.260932465573461
 30
0.0
 42
0.2575032240126589
  0
VERTEX
  5
F2F6
  8
SHAPE_Z0_25C
  6
CONTINUOUS
 10
49.126131863985357
 20
20.030245685102681
 30
0.0
 42
0.3673344587965524
  0
VERTEX
  5
F2F7
  8
SHAPE_Z0_25C
  6
CONTINUOUS
 10
48.199803958989733
 20
20.872233351692469
 30
0.0
 42
0.3673344587965524
  0
VERTEX
  5
F2F8
  8
SHAPE_Z0_25C
  6
CONTINUOUS
 10
47.273476053993328
 20
20.03024568510267
 30
0.0
 42
0.257503224012659
  0
VERTEX
  5
F2F9
  8
SHAPE_Z0_25C
  6
CONTINUOUS
 10
47.945867696147111
 20
18.260932465573461
 30
0.0
 42
-0.8538544171004376
  0
VERTEX
  5
F2FA
  8
SHAPE_Z0_25C
  6
CONTINUOUS
 10
47.50423745252602
 20
17.696536805484669
 30
0.0
 42
-0.5277659999999999
  0
VERTEX
  5
F2FB
  8
SHAPE_Z0_25C
  6
CONTINUOUS
 10
47.560195657630729
 20
22.228549717839421
 30
0.0
 42
0.1484810000000015
  0
VERTEX
  5
F2FC
  8
SHAPE_Z0_25C
  6
CONTINUOUS
 10
47.710620940170386
 20
22.416280470448921
 30
0.0
  0
VERTEX
  5
F2FD
  8
SHAPE_Z0_25C
  6
CONTINUOUS
 10
47.823740752640191
 20
22.8862090531028
 30
0.0
 42
-0.3477946252701302
  0
SEQEND
  5
F2FE
  8
SHAPE_Z0_25C
  6
CONTINUOUS
  0
LINE
  5
F04C
  8
ROUTE_T79Z0_244
  6
CONTINUOUS
 10
56.772045815270069
 20
29.45017336888742
 30
0.0
 11
56.772045815270069
 21
28.430894481644341
 31
0.0
  0
LINE
  5
F04D
  8
ROUTE_T79Z0_244
  6
CONTINUOUS
 10
52.589125960786419
 20
24.926351956183439
 30
0.0
 11
52.589125960786419
 21
23.90707306894036
 31
0.0
  0
LINE
  5
F04E
  8
ROUTE_T79Z0_244
  6
CONTINUOUS
 10
48.199803958989669
 20
21.66896286651491
 30
0.0
 11
48.199803958989669
 21
20.649683979271831
 31
0.0
  0
POLYLINE
  5
F050
  8
SHAPE_Z0_25C
 66
     1
 10
0.0
 20
0.0
 30
0.0
  0
VERTEX
  5
F2FF
  8
SHAPE_Z0_25C
 10
67.468083179138915
 20
16.020855014163569
 30
0.0
 42
0.2204597233361631
  0
VERTEX
  5
F300
  8
SHAPE_Z0_25C
 10
67.581427003858721
 20
15.426271397808099
 30
0.0
 42
-0.7358417647391646
  0
VERTEX
  5
F301
  8
SHAPE_Z0_25C
 10
66.817858586403872
 20
14.759444712047349
 30
0.0
 42
-0.0689216653767778
  0
VERTEX
  5
F302
  8
SHAPE_Z0_25C
 10
64.861047306919943
 20
16.686707386953881
 30
0.0
 42
0.5857371325049618
  0
VERTEX
  5
F303
  8
SHAPE_Z0_25C
 10
63.94008277151277
 20
16.779057347320439
 30
0.0
  0
VERTEX
  5
F304
  8
SHAPE_Z0_25C
 10
63.941074694957877
 20
16.813260683012331
 30
0.0
 42
-0.7290260875959103
  0
VERTEX
  5
F305
  8
SHAPE_Z0_25C
 10
62.998773518626038
 20
17.146486362894301
 30
0.0
  0
VERTEX
  5
F306
  8
SHAPE_Z0_25C
 10
63.061180384817639
 20
19.298389319087569
 30
0.0
 42
-1.0000000000000011
  0
VERTEX
  5
F307
  8
SHAPE_Z0_25C
 10
64.213240091860797
 20
19.264978687917939
 30
0.0
  0
VERTEX
  5
F308
  8
SHAPE_Z0_25C
 10
64.205631898375714
 20
19.00263425290634
 30
0.0
 42
0.4177829999999985
  0
VERTEX
  5
F309
  8
SHAPE_Z0_25C
 10
64.458481307917907
 20
18.66762020452677
 30
0.0
 42
-0.7264211512747325
  0
VERTEX
  5
F30A
  8
SHAPE_Z0_25C
 10
64.802229189290813
 20
18.052621219750218
 30
0.0
 42
-0.4023279218205211
  0
VERTEX
  5
F30B
  8
SHAPE_Z0_25C
 10
65.448699660824957
 20
17.719925324037941
 30
0.0
 42
0.5329640000000023
  0
VERTEX
  5
F30C
  8
SHAPE_Z0_25C
 10
66.393820493554145
 20
17.462509073003801
 30
0.0
 42
-0.3969629999999997
  0
VERTEX
  5
F30D
  8
SHAPE_Z0_25C
 10
67.273698415678524
 20
17.273151317124821
 30
0.0
 42
-0.7050609999999984
  0
VERTEX
  5
F30E
  8
SHAPE_Z0_25C
 10
68.112282914367483
 20
17.90524440820634
 30
0.0
 42
0.5454509999999971
  0
VERTEX
  5
F30F
  8
SHAPE_Z0_25C
 10
68.512570306125696
 20
18.091084700333489
 30
0.0
 42
-0.3168579999999995
  0
VERTEX
  5
F310
  8
SHAPE_Z0_25C
 10
69.325182910618352
 20
18.986496075192729
 30
0.0
 42
0.3737569999999997
  0
VERTEX
  5
F311
  8
SHAPE_Z0_25C
 10
69.802856995705326
 20
19.595447520054321
 30
0.0
 42
-0.6368330000000011
  0
VERTEX
  5
F312
  8
SHAPE_Z0_25C
 10
70.868424971488039
 20
20.123283703818629
 30
0.0
 42
0.3859080000000028
  0
VERTEX
  5
F313
  8
SHAPE_Z0_25C
 10
71.395000673495559
 20
20.173128736731272
 30
0.0
 42
-0.6816149999999978
  0
VERTEX
  5
F314
  8
SHAPE_Z0_25C
 10
72.888683514964214
 20
19.637238680497141
 30
0.0
  0
VERTEX
  5
F315
  8
SHAPE_Z0_25C
 10
72.919770519708123
 20
19.33051750218241
 30
0.0
 42
0.3480250680265589
  0
VERTEX
  5
F316
  8
SHAPE_Z0_25C
 10
75.742419064699561
 20
16.721178528929691
 30
0.0
 42
-0.8229079363147764
  0
VERTEX
  5
F317
  8
SHAPE_Z0_25C
 10
75.673190131079735
 20
14.96667774711903
 30
0.0
 42
0.3845657630169549
  0
VERTEX
  5
F318
  8
SHAPE_Z0_25C
 10
75.044656104549716
 20
14.46137480925784
 30
0.0
 42
-1.0257684049317399
  0
VERTEX
  5
F319
  8
SHAPE_Z0_25C
 10
73.764568385743033
 20
14.47149585873548
 30
0.0
 42
0.2228674233962753
  0
VERTEX
  5
F31A
  8
SHAPE_Z0_25C
 10
72.952971423249011
 20
16.4158519671223
 30
0.0
 42
0.0978371567753983
  0
VERTEX
  5
F31B
  8
SHAPE_Z0_25C
 10
72.153042357589484
 20
16.869081453872731
 30
0.0
 42
-0.508910999999999
  0
VERTEX
  5
F31C
  8
SHAPE_Z0_25C
 10
71.787022269288173
 20
17.864840497037839
 30
0.0
 42
0.9999999999999767
  0
VERTEX
  5
F31D
  8
SHAPE_Z0_25C
 10
71.658786261506705
 20
17.933675580889329
 30
0.0
 42
-0.4044989999999994
  0
VERTEX
  5
F31E
  8
SHAPE_Z0_25C
 10
70.668748579842372
 20
17.764938507716721
 30
0.0
 42
-0.5664699999999971
  0
VERTEX
  5
F31F
  8
SHAPE_Z0_25C
 10
70.323190128253358
 20
17.184713676053999
 30
0.0
 42
0.3159039999999998
  0
VERTEX
  5
F320
  8
SHAPE_Z0_25C
 10
68.519596426104243
 20
16.088034518080701
 30
0.0
 42
-0.713673999999998
  0
VERTEX
  5
F321
  8
SHAPE_Z0_25C
 10
67.467388438081485
 20
16.020875162196749
 30
0.0
  0
SEQEND
  5
F322
  8
SHAPE_Z0_25C
  0
POLYLINE
  5
F055
  8
SHAPE_Z0_25C
 66
     1
 10
0.0
 20
0.0
 30
0.0
 70
     1
  0
VERTEX
  5
F323
  8
SHAPE_Z0_25C
 10
67.410125779953731
 20
9.7886605847769772
 30
0.0
 42
-0.3162510000000001
  0
VERTEX
  5
F324
  8
SHAPE_Z0_25C
 10
65.129003850265946
 20
8.0388195228810417
 30
0.0
 42
0.4218620000000046
  0
VERTEX
  5
F325
  8
SHAPE_Z0_25C
 10
64.556210197287612
 20
7.350705120250268
 30
0.0
 42
0.6049269999999983
  0
VERTEX
  5
F326
  8
SHAPE_Z0_25C
 10
63.611534493445831
 20
7.9281138269486169
 30
0.0
 42
0.3667820000000007
  0
VERTEX
  5
F327
  8
SHAPE_Z0_25C
 10
63.051690391252428
 20
8.0140648667286172
 30
0.0
 42
-0.396358
  0
VERTEX
  5
F328
  8
SHAPE_Z0_25C
 10
60.802282738409367
 20
8.5520966607064537
 30
0.0
 42
0.4735349999999969
  0
VERTEX
  5
F329
  8
SHAPE_Z0_25C
 10
59.985618303202102
 20
8.6416968854134808
 30
0.0
 42
-1.0
  0
VERTEX
  5
F32A
  8
SHAPE_Z0_25C
 10
59.759504239747443
 20
8.7675636018560255
 30
0.0
 42
0.5919980000000094
  0
VERTEX
  5
F32B
  8
SHAPE_Z0_25C
 10
59.329882875913817
 20
9.3352241375089449
 30
0.0
 42
0.2948829999999939
  0
VERTEX
  5
F32C
  8
SHAPE_Z0_25C
 10
57.37104606691485
 20
7.8219761883244701
 30
0.0
 42
-0.6129648598829361
  0
VERTEX
  5
F32D
  8
SHAPE_Z0_25C
 10
56.718883560593547
 20
7.8132320372244939
 30
0.0
 42
0.6464401265293103
  0
VERTEX
  5
F32E
  8
SHAPE_Z0_25C
 10
55.680621943412099
 20
7.9525702809613668
 30
0.0
  0
VERTEX
  5
F32F
  8
SHAPE_Z0_25C
 10
55.126260357277403
 20
5.9104269738076161
 30
0.0
 42
0.9999999999999998
  0
VERTEX
  5
F330
  8
SHAPE_Z0_25C
 10
56.188716029508178
 20
5.6254919907945862
 30
0.0
  0
VERTEX
  5
F331
  8
SHAPE_Z0_25C
 10
56.231599157747652
 20
5.7692314680177921
 30
0.0
 42
-0.3816117391913646
  0
VERTEX
  5
F332
  8
SHAPE_Z0_25C
 10
56.78897682711937
 20
6.1341428434459848
 30
0.0
 42
0.4327519999999968
  0
VERTEX
  5
F333
  8
SHAPE_Z0_25C
 10
57.181871873419318
 20
6.5143473707637289
 30
0.0
 42
0.2125299999999919
  0
VERTEX
  5
F334
  8
SHAPE_Z0_25C
 10
57.466185075642251
 20
6.72902853677921
 30
0.0
 42
-0.4103879999999933
  0
VERTEX
  5
F335
  8
SHAPE_Z0_25C
 10
58.807911053705823
 20
7.1457003498279761
 30
0.0
 42
0.4227710000000032
  0
VERTEX
  5
F336
  8
SHAPE_Z0_25C
 10
59.523810078295547
 20
7.4061491674322459
 30
0.0
 42
0.4248359999999982
  0
VERTEX
  5
F337
  8
SHAPE_Z0_25C
 10
60.121391846192857
 20
6.8586703727043377
 30
0.0
 42
-0.3177659999999994
  0
VERTEX
  5
F338
  8
SHAPE_Z0_25C
 10
61.51758883995376
 20
6.0307531337166429
 30
0.0
 42
0.5709719999999982
  0
VERTEX
  5
F339
  8
SHAPE_Z0_25C
 10
62.425044941697116
 20
5.9168039195521374
 30
0.0
 42
0.6621370000000072
  0
VERTEX
  5
F33A
  8
SHAPE_Z0_25C
 10
63.21783297167508
 20
5.2517474260693291
 30
0.0
 42
-0.4185629999999956
  0
VERTEX
  5
F33B
  8
SHAPE_Z0_25C
 10
63.820535098467808
 20
5.0901115811601301
 30
0.0
 42
0.5339500000000033
  0
VERTEX
  5
F33C
  8
SHAPE_Z0_25C
 10
64.85919182797457
 20
5.1024889092362713
 30
0.0
  0
VERTEX
  5
F33D
  8
SHAPE_Z0_25C
 10
65.2187300095285
 20
5.7173427910691004
 30
0.0
 42
-0.3377439999999997
  0
VERTEX
  5
F33E
  8
SHAPE_Z0_25C
 10
68.683097972732895
 20
7.0535683017980233
 30
0.0
 42
0.8229079363147775
  0
VERTEX
  5
F33F
  8
SHAPE_Z0_25C
 10
69.125374962061343
 20
8.7528201087221742
 30
0.0
 42
-0.3845657630169546
  0
VERTEX
  5
F340
  8
SHAPE_Z0_25C
 10
68.670281519195171
 20
9.4186098951993955
 30
0.0
 42
0.9999999999999998
  0
SEQEND
  5
F341
  8
SHAPE_Z0_25C
  0
POLYLINE
  5
F060
  8
SHAPE_Z0_25C
 66
     1
 10
0.0
 20
0.0
 30
0.0
 70
     1
  0
VERTEX
  5
F342
  8
SHAPE_Z0_25C
 10
74.420831174860766
 20
12.85139220173197
 30
0.0
  0
VERTEX
  5
F343
  8
SHAPE_Z0_25C
 10
74.473369667159332
 20
10.60572048473704
 30
0.0
 42
-0.291826
  0
VERTEX
  5
F344
  8
SHAPE_Z0_25C
 10
70.736193697324921
 20
11.456073820734019
 30
0.0
 42
0.402761
  0
VERTEX
  5
F345
  8
SHAPE_Z0_25C
 10
69.87108842875196
 20
11.50276164077558
 30
0.0
 42
-0.4639769999999976
  0
VERTEX
  5
F346
  8
SHAPE_Z0_25C
 10
69.063240285067138
 20
11.573234630956231
 30
0.0
 42
1.0000000000000531
  0
VERTEX
  5
F347
  8
SHAPE_Z0_25C
 10
68.919176699411736
 20
11.513387711427249
 30
0.0
 42
-0.6923720000000059
  0
VERTEX
  5
F348
  8
SHAPE_Z0_25C
 10
68.409278782118918
 20
11.030851275686411
 30
0.0
 42
0.2683690000000003
  0
VERTEX
  5
F349
  8
SHAPE_Z0_25C
 10
65.789056062669204
 20
10.821633357523901
 30
0.0
 42
-0.548856000000003
  0
VERTEX
  5
F34A
  8
SHAPE_Z0_25C
 10
65.166714879443873
 20
10.935602350015991
 30
0.0
 42
-0.8253650000000095
  0
VERTEX
  5
F34B
  8
SHAPE_Z0_25C
 10
64.154755238093529
 20
10.684137996830369
 30
0.0
 42
0.5172780000000001
  0
VERTEX
  5
F34C
  8
SHAPE_Z0_25C
 10
63.439840386703999
 20
10.692512400850161
 30
0.0
 42
-0.6028649999999978
  0
VERTEX
  5
F34D
  8
SHAPE_Z0_25C
 10
62.231219858940548
 20
10.8336419270618
 30
0.0
  0
VERTEX
  5
F34E
  8
SHAPE_Z0_25C
 10
61.584027528786777
 20
12.3915613243921
 30
0.0
 42
-0.8397849999999959
  0
VERTEX
  5
F34F
  8
SHAPE_Z0_25C
 10
62.665519964570741
 20
12.637259469183631
 30
0.0
 42
0.5260016208991145
  0
VERTEX
  5
F350
  8
SHAPE_Z0_25C
 10
63.98286508423741
 20
12.237013941404239
 30
0.0
 42
-0.667589000000004
  0
VERTEX
  5
F351
  8
SHAPE_Z0_25C
 10
65.006516817677465
 20
12.0536957449774
 30
0.0
 42
-0.3493720000000045
  0
VERTEX
  5
F352
  8
SHAPE_Z0_25C
 10
65.448933569041316
 20
12.37284230122178
 30
0.0
 42
0.2050620000000002
  0
VERTEX
  5
F353
  8
SHAPE_Z0_25C
 10
67.719715190253652
 20
13.18081627059763
 30
0.0
 42
-0.7071069999999918
  0
VERTEX
  5
F354
  8
SHAPE_Z0_25C
 10
68.373275751890915
 20
12.910890652527881
 30
0.0
  0
VERTEX
  5
F355
  8
SHAPE_Z0_25C
 10
68.426273039605476
 20
13.270757783289859
 30
0.0
 42
-0.5903390000000061
  0
VERTEX
  5
F356
  8
SHAPE_Z0_25C
 10
69.246215260342254
 20
13.5778102624823
 30
0.0
 42
0.2480530000000003
  0
VERTEX
  5
F357
  8
SHAPE_Z0_25C
 10
72.028504034915571
 20
12.906856455404419
 30
0.0
 42
-0.1651619534680884
  0
SEQEND
  5
F358
  8
SHAPE_Z0_25C
  0
LINE
  5
F061
  8
ROUTE_T79Z0_244
 10
74.64411760910815
 20
11.72372937658859
 30
0.0
 11
73.273731983472857
 21
11.757304141160329
 31
0.0
  0
POLYLINE
  5
F062
  8
SHAPE_Z0_25C
 66
     1
 10
0.0
 20
0.0
 30
0.0
 70
     1
  0
VERTEX
  5
F359
  8
SHAPE_Z0_25C
 10
80.036442036833336
 20
12.673823245351819
 30
0.0
 42
0.3009550000000003
  0
VERTEX
  5
F35A
  8
SHAPE_Z0_25C
 10
80.033728845839335
 20
12.329435907322839
 30
0.0
 42
-0.6871689999999983
  0
VERTEX
  5
F35B
  8
SHAPE_Z0_25C
 10
79.522623550381454
 20
11.280415708778129
 30
0.0
 42
-0.6433110000000001
  0
VERTEX
  5
F35C
  8
SHAPE_Z0_25C
 10
79.188199893043276
 20
10.434079004261219
 30
0.0
 42
0.4065100000000001
  0
VERTEX
  5
F35D
  8
SHAPE_Z0_25C
 10
76.812499320898368
 20
7.9988667359958932
 30
0.0
 42
-0.336188
  0
VERTEX
  5
F35E
  8
SHAPE_Z0_25C
 10
76.376101122213854
 20
7.3826130445790836
 30
0.0
 42
-0.1587040000000001
  0
VERTEX
  5
F35F
  8
SHAPE_Z0_25C
 10
76.652941455901583
 20
7.0097331314117231
 30
0.0
 42
0.3657469999999986
  0
VERTEX
  5
F360
  8
SHAPE_Z0_25C
 10
77.474814304104015
 20
6.4265093138360081
 30
0.0
 42
-1.0
  0
VERTEX
  5
F361
  8
SHAPE_Z0_25C
 10
77.458275810938261
 20
5.2977101827928417
 30
0.0
  0
VERTEX
  5
F362
  8
SHAPE_Z0_25C
 10
75.488603163200153
 20
5.491382841985657
 30
0.0
 42
-0.795129490447412
  0
VERTEX
  5
F363
  8
SHAPE_Z0_25C
 10
75.573323065193577
 20
6.4948246063666133
 30
0.0
 42
-0.0481039386430339
  0
VERTEX
  5
F364
  8
SHAPE_Z0_25C
 10
75.075897190951594
 20
6.61654631337223
 30
0.0
 42
-0.7284841697822339
  0
VERTEX
  5
F365
  8
SHAPE_Z0_25C
 10
75.118543079496462
 20
7.6940666995531819
 30
0.0
 42
0.501337999999999
  0
VERTEX
  5
F366
  8
SHAPE_Z0_25C
 10
75.143006935810931
 20
7.9428668597907217
 30
0.0
 42
-0.4774799999999998
  0
VERTEX
  5
F367
  8
SHAPE_Z0_25C
 10
75.197788998584613
 20
8.8168004588691709
 30
0.0
 42
0.1493279999999999
  0
VERTEX
  5
F368
  8
SHAPE_Z0_25C
 10
77.526057376689934
 20
11.413428918914031
 30
0.0
 42
-0.3941790000000012
  0
VERTEX
  5
F369
  8
SHAPE_Z0_25C
 10
78.243422483311363
 20
11.68855126224866
 30
0.0
 42
-0.5400659999999994
  0
VERTEX
  5
F36A
  8
SHAPE_Z0_25C
 10
78.120295450018176
 20
12.67433102146089
 30
0.0
 42
0.3426649999999998
  0
VERTEX
  5
F36B
  8
SHAPE_Z0_25C
 10
78.639415702119521
 20
15.0720397535336
 30
0.0
  0
VERTEX
  5
F36C
  8
SHAPE_Z0_25C
 10
77.990590057361246
 20
16.46479137780489
 30
0.0
  0
VERTEX
  5
F36D
  8
SHAPE_Z0_25C
 10
80.106178257970456
 20
17.126369219345229
 30
0.0
 42
-0.3615411767977047
  0
SEQEND
  5
F36E
  8
SHAPE_Z0_25C
  0
LINE
  5
F067
  8
ROUTE_T79Z0_244
 10
79.027724721874065
 20
17.04616603997399
 30
0.0
 11
79.473350582975243
 21
15.702401603597689
 31
0.0
  0
LINE
  5
F09B
  8
ROUTE_T79Z0_244
  6
CONTINUOUS
 10
71.823145971955441
 20
19.110451874472901
 30
0.0
 11
73.099854347805916
 21
19.413166993624721
 31
0.0
  0
LINE
  5
F09C
  8
ROUTE_T79Z0_244
  6
CONTINUOUS
 10
64.302740658458447
 20
6.2625388857924804
 30
0.0
 11
65.386475134098362
 21
5.6321055756171026
 31
0.0
  0
ENDSEC
  0
EOF
