0
SECTION
2
HEADER
9
$EXTMIN
10
0.765106
20
0.682343
9
$EXTMAX
10
97.268517
20
52.183060
0
ENDSEC
0
SECTION
2
TABLES
0
TABLE
2
LTYPE
70
1
0
LTYPE
2
0
70
0
3
Solid Line
72
65
73
0
40
0.0
0
ENDTAB
0
TABLE
2
LAYER
70
1
0
LAYER
2
1
70
0
62
7
6
0
0
ENDTAB
0
ENDSEC
0
SECTION
2
BLOCKS
0
ENDSEC
0
SECTION
2
ENTITIES
0
POLYLINE
8
1
66
1
70
1
0
VERTEX
8
1
10
10.098976
20
50.606796
0
VERTEX
8
1
10
10.098976
20
16.606796
0
VERTEX
8
1
10
20.098976
20
16.606796
0
VERTEX
8
1
10
20.098976
20
50.606796
0
SEQEND
0
POLYLINE
8
1
66
1
70
1
0
VERTEX
8
1
10
0.765106
20
49.354424
0
VERTEX
8
1
10
0.765106
20
20.355888
0
VERTEX
8
1
10
8.765106
20
20.355888
0
VERTEX
8
1
10
8.765106
20
49.354424
0
SEQEND
0
POLYLINE
8
1
66
1
70
1
0
VERTEX
8
1
10
76.268120
20
50.634270
0
VERTEX
8
1
10
76.268120
20
16.634270
0
VERTEX
8
1
10
87.268120
20
16.634270
0
VERTEX
8
1
10
87.268120
20
50.634270
0
SEQEND
0
POLYLINE
8
1
66
1
70
1
0
VERTEX
8
1
10
88.268517
20
50.807144
0
VERTEX
8
1
10
88.268517
20
44.807144
0
VERTEX
8
1
10
97.268517
20
44.807144
0
VERTEX
8
1
10
97.268517
20
50.807144
0
SEQEND
0
POLYLINE
8
1
66
1
70
1
0
VERTEX
8
1
10
46.950752
20
5.563980
42
0.147407
0
VERTEX
8
1
10
48.165489
20
1.471222
0
VERTEX
8
1
10
48.204720
20
1.414825
42
-0.032400
0
VERTEX
8
1
10
48.628822
20
1.374771
42
0.044489
0
VERTEX
8
1
10
49.479286
20
1.362396
42
-0.027299
0
VERTEX
8
1
10
50.252174
20
1.378952
0
VERTEX
8
1
10
50.265709
20
1.382614
0
VERTEX
8
1
10
50.265694
20
1.409439
42
0.000001
0
VERTEX
8
1
10
50.265709
20
11.699600
42
0.124060
0
VERTEX
8
1
10
47.944176
20
9.300247
42
0.132472
0
SEQEND
0
POLYLINE
8
1
66
1
70
1
0
VERTEX
8
1
10
57.362953
20
12.516808
42
0.139627
0
VERTEX
8
1
10
54.113731
20
11.591042
0
VERTEX
8
1
10
54.113731
20
11.566757
0
VERTEX
8
1
10
54.113716
20
11.513260
42
0.000147
0
VERTEX
8
1
10
54.115166
20
1.270386
42
-0.007058
0
VERTEX
8
1
10
54.469963
20
1.240417
42
0.062378
0
VERTEX
8
1
10
54.648506
20
1.240036
42
1.029244
0
VERTEX
8
1
10
54.647499
20
1.251419
42
-0.002318
0
VERTEX
8
1
10
54.624077
20
1.261780
42
0.000543
0
VERTEX
8
1
10
57.192650
20
1.127151
42
-0.028863
0
VERTEX
8
1
10
58.503944
20
0.968521
42
0.025974
0
VERTEX
8
1
10
59.429070
20
0.873199
42
-0.015793
0
VERTEX
8
1
10
60.968086
20
0.745285
0
VERTEX
8
1
10
61.025887
20
0.738083
42
0.055847
0
VERTEX
8
1
10
62.199074
20
0.697449
0
VERTEX
8
1
10
62.241203
20
0.732071
42
0.150383
0
VERTEX
8
1
10
63.889076
20
4.691605
42
0.131406
0
VERTEX
8
1
10
63.267189
20
8.545410
42
0.109848
0
VERTEX
8
1
10
61.440971
20
10.989357
0
VERTEX
8
1
10
61.261696
20
11.137108
42
0.120108
0
VERTEX
8
1
10
58.550819
20
12.401497
42
0.048636
0
SEQEND
0
POLYLINE
8
1
66
1
70
1
0
VERTEX
8
1
10
54.100578
20
51.189758
0
VERTEX
8
1
10
54.100594
20
51.180092
42
0.000001
0
VERTEX
8
1
10
54.100578
20
35.544205
42
-0.288545
0
VERTEX
8
1
10
60.683891
20
35.490082
0
VERTEX
8
1
10
60.808861
20
35.408623
0
VERTEX
8
1
10
60.931999
20
35.324287
42
-0.131911
0
VERTEX
8
1
10
63.230186
20
32.548004
0
VERTEX
8
1
10
63.294167
20
32.405708
0
VERTEX
8
1
10
63.355247
20
32.261665
0
VERTEX
8
1
10
63.413414
20
32.115906
42
-0.204866
0
VERTEX
8
1
10
63.191811
20
26.184189
42
-0.063415
0
VERTEX
8
1
10
62.219307
20
24.672188
0
VERTEX
8
1
10
62.191216
20
24.648331
42
-0.057424
0
VERTEX
8
1
10
60.965523
20
24.694519
42
0.016354
0
VERTEX
8
1
10
59.457451
20
24.820976
42
-0.027150
0
VERTEX
8
1
10
58.458916
20
24.924118
42
0.035329
0
VERTEX
8
1
10
56.836708
20
25.096672
42
0.000758
0
VERTEX
8
1
10
54.615227
20
25.210274
42
-0.282472
0
VERTEX
8
1
10
54.639885
20
25.193275
0
VERTEX
8
1
10
54.639091
20
25.192513
42
-0.101622
0
VERTEX
8
1
10
54.533638
20
25.186829
0
VERTEX
8
1
10
54.522514
20
25.187271
0
VERTEX
8
1
10
54.510689
20
25.187820
0
VERTEX
8
1
10
54.498161
20
25.188461
0
VERTEX
8
1
10
54.484917
20
25.189201
0
VERTEX
8
1
10
54.470909
20
25.190048
0
VERTEX
8
1
10
54.456154
20
25.190994
42
0.007065
0
VERTEX
8
1
10
54.101448
20
25.220955
0
VERTEX
8
1
10
54.100563
20
25.219727
42
0.000032
0
VERTEX
8
1
10
54.100594
20
24.547211
42
0.000010
0
VERTEX
8
1
10
54.100655
20
14.189766
42
0.000000
0
VERTEX
8
1
10
74.099632
20
14.189758
0
VERTEX
8
1
10
74.100578
20
14.201752
0
VERTEX
8
1
10
74.100578
20
14.257164
0
VERTEX
8
1
10
74.100563
20
14.356438
42
0.000049
0
VERTEX
8
1
10
74.098869
20
51.189751
42
0.000000
0
SEQEND
0
POLYLINE
8
1
66
1
70
1
0
VERTEX
8
1
10
49.560341
20
25.139786
42
0.027850
0
VERTEX
8
1
10
49.228737
20
25.167358
0
VERTEX
8
1
10
49.219521
20
25.176239
42
-0.150845
0
VERTEX
8
1
10
47.973091
20
29.356026
42
-0.151623
0
VERTEX
8
1
10
49.273811
20
33.536209
42
-0.102569
0
VERTEX
8
1
10
51.265663
20
35.438957
0
VERTEX
8
1
10
51.287910
20
35.455505
42
0.000001
0
VERTEX
8
1
10
51.287926
20
52.182976
42
0.000008
0
VERTEX
8
1
10
21.287926
20
52.182884
42
0.000001
0
VERTEX
8
1
10
21.287933
20
40.866386
0
VERTEX
8
1
10
21.287926
20
40.269592
42
0.000071
0
VERTEX
8
1
10
21.289177
20
14.183044
42
0.000042
0
VERTEX
8
1
10
51.287926
20
14.184311
42
0.000185
0
VERTEX
8
1
10
51.287910
20
14.234177
42
0.000001
0
VERTEX
8
1
10
51.287926
20
25.130516
42
0.029283
0
VERTEX
8
1
10
50.500481
20
25.114937
42
-0.048353
0
VERTEX
8
1
10
49.603111
20
25.133598
0
VERTEX
8
1
10
49.581856
20
25.136597
0
SEQEND
0
ENDSEC
0
EOF
