0
SECTION
2
HEADER
9
$EXTMIN
10
0.695396
20
1.106930
9
$EXTMAX
10
44.715759
20
11.233843
0
ENDSEC
0
SECTION
2
TABLES
0
TABLE
2
LTYPE
70
1
0
LTYPE
2
0
70
0
3
Solid Line
72
65
73
0
40
0.0
0
ENDTAB
0
TABLE
2
LAYER
70
1
0
LAYER
2
1
70
0
62
7
6
0
0
ENDTAB
0
ENDSEC
0
SECTION
2
BLOCKS
0
ENDSEC
0
SECTION
2
ENTITIES
0
POLYLINE
8
1
66
1
70
1
0
VERTEX
8
1
10
21.542305
20
9.417542
42
-0.173071
0
VERTEX
8
1
10
21.751076
20
9.528156
42
-0.064886
0
VERTEX
8
1
10
22.268356
20
9.545841
0
VERTEX
8
1
10
22.316948
20
9.543186
0
VERTEX
8
1
10
22.342865
20
9.550148
42
0.242235
0
VERTEX
8
1
10
22.081238
20
9.770531
42
0.199274
0
VERTEX
8
1
10
21.999916
20
9.837486
42
0.035980
0
VERTEX
8
1
10
21.687317
20
9.929848
42
0.039662
0
VERTEX
8
1
10
21.319611
20
10.032261
42
0.081936
0
VERTEX
8
1
10
20.572739
20
9.976929
42
0.048019
0
VERTEX
8
1
10
19.847069
20
9.753143
42
-0.019304
0
VERTEX
8
1
10
19.283531
20
9.548775
42
0.040999
0
VERTEX
8
1
10
18.526253
20
9.216801
42
-0.015566
0
VERTEX
8
1
10
18.188148
20
9.065453
42
-0.082231
0
VERTEX
8
1
10
17.933289
20
9.029018
0
VERTEX
8
1
10
17.862207
20
9.024373
42
-0.000413
0
VERTEX
8
1
10
17.439436
20
8.977151
42
0.029146
0
VERTEX
8
1
10
17.278023
20
8.946175
42
-0.015171
0
VERTEX
8
1
10
16.954596
20
8.808665
42
-0.116418
0
VERTEX
8
1
10
16.909866
20
8.806400
42
-0.127824
0
VERTEX
8
1
10
16.783714
20
8.704975
42
0.133525
0
VERTEX
8
1
10
16.677307
20
8.683032
42
0.114933
0
VERTEX
8
1
10
16.503242
20
8.557247
0
VERTEX
8
1
10
16.490189
20
8.550716
42
0.366528
0
VERTEX
8
1
10
16.388184
20
8.571026
42
0.071181
0
VERTEX
8
1
10
16.224739
20
8.459145
42
-0.113593
0
VERTEX
8
1
10
16.112785
20
8.424614
42
0.092571
0
VERTEX
8
1
10
15.962646
20
8.344429
42
-0.025854
0
VERTEX
8
1
10
15.727192
20
8.215131
42
0.029722
0
VERTEX
8
1
10
15.661667
20
8.170277
0
VERTEX
8
1
10
15.644829
20
8.169724
0
VERTEX
8
1
10
15.625992
20
8.172470
42
0.125022
0
VERTEX
8
1
10
15.453301
20
8.103784
42
-0.065540
0
VERTEX
8
1
10
15.294357
20
8.040878
42
0.017308
0
VERTEX
8
1
10
15.031301
20
7.922694
42
-0.000226
0
VERTEX
8
1
10
14.882095
20
7.888676
42
0.033913
0
VERTEX
8
1
10
14.766762
20
7.823311
42
-0.076795
0
VERTEX
8
1
10
14.627693
20
7.788025
42
0.043361
0
VERTEX
8
1
10
14.506617
20
7.740386
42
-0.151327
0
VERTEX
8
1
10
14.451157
20
7.740456
0
VERTEX
8
1
10
14.441765
20
7.737694
42
-0.281067
0
VERTEX
8
1
10
14.318756
20
7.718235
0
VERTEX
8
1
10
14.307693
20
7.716595
42
-0.207152
0
VERTEX
8
1
10
14.190979
20
7.668163
42
0.084476
0
VERTEX
8
1
10
14.055351
20
7.641933
0
VERTEX
8
1
10
14.037056
20
7.630604
42
0.127788
0
VERTEX
8
1
10
13.815143
20
7.624437
42
0.069925
0
VERTEX
8
1
10
13.428642
20
7.485134
0
VERTEX
8
1
10
13.410484
20
7.481888
42
0.103902
0
VERTEX
8
1
10
13.315231
20
7.517033
42
0.350054
0
VERTEX
8
1
10
13.299667
20
7.501057
42
0.344932
0
VERTEX
8
1
10
13.200195
20
7.536652
42
-0.062919
0
VERTEX
8
1
10
13.184090
20
7.514038
42
-0.279382
0
VERTEX
8
1
10
13.131805
20
7.629696
42
-0.040662
0
VERTEX
8
1
10
13.176910
20
7.813103
42
0.173744
0
VERTEX
8
1
10
13.166565
20
7.909885
42
0.228783
0
VERTEX
8
1
10
13.039528
20
7.976723
0
VERTEX
8
1
10
12.997826
20
7.979046
42
0.156054
0
VERTEX
8
1
10
12.480919
20
7.790554
0
VERTEX
8
1
10
12.417755
20
7.745178
42
-0.116817
0
VERTEX
8
1
10
11.973087
20
7.536773
42
0.051825
0
VERTEX
8
1
10
11.677279
20
7.432478
42
0.022410
0
VERTEX
8
1
10
11.607162
20
7.388477
42
-0.012596
0
VERTEX
8
1
10
11.619736
20
7.412247
0
VERTEX
8
1
10
11.617180
20
7.411488
0
VERTEX
8
1
10
11.432846
20
7.350037
42
-0.120673
0
VERTEX
8
1
10
11.300011
20
7.283760
42
-0.026129
0
VERTEX
8
1
10
10.978021
20
7.234168
42
0.067391
0
VERTEX
8
1
10
10.800720
20
7.177822
42
-0.077741
0
VERTEX
8
1
10
10.069481
20
7.025040
0
VERTEX
8
1
10
10.024330
20
7.024782
42
0.001820
0
VERTEX
8
1
10
9.284372
20
7.045288
42
0.079820
0
VERTEX
8
1
10
9.037964
20
7.001186
42
0.160723
0
VERTEX
8
1
10
8.873535
20
6.990669
42
-0.041530
0
VERTEX
8
1
10
8.517159
20
6.908188
42
-0.047516
0
VERTEX
8
1
10
7.837714
20
6.807484
42
-0.010349
0
VERTEX
8
1
10
7.060143
20
6.857628
42
0.048224
0
VERTEX
8
1
10
6.874268
20
6.847061
0
VERTEX
8
1
10
6.848999
20
6.846863
42
0.048249
0
VERTEX
8
1
10
6.628358
20
6.848147
42
0.045128
0
VERTEX
8
1
10
6.582085
20
6.833790
42
0.268847
0
VERTEX
8
1
10
6.475014
20
6.838707
42
0.091094
0
VERTEX
8
1
10
6.259674
20
6.854576
42
-0.064571
0
VERTEX
8
1
10
5.846353
20
6.883056
42
0.083716
0
VERTEX
8
1
10
5.418786
20
6.876931
0
VERTEX
8
1
10
5.375809
20
6.871685
42
-0.011534
0
VERTEX
8
1
10
4.989089
20
6.899868
42
0.081381
0
VERTEX
8
1
10
4.828616
20
6.919146
42
0.008831
0
VERTEX
8
1
10
4.602832
20
6.914155
42
-0.097672
0
VERTEX
8
1
10
4.443214
20
6.950783
42
-0.018244
0
VERTEX
8
1
10
4.377792
20
6.950726
42
-0.192086
0
VERTEX
8
1
10
4.239899
20
6.906036
42
0.036751
0
VERTEX
8
1
10
4.088470
20
6.897793
42
0.201900
0
VERTEX
8
1
10
3.861557
20
6.907330
0
VERTEX
8
1
10
3.815903
20
6.895664
42
0.446137
0
VERTEX
8
1
10
3.723221
20
6.870522
0
VERTEX
8
1
10
3.497475
20
6.829472
42
0.081369
0
VERTEX
8
1
10
3.327126
20
6.792217
42
-0.059658
0
VERTEX
8
1
10
2.885129
20
6.677564
0
VERTEX
8
1
10
2.815662
20
6.666238
0
VERTEX
8
1
10
2.746208
20
6.654823
42
-0.005981
0
VERTEX
8
1
10
2.575203
20
6.659359
42
0.084020
0
VERTEX
8
1
10
2.278108
20
6.564174
42
-0.108736
0
VERTEX
8
1
10
1.958605
20
6.511522
42
0.058284
0
VERTEX
8
1
10
1.677757
20
6.475792
42
-0.240924
0
VERTEX
8
1
10
1.603332
20
6.467958
42
0.106097
0
VERTEX
8
1
10
1.435936
20
6.471127
42
0.004662
0
VERTEX
8
1
10
1.429291
20
6.421013
42
0.092152
0
VERTEX
8
1
10
1.277851
20
6.391504
42
-0.030732
0
VERTEX
8
1
10
1.165352
20
6.365814
0
VERTEX
8
1
10
1.157898
20
6.333687
0
VERTEX
8
1
10
1.152054
20
6.335087
42
0.278379
0
VERTEX
8
1
10
1.020546
20
6.332680
42
0.064353
0
VERTEX
8
1
10
0.850609
20
6.201351
42
0.063881
0
VERTEX
8
1
10
0.724380
20
6.086243
42
0.193857
0
VERTEX
8
1
10
0.698219
20
5.957249
42
-0.043973
0
VERTEX
8
1
10
0.715301
20
5.719972
42
0.128605
0
VERTEX
8
1
10
0.738182
20
5.654373
42
0.012279
0
VERTEX
8
1
10
0.793171
20
5.627571
42
-0.133244
0
VERTEX
8
1
10
0.822826
20
5.535530
42
0.017869
0
VERTEX
8
1
10
0.920938
20
5.268892
42
0.053179
0
VERTEX
8
1
10
0.965919
20
5.200981
0
VERTEX
8
1
10
0.985374
20
5.190243
42
-0.329383
0
VERTEX
8
1
10
1.080017
20
5.189625
42
-0.012824
0
VERTEX
8
1
10
1.170572
20
5.121149
42
0.302828
0
VERTEX
8
1
10
1.250885
20
5.129761
0
VERTEX
8
1
10
1.278069
20
5.154957
0
VERTEX
8
1
10
1.290222
20
5.149139
42
0.143424
0
VERTEX
8
1
10
1.452774
20
5.037876
42
0.224579
0
VERTEX
8
1
10
1.543320
20
5.065117
0
VERTEX
8
1
10
1.572701
20
5.085873
42
-0.267372
0
VERTEX
8
1
10
1.685440
20
5.110012
42
-0.053913
0
VERTEX
8
1
10
1.869331
20
5.152931
42
0.056556
0
VERTEX
8
1
10
2.136490
20
5.105843
42
-0.062288
0
VERTEX
8
1
10
2.498634
20
5.014126
42
0.013899
0
VERTEX
8
1
10
2.809090
20
4.938889
42
0.041566
0
VERTEX
8
1
10
3.059146
20
4.868665
42
0.055721
0
VERTEX
8
1
10
3.120743
20
4.870659
0
VERTEX
8
1
10
3.223312
20
4.829624
42
-0.084346
0
VERTEX
8
1
10
3.416046
20
4.769722
42
0.053065
0
VERTEX
8
1
10
3.667669
20
4.678321
42
-0.005162
0
VERTEX
8
1
10
4.503319
20
4.426273
42
-0.026346
0
VERTEX
8
1
10
5.102468
20
4.182991
42
0.036409
0
VERTEX
8
1
10
5.548326
20
4.029552
42
0.015159
0
VERTEX
8
1
10
6.078034
20
3.852109
42
0.080949
0
VERTEX
8
1
10
6.211624
20
3.845032
0
VERTEX
8
1
10
6.224655
20
3.849518
0
VERTEX
8
1
10
6.306701
20
3.726445
42
0.007240
0
VERTEX
8
1
10
6.672173
20
3.267245
42
-0.019178
0
VERTEX
8
1
10
6.783302
20
3.106995
0
VERTEX
8
1
10
6.794937
20
3.082272
42
-0.019226
0
VERTEX
8
1
10
6.855759
20
2.849510
42
0.262658
0
VERTEX
8
1
10
6.990883
20
2.727219
42
-0.023526
0
VERTEX
8
1
10
7.195115
20
2.669710
42
-0.077067
0
VERTEX
8
1
10
7.297935
20
2.603561
42
-0.116516
0
VERTEX
8
1
10
7.725822
20
2.108665
42
0.222573
0
VERTEX
8
1
10
7.870140
20
1.961044
42
-0.147403
0
VERTEX
8
1
10
8.055550
20
1.813778
0
VERTEX
8
1
10
8.071510
20
1.794144
42
0.181437
0
VERTEX
8
1
10
8.251122
20
1.666328
42
-0.019001
0
VERTEX
8
1
10
8.281029
20
1.680359
42
0.201018
0
VERTEX
8
1
10
8.507027
20
1.525974
42
-0.049315
0
VERTEX
8
1
10
8.656273
20
1.474602
42
0.043610
0
VERTEX
8
1
10
8.730080
20
1.414597
42
0.329491
0
VERTEX
8
1
10
8.809971
20
1.447214
42
-0.414995
0
VERTEX
8
1
10
8.918544
20
1.448273
42
0.007821
0
VERTEX
8
1
10
8.994470
20
1.393511
42
0.292662
0
VERTEX
8
1
10
9.085556
20
1.409077
42
-0.013654
0
VERTEX
8
1
10
9.115417
20
1.395477
42
-0.076854
0
VERTEX
8
1
10
9.202797
20
1.402447
0
VERTEX
8
1
10
9.219032
20
1.406113
42
-0.134962
0
VERTEX
8
1
10
9.363825
20
1.358888
42
0.097202
0
VERTEX
8
1
10
9.447723
20
1.340496
0
VERTEX
8
1
10
9.465477
20
1.345467
0
VERTEX
8
1
10
9.474388
20
1.349937
42
0.221227
0
VERTEX
8
1
10
9.587105
20
1.304974
42
-0.416612
0
VERTEX
8
1
10
9.642494
20
1.288101
42
0.062518
0
VERTEX
8
1
10
9.706894
20
1.210976
42
0.098957
0
VERTEX
8
1
10
9.763614
20
1.185142
42
-0.112353
0
VERTEX
8
1
10
9.821130
20
1.201746
42
-0.098341
0
VERTEX
8
1
10
10.080070
20
1.199181
0
VERTEX
8
1
10
10.100647
20
1.192879
42
0.287396
0
VERTEX
8
1
10
10.207809
20
1.282433
42
0.444871
0
VERTEX
8
1
10
10.370974
20
1.328176
42
0.248706
0
VERTEX
8
1
10
10.386055
20
1.471893
42
-0.021246
0
VERTEX
8
1
10
10.355331
20
1.478634
0
VERTEX
8
1
10
10.351517
20
1.483593
42
0.113527
0
VERTEX
8
1
10
10.252441
20
1.613068
42
0.095309
0
VERTEX
8
1
10
9.789383
20
1.872375
42
-0.059000
0
VERTEX
8
1
10
9.398125
20
2.012482
42
0.011523
0
VERTEX
8
1
10
9.239288
20
2.077316
42
-0.085995
0
VERTEX
8
1
10
8.894547
20
2.354324
42
0.044876
0
VERTEX
8
1
10
8.519700
20
2.692302
42
-0.029062
0
VERTEX
8
1
10
8.343201
20
2.863335
42
-0.240865
0
VERTEX
8
1
10
8.296776
20
2.928047
42
0.162158
0
VERTEX
8
1
10
8.200623
20
3.103909
42
-0.077002
0
VERTEX
8
1
10
8.096024
20
3.255550
42
0.007907
0
VERTEX
8
1
10
7.875113
20
3.561688
0
VERTEX
8
1
10
7.877714
20
3.560531
42
0.210743
0
VERTEX
8
1
10
7.887964
20
3.576526
0
VERTEX
8
1
10
7.890892
20
3.579235
0
VERTEX
8
1
10
7.976883
20
3.543301
42
-0.027922
0
VERTEX
8
1
10
8.055320
20
3.531374
42
-0.222259
0
VERTEX
8
1
10
8.223488
20
3.397228
0
VERTEX
8
1
10
8.257202
20
3.341961
0
VERTEX
8
1
10
8.276802
20
3.310680
42
0.242944
0
VERTEX
8
1
10
8.506699
20
3.158096
42
0.014331
0
VERTEX
8
1
10
8.678261
20
3.139641
42
-0.187937
0
VERTEX
8
1
10
8.838486
20
3.042019
0
VERTEX
8
1
10
8.858925
20
3.017887
42
0.133133
0
VERTEX
8
1
10
9.087669
20
2.825634
42
0.105327
0
VERTEX
8
1
10
9.422173
20
2.721928
0
VERTEX
8
1
10
9.429695
20
2.714787
42
0.037751
0
VERTEX
8
1
10
9.426727
20
2.571247
42
0.365820
0
VERTEX
8
1
10
9.497200
20
2.518677
42
-0.227232
0
VERTEX
8
1
10
9.570206
20
2.472637
42
-0.045633
0
VERTEX
8
1
10
9.639891
20
2.345185
42
0.253040
0
VERTEX
8
1
10
9.798696
20
2.257574
42
-0.062629
0
VERTEX
8
1
10
9.927040
20
2.216297
42
0.026745
0
VERTEX
8
1
10
10.083725
20
2.105213
42
0.047746
0
VERTEX
8
1
10
10.279045
20
2.052914
42
-0.177150
0
VERTEX
8
1
10
10.501465
20
1.846149
42
0.256827
0
VERTEX
8
1
10
10.701630
20
1.717537
42
-0.043459
0
VERTEX
8
1
10
10.887559
20
1.691349
42
-0.257124
0
VERTEX
8
1
10
10.978821
20
1.582951
42
0.039134
0
VERTEX
8
1
10
11.076309
20
1.527035
0
VERTEX
8
1
10
11.092621
20
1.533527
42
-0.473349
0
VERTEX
8
1
10
11.170486
20
1.509232
42
0.153310
0
VERTEX
8
1
10
11.282646
20
1.365658
42
-0.132637
0
VERTEX
8
1
10
11.552611
20
1.226150
42
0.055838
0
VERTEX
8
1
10
11.710938
20
1.127575
0
VERTEX
8
1
10
11.725876
20
1.126236
42
0.156049
0
VERTEX
8
1
10
11.829437
20
1.203171
0
VERTEX
8
1
10
11.828606
20
1.204288
0
VERTEX
8
1
10
11.972054
20
1.183796
0
VERTEX
8
1
10
11.974762
20
1.182255
42
0.295516
0
VERTEX
8
1
10
12.130496
20
1.110029
42
0.209917
0
VERTEX
8
1
10
12.178108
20
1.152973
42
0.204043
0
VERTEX
8
1
10
12.197433
20
1.144814
42
0.233404
0
VERTEX
8
1
10
12.239375
20
1.348951
42
0.095955
0
VERTEX
8
1
10
12.163322
20
1.527420
42
0.044161
0
VERTEX
8
1
10
11.723366
20
2.056561
42
-0.085342
0
VERTEX
8
1
10
11.584752
20
2.278569
42
0.180777
0
VERTEX
8
1
10
11.491837
20
2.356842
42
-0.082485
0
VERTEX
8
1
10
11.297058
20
2.466282
42
-0.109826
0
VERTEX
8
1
10
11.089356
20
2.675673
42
0.005855
0
VERTEX
8
1
10
10.972595
20
2.912647
42
0.044511
0
VERTEX
8
1
10
10.571516
20
3.372873
42
0.061450
0
VERTEX
8
1
10
10.455002
20
3.448799
0
VERTEX
8
1
10
10.425842
20
3.455196
0
VERTEX
8
1
10
10.723747
20
3.475056
42
0.095940
0
VERTEX
8
1
10
10.855270
20
3.481049
0
VERTEX
8
1
10
10.911858
20
3.491745
42
-0.158740
0
VERTEX
8
1
10
11.080498
20
3.484959
42
0.025409
0
VERTEX
8
1
10
11.156372
20
3.512932
42
0.382493
0
VERTEX
8
1
10
11.248764
20
3.532154
42
-0.217835
0
VERTEX
8
1
10
11.278961
20
3.520584
42
-0.029353
0
VERTEX
8
1
10
11.412375
20
3.556737
42
0.042626
0
VERTEX
8
1
10
11.449043
20
3.575191
42
0.115582
0
VERTEX
8
1
10
11.525337
20
3.571281
42
0.042385
0
VERTEX
8
1
10
11.816711
20
3.653645
42
0.043159
0
VERTEX
8
1
10
12.464943
20
3.864677
42
-0.022805
0
VERTEX
8
1
10
13.314491
20
4.155327
42
0.078000
0
VERTEX
8
1
10
15.082911
20
5.019784
42
0.037508
0
VERTEX
8
1
10
15.786896
20
5.587972
42
-0.008209
0
VERTEX
8
1
10
15.967308
20
5.797577
42
-0.081758
0
VERTEX
8
1
10
16.140877
20
5.917305
42
0.139588
0
VERTEX
8
1
10
16.267143
20
6.045692
42
-0.055528
0
VERTEX
8
1
10
16.390417
20
6.202910
42
0.002140
0
VERTEX
8
1
10
16.641891
20
6.502052
42
0.032443
0
VERTEX
8
1
10
16.902534
20
6.908646
0
VERTEX
8
1
10
16.934013
20
6.960667
42
0.003233
0
VERTEX
8
1
10
17.358315
20
7.615635
42
-0.000512
0
VERTEX
8
1
10
17.521475
20
7.929632
42
-0.073119
0
VERTEX
8
1
10
17.643738
20
8.073147
0
VERTEX
8
1
10
17.650749
20
8.074375
42
0.143489
0
VERTEX
8
1
10
17.630465
20
7.961986
42
0.180413
0
VERTEX
8
1
10
17.640594
20
7.953362
42
0.031096
0
VERTEX
8
1
10
17.597986
20
7.640496
42
0.188244
0
VERTEX
8
1
10
17.676422
20
7.449898
42
-0.020587
0
VERTEX
8
1
10
17.760468
20
7.344456
0
VERTEX
8
1
10
17.779579
20
7.343407
42
0.263757
0
VERTEX
8
1
10
17.854927
20
7.453293
42
-0.012811
0
VERTEX
8
1
10
17.870102
20
7.523571
0
VERTEX
8
1
10
17.879402
20
7.538418
42
-0.245596
0
VERTEX
8
1
10
17.985596
20
7.556362
42
0.337823
0
VERTEX
8
1
10
18.132542
20
7.630186
42
-0.160633
0
VERTEX
8
1
10
18.177345
20
7.657112
42
-0.041230
0
VERTEX
8
1
10
18.362942
20
7.690543
42
0.211354
0
VERTEX
8
1
10
18.452324
20
7.764946
0
VERTEX
8
1
10
18.468491
20
7.800125
0
VERTEX
8
1
10
18.487549
20
7.828304
42
-0.030256
0
VERTEX
8
1
10
18.708176
20
7.845644
42
0.129608
0
VERTEX
8
1
10
18.827133
20
7.897034
0
VERTEX
8
1
10
18.844582
20
7.919097
42
-0.458192
0
VERTEX
8
1
10
18.866417
20
8.050407
42
-0.109578
0
VERTEX
8
1
10
18.975021
20
8.104763
42
0.364051
0
VERTEX
8
1
10
19.051552
20
8.133362
42
0.172093
0
VERTEX
8
1
10
19.039772
20
8.165947
42
-0.035866
0
VERTEX
8
1
10
19.095512
20
8.254025
42
-0.118408
0
VERTEX
8
1
10
19.235535
20
8.330261
42
0.347032
0
VERTEX
8
1
10
19.342285
20
8.485035
42
-0.150294
0
VERTEX
8
1
10
19.398466
20
8.640931
42
0.027676
0
VERTEX
8
1
10
19.414925
20
8.677891
0
VERTEX
8
1
10
19.436890
20
8.668678
42
0.208156
0
VERTEX
8
1
10
19.729322
20
8.642250
42
0.155678
0
VERTEX
8
1
10
19.816765
20
8.717438
0
VERTEX
8
1
10
19.837059
20
8.730316
0
VERTEX
8
1
10
19.860886
20
8.714455
42
0.321565
0
VERTEX
8
1
10
20.138975
20
8.712214
42
0.045359
0
VERTEX
8
1
10
20.215744
20
8.767612
42
-0.151145
0
VERTEX
8
1
10
20.409306
20
8.790332
42
0.018740
0
VERTEX
8
1
10
20.461288
20
8.790260
0
VERTEX
8
1
10
20.471397
20
8.798798
42
-0.277027
0
VERTEX
8
1
10
20.578346
20
8.910255
42
0.098493
0
VERTEX
8
1
10
20.839012
20
9.059082
42
-0.103997
0
VERTEX
8
1
10
21.049959
20
9.144646
42
0.199981
0
VERTEX
8
1
10
21.215698
20
9.279015
0
VERTEX
8
1
10
21.235626
20
9.307381
42
-0.052483
0
VERTEX
8
1
10
21.390335
20
9.334557
42
0.146365
0
SEQEND
0
POLYLINE
8
1
66
1
70
1
0
VERTEX
8
1
10
1.222107
20
6.015720
0
VERTEX
8
1
10
1.184708
20
6.052731
0
VERTEX
8
1
10
1.186981
20
6.050751
42
0.398884
0
VERTEX
8
1
10
1.308716
20
6.103817
0
VERTEX
8
1
10
1.307220
20
6.119301
42
0.279356
0
VERTEX
8
1
10
1.184456
20
6.185230
0
VERTEX
8
1
10
1.168518
20
6.186356
42
-0.377669
0
VERTEX
8
1
10
1.361195
20
6.186807
42
-0.247149
0
VERTEX
8
1
10
1.386276
20
6.092636
0
VERTEX
8
1
10
1.373161
20
6.055183
0
VERTEX
8
1
10
1.347328
20
6.016171
42
-0.193122
0
SEQEND
0
POLYLINE
8
1
66
1
70
1
0
VERTEX
8
1
10
0.879906
20
5.954929
0
VERTEX
8
1
10
0.931660
20
5.967514
0
VERTEX
8
1
10
0.928757
20
5.966610
42
0.410188
0
VERTEX
8
1
10
0.913940
20
5.837593
0
VERTEX
8
1
10
0.928398
20
5.830978
42
0.278800
0
VERTEX
8
1
10
1.049095
20
5.900475
0
VERTEX
8
1
10
1.058182
20
5.913273
42
-0.395180
0
VERTEX
8
1
10
0.960481
20
5.751470
42
-0.236531
0
VERTEX
8
1
10
0.864689
20
5.778202
0
VERTEX
8
1
10
0.838192
20
5.808216
0
VERTEX
8
1
10
0.816772
20
5.849689
42
-0.201097
0
SEQEND
0
POLYLINE
8
1
66
1
70
1
0
VERTEX
8
1
10
1.281181
20
5.489841
42
-0.215452
0
VERTEX
8
1
10
1.244004
20
5.383037
42
-0.000310
0
VERTEX
8
1
10
1.197395
20
5.360306
42
0.418890
0
VERTEX
8
1
10
1.187256
20
5.488602
0
VERTEX
8
1
10
1.172089
20
5.493725
42
0.293332
0
VERTEX
8
1
10
1.068016
20
5.403217
0
VERTEX
8
1
10
1.061783
20
5.388706
0
VERTEX
8
1
10
1.052086
20
5.409904
0
VERTEX
8
1
10
1.048363
20
5.451599
0
VERTEX
8
1
10
1.054405
20
5.488689
42
-0.473920
0
VERTEX
8
1
10
1.212616
20
5.562069
0
VERTEX
8
1
10
1.245499
20
5.540741
0
VERTEX
8
1
10
1.276291
20
5.507336
0
SEQEND
0
POLYLINE
8
1
66
1
70
1
0
VERTEX
8
1
10
1.444771
20
5.799118
0
VERTEX
8
1
10
1.473549
20
5.755394
0
VERTEX
8
1
10
1.468803
20
5.760689
42
0.335077
0
VERTEX
8
1
10
1.345985
20
5.738850
0
VERTEX
8
1
10
1.338699
20
5.724571
0
VERTEX
8
1
10
1.340446
20
5.709164
42
0.259261
0
VERTEX
8
1
10
1.451729
20
5.624180
0
VERTEX
8
1
10
1.454887
20
5.617153
42
-0.234423
0
VERTEX
8
1
10
1.309584
20
5.621572
42
-0.420671
0
VERTEX
8
1
10
1.274475
20
5.770771
0
VERTEX
8
1
10
1.300224
20
5.804543
0
VERTEX
8
1
10
1.326736
20
5.824177
42
-0.203425
0
SEQEND
0
POLYLINE
8
1
66
1
70
1
0
VERTEX
8
1
10
12.525421
20
7.421280
42
-0.051334
0
VERTEX
8
1
10
12.795250
20
7.494247
0
VERTEX
8
1
10
12.786003
20
7.454823
0
VERTEX
8
1
10
12.745773
20
7.401451
42
-0.120812
0
VERTEX
8
1
10
12.427714
20
7.208258
42
-0.095616
0
VERTEX
8
1
10
11.683037
20
7.086025
0
VERTEX
8
1
10
11.669899
20
7.127178
42
-0.260279
0
VERTEX
8
1
10
11.774533
20
7.307740
42
-0.085401
0
VERTEX
8
1
10
12.043009
20
7.443330
42
0.020394
0
VERTEX
8
1
10
12.170944
20
7.499123
42
0.015609
0
VERTEX
8
1
10
12.377563
20
7.567993
42
0.194125
0
VERTEX
8
1
10
12.180473
20
7.387875
0
VERTEX
8
1
10
12.175896
20
7.371944
0
VERTEX
8
1
10
12.200714
20
7.363361
42
0.094736
0
SEQEND
0
POLYLINE
8
1
66
1
70
1
0
VERTEX
8
1
10
7.335732
20
4.999008
42
0.046130
0
VERTEX
8
1
10
7.174637
20
5.141193
0
VERTEX
8
1
10
7.170815
20
5.138901
42
-0.099400
0
VERTEX
8
1
10
7.007988
20
5.133862
42
-0.464419
0
VERTEX
8
1
10
6.995505
20
5.173821
42
-0.274454
0
VERTEX
8
1
10
7.075317
20
5.235615
42
-0.055619
0
VERTEX
8
1
10
7.275887
20
5.240334
0
VERTEX
8
1
10
7.300545
20
5.241337
42
-0.231228
0
VERTEX
8
1
10
7.354187
20
5.226700
42
-0.117137
0
VERTEX
8
1
10
7.575386
20
5.252914
42
-0.062105
0
VERTEX
8
1
10
8.069611
20
5.153675
42
-0.122242
0
VERTEX
8
1
10
8.321068
20
4.957497
0
VERTEX
8
1
10
8.309883
20
4.915962
42
-0.293671
0
VERTEX
8
1
10
8.250340
20
4.889722
42
-0.051290
0
VERTEX
8
1
10
8.209167
20
4.892006
0
VERTEX
8
1
10
8.200539
20
4.905357
42
0.317792
0
VERTEX
8
1
10
8.122464
20
4.985989
42
0.149360
0
VERTEX
8
1
10
8.074722
20
4.973358
0
VERTEX
8
1
10
8.073929
20
4.967945
42
-0.018776
0
VERTEX
8
1
10
8.110779
20
4.923145
42
-0.321712
0
VERTEX
8
1
10
8.009018
20
4.892948
0
VERTEX
8
1
10
8.003746
20
4.908913
42
0.347553
0
VERTEX
8
1
10
7.947792
20
4.958893
0
VERTEX
8
1
10
7.937180
20
4.962666
0
VERTEX
8
1
10
7.925079
20
4.965172
42
0.333628
0
VERTEX
8
1
10
7.936462
20
4.768681
0
VERTEX
8
1
10
7.937340
20
4.749237
0
VERTEX
8
1
10
7.902924
20
4.729664
0
VERTEX
8
1
10
7.874908
20
4.727215
0
VERTEX
8
1
10
7.852203
20
4.739227
0
VERTEX
8
1
10
7.833755
20
4.763023
42
-0.050207
0
VERTEX
8
1
10
7.772682
20
4.951834
42
0.057017
0
VERTEX
8
1
10
7.734245
20
5.034760
0
VERTEX
8
1
10
7.717522
20
5.046017
42
-0.040403
0
VERTEX
8
1
10
7.683311
20
5.001545
42
0.141009
0
VERTEX
8
1
10
7.691963
20
4.959461
0
VERTEX
8
1
10
7.692230
20
4.947987
42
-0.134991
0
VERTEX
8
1
10
7.595573
20
4.946781
0
VERTEX
8
1
10
7.594460
20
4.963688
42
0.297559
0
VERTEX
8
1
10
7.538366
20
5.101512
42
0.321695
0
VERTEX
8
1
10
7.472122
20
5.086288
0
VERTEX
8
1
10
7.452019
20
5.063572
0
VERTEX
8
1
10
7.443306
20
5.047066
0
VERTEX
8
1
10
7.445694
20
5.033913
42
0.004507
0
VERTEX
8
1
10
7.492616
20
4.946266
42
-0.549075
0
VERTEX
8
1
10
7.472809
20
4.927254
0
VERTEX
8
1
10
7.452247
20
4.929218
42
-0.182936
0
VERTEX
8
1
10
7.363820
20
4.972294
0
VERTEX
8
1
10
7.349632
20
4.985499
0
SEQEND
0
POLYLINE
8
1
66
1
70
1
0
VERTEX
8
1
10
5.700027
20
6.328949
0
VERTEX
8
1
10
5.701195
20
6.343971
0
VERTEX
8
1
10
5.742950
20
6.362476
42
-0.186610
0
VERTEX
8
1
10
6.049018
20
6.333478
42
-0.167947
0
VERTEX
8
1
10
6.324709
20
6.088033
42
-0.132789
0
VERTEX
8
1
10
6.380821
20
5.804054
0
VERTEX
8
1
10
6.378464
20
5.754200
0
VERTEX
8
1
10
6.361092
20
5.734261
42
-0.410732
0
VERTEX
8
1
10
6.309471
20
5.782135
42
-0.054818
0
VERTEX
8
1
10
6.301262
20
5.929749
42
0.162018
0
VERTEX
8
1
10
6.206184
20
6.122949
42
0.043209
0
VERTEX
8
1
10
6.170845
20
6.146690
0
VERTEX
8
1
10
6.158966
20
6.164284
42
0.188663
0
VERTEX
8
1
10
5.949051
20
6.255203
0
VERTEX
8
1
10
5.930176
20
6.252758
42
0.217970
0
VERTEX
8
1
10
5.812509
20
6.268909
42
-0.019765
0
VERTEX
8
1
10
5.754272
20
6.263012
0
VERTEX
8
1
10
5.726753
20
6.318043
42
0.077285
0
VERTEX
8
1
10
5.713264
20
6.296925
42
-0.262806
0
SEQEND
0
POLYLINE
8
1
66
1
70
1
0
VERTEX
8
1
10
5.606880
20
5.916664
42
0.017964
0
VERTEX
8
1
10
5.560715
20
5.938976
42
-0.365597
0
VERTEX
8
1
10
5.686073
20
6.137684
42
-0.249235
0
VERTEX
8
1
10
6.119981
20
6.056653
42
-0.219134
0
VERTEX
8
1
10
6.179178
20
5.894109
42
-0.253352
0
VERTEX
8
1
10
5.998479
20
5.560972
42
-0.363685
0
VERTEX
8
1
10
5.824120
20
5.605595
42
0.326708
0
VERTEX
8
1
10
6.005944
20
5.736955
0
VERTEX
8
1
10
6.007668
20
5.747896
0
VERTEX
8
1
10
6.008461
20
5.758942
0
VERTEX
8
1
10
5.987022
20
5.780922
42
-0.303163
0
VERTEX
8
1
10
5.769346
20
5.750406
42
-0.386420
0
VERTEX
8
1
10
5.752460
20
5.831657
42
-0.315539
0
VERTEX
8
1
10
5.839584
20
5.889431
42
-0.018817
0
VERTEX
8
1
10
6.017352
20
5.873638
0
VERTEX
8
1
10
6.028203
20
5.875147
42
0.476182
0
VERTEX
8
1
10
6.062073
20
5.929386
0
VERTEX
8
1
10
6.053139
20
5.960835
0
VERTEX
8
1
10
6.035370
20
6.001583
0
VERTEX
8
1
10
6.013557
20
6.024925
42
0.176274
0
VERTEX
8
1
10
5.726696
20
6.028404
42
0.349899
0
VERTEX
8
1
10
5.662895
20
5.888142
0
VERTEX
8
1
10
5.659988
20
5.882473
42
0.039344
0
SEQEND
0
POLYLINE
8
1
66
1
70
1
0
VERTEX
8
1
10
4.532265
20
6.193203
42
-0.019218
0
VERTEX
8
1
10
4.528343
20
6.183651
42
-0.225293
0
VERTEX
8
1
10
4.665962
20
6.183723
42
-0.181235
0
VERTEX
8
1
10
5.024399
20
5.836220
42
-0.026086
0
VERTEX
8
1
10
5.165237
20
5.516933
42
0.184109
0
VERTEX
8
1
10
5.615768
20
5.082848
42
-0.072059
0
VERTEX
8
1
10
5.816476
20
5.016268
42
-0.189948
0
VERTEX
8
1
10
5.836014
20
4.978497
0
VERTEX
8
1
10
5.787148
20
4.971695
42
-0.147707
0
VERTEX
8
1
10
5.450874
20
5.085075
42
-0.145070
0
VERTEX
8
1
10
5.037483
20
5.608181
0
VERTEX
8
1
10
5.009438
20
5.674370
0
VERTEX
8
1
10
4.995155
20
5.707291
42
0.194433
0
VERTEX
8
1
10
4.674141
20
6.061440
42
0.068228
0
VERTEX
8
1
10
4.477509
20
6.110561
0
VERTEX
8
1
10
4.464104
20
6.114769
42
-0.166407
0
VERTEX
8
1
10
4.466743
20
6.164600
42
-0.537262
0
VERTEX
8
1
10
4.502342
20
6.142017
0
VERTEX
8
1
10
4.504272
20
6.138012
0
VERTEX
8
1
10
4.531998
20
6.193462
0
VERTEX
8
1
10
4.532356
20
6.193821
0
SEQEND
0
POLYLINE
8
1
66
1
70
1
0
VERTEX
8
1
10
4.787964
20
6.421066
0
VERTEX
8
1
10
4.786186
20
6.461189
42
-0.710353
0
VERTEX
8
1
10
4.735273
20
6.531058
42
-0.082918
0
VERTEX
8
1
10
4.753250
20
6.557697
42
0.019400
0
VERTEX
8
1
10
4.838127
20
6.579506
42
-0.137163
0
VERTEX
8
1
10
4.956200
20
6.543213
42
-0.073852
0
VERTEX
8
1
10
5.203621
20
6.379875
42
-0.076219
0
VERTEX
8
1
10
5.378761
20
6.114123
42
0.019612
0
VERTEX
8
1
10
5.707703
20
5.577827
42
-0.135447
0
VERTEX
8
1
10
5.715874
20
5.526154
42
-0.421841
0
VERTEX
8
1
10
5.671631
20
5.518707
42
-0.156007
0
VERTEX
8
1
10
5.497818
20
5.699982
42
-0.013139
0
VERTEX
8
1
10
5.220078
20
6.157196
0
VERTEX
8
1
10
5.196892
20
6.193230
42
0.179644
0
VERTEX
8
1
10
4.923755
20
6.417443
42
0.130417
0
VERTEX
8
1
10
4.807655
20
6.434303
0
VERTEX
8
1
10
4.793465
20
6.426586
0
SEQEND
0
POLYLINE
8
1
66
1
70
1
0
VERTEX
8
1
10
4.442581
20
6.656170
0
VERTEX
8
1
10
4.405869
20
6.693832
0
VERTEX
8
1
10
4.408112
20
6.691814
42
0.398589
0
VERTEX
8
1
10
4.530807
20
6.742729
0
VERTEX
8
1
10
4.529610
20
6.758236
42
0.279689
0
VERTEX
8
1
10
4.408104
20
6.826324
0
VERTEX
8
1
10
4.392189
20
6.827724
42
-0.377721
0
VERTEX
8
1
10
4.584832
20
6.824769
42
-0.247194
0
VERTEX
8
1
10
4.608154
20
6.730175
0
VERTEX
8
1
10
4.594345
20
6.692963
0
VERTEX
8
1
10
4.567787
20
6.654411
42
-0.193137
0
SEQEND
0
POLYLINE
8
1
66
1
70
1
0
VERTEX
8
1
10
1.764122
20
5.916599
0
VERTEX
8
1
10
1.716431
20
5.893314
0
VERTEX
8
1
10
1.719063
20
5.894810
42
0.410407
0
VERTEX
8
1
10
1.704651
20
6.023888
0
VERTEX
8
1
10
1.689064
20
6.027271
42
0.281908
0
VERTEX
8
1
10
1.586823
20
5.933849
0
VERTEX
8
1
10
1.580826
20
5.919430
42
-0.398765
0
VERTEX
8
1
10
1.640107
20
6.098076
42
-0.236430
0
VERTEX
8
1
10
1.739433
20
6.092289
0
VERTEX
8
1
10
1.772018
20
6.068623
0
VERTEX
8
1
10
1.802208
20
6.032692
42
-0.218388
0
SEQEND
0
POLYLINE
8
1
66
1
70
1
0
VERTEX
8
1
10
1.638069
20
5.488300
0
VERTEX
8
1
10
1.681442
20
5.498669
42
0.433100
0
VERTEX
8
1
10
1.666252
20
5.391850
0
VERTEX
8
1
10
1.679596
20
5.385876
42
0.280176
0
VERTEX
8
1
10
1.787598
20
5.453716
42
-0.454620
0
VERTEX
8
1
10
1.688926
20
5.318986
42
-0.257182
0
VERTEX
8
1
10
1.605125
20
5.364281
0
VERTEX
8
1
10
1.585037
20
5.401451
42
-0.210986
0
SEQEND
0
POLYLINE
8
1
66
1
70
1
0
VERTEX
8
1
10
1.854027
20
5.842873
0
VERTEX
8
1
10
1.905754
20
5.855469
0
VERTEX
8
1
10
1.902847
20
5.854565
42
0.410302
0
VERTEX
8
1
10
1.888062
20
5.725544
0
VERTEX
8
1
10
1.902527
20
5.718929
42
0.278806
0
VERTEX
8
1
10
2.023170
20
5.788429
0
VERTEX
8
1
10
2.032257
20
5.801224
42
-0.395196
0
VERTEX
8
1
10
1.934582
20
5.639423
42
-0.236579
0
VERTEX
8
1
10
1.838791
20
5.666153
0
VERTEX
8
1
10
1.812294
20
5.696163
0
VERTEX
8
1
10
1.790871
20
5.737633
42
-0.216577
0
SEQEND
0
POLYLINE
8
1
66
1
70
1
0
VERTEX
8
1
10
2.228493
20
6.079250
0
VERTEX
8
1
10
2.257271
20
6.035526
0
VERTEX
8
1
10
2.255463
20
6.037922
42
0.389856
0
VERTEX
8
1
10
2.125122
20
6.010422
0
VERTEX
8
1
10
2.123299
20
5.994976
0
VERTEX
8
1
10
2.127060
20
5.980320
42
0.227350
0
VERTEX
8
1
10
2.244804
20
5.901535
42
-0.343024
0
VERTEX
8
1
10
2.064354
20
5.927964
42
-0.285998
0
VERTEX
8
1
10
2.051575
20
6.036926
0
VERTEX
8
1
10
2.072334
20
6.070946
0
VERTEX
8
1
10
2.105881
20
6.103939
42
-0.193411
0
SEQEND
0
POLYLINE
8
1
66
1
70
1
0
VERTEX
8
1
10
2.346992
20
5.494804
42
-0.215252
0
VERTEX
8
1
10
2.309844
20
5.388011
42
-0.000329
0
VERTEX
8
1
10
2.263206
20
5.365292
42
0.418895
0
VERTEX
8
1
10
2.253067
20
5.493580
0
VERTEX
8
1
10
2.237900
20
5.498703
42
0.293361
0
VERTEX
8
1
10
2.133820
20
5.408188
0
VERTEX
8
1
10
2.127594
20
5.393673
0
VERTEX
8
1
10
2.117897
20
5.414871
0
VERTEX
8
1
10
2.114174
20
5.456570
0
VERTEX
8
1
10
2.120209
20
5.493660
42
-0.473909
0
VERTEX
8
1
10
2.278427
20
5.567036
0
VERTEX
8
1
10
2.311302
20
5.545704
0
VERTEX
8
1
10
2.342094
20
5.512299
0
SEQEND
0
POLYLINE
8
1
66
1
70
1
0
VERTEX
8
1
10
2.527115
20
5.905155
0
VERTEX
8
1
10
2.489922
20
5.941952
0
VERTEX
8
1
10
2.497528
20
5.936832
42
0.339131
0
VERTEX
8
1
10
2.612450
20
5.986610
0
VERTEX
8
1
10
2.614670
20
6.002220
0
VERTEX
8
1
10
2.609062
20
6.016567
42
0.246137
0
VERTEX
8
1
10
2.480339
20
6.074902
0
VERTEX
8
1
10
2.486931
20
6.085995
0
VERTEX
8
1
10
2.526695
20
6.104492
42
-0.427627
0
VERTEX
8
1
10
2.690882
20
6.031415
42
-0.169370
0
VERTEX
8
1
10
2.685417
20
5.959301
0
VERTEX
8
1
10
2.664825
20
5.920784
0
VERTEX
8
1
10
2.645859
20
5.903545
42
-0.207303
0
SEQEND
0
POLYLINE
8
1
66
1
70
1
0
VERTEX
8
1
10
2.712158
20
5.595627
0
VERTEX
8
1
10
2.740936
20
5.551903
0
VERTEX
8
1
10
2.736191
20
5.557198
42
0.335141
0
VERTEX
8
1
10
2.613380
20
5.535362
0
VERTEX
8
1
10
2.606094
20
5.521080
0
VERTEX
8
1
10
2.607841
20
5.505672
42
0.259364
0
VERTEX
8
1
10
2.719109
20
5.420696
0
VERTEX
8
1
10
2.722260
20
5.413673
42
-0.234436
0
VERTEX
8
1
10
2.576958
20
5.418086
42
-0.420628
0
VERTEX
8
1
10
2.541855
20
5.567284
0
VERTEX
8
1
10
2.567604
20
5.601051
0
VERTEX
8
1
10
2.594116
20
5.620689
42
-0.203376
0
SEQEND
0
POLYLINE
8
1
66
1
70
1
0
VERTEX
8
1
10
2.676483
20
6.307526
42
0.074486
0
VERTEX
8
1
10
2.419754
20
6.315201
42
-0.036867
0
VERTEX
8
1
10
1.851256
20
6.290928
0
VERTEX
8
1
10
1.805527
20
6.315205
42
-0.164804
0
VERTEX
8
1
10
1.933365
20
6.349850
42
0.056633
0
VERTEX
8
1
10
1.989853
20
6.361103
0
VERTEX
8
1
10
2.006882
20
6.361183
42
0.163452
0
VERTEX
8
1
10
2.221191
20
6.351097
42
-0.032802
0
VERTEX
8
1
10
2.469612
20
6.399776
42
-0.027095
0
VERTEX
8
1
10
2.738557
20
6.385475
42
0.082916
0
VERTEX
8
1
10
2.886086
20
6.409172
42
0.093892
0
VERTEX
8
1
10
3.032600
20
6.433949
0
VERTEX
8
1
10
3.045303
20
6.434479
0
VERTEX
8
1
10
3.069229
20
6.426601
42
0.083185
0
VERTEX
8
1
10
3.376630
20
6.430839
42
-0.059232
0
VERTEX
8
1
10
3.596230
20
6.427872
42
0.032998
0
VERTEX
8
1
10
4.194885
20
6.436394
42
-0.145542
0
VERTEX
8
1
10
4.906378
20
6.283417
42
-0.110355
0
VERTEX
8
1
10
5.149818
20
6.051556
42
-0.020644
0
VERTEX
8
1
10
5.379135
20
5.665981
42
0.059166
0
VERTEX
8
1
10
5.586632
20
5.399609
42
-0.031080
0
VERTEX
8
1
10
5.780209
20
5.239075
42
-0.078831
0
VERTEX
8
1
10
5.800903
20
5.204044
0
VERTEX
8
1
10
5.796776
20
5.194210
0
VERTEX
8
1
10
5.757988
20
5.204971
42
-0.240463
0
VERTEX
8
1
10
5.251038
20
5.654217
42
0.023853
0
VERTEX
8
1
10
5.115604
20
5.966706
42
0.223126
0
VERTEX
8
1
10
4.711037
20
6.247486
0
VERTEX
8
1
10
4.617581
20
6.264072
42
-0.001447
0
VERTEX
8
1
10
4.180538
20
6.328388
42
0.027131
0
VERTEX
8
1
10
4.023636
20
6.334587
42
-0.027547
0
VERTEX
8
1
10
3.773205
20
6.309125
42
-0.081659
0
VERTEX
8
1
10
3.708397
20
6.325268
0
VERTEX
8
1
10
3.697693
20
6.326103
42
-0.101117
0
VERTEX
8
1
10
3.573029
20
6.318947
0
VERTEX
8
1
10
3.555794
20
6.325375
42
0.086597
0
VERTEX
8
1
10
3.394081
20
6.312061
42
-0.123792
0
VERTEX
8
1
10
3.136292
20
6.309956
42
0.042571
0
VERTEX
8
1
10
2.815926
20
6.298954
42
-0.045655
0
SEQEND
0
POLYLINE
8
1
66
1
70
1
0
VERTEX
8
1
10
3.668045
20
5.706478
0
VERTEX
8
1
10
3.630577
20
5.743561
0
VERTEX
8
1
10
3.634560
20
5.740372
42
0.336044
0
VERTEX
8
1
10
3.750458
20
5.782597
42
0.388011
0
VERTEX
8
1
10
3.731217
20
5.838458
42
0.190072
0
VERTEX
8
1
10
3.611481
20
5.877121
42
-0.191634
0
VERTEX
8
1
10
3.735753
20
5.913889
42
-0.534925
0
VERTEX
8
1
10
3.820221
20
5.746749
42
-0.087435
0
VERTEX
8
1
10
3.791031
20
5.706326
42
-0.197457
0
SEQEND
0
POLYLINE
8
1
66
1
70
1
0
VERTEX
8
1
10
3.391426
20
5.672150
0
VERTEX
8
1
10
3.420265
20
5.628353
0
VERTEX
8
1
10
3.417030
20
5.632271
42
0.398600
0
VERTEX
8
1
10
3.286659
20
5.600464
0
VERTEX
8
1
10
3.286636
20
5.584957
42
0.270702
0
VERTEX
8
1
10
3.395416
20
5.497906
0
VERTEX
8
1
10
3.410637
20
5.493820
42
-0.190417
0
VERTEX
8
1
10
3.281382
20
5.482686
42
-0.539617
0
VERTEX
8
1
10
3.234039
20
5.663337
42
-0.086705
0
VERTEX
8
1
10
3.271141
20
5.696976
42
-0.212082
0
SEQEND
0
POLYLINE
8
1
66
1
70
1
0
VERTEX
8
1
10
3.214767
20
5.901619
0
VERTEX
8
1
10
3.177979
20
5.939346
0
VERTEX
8
1
10
3.181900
20
5.936092
42
0.335877
0
VERTEX
8
1
10
3.298569
20
5.976265
42
0.388115
0
VERTEX
8
1
10
3.280378
20
6.032453
42
0.190253
0
VERTEX
8
1
10
3.161400
20
6.073219
42
-0.191502
0
VERTEX
8
1
10
3.286309
20
6.107799
42
-0.535438
0
VERTEX
8
1
10
3.367652
20
5.939173
42
-0.087372
0
VERTEX
8
1
10
3.337708
20
5.899281
42
-0.197489
0
SEQEND
0
POLYLINE
8
1
66
1
70
1
0
VERTEX
8
1
10
2.936150
20
5.408974
0
VERTEX
8
1
10
2.979500
20
5.419331
42
0.467253
0
VERTEX
8
1
10
2.968582
20
5.308571
42
0.318858
0
VERTEX
8
1
10
3.080292
20
5.367306
0
VERTEX
8
1
10
3.087570
20
5.367943
0
VERTEX
8
1
10
3.085220
20
5.328365
0
VERTEX
8
1
10
3.073746
20
5.295219
42
-0.522251
0
VERTEX
8
1
10
2.917358
20
5.268059
0
VERTEX
8
1
10
2.894051
20
5.298302
0
VERTEX
8
1
10
2.884087
20
5.326046
42
-0.221614
0
SEQEND
0
POLYLINE
8
1
66
1
70
1
0
VERTEX
8
1
10
3.094742
20
5.674519
0
VERTEX
8
1
10
3.047325
20
5.651398
0
VERTEX
8
1
10
3.054665
20
5.656864
42
0.355612
0
VERTEX
8
1
10
3.041374
20
5.778610
0
VERTEX
8
1
10
3.026787
20
5.785454
42
0.303236
0
VERTEX
8
1
10
2.920883
20
5.698017
0
VERTEX
8
1
10
2.914429
20
5.683430
0
VERTEX
8
1
10
2.905624
20
5.692955
0
VERTEX
8
1
10
2.899765
20
5.735466
0
VERTEX
8
1
10
2.903969
20
5.773544
42
-0.613449
0
VERTEX
8
1
10
3.102177
20
5.827714
0
VERTEX
8
1
10
3.114241
20
5.814491
42
-0.296978
0
VERTEX
8
1
10
3.131908
20
5.750917
42
-0.160340
0
SEQEND
0
POLYLINE
8
1
66
1
70
1
0
VERTEX
8
1
10
7.428009
20
3.671005
0
VERTEX
8
1
10
7.415558
20
3.686635
42
-0.048340
0
VERTEX
8
1
10
5.491202
20
4.198110
42
-0.007978
0
VERTEX
8
1
10
5.162094
20
4.330430
42
0.009318
0
VERTEX
8
1
10
4.722397
20
4.471508
42
-0.014493
0
VERTEX
8
1
10
4.247352
20
4.664799
42
0.016892
0
VERTEX
8
1
10
3.184204
20
5.005737
0
VERTEX
8
1
10
3.115273
20
5.026905
0
VERTEX
8
1
10
3.087616
20
5.026902
42
-0.007418
0
VERTEX
8
1
10
2.919569
20
5.074623
42
-0.054271
0
VERTEX
8
1
10
2.884094
20
5.096008
0
VERTEX
8
1
10
2.879562
20
5.105358
42
-0.107369
0
VERTEX
8
1
10
3.760373
20
5.002586
42
-0.039191
0
VERTEX
8
1
10
4.281227
20
4.790680
0
VERTEX
8
1
10
4.334373
20
4.767334
42
0.024552
0
VERTEX
8
1
10
4.048767
20
5.038067
42
0.083799
0
VERTEX
8
1
10
3.689621
20
5.217003
42
-0.016669
0
VERTEX
8
1
10
3.384071
20
5.328812
0
VERTEX
8
1
10
3.411766
20
5.333950
42
-0.085074
0
VERTEX
8
1
10
3.814786
20
5.260258
42
-0.094779
0
VERTEX
8
1
10
4.504837
20
4.875212
42
0.036131
0
VERTEX
8
1
10
4.882086
20
4.622443
42
0.040265
0
VERTEX
8
1
10
5.044708
20
4.555370
0
VERTEX
8
1
10
5.003067
20
4.574291
42
-0.098754
0
VERTEX
8
1
10
4.781548
20
4.780048
42
0.017145
0
VERTEX
8
1
10
4.545326
20
5.076836
42
0.069665
0
VERTEX
8
1
10
4.313171
20
5.247383
42
0.078019
0
VERTEX
8
1
10
3.761765
20
5.480900
42
0.045005
0
VERTEX
8
1
10
3.588097
20
5.499649
42
0.073447
0
VERTEX
8
1
10
3.813681
20
5.529213
42
-0.141094
0
VERTEX
8
1
10
4.059647
20
5.497768
42
-0.083652
0
VERTEX
8
1
10
4.656996
20
5.116201
42
-0.013668
0
VERTEX
8
1
10
5.011627
20
4.794746
42
0.174247
0
VERTEX
8
1
10
5.739155
20
4.467281
42
0.106956
0
VERTEX
8
1
10
5.908623
20
4.499733
42
-0.172797
0
VERTEX
8
1
10
5.414632
20
4.677072
42
-0.059805
0
VERTEX
8
1
10
5.109982
20
4.969586
42
-0.002074
0
VERTEX
8
1
10
4.902386
20
5.202025
42
0.070423
0
VERTEX
8
1
10
4.104752
20
5.781635
42
0.013999
0
VERTEX
8
1
10
4.555833
20
5.583214
42
-0.089815
0
VERTEX
8
1
10
4.943459
20
5.311692
42
0.010724
0
VERTEX
8
1
10
5.336910
20
4.923785
42
0.162026
0
VERTEX
8
1
10
6.061491
20
4.620940
42
0.005711
0
VERTEX
8
1
10
6.201401
20
4.606537
42
-0.003324
0
VERTEX
8
1
10
6.377701
20
4.563427
42
0.127705
0
VERTEX
8
1
10
6.528763
20
4.584972
42
-0.155392
0
VERTEX
8
1
10
6.847762
20
4.566000
42
-0.197118
0
VERTEX
8
1
10
6.943810
20
4.455841
0
VERTEX
8
1
10
6.920799
20
4.446453
42
-0.045793
0
VERTEX
8
1
10
6.377701
20
4.425004
42
-0.076145
0
VERTEX
8
1
10
6.220207
20
4.466042
42
-0.103752
0
VERTEX
8
1
10
6.170258
20
4.456966
42
0.055784
0
VERTEX
8
1
10
6.467194
20
4.349091
42
0.017776
0
VERTEX
8
1
10
6.674492
20
4.336098
42
-0.073004
0
VERTEX
8
1
10
6.779312
20
4.309917
0
VERTEX
8
1
10
6.926971
20
4.327614
42
0.102058
0
VERTEX
8
1
10
7.140259
20
4.297979
42
-0.027425
0
VERTEX
8
1
10
7.198944
20
4.292091
42
0.074214
0
VERTEX
8
1
10
7.407745
20
4.136894
0
VERTEX
8
1
10
7.415222
20
4.129204
42
-0.115539
0
VERTEX
8
1
10
7.299922
20
4.123785
42
-0.038458
0
VERTEX
8
1
10
7.065025
20
4.160282
42
0.046003
0
VERTEX
8
1
10
6.762411
20
4.171534
42
-0.054343
0
VERTEX
8
1
10
6.640831
20
4.187008
0
VERTEX
8
1
10
6.629181
20
4.187252
42
-0.064533
0
VERTEX
8
1
10
6.427094
20
4.180454
42
0.063133
0
VERTEX
8
1
10
6.384857
20
4.170753
42
0.107595
0
VERTEX
8
1
10
6.277636
20
4.178650
42
0.007190
0
VERTEX
8
1
10
6.088202
20
4.217322
42
0.042703
0
VERTEX
8
1
10
6.042587
20
4.216740
0
VERTEX
8
1
10
6.048233
20
4.200214
42
0.174396
0
VERTEX
8
1
10
6.311675
20
4.076338
42
0.045796
0
VERTEX
8
1
10
6.591354
20
4.053265
42
-0.061159
0
VERTEX
8
1
10
7.342957
20
3.921154
0
VERTEX
8
1
10
7.368256
20
3.922878
42
-0.142344
0
VERTEX
8
1
10
7.643937
20
3.893387
42
-0.216781
0
VERTEX
8
1
10
7.798804
20
3.678375
42
-0.371078
0
VERTEX
8
1
10
7.755127
20
3.629616
0
VERTEX
8
1
10
7.731339
20
3.626030
42
-0.096180
0
VERTEX
8
1
10
7.467896
20
3.688557
42
-0.013636
0
SEQEND
0
POLYLINE
8
1
66
1
70
1
0
VERTEX
8
1
10
8.962700
20
1.970047
42
0.323802
0
VERTEX
8
1
10
9.001282
20
2.067257
0
VERTEX
8
1
10
8.992844
20
2.081360
42
0.296119
0
VERTEX
8
1
10
8.822155
20
2.070513
42
-0.029567
0
VERTEX
8
1
10
8.731773
20
2.032692
42
-0.099994
0
VERTEX
8
1
10
8.654640
20
2.139534
42
0.061179
0
VERTEX
8
1
10
8.743660
20
2.142979
0
VERTEX
8
1
10
8.751076
20
2.147694
42
0.358674
0
VERTEX
8
1
10
8.592819
20
2.394093
0
VERTEX
8
1
10
8.583038
20
2.434757
0
VERTEX
8
1
10
8.581169
20
2.438644
42
0.012357
0
VERTEX
8
1
10
8.509567
20
2.464779
42
-0.445891
0
VERTEX
8
1
10
8.356636
20
2.438965
0
VERTEX
8
1
10
8.342194
20
2.449581
42
-0.175052
0
VERTEX
8
1
10
8.346199
20
2.551632
42
-0.372580
0
VERTEX
8
1
10
8.365807
20
2.539837
42
0.072682
0
VERTEX
8
1
10
8.387695
20
2.605312
42
-0.120422
0
VERTEX
8
1
10
8.206928
20
2.730068
42
-0.186440
0
VERTEX
8
1
10
8.174904
20
2.851383
42
0.427992
0
VERTEX
8
1
10
7.936846
20
3.035231
42
-0.411594
0
VERTEX
8
1
10
7.841782
20
3.132641
42
-0.013391
0
VERTEX
8
1
10
7.888420
20
3.142757
0
VERTEX
8
1
10
7.893951
20
3.179684
42
0.143801
0
VERTEX
8
1
10
7.823486
20
3.337887
42
-0.013126
0
VERTEX
8
1
10
7.706680
20
3.496635
0
VERTEX
8
1
10
7.686050
20
3.533630
0
VERTEX
8
1
10
7.673088
20
3.568802
42
0.051856
0
VERTEX
8
1
10
7.449005
20
3.594719
0
VERTEX
8
1
10
7.437302
20
3.599239
42
-0.042083
0
VERTEX
8
1
10
7.317993
20
3.633102
0
VERTEX
8
1
10
7.272690
20
3.622211
0
VERTEX
8
1
10
7.213417
20
3.616993
42
-0.089572
0
VERTEX
8
1
10
6.631584
20
3.726032
0
VERTEX
8
1
10
6.589516
20
3.747887
0
VERTEX
8
1
10
6.586456
20
3.748547
0
VERTEX
8
1
10
6.532059
20
3.721348
42
0.053074
0
VERTEX
8
1
10
6.676514
20
3.505005
42
-0.168962
0
VERTEX
8
1
10
6.831291
20
3.549873
42
-0.064695
0
VERTEX
8
1
10
6.861916
20
3.478165
0
VERTEX
8
1
10
6.858276
20
3.476631
0
VERTEX
8
1
10
6.815155
20
3.466732
42
0.013945
0
VERTEX
8
1
10
6.814316
20
3.392666
42
-0.165667
0
VERTEX
8
1
10
6.978267
20
3.368503
42
-0.175031
0
VERTEX
8
1
10
7.018929
20
3.308372
0
VERTEX
8
1
10
7.009209
20
3.296005
42
-0.329259
0
VERTEX
8
1
10
6.872734
20
3.299568
0
VERTEX
8
1
10
6.874435
20
3.272602
42
0.202400
0
VERTEX
8
1
10
7.056563
20
3.011976
42
0.172284
0
VERTEX
8
1
10
7.158028
20
3.001373
0
VERTEX
8
1
10
7.166885
20
3.007217
0
VERTEX
8
1
10
7.175507
20
3.049030
42
-0.154526
0
VERTEX
8
1
10
7.275902
20
3.051125
42
-0.040997
0
VERTEX
8
1
10
7.298859
20
2.970814
42
0.021717
0
VERTEX
8
1
10
7.251076
20
2.944016
42
0.348197
0
VERTEX
8
1
10
7.373236
20
2.903876
42
0.007029
0
VERTEX
8
1
10
7.490186
20
2.929135
42
-0.255027
0
VERTEX
8
1
10
7.560493
20
2.894650
0
VERTEX
8
1
10
7.580330
20
2.853207
0
VERTEX
8
1
10
7.579933
20
2.837429
42
-0.017282
0
VERTEX
8
1
10
7.509766
20
2.827805
0
VERTEX
8
1
10
7.515106
20
2.796200
0
VERTEX
8
1
10
7.538658
20
2.765930
0
VERTEX
8
1
10
7.574089
20
2.749378
0
VERTEX
8
1
10
7.617569
20
2.743034
0
VERTEX
8
1
10
7.665237
20
2.743404
0
VERTEX
8
1
10
7.757797
20
2.750256
0
VERTEX
8
1
10
7.794998
20
2.749744
0
VERTEX
8
1
10
7.821014
20
2.741928
0
VERTEX
8
1
10
7.832016
20
2.723301
0
VERTEX
8
1
10
7.824127
20
2.690376
0
VERTEX
8
1
10
7.807709
20
2.675400
42
-0.045152
0
VERTEX
8
1
10
7.624626
20
2.660526
0
VERTEX
8
1
10
7.618828
20
2.655212
42
0.126674
0
VERTEX
8
1
10
7.646179
20
2.562157
42
0.067322
0
VERTEX
8
1
10
7.826775
20
2.523399
0
VERTEX
8
1
10
7.830742
20
2.496521
42
0.054436
0
VERTEX
8
1
10
7.823288
20
2.333874
42
0.174397
0
VERTEX
8
1
10
7.907578
20
2.189724
0
VERTEX
8
1
10
7.936829
20
2.184853
0
VERTEX
8
1
10
7.962173
20
2.187813
42
-0.216289
0
VERTEX
8
1
10
8.049049
20
2.121769
42
-0.053367
0
VERTEX
8
1
10
8.118980
20
1.983742
0
VERTEX
8
1
10
8.147499
20
2.004417
0
VERTEX
8
1
10
8.183998
20
2.033684
0
VERTEX
8
1
10
8.215790
20
2.043854
0
VERTEX
8
1
10
8.244141
20
2.038502
0
VERTEX
8
1
10
8.270332
20
2.021191
42
0.009110
0
VERTEX
8
1
10
8.378975
20
1.903698
0
VERTEX
8
1
10
8.413483
20
1.880096
0
VERTEX
8
1
10
8.453484
20
1.865929
0
VERTEX
8
1
10
8.469124
20
1.872852
42
-0.166880
0
VERTEX
8
1
10
8.473572
20
2.009468
0
VERTEX
8
1
10
8.496841
20
2.005592
0
VERTEX
8
1
10
8.529305
20
1.975342
0
VERTEX
8
1
10
8.558228
20
1.931759
42
0.028865
0
VERTEX
8
1
10
8.667534
20
1.726452
0
VERTEX
8
1
10
8.700562
20
1.692989
0
VERTEX
8
1
10
8.738777
20
1.676918
0
VERTEX
8
1
10
8.783653
20
1.683353
0
VERTEX
8
1
10
8.836632
20
1.717426
0
VERTEX
8
1
10
8.855469
20
1.746143
42
-0.254804
0
VERTEX
8
1
10
8.820175
20
1.791790
0
VERTEX
8
1
10
8.816017
20
1.797279
0
VERTEX
8
1
10
8.827881
20
1.803673
42
-0.536537
0
VERTEX
8
1
10
8.956123
20
1.707489
0
VERTEX
8
1
10
8.955200
20
1.682846
0
VERTEX
8
1
10
8.962189
20
1.666595
42
0.087702
0
VERTEX
8
1
10
9.161995
20
1.609550
42
0.096291
0
VERTEX
8
1
10
9.316070
20
1.649954
42
-0.087742
0
VERTEX
8
1
10
9.404282
20
1.662441
0
VERTEX
8
1
10
9.423256
20
1.628292
0
VERTEX
8
1
10
9.445244
20
1.578796
0
VERTEX
8
1
10
9.475670
20
1.546898
42
0.136230
0
VERTEX
8
1
10
9.613923
20
1.515067
42
-0.121078
0
VERTEX
8
1
10
9.721893
20
1.500104
42
-0.392258
0
VERTEX
8
1
10
9.766479
20
1.387794
42
0.486921
0
VERTEX
8
1
10
9.817225
20
1.335438
42
0.168308
0
VERTEX
8
1
10
9.905563
20
1.358105
0
VERTEX
8
1
10
9.917587
20
1.372948
0
VERTEX
8
1
10
9.920258
20
1.388535
42
0.339827
0
VERTEX
8
1
10
9.883209
20
1.486599
0
VERTEX
8
1
10
9.881783
20
1.497925
0
VERTEX
8
1
10
9.893852
20
1.508541
42
-0.510891
0
VERTEX
8
1
10
9.955887
20
1.504173
42
0.048603
0
VERTEX
8
1
10
9.986259
20
1.476112
42
0.198811
0
VERTEX
8
1
10
10.055016
20
1.536678
42
0.050512
0
VERTEX
8
1
10
10.029007
20
1.602608
0
VERTEX
8
1
10
10.015823
20
1.606766
42
-0.048039
0
VERTEX
8
1
10
9.682762
20
1.673504
0
VERTEX
8
1
10
9.643120
20
1.690380
0
VERTEX
8
1
10
9.613144
20
1.709213
0
VERTEX
8
1
10
9.595413
20
1.730045
0
VERTEX
8
1
10
9.593353
20
1.744141
42
-0.013637
0
VERTEX
8
1
10
9.635643
20
1.753284
0
VERTEX
8
1
10
9.638885
20
1.756573
42
0.040297
0
VERTEX
8
1
10
9.638557
20
1.823997
0
VERTEX
8
1
10
9.623596
20
1.831333
42
0.092353
0
VERTEX
8
1
10
9.412663
20
1.816467
42
-0.234619
0
VERTEX
8
1
10
9.218895
20
1.880115
42
-0.213549
0
VERTEX
8
1
10
9.209836
20
1.949889
42
0.275667
0
VERTEX
8
1
10
9.184288
20
1.987652
0
VERTEX
8
1
10
9.162834
20
1.995979
42
0.427073
0
VERTEX
8
1
10
9.033673
20
1.943342
0
VERTEX
8
1
10
9.030052
20
1.930878
0
VERTEX
8
1
10
9.023872
20
1.920216
42
-0.198069
0
VERTEX
8
1
10
8.922241
20
1.951260
42
-0.018553
0
SEQEND
0
POLYLINE
8
1
66
1
70
1
0
VERTEX
8
1
10
10.721008
20
2.915977
0
VERTEX
8
1
10
10.806725
20
2.781693
42
0.063879
0
VERTEX
8
1
10
11.092682
20
2.415955
0
VERTEX
8
1
10
11.150085
20
2.367149
42
-0.050365
0
VERTEX
8
1
10
11.428398
20
2.126251
42
0.038675
0
VERTEX
8
1
10
11.710281
20
1.821320
42
-0.058293
0
VERTEX
8
1
10
11.948644
20
1.516587
42
-0.162204
0
VERTEX
8
1
10
11.954521
20
1.437454
0
VERTEX
8
1
10
11.940712
20
1.416031
0
VERTEX
8
1
10
11.917137
20
1.397079
42
-0.075821
0
VERTEX
8
1
10
11.740082
20
1.347390
0
VERTEX
8
1
10
11.707611
20
1.342377
0
VERTEX
8
1
10
11.700127
20
1.344906
42
0.052414
0
VERTEX
8
1
10
11.301575
20
1.582672
42
-0.040699
0
VERTEX
8
1
10
10.975227
20
1.785450
42
0.078108
0
VERTEX
8
1
10
10.795380
20
1.858509
42
-0.176635
0
VERTEX
8
1
10
10.646866
20
1.954273
0
VERTEX
8
1
10
10.623367
20
1.982803
42
0.171733
0
VERTEX
8
1
10
10.477730
20
2.084084
42
-0.055173
0
VERTEX
8
1
10
10.269821
20
2.164928
0
VERTEX
8
1
10
10.252996
20
2.177141
42
-0.002341
0
VERTEX
8
1
10
10.096992
20
2.325279
42
0.058888
0
VERTEX
8
1
10
9.837070
20
2.466970
42
-0.158177
0
VERTEX
8
1
10
9.639111
20
2.673780
42
0.108789
0
VERTEX
8
1
10
9.364530
20
2.965084
42
0.124785
0
VERTEX
8
1
10
9.189095
20
3.014217
0
VERTEX
8
1
10
9.141426
20
3.017799
42
-0.269781
0
VERTEX
8
1
10
8.925818
20
3.136360
0
VERTEX
8
1
10
8.906609
20
3.162777
0
VERTEX
8
1
10
8.887985
20
3.189610
42
0.117930
0
VERTEX
8
1
10
8.709311
20
3.295938
42
-0.069257
0
VERTEX
8
1
10
8.471321
20
3.435574
42
0.077459
0
VERTEX
8
1
10
8.034798
20
3.741150
0
VERTEX
8
1
10
7.998131
20
3.773449
42
0.095551
0
VERTEX
8
1
10
7.701819
20
4.070316
42
-0.005889
0
VERTEX
8
1
10
7.350639
20
4.315060
42
-0.078374
0
VERTEX
8
1
10
7.049072
20
4.636517
42
0.046124
0
VERTEX
8
1
10
6.790159
20
4.947122
42
0.045759
0
VERTEX
8
1
10
6.646606
20
5.054260
42
0.047052
0
VERTEX
8
1
10
6.848877
20
5.045025
0
VERTEX
8
1
10
6.860207
20
5.048416
0
VERTEX
8
1
10
6.865234
20
5.053463
0
VERTEX
8
1
10
6.867165
20
5.073376
42
-0.525114
0
VERTEX
8
1
10
6.899666
20
5.092442
0
VERTEX
8
1
10
6.916985
20
5.084286
42
-0.130075
0
VERTEX
8
1
10
7.061821
20
4.900345
42
0.037616
0
VERTEX
8
1
10
7.136787
20
4.918751
42
0.042626
0
VERTEX
8
1
10
7.147934
20
4.991810
0
VERTEX
8
1
10
7.152504
20
4.995476
42
-0.453792
0
VERTEX
8
1
10
7.249794
20
4.864967
0
VERTEX
8
1
10
7.201538
20
4.854095
42
0.199081
0
VERTEX
8
1
10
7.267817
20
4.781333
42
0.208360
0
VERTEX
8
1
10
7.331123
20
4.791084
42
-0.053824
0
VERTEX
8
1
10
7.425766
20
4.834873
42
-0.355956
0
VERTEX
8
1
10
7.550382
20
4.741921
42
-0.316599
0
VERTEX
8
1
10
7.520622
20
4.700546
0
VERTEX
8
1
10
7.499191
20
4.693504
0
VERTEX
8
1
10
7.471291
20
4.689842
0
VERTEX
8
1
10
7.460419
20
4.669319
42
0.247275
0
VERTEX
8
1
10
7.529327
20
4.572792
0
VERTEX
8
1
10
7.567070
20
4.549599
42
-0.394498
0
VERTEX
8
1
10
7.608093
20
4.448139
42
0.005589
0
VERTEX
8
1
10
7.513306
20
4.438808
0
VERTEX
8
1
10
7.507813
20
4.433193
0
VERTEX
8
1
10
7.508942
20
4.410397
0
VERTEX
8
1
10
7.515465
20
4.386658
42
0.250248
0
VERTEX
8
1
10
7.735487
20
4.217230
42
0.174259
0
VERTEX
8
1
10
7.795563
20
4.238686
42
-0.042081
0
VERTEX
8
1
10
7.934987
20
4.323308
42
-0.337146
0
VERTEX
8
1
10
8.008942
20
4.302086
0
VERTEX
8
1
10
8.021210
20
4.272255
0
VERTEX
8
1
10
8.028374
20
4.228706
0
VERTEX
8
1
10
8.023003
20
4.225479
42
-0.004244
0
VERTEX
8
1
10
7.952766
20
4.216038
42
0.196928
0
VERTEX
8
1
10
8.048492
20
4.144211
0
VERTEX
8
1
10
8.064568
20
4.148823
42
-0.007812
0
VERTEX
8
1
10
8.211371
20
4.248875
0
VERTEX
8
1
10
8.235878
20
4.259533
42
-0.425399
0
VERTEX
8
1
10
8.315338
20
4.229855
0
VERTEX
8
1
10
8.328011
20
4.196846
0
VERTEX
8
1
10
8.322105
20
4.168678
42
0.196142
0
VERTEX
8
1
10
8.205847
20
4.070663
42
0.359477
0
VERTEX
8
1
10
8.234818
20
3.994812
42
0.257709
0
VERTEX
8
1
10
8.373055
20
3.972046
42
-0.159211
0
VERTEX
8
1
10
8.460330
20
3.972858
42
-0.233394
0
VERTEX
8
1
10
8.487068
20
3.932854
0
VERTEX
8
1
10
8.492126
20
3.902267
0
VERTEX
8
1
10
8.486191
20
3.865955
42
0.094297
0
VERTEX
8
1
10
8.330420
20
3.828803
0
VERTEX
8
1
10
8.322936
20
3.821929
42
0.561579
0
VERTEX
8
1
10
8.332210
20
3.766447
42
0.133549
0
VERTEX
8
1
10
8.426788
20
3.728867
0
VERTEX
8
1
10
8.472740
20
3.721268
0
VERTEX
8
1
10
8.524994
20
3.716763
42
-0.478717
0
VERTEX
8
1
10
8.525078
20
3.670464
0
VERTEX
8
1
10
8.482025
20
3.660732
0
VERTEX
8
1
10
8.484085
20
3.644817
0
VERTEX
8
1
10
8.500427
20
3.617111
42
0.164637
0
VERTEX
8
1
10
8.790329
20
3.466217
0
VERTEX
8
1
10
8.827820
20
3.466679
0
VERTEX
8
1
10
8.857086
20
3.476612
0
VERTEX
8
1
10
8.875717
20
3.497341
0
VERTEX
8
1
10
8.881287
20
3.530186
0
VERTEX
8
1
10
8.882240
20
3.566010
0
VERTEX
8
1
10
8.893532
20
3.587353
42
-0.525059
0
VERTEX
8
1
10
8.972961
20
3.601589
42
-0.146694
0
VERTEX
8
1
10
9.023483
20
3.521408
0
VERTEX
8
1
10
9.020218
20
3.493786
0
VERTEX
8
1
10
9.004295
20
3.451328
0
VERTEX
8
1
10
9.004189
20
3.418751
0
VERTEX
8
1
10
9.017494
20
3.394791
0
VERTEX
8
1
10
9.041847
20
3.378189
42
0.110870
0
VERTEX
8
1
10
9.237776
20
3.362257
42
-0.031604
0
VERTEX
8
1
10
9.346329
20
3.359280
0
VERTEX
8
1
10
9.361000
20
3.351616
42
-0.251549
0
VERTEX
8
1
10
9.290284
20
3.228834
42
-0.132083
0
VERTEX
8
1
10
9.240623
20
3.222542
42
0.416340
0
VERTEX
8
1
10
9.328397
20
3.118763
42
0.113155
0
VERTEX
8
1
10
9.527794
20
3.117630
42
-0.057388
0
VERTEX
8
1
10
9.539360
20
3.160969
0
VERTEX
8
1
10
9.580345
20
3.170612
0
VERTEX
8
1
10
9.582695
20
3.172523
42
0.019172
0
VERTEX
8
1
10
9.591789
20
3.213909
42
-0.255216
0
VERTEX
8
1
10
9.674759
20
3.211670
42
-0.234123
0
VERTEX
8
1
10
9.685463
20
3.134121
42
0.057410
0
VERTEX
8
1
10
9.671417
20
3.014450
42
0.296404
0
VERTEX
8
1
10
9.770824
20
2.932630
42
0.008602
0
VERTEX
8
1
10
9.877348
20
2.905703
42
-0.297419
0
VERTEX
8
1
10
9.918770
20
2.844303
0
VERTEX
8
1
10
9.916519
20
2.812431
42
-0.026572
0
VERTEX
8
1
10
9.789253
20
2.771690
0
VERTEX
8
1
10
9.787659
20
2.752560
0
VERTEX
8
1
10
9.795189
20
2.727886
0
VERTEX
8
1
10
9.808319
20
2.703857
42
0.206551
0
VERTEX
8
1
10
10.093956
20
2.553593
42
0.080795
0
VERTEX
8
1
10
10.201401
20
2.599243
0
VERTEX
8
1
10
10.216606
20
2.605694
42
-0.744774
0
VERTEX
8
1
10
10.298056
20
2.520852
42
-0.134555
0
VERTEX
8
1
10
10.248749
20
2.450649
0
VERTEX
8
1
10
10.248146
20
2.435905
0
VERTEX
8
1
10
10.278114
20
2.407318
0
VERTEX
8
1
10
10.305496
20
2.382572
42
0.223508
0
VERTEX
8
1
10
10.538460
20
2.296215
0
VERTEX
8
1
10
10.574318
20
2.297722
0
VERTEX
8
1
10
10.611366
20
2.299042
42
0.041417
0
VERTEX
8
1
10
10.611629
20
2.127575
42
0.690179
0
VERTEX
8
1
10
10.799153
20
2.105468
42
-0.022748
0
VERTEX
8
1
10
10.851041
20
2.179147
42
-0.297036
0
VERTEX
8
1
10
10.890846
20
2.181049
0
VERTEX
8
1
10
10.911972
20
2.166191
0
VERTEX
8
1
10
10.937164
20
2.139973
0
VERTEX
8
1
10
10.928406
20
2.095055
0
VERTEX
8
1
10
10.926003
20
2.047092
0
VERTEX
8
1
10
10.942230
20
2.001205
42
0.220445
0
VERTEX
8
1
10
11.204094
20
1.842075
0
VERTEX
8
1
10
11.237343
20
1.847027
0
VERTEX
8
1
10
11.256805
20
1.864429
0
VERTEX
8
1
10
11.258446
20
1.895584
0
VERTEX
8
1
10
11.238205
20
1.941780
0
VERTEX
8
1
10
11.211197
20
1.966648
42
-0.284448
0
VERTEX
8
1
10
11.130798
20
2.006210
42
-0.284367
0
VERTEX
8
1
10
11.152359
20
2.077438
42
0.016781
0
VERTEX
8
1
10
11.219200
20
2.059963
0
VERTEX
8
1
10
11.222000
20
2.074135
0
VERTEX
8
1
10
11.211388
20
2.133152
42
0.187869
0
VERTEX
8
1
10
11.097772
20
2.262683
42
0.069990
0
VERTEX
8
1
10
10.905323
20
2.348418
42
-0.052942
0
VERTEX
8
1
10
10.721138
20
2.440880
0
VERTEX
8
1
10
10.678307
20
2.478527
0
VERTEX
8
1
10
10.646851
20
2.520660
42
0.073585
0
VERTEX
8
1
10
10.698357
20
2.541988
42
0.027707
0
VERTEX
8
1
10
10.774918
20
2.502682
0
VERTEX
8
1
10
10.777428
20
2.517422
42
0.393611
0
VERTEX
8
1
10
10.611946
20
2.680584
42
0.004085
0
VERTEX
8
1
10
10.565987
20
2.669472
42
-0.139093
0
VERTEX
8
1
10
10.588753
20
2.768795
42
0.220739
0
VERTEX
8
1
10
10.442223
20
3.071247
42
0.118627
0
VERTEX
8
1
10
10.377792
20
3.028172
42
-0.176298
0
VERTEX
8
1
10
10.444466
20
2.868572
0
VERTEX
8
1
10
10.427948
20
2.861786
42
-0.241640
0
VERTEX
8
1
10
10.230440
20
2.948940
42
-0.033303
0
VERTEX
8
1
10
10.202629
20
2.980862
42
-0.068527
0
VERTEX
8
1
10
10.205544
20
3.048428
42
0.230756
0
VERTEX
8
1
10
10.223938
20
3.095516
0
VERTEX
8
1
10
10.226089
20
3.098900
42
0.065834
0
VERTEX
8
1
10
10.278709
20
3.086342
42
0.050222
0
VERTEX
8
1
10
10.238289
20
3.184441
42
-0.073493
0
VERTEX
8
1
10
10.228668
20
3.305923
42
0.238170
0
VERTEX
8
1
10
10.073235
20
3.437988
0
VERTEX
8
1
10
10.064667
20
3.434509
42
-0.024808
0
VERTEX
8
1
10
10.028206
20
3.342930
0
VERTEX
8
1
10
10.020866
20
3.336163
42
-0.529677
0
VERTEX
8
1
10
9.898125
20
3.439049
42
0.041058
0
VERTEX
8
1
10
9.944603
20
3.450153
0
VERTEX
8
1
10
9.939987
20
3.482929
42
0.160714
0
VERTEX
8
1
10
9.700983
20
3.819960
42
0.157676
0
VERTEX
8
1
10
9.602913
20
3.843906
0
VERTEX
8
1
10
9.569244
20
3.829914
42
0.114117
0
VERTEX
8
1
10
9.555351
20
3.782764
42
-0.081873
0
VERTEX
8
1
10
9.418940
20
3.804937
42
0.027886
0
VERTEX
8
1
10
9.370300
20
3.810909
42
-0.053929
0
VERTEX
8
1
10
9.342529
20
3.878284
42
-0.166439
0
VERTEX
8
1
10
9.462433
20
3.921497
0
VERTEX
8
1
10
9.470573
20
3.932308
0
VERTEX
8
1
10
9.454453
20
3.981716
42
0.253163
0
VERTEX
8
1
10
9.333740
20
4.074677
42
0.016729
0
VERTEX
8
1
10
9.134895
20
4.093411
42
-0.144506
0
VERTEX
8
1
10
9.036499
20
4.145054
42
-0.061815
0
VERTEX
8
1
10
9.103966
20
4.192539
42
0.135098
0
VERTEX
8
1
10
8.972374
20
4.271179
42
0.494572
0
VERTEX
8
1
10
8.875488
20
4.136873
42
-0.031774
0
VERTEX
8
1
10
8.884560
20
4.085838
42
-0.078199
0
VERTEX
8
1
10
8.762817
20
4.112198
0
VERTEX
8
1
10
8.757202
20
4.126545
42
-0.003603
0
VERTEX
8
1
10
8.758020
20
4.301260
42
0.278130
0
VERTEX
8
1
10
8.684212
20
4.384617
0
VERTEX
8
1
10
8.649666
20
4.395908
0
VERTEX
8
1
10
8.611877
20
4.401226
42
-0.061035
0
VERTEX
8
1
10
8.458725
20
4.326588
0
VERTEX
8
1
10
8.433586
20
4.321907
42
-0.466993
0
VERTEX
8
1
10
8.371429
20
4.367718
0
VERTEX
8
1
10
8.370567
20
4.401081
0
VERTEX
8
1
10
8.377701
20
4.444115
42
0.080572
0
VERTEX
8
1
10
8.449524
20
4.460564
42
-0.176593
0
VERTEX
8
1
10
8.497429
20
4.447987
0
VERTEX
8
1
10
8.497803
20
4.457836
42
0.309935
0
VERTEX
8
1
10
8.360748
20
4.574814
42
-0.026299
0
VERTEX
8
1
10
8.258904
20
4.596528
42
-0.573824
0
VERTEX
8
1
10
8.109797
20
4.734965
42
-0.229192
0
VERTEX
8
1
10
8.159035
20
4.779732
42
-0.141861
0
VERTEX
8
1
10
8.222084
20
4.758171
0
VERTEX
8
1
10
8.258492
20
4.737419
42
0.231301
0
VERTEX
8
1
10
8.370483
20
4.716248
0
VERTEX
8
1
10
8.337692
20
4.721344
42
-0.030839
0
VERTEX
8
1
10
8.379715
20
4.720727
42
-0.000707
0
VERTEX
8
1
10
8.371376
20
4.716110
0
VERTEX
8
1
10
8.481543
20
4.699021
42
0.012223
0
VERTEX
8
1
10
9.143468
20
4.376009
42
-0.040393
0
VERTEX
8
1
10
9.679443
20
4.059418
0
VERTEX
8
1
10
9.772514
20
3.986782
42
-0.040512
0
VERTEX
8
1
10
10.393771
20
3.339592
0
VERTEX
8
1
10
10.457774
20
3.264460
42
-0.044613
0
SEQEND
0
POLYLINE
8
1
66
1
70
1
0
VERTEX
8
1
10
11.926796
20
4.764572
42
0.006714
0
VERTEX
8
1
10
11.982971
20
4.771114
0
VERTEX
8
1
10
11.986870
20
4.780891
42
-0.357860
0
VERTEX
8
1
10
11.981323
20
4.767242
42
-0.055615
0
VERTEX
8
1
10
11.927467
20
4.690979
42
-0.075918
0
VERTEX
8
1
10
11.686996
20
4.546047
0
VERTEX
8
1
10
11.627754
20
4.518845
42
-0.046405
0
VERTEX
8
1
10
10.901123
20
4.223648
42
-0.048338
0
VERTEX
8
1
10
10.266249
20
4.069938
42
-0.078029
0
VERTEX
8
1
10
9.940674
20
4.094666
42
-0.242288
0
VERTEX
8
1
10
9.818550
20
4.120346
42
0.099065
0
VERTEX
8
1
10
9.753662
20
4.138508
0
VERTEX
8
1
10
9.615601
20
4.248959
42
0.088932
0
VERTEX
8
1
10
9.941299
20
4.264027
42
-0.031468
0
VERTEX
8
1
10
10.325478
20
4.326610
42
-0.046684
0
VERTEX
8
1
10
10.462448
20
4.319492
0
VERTEX
8
1
10
10.492027
20
4.319050
42
0.002766
0
VERTEX
8
1
10
10.708364
20
4.371022
42
-0.093675
0
VERTEX
8
1
10
10.786873
20
4.365875
42
-0.016264
0
VERTEX
8
1
10
11.393394
20
4.548000
42
0.066338
0
VERTEX
8
1
10
11.921364
20
4.764210
0
SEQEND
0
POLYLINE
8
1
66
1
70
1
0
VERTEX
8
1
10
11.649460
20
4.378078
42
-0.022654
0
VERTEX
8
1
10
12.229286
20
4.602806
42
0.056055
0
VERTEX
8
1
10
12.997688
20
5.003681
0
VERTEX
8
1
10
12.992233
20
4.989498
42
-0.082647
0
VERTEX
8
1
10
12.546121
20
4.637071
42
-0.008825
0
VERTEX
8
1
10
11.891401
20
4.283919
42
-0.091289
0
VERTEX
8
1
10
11.247066
20
4.107815
42
-0.052083
0
VERTEX
8
1
10
11.015976
20
4.121052
0
VERTEX
8
1
10
11.078072
20
4.162453
42
0.030242
0
SEQEND
0
POLYLINE
8
1
66
1
70
1
0
VERTEX
8
1
10
11.048286
20
4.669250
0
VERTEX
8
1
10
10.981285
20
4.648842
42
-0.054699
0
VERTEX
8
1
10
10.583801
20
4.548549
42
0.079589
0
VERTEX
8
1
10
10.331772
20
4.458027
0
VERTEX
8
1
10
10.310493
20
4.450310
0
VERTEX
8
1
10
10.292892
20
4.453365
42
0.076354
0
VERTEX
8
1
10
9.893250
20
4.400272
42
-0.013737
0
VERTEX
8
1
10
9.509802
20
4.382935
42
-0.089828
0
VERTEX
8
1
10
9.336159
20
4.416139
42
-0.164720
0
VERTEX
8
1
10
9.281807
20
4.471596
0
VERTEX
8
1
10
9.198723
20
4.554680
42
0.182086
0
VERTEX
8
1
10
9.299095
20
4.528599
0
VERTEX
8
1
10
9.337440
20
4.528805
42
0.026748
0
VERTEX
8
1
10
9.744080
20
4.580254
42
-0.028932
0
VERTEX
8
1
10
10.348785
20
4.610962
42
0.058613
0
VERTEX
8
1
10
10.635231
20
4.662323
42
-0.026613
0
VERTEX
8
1
10
11.137651
20
4.779299
42
0.030661
0
VERTEX
8
1
10
11.366562
20
4.847771
42
0.009500
0
VERTEX
8
1
10
11.380768
20
4.833469
42
-0.115066
0
VERTEX
8
1
10
11.082390
20
4.679905
0
SEQEND
0
POLYLINE
8
1
66
1
70
1
0
VERTEX
8
1
10
13.894218
20
4.719170
42
-0.043764
0
VERTEX
8
1
10
14.282690
20
5.158014
42
-0.100104
0
VERTEX
8
1
10
14.476464
20
5.266266
42
-0.242303
0
VERTEX
8
1
10
14.628456
20
5.223381
0
VERTEX
8
1
10
14.673843
20
5.161266
0
VERTEX
8
1
10
14.686852
20
5.091755
0
VERTEX
8
1
10
14.666420
20
5.020134
0
VERTEX
8
1
10
14.616325
20
4.947044
0
VERTEX
8
1
10
14.540321
20
4.873135
0
VERTEX
8
1
10
14.442162
20
4.799057
42
-0.052443
0
VERTEX
8
1
10
13.738420
20
4.445596
42
-0.014784
0
VERTEX
8
1
10
12.903603
20
4.132946
42
-0.049691
0
VERTEX
8
1
10
12.200317
20
3.916584
42
0.007965
0
VERTEX
8
1
10
11.268596
20
3.703114
42
-0.039958
0
VERTEX
8
1
10
10.606911
20
3.614078
42
-0.049586
0
VERTEX
8
1
10
10.452118
20
3.631123
42
-0.414556
0
VERTEX
8
1
10
10.408370
20
3.625906
42
0.310834
0
VERTEX
8
1
10
10.358410
20
3.620056
0
VERTEX
8
1
10
10.351629
20
3.616943
0
VERTEX
8
1
10
10.344658
20
3.614285
42
0.082072
0
VERTEX
8
1
10
10.143181
20
3.749142
0
VERTEX
8
1
10
10.198509
20
3.887470
42
-0.157921
0
VERTEX
8
1
10
10.322678
20
3.864063
42
0.311217
0
VERTEX
8
1
10
10.588554
20
3.881016
42
-0.145348
0
VERTEX
8
1
10
10.782753
20
3.952354
42
-0.034567
0
VERTEX
8
1
10
11.090416
20
3.956890
42
0.049741
0
VERTEX
8
1
10
11.385864
20
3.987286
42
0.030524
0
VERTEX
8
1
10
12.408932
20
4.184533
0
VERTEX
8
1
10
12.568071
20
4.221097
0
VERTEX
8
1
10
12.727371
20
4.256969
42
0.026048
0
VERTEX
8
1
10
13.298976
20
4.450488
42
0.002627
0
VERTEX
8
1
10
13.654193
20
4.537902
42
0.079482
0
VERTEX
8
1
10
13.802124
20
4.614246
42
0.039411
0
SEQEND
0
POLYLINE
8
1
66
1
70
1
0
VERTEX
8
1
10
17.573853
20
8.668068
42
0.051498
0
VERTEX
8
1
10
17.299774
20
8.350018
42
-0.023598
0
VERTEX
8
1
10
16.967346
20
7.976707
42
0.088269
0
VERTEX
8
1
10
16.649300
20
7.514550
42
0.016268
0
VERTEX
8
1
10
16.371704
20
6.928043
42
-0.183457
0
VERTEX
8
1
10
16.101151
20
6.659641
0
VERTEX
8
1
10
16.055702
20
6.638542
42
0.095317
0
VERTEX
8
1
10
15.637303
20
6.383221
42
0.119613
0
VERTEX
8
1
10
15.553032
20
6.235711
42
-0.064413
0
VERTEX
8
1
10
15.488910
20
6.106763
42
-0.198324
0
VERTEX
8
1
10
15.362572
20
6.045223
42
0.018831
0
VERTEX
8
1
10
14.933199
20
5.986964
42
0.078071
0
VERTEX
8
1
10
14.854912
20
5.950020
42
0.160039
0
VERTEX
8
1
10
14.794710
20
5.808962
42
-0.268251
0
VERTEX
8
1
10
14.685465
20
5.693380
42
-0.077341
0
VERTEX
8
1
10
14.474548
20
5.647877
42
0.028277
0
VERTEX
8
1
10
14.207253
20
5.611500
0
VERTEX
8
1
10
14.170448
20
5.601048
0
VERTEX
8
1
10
14.137611
20
5.588177
0
VERTEX
8
1
10
14.115227
20
5.596382
0
VERTEX
8
1
10
14.089630
20
5.604713
42
0.101720
0
VERTEX
8
1
10
13.638016
20
5.600975
42
0.071207
0
VERTEX
8
1
10
13.507950
20
5.521984
42
-0.148969
0
VERTEX
8
1
10
13.236618
20
5.443340
42
-0.030146
0
VERTEX
8
1
10
12.797455
20
5.472847
42
0.020746
0
VERTEX
8
1
10
12.511527
20
5.461024
42
-0.094073
0
VERTEX
8
1
10
12.340500
20
5.492943
42
-0.030875
0
VERTEX
8
1
10
12.132225
20
5.498330
42
0.147796
0
VERTEX
8
1
10
12.013617
20
5.468767
42
0.233937
0
VERTEX
8
1
10
11.996849
20
5.422157
0
VERTEX
8
1
10
12.004951
20
5.390343
0
VERTEX
8
1
10
12.019257
20
5.359638
42
-0.003619
0
VERTEX
8
1
10
11.996735
20
5.309563
42
0.050904
0
VERTEX
8
1
10
11.736754
20
5.280053
42
-0.105681
0
VERTEX
8
1
10
11.464481
20
5.305300
42
0.078663
0
VERTEX
8
1
10
11.306686
20
5.313583
42
0.117015
0
VERTEX
8
1
10
11.128784
20
5.205009
42
-0.086512
0
VERTEX
8
1
10
10.921486
20
5.074532
42
-0.075598
0
VERTEX
8
1
10
10.702980
20
5.047485
42
-0.050066
0
VERTEX
8
1
10
10.092133
20
5.093212
42
0.035902
0
VERTEX
8
1
10
9.774276
20
5.181986
42
0.115172
0
VERTEX
8
1
10
9.638718
20
5.163956
0
VERTEX
8
1
10
9.608727
20
5.145626
0
VERTEX
8
1
10
9.601830
20
5.119545
42
-0.163274
0
VERTEX
8
1
10
9.646645
20
5.039349
42
-0.412945
0
VERTEX
8
1
10
9.611542
20
5.012955
0
VERTEX
8
1
10
9.594757
20
5.012424
0
VERTEX
8
1
10
9.575966
20
5.013695
42
-0.047556
0
VERTEX
8
1
10
9.273430
20
5.103302
42
0.170676
0
VERTEX
8
1
10
8.833946
20
5.120786
42
-0.043605
0
VERTEX
8
1
10
8.664490
20
5.099094
42
-0.106531
0
VERTEX
8
1
10
8.528656
20
5.157589
42
0.061832
0
VERTEX
8
1
10
7.947411
20
5.427898
42
0.077671
0
VERTEX
8
1
10
7.343854
20
5.503523
42
0.087844
0
VERTEX
8
1
10
7.170753
20
5.458992
42
-0.623651
0
VERTEX
8
1
10
7.148270
20
5.448196
42
0.308654
0
VERTEX
8
1
10
7.171074
20
5.469471
0
VERTEX
8
1
10
7.170898
20
5.471409
0
VERTEX
8
1
10
7.135254
20
5.518929
0
VERTEX
8
1
10
7.134018
20
5.519127
42
0.008917
0
VERTEX
8
1
10
7.064285
20
5.503685
42
0.042939
0
VERTEX
8
1
10
7.088158
20
5.581718
0
VERTEX
8
1
10
7.134949
20
5.519337
42
-0.077017
0
VERTEX
8
1
10
7.892921
20
5.532124
42
-0.011310
0
VERTEX
8
1
10
8.203705
20
5.492032
42
0.009990
0
VERTEX
8
1
10
8.652129
20
5.466827
42
-0.000063
0
VERTEX
8
1
10
9.104034
20
5.400762
42
0.138285
0
VERTEX
8
1
10
9.326591
20
5.451950
42
-0.040276
0
VERTEX
8
1
10
9.511017
20
5.536373
42
-0.207581
0
VERTEX
8
1
10
9.814357
20
5.489892
42
0.037703
0
VERTEX
8
1
10
9.993698
20
5.419758
42
0.074872
0
VERTEX
8
1
10
10.181046
20
5.411415
42
0.101021
0
VERTEX
8
1
10
11.110260
20
5.615505
0
VERTEX
8
1
10
11.166289
20
5.643700
42
-0.000645
0
VERTEX
8
1
10
11.175873
20
5.688919
42
0.110048
0
VERTEX
8
1
10
11.348839
20
5.746120
0
VERTEX
8
1
10
11.402000
20
5.772644
42
-0.122359
0
VERTEX
8
1
10
11.675682
20
5.850380
42
-0.031814
0
VERTEX
8
1
10
12.104553
20
5.857838
42
-0.072402
0
VERTEX
8
1
10
12.698029
20
5.696123
42
0.030162
0
VERTEX
8
1
10
12.910176
20
5.628340
42
0.335583
0
VERTEX
8
1
10
12.974953
20
5.672557
42
-0.123233
0
VERTEX
8
1
10
13.094101
20
5.787407
42
-0.084068
0
VERTEX
8
1
10
13.231528
20
5.816422
42
-0.050311
0
VERTEX
8
1
10
13.603844
20
5.817146
42
-0.003930
0
VERTEX
8
1
10
14.011687
20
5.736900
42
0.099844
0
VERTEX
8
1
10
14.274986
20
5.754338
42
0.132356
0
VERTEX
8
1
10
14.442955
20
5.868896
42
-0.022151
0
VERTEX
8
1
10
14.638764
20
6.092421
42
-0.209186
0
VERTEX
8
1
10
15.020688
20
6.211009
42
0.051024
0
VERTEX
8
1
10
15.223015
20
6.228193
42
0.167813
0
VERTEX
8
1
10
15.372330
20
6.334145
42
0.010675
0
VERTEX
8
1
10
15.491524
20
6.504230
42
-0.121360
0
VERTEX
8
1
10
15.660408
20
6.631451
42
-0.003328
0
VERTEX
8
1
10
15.974609
20
6.772133
42
0.131431
0
VERTEX
8
1
10
16.253122
20
7.028006
42
0.054000
0
VERTEX
8
1
10
16.435928
20
7.377221
42
-0.019847
0
VERTEX
8
1
10
16.613754
20
7.779696
42
-0.082680
0
VERTEX
8
1
10
17.005127
20
8.257684
42
0.007960
0
VERTEX
8
1
10
17.452621
20
8.666990
42
-0.152936
0
VERTEX
8
1
10
17.653379
20
8.751773
0
VERTEX
8
1
10
17.661236
20
8.754697
0
VERTEX
8
1
10
17.668228
20
8.759320
42
0.002466
0
SEQEND
0
POLYLINE
8
1
66
1
70
1
0
VERTEX
8
1
10
18.867622
20
8.593563
42
-0.282090
0
VERTEX
8
1
10
18.842178
20
8.687656
42
0.089343
0
VERTEX
8
1
10
19.053364
20
8.697259
42
-0.031691
0
VERTEX
8
1
10
19.155609
20
8.703072
0
VERTEX
8
1
10
19.187248
20
8.695744
0
VERTEX
8
1
10
19.207802
20
8.678955
0
VERTEX
8
1
10
19.214752
20
8.650307
0
VERTEX
8
1
10
19.205566
20
8.607380
42
-0.214062
0
VERTEX
8
1
10
19.040817
20
8.431108
42
0.116858
0
VERTEX
8
1
10
18.931622
20
8.339120
42
0.139050
0
VERTEX
8
1
10
18.913406
20
8.264751
0
VERTEX
8
1
10
18.908592
20
8.226635
0
VERTEX
8
1
10
18.864014
20
8.224586
42
0.166292
0
VERTEX
8
1
10
18.700594
20
8.101640
42
-0.078803
0
VERTEX
8
1
10
18.592194
20
8.011791
0
VERTEX
8
1
10
18.558296
20
8.003838
0
VERTEX
8
1
10
18.522087
20
8.009628
0
VERTEX
8
1
10
18.494286
20
8.021816
42
-0.170592
0
VERTEX
8
1
10
18.452217
20
8.013683
0
VERTEX
8
1
10
18.439438
20
8.009586
42
0.134815
0
VERTEX
8
1
10
18.348282
20
7.901154
42
-0.200784
0
VERTEX
8
1
10
18.194893
20
7.810780
42
-0.058075
0
VERTEX
8
1
10
18.057060
20
7.783905
42
0.192968
0
VERTEX
8
1
10
17.902153
20
7.674319
42
-0.026019
0
VERTEX
8
1
10
17.853294
20
7.621704
0
VERTEX
8
1
10
17.834671
20
7.627773
0
VERTEX
8
1
10
17.808929
20
7.700657
0
VERTEX
8
1
10
17.809196
20
7.780689
0
VERTEX
8
1
10
17.829582
20
7.866344
42
-0.038414
0
VERTEX
8
1
10
17.952682
20
8.141499
0
VERTEX
8
1
10
17.994759
20
8.234127
0
VERTEX
8
1
10
18.027550
20
8.324623
0
VERTEX
8
1
10
18.045189
20
8.411442
0
VERTEX
8
1
10
18.041786
20
8.493042
0
VERTEX
8
1
10
18.011459
20
8.567867
0
VERTEX
8
1
10
17.976669
20
8.610233
0
VERTEX
8
1
10
18.031822
20
8.610233
42
-0.138531
0
VERTEX
8
1
10
18.133060
20
8.544351
42
-0.230325
0
VERTEX
8
1
10
18.146194
20
8.448677
42
-0.010228
0
VERTEX
8
1
10
18.093285
20
8.290897
0
VERTEX
8
1
10
18.096786
20
8.282288
42
0.013783
0
VERTEX
8
1
10
18.195175
20
8.271175
42
-0.394245
0
VERTEX
8
1
10
18.064064
20
8.159992
42
0.226457
0
VERTEX
8
1
10
18.066444
20
7.974365
42
0.055638
0
VERTEX
8
1
10
18.135727
20
8.002411
0
VERTEX
8
1
10
18.138618
20
8.015285
42
-0.201491
0
VERTEX
8
1
10
18.206104
20
8.173612
42
-0.303455
0
VERTEX
8
1
10
18.315071
20
8.179913
0
VERTEX
8
1
10
18.321320
20
8.166828
42
0.225591
0
VERTEX
8
1
10
18.293367
20
8.085202
42
-0.048917
0
VERTEX
8
1
10
18.287354
20
8.061756
0
VERTEX
8
1
10
18.306618
20
8.059795
42
0.144581
0
VERTEX
8
1
10
18.531303
20
8.156555
0
VERTEX
8
1
10
18.553329
20
8.172295
42
-0.243084
0
VERTEX
8
1
10
18.509956
20
8.283134
42
-0.349993
0
VERTEX
8
1
10
18.582832
20
8.328384
42
0.041133
0
VERTEX
8
1
10
18.591255
20
8.257622
0
VERTEX
8
1
10
18.596817
20
8.251718
42
0.501612
0
VERTEX
8
1
10
18.740852
20
8.338875
42
0.037302
0
VERTEX
8
1
10
18.723267
20
8.409439
42
-0.047493
0
VERTEX
8
1
10
18.653885
20
8.441761
42
-0.394002
0
VERTEX
8
1
10
18.748421
20
8.522789
42
-0.006631
0
VERTEX
8
1
10
18.759903
20
8.475609
42
0.015118
0
VERTEX
8
1
10
18.843422
20
8.457924
42
0.216568
0
VERTEX
8
1
10
18.969698
20
8.549902
42
0.189984
0
VERTEX
8
1
10
18.968613
20
8.604733
42
-0.011837
0
VERTEX
8
1
10
18.883888
20
8.592293
0
VERTEX
8
1
10
18.875343
20
8.588314
0
SEQEND
0
POLYLINE
8
1
66
1
70
1
0
VERTEX
8
1
10
21.148148
20
9.412437
0
VERTEX
8
1
10
21.186478
20
9.388561
42
-0.168061
0
VERTEX
8
1
10
20.980309
20
9.272537
42
0.050636
0
VERTEX
8
1
10
20.750046
20
9.207184
42
0.048881
0
VERTEX
8
1
10
20.541727
20
9.058315
42
-0.092076
0
VERTEX
8
1
10
20.385605
20
8.987850
42
-0.011047
0
VERTEX
8
1
10
20.116257
20
8.883583
42
-0.100838
0
VERTEX
8
1
10
19.864326
20
8.865738
42
0.184205
0
VERTEX
8
1
10
19.675638
20
8.762873
42
-0.125866
0
VERTEX
8
1
10
19.587593
20
8.721394
0
VERTEX
8
1
10
19.560089
20
8.776402
0
VERTEX
8
1
10
19.558884
20
8.776821
42
0.152240
0
VERTEX
8
1
10
19.543877
20
8.748104
42
-0.376355
0
VERTEX
8
1
10
19.532570
20
8.777973
42
0.047945
0
VERTEX
8
1
10
19.714134
20
8.859844
0
VERTEX
8
1
10
19.721054
20
8.867485
42
0.111510
0
VERTEX
8
1
10
19.686302
20
8.939903
0
VERTEX
8
1
10
19.694427
20
8.953098
42
-0.148947
0
VERTEX
8
1
10
19.854584
20
8.980549
42
0.044848
0
VERTEX
8
1
10
20.066607
20
8.976387
42
0.122373
0
VERTEX
8
1
10
20.123688
20
9.005478
0
VERTEX
8
1
10
20.136551
20
9.032055
0
VERTEX
8
1
10
20.135963
20
9.050423
42
-0.005104
0
VERTEX
8
1
10
20.066467
20
9.088554
0
VERTEX
8
1
10
20.079117
20
9.108410
42
-0.254493
0
VERTEX
8
1
10
20.174263
20
9.138540
42
-0.080064
0
VERTEX
8
1
10
20.312111
20
9.104439
42
0.078003
0
VERTEX
8
1
10
20.433762
20
9.080193
0
VERTEX
8
1
10
20.468300
20
9.087605
0
VERTEX
8
1
10
20.498154
20
9.107456
0
VERTEX
8
1
10
20.522293
20
9.142570
0
VERTEX
8
1
10
20.520348
20
9.159709
42
-0.285428
0
VERTEX
8
1
10
20.372391
20
9.210484
0
VERTEX
8
1
10
20.386581
20
9.226025
42
-0.115357
0
VERTEX
8
1
10
20.533455
20
9.249119
42
0.063241
0
VERTEX
8
1
10
20.709044
20
9.261911
42
0.298548
0
VERTEX
8
1
10
20.777954
20
9.344391
0
VERTEX
8
1
10
20.774445
20
9.355991
42
0.015183
0
VERTEX
8
1
10
20.703453
20
9.364933
42
-0.227443
0
VERTEX
8
1
10
20.729439
20
9.433716
0
VERTEX
8
1
10
20.747009
20
9.437500
42
-0.077653
0
VERTEX
8
1
10
20.869419
20
9.384086
42
0.141505
0
VERTEX
8
1
10
20.945915
20
9.377510
0
VERTEX
8
1
10
20.968643
20
9.391537
0
VERTEX
8
1
10
20.970360
20
9.396935
42
-0.005933
0
VERTEX
8
1
10
20.931641
20
9.443893
42
-0.295853
0
VERTEX
8
1
10
21.105200
20
9.437297
42
-0.022053
0
SEQEND
0
POLYLINE
8
1
66
1
70
1
0
VERTEX
8
1
10
21.936073
20
9.692245
42
0.102684
0
VERTEX
8
1
10
21.534904
20
9.743587
42
0.012001
0
VERTEX
8
1
10
21.583298
20
9.672759
42
-0.263342
0
VERTEX
8
1
10
21.455017
20
9.657883
42
-0.027542
0
VERTEX
8
1
10
21.275436
20
9.738201
0
VERTEX
8
1
10
21.240547
20
9.750492
42
0.373922
0
VERTEX
8
1
10
21.091087
20
9.699745
42
-0.043262
0
VERTEX
8
1
10
21.185997
20
9.662453
0
VERTEX
8
1
10
21.193764
20
9.661041
42
-0.116305
0
VERTEX
8
1
10
21.194412
20
9.586555
42
-0.192142
0
VERTEX
8
1
10
21.042389
20
9.616493
42
0.082055
0
VERTEX
8
1
10
20.903124
20
9.680697
42
0.148074
0
VERTEX
8
1
10
20.857658
20
9.670433
0
VERTEX
8
1
10
20.831749
20
9.683441
42
0.196699
0
VERTEX
8
1
10
20.523851
20
9.650873
42
0.420898
0
VERTEX
8
1
10
20.511810
20
9.566654
0
VERTEX
8
1
10
20.539536
20
9.537254
0
VERTEX
8
1
10
20.584114
20
9.505302
42
-0.318961
0
VERTEX
8
1
10
20.459305
20
9.497562
0
VERTEX
8
1
10
20.442444
20
9.506073
0
VERTEX
8
1
10
20.407814
20
9.524663
42
0.225932
0
VERTEX
8
1
10
20.207909
20
9.537823
42
0.243725
0
VERTEX
8
1
10
20.181068
20
9.488987
42
-0.044751
0
VERTEX
8
1
10
20.162544
20
9.402973
0
VERTEX
8
1
10
20.163727
20
9.397854
42
-0.074009
0
VERTEX
8
1
10
20.193001
20
9.352287
42
-0.606955
0
VERTEX
8
1
10
20.087234
20
9.316986
42
0.162850
0
VERTEX
8
1
10
19.983978
20
9.362637
0
VERTEX
8
1
10
19.944748
20
9.372112
42
0.200656
0
VERTEX
8
1
10
19.730682
20
9.355392
42
-0.020489
0
VERTEX
8
1
10
19.748428
20
9.231323
0
VERTEX
8
1
10
19.750717
20
9.225544
0
VERTEX
8
1
10
19.726517
20
9.224422
42
0.039147
0
VERTEX
8
1
10
19.475075
20
9.223136
42
0.234480
0
VERTEX
8
1
10
19.369568
20
9.144886
0
VERTEX
8
1
10
19.381027
20
9.136688
42
-0.557261
0
VERTEX
8
1
10
19.386093
20
9.003319
42
0.124509
0
VERTEX
8
1
10
19.229256
20
9.032536
42
0.095744
0
VERTEX
8
1
10
19.247856
20
9.127579
0
VERTEX
8
1
10
19.249969
20
9.133907
0
VERTEX
8
1
10
19.218903
20
9.142262
42
0.400795
0
VERTEX
8
1
10
19.081062
20
9.072750
0
VERTEX
8
1
10
19.071831
20
9.053368
0
VERTEX
8
1
10
19.063087
20
9.033024
42
-0.203730
0
VERTEX
8
1
10
18.867176
20
8.806345
42
-0.422065
0
VERTEX
8
1
10
18.811424
20
8.844002
0
VERTEX
8
1
10
18.806320
20
8.873005
0
VERTEX
8
1
10
18.805702
20
8.911686
42
0.231966
0
VERTEX
8
1
10
18.623917
20
8.873535
42
-0.020226
0
VERTEX
8
1
10
18.484093
20
8.781651
0
VERTEX
8
1
10
18.465782
20
8.789360
42
0.087008
0
VERTEX
8
1
10
18.102325
20
8.814148
0
VERTEX
8
1
10
18.091118
20
8.809944
0
VERTEX
8
1
10
18.087616
20
8.804680
0
VERTEX
8
1
10
18.087654
20
8.860260
42
-0.061259
0
VERTEX
8
1
10
18.445793
20
8.994667
42
0.019460
0
VERTEX
8
1
10
18.905579
20
9.122894
42
0.031962
0
VERTEX
8
1
10
19.269478
20
9.290771
0
VERTEX
8
1
10
19.453087
20
9.386044
42
-0.040056
0
VERTEX
8
1
10
20.013367
20
9.633064
0
VERTEX
8
1
10
20.142380
20
9.679615
42
-0.049060
0
VERTEX
8
1
10
20.723396
20
9.843586
42
-0.041105
0
VERTEX
8
1
10
20.995819
20
9.861153
42
-0.030918
0
VERTEX
8
1
10
21.624073
20
9.865431
42
-0.070265
0
VERTEX
8
1
10
21.840958
20
9.808895
0
VERTEX
8
1
10
21.888245
20
9.778011
0
VERTEX
8
1
10
21.920731
20
9.739357
0
SEQEND
0
LINE
8
1
10
5.087608
20
6.346344
11
5.087608
21
6.374123
0
POLYLINE
8
1
66
1
0
VERTEX
8
1
10
6.726494
20
5.832455
42
0.041202
0
VERTEX
8
1
10
7.067497
20
5.958473
42
-0.081012
0
VERTEX
8
1
10
7.749801
20
6.118543
42
-0.082438
0
VERTEX
8
1
10
8.147812
20
6.065411
42
0.057033
0
VERTEX
8
1
10
8.590271
20
5.988178
42
-0.008629
0
VERTEX
8
1
10
8.939064
20
5.942255
42
0.028031
0
VERTEX
8
1
10
9.525296
20
5.905071
42
0.106703
0
VERTEX
8
1
10
9.803642
20
5.972702
42
0.057717
0
VERTEX
8
1
10
10.043689
20
6.182646
42
-0.103883
0
VERTEX
8
1
10
10.314251
20
6.343075
42
-0.084063
0
VERTEX
8
1
10
11.129800
20
6.517591
0
VERTEX
8
1
10
11.229239
20
6.523123
0
VERTEX
8
1
10
11.328784
20
6.526222
42
-0.002047
0
VERTEX
8
1
10
12.622253
20
6.525307
42
0.024006
0
VERTEX
8
1
10
13.300548
20
6.527578
42
0.022914
0
VERTEX
8
1
10
13.505569
20
6.555252
0
VERTEX
8
1
10
13.530457
20
6.579670
42
-0.005188
0
VERTEX
8
1
10
13.542788
20
6.787099
42
-0.218996
0
VERTEX
8
1
10
13.612267
20
6.872334
0
VERTEX
8
1
10
13.635612
20
6.885723
42
-0.068300
0
VERTEX
8
1
10
14.328430
20
7.084637
42
0.033258
0
VERTEX
8
1
10
15.134919
20
7.263978
42
0.131590
0
VERTEX
8
1
10
15.601990
20
7.564350
42
-0.012170
0
VERTEX
8
1
10
15.888069
20
7.867451
42
-0.052979
0
VERTEX
8
1
10
16.170410
20
8.054660
42
0.014668
0
VERTEX
8
1
10
16.586357
20
8.301682
0
VERTEX
8
1
10
16.587616
20
8.304680
0
SEQEND
0
POLYLINE
8
1
66
1
70
1
0
VERTEX
8
1
10
43.915192
20
10.609592
42
-0.173113
0
VERTEX
8
1
10
44.123962
20
10.720219
42
-0.064901
0
VERTEX
8
1
10
44.641243
20
10.737904
0
VERTEX
8
1
10
44.689835
20
10.735249
0
VERTEX
8
1
10
44.715759
20
10.742210
42
0.242251
0
VERTEX
8
1
10
44.454124
20
10.962593
42
0.199129
0
VERTEX
8
1
10
44.372803
20
11.029545
42
0.035958
0
VERTEX
8
1
10
44.060204
20
11.121906
42
0.039669
0
VERTEX
8
1
10
43.692505
20
11.224323
42
0.081943
0
VERTEX
8
1
10
42.945633
20
11.168987
42
0.048028
0
VERTEX
8
1
10
42.219971
20
10.945202
42
-0.019297
0
VERTEX
8
1
10
41.656425
20
10.740829
42
0.040995
0
VERTEX
8
1
10
40.899139
20
10.408859
42
-0.015581
0
VERTEX
8
1
10
40.561043
20
10.257515
42
-0.082250
0
VERTEX
8
1
10
40.306175
20
10.221081
0
VERTEX
8
1
10
40.235096
20
10.216435
42
-0.000427
0
VERTEX
8
1
10
39.812325
20
10.169210
42
0.029176
0
VERTEX
8
1
10
39.650917
20
10.138241
42
-0.015184
0
VERTEX
8
1
10
39.327492
20
10.000724
42
-0.116575
0
VERTEX
8
1
10
39.282761
20
9.998463
42
-0.094289
0
VERTEX
8
1
10
39.170937
20
9.901699
0
VERTEX
8
1
10
39.156609
20
9.897038
42
0.133426
0
VERTEX
8
1
10
39.050201
20
9.875093
42
0.114901
0
VERTEX
8
1
10
38.876129
20
9.749306
0
VERTEX
8
1
10
38.863068
20
9.742775
42
0.366546
0
VERTEX
8
1
10
38.761070
20
9.763088
42
0.071109
0
VERTEX
8
1
10
38.597618
20
9.651207
42
-0.113604
0
VERTEX
8
1
10
38.485680
20
9.616676
42
0.092654
0
VERTEX
8
1
10
38.335541
20
9.536488
42
-0.025929
0
VERTEX
8
1
10
38.100079
20
9.407192
42
0.029767
0
VERTEX
8
1
10
38.034554
20
9.362339
0
VERTEX
8
1
10
38.017715
20
9.361790
0
VERTEX
8
1
10
37.998894
20
9.364532
42
0.125046
0
VERTEX
8
1
10
37.826195
20
9.295843
42
-0.065532
0
VERTEX
8
1
10
37.667252
20
9.232933
42
0.017298
0
VERTEX
8
1
10
37.404186
20
9.114762
42
-0.000216
0
VERTEX
8
1
10
37.254982
20
9.080734
42
0.042732
0
VERTEX
8
1
10
37.139656
20
9.015369
42
-0.091993
0
VERTEX
8
1
10
37.008179
20
8.981709
42
0.060843
0
VERTEX
8
1
10
36.879505
20
8.932445
42
-0.151320
0
VERTEX
8
1
10
36.824051
20
8.932514
0
VERTEX
8
1
10
36.814674
20
8.929745
42
-0.280968
0
VERTEX
8
1
10
36.691643
20
8.910297
0
VERTEX
8
1
10
36.680580
20
8.908657
42
-0.207290
0
VERTEX
8
1
10
36.563873
20
8.860222
42
0.084475
0
VERTEX
8
1
10
36.428246
20
8.833992
0
VERTEX
8
1
10
36.409950
20
8.822667
42
0.127791
0
VERTEX
8
1
10
36.188034
20
8.816501
42
0.069928
0
VERTEX
8
1
10
35.801529
20
8.677197
0
VERTEX
8
1
10
35.783379
20
8.673954
42
0.103782
0
VERTEX
8
1
10
35.688118
20
8.709094
42
0.349657
0
VERTEX
8
1
10
35.672546
20
8.693119
42
0.375747
0
VERTEX
8
1
10
35.571468
20
8.725441
42
0.062401
0
VERTEX
8
1
10
35.559708
20
8.706722
0
VERTEX
8
1
10
35.556976
20
8.706100
42
-0.279353
0
VERTEX
8
1
10
35.504692
20
8.821754
42
-0.040623
0
VERTEX
8
1
10
35.549805
20
9.005161
42
0.173584
0
VERTEX
8
1
10
35.539459
20
9.101944
42
0.228713
0
VERTEX
8
1
10
35.412422
20
9.168785
0
VERTEX
8
1
10
35.370720
20
9.171104
42
0.156052
0
VERTEX
8
1
10
34.853798
20
8.982616
0
VERTEX
8
1
10
34.790642
20
8.937241
42
-0.116845
0
VERTEX
8
1
10
34.345978
20
8.728830
42
0.051801
0
VERTEX
8
1
10
34.050175
20
8.624544
42
0.022495
0
VERTEX
8
1
10
33.980064
20
8.580540
42
-0.012537
0
VERTEX
8
1
10
33.992622
20
8.604309
0
VERTEX
8
1
10
33.990067
20
8.603550
0
VERTEX
8
1
10
33.805740
20
8.542099
42
-0.120636
0
VERTEX
8
1
10
33.672897
20
8.475822
42
-0.026183
0
VERTEX
8
1
10
33.350906
20
8.426230
42
0.067430
0
VERTEX
8
1
10
33.173615
20
8.369881
42
-0.077735
0
VERTEX
8
1
10
32.442375
20
8.217106
0
VERTEX
8
1
10
32.397209
20
8.216839
42
0.001813
0
VERTEX
8
1
10
31.657267
20
8.237349
42
0.079798
0
VERTEX
8
1
10
31.410858
20
8.193249
42
0.160730
0
VERTEX
8
1
10
31.246422
20
8.182728
42
-0.041517
0
VERTEX
8
1
10
30.890045
20
8.100243
42
-0.047517
0
VERTEX
8
1
10
30.210609
20
7.999547
42
-0.010353
0
VERTEX
8
1
10
29.433037
20
8.049686
42
0.048272
0
VERTEX
8
1
10
29.247169
20
8.039120
0
VERTEX
8
1
10
29.221886
20
8.038921
42
0.048271
0
VERTEX
8
1
10
29.001251
20
8.040210
42
0.045119
0
VERTEX
8
1
10
28.954979
20
8.025852
42
0.268831
0
VERTEX
8
1
10
28.847900
20
8.030769
42
0.091104
0
VERTEX
8
1
10
28.632561
20
8.046638
42
-0.064568
0
VERTEX
8
1
10
28.219238
20
8.075119
42
0.083717
0
VERTEX
8
1
10
27.791677
20
8.068991
0
VERTEX
8
1
10
27.748703
20
8.063744
42
-0.011424
0
VERTEX
8
1
10
27.361975
20
8.091893
42
0.081681
0
VERTEX
8
1
10
27.201508
20
8.111208
42
0.008840
0
VERTEX
8
1
10
26.975718
20
8.106217
42
-0.097675
0
VERTEX
8
1
10
26.816093
20
8.142841
42
-0.018252
0
VERTEX
8
1
10
26.750679
20
8.142784
42
-0.192138
0
VERTEX
8
1
10
26.612793
20
8.098099
42
0.043112
0
VERTEX
8
1
10
26.461357
20
8.089848
42
0.201897
0
VERTEX
8
1
10
26.234444
20
8.099392
0
VERTEX
8
1
10
26.188797
20
8.087727
42
0.446150
0
VERTEX
8
1
10
26.096107
20
8.062580
0
VERTEX
8
1
10
25.870361
20
8.021534
42
0.081304
0
VERTEX
8
1
10
25.700020
20
7.984280
42
-0.059663
0
VERTEX
8
1
10
25.258017
20
7.869625
0
VERTEX
8
1
10
25.188543
20
7.858301
0
VERTEX
8
1
10
25.119087
20
7.846886
42
-0.006018
0
VERTEX
8
1
10
24.948097
20
7.851421
42
0.084007
0
VERTEX
8
1
10
24.650993
20
7.756232
42
-0.108736
0
VERTEX
8
1
10
24.331486
20
7.703584
42
0.058283
0
VERTEX
8
1
10
24.050644
20
7.667854
42
-0.240891
0
VERTEX
8
1
10
23.976225
20
7.660019
42
0.106087
0
VERTEX
8
1
10
23.808830
20
7.663185
42
0.007459
0
VERTEX
8
1
10
23.802177
20
7.613075
42
0.092151
0
VERTEX
8
1
10
23.650745
20
7.583570
42
-0.030682
0
VERTEX
8
1
10
23.538246
20
7.557873
0
VERTEX
8
1
10
23.530792
20
7.525749
0
VERTEX
8
1
10
23.524948
20
7.527145
42
0.278367
0
VERTEX
8
1
10
23.393440
20
7.524742
42
0.064277
0
VERTEX
8
1
10
23.223503
20
7.393414
42
0.063862
0
VERTEX
8
1
10
23.097267
20
7.278309
42
0.193691
0
VERTEX
8
1
10
23.071106
20
7.149311
42
-0.043982
0
VERTEX
8
1
10
23.088192
20
6.912034
42
0.128616
0
VERTEX
8
1
10
23.111076
20
6.846428
42
-0.020478
0
VERTEX
8
1
10
23.170929
20
6.814632
42
-0.078528
0
VERTEX
8
1
10
23.200226
20
6.712421
42
0.033566
0
VERTEX
8
1
10
23.304192
20
6.442363
42
0.042497
0
VERTEX
8
1
10
23.338814
20
6.393040
0
VERTEX
8
1
10
23.358269
20
6.382305
42
-0.329310
0
VERTEX
8
1
10
23.452911
20
6.381687
42
-0.012761
0
VERTEX
8
1
10
23.543459
20
6.313211
42
0.302783
0
VERTEX
8
1
10
23.623772
20
6.321819
0
VERTEX
8
1
10
23.650955
20
6.347019
0
VERTEX
8
1
10
23.663116
20
6.341206
42
0.143472
0
VERTEX
8
1
10
23.825661
20
6.229939
42
0.224552
0
VERTEX
8
1
10
23.916206
20
6.257175
0
VERTEX
8
1
10
23.945587
20
6.277931
42
-0.267375
0
VERTEX
8
1
10
24.058334
20
6.302067
42
-0.053917
0
VERTEX
8
1
10
24.242226
20
6.344994
42
0.056593
0
VERTEX
8
1
10
24.509384
20
6.297905
42
-0.062252
0
VERTEX
8
1
10
24.871513
20
6.206192
42
0.013906
0
VERTEX
8
1
10
25.181984
20
6.130951
42
0.041568
0
VERTEX
8
1
10
25.432035
20
6.060724
42
0.055760
0
VERTEX
8
1
10
25.493637
20
6.062717
0
VERTEX
8
1
10
25.596207
20
6.021683
42
-0.084356
0
VERTEX
8
1
10
25.788933
20
5.961781
42
0.053045
0
VERTEX
8
1
10
26.040564
20
5.870379
42
-0.005161
0
VERTEX
8
1
10
26.876213
20
5.618336
42
-0.026337
0
VERTEX
8
1
10
27.475361
20
5.375050
42
0.036405
0
VERTEX
8
1
10
27.921211
20
5.221611
42
0.015159
0
VERTEX
8
1
10
28.450928
20
5.044168
42
0.080947
0
VERTEX
8
1
10
28.584518
20
5.037090
0
VERTEX
8
1
10
28.597549
20
5.041576
0
VERTEX
8
1
10
28.679598
20
4.918506
42
0.007241
0
VERTEX
8
1
10
29.045063
20
4.459303
42
-0.019171
0
VERTEX
8
1
10
29.156181
20
4.299053
0
VERTEX
8
1
10
29.167831
20
4.274334
42
-0.019154
0
VERTEX
8
1
10
29.228653
20
4.041570
42
0.262620
0
VERTEX
8
1
10
29.363762
20
3.919277
42
-0.023523
0
VERTEX
8
1
10
29.568010
20
3.861770
42
-0.077013
0
VERTEX
8
1
10
29.670837
20
3.795624
42
-0.116486
0
VERTEX
8
1
10
30.098709
20
3.300728
42
0.222590
0
VERTEX
8
1
10
30.243027
20
3.153103
42
-0.147423
0
VERTEX
8
1
10
30.428436
20
3.005840
0
VERTEX
8
1
10
30.444405
20
2.986202
42
0.181389
0
VERTEX
8
1
10
30.624008
20
2.858383
42
-0.019257
0
VERTEX
8
1
10
30.653923
20
2.872417
42
0.201031
0
VERTEX
8
1
10
30.879913
20
2.718037
42
-0.049305
0
VERTEX
8
1
10
31.029160
20
2.666664
42
0.043430
0
VERTEX
8
1
10
31.102974
20
2.606659
42
0.329463
0
VERTEX
8
1
10
31.182859
20
2.639272
42
-0.414994
0
VERTEX
8
1
10
31.291437
20
2.640332
42
0.007808
0
VERTEX
8
1
10
31.367357
20
2.585567
42
0.292619
0
VERTEX
8
1
10
31.458443
20
2.601139
42
-0.013442
0
VERTEX
8
1
10
31.488304
20
2.587540
42
-0.069108
0
VERTEX
8
1
10
31.575691
20
2.594505
0
VERTEX
8
1
10
31.591934
20
2.598167
42
-0.134923
0
VERTEX
8
1
10
31.736717
20
2.550951
42
0.097166
0
VERTEX
8
1
10
31.820610
20
2.532555
0
VERTEX
8
1
10
31.838371
20
2.537529
0
VERTEX
8
1
10
31.847275
20
2.542000
42
0.221360
0
VERTEX
8
1
10
31.959999
20
2.497032
42
-0.416606
0
VERTEX
8
1
10
32.015381
20
2.480167
42
0.133654
0
VERTEX
8
1
10
32.106991
20
2.387164
0
VERTEX
8
1
10
32.121704
20
2.381484
0
VERTEX
8
1
10
32.136940
20
2.377399
42
-0.097785
0
VERTEX
8
1
10
32.176926
20
2.390671
0
VERTEX
8
1
10
32.238075
20
2.398506
42
-0.121219
0
VERTEX
8
1
10
32.473526
20
2.384941
42
0.287368
0
VERTEX
8
1
10
32.580704
20
2.474491
42
0.444888
0
VERTEX
8
1
10
32.743866
20
2.520237
42
0.248617
0
VERTEX
8
1
10
32.758949
20
2.663960
42
-0.021647
0
VERTEX
8
1
10
32.728218
20
2.670696
0
VERTEX
8
1
10
32.724403
20
2.675655
42
0.113519
0
VERTEX
8
1
10
32.625336
20
2.805126
42
0.095301
0
VERTEX
8
1
10
32.162277
20
3.064438
42
-0.059008
0
VERTEX
8
1
10
31.771011
20
3.204544
42
0.011605
0
VERTEX
8
1
10
31.612175
20
3.269367
42
-0.086005
0
VERTEX
8
1
10
31.267448
20
3.546387
42
0.044853
0
VERTEX
8
1
10
30.892599
20
3.884365
42
-0.029073
0
VERTEX
8
1
10
30.716095
20
4.055393
42
-0.240903
0
VERTEX
8
1
10
30.669670
20
4.120110
42
0.182386
0
VERTEX
8
1
10
30.567768
20
4.301117
42
-0.068216
0
VERTEX
8
1
10
30.468903
20
4.447613
42
0.007927
0
VERTEX
8
1
10
30.248009
20
4.753744
0
VERTEX
8
1
10
30.250610
20
4.752585
42
0.210193
0
VERTEX
8
1
10
30.260860
20
4.768591
0
VERTEX
8
1
10
30.263794
20
4.771297
0
VERTEX
8
1
10
30.349770
20
4.735363
42
-0.027764
0
VERTEX
8
1
10
30.428215
20
4.723430
42
-0.222242
0
VERTEX
8
1
10
30.596382
20
4.589287
0
VERTEX
8
1
10
30.630096
20
4.534019
0
VERTEX
8
1
10
30.649696
20
4.502739
42
0.242907
0
VERTEX
8
1
10
30.879585
20
4.350159
42
0.014384
0
VERTEX
8
1
10
31.051155
20
4.331703
42
-0.187885
0
VERTEX
8
1
10
31.211380
20
4.234085
0
VERTEX
8
1
10
31.231819
20
4.209949
42
0.133100
0
VERTEX
8
1
10
31.460548
20
4.017696
42
0.105339
0
VERTEX
8
1
10
31.795067
20
3.913990
0
VERTEX
8
1
10
31.802589
20
3.906849
42
0.037843
0
VERTEX
8
1
10
31.799622
20
3.763306
42
0.368238
0
VERTEX
8
1
10
31.870087
20
3.710735
42
-0.227363
0
VERTEX
8
1
10
31.943100
20
3.664696
42
-0.045673
0
VERTEX
8
1
10
32.012779
20
3.537244
42
0.253018
0
VERTEX
8
1
10
32.171581
20
3.449635
42
-0.062655
0
VERTEX
8
1
10
32.299927
20
3.408360
42
0.026724
0
VERTEX
8
1
10
32.456619
20
3.297276
42
0.047735
0
VERTEX
8
1
10
32.651932
20
3.244972
42
-0.177122
0
VERTEX
8
1
10
32.874352
20
3.038212
42
0.256748
0
VERTEX
8
1
10
33.074524
20
2.909599
42
-0.043449
0
VERTEX
8
1
10
33.260445
20
2.883411
42
-0.257124
0
VERTEX
8
1
10
33.351707
20
2.775013
42
0.040078
0
VERTEX
8
1
10
33.449196
20
2.719097
0
VERTEX
8
1
10
33.465500
20
2.725595
42
-0.473310
0
VERTEX
8
1
10
33.543373
20
2.701294
42
0.153281
0
VERTEX
8
1
10
33.655540
20
2.557716
42
-0.132666
0
VERTEX
8
1
10
33.925507
20
2.418212
42
0.055829
0
VERTEX
8
1
10
34.083832
20
2.319637
0
VERTEX
8
1
10
34.098778
20
2.318306
42
0.156135
0
VERTEX
8
1
10
34.202332
20
2.395233
0
VERTEX
8
1
10
34.201492
20
2.396351
0
VERTEX
8
1
10
34.344948
20
2.375854
0
VERTEX
8
1
10
34.347664
20
2.374321
42
0.295523
0
VERTEX
8
1
10
34.503387
20
2.302091
42
0.209942
0
VERTEX
8
1
10
34.550995
20
2.345032
42
0.203805
0
VERTEX
8
1
10
34.570328
20
2.336872
42
0.233414
0
VERTEX
8
1
10
34.612267
20
2.541012
42
0.095930
0
VERTEX
8
1
10
34.536209
20
2.719479
42
0.044182
0
VERTEX
8
1
10
34.096252
20
3.248619
42
-0.079781
0
VERTEX
8
1
10
33.958443
20
3.467892
42
0.193696
0
VERTEX
8
1
10
33.850693
20
3.555145
0
VERTEX
8
1
10
33.808281
20
3.573067
42
-0.076142
0
VERTEX
8
1
10
33.523689
20
3.782635
42
-0.090899
0
VERTEX
8
1
10
33.405861
20
3.986244
42
0.083104
0
VERTEX
8
1
10
33.286461
20
4.183899
42
0.044315
0
VERTEX
8
1
10
32.926910
20
4.578430
42
0.061373
0
VERTEX
8
1
10
32.827888
20
4.640858
0
VERTEX
8
1
10
32.798729
20
4.647255
0
VERTEX
8
1
10
33.096642
20
4.667118
42
0.095937
0
VERTEX
8
1
10
33.228165
20
4.673111
0
VERTEX
8
1
10
33.284744
20
4.683804
42
-0.158724
0
VERTEX
8
1
10
33.453384
20
4.677021
42
0.025309
0
VERTEX
8
1
10
33.529282
20
4.704991
42
0.382652
0
VERTEX
8
1
10
33.621651
20
4.724213
0
VERTEX
8
1
10
33.625961
20
4.726006
42
-0.069124
0
VERTEX
8
1
10
33.651855
20
4.712646
42
-0.029390
0
VERTEX
8
1
10
33.785263
20
4.748794
42
0.042708
0
VERTEX
8
1
10
33.821922
20
4.767246
42
0.115482
0
VERTEX
8
1
10
33.898232
20
4.763340
42
0.042386
0
VERTEX
8
1
10
34.189606
20
4.845703
42
0.043152
0
VERTEX
8
1
10
34.837845
20
5.056736
42
-0.022808
0
VERTEX
8
1
10
35.687386
20
5.347384
42
0.077996
0
VERTEX
8
1
10
37.455803
20
6.211843
42
0.037488
0
VERTEX
8
1
10
38.159790
20
6.780028
42
-0.008222
0
VERTEX
8
1
10
38.340195
20
6.989639
42
-0.081688
0
VERTEX
8
1
10
38.513763
20
7.109367
42
0.136341
0
VERTEX
8
1
10
38.651970
20
7.255917
42
-0.049767
0
VERTEX
8
1
10
38.763321
20
7.394967
42
0.002117
0
VERTEX
8
1
10
39.014786
20
7.694115
42
0.032463
0
VERTEX
8
1
10
39.275429
20
8.100704
0
VERTEX
8
1
10
39.306904
20
8.152728
42
0.003243
0
VERTEX
8
1
10
39.731201
20
8.807693
42
-0.000492
0
VERTEX
8
1
10
39.894371
20
9.121693
42
-0.073117
0
VERTEX
8
1
10
40.016624
20
9.265205
0
VERTEX
8
1
10
40.023621
20
9.266434
42
0.143294
0
VERTEX
8
1
10
40.003353
20
9.154048
42
0.180759
0
VERTEX
8
1
10
40.013481
20
9.145424
42
0.031101
0
VERTEX
8
1
10
39.970875
20
8.832559
42
0.188234
0
VERTEX
8
1
10
40.049316
20
8.641964
42
-0.020616
0
VERTEX
8
1
10
40.133354
20
8.536518
0
VERTEX
8
1
10
40.152466
20
8.535473
42
0.263778
0
VERTEX
8
1
10
40.227814
20
8.645351
42
-0.012700
0
VERTEX
8
1
10
40.242996
20
8.715633
0
VERTEX
8
1
10
40.252289
20
8.730480
42
-0.245569
0
VERTEX
8
1
10
40.358482
20
8.748421
42
0.337844
0
VERTEX
8
1
10
40.505432
20
8.822244
42
-0.160425
0
VERTEX
8
1
10
40.550232
20
8.849171
42
-0.041236
0
VERTEX
8
1
10
40.735828
20
8.882607
42
0.211285
0
VERTEX
8
1
10
40.825218
20
8.957008
0
VERTEX
8
1
10
40.841385
20
8.992188
0
VERTEX
8
1
10
40.860443
20
9.020370
42
-0.030210
0
VERTEX
8
1
10
41.081070
20
9.037705
42
0.129623
0
VERTEX
8
1
10
41.200027
20
9.089096
0
VERTEX
8
1
10
41.217484
20
9.111159
42
-0.458296
0
VERTEX
8
1
10
41.239304
20
9.242466
42
-0.109470
0
VERTEX
8
1
10
41.347916
20
9.296825
42
0.364066
0
VERTEX
8
1
10
41.424438
20
9.325420
42
0.172329
0
VERTEX
8
1
10
41.412666
20
9.358006
42
-0.035951
0
VERTEX
8
1
10
41.468407
20
9.446087
42
-0.118415
0
VERTEX
8
1
10
41.608429
20
9.522324
42
0.347053
0
VERTEX
8
1
10
41.715179
20
9.677094
42
-0.150085
0
VERTEX
8
1
10
41.771358
20
9.832987
42
0.027857
0
VERTEX
8
1
10
41.787819
20
9.869949
0
VERTEX
8
1
10
41.809784
20
9.860744
42
0.208178
0
VERTEX
8
1
10
42.102207
20
9.834311
42
0.155705
0
VERTEX
8
1
10
42.189651
20
9.909500
0
VERTEX
8
1
10
42.209946
20
9.922382
0
VERTEX
8
1
10
42.233765
20
9.906516
42
0.321578
0
VERTEX
8
1
10
42.511864
20
9.904277
42
0.045318
0
VERTEX
8
1
10
42.588631
20
9.959675
42
-0.159091
0
VERTEX
8
1
10
42.767326
20
9.983027
42
0.018983
0
VERTEX
8
1
10
42.834175
20
9.982315
0
VERTEX
8
1
10
42.844276
20
9.990852
42
-0.277015
0
VERTEX
8
1
10
42.951225
20
10.102314
42
0.098420
0
VERTEX
8
1
10
43.211906
20
10.251141
42
-0.103933
0
VERTEX
8
1
10
43.422852
20
10.336704
42
0.200008
0
VERTEX
8
1
10
43.588593
20
10.471077
0
VERTEX
8
1
10
43.608528
20
10.499439
42
-0.069685
0
VERTEX
8
1
10
43.744476
20
10.523659
42
0.169739
0
SEQEND
0
POLYLINE
8
1
66
1
70
1
0
VERTEX
8
1
10
23.595001
20
7.207779
0
VERTEX
8
1
10
23.557594
20
7.244793
0
VERTEX
8
1
10
23.559868
20
7.242813
42
0.398879
0
VERTEX
8
1
10
23.681602
20
7.295879
0
VERTEX
8
1
10
23.680115
20
7.311363
42
0.279329
0
VERTEX
8
1
10
23.557343
20
7.377289
0
VERTEX
8
1
10
23.541405
20
7.378414
42
-0.377664
0
VERTEX
8
1
10
23.734079
20
7.378862
42
-0.247061
0
VERTEX
8
1
10
23.759163
20
7.284695
0
VERTEX
8
1
10
23.746048
20
7.247246
0
VERTEX
8
1
10
23.720215
20
7.208233
42
-0.193113
0
SEQEND
0
POLYLINE
8
1
66
1
70
1
0
VERTEX
8
1
10
23.252800
20
7.146996
0
VERTEX
8
1
10
23.304550
20
7.159576
0
VERTEX
8
1
10
23.301651
20
7.158676
42
0.410159
0
VERTEX
8
1
10
23.286835
20
7.029652
0
VERTEX
8
1
10
23.301285
20
7.023041
42
0.278845
0
VERTEX
8
1
10
23.421982
20
7.092537
0
VERTEX
8
1
10
23.431068
20
7.105331
42
-0.395259
0
VERTEX
8
1
10
23.333368
20
6.943532
42
-0.236543
0
VERTEX
8
1
10
23.237579
20
6.970264
0
VERTEX
8
1
10
23.211090
20
7.000275
0
VERTEX
8
1
10
23.189667
20
7.041748
42
-0.216373
0
SEQEND
0
POLYLINE
8
1
66
1
70
1
0
VERTEX
8
1
10
23.654068
20
6.681900
42
-0.215488
0
VERTEX
8
1
10
23.616901
20
6.575095
42
-0.000238
0
VERTEX
8
1
10
23.570297
20
6.552364
42
0.418785
0
VERTEX
8
1
10
23.560150
20
6.680660
0
VERTEX
8
1
10
23.544983
20
6.685783
42
0.293374
0
VERTEX
8
1
10
23.440903
20
6.595280
0
VERTEX
8
1
10
23.434677
20
6.580769
0
VERTEX
8
1
10
23.424965
20
6.601971
0
VERTEX
8
1
10
23.421257
20
6.643661
0
VERTEX
8
1
10
23.427292
20
6.680752
42
-0.473929
0
VERTEX
8
1
10
23.585510
20
6.754131
0
VERTEX
8
1
10
23.618385
20
6.732803
0
VERTEX
8
1
10
23.649178
20
6.699398
0
SEQEND
0
POLYLINE
8
1
66
1
70
1
0
VERTEX
8
1
10
23.817665
20
6.991177
0
VERTEX
8
1
10
23.846443
20
6.947456
0
VERTEX
8
1
10
23.841705
20
6.952755
42
0.335010
0
VERTEX
8
1
10
23.718880
20
6.930912
0
VERTEX
8
1
10
23.711594
20
6.916634
0
VERTEX
8
1
10
23.713348
20
6.901226
42
0.259304
0
VERTEX
8
1
10
23.824615
20
6.816238
0
VERTEX
8
1
10
23.827766
20
6.809208
42
-0.234399
0
VERTEX
8
1
10
23.682476
20
6.813628
42
-0.420682
0
VERTEX
8
1
10
23.647362
20
6.962830
0
VERTEX
8
1
10
23.673111
20
6.996601
0
VERTEX
8
1
10
23.699615
20
7.016235
42
-0.203406
0
SEQEND
0
POLYLINE
8
1
66
1
70
1
0
VERTEX
8
1
10
34.898308
20
8.613342
42
-0.051336
0
VERTEX
8
1
10
35.168144
20
8.686306
0
VERTEX
8
1
10
35.158897
20
8.646881
0
VERTEX
8
1
10
35.118675
20
8.593513
42
-0.120785
0
VERTEX
8
1
10
34.800610
20
8.400321
42
-0.095607
0
VERTEX
8
1
10
34.055931
20
8.278084
0
VERTEX
8
1
10
34.042793
20
8.319241
42
-0.260325
0
VERTEX
8
1
10
34.147423
20
8.499797
42
-0.085382
0
VERTEX
8
1
10
34.415905
20
8.635388
42
0.020404
0
VERTEX
8
1
10
34.543839
20
8.691185
42
0.015611
0
VERTEX
8
1
10
34.750458
20
8.760056
42
0.194091
0
VERTEX
8
1
10
34.553368
20
8.579937
0
VERTEX
8
1
10
34.548790
20
8.564003
0
VERTEX
8
1
10
34.573601
20
8.555424
42
0.094741
0
SEQEND
0
POLYLINE
8
1
66
1
70
1
0
VERTEX
8
1
10
29.068718
20
7.030533
42
-0.295370
0
VERTEX
8
1
10
29.092308
20
7.054955
42
0.036790
0
VERTEX
8
1
10
29.478516
20
7.199932
42
-0.071794
0
VERTEX
8
1
10
30.092258
20
7.340324
42
-0.092857
0
VERTEX
8
1
10
30.591412
20
7.270375
42
0.048160
0
VERTEX
8
1
10
31.003288
20
7.207119
0
VERTEX
8
1
10
31.046303
20
7.201870
42
0.034311
0
VERTEX
8
1
10
31.876410
20
7.127603
42
0.086691
0
VERTEX
8
1
10
32.133865
20
7.177601
42
0.082382
0
VERTEX
8
1
10
32.305992
20
7.309864
0
VERTEX
8
1
10
32.358902
20
7.361996
42
-0.107478
0
VERTEX
8
1
10
32.630463
20
7.546066
42
-0.084112
0
VERTEX
8
1
10
33.424404
20
7.735221
42
-0.021993
0
VERTEX
8
1
10
33.770847
20
7.750234
42
-0.000248
0
VERTEX
8
1
10
34.943825
20
7.749519
42
0.016859
0
VERTEX
8
1
10
35.612076
20
7.746165
42
0.028803
0
VERTEX
8
1
10
35.872597
20
7.778008
42
0.018548
0
VERTEX
8
1
10
35.881683
20
7.968317
42
-0.248610
0
VERTEX
8
1
10
35.973022
20
8.093266
0
VERTEX
8
1
10
36.001236
20
8.109001
42
-0.065728
0
VERTEX
8
1
10
36.661568
20
8.301296
42
0.033190
0
VERTEX
8
1
10
37.501404
20
8.486928
42
0.127897
0
VERTEX
8
1
10
37.940453
20
8.765949
42
-0.006723
0
VERTEX
8
1
10
38.232368
20
9.075813
42
-0.054735
0
VERTEX
8
1
10
38.454422
20
9.231487
42
0.010342
0
VERTEX
8
1
10
38.933670
20
9.512771
42
-1.291798
0
VERTEX
8
1
10
38.976112
20
9.466732
42
-0.036067
0
VERTEX
8
1
10
38.935623
20
9.438577
42
0.007232
0
VERTEX
8
1
10
38.363693
20
9.100743
42
0.065105
0
VERTEX
8
1
10
38.175499
20
8.927666
42
-0.025559
0
VERTEX
8
1
10
37.877449
20
8.622829
42
-0.106048
0
VERTEX
8
1
10
37.478149
20
8.414768
42
-0.033274
0
VERTEX
8
1
10
36.638573
20
8.235167
42
0.063357
0
VERTEX
8
1
10
36.014214
20
8.045998
42
0.336724
0
VERTEX
8
1
10
35.940872
20
7.921635
42
-0.040385
0
VERTEX
8
1
10
35.929810
20
7.740086
42
-0.240517
0
VERTEX
8
1
10
35.908508
20
7.721310
42
-0.056790
0
VERTEX
8
1
10
35.202179
20
7.680721
0
VERTEX
8
1
10
35.024906
20
7.685556
42
0.003209
0
VERTEX
8
1
10
33.596012
20
7.684645
42
0.076538
0
VERTEX
8
1
10
32.730495
20
7.521893
42
0.047609
0
VERTEX
8
1
10
32.510231
20
7.411011
42
0.030182
0
VERTEX
8
1
10
32.287521
20
7.206164
42
-0.179069
0
VERTEX
8
1
10
31.936342
20
7.070497
42
-0.044070
0
VERTEX
8
1
10
31.614403
20
7.074852
0
VERTEX
8
1
10
31.513620
20
7.082869
42
-0.007091
0
VERTEX
8
1
10
30.710558
20
7.180562
42
-0.027123
0
VERTEX
8
1
10
30.430704
20
7.248121
42
0.117135
0
VERTEX
8
1
10
29.871040
20
7.246517
42
0.065718
0
VERTEX
8
1
10
29.348694
20
7.077847
42
-0.048890
0
VERTEX
8
1
10
29.097763
20
6.993300
42
-0.456027
0
SEQEND
0
POLYLINE
8
1
66
1
70
1
0
VERTEX
8
1
10
30.447243
20
6.159534
42
-0.019102
0
VERTEX
8
1
10
30.483971
20
6.114807
42
-0.332808
0
VERTEX
8
1
10
30.381302
20
6.086964
0
VERTEX
8
1
10
30.376076
20
6.102535
42
0.344314
0
VERTEX
8
1
10
30.319572
20
6.151318
0
VERTEX
8
1
10
30.308792
20
6.155220
0
VERTEX
8
1
10
30.296654
20
6.155251
42
0.331753
0
VERTEX
8
1
10
30.310654
20
5.958935
0
VERTEX
8
1
10
30.306061
20
5.938198
0
VERTEX
8
1
10
30.272400
20
5.920654
0
VERTEX
8
1
10
30.245033
20
5.919945
0
VERTEX
8
1
10
30.222855
20
5.933395
42
-0.132592
0
VERTEX
8
1
10
30.176865
20
6.031963
42
0.038905
0
VERTEX
8
1
10
30.123749
20
6.199333
0
VERTEX
8
1
10
30.104836
20
6.229759
0
VERTEX
8
1
10
30.089714
20
6.236671
42
-0.025843
0
VERTEX
8
1
10
30.056038
20
6.192966
42
0.132771
0
VERTEX
8
1
10
30.065590
20
6.149582
0
VERTEX
8
1
10
30.064178
20
6.139767
42
-0.134508
0
VERTEX
8
1
10
29.967522
20
6.139084
0
VERTEX
8
1
10
29.967705
20
6.158924
42
0.303183
0
VERTEX
8
1
10
29.909136
20
6.294357
42
0.319373
0
VERTEX
8
1
10
29.842781
20
6.276276
0
VERTEX
8
1
10
29.822701
20
6.252522
0
VERTEX
8
1
10
29.816154
20
6.237823
0
VERTEX
8
1
10
29.819183
20
6.224330
42
0.002914
0
VERTEX
8
1
10
29.864052
20
6.141857
0
VERTEX
8
1
10
29.865105
20
6.129932
0
VERTEX
8
1
10
29.858902
20
6.122051
42
-0.158336
0
VERTEX
8
1
10
29.764732
20
6.139824
42
0.011822
0
VERTEX
8
1
10
29.557556
20
6.327641
0
VERTEX
8
1
10
29.546684
20
6.333477
0
VERTEX
8
1
10
29.543839
20
6.330070
42
-0.092410
0
VERTEX
8
1
10
29.385979
20
6.324580
42
-0.536326
0
VERTEX
8
1
10
29.370485
20
6.370719
42
-0.263345
0
VERTEX
8
1
10
29.451714
20
6.428486
42
-0.050856
0
VERTEX
8
1
10
29.651779
20
6.432404
0
VERTEX
8
1
10
29.675819
20
6.433662
42
-0.213172
0
VERTEX
8
1
10
29.718901
20
6.423833
0
VERTEX
8
1
10
29.727570
20
6.418640
42
-0.113702
0
VERTEX
8
1
10
29.892624
20
6.446712
42
-0.072440
0
VERTEX
8
1
10
30.445572
20
6.344456
42
-0.120656
0
VERTEX
8
1
10
30.693939
20
6.149452
0
VERTEX
8
1
10
30.682747
20
6.107944
42
-0.293150
0
VERTEX
8
1
10
30.621843
20
6.081727
42
-0.050603
0
VERTEX
8
1
10
30.580208
20
6.084335
0
VERTEX
8
1
10
30.572868
20
6.099430
42
0.323259
0
VERTEX
8
1
10
30.493719
20
6.178079
42
0.147461
0
VERTEX
8
1
10
30.445755
20
6.164379
0
SEQEND
0
POLYLINE
8
1
66
1
70
1
0
VERTEX
8
1
10
28.072914
20
7.521015
0
VERTEX
8
1
10
28.074081
20
7.536034
0
VERTEX
8
1
10
28.115837
20
7.554539
42
-0.186579
0
VERTEX
8
1
10
28.421906
20
7.525541
42
-0.167967
0
VERTEX
8
1
10
28.697599
20
7.280092
42
-0.132742
0
VERTEX
8
1
10
28.753716
20
6.996117
0
VERTEX
8
1
10
28.751350
20
6.946262
0
VERTEX
8
1
10
28.733978
20
6.926319
42
-0.410735
0
VERTEX
8
1
10
28.682358
20
6.974197
42
-0.054709
0
VERTEX
8
1
10
28.674149
20
7.121811
42
0.162094
0
VERTEX
8
1
10
28.579075
20
7.315005
42
0.042996
0
VERTEX
8
1
10
28.543739
20
7.338760
0
VERTEX
8
1
10
28.531860
20
7.356346
42
0.188630
0
VERTEX
8
1
10
28.321945
20
7.447266
0
VERTEX
8
1
10
28.303070
20
7.444817
42
0.217941
0
VERTEX
8
1
10
28.185398
20
7.460975
42
-0.019754
0
VERTEX
8
1
10
28.127167
20
7.455070
0
VERTEX
8
1
10
28.099648
20
7.510105
42
0.077859
0
VERTEX
8
1
10
28.086151
20
7.488987
42
-0.262859
0
SEQEND
0
POLYLINE
8
1
66
1
70
1
0
VERTEX
8
1
10
27.979759
20
7.108723
42
0.017970
0
VERTEX
8
1
10
27.933601
20
7.131039
42
-0.365539
0
VERTEX
8
1
10
28.058960
20
7.329741
42
-0.249232
0
VERTEX
8
1
10
28.492874
20
7.248713
42
-0.219115
0
VERTEX
8
1
10
28.552076
20
7.086166
42
-0.253394
0
VERTEX
8
1
10
28.371367
20
6.753033
42
-0.363654
0
VERTEX
8
1
10
28.197014
20
6.797649
42
0.326695
0
VERTEX
8
1
10
28.378838
20
6.929013
0
VERTEX
8
1
10
28.380558
20
6.939954
0
VERTEX
8
1
10
28.381348
20
6.951000
0
VERTEX
8
1
10
28.359917
20
6.972984
42
-0.303139
0
VERTEX
8
1
10
28.142233
20
6.942469
42
-0.386430
0
VERTEX
8
1
10
28.125347
20
7.023718
42
-0.315437
0
VERTEX
8
1
10
28.212471
20
7.081493
42
-0.018805
0
VERTEX
8
1
10
28.390247
20
7.065701
0
VERTEX
8
1
10
28.401100
20
7.067208
42
0.476332
0
VERTEX
8
1
10
28.434967
20
7.121445
0
VERTEX
8
1
10
28.426025
20
7.152893
0
VERTEX
8
1
10
28.408264
20
7.193642
0
VERTEX
8
1
10
28.386459
20
7.216984
42
0.176293
0
VERTEX
8
1
10
28.099583
20
7.220463
42
0.349890
0
VERTEX
8
1
10
28.035782
20
7.080200
0
VERTEX
8
1
10
28.032883
20
7.074535
42
0.039496
0
SEQEND
0
POLYLINE
8
1
66
1
70
1
0
VERTEX
8
1
10
27.160851
20
7.613121
0
VERTEX
8
1
10
27.159081
20
7.653252
42
-0.710596
0
VERTEX
8
1
10
27.108168
20
7.723116
42
-0.082875
0
VERTEX
8
1
10
27.126144
20
7.749756
42
0.056253
0
VERTEX
8
1
10
27.202873
20
7.770416
42
-0.155296
0
VERTEX
8
1
10
27.329086
20
7.735275
42
-0.073381
0
VERTEX
8
1
10
27.576515
20
7.571934
42
-0.076222
0
VERTEX
8
1
10
27.751648
20
7.306183
42
0.019603
0
VERTEX
8
1
10
28.080603
20
6.769888
42
-0.135570
0
VERTEX
8
1
10
28.088768
20
6.718213
42
-0.421699
0
VERTEX
8
1
10
28.044518
20
6.710770
42
-0.149617
0
VERTEX
8
1
10
27.889786
20
6.861323
42
-0.014094
0
VERTEX
8
1
10
27.592972
20
7.349255
0
VERTEX
8
1
10
27.569786
20
7.385288
42
0.179613
0
VERTEX
8
1
10
27.296644
20
7.609504
42
0.130480
0
VERTEX
8
1
10
27.180550
20
7.626362
0
VERTEX
8
1
10
27.166359
20
7.618645
0
SEQEND
0
POLYLINE
8
1
66
1
70
1
0
VERTEX
8
1
10
26.815483
20
7.848232
0
VERTEX
8
1
10
26.778755
20
7.885891
0
VERTEX
8
1
10
26.780991
20
7.883876
42
0.398633
0
VERTEX
8
1
10
26.903702
20
7.934792
0
VERTEX
8
1
10
26.902512
20
7.950298
42
0.279682
0
VERTEX
8
1
10
26.780991
20
8.018383
0
VERTEX
8
1
10
26.765076
20
8.019783
42
-0.377747
0
VERTEX
8
1
10
26.957727
20
8.016829
42
-0.247229
0
VERTEX
8
1
10
26.981041
20
7.922237
0
VERTEX
8
1
10
26.967232
20
7.885021
0
VERTEX
8
1
10
26.940674
20
7.846470
42
-0.193183
0
SEQEND
0
POLYLINE
8
1
66
1
70
1
0
VERTEX
8
1
10
24.137016
20
7.108654
0
VERTEX
8
1
10
24.089325
20
7.085377
0
VERTEX
8
1
10
24.091957
20
7.086872
42
0.410545
0
VERTEX
8
1
10
24.077545
20
7.215946
0
VERTEX
8
1
10
24.061951
20
7.219334
42
0.281872
0
VERTEX
8
1
10
23.959717
20
7.125908
0
VERTEX
8
1
10
23.953720
20
7.111488
42
-0.398765
0
VERTEX
8
1
10
24.013002
20
7.290141
42
-0.236409
0
VERTEX
8
1
10
24.112328
20
7.284351
0
VERTEX
8
1
10
24.144905
20
7.260681
0
VERTEX
8
1
10
24.175095
20
7.224754
42
-0.218284
0
SEQEND
0
POLYLINE
8
1
66
1
70
1
0
VERTEX
8
1
10
24.010963
20
6.680363
0
VERTEX
8
1
10
24.054329
20
6.690731
42
0.433004
0
VERTEX
8
1
10
24.039146
20
6.583908
0
VERTEX
8
1
10
24.052483
20
6.577938
42
0.280162
0
VERTEX
8
1
10
24.160492
20
6.645775
42
-0.454655
0
VERTEX
8
1
10
24.061821
20
6.511050
42
-0.257156
0
VERTEX
8
1
10
23.978020
20
6.556343
0
VERTEX
8
1
10
23.957932
20
6.593513
42
-0.210977
0
SEQEND
0
POLYLINE
8
1
66
1
70
1
0
VERTEX
8
1
10
24.226921
20
7.034931
0
VERTEX
8
1
10
24.278641
20
7.047527
0
VERTEX
8
1
10
24.275742
20
7.046623
42
0.410187
0
VERTEX
8
1
10
24.260956
20
6.917606
0
VERTEX
8
1
10
24.275421
20
6.910995
42
0.278840
0
VERTEX
8
1
10
24.396065
20
6.980492
0
VERTEX
8
1
10
24.405151
20
6.993286
42
-0.395208
0
VERTEX
8
1
10
24.307474
20
6.831484
42
-0.236549
0
VERTEX
8
1
10
24.211678
20
6.858215
0
VERTEX
8
1
10
24.185181
20
6.888226
0
VERTEX
8
1
10
24.163757
20
6.929695
42
-0.216536
0
SEQEND
0
POLYLINE
8
1
66
1
70
1
0
VERTEX
8
1
10
24.601395
20
7.271309
0
VERTEX
8
1
10
24.630157
20
7.227589
0
VERTEX
8
1
10
24.628357
20
7.229984
42
0.389756
0
VERTEX
8
1
10
24.498009
20
7.202484
0
VERTEX
8
1
10
24.496185
20
7.187038
42
0.282449
0
VERTEX
8
1
10
24.602341
20
7.097893
0
VERTEX
8
1
10
24.617699
20
7.093594
42
-0.343035
0
VERTEX
8
1
10
24.437250
20
7.120022
42
-0.285940
0
VERTEX
8
1
10
24.424461
20
7.228985
0
VERTEX
8
1
10
24.445229
20
7.263004
0
VERTEX
8
1
10
24.478775
20
7.296001
42
-0.193330
0
SEQEND
0
POLYLINE
8
1
66
1
70
1
0
VERTEX
8
1
10
24.719879
20
6.686863
42
-0.215361
0
VERTEX
8
1
10
24.682732
20
6.580070
42
-0.000180
0
VERTEX
8
1
10
24.636101
20
6.557345
42
0.418866
0
VERTEX
8
1
10
24.625961
20
6.685638
0
VERTEX
8
1
10
24.610786
20
6.690762
42
0.293315
0
VERTEX
8
1
10
24.506714
20
6.600250
0
VERTEX
8
1
10
24.500488
20
6.585735
0
VERTEX
8
1
10
24.490791
20
6.606934
0
VERTEX
8
1
10
24.487068
20
6.648632
0
VERTEX
8
1
10
24.493103
20
6.685715
42
-0.473963
0
VERTEX
8
1
10
24.651314
20
6.759094
0
VERTEX
8
1
10
24.684196
20
6.737766
0
VERTEX
8
1
10
24.714981
20
6.704361
0
SEQEND
0
POLYLINE
8
1
66
1
70
1
0
VERTEX
8
1
10
24.900002
20
7.097221
0
VERTEX
8
1
10
24.862816
20
7.134014
0
VERTEX
8
1
10
24.870422
20
7.128891
42
0.339093
0
VERTEX
8
1
10
24.985336
20
7.178673
0
VERTEX
8
1
10
24.987549
20
7.194286
0
VERTEX
8
1
10
24.981956
20
7.208626
42
0.246093
0
VERTEX
8
1
10
24.853233
20
7.266960
0
VERTEX
8
1
10
24.859825
20
7.278053
0
VERTEX
8
1
10
24.899590
20
7.296552
42
-0.427611
0
VERTEX
8
1
10
25.063778
20
7.223474
42
-0.169386
0
VERTEX
8
1
10
25.058304
20
7.151363
0
VERTEX
8
1
10
25.037720
20
7.112846
0
VERTEX
8
1
10
25.018753
20
7.095609
42
-0.207320
0
SEQEND
0
POLYLINE
8
1
66
1
70
1
0
VERTEX
8
1
10
25.085052
20
6.787685
0
VERTEX
8
1
10
25.113831
20
6.743965
0
VERTEX
8
1
10
25.109077
20
6.749264
42
0.335175
0
VERTEX
8
1
10
24.986275
20
6.727425
0
VERTEX
8
1
10
24.978989
20
6.713142
0
VERTEX
8
1
10
24.980736
20
6.697735
42
0.259452
0
VERTEX
8
1
10
25.091988
20
6.612759
0
VERTEX
8
1
10
25.095139
20
6.605732
42
-0.234488
0
VERTEX
8
1
10
24.949850
20
6.610149
42
-0.420669
0
VERTEX
8
1
10
24.914742
20
6.759342
0
VERTEX
8
1
10
24.940491
20
6.793110
0
VERTEX
8
1
10
24.967003
20
6.812748
42
-0.203417
0
SEQEND
0
POLYLINE
8
1
66
1
70
1
0
VERTEX
8
1
10
25.049377
20
7.499584
42
0.074498
0
VERTEX
8
1
10
24.792641
20
7.507256
42
-0.036817
0
VERTEX
8
1
10
24.224154
20
7.482979
0
VERTEX
8
1
10
24.178413
20
7.507263
42
-0.164812
0
VERTEX
8
1
10
24.306252
20
7.541912
42
0.056658
0
VERTEX
8
1
10
24.362747
20
7.553162
0
VERTEX
8
1
10
24.379784
20
7.553242
42
0.163463
0
VERTEX
8
1
10
24.594086
20
7.543156
42
-0.032811
0
VERTEX
8
1
10
24.842499
20
7.591839
42
-0.027065
0
VERTEX
8
1
10
25.111450
20
7.577535
42
0.082889
0
VERTEX
8
1
10
25.258972
20
7.601231
42
0.093881
0
VERTEX
8
1
10
25.405495
20
7.626007
0
VERTEX
8
1
10
25.418198
20
7.626537
0
VERTEX
8
1
10
25.442116
20
7.618660
42
0.083157
0
VERTEX
8
1
10
25.749523
20
7.622897
42
-0.059246
0
VERTEX
8
1
10
25.969124
20
7.619926
42
0.032988
0
VERTEX
8
1
10
26.567772
20
7.628452
42
-0.145537
0
VERTEX
8
1
10
27.279272
20
7.475477
42
-0.110363
0
VERTEX
8
1
10
27.522705
20
7.243618
42
-0.020677
0
VERTEX
8
1
10
27.752022
20
6.858040
42
0.059489
0
VERTEX
8
1
10
27.959526
20
6.591667
42
-0.031059
0
VERTEX
8
1
10
28.153099
20
6.431136
42
-0.078987
0
VERTEX
8
1
10
28.173790
20
6.396103
0
VERTEX
8
1
10
28.169678
20
6.386272
0
VERTEX
8
1
10
28.130882
20
6.397034
42
-0.240463
0
VERTEX
8
1
10
27.623924
20
6.846279
42
0.023892
0
VERTEX
8
1
10
27.488497
20
7.158764
42
0.223111
0
VERTEX
8
1
10
27.083923
20
7.439548
0
VERTEX
8
1
10
26.990469
20
7.456134
42
-0.001430
0
VERTEX
8
1
10
26.553432
20
7.520446
42
0.027116
0
VERTEX
8
1
10
26.396530
20
7.526649
42
-0.027545
0
VERTEX
8
1
10
26.146091
20
7.501185
42
-0.081682
0
VERTEX
8
1
10
26.081284
20
7.517330
0
VERTEX
8
1
10
26.070595
20
7.518166
42
-0.101171
0
VERTEX
8
1
10
25.945923
20
7.511009
0
VERTEX
8
1
10
25.928696
20
7.517437
42
0.086598
0
VERTEX
8
1
10
25.766975
20
7.504124
42
-0.123772
0
VERTEX
8
1
10
25.509171
20
7.502014
42
0.042591
0
VERTEX
8
1
10
25.188805
20
7.491013
42
-0.045660
0
SEQEND
0
POLYLINE
8
1
66
1
70
1
0
VERTEX
8
1
10
26.040932
20
6.898540
0
VERTEX
8
1
10
26.003471
20
6.935623
0
VERTEX
8
1
10
26.007446
20
6.932435
42
0.336072
0
VERTEX
8
1
10
26.123344
20
6.974659
42
0.387976
0
VERTEX
8
1
10
26.104105
20
7.030518
42
0.190156
0
VERTEX
8
1
10
25.984367
20
7.069180
42
-0.191603
0
VERTEX
8
1
10
26.108641
20
7.105950
42
-0.534934
0
VERTEX
8
1
10
26.193108
20
6.938809
42
-0.087404
0
VERTEX
8
1
10
26.163918
20
6.898388
42
-0.197513
0
SEQEND
0
POLYLINE
8
1
66
1
70
1
0
VERTEX
8
1
10
25.764320
20
6.864212
0
VERTEX
8
1
10
25.793152
20
6.820415
0
VERTEX
8
1
10
25.789925
20
6.824333
42
0.398555
0
VERTEX
8
1
10
25.659554
20
6.792526
0
VERTEX
8
1
10
25.659523
20
6.777016
42
0.270645
0
VERTEX
8
1
10
25.768311
20
6.689964
0
VERTEX
8
1
10
25.783531
20
6.685879
42
-0.190442
0
VERTEX
8
1
10
25.654276
20
6.674748
42
-0.539649
0
VERTEX
8
1
10
25.606930
20
6.855401
42
-0.086748
0
VERTEX
8
1
10
25.644043
20
6.889033
42
-0.197732
0
SEQEND
0
POLYLINE
8
1
66
1
70
1
0
VERTEX
8
1
10
25.587662
20
7.093685
0
VERTEX
8
1
10
25.550865
20
7.131405
0
VERTEX
8
1
10
25.554787
20
7.128150
42
0.335872
0
VERTEX
8
1
10
25.671463
20
7.168324
42
0.388233
0
VERTEX
8
1
10
25.653271
20
7.224510
42
0.190191
0
VERTEX
8
1
10
25.534286
20
7.265282
42
-0.191540
0
VERTEX
8
1
10
25.659191
20
7.299859
42
-0.535483
0
VERTEX
8
1
10
25.740538
20
7.131234
42
-0.087305
0
VERTEX
8
1
10
25.710594
20
7.091342
42
-0.197589
0
SEQEND
0
POLYLINE
8
1
66
1
70
1
0
VERTEX
8
1
10
25.309044
20
6.601032
0
VERTEX
8
1
10
25.352394
20
6.611393
42
0.467386
0
VERTEX
8
1
10
25.341476
20
6.500633
42
0.318875
0
VERTEX
8
1
10
25.453186
20
6.559368
0
VERTEX
8
1
10
25.460457
20
6.559998
0
VERTEX
8
1
10
25.458115
20
6.520432
0
VERTEX
8
1
10
25.446640
20
6.487282
42
-0.522286
0
VERTEX
8
1
10
25.290253
20
6.460121
0
VERTEX
8
1
10
25.266945
20
6.490360
0
VERTEX
8
1
10
25.256973
20
6.518105
42
-0.221673
0
SEQEND
0
POLYLINE
8
1
66
1
70
1
0
VERTEX
8
1
10
25.467636
20
6.866585
0
VERTEX
8
1
10
25.420212
20
6.843460
0
VERTEX
8
1
10
25.427559
20
6.848927
42
0.355551
0
VERTEX
8
1
10
25.414261
20
6.970669
0
VERTEX
8
1
10
25.399681
20
6.977520
42
0.303351
0
VERTEX
8
1
10
25.293777
20
6.890076
0
VERTEX
8
1
10
25.287315
20
6.875488
0
VERTEX
8
1
10
25.278511
20
6.885014
0
VERTEX
8
1
10
25.272652
20
6.927521
0
VERTEX
8
1
10
25.276863
20
6.965603
42
-0.613482
0
VERTEX
8
1
10
25.475067
20
7.019775
0
VERTEX
8
1
10
25.487129
20
7.006553
42
-0.297051
0
VERTEX
8
1
10
25.504789
20
6.942981
42
-0.160215
0
SEQEND
0
POLYLINE
8
1
66
1
70
1
0
VERTEX
8
1
10
29.800903
20
4.863068
0
VERTEX
8
1
10
29.788452
20
4.878693
42
-0.048339
0
VERTEX
8
1
10
27.864088
20
5.390170
42
-0.007975
0
VERTEX
8
1
10
27.534981
20
5.522494
42
0.009313
0
VERTEX
8
1
10
27.095291
20
5.663570
42
-0.014494
0
VERTEX
8
1
10
26.620247
20
5.856862
42
0.016905
0
VERTEX
8
1
10
25.557091
20
6.197796
0
VERTEX
8
1
10
25.488159
20
6.218960
0
VERTEX
8
1
10
25.460503
20
6.218961
42
-0.007458
0
VERTEX
8
1
10
25.292463
20
6.266684
42
-0.054163
0
VERTEX
8
1
10
25.256989
20
6.288067
0
VERTEX
8
1
10
25.252457
20
6.297421
42
-0.107370
0
VERTEX
8
1
10
26.133261
20
6.194648
42
-0.039192
0
VERTEX
8
1
10
26.654121
20
5.982738
0
VERTEX
8
1
10
26.707275
20
5.959396
42
0.024543
0
VERTEX
8
1
10
26.421654
20
6.230125
42
0.083776
0
VERTEX
8
1
10
26.062515
20
6.409069
42
-0.016694
0
VERTEX
8
1
10
25.756958
20
6.520874
0
VERTEX
8
1
10
25.784653
20
6.526016
42
-0.085081
0
VERTEX
8
1
10
26.187679
20
6.452319
42
-0.094773
0
VERTEX
8
1
10
26.877728
20
6.067270
42
0.036136
0
VERTEX
8
1
10
27.254976
20
5.814504
42
0.040269
0
VERTEX
8
1
10
27.417595
20
5.747433
0
VERTEX
8
1
10
27.375954
20
5.766354
42
-0.098765
0
VERTEX
8
1
10
27.154442
20
5.972107
42
0.017133
0
VERTEX
8
1
10
26.918221
20
6.268898
42
0.069650
0
VERTEX
8
1
10
26.686058
20
6.439449
42
0.078011
0
VERTEX
8
1
10
26.134659
20
6.672962
42
0.038831
0
VERTEX
8
1
10
25.960991
20
6.691708
42
0.073408
0
VERTEX
8
1
10
26.186575
20
6.721272
42
-0.141115
0
VERTEX
8
1
10
26.432533
20
6.689827
42
-0.083651
0
VERTEX
8
1
10
27.029896
20
6.308265
42
-0.013689
0
VERTEX
8
1
10
27.384521
20
5.986805
42
0.174249
0
VERTEX
8
1
10
28.112049
20
5.659343
42
0.106897
0
VERTEX
8
1
10
28.281509
20
5.691795
42
-0.172785
0
VERTEX
8
1
10
27.787519
20
5.869133
42
-0.059803
0
VERTEX
8
1
10
27.482870
20
6.161649
42
-0.002075
0
VERTEX
8
1
10
27.275267
20
6.394081
42
0.070418
0
VERTEX
8
1
10
26.477654
20
6.973699
42
0.014020
0
VERTEX
8
1
10
26.928726
20
6.775275
42
-0.089813
0
VERTEX
8
1
10
27.316345
20
6.503751
42
0.011832
0
VERTEX
8
1
10
27.709803
20
6.115847
42
0.162042
0
VERTEX
8
1
10
28.434378
20
5.813004
42
0.005669
0
VERTEX
8
1
10
28.574287
20
5.798592
42
-0.003364
0
VERTEX
8
1
10
28.750595
20
5.755489
42
0.127789
0
VERTEX
8
1
10
28.901649
20
5.777039
42
-0.155375
0
VERTEX
8
1
10
29.220644
20
5.758061
42
-0.197167
0
VERTEX
8
1
10
29.316696
20
5.647903
0
VERTEX
8
1
10
29.293694
20
5.638515
42
-0.045801
0
VERTEX
8
1
10
28.750595
20
5.617064
42
-0.076149
0
VERTEX
8
1
10
28.593102
20
5.658100
42
-0.103756
0
VERTEX
8
1
10
28.543144
20
5.649025
42
0.055760
0
VERTEX
8
1
10
28.840096
20
5.541149
42
0.017796
0
VERTEX
8
1
10
29.047379
20
5.528160
42
-0.072989
0
VERTEX
8
1
10
29.152206
20
5.501976
0
VERTEX
8
1
10
29.299858
20
5.519672
42
0.102035
0
VERTEX
8
1
10
29.513153
20
5.490042
42
-0.027459
0
VERTEX
8
1
10
29.571838
20
5.484150
42
0.074208
0
VERTEX
8
1
10
29.780632
20
5.328953
0
VERTEX
8
1
10
29.788109
20
5.321262
42
-0.115593
0
VERTEX
8
1
10
29.672815
20
5.315845
42
-0.038478
0
VERTEX
8
1
10
29.437912
20
5.352345
42
0.045988
0
VERTEX
8
1
10
29.135300
20
5.363594
42
-0.054371
0
VERTEX
8
1
10
29.013725
20
5.379066
0
VERTEX
8
1
10
29.002075
20
5.379307
42
-0.064534
0
VERTEX
8
1
10
28.799988
20
5.372517
42
0.062961
0
VERTEX
8
1
10
28.757751
20
5.362816
42
0.107523
0
VERTEX
8
1
10
28.650522
20
5.370705
42
0.007189
0
VERTEX
8
1
10
28.461092
20
5.409380
42
0.042692
0
VERTEX
8
1
10
28.415482
20
5.408798
0
VERTEX
8
1
10
28.421120
20
5.392277
42
0.174387
0
VERTEX
8
1
10
28.684563
20
5.268397
42
0.045758
0
VERTEX
8
1
10
28.964249
20
5.245323
42
-0.061162
0
VERTEX
8
1
10
29.715851
20
5.113216
0
VERTEX
8
1
10
29.741142
20
5.114941
42
-0.142323
0
VERTEX
8
1
10
30.016823
20
5.085448
42
-0.216807
0
VERTEX
8
1
10
30.171700
20
4.870436
42
-0.371151
0
VERTEX
8
1
10
30.128021
20
4.821678
0
VERTEX
8
1
10
30.104225
20
4.818096
42
-0.096175
0
VERTEX
8
1
10
29.840782
20
4.880615
42
-0.013967
0
SEQEND
0
POLYLINE
8
1
66
1
70
1
0
VERTEX
8
1
10
29.844437
20
4.786327
42
-0.040454
0
VERTEX
8
1
10
30.029785
20
4.764782
0
VERTEX
8
1
10
30.047615
20
4.754787
42
0.083513
0
VERTEX
8
1
10
30.138809
20
4.606197
42
-0.084720
0
VERTEX
8
1
10
30.260649
20
4.411350
42
-0.120353
0
VERTEX
8
1
10
30.261314
20
4.334820
42
0.012936
0
VERTEX
8
1
10
30.215401
20
4.324886
42
0.425309
0
VERTEX
8
1
10
30.302719
20
4.229617
42
0.041964
0
VERTEX
8
1
10
30.380554
20
4.226368
42
-0.293924
0
VERTEX
8
1
10
30.540079
20
4.080721
42
-0.092761
0
VERTEX
8
1
10
30.550095
20
3.992790
42
0.213643
0
VERTEX
8
1
10
30.650581
20
3.856144
42
0.043498
0
VERTEX
8
1
10
30.761772
20
3.796688
42
-0.049588
0
VERTEX
8
1
10
30.738968
20
3.732300
42
0.367713
0
VERTEX
8
1
10
30.717804
20
3.743515
42
0.160523
0
VERTEX
8
1
10
30.714264
20
3.645535
42
0.498210
0
VERTEX
8
1
10
30.885597
20
3.658459
42
0.023045
0
VERTEX
8
1
10
30.955170
20
3.629982
0
VERTEX
8
1
10
30.965752
20
3.585972
42
-0.350552
0
VERTEX
8
1
10
31.124565
20
3.343563
0
VERTEX
8
1
10
31.117722
20
3.334949
42
-0.031137
0
VERTEX
8
1
10
31.030182
20
3.331001
0
VERTEX
8
1
10
31.027687
20
3.327587
42
0.081020
0
VERTEX
8
1
10
31.100868
20
3.228447
0
VERTEX
8
1
10
31.114441
20
3.226280
42
-0.040211
0
VERTEX
8
1
10
31.272440
20
3.292120
42
-0.193045
0
VERTEX
8
1
10
31.372482
20
3.268417
42
-0.442135
0
VERTEX
8
1
10
31.296860
20
3.144325
0
VERTEX
8
1
10
31.295113
20
3.143303
42
0.196781
0
VERTEX
8
1
10
31.395027
20
3.112392
0
VERTEX
8
1
10
31.402130
20
3.120155
42
-0.458555
0
VERTEX
8
1
10
31.525955
20
3.190544
0
VERTEX
8
1
10
31.550217
20
3.183006
42
-0.402799
0
VERTEX
8
1
10
31.581871
20
3.124790
42
0.353348
0
VERTEX
8
1
10
31.626890
20
3.042421
42
0.182337
0
VERTEX
8
1
10
31.786003
20
3.009819
42
-0.040659
0
VERTEX
8
1
10
31.968040
20
3.026886
0
VERTEX
8
1
10
32.009018
20
3.021004
42
-0.065809
0
VERTEX
8
1
10
32.011604
20
2.947735
42
-0.046740
0
VERTEX
8
1
10
31.966469
20
2.936256
0
VERTEX
8
1
10
31.967590
20
2.923653
0
VERTEX
8
1
10
31.983978
20
2.902996
0
VERTEX
8
1
10
32.012451
20
2.884281
0
VERTEX
8
1
10
32.050552
20
2.867462
42
0.046463
0
VERTEX
8
1
10
32.401192
20
2.795898
42
-0.066151
0
VERTEX
8
1
10
32.427689
20
2.725315
42
-0.183963
0
VERTEX
8
1
10
32.355820
20
2.666958
0
VERTEX
8
1
10
32.334633
20
2.690186
0
VERTEX
8
1
10
32.325592
20
2.699325
42
0.508232
0
VERTEX
8
1
10
32.263924
20
2.698288
0
VERTEX
8
1
10
32.251656
20
2.687088
0
VERTEX
8
1
10
32.258812
20
2.676567
42
-0.337999
0
VERTEX
8
1
10
32.292992
20
2.579544
0
VERTEX
8
1
10
32.290314
20
2.564110
0
VERTEX
8
1
10
32.277664
20
2.549690
42
-0.246463
0
VERTEX
8
1
10
32.159950
20
2.535733
42
-0.390206
0
VERTEX
8
1
10
32.143867
20
2.599850
0
VERTEX
8
1
10
32.145111
20
2.634129
0
VERTEX
8
1
10
32.124725
20
2.670174
0
VERTEX
8
1
10
32.095894
20
2.691872
0
VERTEX
8
1
10
32.060616
20
2.703014
42
-0.018483
0
VERTEX
8
1
10
31.895134
20
2.717793
0
VERTEX
8
1
10
31.857704
20
2.732986
0
VERTEX
8
1
10
31.825874
20
2.760353
0
VERTEX
8
1
10
31.801643
20
2.803680
0
VERTEX
8
1
10
31.784485
20
2.853626
42
0.131668
0
VERTEX
8
1
10
31.676292
20
2.837151
0
VERTEX
8
1
10
31.634262
20
2.821671
42
-0.190603
0
VERTEX
8
1
10
31.446091
20
2.817364
42
-0.038439
0
VERTEX
8
1
10
31.329498
20
2.861248
0
VERTEX
8
1
10
31.328773
20
2.883102
0
VERTEX
8
1
10
31.328606
20
2.906723
42
0.464700
0
VERTEX
8
1
10
31.221138
20
2.998901
0
VERTEX
8
1
10
31.196503
20
2.994747
0
VERTEX
8
1
10
31.189644
20
2.988491
0
VERTEX
8
1
10
31.193497
20
2.983162
42
0.237737
0
VERTEX
8
1
10
31.228233
20
2.938271
0
VERTEX
8
1
10
31.211014
20
2.910778
0
VERTEX
8
1
10
31.158585
20
2.876251
0
VERTEX
8
1
10
31.114067
20
2.868690
0
VERTEX
8
1
10
31.076065
20
2.883217
0
VERTEX
8
1
10
31.043213
20
2.914944
42
-0.036184
0
VERTEX
8
1
10
30.935318
20
3.116302
0
VERTEX
8
1
10
30.907288
20
3.160847
0
VERTEX
8
1
10
30.876053
20
3.193306
0
VERTEX
8
1
10
30.847519
20
3.204155
42
0.171274
0
VERTEX
8
1
10
30.843040
20
3.055840
42
-0.207835
0
VERTEX
8
1
10
30.705948
20
3.143021
42
0.049211
0
VERTEX
8
1
10
30.629959
20
3.223415
0
VERTEX
8
1
10
30.603271
20
3.234947
0
VERTEX
8
1
10
30.573868
20
3.233173
0
VERTEX
8
1
10
30.540550
20
3.214703
0
VERTEX
8
1
10
30.502098
20
3.176132
0
VERTEX
8
1
10
30.487740
20
3.185711
42
0.108865
0
VERTEX
8
1
10
30.377052
20
3.364453
42
0.245711
0
VERTEX
8
1
10
30.302513
20
3.374237
0
VERTEX
8
1
10
30.272270
20
3.390060
42
-0.266319
0
VERTEX
8
1
10
30.196358
20
3.620682
0
VERTEX
8
1
10
30.204056
20
3.692585
0
VERTEX
8
1
10
30.198135
20
3.715614
42
-0.063220
0
VERTEX
8
1
10
30.019531
20
3.753487
42
-0.147011
0
VERTEX
8
1
10
29.992889
20
3.852921
42
0.048181
0
VERTEX
8
1
10
30.188408
20
3.868534
0
VERTEX
8
1
10
30.203873
20
3.902351
0
VERTEX
8
1
10
30.201195
20
3.926765
0
VERTEX
8
1
10
30.182190
20
3.939125
0
VERTEX
8
1
10
30.150551
20
3.942757
42
-0.030031
0
VERTEX
8
1
10
29.970871
20
3.936817
0
VERTEX
8
1
10
29.930984
20
3.946903
0
VERTEX
8
1
10
29.900444
20
3.968304
0
VERTEX
8
1
10
29.882904
20
4.004345
0
VERTEX
8
1
10
29.885223
20
4.020016
42
0.017420
0
VERTEX
8
1
10
29.954285
20
4.029663
0
VERTEX
8
1
10
29.949753
20
4.054928
0
VERTEX
8
1
10
29.929321
20
4.092152
0
VERTEX
8
1
10
29.904594
20
4.112812
0
VERTEX
8
1
10
29.876328
20
4.120510
42
0.048319
0
VERTEX
8
1
10
29.728552
20
4.091021
42
-0.273597
0
VERTEX
8
1
10
29.624039
20
4.136120
42
-0.033964
0
VERTEX
8
1
10
29.671783
20
4.162296
42
0.031546
0
VERTEX
8
1
10
29.650970
20
4.242106
42
0.145496
0
VERTEX
8
1
10
29.551086
20
4.242828
0
VERTEX
8
1
10
29.547966
20
4.239082
0
VERTEX
8
1
10
29.539505
20
4.197933
0
VERTEX
8
1
10
29.518478
20
4.190628
42
-0.266189
0
VERTEX
8
1
10
29.351110
20
4.265432
42
-0.132290
0
VERTEX
8
1
10
29.246292
20
4.470032
0
VERTEX
8
1
10
29.247307
20
4.490452
42
0.377316
0
VERTEX
8
1
10
29.392143
20
4.499317
42
0.340803
0
VERTEX
8
1
10
29.280296
20
4.584991
42
0.046333
0
VERTEX
8
1
10
29.188568
20
4.584305
42
-0.006640
0
VERTEX
8
1
10
29.187195
20
4.657265
0
VERTEX
8
1
10
29.190605
20
4.659363
0
VERTEX
8
1
10
29.233025
20
4.669128
42
0.098292
0
VERTEX
8
1
10
29.207520
20
4.738094
0
VERTEX
8
1
10
29.200539
20
4.742195
42
0.167075
0
VERTEX
8
1
10
29.061081
20
4.702694
0
VERTEX
8
1
10
29.048363
20
4.698406
42
-0.058374
0
VERTEX
8
1
10
28.906105
20
4.913990
0
VERTEX
8
1
10
28.960426
20
4.941151
0
VERTEX
8
1
10
28.990341
20
4.924637
42
0.101917
0
VERTEX
8
1
10
29.598541
20
4.810368
42
0.015531
0
VERTEX
8
1
10
29.696770
20
4.822090
0
VERTEX
8
1
10
29.708038
20
4.817173
42
-0.012370
0
VERTEX
8
1
10
29.827553
20
4.786724
0
SEQEND
0
POLYLINE
8
1
66
1
70
1
0
VERTEX
8
1
10
32.744751
20
4.557178
0
VERTEX
8
1
10
32.897980
20
4.378654
42
-0.037805
0
VERTEX
8
1
10
33.202225
20
3.936304
42
0.053130
0
VERTEX
8
1
10
33.455360
20
3.617554
0
VERTEX
8
1
10
33.512871
20
3.567234
42
-0.047812
0
VERTEX
8
1
10
33.797310
20
3.322807
42
0.038781
0
VERTEX
8
1
10
34.078766
20
3.017860
42
-0.057046
0
VERTEX
8
1
10
34.319252
20
2.713603
42
-0.151805
0
VERTEX
8
1
10
34.328857
20
2.633350
0
VERTEX
8
1
10
34.316589
20
2.611530
0
VERTEX
8
1
10
34.294731
20
2.592152
0
VERTEX
8
1
10
34.262253
20
2.575386
42
-0.026337
0
VERTEX
8
1
10
34.089539
20
2.533932
42
-0.197389
0
VERTEX
8
1
10
34.056160
20
2.547527
42
0.056036
0
VERTEX
8
1
10
33.679565
20
2.772091
42
-0.038970
0
VERTEX
8
1
10
33.330246
20
2.988579
42
0.053955
0
VERTEX
8
1
10
33.129787
20
3.063526
42
-0.169179
0
VERTEX
8
1
10
32.995445
20
3.178250
42
0.169878
0
VERTEX
8
1
10
32.831268
20
3.282673
42
-0.102235
0
VERTEX
8
1
10
32.614433
20
3.378498
42
0.001173
0
VERTEX
8
1
10
32.472160
20
3.515518
42
0.062526
0
VERTEX
8
1
10
32.214703
20
3.656337
42
-0.156289
0
VERTEX
8
1
10
32.017464
20
3.854706
42
0.111035
0
VERTEX
8
1
10
31.742775
20
4.154238
42
0.126202
0
VERTEX
8
1
10
31.565994
20
4.205959
0
VERTEX
8
1
10
31.518318
20
4.209530
42
-0.189917
0
VERTEX
8
1
10
31.340790
20
4.274853
42
-0.015916
0
VERTEX
8
1
10
31.262688
20
4.379589
42
0.122817
0
VERTEX
8
1
10
31.087515
20
4.485637
42
-0.045190
0
VERTEX
8
1
10
30.879890
20
4.598072
0
VERTEX
8
1
10
30.849297
20
4.623089
42
0.077900
0
VERTEX
8
1
10
30.413750
20
4.929962
0
VERTEX
8
1
10
30.377457
20
4.955181
42
0.098334
0
VERTEX
8
1
10
30.084305
20
5.255353
42
-0.003131
0
VERTEX
8
1
10
29.733131
20
5.499821
42
-0.080455
0
VERTEX
8
1
10
29.429214
20
5.818775
42
0.040639
0
VERTEX
8
1
10
29.176031
20
6.127463
42
0.053411
0
VERTEX
8
1
10
29.018425
20
6.246449
42
0.071501
0
VERTEX
8
1
10
29.231462
20
6.239709
42
0.340147
0
VERTEX
8
1
10
29.239395
20
6.262043
42
-0.507290
0
VERTEX
8
1
10
29.269875
20
6.285259
0
VERTEX
8
1
10
29.286804
20
6.278133
42
-0.137235
0
VERTEX
8
1
10
29.433990
20
6.092258
42
0.080215
0
VERTEX
8
1
10
29.512161
20
6.113495
42
-0.006376
0
VERTEX
8
1
10
29.522797
20
6.187665
42
-0.458199
0
VERTEX
8
1
10
29.623215
20
6.057789
0
VERTEX
8
1
10
29.619583
20
6.056339
0
VERTEX
8
1
10
29.575050
20
6.046299
42
0.235599
0
VERTEX
8
1
10
29.643860
20
5.971897
0
VERTEX
8
1
10
29.662735
20
5.970570
42
0.100874
0
VERTEX
8
1
10
29.769405
20
6.018615
42
-0.259753
0
VERTEX
8
1
10
29.870119
20
6.008532
42
-0.248473
0
VERTEX
8
1
10
29.923180
20
5.930645
42
-0.342432
0
VERTEX
8
1
10
29.876129
20
5.886532
0
VERTEX
8
1
10
29.849350
20
5.882259
0
VERTEX
8
1
10
29.832695
20
5.866589
42
0.283777
0
VERTEX
8
1
10
29.917530
20
5.756346
42
-0.124309
0
VERTEX
8
1
10
29.981819
20
5.698250
42
-0.206057
0
VERTEX
8
1
10
29.982109
20
5.640045
42
0.023210
0
VERTEX
8
1
10
29.881081
20
5.628956
0
VERTEX
8
1
10
29.881241
20
5.606380
0
VERTEX
8
1
10
29.886902
20
5.582767
42
0.249058
0
VERTEX
8
1
10
30.103901
20
5.409263
42
0.174711
0
VERTEX
8
1
10
30.164719
20
5.428391
42
-0.059780
0
VERTEX
8
1
10
30.315027
20
5.517159
42
-0.140345
0
VERTEX
8
1
10
30.362045
20
5.513927
0
VERTEX
8
1
10
30.379318
20
5.497940
0
VERTEX
8
1
10
30.392372
20
5.470253
0
VERTEX
8
1
10
30.400444
20
5.429134
0
VERTEX
8
1
10
30.396881
20
5.417649
42
0.002043
0
VERTEX
8
1
10
30.326653
20
5.408204
0
VERTEX
8
1
10
30.327515
20
5.402519
42
0.175539
0
VERTEX
8
1
10
30.419777
20
5.336872
0
VERTEX
8
1
10
30.433960
20
5.339050
0
VERTEX
8
1
10
30.455528
20
5.351807
42
-0.077262
0
VERTEX
8
1
10
30.624382
20
5.456810
42
-0.316463
0
VERTEX
8
1
10
30.685745
20
5.426281
0
VERTEX
8
1
10
30.699028
20
5.395355
0
VERTEX
8
1
10
30.699257
20
5.362377
42
0.189244
0
VERTEX
8
1
10
30.579811
20
5.266026
42
0.357286
0
VERTEX
8
1
10
30.604309
20
5.189503
42
0.264028
0
VERTEX
8
1
10
30.742279
20
5.163357
42
-0.141181
0
VERTEX
8
1
10
30.830471
20
5.166445
42
-0.236033
0
VERTEX
8
1
10
30.858727
20
5.129166
0
VERTEX
8
1
10
30.864456
20
5.100147
0
VERTEX
8
1
10
30.866043
20
5.061302
42
0.071153
0
VERTEX
8
1
10
30.707092
20
5.023214
42
0.173520
0
VERTEX
8
1
10
30.682480
20
4.989441
0
VERTEX
8
1
10
30.687553
20
4.974258
42
0.172006
0
VERTEX
8
1
10
30.792603
20
4.922474
42
0.025090
0
VERTEX
8
1
10
30.903015
20
4.905972
42
-0.372111
0
VERTEX
8
1
10
30.898582
20
4.862659
0
VERTEX
8
1
10
30.855522
20
4.852932
0
VERTEX
8
1
10
30.855484
20
4.841347
0
VERTEX
8
1
10
30.869728
20
4.813957
0
VERTEX
8
1
10
30.895485
20
4.785236
42
0.135651
0
VERTEX
8
1
10
31.156265
20
4.659039
0
VERTEX
8
1
10
31.194908
20
4.658035
0
VERTEX
8
1
10
31.225723
20
4.666279
0
VERTEX
8
1
10
31.246315
20
4.685097
0
VERTEX
8
1
10
31.254257
20
4.715805
0
VERTEX
8
1
10
31.253349
20
4.753822
0
VERTEX
8
1
10
31.264458
20
4.776272
42
-0.613523
0
VERTEX
8
1
10
31.356071
20
4.783978
42
-0.172064
0
VERTEX
8
1
10
31.397530
20
4.694057
0
VERTEX
8
1
10
31.378693
20
4.649815
0
VERTEX
8
1
10
31.376083
20
4.615665
0
VERTEX
8
1
10
31.387306
20
4.590336
0
VERTEX
8
1
10
31.409958
20
4.572582
42
0.121366
0
VERTEX
8
1
10
31.604095
20
4.554000
42
-0.025574
0
VERTEX
8
1
10
31.715439
20
4.552094
0
VERTEX
8
1
10
31.733246
20
4.545849
42
-0.251654
0
VERTEX
8
1
10
31.665503
20
4.421877
42
-0.133187
0
VERTEX
8
1
10
31.616615
20
4.414322
42
0.370434
0
VERTEX
8
1
10
31.670525
20
4.320038
0
VERTEX
8
1
10
31.694176
20
4.311287
42
0.091594
0
VERTEX
8
1
10
31.900574
20
4.309105
42
-0.046078
0
VERTEX
8
1
10
31.911682
20
4.352898
0
VERTEX
8
1
10
31.952667
20
4.362537
0
VERTEX
8
1
10
31.955444
20
4.364014
42
0.018993
0
VERTEX
8
1
10
31.964577
20
4.405384
0
VERTEX
8
1
10
31.968567
20
4.409417
42
-0.193848
0
VERTEX
8
1
10
32.045448
20
4.405609
42
-0.257246
0
VERTEX
8
1
10
32.058983
20
4.330307
42
0.047357
0
VERTEX
8
1
10
32.043800
20
4.209801
42
0.305631
0
VERTEX
8
1
10
32.139507
20
4.125843
42
0.020593
0
VERTEX
8
1
10
32.246555
20
4.099504
42
-0.288622
0
VERTEX
8
1
10
32.291313
20
4.040962
0
VERTEX
8
1
10
32.290329
20
4.010441
0
VERTEX
8
1
10
32.279678
20
3.999699
42
-0.020724
0
VERTEX
8
1
10
32.164177
20
3.964020
0
VERTEX
8
1
10
32.159882
20
3.948830
0
VERTEX
8
1
10
32.166389
20
3.924061
0
VERTEX
8
1
10
32.178635
20
3.899906
42
0.207126
0
VERTEX
8
1
10
32.464531
20
3.745468
42
0.090240
0
VERTEX
8
1
10
32.571686
20
3.790092
0
VERTEX
8
1
10
32.586975
20
3.796772
42
-0.752745
0
VERTEX
8
1
10
32.671680
20
3.715101
42
-0.138027
0
VERTEX
8
1
10
32.623482
20
3.644394
0
VERTEX
8
1
10
32.615685
20
3.633167
0
VERTEX
8
1
10
32.646164
20
3.603916
42
0.137216
0
VERTEX
8
1
10
32.818947
20
3.495331
42
0.077526
0
VERTEX
8
1
10
32.980270
20
3.492123
0
VERTEX
8
1
10
32.984558
20
3.475067
42
0.085240
0
VERTEX
8
1
10
32.989994
20
3.302527
42
0.334644
0
VERTEX
8
1
10
33.090561
20
3.244385
42
0.310185
0
VERTEX
8
1
10
33.179371
20
3.309000
42
-0.077132
0
VERTEX
8
1
10
33.228378
20
3.373860
42
-0.225583
0
VERTEX
8
1
10
33.260536
20
3.374607
0
VERTEX
8
1
10
33.281044
20
3.361507
0
VERTEX
8
1
10
33.305504
20
3.337315
0
VERTEX
8
1
10
33.303825
20
3.295307
0
VERTEX
8
1
10
33.297882
20
3.247124
0
VERTEX
8
1
10
33.311249
20
3.200794
0
VERTEX
8
1
10
33.339890
20
3.157619
42
0.174521
0
VERTEX
8
1
10
33.570328
20
3.034435
0
VERTEX
8
1
10
33.605484
20
3.037415
0
VERTEX
8
1
10
33.627563
20
3.052631
0
VERTEX
8
1
10
33.632484
20
3.081375
0
VERTEX
8
1
10
33.616211
20
3.124947
0
VERTEX
8
1
10
33.587166
20
3.158633
42
-0.275851
0
VERTEX
8
1
10
33.504387
20
3.196575
42
-0.286270
0
VERTEX
8
1
10
33.524391
20
3.269844
42
0.020398
0
VERTEX
8
1
10
33.591354
20
3.252270
0
VERTEX
8
1
10
33.595245
20
3.255169
0
VERTEX
8
1
10
33.587021
20
3.316013
42
0.196098
0
VERTEX
8
1
10
33.478703
20
3.449645
42
0.076346
0
VERTEX
8
1
10
33.280323
20
3.539634
42
-0.045418
0
VERTEX
8
1
10
33.102013
20
3.627235
0
VERTEX
8
1
10
33.057823
20
3.663754
0
VERTEX
8
1
10
33.022530
20
3.707638
0
VERTEX
8
1
10
33.023453
20
3.713287
42
0.057881
0
VERTEX
8
1
10
33.070656
20
3.733807
42
0.024129
0
VERTEX
8
1
10
33.146935
20
3.695286
0
VERTEX
8
1
10
33.150215
20
3.705898
42
0.399824
0
VERTEX
8
1
10
32.985329
20
3.872749
42
0.004670
0
VERTEX
8
1
10
32.939301
20
3.861633
0
VERTEX
8
1
10
32.937950
20
3.863579
42
-0.167184
0
VERTEX
8
1
10
32.961868
20
3.956558
42
0.219065
0
VERTEX
8
1
10
32.818024
20
4.261433
42
0.169988
0
VERTEX
8
1
10
32.751411
20
4.221008
0
VERTEX
8
1
10
32.756897
20
4.211021
42
-0.176949
0
VERTEX
8
1
10
32.817352
20
4.063133
0
VERTEX
8
1
10
32.804642
20
4.054325
42
-0.246749
0
VERTEX
8
1
10
32.605431
20
4.138978
42
-0.027808
0
VERTEX
8
1
10
32.575546
20
4.172104
42
-0.049665
0
VERTEX
8
1
10
32.577507
20
4.239849
42
0.223518
0
VERTEX
8
1
10
32.598183
20
4.291279
42
0.069880
0
VERTEX
8
1
10
32.651039
20
4.278095
42
0.071553
0
VERTEX
8
1
10
32.611679
20
4.375126
42
-0.071503
0
VERTEX
8
1
10
32.601189
20
4.498508
42
0.233206
0
VERTEX
8
1
10
32.449005
20
4.629467
0
VERTEX
8
1
10
32.437782
20
4.628048
0
VERTEX
8
1
10
32.436153
20
4.619474
42
-0.000057
0
VERTEX
8
1
10
32.396622
20
4.528736
42
-0.532168
0
VERTEX
8
1
10
32.270393
20
4.630997
42
0.018320
0
VERTEX
8
1
10
32.317055
20
4.640900
0
VERTEX
8
1
10
32.314178
20
4.669022
42
0.159980
0
VERTEX
8
1
10
32.080326
20
5.007958
42
0.148241
0
VERTEX
8
1
10
31.981712
20
5.036911
0
VERTEX
8
1
10
31.947571
20
5.025360
0
VERTEX
8
1
10
31.937447
20
5.016720
42
0.020871
0
VERTEX
8
1
10
31.928345
20
4.975410
42
-0.090356
0
VERTEX
8
1
10
31.793671
20
4.996734
42
0.036037
0
VERTEX
8
1
10
31.743622
20
5.002270
42
-0.092884
0
VERTEX
8
1
10
31.716812
20
5.074051
42
-0.169081
0
VERTEX
8
1
10
31.845436
20
5.114738
0
VERTEX
8
1
10
31.830544
20
5.166405
42
0.258405
0
VERTEX
8
1
10
31.712967
20
5.265240
42
0.038820
0
VERTEX
8
1
10
31.530159
20
5.282103
42
-0.157134
0
VERTEX
8
1
10
31.412720
20
5.333279
0
VERTEX
8
1
10
31.413078
20
5.339245
42
-0.067235
0
VERTEX
8
1
10
31.475571
20
5.384174
42
0.141746
0
VERTEX
8
1
10
31.347206
20
5.462685
42
0.506777
0
VERTEX
8
1
10
31.248859
20
5.328985
42
0.016821
0
VERTEX
8
1
10
31.258652
20
5.277912
42
-0.078144
0
VERTEX
8
1
10
31.136978
20
5.303692
0
VERTEX
8
1
10
31.130592
20
5.312999
42
0.005048
0
VERTEX
8
1
10
31.128981
20
5.499028
42
0.263528
0
VERTEX
8
1
10
31.062096
20
5.574566
0
VERTEX
8
1
10
31.028954
20
5.586235
0
VERTEX
8
1
10
30.987862
20
5.595089
0
VERTEX
8
1
10
30.951561
20
5.573099
42
-0.080686
0
VERTEX
8
1
10
30.801044
20
5.512468
42
-0.399225
0
VERTEX
8
1
10
30.745163
20
5.555180
0
VERTEX
8
1
10
30.743080
20
5.586800
0
VERTEX
8
1
10
30.748726
20
5.629303
0
VERTEX
8
1
10
30.761581
20
5.636761
42
0.028251
0
VERTEX
8
1
10
30.828621
20
5.653111
42
-0.127484
0
VERTEX
8
1
10
30.868126
20
5.641220
0
VERTEX
8
1
10
30.871063
20
5.647808
42
0.313304
0
VERTEX
8
1
10
30.735100
20
5.766640
42
-0.025981
0
VERTEX
8
1
10
30.633469
20
5.788113
0
VERTEX
8
1
10
30.619545
20
5.787094
42
-0.534540
0
VERTEX
8
1
10
30.481590
20
5.923874
42
-0.226121
0
VERTEX
8
1
10
30.529663
20
5.971500
42
-0.155327
0
VERTEX
8
1
10
30.592049
20
5.951874
0
VERTEX
8
1
10
30.628250
20
5.931221
42
0.229865
0
VERTEX
8
1
10
30.743385
20
5.908310
0
VERTEX
8
1
10
30.710518
20
5.913406
42
-0.030772
0
VERTEX
8
1
10
30.752680
20
5.912791
42
-0.014314
0
VERTEX
8
1
10
30.743896
20
5.908226
0
VERTEX
8
1
10
30.854088
20
5.891136
42
0.012850
0
VERTEX
8
1
10
31.498474
20
5.576898
42
-0.038860
0
VERTEX
8
1
10
32.036346
20
5.263165
0
VERTEX
8
1
10
32.130066
20
5.191395
42
-0.041937
0
SEQEND
0
POLYLINE
8
1
66
1
70
1
0
VERTEX
8
1
10
32.953659
20
5.532127
0
VERTEX
8
1
10
32.998154
20
5.544727
42
-0.142908
0
VERTEX
8
1
10
33.161209
20
5.557449
42
-0.017037
0
VERTEX
8
1
10
33.833004
20
5.758977
42
0.057515
0
VERTEX
8
1
10
34.294228
20
5.956264
42
0.039000
0
VERTEX
8
1
10
34.356598
20
5.965046
0
VERTEX
8
1
10
34.359787
20
5.973003
42
-0.308648
0
VERTEX
8
1
10
34.347557
20
5.950776
42
-0.020659
0
VERTEX
8
1
10
34.318993
20
5.902985
0
VERTEX
8
1
10
34.298515
20
5.881260
42
-0.074268
0
VERTEX
8
1
10
34.057281
20
5.736900
0
VERTEX
8
1
10
33.998367
20
5.709858
42
-0.047079
0
VERTEX
8
1
10
33.268036
20
5.413773
42
-0.044148
0
VERTEX
8
1
10
32.671333
20
5.265675
42
-0.089361
0
VERTEX
8
1
10
32.347534
20
5.281601
0
VERTEX
8
1
10
32.312241
20
5.286266
42
-0.249372
0
VERTEX
8
1
10
32.200523
20
5.308428
42
0.101022
0
VERTEX
8
1
10
32.126373
20
5.330715
0
VERTEX
8
1
10
31.988396
20
5.441093
42
0.089304
0
VERTEX
8
1
10
32.319069
20
5.456978
42
-0.033291
0
VERTEX
8
1
10
32.703190
20
5.518863
42
-0.047450
0
VERTEX
8
1
10
32.840034
20
5.510773
42
0.078153
0
SEQEND
0
POLYLINE
8
1
66
1
70
1
0
VERTEX
8
1
10
34.022354
20
5.570138
42
-0.022669
0
VERTEX
8
1
10
34.602180
20
5.794865
42
0.056065
0
VERTEX
8
1
10
35.370575
20
6.195744
0
VERTEX
8
1
10
35.365128
20
6.181557
42
-0.082651
0
VERTEX
8
1
10
34.919014
20
5.829132
42
-0.008654
0
VERTEX
8
1
10
34.264294
20
5.475980
42
-0.091294
0
VERTEX
8
1
10
33.619957
20
5.299877
42
-0.052085
0
VERTEX
8
1
10
33.388870
20
5.313114
0
VERTEX
8
1
10
33.450958
20
5.354511
42
0.030226
0
SEQEND
0
POLYLINE
8
1
66
1
70
1
0
VERTEX
8
1
10
33.421181
20
5.861309
0
VERTEX
8
1
10
33.354172
20
5.840904
42
-0.054708
0
VERTEX
8
1
10
32.956696
20
5.740610
42
0.079612
0
VERTEX
8
1
10
32.704659
20
5.650089
0
VERTEX
8
1
10
32.683380
20
5.642372
0
VERTEX
8
1
10
32.665771
20
5.645432
42
0.076342
0
VERTEX
8
1
10
32.266144
20
5.592335
42
-0.013754
0
VERTEX
8
1
10
31.882690
20
5.574994
42
-0.089852
0
VERTEX
8
1
10
31.709053
20
5.608201
42
-0.164708
0
VERTEX
8
1
10
31.654701
20
5.663658
0
VERTEX
8
1
10
31.571617
20
5.746738
42
0.182084
0
VERTEX
8
1
10
31.671989
20
5.720657
0
VERTEX
8
1
10
31.710327
20
5.720863
42
0.026744
0
VERTEX
8
1
10
32.116966
20
5.772316
42
-0.028932
0
VERTEX
8
1
10
32.721672
20
5.803024
42
0.058623
0
VERTEX
8
1
10
33.008125
20
5.854385
42
-0.025528
0
VERTEX
8
1
10
33.510536
20
5.971364
42
0.030659
0
VERTEX
8
1
10
33.739449
20
6.039829
42
0.008581
0
VERTEX
8
1
10
33.753654
20
6.025528
42
-0.115043
0
VERTEX
8
1
10
33.455284
20
5.871964
0
SEQEND
0
POLYLINE
8
1
66
1
70
1
0
VERTEX
8
1
10
36.267097
20
5.911224
42
-0.043733
0
VERTEX
8
1
10
36.655579
20
6.350072
42
-0.100112
0
VERTEX
8
1
10
36.849350
20
6.458323
42
-0.242296
0
VERTEX
8
1
10
37.001343
20
6.415440
0
VERTEX
8
1
10
37.046730
20
6.353325
0
VERTEX
8
1
10
37.059731
20
6.283817
0
VERTEX
8
1
10
37.039307
20
6.212193
0
VERTEX
8
1
10
36.989220
20
6.139103
0
VERTEX
8
1
10
36.913208
20
6.065197
0
VERTEX
8
1
10
36.815048
20
5.991119
42
-0.052449
0
VERTEX
8
1
10
36.111301
20
5.637652
42
-0.014794
0
VERTEX
8
1
10
35.276489
20
5.325005
42
-0.049712
0
VERTEX
8
1
10
34.573204
20
5.108645
42
0.007913
0
VERTEX
8
1
10
33.648392
20
4.896867
42
-0.041430
0
VERTEX
8
1
10
32.974934
20
4.806147
42
-0.049047
0
VERTEX
8
1
10
32.825012
20
4.823185
42
-0.363623
0
VERTEX
8
1
10
32.781528
20
4.817046
42
0.308643
0
VERTEX
8
1
10
32.734764
20
4.814341
0
VERTEX
8
1
10
32.726212
20
4.810228
0
VERTEX
8
1
10
32.717552
20
4.806343
42
0.081696
0
VERTEX
8
1
10
32.516075
20
4.941204
0
VERTEX
8
1
10
32.571404
20
5.079528
42
-0.158042
0
VERTEX
8
1
10
32.695572
20
5.056126
42
0.311284
0
VERTEX
8
1
10
32.961433
20
5.073078
42
-0.145327
0
VERTEX
8
1
10
33.155640
20
5.144417
42
-0.034596
0
VERTEX
8
1
10
33.463303
20
5.148952
42
0.049729
0
VERTEX
8
1
10
33.758751
20
5.179340
42
0.029729
0
VERTEX
8
1
10
34.810730
20
5.382046
0
VERTEX
8
1
10
34.983952
20
5.422941
0
VERTEX
8
1
10
35.157082
20
5.464218
42
0.017810
0
VERTEX
8
1
10
35.671867
20
5.642543
42
0.001332
0
VERTEX
8
1
10
36.027088
20
5.729959
42
0.079466
0
VERTEX
8
1
10
36.175018
20
5.806309
42
0.039489
0
SEQEND
0
POLYLINE
8
1
66
1
70
1
0
VERTEX
8
1
10
39.965080
20
9.878029
42
0.052026
0
VERTEX
8
1
10
39.673416
20
9.543034
42
-0.016080
0
VERTEX
8
1
10
39.261353
20
9.080940
42
0.074752
0
VERTEX
8
1
10
39.010956
20
8.683900
42
0.017794
0
VERTEX
8
1
10
38.741142
20
8.110569
42
-0.180095
0
VERTEX
8
1
10
38.462311
20
7.846001
0
VERTEX
8
1
10
38.416344
20
7.825314
42
0.092008
0
VERTEX
8
1
10
38.020790
20
7.584488
42
0.148765
0
VERTEX
8
1
10
37.918976
20
7.408658
42
-0.084720
0
VERTEX
8
1
10
37.853889
20
7.289326
42
-0.176607
0
VERTEX
8
1
10
37.703957
20
7.232952
42
0.009095
0
VERTEX
8
1
10
37.340328
20
7.188133
42
0.093107
0
VERTEX
8
1
10
37.224754
20
7.139370
42
0.151775
0
VERTEX
8
1
10
37.167873
20
6.999857
42
-0.264383
0
VERTEX
8
1
10
37.059723
20
6.884209
0
VERTEX
8
1
10
37.023460
20
6.871658
42
-0.041825
0
VERTEX
8
1
10
36.674988
20
6.821208
42
0.050185
0
VERTEX
8
1
10
36.518074
20
6.783604
0
VERTEX
8
1
10
36.494118
20
6.786030
0
VERTEX
8
1
10
36.469925
20
6.794628
42
0.108649
0
VERTEX
8
1
10
36.004395
20
6.790897
42
0.050552
0
VERTEX
8
1
10
35.866196
20
6.704689
42
-0.141367
0
VERTEX
8
1
10
35.609695
20
6.635406
42
-0.034040
0
VERTEX
8
1
10
35.187660
20
6.663759
42
0.051585
0
VERTEX
8
1
10
34.956291
20
6.654371
42
-0.084168
0
VERTEX
8
1
10
34.746857
20
6.673698
0
VERTEX
8
1
10
34.721870
20
6.684471
42
-0.006283
0
VERTEX
8
1
10
34.475498
20
6.689187
42
0.165709
0
VERTEX
8
1
10
34.380829
20
6.654737
42
0.240470
0
VERTEX
8
1
10
34.370872
20
6.606068
0
VERTEX
8
1
10
34.381912
20
6.572842
0
VERTEX
8
1
10
34.391785
20
6.550930
42
-0.006188
0
VERTEX
8
1
10
34.369568
20
6.501625
42
0.051561
0
VERTEX
8
1
10
34.111679
20
6.472339
42
-0.105001
0
VERTEX
8
1
10
33.825493
20
6.499168
42
0.064394
0
VERTEX
8
1
10
33.687744
20
6.507328
42
0.128020
0
VERTEX
8
1
10
33.507423
20
6.401958
42
-0.071345
0
VERTEX
8
1
10
33.309799
20
6.272041
42
-0.084639
0
VERTEX
8
1
10
33.118637
20
6.241196
42
-0.051703
0
VERTEX
8
1
10
32.474304
20
6.282928
42
0.007099
0
VERTEX
8
1
10
32.181862
20
6.368878
42
0.116948
0
VERTEX
8
1
10
32.026237
20
6.362232
0
VERTEX
8
1
10
31.995522
20
6.347237
0
VERTEX
8
1
10
31.967461
20
6.325661
0
VERTEX
8
1
10
31.985847
20
6.298149
42
-0.200906
0
VERTEX
8
1
10
32.018921
20
6.226376
42
-0.345422
0
VERTEX
8
1
10
31.978622
20
6.204597
0
VERTEX
8
1
10
31.961342
20
6.204739
42
-0.057710
0
VERTEX
8
1
10
31.630106
20
6.302271
42
0.146011
0
VERTEX
8
1
10
31.235355
20
6.319373
42
-0.017286
0
VERTEX
8
1
10
31.056999
20
6.290424
42
-0.146037
0
VERTEX
8
1
10
30.934486
20
6.331001
42
0.039130
0
VERTEX
8
1
10
30.438782
20
6.580875
42
0.094523
0
VERTEX
8
1
10
29.713036
20
6.695240
42
0.087239
0
VERTEX
8
1
10
29.543648
20
6.651058
42
-0.613355
0
VERTEX
8
1
10
29.520813
20
6.640030
42
0.316884
0
VERTEX
8
1
10
29.543951
20
6.661676
0
VERTEX
8
1
10
29.543686
20
6.663609
0
VERTEX
8
1
10
29.508133
20
6.711014
0
VERTEX
8
1
10
29.506866
20
6.711178
42
0.012862
0
VERTEX
8
1
10
29.437630
20
6.695557
42
0.047365
0
VERTEX
8
1
10
29.460625
20
6.774342
0
VERTEX
8
1
10
29.507401
20
6.711994
0
VERTEX
8
1
10
29.514420
20
6.712681
42
-0.075974
0
VERTEX
8
1
10
30.270657
20
6.723675
42
-0.010992
0
VERTEX
8
1
10
30.576027
20
6.684155
42
0.005286
0
VERTEX
8
1
10
31.047432
20
6.656889
42
0.000302
0
VERTEX
8
1
10
31.464930
20
6.594159
42
0.156469
0
VERTEX
8
1
10
31.712204
20
6.650261
42
-0.070985
0
VERTEX
8
1
10
31.919909
20
6.736333
42
-0.179233
0
VERTEX
8
1
10
32.191677
20
6.679944
42
0.040107
0
VERTEX
8
1
10
32.368370
20
6.611416
42
0.073374
0
VERTEX
8
1
10
32.553329
20
6.603451
42
0.099480
0
VERTEX
8
1
10
33.472874
20
6.802793
0
VERTEX
8
1
10
33.506577
20
6.819822
0
VERTEX
8
1
10
33.539665
20
6.838013
42
0.004956
0
VERTEX
8
1
10
33.548203
20
6.879562
42
0.099092
0
VERTEX
8
1
10
33.732079
20
6.943295
0
VERTEX
8
1
10
33.784401
20
6.969421
42
-0.113082
0
VERTEX
8
1
10
34.024635
20
7.039913
42
-0.034573
0
VERTEX
8
1
10
34.476517
20
7.049976
42
-0.072242
0
VERTEX
8
1
10
35.062557
20
6.891525
42
0.031413
0
VERTEX
8
1
10
35.277283
20
6.822286
42
0.373106
0
VERTEX
8
1
10
35.346054
20
6.858444
42
-0.265802
0
VERTEX
8
1
10
35.555130
20
7.003281
42
-0.046321
0
VERTEX
8
1
10
35.934425
20
7.014194
42
-0.028042
0
VERTEX
8
1
10
36.303944
20
6.942420
42
0.086494
0
VERTEX
8
1
10
36.599583
20
6.932795
42
0.167790
0
VERTEX
8
1
10
36.813942
20
7.058928
42
-0.000497
0
VERTEX
8
1
10
36.984344
20
7.258667
42
-0.228911
0
VERTEX
8
1
10
37.388046
20
7.402792
42
0.040791
0
VERTEX
8
1
10
37.592331
20
7.418930
42
0.174672
0
VERTEX
8
1
10
37.753754
20
7.537163
42
-0.010349
0
VERTEX
8
1
10
37.871078
20
7.704487
42
-0.106783
0
VERTEX
8
1
10
38.074875
20
7.844971
42
0.042937
0
VERTEX
8
1
10
38.418076
20
8.006566
42
0.123092
0
VERTEX
8
1
10
38.667362
20
8.284559
42
0.045558
0
VERTEX
8
1
10
38.866055
20
8.709395
42
-0.025845
0
VERTEX
8
1
10
39.013695
20
9.020096
0
VERTEX
8
1
10
39.054237
20
9.084442
42
-0.061428
0
VERTEX
8
1
10
39.470940
20
9.534794
42
0.010775
0
VERTEX
8
1
10
39.829231
20
9.861210
42
-0.151405
0
VERTEX
8
1
10
40.032108
20
9.946177
0
VERTEX
8
1
10
40.038689
20
9.949497
42
-0.003313
0
SEQEND
0
POLYLINE
8
1
66
1
70
1
0
VERTEX
8
1
10
41.240517
20
9.785622
42
-0.281999
0
VERTEX
8
1
10
41.215065
20
9.879719
42
0.089349
0
VERTEX
8
1
10
41.426250
20
9.889322
42
-0.031672
0
VERTEX
8
1
10
41.528503
20
9.895134
0
VERTEX
8
1
10
41.560135
20
9.887802
0
VERTEX
8
1
10
41.580696
20
9.871017
0
VERTEX
8
1
10
41.587646
20
9.842369
0
VERTEX
8
1
10
41.578453
20
9.799442
42
-0.214119
0
VERTEX
8
1
10
41.413712
20
9.623169
42
0.116878
0
VERTEX
8
1
10
41.304520
20
9.531178
42
0.138910
0
VERTEX
8
1
10
41.286301
20
9.456814
0
VERTEX
8
1
10
41.281487
20
9.418690
0
VERTEX
8
1
10
41.236900
20
9.416645
42
0.166372
0
VERTEX
8
1
10
41.073479
20
9.293700
42
-0.078745
0
VERTEX
8
1
10
40.965080
20
9.203854
0
VERTEX
8
1
10
40.931190
20
9.195900
0
VERTEX
8
1
10
40.894974
20
9.201691
0
VERTEX
8
1
10
40.867180
20
9.213882
42
-0.170819
0
VERTEX
8
1
10
40.825111
20
9.205742
0
VERTEX
8
1
10
40.812332
20
9.201649
42
0.134800
0
VERTEX
8
1
10
40.721176
20
9.093212
42
-0.200758
0
VERTEX
8
1
10
40.567787
20
9.002838
42
-0.058133
0
VERTEX
8
1
10
40.429947
20
8.975967
42
0.193067
0
VERTEX
8
1
10
40.275040
20
8.866382
42
-0.026009
0
VERTEX
8
1
10
40.226181
20
8.813766
0
VERTEX
8
1
10
40.207550
20
8.819839
0
VERTEX
8
1
10
40.181816
20
8.892719
0
VERTEX
8
1
10
40.182083
20
8.972752
0
VERTEX
8
1
10
40.202469
20
9.058407
42
-0.038380
0
VERTEX
8
1
10
40.325577
20
9.333561
0
VERTEX
8
1
10
40.367645
20
9.426186
0
VERTEX
8
1
10
40.400444
20
9.516682
0
VERTEX
8
1
10
40.418083
20
9.603504
0
VERTEX
8
1
10
40.414673
20
9.685104
0
VERTEX
8
1
10
40.384346
20
9.759930
0
VERTEX
8
1
10
40.349564
20
9.802299
0
VERTEX
8
1
10
40.404716
20
9.802296
42
-0.138473
0
VERTEX
8
1
10
40.505955
20
9.736416
42
-0.230589
0
VERTEX
8
1
10
40.519081
20
9.640739
42
-0.010301
0
VERTEX
8
1
10
40.466171
20
9.482960
0
VERTEX
8
1
10
40.469673
20
9.474350
42
0.013783
0
VERTEX
8
1
10
40.568062
20
9.463238
42
-0.394291
0
VERTEX
8
1
10
40.436958
20
9.352055
42
0.226489
0
VERTEX
8
1
10
40.439331
20
9.166431
42
0.055975
0
VERTEX
8
1
10
40.508621
20
9.194473
0
VERTEX
8
1
10
40.511505
20
9.207352
42
-0.201427
0
VERTEX
8
1
10
40.578999
20
9.365670
42
-0.303416
0
VERTEX
8
1
10
40.687965
20
9.371975
0
VERTEX
8
1
10
40.694214
20
9.358894
42
0.225743
0
VERTEX
8
1
10
40.666264
20
9.277265
42
-0.049055
0
VERTEX
8
1
10
40.660240
20
9.253819
0
VERTEX
8
1
10
40.679512
20
9.251858
42
0.144596
0
VERTEX
8
1
10
40.904198
20
9.348618
0
VERTEX
8
1
10
40.926224
20
9.364357
42
-0.243053
0
VERTEX
8
1
10
40.882843
20
9.475193
42
-0.349974
0
VERTEX
8
1
10
40.955711
20
9.520439
42
0.040868
0
VERTEX
8
1
10
40.964149
20
9.449684
0
VERTEX
8
1
10
40.969711
20
9.443778
42
0.501658
0
VERTEX
8
1
10
41.113739
20
9.530937
42
0.037413
0
VERTEX
8
1
10
41.096161
20
9.601498
42
-0.040309
0
VERTEX
8
1
10
41.026772
20
9.633820
42
-0.393979
0
VERTEX
8
1
10
41.121307
20
9.714851
42
-0.006469
0
VERTEX
8
1
10
41.132797
20
9.667671
42
0.024035
0
VERTEX
8
1
10
41.216301
20
9.649990
42
0.216624
0
VERTEX
8
1
10
41.342590
20
9.741959
42
0.190208
0
VERTEX
8
1
10
41.341499
20
9.796791
42
-0.011832
0
VERTEX
8
1
10
41.256775
20
9.784351
0
VERTEX
8
1
10
41.248238
20
9.780373
0
SEQEND
0
POLYLINE
8
1
66
1
70
1
0
VERTEX
8
1
10
43.521042
20
10.604500
0
VERTEX
8
1
10
43.559372
20
10.580624
42
-0.168055
0
VERTEX
8
1
10
43.353203
20
10.464596
42
0.050647
0
VERTEX
8
1
10
43.122925
20
10.399242
42
0.048849
0
VERTEX
8
1
10
42.914616
20
10.250379
42
-0.092062
0
VERTEX
8
1
10
42.758507
20
10.179913
42
-0.011028
0
VERTEX
8
1
10
42.489151
20
10.075642
42
-0.100807
0
VERTEX
8
1
10
42.237221
20
10.057796
42
0.184218
0
VERTEX
8
1
10
42.048527
20
9.954931
42
-0.125934
0
VERTEX
8
1
10
41.960480
20
9.913460
0
VERTEX
8
1
10
41.932976
20
9.968460
42
0.194382
0
VERTEX
8
1
10
41.916763
20
9.940163
42
-0.375884
0
VERTEX
8
1
10
41.905464
20
9.970032
42
0.047970
0
VERTEX
8
1
10
42.087029
20
10.051907
0
VERTEX
8
1
10
42.093956
20
10.059551
42
0.102595
0
VERTEX
8
1
10
42.059189
20
10.131962
0
VERTEX
8
1
10
42.067314
20
10.145157
42
-0.149043
0
VERTEX
8
1
10
42.227470
20
10.172607
42
0.044869
0
VERTEX
8
1
10
42.439495
20
10.168450
42
0.122366
0
VERTEX
8
1
10
42.496582
20
10.197536
0
VERTEX
8
1
10
42.509445
20
10.224113
0
VERTEX
8
1
10
42.508850
20
10.242481
42
-0.004976
0
VERTEX
8
1
10
42.439354
20
10.280613
0
VERTEX
8
1
10
42.452011
20
10.300472
42
-0.254563
0
VERTEX
8
1
10
42.547157
20
10.330594
42
-0.080038
0
VERTEX
8
1
10
42.684998
20
10.296497
42
0.078033
0
VERTEX
8
1
10
42.806648
20
10.272255
0
VERTEX
8
1
10
42.841187
20
10.279667
0
VERTEX
8
1
10
42.871040
20
10.299519
0
VERTEX
8
1
10
42.895180
20
10.334633
0
VERTEX
8
1
10
42.893234
20
10.351776
42
-0.285492
0
VERTEX
8
1
10
42.745285
20
10.402542
0
VERTEX
8
1
10
42.759468
20
10.418079
42
-0.115425
0
VERTEX
8
1
10
42.906349
20
10.441177
42
0.063208
0
VERTEX
8
1
10
43.081936
20
10.453974
42
0.298540
0
VERTEX
8
1
10
43.150841
20
10.536449
0
VERTEX
8
1
10
43.147339
20
10.548054
42
0.015130
0
VERTEX
8
1
10
43.076347
20
10.556992
42
-0.227378
0
VERTEX
8
1
10
43.102333
20
10.625778
0
VERTEX
8
1
10
43.119896
20
10.629562
42
-0.077709
0
VERTEX
8
1
10
43.242310
20
10.576143
42
0.141517
0
VERTEX
8
1
10
43.318802
20
10.569572
0
VERTEX
8
1
10
43.341530
20
10.583599
0
VERTEX
8
1
10
43.343239
20
10.588994
42
0.000803
0
VERTEX
8
1
10
43.304527
20
10.635951
42
-0.295887
0
VERTEX
8
1
10
43.478081
20
10.629360
42
-0.022168
0
SEQEND
0
POLYLINE
8
1
66
1
70
1
0
VERTEX
8
1
10
43.250435
20
11.050808
0
VERTEX
8
1
10
43.368721
20
11.053211
42
-0.030915
0
VERTEX
8
1
10
43.996952
20
11.057492
42
-0.070270
0
VERTEX
8
1
10
44.213844
20
11.000957
0
VERTEX
8
1
10
44.261131
20
10.970070
0
VERTEX
8
1
10
44.293617
20
10.931419
0
VERTEX
8
1
10
44.308952
20
10.884304
42
0.102681
0
VERTEX
8
1
10
43.907791
20
10.935650
42
-0.009787
0
VERTEX
8
1
10
43.956184
20
10.864823
42
-0.263255
0
VERTEX
8
1
10
43.827919
20
10.849941
42
-0.027579
0
VERTEX
8
1
10
43.648323
20
10.930264
0
VERTEX
8
1
10
43.613441
20
10.942554
42
0.373908
0
VERTEX
8
1
10
43.463974
20
10.891808
42
-0.043214
0
VERTEX
8
1
10
43.558876
20
10.854515
0
VERTEX
8
1
10
43.566643
20
10.853104
42
-0.116561
0
VERTEX
8
1
10
43.567299
20
10.778617
42
-0.192108
0
VERTEX
8
1
10
43.415276
20
10.808552
42
0.082079
0
VERTEX
8
1
10
43.276012
20
10.872757
42
0.147962
0
VERTEX
8
1
10
43.230553
20
10.862495
0
VERTEX
8
1
10
43.204636
20
10.875507
42
0.196739
0
VERTEX
8
1
10
42.896748
20
10.842931
42
0.420887
0
VERTEX
8
1
10
42.884705
20
10.758713
0
VERTEX
8
1
10
42.912430
20
10.729313
0
VERTEX
8
1
10
42.957008
20
10.697360
42
-0.319075
0
VERTEX
8
1
10
42.832199
20
10.689625
0
VERTEX
8
1
10
42.815331
20
10.698135
0
VERTEX
8
1
10
42.780701
20
10.716725
42
0.225903
0
VERTEX
8
1
10
42.580803
20
10.729884
42
0.243995
0
VERTEX
8
1
10
42.553963
20
10.681049
42
-0.044707
0
VERTEX
8
1
10
42.535446
20
10.595039
0
VERTEX
8
1
10
42.536621
20
10.589916
42
-0.074009
0
VERTEX
8
1
10
42.565895
20
10.544350
42
-0.607023
0
VERTEX
8
1
10
42.460121
20
10.509048
42
0.162798
0
VERTEX
8
1
10
42.356857
20
10.554699
0
VERTEX
8
1
10
42.317635
20
10.564171
42
0.200656
0
VERTEX
8
1
10
42.103569
20
10.547451
42
-0.001989
0
VERTEX
8
1
10
42.123604
20
10.417603
0
VERTEX
8
1
10
42.099411
20
10.416485
42
0.039114
0
VERTEX
8
1
10
41.847977
20
10.415199
42
0.234532
0
VERTEX
8
1
10
41.742462
20
10.336945
0
VERTEX
8
1
10
41.753914
20
10.328747
42
-0.557442
0
VERTEX
8
1
10
41.758980
20
10.195381
42
0.124540
0
VERTEX
8
1
10
41.602150
20
10.224598
42
0.095659
0
VERTEX
8
1
10
41.620743
20
10.319641
0
VERTEX
8
1
10
41.622856
20
10.325970
0
VERTEX
8
1
10
41.591789
20
10.334323
42
0.400821
0
VERTEX
8
1
10
41.453949
20
10.264809
0
VERTEX
8
1
10
41.444717
20
10.245430
0
VERTEX
8
1
10
41.435974
20
10.225086
42
-0.203833
0
VERTEX
8
1
10
41.240059
20
9.998408
42
-0.422160
0
VERTEX
8
1
10
41.184319
20
10.036064
0
VERTEX
8
1
10
41.179214
20
10.065067
0
VERTEX
8
1
10
41.178596
20
10.103753
42
0.231960
0
VERTEX
8
1
10
40.996803
20
10.065594
42
-0.020185
0
VERTEX
8
1
10
40.856979
20
9.973713
0
VERTEX
8
1
10
40.838676
20
9.981426
42
0.086997
0
VERTEX
8
1
10
40.475212
20
10.006210
0
VERTEX
8
1
10
40.464005
20
10.002003
0
VERTEX
8
1
10
40.460503
20
9.996738
0
VERTEX
8
1
10
40.460541
20
10.052319
42
-0.061271
0
VERTEX
8
1
10
40.818687
20
10.186729
42
0.019463
0
VERTEX
8
1
10
41.278473
20
10.314957
42
0.031969
0
VERTEX
8
1
10
41.642372
20
10.482830
0
VERTEX
8
1
10
41.825981
20
10.578102
42
-0.044520
0
VERTEX
8
1
10
42.450760
20
10.848339
42
-0.038813
0
VERTEX
8
1
10
43.029232
20
11.024487
42
-0.033941
0
SEQEND
0
POLYLINE
8
1
66
1
70
1
0
VERTEX
8
1
10
26.899410
20
7.374559
0
VERTEX
8
1
10
26.877167
20
7.330070
0
VERTEX
8
1
10
26.875237
20
7.334076
42
0.537421
0
VERTEX
8
1
10
26.839638
20
7.356658
42
0.166593
0
VERTEX
8
1
10
26.837006
20
7.306831
0
VERTEX
8
1
10
26.850403
20
7.302624
0
VERTEX
8
1
10
26.890684
20
7.297120
42
-0.236697
0
VERTEX
8
1
10
27.322678
20
6.994698
42
-0.020542
0
VERTEX
8
1
10
27.429230
20
6.755786
42
0.134564
0
VERTEX
8
1
10
27.823769
20
6.277134
42
0.146618
0
VERTEX
8
1
10
28.160042
20
6.163757
0
VERTEX
8
1
10
28.208908
20
6.170559
42
0.289342
0
VERTEX
8
1
10
28.170692
20
6.219273
42
0.046353
0
VERTEX
8
1
10
27.988663
20
6.274910
42
-0.211404
0
VERTEX
8
1
10
27.506048
20
6.790171
42
0.045366
0
VERTEX
8
1
10
27.343109
20
7.123092
42
0.141805
0
VERTEX
8
1
10
27.038857
20
7.375782
0
VERTEX
8
1
10
27.004463
20
7.385750
42
0.192866
0
SEQEND
0
ENDSEC
0
EOF
