0
SECTION
2
HEADER
9
$EXTMIN
10
0.696259
20
0.210129
9
$EXTMAX
10
36.692642
20
19.071869
0
ENDSEC
0
SECTION
2
TABLES
0
TABLE
2
LTYPE
70
1
0
LTYPE
2
0
70
0
3
Solid Line
72
65
73
0
40
0.0
0
ENDTAB
0
TABLE
2
LAYER
70
1
0
LAYER
2
1
70
0
62
7
6
0
0
ENDTAB
0
ENDSEC
0
SECTION
2
BLOCKS
0
ENDSEC
0
SECTION
2
ENTITIES
0
POLYLINE
8
1
66
1
70
1
0
VERTEX
8
1
10
36.616409
20
9.077850
0
VERTEX
8
1
10
35.534569
20
9.139404
0
VERTEX
8
1
10
35.532593
20
9.142059
42
0.022352
0
VERTEX
8
1
10
35.674210
20
9.260803
0
VERTEX
8
1
10
35.674294
20
9.265244
0
VERTEX
8
1
10
35.645294
20
11.353745
0
VERTEX
8
1
10
35.647171
20
11.356400
42
0.073642
0
VERTEX
8
1
10
36.371880
20
12.168503
42
0.122582
0
VERTEX
8
1
10
36.599258
20
13.207504
42
0.073415
0
VERTEX
8
1
10
36.518982
20
13.678238
0
VERTEX
8
1
10
36.517441
20
13.681503
42
0.015761
0
VERTEX
8
1
10
35.424934
20
13.673767
0
VERTEX
8
1
10
35.384720
20
13.682816
42
0.113759
0
VERTEX
8
1
10
35.215042
20
14.165253
0
VERTEX
8
1
10
35.181099
20
14.225266
42
0.023518
0
VERTEX
8
1
10
34.474869
20
15.410660
42
0.034327
0
VERTEX
8
1
10
33.861893
20
16.204498
0
VERTEX
8
1
10
33.848785
20
16.227097
0
VERTEX
8
1
10
32.464233
20
18.769043
42
0.087965
0
VERTEX
8
1
10
32.168198
20
19.026093
42
0.189923
0
VERTEX
8
1
10
31.922501
20
19.064133
42
0.136209
0
VERTEX
8
1
10
31.510620
20
18.861282
42
0.178378
0
VERTEX
8
1
10
31.454285
20
18.757751
42
0.192385
0
VERTEX
8
1
10
31.469124
20
18.450363
42
0.058989
0
VERTEX
8
1
10
31.632263
20
18.164398
0
VERTEX
8
1
10
31.700821
20
18.071487
42
0.028061
0
VERTEX
8
1
10
32.262474
20
17.446915
42
-0.007140
0
VERTEX
8
1
10
32.880089
20
16.784775
0
VERTEX
8
1
10
32.801239
20
16.784790
42
0.254222
0
VERTEX
8
1
10
32.694878
20
16.722549
42
0.076379
0
VERTEX
8
1
10
32.591087
20
16.523651
42
0.181794
0
VERTEX
8
1
10
32.443161
20
16.768112
42
0.133480
0
VERTEX
8
1
10
32.394440
20
16.784729
0
VERTEX
8
1
10
31.999825
20
16.784790
0
VERTEX
8
1
10
31.999535
20
16.781891
0
VERTEX
8
1
10
31.999542
20
16.089462
0
VERTEX
8
1
10
32.148743
20
16.089447
0
VERTEX
8
1
10
32.149536
20
16.089020
0
VERTEX
8
1
10
32.149536
20
14.876984
0
VERTEX
8
1
10
32.149261
20
14.873917
0
VERTEX
8
1
10
31.993668
20
14.873917
0
VERTEX
8
1
10
31.993538
20
14.871719
0
VERTEX
8
1
10
31.993546
20
14.332336
0
VERTEX
8
1
10
31.664139
20
14.332321
0
VERTEX
8
1
10
31.664284
20
14.335342
42
0.144901
0
VERTEX
8
1
10
31.755569
20
14.655731
0
VERTEX
8
1
10
31.755569
20
15.052658
0
VERTEX
8
1
10
31.755043
20
15.052979
0
VERTEX
8
1
10
31.621582
20
15.052979
0
VERTEX
8
1
10
31.621574
20
14.877472
0
VERTEX
8
1
10
31.621346
20
14.876495
0
VERTEX
8
1
10
30.831741
20
14.876511
0
VERTEX
8
1
10
30.829620
20
14.877075
0
VERTEX
8
1
10
30.829628
20
15.226517
0
VERTEX
8
1
10
30.832237
20
15.226807
0
VERTEX
8
1
10
31.501556
20
15.226807
42
0.217806
0
VERTEX
8
1
10
31.665543
20
15.310349
42
0.183694
0
VERTEX
8
1
10
31.751503
20
15.525787
0
VERTEX
8
1
10
31.751549
20
16.304199
42
0.214584
0
VERTEX
8
1
10
31.578392
20
16.743408
42
0.194954
0
VERTEX
8
1
10
31.355499
20
16.834442
0
VERTEX
8
1
10
30.984818
20
16.834442
42
0.219091
0
VERTEX
8
1
10
30.734947
20
16.728455
42
0.204996
0
VERTEX
8
1
10
30.555656
20
16.310989
0
VERTEX
8
1
10
30.555664
20
14.646225
42
0.149145
0
VERTEX
8
1
10
30.653061
20
14.332336
0
VERTEX
8
1
10
30.322014
20
14.332321
0
VERTEX
8
1
10
30.321671
20
14.334229
0
VERTEX
8
1
10
30.321671
20
14.873871
0
VERTEX
8
1
10
30.053329
20
14.873917
0
VERTEX
8
1
10
30.051697
20
14.874161
0
VERTEX
8
1
10
30.047638
20
16.271149
0
VERTEX
8
1
10
30.047066
20
16.294220
42
0.225216
0
VERTEX
8
1
10
29.845345
20
16.720428
42
0.160571
0
VERTEX
8
1
10
29.639923
20
16.784790
0
VERTEX
8
1
10
29.081757
20
16.784866
0
VERTEX
8
1
10
29.081764
20
17.308517
0
VERTEX
8
1
10
29.081909
20
17.310196
0
VERTEX
8
1
10
29.203621
20
17.310196
0
VERTEX
8
1
10
29.203751
20
17.312500
0
VERTEX
8
1
10
29.203758
20
18.005447
0
VERTEX
8
1
10
29.202934
20
18.005539
0
VERTEX
8
1
10
29.077400
20
18.005539
42
0.207047
0
VERTEX
8
1
10
28.987785
20
17.958801
42
0.105741
0
VERTEX
8
1
10
28.922615
20
17.868256
42
0.053018
0
VERTEX
8
1
10
28.868698
20
17.747223
0
VERTEX
8
1
10
28.866402
20
17.750656
42
0.164731
0
VERTEX
8
1
10
28.714020
20
17.990097
42
0.143949
0
VERTEX
8
1
10
28.667786
20
18.005539
0
VERTEX
8
1
10
28.538246
20
18.005539
0
VERTEX
8
1
10
28.537804
20
18.004791
0
VERTEX
8
1
10
28.537804
20
17.311096
0
VERTEX
8
1
10
28.538620
20
17.310196
0
VERTEX
8
1
10
28.803741
20
17.310196
0
VERTEX
8
1
10
28.803757
20
14.873932
0
VERTEX
8
1
10
28.550705
20
14.873917
0
VERTEX
8
1
10
28.549812
20
14.873367
0
VERTEX
8
1
10
28.549812
20
14.333054
0
VERTEX
8
1
10
28.548798
20
14.332321
0
VERTEX
8
1
10
28.208031
20
14.332321
42
0.142062
0
VERTEX
8
1
10
28.293777
20
14.655609
0
VERTEX
8
1
10
28.293770
20
15.227341
0
VERTEX
8
1
10
28.293633
20
15.229416
0
VERTEX
8
1
10
28.158028
20
15.229416
0
VERTEX
8
1
10
28.157837
20
15.228394
0
VERTEX
8
1
10
28.157837
20
14.876587
0
VERTEX
8
1
10
27.385887
20
14.876587
0
VERTEX
8
1
10
27.385895
20
16.084991
0
VERTEX
8
1
10
27.386635
20
16.089447
0
VERTEX
8
1
10
28.160782
20
16.089447
0
VERTEX
8
1
10
28.161903
20
16.088455
0
VERTEX
8
1
10
28.161903
20
15.747086
0
VERTEX
8
1
10
28.297821
20
15.747070
0
VERTEX
8
1
10
28.297829
20
16.835587
0
VERTEX
8
1
10
28.295204
20
16.839096
42
0.223401
0
VERTEX
8
1
10
28.166435
20
16.739761
42
0.078748
0
VERTEX
8
1
10
28.084366
20
16.571777
42
0.129219
0
VERTEX
8
1
10
27.965271
20
16.789886
42
0.203838
0
VERTEX
8
1
10
27.883904
20
16.834457
0
VERTEX
8
1
10
27.524429
20
16.834427
42
0.342277
0
VERTEX
8
1
10
27.155640
20
16.583878
42
0.090531
0
VERTEX
8
1
10
27.111923
20
16.308945
0
VERTEX
8
1
10
27.111916
20
14.655487
42
0.135691
0
VERTEX
8
1
10
27.197235
20
14.332336
0
VERTEX
8
1
10
26.769440
20
14.332352
42
0.139491
0
VERTEX
8
1
10
26.875931
20
14.756516
0
VERTEX
8
1
10
26.875931
20
15.045975
0
VERTEX
8
1
10
26.875557
20
15.046432
0
VERTEX
8
1
10
26.737984
20
15.046432
0
VERTEX
8
1
10
26.737923
20
14.858231
0
VERTEX
8
1
10
26.216072
20
14.858215
0
VERTEX
8
1
10
26.213989
20
14.859360
0
VERTEX
8
1
10
26.213989
20
16.259674
0
VERTEX
8
1
10
26.214691
20
16.261978
0
VERTEX
8
1
10
26.483879
20
16.261978
0
VERTEX
8
1
10
26.483948
20
16.957306
0
VERTEX
8
1
10
26.205055
20
16.957306
0
VERTEX
8
1
10
26.203918
20
16.957825
0
VERTEX
8
1
10
26.203926
20
17.646255
0
VERTEX
8
1
10
26.203262
20
17.647415
0
VERTEX
8
1
10
25.944092
20
17.647415
0
VERTEX
8
1
10
25.944000
20
17.643753
0
VERTEX
8
1
10
25.943993
20
16.957306
0
VERTEX
8
1
10
25.697037
20
16.957306
0
VERTEX
8
1
10
25.696022
20
16.956787
0
VERTEX
8
1
10
25.696022
20
16.263184
0
VERTEX
8
1
10
25.696648
20
16.261978
0
VERTEX
8
1
10
25.943916
20
16.261978
0
VERTEX
8
1
10
25.944000
20
16.254776
0
VERTEX
8
1
10
25.944016
20
14.888107
0
VERTEX
8
1
10
25.944427
20
14.854431
0
VERTEX
8
1
10
25.945625
20
14.821365
42
0.140973
0
VERTEX
8
1
10
26.089203
20
14.346878
42
-0.067315
0
VERTEX
8
1
10
26.098190
20
14.332321
0
VERTEX
8
1
10
25.442284
20
14.332321
0
VERTEX
8
1
10
25.442047
20
14.335114
0
VERTEX
8
1
10
25.442039
20
14.873917
0
VERTEX
8
1
10
25.161255
20
14.873917
0
VERTEX
8
1
10
25.160065
20
14.874771
0
VERTEX
8
1
10
25.160065
20
16.087250
0
VERTEX
8
1
10
25.160355
20
16.089447
0
VERTEX
8
1
10
25.282013
20
16.089447
0
VERTEX
8
1
10
25.282059
20
16.784790
0
VERTEX
8
1
10
25.152618
20
16.784790
42
0.196644
0
VERTEX
8
1
10
25.055786
20
16.732147
0
VERTEX
8
1
10
25.047447
20
16.723801
42
0.087068
0
VERTEX
8
1
10
24.946609
20
16.525284
42
0.155290
0
VERTEX
8
1
10
24.804909
20
16.763428
42
0.160239
0
VERTEX
8
1
10
24.746010
20
16.784790
0
VERTEX
8
1
10
24.616348
20
16.784790
0
VERTEX
8
1
10
24.616104
20
16.783188
0
VERTEX
8
1
10
24.616104
20
16.089752
0
VERTEX
8
1
10
24.617432
20
16.089447
0
VERTEX
8
1
10
24.882088
20
16.089447
0
VERTEX
8
1
10
24.882088
20
14.879288
0
VERTEX
8
1
10
24.881927
20
14.873932
0
VERTEX
8
1
10
24.628593
20
14.873917
0
VERTEX
8
1
10
24.628113
20
14.872681
0
VERTEX
8
1
10
24.628105
20
14.332565
0
VERTEX
8
1
10
24.626869
20
14.332336
0
VERTEX
8
1
10
24.376114
20
14.332321
0
VERTEX
8
1
10
24.376122
20
15.048462
0
VERTEX
8
1
10
24.375969
20
15.051682
0
VERTEX
8
1
10
24.110672
20
15.051682
0
VERTEX
8
1
10
24.110146
20
15.053131
0
VERTEX
8
1
10
24.110146
20
15.701431
42
0.180076
0
VERTEX
8
1
10
23.962708
20
16.072937
42
0.156309
0
VERTEX
8
1
10
23.778923
20
16.180573
0
VERTEX
8
1
10
23.791557
20
16.183044
42
0.166555
0
VERTEX
8
1
10
23.990143
20
16.327423
42
0.122656
0
VERTEX
8
1
10
24.091347
20
16.531570
42
0.065616
0
VERTEX
8
1
10
24.110100
20
16.664658
0
VERTEX
8
1
10
24.110146
20
17.136719
0
VERTEX
8
1
10
24.110710
20
17.137680
0
VERTEX
8
1
10
24.379990
20
17.137680
0
VERTEX
8
1
10
24.380127
20
17.141739
0
VERTEX
8
1
10
24.380127
20
18.005539
0
VERTEX
8
1
10
24.112297
20
18.005524
42
0.205604
0
VERTEX
8
1
10
24.019691
20
17.946655
42
0.124134
0
VERTEX
8
1
10
23.913742
20
17.746674
42
0.154234
0
VERTEX
8
1
10
23.758293
20
17.988434
42
0.152372
0
VERTEX
8
1
10
23.708038
20
18.005554
0
VERTEX
8
1
10
23.446754
20
18.005539
0
VERTEX
8
1
10
23.446190
20
18.003784
0
VERTEX
8
1
10
23.446190
20
17.138168
0
VERTEX
8
1
10
23.447380
20
17.137695
0
VERTEX
8
1
10
23.708176
20
17.137680
0
VERTEX
8
1
10
23.712189
20
16.893738
42
-0.165298
0
VERTEX
8
1
10
23.600891
20
16.629654
42
-0.145716
0
VERTEX
8
1
10
23.378487
20
16.455521
42
-0.073797
0
VERTEX
8
1
10
23.299492
20
16.442368
0
VERTEX
8
1
10
22.918228
20
16.442337
0
VERTEX
8
1
10
22.918228
20
17.134277
0
VERTEX
8
1
10
22.918358
20
17.137680
0
VERTEX
8
1
10
23.179626
20
17.137680
0
VERTEX
8
1
10
23.180214
20
17.139374
0
VERTEX
8
1
10
23.180214
20
18.005005
0
VERTEX
8
1
10
23.179062
20
18.005554
0
VERTEX
8
1
10
22.919922
20
18.005569
42
0.216325
0
VERTEX
8
1
10
22.829987
20
17.953094
42
0.130649
0
VERTEX
8
1
10
22.716591
20
17.747864
42
0.143407
0
VERTEX
8
1
10
22.575272
20
17.979187
42
0.164416
0
VERTEX
8
1
10
22.512413
20
18.005539
0
VERTEX
8
1
10
22.251595
20
18.005539
0
VERTEX
8
1
10
22.250282
20
18.005188
0
VERTEX
8
1
10
22.250282
20
17.139709
0
VERTEX
8
1
10
22.250778
20
17.137680
0
VERTEX
8
1
10
22.512093
20
17.137680
0
VERTEX
8
1
10
22.512268
20
17.135468
0
VERTEX
8
1
10
22.512268
20
16.623932
42
-0.129217
0
VERTEX
8
1
10
22.451912
20
16.330322
42
-0.238394
0
VERTEX
8
1
10
22.256706
20
16.178757
42
-0.231696
0
VERTEX
8
1
10
22.450790
20
16.036301
42
-0.129395
0
VERTEX
8
1
10
22.511398
20
15.789490
0
VERTEX
8
1
10
22.512070
20
15.767838
42
-0.004652
0
VERTEX
8
1
10
22.512169
20
15.051682
0
VERTEX
8
1
10
22.250923
20
15.051682
0
VERTEX
8
1
10
22.250282
20
15.050415
0
VERTEX
8
1
10
22.250282
20
14.332840
0
VERTEX
8
1
10
22.245010
20
14.332336
0
VERTEX
8
1
10
20.985184
20
14.332321
42
0.146641
0
VERTEX
8
1
10
21.078377
20
14.655212
0
VERTEX
8
1
10
21.078369
20
15.051987
0
VERTEX
8
1
10
21.078140
20
15.052979
0
VERTEX
8
1
10
20.944481
20
15.052979
0
VERTEX
8
1
10
20.944374
20
15.052261
0
VERTEX
8
1
10
20.944382
20
14.876511
0
VERTEX
8
1
10
20.156639
20
14.876511
0
VERTEX
8
1
10
20.152451
20
14.876633
0
VERTEX
8
1
10
20.152443
20
15.225922
0
VERTEX
8
1
10
20.153580
20
15.226822
0
VERTEX
8
1
10
20.823875
20
15.226807
42
0.219216
0
VERTEX
8
1
10
20.986099
20
15.307892
42
0.192143
0
VERTEX
8
1
10
21.074371
20
15.532913
0
VERTEX
8
1
10
21.074303
20
16.319000
0
VERTEX
8
1
10
21.073738
20
16.341232
42
0.232510
0
VERTEX
8
1
10
20.860550
20
16.776230
42
0.156653
0
VERTEX
8
1
10
20.679459
20
16.834442
0
VERTEX
8
1
10
20.281563
20
16.834427
42
0.195329
0
VERTEX
8
1
10
20.060959
20
16.731522
42
0.204680
0
VERTEX
8
1
10
19.878502
20
16.315826
0
VERTEX
8
1
10
19.878464
20
14.649155
42
0.151683
0
VERTEX
8
1
10
19.976242
20
14.332321
0
VERTEX
8
1
10
19.645378
20
14.332321
0
VERTEX
8
1
10
19.644485
20
14.333176
0
VERTEX
8
1
10
19.644485
20
14.873459
0
VERTEX
8
1
10
19.643448
20
14.873917
0
VERTEX
8
1
10
19.374512
20
14.873917
0
VERTEX
8
1
10
19.370491
20
16.266144
0
VERTEX
8
1
10
19.370049
20
16.289291
42
0.224545
0
VERTEX
8
1
10
19.171272
20
16.718155
42
0.161020
0
VERTEX
8
1
10
18.966866
20
16.784744
0
VERTEX
8
1
10
18.404602
20
16.784790
0
VERTEX
8
1
10
18.404602
20
17.310181
0
VERTEX
8
1
10
18.526222
20
17.310196
0
VERTEX
8
1
10
18.526566
20
17.311234
0
VERTEX
8
1
10
18.526566
20
18.004898
0
VERTEX
8
1
10
18.526077
20
18.005539
0
VERTEX
8
1
10
18.401024
20
18.005539
42
0.204107
0
VERTEX
8
1
10
18.303253
20
17.951630
0
VERTEX
8
1
10
18.294785
20
17.942902
42
0.082117
0
VERTEX
8
1
10
18.192001
20
17.748871
0
VERTEX
8
1
10
18.189674
20
17.748535
42
0.167321
0
VERTEX
8
1
10
18.035942
20
17.990707
42
0.138151
0
VERTEX
8
1
10
17.991066
20
18.005539
0
VERTEX
8
1
10
17.861366
20
18.005539
0
VERTEX
8
1
10
17.860611
20
18.005386
0
VERTEX
8
1
10
17.860611
20
17.312210
0
VERTEX
8
1
10
17.860992
20
17.310196
0
VERTEX
8
1
10
18.126335
20
17.310196
0
VERTEX
8
1
10
18.126595
20
17.301361
0
VERTEX
8
1
10
18.126595
20
14.874084
0
VERTEX
8
1
10
18.124878
20
14.873917
0
VERTEX
8
1
10
17.874115
20
14.873917
0
VERTEX
8
1
10
17.872612
20
14.873810
0
VERTEX
8
1
10
17.872620
20
14.333923
0
VERTEX
8
1
10
17.871735
20
14.332321
0
VERTEX
8
1
10
17.237305
20
14.332321
0
VERTEX
8
1
10
17.236664
20
14.334869
0
VERTEX
8
1
10
17.236664
20
15.051620
0
VERTEX
8
1
10
16.976250
20
15.051682
0
VERTEX
8
1
10
16.974678
20
15.051819
0
VERTEX
8
1
10
16.974686
20
15.707092
42
-0.114654
0
VERTEX
8
1
10
17.022820
20
15.988968
0
VERTEX
8
1
10
17.030136
20
16.002686
42
-0.250662
0
VERTEX
8
1
10
17.235199
20
16.154617
42
-0.263842
0
VERTEX
8
1
10
17.008072
20
16.362213
42
-0.090856
0
VERTEX
8
1
10
16.970734
20
16.583542
0
VERTEX
8
1
10
16.970680
20
17.137100
0
VERTEX
8
1
10
16.972038
20
17.137680
0
VERTEX
8
1
10
17.364609
20
17.137680
0
VERTEX
8
1
10
17.364685
20
16.784790
0
VERTEX
8
1
10
17.633797
20
16.784790
0
VERTEX
8
1
10
17.634636
20
16.786575
0
VERTEX
8
1
10
17.634636
20
18.176514
0
VERTEX
8
1
10
17.634171
20
18.178040
0
VERTEX
8
1
10
17.498657
20
18.178055
0
VERTEX
8
1
10
17.498642
20
18.006607
0
VERTEX
8
1
10
17.498558
20
18.005539
0
VERTEX
8
1
10
16.968636
20
18.005508
42
0.209952
0
VERTEX
8
1
10
16.878044
20
17.948395
42
0.133625
0
VERTEX
8
1
10
16.770935
20
17.745346
42
0.105442
0
VERTEX
8
1
10
16.639503
20
17.969711
42
0.199010
0
VERTEX
8
1
10
16.563927
20
18.005539
0
VERTEX
8
1
10
16.040405
20
18.005539
0
VERTEX
8
1
10
16.039787
20
18.006104
0
VERTEX
8
1
10
16.039787
20
18.178040
0
VERTEX
8
1
10
15.899651
20
18.178055
0
VERTEX
8
1
10
15.898750
20
18.177872
0
VERTEX
8
1
10
15.898758
20
16.789368
0
VERTEX
8
1
10
15.899063
20
16.784790
0
VERTEX
8
1
10
16.168411
20
16.784790
0
VERTEX
8
1
10
16.168732
20
16.785934
0
VERTEX
8
1
10
16.168739
20
17.137634
0
VERTEX
8
1
10
16.568710
20
17.137604
0
VERTEX
8
1
10
16.568710
20
16.631180
42
-0.124342
0
VERTEX
8
1
10
16.513008
20
16.343689
42
-0.239270
0
VERTEX
8
1
10
16.318985
20
16.183350
0
VERTEX
8
1
10
16.304695
20
16.181168
42
-0.238672
0
VERTEX
8
1
10
16.508850
20
16.032410
42
-0.129943
0
VERTEX
8
1
10
16.568649
20
15.758316
0
VERTEX
8
1
10
16.568710
20
15.052567
0
VERTEX
8
1
10
16.567886
20
15.051682
0
VERTEX
8
1
10
16.302780
20
15.051682
0
VERTEX
8
1
10
16.302734
20
14.995667
42
0.045949
0
VERTEX
8
1
10
16.047813
20
15.096588
42
0.041229
0
VERTEX
8
1
10
15.365829
20
15.227951
42
0.043334
0
VERTEX
8
1
10
13.835701
20
15.273865
42
0.030666
0
VERTEX
8
1
10
13.428726
20
15.224655
42
0.088500
0
VERTEX
8
1
10
13.203651
20
15.141754
42
0.160599
0
VERTEX
8
1
10
13.119759
20
15.056625
42
0.294502
0
VERTEX
8
1
10
13.142540
20
14.984085
0
VERTEX
8
1
10
13.166519
20
14.962982
0
VERTEX
8
1
10
13.196060
20
14.943512
42
0.072701
0
VERTEX
8
1
10
13.458946
20
14.852020
42
-0.026039
0
VERTEX
8
1
10
14.787880
20
14.830887
42
-0.037701
0
VERTEX
8
1
10
15.313171
20
14.754395
0
VERTEX
8
1
10
15.415810
20
14.725143
0
VERTEX
8
1
10
15.502029
20
14.691162
0
VERTEX
8
1
10
15.533371
20
14.624924
0
VERTEX
8
1
10
15.529373
20
14.560181
0
VERTEX
8
1
10
15.498009
20
14.502197
0
VERTEX
8
1
10
15.441940
20
14.450638
0
VERTEX
8
1
10
15.363815
20
14.405167
0
VERTEX
8
1
10
15.266296
20
14.365448
42
-0.051544
0
VERTEX
8
1
10
14.735458
20
14.257446
42
-0.038707
0
VERTEX
8
1
10
13.443771
20
14.221390
0
VERTEX
8
1
10
13.349464
20
14.229950
42
-0.125520
0
VERTEX
8
1
10
12.933113
20
14.380234
42
0.038154
0
VERTEX
8
1
10
12.786980
20
14.482300
42
0.232868
0
VERTEX
8
1
10
12.679588
20
14.485352
0
VERTEX
8
1
10
12.647018
20
14.468658
0
VERTEX
8
1
10
12.607948
20
14.432663
42
0.161166
0
VERTEX
8
1
10
12.546997
20
14.251129
0
VERTEX
8
1
10
12.555168
20
14.189941
0
VERTEX
8
1
10
12.576935
20
14.129318
0
VERTEX
8
1
10
12.611908
20
14.069748
0
VERTEX
8
1
10
12.659676
20
14.011719
42
0.097150
0
VERTEX
8
1
10
12.970970
20
13.805573
42
0.061665
0
VERTEX
8
1
10
13.455727
20
13.665527
42
0.058488
0
VERTEX
8
1
10
14.117012
20
13.630814
42
0.064695
0
VERTEX
8
1
10
15.325745
20
13.866577
42
0.063240
0
VERTEX
8
1
10
15.987869
20
14.180527
42
0.017156
0
VERTEX
8
1
10
16.044342
20
14.220718
42
-0.038263
0
VERTEX
8
1
10
16.112801
20
13.105438
42
-0.022185
0
VERTEX
8
1
10
16.092186
20
12.808258
42
0.166966
0
VERTEX
8
1
10
15.761375
20
12.281158
0
VERTEX
8
1
10
15.719170
20
12.243698
42
-0.072987
0
VERTEX
8
1
10
15.066063
20
11.941742
42
-0.046506
0
VERTEX
8
1
10
14.228844
20
11.764465
42
-0.069933
0
VERTEX
8
1
10
13.026306
20
11.756973
42
-0.061980
0
VERTEX
8
1
10
12.608353
20
11.866318
42
-0.091467
0
VERTEX
8
1
10
12.453873
20
11.967072
0
VERTEX
8
1
10
12.415283
20
12.038010
0
VERTEX
8
1
10
12.382973
20
12.144714
0
VERTEX
8
1
10
12.356445
20
12.282562
42
-0.029332
0
VERTEX
8
1
10
12.298561
20
13.052780
42
-0.016323
0
VERTEX
8
1
10
12.324425
20
14.941696
0
VERTEX
8
1
10
12.317474
20
14.967178
0
VERTEX
8
1
10
12.293556
20
15.007202
42
0.280685
0
VERTEX
8
1
10
12.109169
20
15.092728
42
0.126440
0
VERTEX
8
1
10
11.867607
20
14.990479
0
VERTEX
8
1
10
11.860420
20
14.985046
0
VERTEX
8
1
10
11.859856
20
14.980042
0
VERTEX
8
1
10
11.826744
20
13.390900
0
VERTEX
8
1
10
11.816124
20
13.400009
42
-0.006138
0
VERTEX
8
1
10
10.038734
20
15.012253
42
-0.026044
0
VERTEX
8
1
10
9.843628
20
15.209091
42
0.440409
0
VERTEX
8
1
10
9.706177
20
15.208496
42
0.125110
0
VERTEX
8
1
10
9.630684
20
15.067917
0
VERTEX
8
1
10
9.616592
20
15.014130
42
0.070872
0
VERTEX
8
1
10
9.595558
20
14.525650
0
VERTEX
8
1
10
9.616646
20
14.426483
42
0.075435
0
VERTEX
8
1
10
10.095444
20
13.842117
42
0.050101
0
VERTEX
8
1
10
10.858589
20
13.277237
0
VERTEX
8
1
10
10.863602
20
13.257370
42
0.033821
0
VERTEX
8
1
10
10.277626
20
13.215897
42
0.105034
0
VERTEX
8
1
10
10.107681
20
13.154922
42
0.448050
0
VERTEX
8
1
10
10.085106
20
13.028107
42
0.094906
0
VERTEX
8
1
10
10.175255
20
12.937668
42
0.000153
0
VERTEX
8
1
10
11.353989
20
13.005066
42
0.008831
0
VERTEX
8
1
10
11.573479
20
12.900620
0
VERTEX
8
1
10
11.579491
20
12.809555
42
-0.117584
0
VERTEX
8
1
10
11.329216
20
11.746155
42
-0.075623
0
VERTEX
8
1
10
11.037971
20
11.333832
42
-0.105702
0
VERTEX
8
1
10
10.813873
20
11.177155
0
VERTEX
8
1
10
10.765915
20
11.164780
0
VERTEX
8
1
10
10.643150
20
11.196304
0
VERTEX
8
1
10
10.515404
20
11.254608
0
VERTEX
8
1
10
10.402847
20
11.330185
0
VERTEX
8
1
10
10.304558
20
11.420776
0
VERTEX
8
1
10
10.219627
20
11.524170
0
VERTEX
8
1
10
10.147110
20
11.638092
42
-0.075596
0
VERTEX
8
1
10
9.962753
20
12.154251
42
-0.072217
0
VERTEX
8
1
10
9.913658
20
13.055618
42
0.375721
0
VERTEX
8
1
10
9.859100
20
13.150070
0
VERTEX
8
1
10
9.827660
20
13.159500
0
VERTEX
8
1
10
9.791283
20
13.164444
0
VERTEX
8
1
10
9.751038
20
13.165451
0
VERTEX
8
1
10
9.708015
20
13.163116
42
0.053327
0
VERTEX
8
1
10
9.360870
20
13.082703
42
0.047431
0
VERTEX
8
1
10
9.362617
20
12.281586
42
0.133274
0
VERTEX
8
1
10
9.547707
20
11.782043
42
0.134000
0
VERTEX
8
1
10
10.336098
20
11.112869
42
-0.128327
0
VERTEX
8
1
10
10.572014
20
10.919235
42
-0.200194
0
VERTEX
8
1
10
10.611458
20
10.756500
42
-0.017383
0
VERTEX
8
1
10
10.659836
20
9.448883
42
-0.049398
0
VERTEX
8
1
10
10.637932
20
9.175308
42
-0.196271
0
VERTEX
8
1
10
10.483002
20
8.984451
42
-0.081228
0
VERTEX
8
1
10
10.107239
20
8.852615
42
0.002542
0
VERTEX
8
1
10
9.818100
20
8.792038
0
VERTEX
8
1
10
9.777870
20
8.779510
42
0.153706
0
VERTEX
8
1
10
9.496361
20
8.589127
0
VERTEX
8
1
10
9.491852
20
8.582443
42
0.051035
0
VERTEX
8
1
10
9.899406
20
8.555832
0
VERTEX
8
1
10
9.948601
20
8.556717
42
0.061714
0
VERTEX
8
1
10
10.102776
20
8.310272
0
VERTEX
8
1
10
10.125435
20
8.279800
0
VERTEX
8
1
10
10.148361
20
8.249542
0
VERTEX
8
1
10
10.125664
20
8.231247
0
VERTEX
8
1
10
9.965111
20
8.221832
0
VERTEX
8
1
10
9.793617
20
8.207870
0
VERTEX
8
1
10
9.613274
20
8.189941
0
VERTEX
8
1
10
9.426147
20
8.168549
42
0.022151
0
VERTEX
8
1
10
6.939354
20
7.739594
42
0.260957
0
VERTEX
8
1
10
6.802994
20
7.628845
0
VERTEX
8
1
10
6.791870
20
7.607498
0
VERTEX
8
1
10
6.991653
20
7.633499
42
-0.006811
0
VERTEX
8
1
10
9.534622
20
8.013672
42
-0.024044
0
VERTEX
8
1
10
10.228546
20
8.081284
0
VERTEX
8
1
10
10.279442
20
8.079681
0
VERTEX
8
1
10
10.283524
20
8.076324
0
VERTEX
8
1
10
10.329445
20
8.018600
0
VERTEX
8
1
10
10.328270
20
8.013809
42
-0.050636
0
VERTEX
8
1
10
10.039055
20
7.905594
42
-0.012945
0
VERTEX
8
1
10
9.181038
20
7.679581
0
VERTEX
8
1
10
9.024689
20
7.647110
42
-0.025947
0
VERTEX
8
1
10
7.097282
20
7.383301
42
-0.013693
0
VERTEX
8
1
10
6.673843
20
7.363373
0
VERTEX
8
1
10
6.608398
20
7.378204
42
-0.048309
0
VERTEX
8
1
10
6.094063
20
7.620056
42
0.350500
0
VERTEX
8
1
10
6.040550
20
7.621536
42
0.234984
0
VERTEX
8
1
10
5.959999
20
7.516235
42
0.150993
0
VERTEX
8
1
10
5.975929
20
7.454575
0
VERTEX
8
1
10
5.972824
20
7.444641
0
VERTEX
8
1
10
5.930290
20
7.433853
42
0.320631
0
VERTEX
8
1
10
5.811371
20
7.277496
0
VERTEX
8
1
10
5.810532
20
7.240646
0
VERTEX
8
1
10
5.814049
20
7.201981
42
0.128808
0
VERTEX
8
1
10
5.992714
20
6.832077
42
0.004189
0
VERTEX
8
1
10
6.080551
20
6.776260
0
VERTEX
8
1
10
6.052460
20
6.761124
42
-0.053579
0
VERTEX
8
1
10
5.367828
20
6.544510
42
-0.035033
0
VERTEX
8
1
10
4.221603
20
6.384003
0
VERTEX
8
1
10
4.036102
20
6.371002
42
-0.033399
0
VERTEX
8
1
10
3.228539
20
6.436737
42
-0.073828
0
VERTEX
8
1
10
3.062195
20
6.485641
0
VERTEX
8
1
10
3.041840
20
6.499435
42
-0.472801
0
VERTEX
8
1
10
3.036247
20
6.561005
42
-0.131174
0
VERTEX
8
1
10
3.110344
20
6.613815
0
VERTEX
8
1
10
3.162109
20
6.632660
42
-0.033163
0
VERTEX
8
1
10
3.776329
20
6.756241
42
-0.010837
0
VERTEX
8
1
10
5.650429
20
6.987244
0
VERTEX
8
1
10
5.781174
20
7.013077
0
VERTEX
8
1
10
5.769913
20
7.039474
42
0.170102
0
VERTEX
8
1
10
5.696785
20
7.140442
42
0.110271
0
VERTEX
8
1
10
5.582703
20
7.153015
42
0.034887
0
VERTEX
8
1
10
3.841728
20
7.011520
42
0.028603
0
VERTEX
8
1
10
3.250282
20
6.884766
0
VERTEX
8
1
10
3.085159
20
6.830612
0
VERTEX
8
1
10
2.943802
20
6.769943
0
VERTEX
8
1
10
2.830879
20
6.702438
0
VERTEX
8
1
10
2.751038
20
6.627747
0
VERTEX
8
1
10
2.708946
20
6.545532
0
VERTEX
8
1
10
2.709259
20
6.455460
42
0.232693
0
VERTEX
8
1
10
2.789063
20
6.363525
42
0.056250
0
VERTEX
8
1
10
2.942696
20
6.303909
42
0.317826
0
VERTEX
8
1
10
2.873253
20
6.234116
42
0.204733
0
VERTEX
8
1
10
2.909752
20
5.970123
42
0.084909
0
VERTEX
8
1
10
3.081093
20
5.848175
42
0.096626
0
VERTEX
8
1
10
4.045395
20
5.556107
0
VERTEX
8
1
10
4.077278
20
5.550659
42
0.004091
0
VERTEX
8
1
10
3.506844
20
5.331345
42
0.023930
0
VERTEX
8
1
10
1.866730
20
4.572144
42
0.027193
0
VERTEX
8
1
10
1.191216
20
4.166672
0
VERTEX
8
1
10
1.013275
20
4.033340
0
VERTEX
8
1
10
0.868881
20
3.903748
0
VERTEX
8
1
10
0.763939
20
3.779602
0
VERTEX
8
1
10
0.704422
20
3.662628
0
VERTEX
8
1
10
0.696259
20
3.554504
0
VERTEX
8
1
10
0.738495
20
3.465103
0
VERTEX
8
1
10
0.745445
20
3.456573
0
VERTEX
8
1
10
0.753845
20
3.448715
42
0.151931
0
VERTEX
8
1
10
0.911697
20
3.406860
42
0.023622
0
VERTEX
8
1
10
1.077133
20
3.411057
42
0.279324
0
VERTEX
8
1
10
1.019913
20
3.305328
42
0.211918
0
VERTEX
8
1
10
1.128784
20
3.050034
0
VERTEX
8
1
10
1.147591
20
3.036652
0
VERTEX
8
1
10
1.132271
20
3.018143
42
0.328889
0
VERTEX
8
1
10
1.051010
20
2.826797
0
VERTEX
8
1
10
1.060623
20
2.789474
0
VERTEX
8
1
10
1.075340
20
2.751526
42
0.121843
0
VERTEX
8
1
10
1.343773
20
2.443573
0
VERTEX
8
1
10
1.378288
20
2.419724
42
0.122737
0
VERTEX
8
1
10
2.379379
20
2.366562
42
0.053053
0
VERTEX
8
1
10
3.077423
20
2.574509
0
VERTEX
8
1
10
3.241600
20
2.644333
42
0.088814
0
VERTEX
8
1
10
4.994499
20
3.819901
42
0.136253
0
VERTEX
8
1
10
5.060555
20
3.739487
42
0.222620
0
VERTEX
8
1
10
5.005005
20
3.421036
42
0.185598
0
VERTEX
8
1
10
4.959900
20
3.385178
42
0.209301
0
VERTEX
8
1
10
4.852089
20
3.077591
0
VERTEX
8
1
10
4.844688
20
3.066025
0
VERTEX
8
1
10
4.830185
20
3.055862
0
VERTEX
8
1
10
4.816864
20
3.043564
42
0.313947
0
VERTEX
8
1
10
4.793213
20
2.736511
0
VERTEX
8
1
10
4.756493
20
2.733215
42
0.273190
0
VERTEX
8
1
10
4.599846
20
2.644989
0
VERTEX
8
1
10
4.586235
20
2.612640
42
0.139347
0
VERTEX
8
1
10
4.597137
20
2.364624
42
0.074132
0
VERTEX
8
1
10
4.708618
20
2.115097
42
0.094718
0
VERTEX
8
1
10
5.561668
20
1.606979
42
0.053569
0
VERTEX
8
1
10
6.492958
20
1.380936
42
0.064005
0
VERTEX
8
1
10
8.503784
20
1.353729
42
0.054103
0
VERTEX
8
1
10
9.695145
20
1.621201
0
VERTEX
8
1
10
9.762383
20
1.645935
0
VERTEX
8
1
10
9.815765
20
1.666870
0
VERTEX
8
1
10
9.842979
20
1.678116
42
0.159349
0
VERTEX
8
1
10
9.960884
20
1.765884
0
VERTEX
8
1
10
9.963722
20
1.771332
42
0.061596
0
VERTEX
8
1
10
10.133347
20
1.469299
42
0.128708
0
VERTEX
8
1
10
10.568008
20
1.131607
42
0.061903
0
VERTEX
8
1
10
11.006554
20
1.005310
42
0.030108
0
VERTEX
8
1
10
11.627686
20
0.944733
0
VERTEX
8
1
10
11.888931
20
0.930603
42
0.029065
0
VERTEX
8
1
10
11.969879
20
0.931458
42
0.028244
0
VERTEX
8
1
10
13.453629
20
1.032410
42
0.044048
0
VERTEX
8
1
10
14.381645
20
1.233093
42
0.080744
0
VERTEX
8
1
10
15.032745
20
1.557220
42
0.063828
0
VERTEX
8
1
10
15.261894
20
1.778839
42
0.102409
0
VERTEX
8
1
10
15.557663
20
2.431854
0
VERTEX
8
1
10
15.569168
20
2.433044
0
VERTEX
8
1
10
17.022934
20
2.433044
0
VERTEX
8
1
10
17.022476
20
2.425842
42
0.043509
0
VERTEX
8
1
10
16.569153
20
1.961060
42
0.088009
0
VERTEX
8
1
10
16.345993
20
1.566055
42
0.197515
0
VERTEX
8
1
10
16.369926
20
1.109665
42
0.309842
0
VERTEX
8
1
10
16.677605
20
0.931580
42
0.189496
0
VERTEX
8
1
10
16.904488
20
1.017746
0
VERTEX
8
1
10
16.948242
20
1.058609
42
0.081560
0
VERTEX
8
1
10
17.175964
20
1.419754
42
0.038173
0
VERTEX
8
1
10
17.448616
20
2.220306
42
-0.000167
0
VERTEX
8
1
10
17.508224
20
2.433044
0
VERTEX
8
1
10
20.790222
20
2.433044
0
VERTEX
8
1
10
20.800377
20
2.410828
42
0.179311
0
VERTEX
8
1
10
20.982674
20
1.901413
0
VERTEX
8
1
10
21.015099
20
1.867538
42
0.231344
0
VERTEX
8
1
10
21.625748
20
1.683975
42
0.129174
0
VERTEX
8
1
10
22.060669
20
1.876892
42
0.098605
0
VERTEX
8
1
10
22.480812
20
2.364395
0
VERTEX
8
1
10
22.509407
20
2.413528
0
VERTEX
8
1
10
22.523796
20
2.433044
0
VERTEX
8
1
10
23.615028
20
2.433044
42
0.148348
0
VERTEX
8
1
10
23.703911
20
2.115479
42
0.221696
0
VERTEX
8
1
10
23.988884
20
1.964096
42
0.073015
0
VERTEX
8
1
10
24.269821
20
1.983505
42
0.232103
0
VERTEX
8
1
10
24.331818
20
2.068054
42
0.384508
0
VERTEX
8
1
10
24.276474
20
2.134888
42
0.044502
0
VERTEX
8
1
10
24.116104
20
2.144409
42
-0.305061
0
VERTEX
8
1
10
23.961250
20
2.297668
42
-0.061780
0
VERTEX
8
1
10
23.944931
20
2.413254
0
VERTEX
8
1
10
23.948357
20
2.433044
0
VERTEX
8
1
10
30.549034
20
2.433044
0
VERTEX
8
1
10
30.563919
20
2.423218
42
0.144883
0
VERTEX
8
1
10
30.695351
20
2.098328
42
0.192674
0
VERTEX
8
1
10
31.020004
20
1.940079
42
0.063558
0
VERTEX
8
1
10
31.265533
20
1.946365
42
0.211413
0
VERTEX
8
1
10
31.332916
20
2.024002
42
0.279490
0
VERTEX
8
1
10
31.296692
20
2.100540
0
VERTEX
8
1
10
31.279327
20
2.114334
42
-0.116615
0
VERTEX
8
1
10
31.074158
20
2.146988
42
-0.228892
0
VERTEX
8
1
10
30.927177
20
2.349899
42
-0.042460
0
VERTEX
8
1
10
30.913506
20
2.433044
0
VERTEX
8
1
10
31.494911
20
2.433044
42
0.049871
0
VERTEX
8
1
10
31.642464
20
1.626144
42
0.054960
0
VERTEX
8
1
10
31.852165
20
1.230301
0
VERTEX
8
1
10
31.849686
20
1.216156
42
0.042178
0
VERTEX
8
1
10
31.003899
20
1.267960
42
0.068580
0
VERTEX
8
1
10
30.625648
20
1.207275
42
0.126717
0
VERTEX
8
1
10
30.442276
20
1.094116
0
VERTEX
8
1
10
30.408463
20
1.040482
0
VERTEX
8
1
10
30.390862
20
0.977951
0
VERTEX
8
1
10
30.391029
20
0.905945
0
VERTEX
8
1
10
30.401146
20
0.853806
42
0.181069
0
VERTEX
8
1
10
30.483322
20
0.770233
42
0.052639
0
VERTEX
8
1
10
30.744217
20
0.658005
42
0.030754
0
VERTEX
8
1
10
31.476784
20
0.472397
42
0.044427
0
VERTEX
8
1
10
33.963089
20
0.210129
42
0.026585
0
VERTEX
8
1
10
34.740227
20
0.243103
0
VERTEX
8
1
10
34.968140
20
0.273148
0
VERTEX
8
1
10
35.175613
20
0.313797
0
VERTEX
8
1
10
35.359703
20
0.365723
0
VERTEX
8
1
10
35.391670
20
0.394882
0
VERTEX
8
1
10
35.401901
20
0.417419
0
VERTEX
8
1
10
35.408653
20
0.437225
0
VERTEX
8
1
10
35.412277
20
0.454483
42
0.513147
0
VERTEX
8
1
10
35.339996
20
0.525589
0
VERTEX
8
1
10
35.332474
20
0.525406
42
-0.045367
0
VERTEX
8
1
10
35.160263
20
0.476532
42
-0.038754
0
VERTEX
8
1
10
34.570763
20
0.403000
42
-0.028405
0
VERTEX
8
1
10
33.427734
20
0.404205
42
-0.013470
0
VERTEX
8
1
10
32.419968
20
0.482254
0
VERTEX
8
1
10
32.109352
20
0.524979
42
0.014033
0
VERTEX
8
1
10
31.085281
20
0.750458
0
VERTEX
8
1
10
31.038536
20
0.761414
42
-0.160754
0
VERTEX
8
1
10
30.789955
20
0.899033
42
-0.152857
0
VERTEX
8
1
10
30.746124
20
0.958389
0
VERTEX
8
1
10
30.747330
20
0.974121
0
VERTEX
8
1
10
30.757225
20
0.989380
0
VERTEX
8
1
10
30.777763
20
1.003830
0
VERTEX
8
1
10
30.810822
20
1.017075
42
-0.062696
0
VERTEX
8
1
10
31.106850
20
1.050064
42
-0.020485
0
VERTEX
8
1
10
31.756958
20
1.032394
0
VERTEX
8
1
10
31.989197
20
1.017120
0
VERTEX
8
1
10
32.081902
20
0.956680
42
0.192534
0
VERTEX
8
1
10
33.226685
20
0.486847
0
VERTEX
8
1
10
33.290718
20
0.491608
42
0.077050
0
VERTEX
8
1
10
34.155769
20
0.812424
42
0.094995
0
VERTEX
8
1
10
34.745255
20
1.305191
42
0.097787
0
VERTEX
8
1
10
34.938286
20
1.658279
42
0.006712
0
VERTEX
8
1
10
34.952202
20
1.733673
0
VERTEX
8
1
10
34.972343
20
1.740402
0
VERTEX
8
1
10
34.986298
20
1.748260
0
VERTEX
8
1
10
35.001137
20
1.759323
42
0.105653
0
VERTEX
8
1
10
35.200409
20
2.061172
42
-0.110550
0
VERTEX
8
1
10
35.419083
20
2.415573
42
-0.164893
0
VERTEX
8
1
10
35.512138
20
2.465912
42
-0.298268
0
VERTEX
8
1
10
35.568481
20
2.434509
0
VERTEX
8
1
10
35.566986
20
2.381470
0
VERTEX
8
1
10
35.561249
20
2.323761
0
VERTEX
8
1
10
35.551620
20
2.262177
42
-0.073236
0
VERTEX
8
1
10
35.252563
20
1.451080
42
-0.054626
0
VERTEX
8
1
10
35.190643
20
1.363983
42
-0.277484
0
VERTEX
8
1
10
35.094711
20
1.355835
42
-0.047516
0
VERTEX
8
1
10
34.933937
20
1.440048
42
0.147706
0
VERTEX
8
1
10
34.880737
20
1.453827
0
VERTEX
8
1
10
34.870995
20
1.446045
0
VERTEX
8
1
10
34.866241
20
1.430038
42
0.105047
0
VERTEX
8
1
10
34.887856
20
1.320343
0
VERTEX
8
1
10
34.929352
20
1.243210
0
VERTEX
8
1
10
34.988556
20
1.173111
0
VERTEX
8
1
10
35.047577
20
1.129944
0
VERTEX
8
1
10
35.106140
20
1.111237
0
VERTEX
8
1
10
35.163971
20
1.114594
0
VERTEX
8
1
10
35.220810
20
1.137619
0
VERTEX
8
1
10
35.276375
20
1.177887
42
0.086170
0
VERTEX
8
1
10
35.480598
20
1.463028
0
VERTEX
8
1
10
35.525780
20
1.553284
42
0.042034
0
VERTEX
8
1
10
35.802582
20
2.323975
42
0.097682
0
VERTEX
8
1
10
35.821259
20
2.584366
42
0.347110
0
VERTEX
8
1
10
35.657394
20
2.747635
42
0.115292
0
VERTEX
8
1
10
35.503761
20
2.738205
0
VERTEX
8
1
10
35.452194
20
2.723190
42
0.235093
0
VERTEX
8
1
10
35.003761
20
2.304596
0
VERTEX
8
1
10
34.996330
20
2.294647
42
0.010398
0
VERTEX
8
1
10
34.972908
20
2.748566
42
0.473064
0
VERTEX
8
1
10
34.914032
20
2.800049
42
0.118479
0
VERTEX
8
1
10
34.760979
20
2.737228
42
-0.073970
0
VERTEX
8
1
10
34.707260
20
1.796921
0
VERTEX
8
1
10
34.676865
20
1.713928
42
-0.090499
0
VERTEX
8
1
10
34.330589
20
1.214340
42
-0.102573
0
VERTEX
8
1
10
33.625671
20
0.723999
42
-0.111926
0
VERTEX
8
1
10
33.171928
20
0.645767
42
-0.167612
0
VERTEX
8
1
10
32.416885
20
0.939728
42
-0.094907
0
VERTEX
8
1
10
32.020981
20
1.421326
0
VERTEX
8
1
10
31.992371
20
1.483704
42
-0.061557
0
VERTEX
8
1
10
31.841545
20
2.099640
42
-0.023432
0
VERTEX
8
1
10
31.790756
20
2.677353
0
VERTEX
8
1
10
31.798080
20
2.695984
42
0.092342
0
VERTEX
8
1
10
31.974007
20
2.872192
42
0.004652
0
VERTEX
8
1
10
34.144951
20
2.826660
42
0.058235
0
VERTEX
8
1
10
34.653656
20
2.911255
42
0.102128
0
VERTEX
8
1
10
34.775894
20
2.973480
42
0.407606
0
VERTEX
8
1
10
34.788200
20
3.041199
42
0.220066
0
VERTEX
8
1
10
34.690826
20
3.120834
42
0.059372
0
VERTEX
8
1
10
34.430916
20
3.162476
0
VERTEX
8
1
10
34.382057
20
3.166107
0
VERTEX
8
1
10
34.424408
20
3.185608
42
0.082107
0
VERTEX
8
1
10
34.943314
20
3.452560
42
0.108690
0
VERTEX
8
1
10
35.144753
20
3.678268
0
VERTEX
8
1
10
35.154816
20
3.701172
42
0.101096
0
VERTEX
8
1
10
35.183037
20
4.267746
0
VERTEX
8
1
10
35.182007
20
4.283310
42
0.553936
0
VERTEX
8
1
10
35.140785
20
4.328415
42
0.097094
0
VERTEX
8
1
10
35.021973
20
4.293488
42
-0.099770
0
VERTEX
8
1
10
34.985756
20
3.793228
0
VERTEX
8
1
10
34.969658
20
3.753342
0
VERTEX
8
1
10
34.947906
20
3.715195
0
VERTEX
8
1
10
34.921623
20
3.676727
0
VERTEX
8
1
10
34.891113
20
3.638107
0
VERTEX
8
1
10
34.856682
20
3.599548
42
-0.130291
0
VERTEX
8
1
10
34.130524
20
3.180557
42
-0.002911
0
VERTEX
8
1
10
33.488220
20
3.204971
42
-0.140190
0
VERTEX
8
1
10
32.983284
20
3.543671
42
-0.106423
0
VERTEX
8
1
10
32.844894
20
3.860062
42
-0.052303
0
VERTEX
8
1
10
32.784332
20
4.370972
42
0.003439
0
VERTEX
8
1
10
34.577431
20
4.343643
42
0.058213
0
VERTEX
8
1
10
34.987930
20
4.402527
42
0.194381
0
VERTEX
8
1
10
35.047897
20
4.440170
0
VERTEX
8
1
10
35.047539
20
4.451324
42
0.243028
0
VERTEX
8
1
10
34.977058
20
4.502014
42
0.050476
0
VERTEX
8
1
10
34.701836
20
4.530609
42
0.007196
0
VERTEX
8
1
10
33.580338
20
4.556091
42
0.039182
0
VERTEX
8
1
10
32.936203
20
4.514862
42
0.089810
0
VERTEX
8
1
10
32.766113
20
4.454208
0
VERTEX
8
1
10
32.753296
20
4.450912
42
0.119838
0
VERTEX
8
1
10
32.589096
20
4.414047
0
VERTEX
8
1
10
32.584549
20
4.410355
42
0.093837
0
VERTEX
8
1
10
32.561455
20
4.208221
42
0.089416
0
VERTEX
8
1
10
32.680389
20
3.677933
42
0.154029
0
VERTEX
8
1
10
33.183807
20
3.214081
42
0.031910
0
VERTEX
8
1
10
32.228928
20
3.182938
0
VERTEX
8
1
10
32.193489
20
3.178528
0
VERTEX
8
1
10
32.158112
20
3.173691
0
VERTEX
8
1
10
32.158134
20
3.181793
42
0.009390
0
VERTEX
8
1
10
32.310188
20
3.498230
0
VERTEX
8
1
10
32.304947
20
3.511917
42
0.511772
0
VERTEX
8
1
10
32.184601
20
3.555939
42
0.066999
0
VERTEX
8
1
10
32.112320
20
3.433640
0
VERTEX
8
1
10
32.072083
20
3.351089
0
VERTEX
8
1
10
32.073860
20
3.351089
42
-0.021610
0
VERTEX
8
1
10
31.955818
20
3.131561
42
0.103667
0
VERTEX
8
1
10
31.771080
20
3.035080
0
VERTEX
8
1
10
31.763123
20
3.030670
42
-0.064674
0
VERTEX
8
1
10
31.674553
20
3.014969
42
-0.045889
0
VERTEX
8
1
10
31.763725
20
3.496384
42
0.000904
0
VERTEX
8
1
10
31.881645
20
3.968384
42
-0.109289
0
VERTEX
8
1
10
32.171227
20
3.918564
42
-0.080375
0
VERTEX
8
1
10
32.258316
20
3.855759
42
0.425249
0
VERTEX
8
1
10
32.347641
20
3.885834
0
VERTEX
8
1
10
32.373970
20
3.885849
0
VERTEX
8
1
10
32.349655
20
3.939835
42
0.236009
0
VERTEX
8
1
10
32.096939
20
4.145599
42
0.051609
0
VERTEX
8
1
10
31.924202
20
4.169693
42
0.074169
0
VERTEX
8
1
10
31.947777
20
4.410568
42
0.165083
0
VERTEX
8
1
10
31.893532
20
4.534790
42
0.038988
0
VERTEX
8
1
10
32.362114
20
4.571472
42
0.066688
0
VERTEX
8
1
10
32.607689
20
4.759766
42
0.058946
0
VERTEX
8
1
10
33.088066
20
5.336700
0
VERTEX
8
1
10
33.104530
20
5.366699
0
VERTEX
8
1
10
33.122391
20
5.381760
0
VERTEX
8
1
10
33.156425
20
5.382797
0
VERTEX
8
1
10
33.198471
20
5.388367
42
0.144657
0
VERTEX
8
1
10
33.972298
20
5.813461
42
0.093803
0
VERTEX
8
1
10
34.163185
20
6.104218
0
VERTEX
8
1
10
34.184738
20
6.109085
42
0.016671
0
VERTEX
8
1
10
34.562248
20
5.155212
0
VERTEX
8
1
10
34.586952
20
5.137283
0
VERTEX
8
1
10
34.604317
20
5.152908
0
VERTEX
8
1
10
34.614975
20
5.193665
0
VERTEX
8
1
10
34.619774
20
5.256180
42
0.026842
0
VERTEX
8
1
10
34.571548
20
5.904572
42
-0.022662
0
VERTEX
8
1
10
34.520943
20
6.506409
0
VERTEX
8
1
10
34.524872
20
6.552155
0
VERTEX
8
1
10
34.534546
20
6.573486
0
VERTEX
8
1
10
34.553551
20
6.561707
0
VERTEX
8
1
10
34.601990
20
6.480606
42
-0.021994
0
VERTEX
8
1
10
34.992409
20
5.669571
42
0.013977
0
VERTEX
8
1
10
35.267639
20
5.078171
0
VERTEX
8
1
10
35.296432
20
5.028641
0
VERTEX
8
1
10
35.318428
20
4.999603
0
VERTEX
8
1
10
35.332901
20
4.993484
0
VERTEX
8
1
10
35.339134
20
5.012726
0
VERTEX
8
1
10
35.335587
20
5.063675
42
0.020228
0
VERTEX
8
1
10
35.222603
20
5.633621
0
VERTEX
8
1
10
35.149834
20
5.953003
42
-0.031757
0
VERTEX
8
1
10
35.064980
20
6.400269
0
VERTEX
8
1
10
35.066757
20
6.427490
0
VERTEX
8
1
10
35.074928
20
6.436050
0
VERTEX
8
1
10
35.090179
20
6.424026
0
VERTEX
8
1
10
35.115204
20
6.390350
0
VERTEX
8
1
10
35.146866
20
6.345428
0
VERTEX
8
1
10
35.182571
20
6.292572
42
-0.004168
0
VERTEX
8
1
10
35.776489
20
5.339767
0
VERTEX
8
1
10
35.802071
20
5.300507
0
VERTEX
8
1
10
35.822273
20
5.270950
0
VERTEX
8
1
10
35.836632
20
5.288971
0
VERTEX
8
1
10
35.841476
20
5.330597
42
0.066518
0
VERTEX
8
1
10
35.775795
20
5.635895
0
VERTEX
8
1
10
35.741547
20
5.739731
42
0.039014
0
VERTEX
8
1
10
35.055687
20
7.249649
42
0.023031
0
VERTEX
8
1
10
34.896568
20
7.484268
42
-0.243304
0
VERTEX
8
1
10
34.863167
20
7.651031
0
VERTEX
8
1
10
34.879295
20
7.701019
0
VERTEX
8
1
10
34.878120
20
7.721451
0
VERTEX
8
1
10
34.873901
20
7.749374
0
VERTEX
8
1
10
34.866737
20
7.784485
0
VERTEX
8
1
10
34.856758
20
7.826416
42
0.023393
0
VERTEX
8
1
10
34.506584
20
8.864243
0
VERTEX
8
1
10
34.478249
20
8.938660
0
VERTEX
8
1
10
34.478462
20
8.982788
42
0.036803
0
VERTEX
8
1
10
35.163963
20
9.009659
42
0.009153
0
VERTEX
8
1
10
36.487175
20
8.943100
42
0.056215
0
VERTEX
8
1
10
36.659248
20
8.950531
0
VERTEX
8
1
10
36.673279
20
8.956284
42
0.496810
0
VERTEX
8
1
10
36.685913
20
9.007675
42
0.098582
0
SEQEND
0
POLYLINE
8
1
66
1
70
1
0
VERTEX
8
1
10
30.829628
20
16.089447
0
VERTEX
8
1
10
31.489578
20
16.089447
0
VERTEX
8
1
10
31.489578
20
15.747009
0
VERTEX
8
1
10
30.829628
20
15.747009
0
SEQEND
0
POLYLINE
8
1
66
1
70
1
0
VERTEX
8
1
10
20.152443
20
16.089447
0
VERTEX
8
1
10
20.812393
20
16.089447
0
VERTEX
8
1
10
20.812393
20
15.747009
0
VERTEX
8
1
10
20.152443
20
15.747009
0
SEQEND
0
POLYLINE
8
1
66
1
70
1
0
VERTEX
8
1
10
16.534309
20
1.542221
42
-0.081518
0
VERTEX
8
1
10
16.763863
20
1.910675
42
-0.027397
0
VERTEX
8
1
10
17.006599
20
2.171097
0
VERTEX
8
1
10
17.019531
20
2.158112
42
-0.022099
0
VERTEX
8
1
10
16.781906
20
1.463837
0
VERTEX
8
1
10
16.755615
20
1.403000
0
VERTEX
8
1
10
16.729797
20
1.348038
42
-0.153563
0
VERTEX
8
1
10
16.611412
20
1.207382
42
-0.437841
0
VERTEX
8
1
10
16.543549
20
1.227966
42
-0.205054
0
VERTEX
8
1
10
16.520248
20
1.490601
42
-0.012455
0
SEQEND
0
POLYLINE
8
1
66
1
70
1
0
VERTEX
8
1
10
35.124390
20
13.650665
42
-0.066954
0
VERTEX
8
1
10
34.820778
20
13.898926
42
-0.041441
0
VERTEX
8
1
10
34.176376
20
14.675919
0
VERTEX
8
1
10
34.135765
20
14.739349
0
VERTEX
8
1
10
34.096115
20
14.807022
0
VERTEX
8
1
10
34.057510
20
14.878372
0
VERTEX
8
1
10
34.019974
20
14.952789
0
VERTEX
8
1
10
33.983620
20
15.029648
42
-0.040375
0
VERTEX
8
1
10
33.601715
20
16.138474
0
VERTEX
8
1
10
33.728699
20
16.144653
42
-0.037490
0
VERTEX
8
1
10
34.783485
20
14.580490
42
-0.045587
0
VERTEX
8
1
10
35.125916
20
13.836731
42
-0.071747
0
VERTEX
8
1
10
35.163269
20
13.655045
0
SEQEND
0
POLYLINE
8
1
66
1
70
1
0
VERTEX
8
1
10
34.025414
20
14.333450
0
VERTEX
8
1
10
34.025520
20
14.332321
0
VERTEX
8
1
10
33.611771
20
14.332321
0
VERTEX
8
1
10
33.611420
20
14.334122
0
VERTEX
8
1
10
33.611420
20
14.873810
0
VERTEX
8
1
10
33.610146
20
14.873917
0
VERTEX
8
1
10
33.363441
20
14.873917
0
VERTEX
8
1
10
33.363441
20
16.217896
42
0.059976
0
VERTEX
8
1
10
33.644920
20
15.019547
42
0.072749
0
VERTEX
8
1
10
33.991684
20
14.376602
0
SEQEND
0
POLYLINE
8
1
66
1
70
1
0
VERTEX
8
1
10
32.005821
20
18.087158
42
-0.017769
0
VERTEX
8
1
10
31.706131
20
18.440170
42
-0.144759
0
VERTEX
8
1
10
31.627449
20
18.635513
42
-0.325139
0
VERTEX
8
1
10
31.735031
20
18.787231
42
-0.235989
0
VERTEX
8
1
10
32.037575
20
18.765045
42
-0.110551
0
VERTEX
8
1
10
32.280685
20
18.541046
42
-0.003377
0
VERTEX
8
1
10
33.413559
20
16.768509
42
-0.138138
0
VERTEX
8
1
10
33.455284
20
16.647034
42
-0.422878
0
VERTEX
8
1
10
33.385689
20
16.591431
42
-0.054168
0
VERTEX
8
1
10
33.363541
20
16.592453
42
-0.004655
0
SEQEND
0
POLYLINE
8
1
66
1
70
1
0
VERTEX
8
1
10
33.257164
20
14.409073
0
VERTEX
8
1
10
33.261642
20
14.424362
0
VERTEX
8
1
10
33.265556
20
14.439941
0
VERTEX
8
1
10
33.269417
20
14.436203
42
0.059592
0
VERTEX
8
1
10
33.318375
20
14.332321
0
VERTEX
8
1
10
33.225853
20
14.332321
0
VERTEX
8
1
10
33.226364
20
14.336884
42
0.049611
0
SEQEND
0
POLYLINE
8
1
66
1
70
1
0
VERTEX
8
1
10
32.415512
20
16.089447
0
VERTEX
8
1
10
33.097466
20
16.089447
0
VERTEX
8
1
10
33.097466
20
14.873917
0
VERTEX
8
1
10
32.943474
20
14.873917
0
VERTEX
8
1
10
32.943474
20
14.332321
0
VERTEX
8
1
10
32.665497
20
14.332321
0
VERTEX
8
1
10
32.665497
20
14.873917
0
VERTEX
8
1
10
32.415512
20
14.873917
0
SEQEND
0
POLYLINE
8
1
66
1
70
1
0
VERTEX
8
1
10
32.299355
20
14.384232
42
0.038879
0
VERTEX
8
1
10
32.317520
20
14.445206
42
0.055769
0
VERTEX
8
1
10
32.369438
20
14.332336
0
VERTEX
8
1
10
32.275459
20
14.332321
42
0.025150
0
SEQEND
0
POLYLINE
8
1
66
1
70
1
0
VERTEX
8
1
10
29.970612
20
14.343124
0
VERTEX
8
1
10
29.976242
20
14.332336
0
VERTEX
8
1
10
29.881439
20
14.332321
42
0.074569
0
VERTEX
8
1
10
29.925705
20
14.445206
42
0.057648
0
SEQEND
0
POLYLINE
8
1
66
1
70
1
0
VERTEX
8
1
10
29.081764
20
16.089447
0
VERTEX
8
1
10
29.777718
20
16.089447
0
VERTEX
8
1
10
29.777718
20
14.873917
0
VERTEX
8
1
10
29.507729
20
14.873917
0
VERTEX
8
1
10
29.507729
20
14.332321
0
VERTEX
8
1
10
29.363739
20
14.332321
0
VERTEX
8
1
10
29.363739
20
14.873917
0
VERTEX
8
1
10
29.081764
20
14.873917
0
SEQEND
0
POLYLINE
8
1
66
1
70
1
0
VERTEX
8
1
10
28.922722
20
14.332321
42
0.078054
0
VERTEX
8
1
10
28.963768
20
14.445206
42
0.068843
0
VERTEX
8
1
10
29.012062
20
14.332336
0
SEQEND
0
POLYLINE
8
1
66
1
70
1
0
VERTEX
8
1
10
25.001022
20
14.332321
42
0.077935
0
VERTEX
8
1
10
25.042068
20
14.445206
42
0.068958
0
VERTEX
8
1
10
25.090363
20
14.332336
0
SEQEND
0
POLYLINE
8
1
66
1
70
1
0
VERTEX
8
1
10
23.866905
20
14.332321
42
0.092989
0
VERTEX
8
1
10
23.913193
20
14.445206
42
0.077960
0
VERTEX
8
1
10
23.957558
20
14.332336
0
SEQEND
0
POLYLINE
8
1
66
1
70
1
0
VERTEX
8
1
10
22.918228
20
15.052124
0
VERTEX
8
1
10
22.918228
20
15.922150
0
VERTEX
8
1
10
23.311028
20
15.922150
42
-0.227981
0
VERTEX
8
1
10
23.549934
20
15.799637
42
-0.155741
0
VERTEX
8
1
10
23.711060
20
15.432297
0
VERTEX
8
1
10
23.712051
20
15.411072
42
-0.011395
0
VERTEX
8
1
10
23.708038
20
15.051666
0
VERTEX
8
1
10
23.446190
20
15.051682
0
VERTEX
8
1
10
23.446190
20
14.332687
0
VERTEX
8
1
10
23.444054
20
14.332321
0
VERTEX
8
1
10
23.180756
20
14.332321
0
VERTEX
8
1
10
23.180222
20
14.335602
0
VERTEX
8
1
10
23.180214
20
15.048416
0
VERTEX
8
1
10
23.179680
20
15.051666
0
VERTEX
8
1
10
22.920326
20
15.051682
0
SEQEND
0
POLYLINE
8
1
66
1
70
1
0
VERTEX
8
1
10
22.761757
20
14.332336
0
VERTEX
8
1
10
22.670082
20
14.332321
42
0.077073
0
VERTEX
8
1
10
22.717247
20
14.445206
42
0.077807
0
SEQEND
0
POLYLINE
8
1
66
1
70
1
0
VERTEX
8
1
10
19.217171
20
14.357407
42
0.064224
0
VERTEX
8
1
10
19.248512
20
14.445206
42
0.055202
0
VERTEX
8
1
10
19.299072
20
14.332336
0
VERTEX
8
1
10
19.204247
20
14.332321
0
SEQEND
0
POLYLINE
8
1
66
1
70
1
0
VERTEX
8
1
10
18.404572
20
16.089447
0
VERTEX
8
1
10
19.100525
20
16.089447
0
VERTEX
8
1
10
19.100525
20
14.873917
0
VERTEX
8
1
10
18.830544
20
14.873917
0
VERTEX
8
1
10
18.830544
20
14.332321
0
VERTEX
8
1
10
18.686546
20
14.332321
0
VERTEX
8
1
10
18.686546
20
14.873917
0
VERTEX
8
1
10
18.404572
20
14.873917
0
SEQEND
0
POLYLINE
8
1
66
1
70
1
0
VERTEX
8
1
10
18.334877
20
14.332336
0
VERTEX
8
1
10
18.245529
20
14.332321
42
0.077994
0
VERTEX
8
1
10
18.286583
20
14.445206
42
0.072268
0
SEQEND
0
POLYLINE
8
1
66
1
70
1
0
VERTEX
8
1
10
16.754387
20
14.389435
42
0.041601
0
VERTEX
8
1
10
16.774696
20
14.445206
42
0.071550
0
VERTEX
8
1
10
16.815018
20
14.332336
0
VERTEX
8
1
10
16.724991
20
14.332321
42
0.017560
0
SEQEND
0
POLYLINE
8
1
66
1
70
1
0
VERTEX
8
1
10
8.138565
20
7.152023
42
-0.026457
0
VERTEX
8
1
10
7.469322
20
7.190796
0
VERTEX
8
1
10
7.501312
20
7.195602
42
0.049812
0
VERTEX
8
1
10
10.154480
20
7.630981
42
0.032652
0
VERTEX
8
1
10
10.521996
20
7.751602
0
VERTEX
8
1
10
10.536278
20
7.759369
0
VERTEX
8
1
10
10.542824
20
7.753433
42
-0.061418
0
VERTEX
8
1
10
10.737228
20
7.470154
0
VERTEX
8
1
10
10.734924
20
7.457916
42
-0.047527
0
VERTEX
8
1
10
10.061546
20
7.290482
42
-0.030051
0
VERTEX
8
1
10
8.748222
20
7.166458
42
-0.013233
0
SEQEND
0
POLYLINE
8
1
66
1
70
1
0
VERTEX
8
1
10
6.315567
20
7.237091
0
VERTEX
8
1
10
6.359810
20
7.220367
42
0.053315
0
VERTEX
8
1
10
7.333984
20
7.002548
42
0.041842
0
VERTEX
8
1
10
8.524948
20
6.949722
42
0.035251
0
VERTEX
8
1
10
10.541824
20
7.134171
42
0.009878
0
VERTEX
8
1
10
10.846680
20
7.194778
42
-0.009828
0
VERTEX
8
1
10
10.863167
20
7.133713
42
-0.049472
0
VERTEX
8
1
10
9.619576
20
6.684799
42
-0.058401
0
VERTEX
8
1
10
8.385513
20
6.577057
42
-0.046353
0
VERTEX
8
1
10
6.957367
20
6.734436
42
-0.105172
0
VERTEX
8
1
10
6.427704
20
6.965530
42
-0.123186
0
VERTEX
8
1
10
6.183182
20
7.258820
0
VERTEX
8
1
10
6.184006
20
7.263748
42
0.014268
0
SEQEND
0
POLYLINE
8
1
66
1
70
1
0
VERTEX
8
1
10
8.944473
20
6.074509
42
-0.032126
0
VERTEX
8
1
10
7.969917
20
6.072815
42
-0.083477
0
VERTEX
8
1
10
6.959091
20
6.308853
42
-0.047505
0
VERTEX
8
1
10
6.520790
20
6.550934
0
VERTEX
8
1
10
6.530815
20
6.552353
42
0.068209
0
VERTEX
8
1
10
7.405846
20
6.363602
42
0.040792
0
VERTEX
8
1
10
8.502457
20
6.361099
42
0.069412
0
VERTEX
8
1
10
10.473747
20
6.762665
42
0.022187
0
VERTEX
8
1
10
10.900047
20
6.937988
42
-0.056668
0
VERTEX
8
1
10
10.906006
20
6.413147
0
VERTEX
8
1
10
10.889709
20
6.400909
42
-0.071998
0
VERTEX
8
1
10
9.171516
20
6.087097
42
-0.001547
0
SEQEND
0
POLYLINE
8
1
66
1
70
1
0
VERTEX
8
1
10
6.161621
20
6.602448
42
0.219394
0
VERTEX
8
1
10
6.174660
20
6.370621
0
VERTEX
8
1
10
6.142723
20
6.368576
42
0.061524
0
VERTEX
8
1
10
5.554558
20
6.333801
42
0.111090
0
VERTEX
8
1
10
5.288414
20
6.219299
42
0.261856
0
VERTEX
8
1
10
5.180931
20
5.962936
0
VERTEX
8
1
10
5.182816
20
5.937149
42
-0.024065
0
VERTEX
8
1
10
5.019661
20
5.908844
42
-0.013592
0
VERTEX
8
1
10
4.408371
20
5.817429
42
-0.098640
0
VERTEX
8
1
10
3.788567
20
5.861252
42
-0.098881
0
VERTEX
8
1
10
3.306252
20
6.124832
0
VERTEX
8
1
10
3.234802
20
6.185059
0
VERTEX
8
1
10
3.162369
20
6.251755
0
VERTEX
8
1
10
3.240608
20
6.234863
0
VERTEX
8
1
10
3.325523
20
6.220123
0
VERTEX
8
1
10
3.416626
20
6.207565
0
VERTEX
8
1
10
3.513428
20
6.197220
42
0.085206
0
VERTEX
8
1
10
5.551460
20
6.391190
42
0.059241
0
VERTEX
8
1
10
6.175186
20
6.643661
0
VERTEX
8
1
10
6.187599
20
6.647736
42
0.070099
0
SEQEND
0
CIRCLE
8
1
10
5.218995
20
4.737522
40
0.002562
0
POLYLINE
8
1
66
1
70
1
0
VERTEX
8
1
10
5.173500
20
3.437607
0
VERTEX
8
1
10
5.154358
20
3.451889
0
VERTEX
8
1
10
5.137894
20
3.463715
42
-0.230813
0
VERTEX
8
1
10
5.157379
20
3.618637
0
VERTEX
8
1
10
5.165474
20
3.633286
0
VERTEX
8
1
10
5.174294
20
3.647507
42
0.087447
0
VERTEX
8
1
10
5.986496
20
3.223206
42
0.054084
0
VERTEX
8
1
10
7.052757
20
3.005203
0
VERTEX
8
1
10
7.165848
20
2.993988
42
0.074203
0
VERTEX
8
1
10
9.340462
20
3.092728
42
0.026438
0
VERTEX
8
1
10
9.884895
20
3.233398
42
0.020109
0
VERTEX
8
1
10
9.831192
20
2.734177
42
-0.056431
0
VERTEX
8
1
10
9.222351
20
2.633698
42
-0.033282
0
VERTEX
8
1
10
8.082138
20
2.641159
42
-0.021408
0
VERTEX
8
1
10
6.948593
20
2.756577
42
-0.060153
0
VERTEX
8
1
10
5.804260
20
3.070297
42
-0.067201
0
SEQEND
0
POLYLINE
8
1
66
1
70
1
0
VERTEX
8
1
10
3.351646
20
4.986267
42
-0.002015
0
VERTEX
8
1
10
4.267220
20
5.419449
0
VERTEX
8
1
10
4.347092
20
5.460495
42
0.041980
0
VERTEX
8
1
10
4.259041
20
5.541504
0
VERTEX
8
1
10
4.260544
20
5.543289
42
0.090319
0
VERTEX
8
1
10
5.024902
20
5.666229
0
VERTEX
8
1
10
5.033691
20
5.666656
42
0.031949
0
VERTEX
8
1
10
5.049751
20
5.567459
42
0.294211
0
VERTEX
8
1
10
4.985687
20
5.529114
42
-0.057618
0
VERTEX
8
1
10
4.706848
20
5.248001
42
-0.044052
0
VERTEX
8
1
10
3.888443
20
4.691879
42
-0.029350
0
VERTEX
8
1
10
2.538338
20
4.026962
0
VERTEX
8
1
10
2.342232
20
3.949463
42
-0.024490
0
VERTEX
8
1
10
1.426071
20
3.696106
42
-0.062624
0
VERTEX
8
1
10
1.167000
20
3.667343
0
VERTEX
8
1
10
1.142334
20
3.670578
42
-0.393868
0
VERTEX
8
1
10
1.090256
20
3.718262
42
-0.175862
0
VERTEX
8
1
10
1.147949
20
3.815247
0
VERTEX
8
1
10
1.180183
20
3.843246
0
VERTEX
8
1
10
1.222404
20
3.875183
42
-0.029703
0
VERTEX
8
1
10
1.884003
20
4.258102
42
-0.008940
0
SEQEND
0
POLYLINE
8
1
66
1
70
1
0
VERTEX
8
1
10
5.166733
20
5.207092
42
0.190813
0
VERTEX
8
1
10
5.138107
20
4.932144
42
0.082560
0
VERTEX
8
1
10
5.129471
20
4.903549
0
VERTEX
8
1
10
5.121086
20
4.893127
42
-0.064075
0
VERTEX
8
1
10
4.353050
20
4.218460
42
-0.038157
0
VERTEX
8
1
10
3.714485
20
3.841171
0
VERTEX
8
1
10
3.517433
20
3.736771
42
-0.038039
0
VERTEX
8
1
10
2.760056
20
3.388290
0
VERTEX
8
1
10
2.665291
20
3.357498
42
-0.147604
0
VERTEX
8
1
10
1.526497
20
3.339981
0
VERTEX
8
1
10
1.408592
20
3.375458
0
VERTEX
8
1
10
1.287369
20
3.418427
42
0.043732
0
VERTEX
8
1
10
2.103172
20
3.621658
42
0.056627
0
VERTEX
8
1
10
4.105415
20
4.547775
42
0.041658
0
VERTEX
8
1
10
4.792160
20
5.051025
42
0.043040
0
VERTEX
8
1
10
5.114670
20
5.391876
42
0.032566
0
VERTEX
8
1
10
5.167099
20
5.298035
0
VERTEX
8
1
10
5.202087
20
5.268585
0
VERTEX
8
1
10
5.201843
20
5.265427
42
0.035156
0
SEQEND
0
POLYLINE
8
1
66
1
70
1
0
VERTEX
8
1
10
1.397690
20
2.978424
0
VERTEX
8
1
10
1.412041
20
2.986160
0
VERTEX
8
1
10
1.464951
20
2.982681
42
0.128809
0
VERTEX
8
1
10
3.638481
20
3.464096
42
0.041839
0
VERTEX
8
1
10
4.306747
20
3.899094
42
0.039951
0
VERTEX
8
1
10
5.031738
20
4.517532
0
VERTEX
8
1
10
5.049904
20
4.536591
0
VERTEX
8
1
10
5.067902
20
4.555801
0
VERTEX
8
1
10
5.073669
20
4.557465
42
0.186573
0
VERTEX
8
1
10
5.111206
20
4.388443
42
0.213078
0
VERTEX
8
1
10
4.942421
20
4.336304
42
0.202483
0
VERTEX
8
1
10
4.889511
20
4.164780
42
0.063502
0
VERTEX
8
1
10
4.915520
20
4.010788
42
-0.033028
0
VERTEX
8
1
10
4.430954
20
3.553650
0
VERTEX
8
1
10
4.359322
20
3.499359
42
-0.066672
0
VERTEX
8
1
10
3.323372
20
2.958862
42
-0.049678
0
VERTEX
8
1
10
2.209152
20
2.659592
0
VERTEX
8
1
10
2.142380
20
2.652145
42
-0.123514
0
VERTEX
8
1
10
1.696869
20
2.707306
42
-0.157550
0
SEQEND
0
POLYLINE
8
1
66
1
70
1
0
VERTEX
8
1
10
9.853722
20
1.905151
0
VERTEX
8
1
10
9.844803
20
1.898956
0
VERTEX
8
1
10
9.832382
20
1.891632
42
-0.044720
0
VERTEX
8
1
10
9.319084
20
1.706406
42
-0.034749
0
VERTEX
8
1
10
8.354980
20
1.503922
42
-0.060246
0
VERTEX
8
1
10
7.163048
20
1.533661
42
-0.049597
0
VERTEX
8
1
10
5.664665
20
1.888351
42
-0.104873
0
VERTEX
8
1
10
5.158173
20
2.190659
42
-0.170151
0
VERTEX
8
1
10
4.919724
20
2.634964
0
VERTEX
8
1
10
4.944748
20
2.626343
42
0.093838
0
VERTEX
8
1
10
7.126595
20
1.864548
42
0.056170
0
VERTEX
8
1
10
8.213356
20
1.832260
42
0.035567
0
VERTEX
8
1
10
9.349052
20
1.972198
42
0.055490
0
VERTEX
8
1
10
9.729973
20
2.089676
42
0.125454
0
VERTEX
8
1
10
9.832726
20
2.164154
42
0.427931
0
VERTEX
8
1
10
9.823959
20
2.226959
42
0.114672
0
VERTEX
8
1
10
9.736229
20
2.264664
42
-0.046139
0
VERTEX
8
1
10
9.162514
20
2.135178
42
-0.046648
0
VERTEX
8
1
10
7.995544
20
2.076630
0
VERTEX
8
1
10
7.636932
20
2.101990
42
-0.028356
0
VERTEX
8
1
10
6.605629
20
2.220566
42
-0.075959
0
VERTEX
8
1
10
5.656654
20
2.542801
42
-0.073341
0
VERTEX
8
1
10
5.022499
20
3.015060
42
-0.295507
0
VERTEX
8
1
10
5.002052
20
3.180161
42
-0.057636
0
VERTEX
8
1
10
5.039284
20
3.249374
42
0.081957
0
VERTEX
8
1
10
5.303940
20
3.056549
42
0.055052
0
VERTEX
8
1
10
6.187805
20
2.715088
42
0.046386
0
VERTEX
8
1
10
7.479172
20
2.478119
42
0.035193
0
VERTEX
8
1
10
9.478035
20
2.403259
42
0.015972
0
VERTEX
8
1
10
9.821144
20
2.428970
0
VERTEX
8
1
10
9.826820
20
2.407928
42
0.052952
0
VERTEX
8
1
10
9.924057
20
1.882965
42
0.169130
0
SEQEND
0
POLYLINE
8
1
66
1
70
1
0
VERTEX
8
1
10
5.359909
20
4.222977
42
0.088111
0
VERTEX
8
1
10
7.440819
20
3.519501
42
0.057497
0
VERTEX
8
1
10
8.590385
20
3.490982
42
0.036422
0
VERTEX
8
1
10
9.698517
20
3.634354
42
0.025868
0
VERTEX
8
1
10
9.978294
20
3.713104
42
0.012542
0
VERTEX
8
1
10
9.921982
20
3.452209
42
-0.049468
0
VERTEX
8
1
10
8.653656
20
3.156662
42
-0.059922
0
VERTEX
8
1
10
7.450409
20
3.192184
42
-0.048619
0
VERTEX
8
1
10
5.981499
20
3.542709
0
VERTEX
8
1
10
5.930763
20
3.562302
42
-0.110845
0
VERTEX
8
1
10
5.440689
20
3.879562
42
-0.092791
0
VERTEX
8
1
10
5.280327
20
4.126984
42
0.007521
0
SEQEND
0
CIRCLE
8
1
10
5.401146
20
4.615807
40
0.005193
0
POLYLINE
8
1
66
1
70
1
0
VERTEX
8
1
10
10.030754
20
3.912033
42
-0.053382
0
VERTEX
8
1
10
9.168938
20
3.752579
42
-0.037088
0
VERTEX
8
1
10
8.244499
20
3.736115
42
-0.012663
0
VERTEX
8
1
10
7.288246
20
3.818008
42
-0.060682
0
VERTEX
8
1
10
6.298943
20
4.048431
42
-0.081594
0
VERTEX
8
1
10
5.548203
20
4.482025
42
0.029386
0
VERTEX
8
1
10
5.568253
20
4.521072
42
0.055332
0
VERTEX
8
1
10
6.738579
20
4.141449
42
0.032532
0
VERTEX
8
1
10
7.624702
20
4.005920
42
0.034320
0
VERTEX
8
1
10
9.581284
20
3.929642
42
0.023279
0
VERTEX
8
1
10
10.046913
20
3.967346
0
SEQEND
0
POLYLINE
8
1
66
1
70
1
0
VERTEX
8
1
10
10.168457
20
4.324677
42
0.079028
0
VERTEX
8
1
10
10.068344
20
4.293869
42
-0.064052
0
VERTEX
8
1
10
9.510384
20
4.174728
42
-0.036678
0
VERTEX
8
1
10
8.480507
20
4.155823
42
-0.021732
0
VERTEX
8
1
10
7.194054
20
4.268860
42
-0.052010
0
VERTEX
8
1
10
6.107758
20
4.534363
42
-0.081612
0
VERTEX
8
1
10
5.292900
20
4.983017
0
VERTEX
8
1
10
5.263489
20
5.003769
42
-0.187515
0
VERTEX
8
1
10
5.304291
20
5.157532
0
VERTEX
8
1
10
5.314262
20
5.172546
0
VERTEX
8
1
10
5.322769
20
5.171158
42
0.085066
0
VERTEX
8
1
10
6.113518
20
4.756577
42
0.056045
0
VERTEX
8
1
10
7.218948
20
4.530807
42
0.069483
0
VERTEX
8
1
10
9.308304
20
4.587585
42
0.053860
0
VERTEX
8
1
10
10.302940
20
4.861435
42
0.164071
0
VERTEX
8
1
10
10.420410
20
4.950073
0
VERTEX
8
1
10
10.425392
20
4.961014
42
0.393215
0
VERTEX
8
1
10
10.363052
20
5.077042
0
VERTEX
8
1
10
10.353813
20
5.080963
42
0.317290
0
VERTEX
8
1
10
10.287964
20
5.072693
0
VERTEX
8
1
10
10.272308
20
5.064560
0
VERTEX
8
1
10
10.253593
20
5.055511
42
-0.045963
0
VERTEX
8
1
10
9.443069
20
4.802917
42
-0.027812
0
VERTEX
8
1
10
8.747978
20
4.679779
0
VERTEX
8
1
10
8.660469
20
4.672577
0
VERTEX
8
1
10
8.571144
20
4.667450
0
VERTEX
8
1
10
8.480186
20
4.664322
42
-0.057869
0
VERTEX
8
1
10
7.012085
20
4.823059
42
-0.030982
0
VERTEX
8
1
10
6.118988
20
5.072723
42
-0.107216
0
VERTEX
8
1
10
5.605957
20
5.384232
42
-0.123753
0
VERTEX
8
1
10
5.400452
20
5.716736
0
VERTEX
8
1
10
5.399895
20
5.725937
42
0.042056
0
VERTEX
8
1
10
5.877373
20
5.559448
0
VERTEX
8
1
10
6.017494
20
5.521774
0
VERTEX
8
1
10
6.167305
20
5.484680
42
0.051946
0
VERTEX
8
1
10
8.998512
20
5.140396
42
0.042490
0
VERTEX
8
1
10
10.044678
20
5.209366
42
0.039481
0
VERTEX
8
1
10
10.457413
20
5.310455
0
VERTEX
8
1
10
10.514297
20
5.340225
42
0.173319
0
VERTEX
8
1
10
10.541687
20
5.460297
42
0.443153
0
VERTEX
8
1
10
10.439171
20
5.498749
42
-0.049697
0
VERTEX
8
1
10
10.112061
20
5.417221
42
-0.037549
0
VERTEX
8
1
10
9.250725
20
5.348312
42
-0.027640
0
VERTEX
8
1
10
7.694366
20
5.420761
0
VERTEX
8
1
10
7.442947
20
5.446167
0
VERTEX
8
1
10
7.177834
20
5.476044
0
VERTEX
8
1
10
7.010902
20
5.507721
42
0.013098
0
VERTEX
8
1
10
5.906517
20
5.772141
42
-0.128572
0
VERTEX
8
1
10
5.670166
20
5.880615
0
VERTEX
8
1
10
5.680466
20
5.891129
42
0.043392
0
VERTEX
8
1
10
6.129326
20
6.115280
0
VERTEX
8
1
10
6.145813
20
6.116806
42
-0.014615
0
VERTEX
8
1
10
6.812386
20
6.083435
42
0.073533
0
VERTEX
8
1
10
8.630219
20
5.784637
42
0.054656
0
VERTEX
8
1
10
9.701706
20
5.893707
0
VERTEX
8
1
10
9.810570
20
5.915207
0
VERTEX
8
1
10
9.919258
20
5.937576
42
0.035949
0
VERTEX
8
1
10
10.851540
20
6.190887
0
VERTEX
8
1
10
10.875381
20
6.199753
0
VERTEX
8
1
10
10.872536
20
6.167862
42
-0.055748
0
VERTEX
8
1
10
10.582870
20
5.216675
42
-0.000695
0
VERTEX
8
1
10
10.327362
20
4.696960
42
0.018208
0
SEQEND
0
POLYLINE
8
1
66
1
70
1
0
VERTEX
8
1
10
14.993866
20
2.566360
0
VERTEX
8
1
10
14.995293
20
2.550293
0
VERTEX
8
1
10
14.993813
20
2.442123
0
VERTEX
8
1
10
14.974236
20
2.338303
0
VERTEX
8
1
10
14.937881
20
2.238892
0
VERTEX
8
1
10
14.886070
20
2.143951
0
VERTEX
8
1
10
14.820099
20
2.053513
42
-0.082133
0
VERTEX
8
1
10
14.440849
20
1.737839
0
VERTEX
8
1
10
14.323753
20
1.670654
0
VERTEX
8
1
10
14.200378
20
1.608292
42
-0.084094
0
VERTEX
8
1
10
12.909256
20
1.258499
42
-0.084451
0
VERTEX
8
1
10
11.651527
20
1.378021
42
-0.091937
0
VERTEX
8
1
10
11.051559
20
1.665405
42
-0.084602
0
VERTEX
8
1
10
10.811287
20
1.929291
42
-0.134339
0
VERTEX
8
1
10
10.567886
20
2.576553
0
VERTEX
8
1
10
10.560341
20
2.693710
42
-0.080781
0
VERTEX
8
1
10
10.670372
20
3.409271
0
VERTEX
8
1
10
10.709038
20
3.527771
0
VERTEX
8
1
10
10.751923
20
3.645218
42
-0.033214
0
VERTEX
8
1
10
11.137688
20
4.444473
42
0.077635
0
VERTEX
8
1
10
11.613472
20
6.188446
42
0.035261
0
VERTEX
8
1
10
11.632545
20
6.584244
0
VERTEX
8
1
10
11.631691
20
6.591049
42
0.164125
0
VERTEX
8
1
10
10.881042
20
8.069778
42
0.080854
0
VERTEX
8
1
10
10.196419
20
8.568634
42
0.022448
0
VERTEX
8
1
10
10.575203
20
8.609146
42
0.085128
0
VERTEX
8
1
10
10.793915
20
8.744308
42
0.023337
0
VERTEX
8
1
10
10.902267
20
8.837830
0
VERTEX
8
1
10
10.873276
20
10.931046
42
0.074404
0
VERTEX
8
1
10
11.601418
20
11.747696
42
0.059996
0
VERTEX
8
1
10
11.782242
20
12.273605
42
0.010150
0
VERTEX
8
1
10
11.793503
20
12.228317
42
0.095329
0
VERTEX
8
1
10
12.126587
20
11.881989
42
0.069816
0
VERTEX
8
1
10
12.639664
20
11.613846
42
0.058594
0
VERTEX
8
1
10
13.448700
20
11.428635
42
0.066568
0
VERTEX
8
1
10
14.606544
20
11.444702
42
0.069906
0
VERTEX
8
1
10
15.725548
20
11.763412
0
VERTEX
8
1
10
15.725548
20
11.687820
42
-0.105314
0
VERTEX
8
1
10
15.647766
20
11.241470
42
-0.147582
0
VERTEX
8
1
10
15.411446
20
10.946945
42
-0.104474
0
VERTEX
8
1
10
15.249878
20
10.889175
0
VERTEX
8
1
10
15.252831
20
10.886368
42
-0.212366
0
VERTEX
8
1
10
15.579300
20
10.676132
42
-0.123040
0
VERTEX
8
1
10
15.709229
20
10.331940
42
-0.035916
0
VERTEX
8
1
10
15.725479
20
10.118317
0
VERTEX
8
1
10
15.725601
20
9.804016
42
0.199594
0
VERTEX
8
1
10
15.921364
20
9.341736
42
0.132834
0
VERTEX
8
1
10
16.149643
20
9.173523
42
0.078265
0
VERTEX
8
1
10
16.228882
20
9.160675
0
VERTEX
8
1
10
16.659576
20
9.160660
42
-0.296010
0
VERTEX
8
1
10
17.188194
20
8.807907
42
-0.080680
0
VERTEX
8
1
10
17.267715
20
8.520020
0
VERTEX
8
1
10
17.269165
20
8.546417
0
VERTEX
8
1
10
17.271355
20
8.574295
0
VERTEX
8
1
10
17.274345
20
8.601624
0
VERTEX
8
1
10
17.278168
20
8.628448
42
-0.250907
0
VERTEX
8
1
10
17.618111
20
9.108063
42
-0.109919
0
VERTEX
8
1
10
17.861565
20
9.160660
0
VERTEX
8
1
10
18.132996
20
9.160675
0
VERTEX
8
1
10
18.133110
20
9.155487
0
VERTEX
8
1
10
18.133110
20
7.585907
0
VERTEX
8
1
10
18.127319
20
7.584808
0
VERTEX
8
1
10
15.963104
20
7.584824
0
VERTEX
8
1
10
15.960869
20
7.586121
0
VERTEX
8
1
10
15.960876
20
8.202026
0
VERTEX
8
1
10
15.960121
20
8.202911
0
VERTEX
8
1
10
15.487503
20
8.202911
0
VERTEX
8
1
10
15.486595
20
8.201492
0
VERTEX
8
1
10
15.486595
20
6.977371
0
VERTEX
8
1
10
15.473251
20
6.981873
42
0.142925
0
VERTEX
8
1
10
14.725929
20
7.132721
42
-0.335168
0
VERTEX
8
1
10
14.662529
20
7.175720
42
-0.122918
0
VERTEX
8
1
10
14.657623
20
7.346191
42
-0.038335
0
VERTEX
8
1
10
14.809509
20
7.903351
42
0.017900
0
VERTEX
8
1
10
14.965668
20
8.395203
42
0.444502
0
VERTEX
8
1
10
14.795311
20
8.612991
0
VERTEX
8
1
10
14.696205
20
8.624924
0
VERTEX
8
1
10
14.580734
20
8.636780
0
VERTEX
8
1
10
14.450317
20
8.648544
42
0.020822
0
VERTEX
8
1
10
11.350830
20
8.755554
42
0.012379
0
VERTEX
8
1
10
11.042564
20
8.744324
42
0.690412
0
VERTEX
8
1
10
10.981583
20
8.402298
42
0.054398
0
VERTEX
8
1
10
12.201630
20
7.862381
0
VERTEX
8
1
10
12.289284
20
7.846313
42
0.113005
0
VERTEX
8
1
10
14.103394
20
7.967484
42
-0.601355
0
VERTEX
8
1
10
14.313675
20
7.714966
42
0.017799
0
VERTEX
8
1
10
14.097733
20
7.034439
42
0.071254
0
VERTEX
8
1
10
14.048744
20
6.678726
42
0.014694
0
VERTEX
8
1
10
14.063347
20
6.570908
0
VERTEX
8
1
10
14.063026
20
6.554459
42
0.066808
0
VERTEX
8
1
10
14.039627
20
5.859497
0
VERTEX
8
1
10
14.044022
20
5.778137
42
0.008955
0
VERTEX
8
1
10
14.201134
20
3.882690
42
0.245645
0
VERTEX
8
1
10
14.311928
20
3.743134
42
-0.092893
0
VERTEX
8
1
10
14.783592
20
3.298050
42
-0.029826
0
VERTEX
8
1
10
14.914200
20
3.105301
42
-0.025481
0
VERTEX
8
1
10
14.983597
20
2.651016
0
SEQEND
0
POLYLINE
8
1
66
1
70
1
0
VERTEX
8
1
10
15.938805
20
6.185928
42
0.090108
0
VERTEX
8
1
10
16.076904
20
6.471573
0
VERTEX
8
1
10
16.082047
20
6.478363
0
VERTEX
8
1
10
16.087639
20
6.455917
42
0.080621
0
VERTEX
8
1
10
16.278351
20
6.112976
0
VERTEX
8
1
10
16.290848
20
6.098450
0
VERTEX
8
1
10
15.939621
20
6.098450
42
-0.002331
0
SEQEND
0
POLYLINE
8
1
66
1
70
1
0
VERTEX
8
1
10
15.486603
20
6.013702
0
VERTEX
8
1
10
15.496681
20
6.013702
42
-0.119429
0
VERTEX
8
1
10
15.490402
20
5.498230
0
VERTEX
8
1
10
15.470360
20
5.421844
42
-0.086126
0
VERTEX
8
1
10
15.095352
20
4.702286
42
-0.033215
0
VERTEX
8
1
10
14.845108
20
4.399033
42
-0.559111
0
VERTEX
8
1
10
14.547279
20
4.508514
42
-0.056127
0
VERTEX
8
1
10
14.450104
20
5.280197
42
-0.033838
0
VERTEX
8
1
10
14.505569
20
6.529022
42
-0.317648
0
VERTEX
8
1
10
14.668663
20
6.668732
0
VERTEX
8
1
10
14.716881
20
6.671280
42
-0.297840
0
VERTEX
8
1
10
15.407043
20
6.265793
42
-0.056786
0
VERTEX
8
1
10
15.486603
20
6.055908
0
SEQEND
0
POLYLINE
8
1
66
1
70
1
0
VERTEX
8
1
10
11.833557
20
8.336823
42
-0.072788
0
VERTEX
8
1
10
11.702660
20
8.410965
0
VERTEX
8
1
10
11.687576
20
8.431137
0
VERTEX
8
1
10
11.685516
20
8.449173
0
VERTEX
8
1
10
11.695709
20
8.465164
0
VERTEX
8
1
10
11.717430
20
8.479187
0
VERTEX
8
1
10
11.749878
20
8.491287
42
-0.057124
0
VERTEX
8
1
10
12.127983
20
8.528458
42
-0.022513
0
VERTEX
8
1
10
13.078209
20
8.493073
42
-0.428704
0
VERTEX
8
1
10
13.233398
20
8.282806
42
-0.404873
0
VERTEX
8
1
10
13.045815
20
8.123962
0
VERTEX
8
1
10
12.975296
20
8.126617
42
-0.058309
0
SEQEND
0
POLYLINE
8
1
66
1
70
1
0
VERTEX
8
1
10
16.429077
20
3.740845
42
-0.026422
0
VERTEX
8
1
10
16.246803
20
2.931854
42
0.027284
0
VERTEX
8
1
10
16.226799
20
2.807678
0
VERTEX
8
1
10
16.217232
20
2.804932
0
VERTEX
8
1
10
15.581230
20
2.804916
42
0.122539
0
VERTEX
8
1
10
15.354904
20
3.438293
42
0.080747
0
VERTEX
8
1
10
14.965820
20
3.859924
42
-0.447642
0
VERTEX
8
1
10
14.982216
20
4.137146
42
-0.001030
0
VERTEX
8
1
10
15.124832
20
4.268341
42
0.320147
0
VERTEX
8
1
10
15.419922
20
3.732452
0
VERTEX
8
1
10
15.481117
20
3.705276
42
0.286573
0
VERTEX
8
1
10
16.075905
20
3.839035
42
0.135981
0
VERTEX
8
1
10
16.266273
20
4.143082
42
0.161435
0
VERTEX
8
1
10
16.263237
20
4.254227
0
VERTEX
8
1
10
16.255791
20
4.264755
42
0.479868
0
VERTEX
8
1
10
16.112610
20
4.242905
0
VERTEX
8
1
10
16.107452
20
4.230545
42
-0.108867
0
VERTEX
8
1
10
16.051682
20
4.085800
42
-0.136681
0
VERTEX
8
1
10
15.871597
20
3.902908
42
-0.333957
0
VERTEX
8
1
10
15.629349
20
3.945297
42
-0.227033
0
VERTEX
8
1
10
15.489090
20
4.357971
42
-0.268915
0
VERTEX
8
1
10
15.853630
20
4.785202
42
-0.116345
0
VERTEX
8
1
10
15.991455
20
4.799240
0
VERTEX
8
1
10
16.071404
20
4.780212
42
-0.204614
0
VERTEX
8
1
10
16.357368
20
4.541534
0
VERTEX
8
1
10
16.391663
20
4.465302
0
VERTEX
8
1
10
16.418274
20
4.379639
0
VERTEX
8
1
10
16.437195
20
4.284592
42
-0.060567
0
VERTEX
8
1
10
16.433098
20
3.776550
0
SEQEND
0
POLYLINE
8
1
66
1
70
1
0
VERTEX
8
1
10
17.204277
20
2.804916
0
VERTEX
8
1
10
16.946831
20
2.804916
42
0.019349
0
VERTEX
8
1
10
17.313354
20
3.306305
0
VERTEX
8
1
10
17.317780
20
3.297882
42
-0.006033
0
SEQEND
0
POLYLINE
8
1
66
1
70
1
0
VERTEX
8
1
10
18.249504
20
2.934097
42
-0.296023
0
VERTEX
8
1
10
18.172737
20
2.990219
42
-0.101513
0
VERTEX
8
1
10
18.134262
20
3.208588
42
0.189766
0
VERTEX
8
1
10
18.377464
20
2.985733
42
-0.184098
0
SEQEND
0
POLYLINE
8
1
66
1
70
1
0
VERTEX
8
1
10
18.638870
20
3.603882
42
-0.096151
0
VERTEX
8
1
10
18.509857
20
3.161407
0
VERTEX
8
1
10
18.488022
20
3.141769
42
-0.175975
0
VERTEX
8
1
10
18.392990
20
3.235748
0
VERTEX
8
1
10
18.377571
20
3.269547
0
VERTEX
8
1
10
18.364983
20
3.306244
0
VERTEX
8
1
10
18.354996
20
3.345215
42
-0.106193
0
VERTEX
8
1
10
18.374619
20
3.872070
42
-0.129747
0
VERTEX
8
1
10
18.432175
20
3.977066
42
-0.233979
0
VERTEX
8
1
10
18.485283
20
3.990662
42
-0.244363
0
VERTEX
8
1
10
18.591255
20
3.918976
0
VERTEX
8
1
10
18.606796
20
3.888840
0
VERTEX
8
1
10
18.618835
20
3.856339
42
-0.087303
0
SEQEND
0
POLYLINE
8
1
66
1
70
1
0
VERTEX
8
1
10
18.836533
20
2.804916
0
VERTEX
8
1
10
18.449600
20
2.804916
42
0.060079
0
VERTEX
8
1
10
18.582954
20
2.958298
42
0.172256
0
VERTEX
8
1
10
18.848572
20
3.097702
42
0.088643
0
VERTEX
8
1
10
18.833794
20
2.818283
0
SEQEND
0
POLYLINE
8
1
66
1
70
1
0
VERTEX
8
1
10
19.392975
20
2.926743
42
0.088251
0
VERTEX
8
1
10
19.411568
20
2.804916
0
VERTEX
8
1
10
19.297867
20
2.804916
42
0.030520
0
SEQEND
0
POLYLINE
8
1
66
1
70
1
0
VERTEX
8
1
10
21.323357
20
1.910126
42
-0.220053
0
VERTEX
8
1
10
21.168182
20
2.027802
0
VERTEX
8
1
10
21.152184
20
2.057053
42
-0.147727
0
VERTEX
8
1
10
21.109062
20
2.433060
0
VERTEX
8
1
10
22.040878
20
2.433044
0
VERTEX
8
1
10
22.039589
20
2.420120
42
-0.074759
0
VERTEX
8
1
10
21.753952
20
2.069962
0
VERTEX
8
1
10
21.711876
20
2.036102
0
VERTEX
8
1
10
21.669441
20
2.006271
42
-0.169573
0
SEQEND
0
POLYLINE
8
1
66
1
70
1
0
VERTEX
8
1
10
21.709633
20
3.180084
42
-0.221332
0
VERTEX
8
1
10
21.796898
20
3.127563
0
VERTEX
8
1
10
21.815140
20
3.095871
0
VERTEX
8
1
10
21.828537
20
3.059875
42
-0.099261
0
VERTEX
8
1
10
21.839287
20
2.804916
0
VERTEX
8
1
10
21.246651
20
2.804916
42
-0.113219
0
VERTEX
8
1
10
21.573036
20
3.145447
42
-0.147980
0
VERTEX
8
1
10
21.692444
20
3.183151
42
-0.051739
0
SEQEND
0
POLYLINE
8
1
66
1
70
1
0
VERTEX
8
1
10
22.768051
20
2.995010
42
0.015389
0
VERTEX
8
1
10
22.958130
20
3.576614
0
VERTEX
8
1
10
23.013329
20
3.751389
42
0.021103
0
VERTEX
8
1
10
23.074265
20
3.044250
0
VERTEX
8
1
10
23.082207
20
2.996429
0
VERTEX
8
1
10
23.090729
20
2.952469
0
VERTEX
8
1
10
23.099876
20
2.912628
42
0.145500
0
VERTEX
8
1
10
23.156921
20
2.804932
0
VERTEX
8
1
10
22.695900
20
2.804916
42
0.010698
0
SEQEND
0
POLYLINE
8
1
66
1
70
1
0
VERTEX
8
1
10
23.824173
20
3.537704
42
0.016712
0
VERTEX
8
1
10
23.653282
20
2.807800
0
VERTEX
8
1
10
23.648247
20
2.804916
0
VERTEX
8
1
10
23.380028
20
2.804916
0
VERTEX
8
1
10
23.377518
20
2.806580
42
0.135369
0
VERTEX
8
1
10
23.446709
20
2.930801
0
VERTEX
8
1
10
23.455627
20
2.954483
42
-0.004639
0
VERTEX
8
1
10
23.853065
20
3.671585
0
VERTEX
8
1
10
23.860100
20
3.679703
42
-0.002224
0
SEQEND
0
POLYLINE
8
1
66
1
70
1
0
VERTEX
8
1
10
24.796036
20
2.817383
42
0.337177
0
VERTEX
8
1
10
24.754112
20
2.897461
0
VERTEX
8
1
10
24.758484
20
2.907562
42
0.037745
0
VERTEX
8
1
10
25.016342
20
3.351379
0
VERTEX
8
1
10
25.033325
20
3.331726
42
-0.081382
0
VERTEX
8
1
10
25.114548
20
3.043060
42
-0.172205
0
VERTEX
8
1
10
25.055122
20
2.832092
0
VERTEX
8
1
10
25.041161
20
2.817596
0
VERTEX
8
1
10
25.025703
20
2.804916
0
VERTEX
8
1
10
24.795517
20
2.804932
0
SEQEND
0
POLYLINE
8
1
66
1
70
1
0
VERTEX
8
1
10
25.085266
20
3.930557
42
-0.075698
0
VERTEX
8
1
10
25.118744
20
4.033493
42
-0.026417
0
SEQEND
0
POLYLINE
8
1
66
1
70
1
0
VERTEX
8
1
10
25.763748
20
3.368423
0
VERTEX
8
1
10
25.777596
20
3.349564
42
-0.090966
0
VERTEX
8
1
10
25.867577
20
3.034576
42
-0.155675
0
VERTEX
8
1
10
25.812523
20
2.837906
0
VERTEX
8
1
10
25.796463
20
2.820145
0
VERTEX
8
1
10
25.778305
20
2.804916
0
VERTEX
8
1
10
25.548119
20
2.804932
42
0.322378
0
VERTEX
8
1
10
25.511520
20
2.895615
42
0.075520
0
VERTEX
8
1
10
25.493988
20
2.900528
42
0.032707
0
SEQEND
0
POLYLINE
8
1
66
1
70
1
0
VERTEX
8
1
10
25.837875
20
3.930557
42
-0.075694
0
VERTEX
8
1
10
25.871338
20
4.033493
42
-0.026419
0
SEQEND
0
POLYLINE
8
1
66
1
70
1
0
VERTEX
8
1
10
26.240349
20
2.893600
42
0.018553
0
VERTEX
8
1
10
26.336281
20
3.039581
0
VERTEX
8
1
10
26.342041
20
3.030701
42
0.094722
0
VERTEX
8
1
10
26.397552
20
2.804901
0
VERTEX
8
1
10
26.171341
20
2.804916
42
0.021241
0
SEQEND
0
POLYLINE
8
1
66
1
70
1
0
VERTEX
8
1
10
27.190765
20
2.812500
0
VERTEX
8
1
10
27.193085
20
2.804932
0
VERTEX
8
1
10
27.093086
20
2.804916
42
0.029303
0
VERTEX
8
1
10
27.167336
20
2.893097
0
VERTEX
8
1
10
27.171906
20
2.888306
42
0.052075
0
SEQEND
0
POLYLINE
8
1
66
1
70
1
0
VERTEX
8
1
10
27.799316
20
2.864899
42
0.020608
0
VERTEX
8
1
10
27.868484
20
2.953506
0
VERTEX
8
1
10
27.873299
20
2.947174
42
0.083078
0
VERTEX
8
1
10
27.898666
20
2.804932
0
VERTEX
8
1
10
27.744034
20
2.804916
42
0.020121
0
SEQEND
0
POLYLINE
8
1
66
1
70
1
0
VERTEX
8
1
10
28.010201
20
3.702942
42
0.003958
0
VERTEX
8
1
10
27.936615
20
3.379089
0
VERTEX
8
1
10
27.919037
20
3.332962
42
-0.048259
0
VERTEX
8
1
10
27.707451
20
2.994904
42
-0.124563
0
VERTEX
8
1
10
27.583580
20
2.892059
0
VERTEX
8
1
10
27.568047
20
2.888428
42
-0.488776
0
VERTEX
8
1
10
27.522583
20
2.922882
42
-0.096529
0
VERTEX
8
1
10
27.524872
20
3.028580
42
-0.093516
0
VERTEX
8
1
10
27.767242
20
3.578690
42
-0.101875
0
VERTEX
8
1
10
27.923340
20
3.734543
0
VERTEX
8
1
10
27.974701
20
3.751419
42
-0.121531
0
VERTEX
8
1
10
28.021996
20
3.746292
42
0.021444
0
SEQEND
0
POLYLINE
8
1
66
1
70
1
0
VERTEX
8
1
10
30.704704
20
3.462585
42
0.024155
0
VERTEX
8
1
10
30.568909
20
2.804916
0
VERTEX
8
1
10
28.486671
20
2.804916
0
VERTEX
8
1
10
28.458328
20
2.805695
42
0.061705
0
VERTEX
8
1
10
28.628021
20
3.056274
42
0.007860
0
VERTEX
8
1
10
28.850258
20
3.498413
0
VERTEX
8
1
10
28.842400
20
3.515732
42
0.734334
0
VERTEX
8
1
10
28.693275
20
3.513641
42
-0.018298
0
VERTEX
8
1
10
28.485229
20
3.114273
42
-0.081948
0
VERTEX
8
1
10
28.327744
20
2.913361
42
-0.171593
0
VERTEX
8
1
10
28.223045
20
2.861618
42
-0.330281
0
VERTEX
8
1
10
28.206886
20
2.885651
42
-0.082112
0
VERTEX
8
1
10
28.203354
20
2.981262
0
VERTEX
8
1
10
28.207314
20
3.026642
42
-0.028357
0
VERTEX
8
1
10
28.315041
20
3.538727
42
0.013459
0
VERTEX
8
1
10
28.477974
20
4.272980
0
VERTEX
8
1
10
28.482407
20
4.305557
42
0.178980
0
VERTEX
8
1
10
28.448303
20
4.511093
42
0.236038
0
VERTEX
8
1
10
28.285744
20
4.593521
42
0.216989
0
VERTEX
8
1
10
28.177353
20
4.567505
42
0.260194
0
VERTEX
8
1
10
28.161430
20
4.478165
42
-0.117250
0
VERTEX
8
1
10
28.155396
20
4.333664
42
-0.010036
0
VERTEX
8
1
10
28.069031
20
3.950729
42
0.144938
0
VERTEX
8
1
10
27.903305
20
3.978867
0
VERTEX
8
1
10
27.830124
20
3.965469
42
0.125687
0
VERTEX
8
1
10
27.562943
20
3.800797
42
0.098610
0
VERTEX
8
1
10
27.253334
20
3.323227
42
-0.046058
0
VERTEX
8
1
10
27.030853
20
2.966644
42
-0.132270
0
VERTEX
8
1
10
26.866600
20
2.839294
0
VERTEX
8
1
10
26.830620
20
2.832199
42
-0.368603
0
VERTEX
8
1
10
26.739998
20
2.901352
42
-0.108908
0
VERTEX
8
1
10
26.741257
20
3.126846
0
VERTEX
8
1
10
26.747406
20
3.134430
42
0.120831
0
VERTEX
8
1
10
27.146912
20
3.347687
42
0.174965
0
VERTEX
8
1
10
27.295769
20
3.624344
42
0.299833
0
VERTEX
8
1
10
27.095940
20
3.993286
42
0.236485
0
VERTEX
8
1
10
26.786919
20
3.981064
0
VERTEX
8
1
10
26.750175
20
3.960602
0
VERTEX
8
1
10
26.714104
20
3.936279
0
VERTEX
8
1
10
26.678787
20
3.908142
0
VERTEX
8
1
10
26.644333
20
3.876266
42
0.107055
0
VERTEX
8
1
10
26.409271
20
3.484390
42
-0.022885
0
VERTEX
8
1
10
26.212540
20
3.124634
42
0.061881
0
VERTEX
8
1
10
25.907959
20
3.708679
42
-0.000673
0
VERTEX
8
1
10
26.018135
20
3.997223
42
0.144810
0
VERTEX
8
1
10
26.032669
20
4.166885
42
0.293634
0
VERTEX
8
1
10
25.901413
20
4.273865
42
0.299635
0
VERTEX
8
1
10
25.614319
20
4.145355
42
0.194205
0
VERTEX
8
1
10
25.550301
20
3.822266
42
0.115684
0
VERTEX
8
1
10
25.668823
20
3.523682
0
VERTEX
8
1
10
25.627693
20
3.426682
42
-0.019456
0
VERTEX
8
1
10
25.461540
20
3.127243
0
VERTEX
8
1
10
25.446037
20
3.157898
0
VERTEX
8
1
10
25.427467
20
3.210205
42
0.048773
0
VERTEX
8
1
10
25.158165
20
3.704422
0
VERTEX
8
1
10
25.157249
20
3.717316
42
0.016281
0
VERTEX
8
1
10
25.271347
20
4.016708
42
0.172317
0
VERTEX
8
1
10
25.273338
20
4.184814
42
0.281797
0
VERTEX
8
1
10
25.126160
20
4.276733
42
0.275023
0
VERTEX
8
1
10
24.863747
20
4.148209
42
0.195234
0
VERTEX
8
1
10
24.797104
20
3.826431
42
0.117020
0
VERTEX
8
1
10
24.916168
20
3.523560
0
VERTEX
8
1
10
24.837608
20
3.338287
42
-0.036969
0
VERTEX
8
1
10
24.607529
20
2.955658
42
-0.121126
0
VERTEX
8
1
10
24.529343
20
2.878799
42
-0.157247
0
VERTEX
8
1
10
24.513474
20
2.957291
42
-0.059853
0
VERTEX
8
1
10
24.539619
20
3.179764
42
-0.021304
0
VERTEX
8
1
10
24.667877
20
3.692169
42
0.253085
0
VERTEX
8
1
10
24.638779
20
3.851105
42
0.021953
0
VERTEX
8
1
10
24.604004
20
3.882904
42
0.416196
0
VERTEX
8
1
10
24.679375
20
4.106476
42
0.282937
0
VERTEX
8
1
10
24.549866
20
4.222183
42
0.287130
0
VERTEX
8
1
10
24.425545
20
4.151123
42
0.296063
0
VERTEX
8
1
10
24.416626
20
3.916336
0
VERTEX
8
1
10
24.421700
20
3.909409
42
0.222198
0
VERTEX
8
1
10
24.393173
20
3.817978
0
VERTEX
8
1
10
24.392075
20
3.807907
0
VERTEX
8
1
10
24.390518
20
3.797913
0
VERTEX
8
1
10
24.367859
20
3.723465
0
VERTEX
8
1
10
24.352783
20
3.676987
42
0.057516
0
VERTEX
8
1
10
24.215477
20
3.079132
42
0.114684
0
VERTEX
8
1
10
24.243477
20
2.808228
0
VERTEX
8
1
10
24.242172
20
2.804916
0
VERTEX
8
1
10
23.997200
20
2.804916
42
0.002281
0
VERTEX
8
1
10
24.244011
20
3.799652
42
0.037819
0
VERTEX
8
1
10
24.326233
20
4.284607
0
VERTEX
8
1
10
24.326286
20
4.302612
0
VERTEX
8
1
10
24.325409
20
4.319901
42
0.408701
0
VERTEX
8
1
10
24.147858
20
4.497604
42
0.175568
0
VERTEX
8
1
10
24.005043
20
4.470490
42
0.272286
0
VERTEX
8
1
10
23.985413
20
4.380249
42
-0.111617
0
VERTEX
8
1
10
23.992920
20
4.315079
42
-0.006325
0
VERTEX
8
1
10
23.555618
20
3.561295
42
0.011261
0
VERTEX
8
1
10
23.386292
20
3.252899
0
VERTEX
8
1
10
23.366745
20
3.223343
42
0.003171
0
VERTEX
8
1
10
23.307716
20
4.042160
42
0.036182
0
VERTEX
8
1
10
23.245407
20
4.423462
42
0.126213
0
VERTEX
8
1
10
23.131828
20
4.649277
0
VERTEX
8
1
10
23.117226
20
4.663010
0
VERTEX
8
1
10
23.101379
20
4.675583
42
0.165067
0
VERTEX
8
1
10
22.858070
20
4.735382
0
VERTEX
8
1
10
22.845657
20
4.733185
42
0.496264
0
VERTEX
8
1
10
22.774445
20
4.605759
42
-0.133189
0
VERTEX
8
1
10
22.773102
20
4.461487
0
VERTEX
8
1
10
22.756485
20
4.386627
42
-0.022319
0
VERTEX
8
1
10
22.383850
20
3.156906
42
-0.016491
0
VERTEX
8
1
10
22.240440
20
2.804916
0
VERTEX
8
1
10
22.012360
20
2.804916
0
VERTEX
8
1
10
22.009567
20
2.805435
42
0.129510
0
VERTEX
8
1
10
21.957397
20
3.221146
0
VERTEX
8
1
10
21.938736
20
3.258301
42
0.350058
0
VERTEX
8
1
10
21.494972
20
3.450912
42
0.166929
0
VERTEX
8
1
10
21.060059
20
3.164703
42
0.088866
0
VERTEX
8
1
10
20.864273
20
2.811722
0
VERTEX
8
1
10
20.848343
20
2.804916
0
VERTEX
8
1
10
19.867096
20
2.804916
0
VERTEX
8
1
10
19.897354
20
2.840408
0
VERTEX
8
1
10
19.930145
20
2.882614
42
0.041957
0
VERTEX
8
1
10
20.214294
20
3.382782
42
-0.015386
0
VERTEX
8
1
10
20.277878
20
3.503067
0
VERTEX
8
1
10
20.268074
20
3.524475
42
0.680006
0
VERTEX
8
1
10
20.122147
20
3.525223
42
-0.042474
0
VERTEX
8
1
10
19.788528
20
2.953857
42
-0.071949
0
VERTEX
8
1
10
19.723358
20
2.884598
0
VERTEX
8
1
10
19.721146
20
2.887344
42
-0.119950
0
VERTEX
8
1
10
19.729980
20
3.049271
0
VERTEX
8
1
10
19.735611
20
3.073288
0
VERTEX
8
1
10
19.742462
20
3.099899
42
0.016727
0
VERTEX
8
1
10
19.880356
20
3.598694
42
0.095342
0
VERTEX
8
1
10
19.897438
20
3.816452
42
0.427856
0
VERTEX
8
1
10
19.719276
20
3.952148
42
0.234491
0
VERTEX
8
1
10
19.611290
20
3.906998
42
0.197356
0
VERTEX
8
1
10
19.603539
20
3.802475
0
VERTEX
8
1
10
19.604370
20
3.794922
0
VERTEX
8
1
10
19.604561
20
3.791824
42
-0.071333
0
VERTEX
8
1
10
19.550591
20
3.529327
0
VERTEX
8
1
10
19.519203
20
3.432602
42
-0.033192
0
VERTEX
8
1
10
19.218765
20
2.973282
42
-0.067844
0
VERTEX
8
1
10
19.144524
20
2.895950
42
-0.076195
0
VERTEX
8
1
10
19.152763
20
2.988190
42
-0.030057
0
VERTEX
8
1
10
19.301186
20
3.522186
42
0.086652
0
VERTEX
8
1
10
19.336800
20
3.779510
42
0.257083
0
VERTEX
8
1
10
19.235497
20
3.954330
42
0.189856
0
VERTEX
8
1
10
19.056313
20
3.974152
42
0.424809
0
VERTEX
8
1
10
19.015556
20
3.864151
42
-0.128814
0
VERTEX
8
1
10
19.008492
20
3.740723
42
-0.017166
0
VERTEX
8
1
10
18.953400
20
3.522461
0
VERTEX
8
1
10
18.926132
20
3.472900
42
-0.064824
0
VERTEX
8
1
10
18.762306
20
3.215652
42
-0.061074
0
VERTEX
8
1
10
18.695625
20
3.160446
0
VERTEX
8
1
10
18.703346
20
3.186386
42
0.096754
0
VERTEX
8
1
10
18.815918
20
3.702713
42
0.120099
0
VERTEX
8
1
10
18.749825
20
4.005066
42
0.293303
0
VERTEX
8
1
10
18.468964
20
4.168640
42
0.284474
0
VERTEX
8
1
10
18.168747
20
3.989990
42
0.094764
0
VERTEX
8
1
10
18.084663
20
3.719070
0
VERTEX
8
1
10
18.079796
20
3.698608
42
0.300848
0
VERTEX
8
1
10
17.809967
20
3.613419
0
VERTEX
8
1
10
17.806786
20
3.605118
0
VERTEX
8
1
10
17.803749
20
3.596756
42
0.132456
0
VERTEX
8
1
10
17.788429
20
2.972565
42
0.085978
0
VERTEX
8
1
10
17.864807
20
2.804916
0
VERTEX
8
1
10
17.608818
20
2.804916
0
VERTEX
8
1
10
17.607452
20
2.816269
42
0.032227
0
VERTEX
8
1
10
17.808533
20
3.852524
0
VERTEX
8
1
10
17.816460
20
3.938629
0
VERTEX
8
1
10
17.820694
20
4.004730
42
0.339390
0
VERTEX
8
1
10
17.660744
20
4.223129
42
0.137284
0
VERTEX
8
1
10
17.483818
20
4.229538
42
0.500214
0
VERTEX
8
1
10
17.440094
20
4.115936
42
-0.150155
0
VERTEX
8
1
10
17.449051
20
4.005142
42
-0.025688
0
VERTEX
8
1
10
17.416725
20
3.791641
42
-0.039509
0
VERTEX
8
1
10
16.831070
20
2.956665
0
VERTEX
8
1
10
16.788445
20
2.909653
42
-0.094035
0
VERTEX
8
1
10
16.685493
20
2.822983
42
-0.086634
0
VERTEX
8
1
10
16.700729
20
2.979218
42
-0.017721
0
VERTEX
8
1
10
16.814560
20
3.483734
42
0.064349
0
VERTEX
8
1
10
16.889969
20
4.135437
0
VERTEX
8
1
10
16.884071
20
4.210114
0
VERTEX
8
1
10
16.873772
20
4.281830
0
VERTEX
8
1
10
16.859070
20
4.350586
42
0.215540
0
VERTEX
8
1
10
16.468117
20
4.865128
42
0.203706
0
VERTEX
8
1
10
15.659569
20
4.903076
0
VERTEX
8
1
10
15.644142
20
4.907837
42
0.115112
0
VERTEX
8
1
10
15.924408
20
5.773376
0
VERTEX
8
1
10
15.948830
20
5.832611
0
VERTEX
8
1
10
28.907799
20
5.832611
0
VERTEX
8
1
10
29.019669
20
5.830627
0
VERTEX
8
1
10
29.019669
20
5.067459
0
VERTEX
8
1
10
29.020874
20
5.062500
0
VERTEX
8
1
10
29.323265
20
5.062500
42
0.211809
0
VERTEX
8
1
10
29.425339
20
5.117462
42
0.121856
0
VERTEX
8
1
10
29.618011
20
5.508575
0
VERTEX
8
1
10
29.621643
20
5.534515
0
VERTEX
8
1
10
29.625320
20
5.525345
42
0.106144
0
VERTEX
8
1
10
29.814018
20
5.126633
42
0.206456
0
VERTEX
8
1
10
29.915131
20
5.062515
0
VERTEX
8
1
10
30.199844
20
5.062500
0
VERTEX
8
1
10
30.552216
20
6.125900
42
0.053028
0
VERTEX
8
1
10
30.620178
20
5.620834
42
0.083402
0
VERTEX
8
1
10
30.856186
20
5.171310
42
0.019913
0
VERTEX
8
1
10
31.018158
20
4.967285
42
0.078928
0
VERTEX
8
1
10
30.845436
20
4.964584
0
VERTEX
8
1
10
30.770020
20
4.949966
0
VERTEX
8
1
10
30.693222
20
4.928757
0
VERTEX
8
1
10
30.615791
20
4.901794
42
0.148015
0
VERTEX
8
1
10
29.638039
20
4.116608
42
0.093282
0
VERTEX
8
1
10
29.484062
20
3.766510
0
VERTEX
8
1
10
29.471985
20
3.678391
42
0.145528
0
VERTEX
8
1
10
29.530220
20
3.412598
42
0.146454
0
VERTEX
8
1
10
29.660866
20
3.320404
42
0.578390
0
VERTEX
8
1
10
29.741257
20
3.404831
0
VERTEX
8
1
10
29.739258
20
3.415009
42
-0.068221
0
VERTEX
8
1
10
29.709007
20
3.523056
0
VERTEX
8
1
10
29.711266
20
3.558609
0
VERTEX
8
1
10
29.732750
20
3.639145
0
VERTEX
8
1
10
29.773918
20
3.726288
0
VERTEX
8
1
10
29.831039
20
3.817810
0
VERTEX
8
1
10
29.900505
20
3.911392
42
-0.067035
0
VERTEX
8
1
10
30.589569
20
4.556412
42
-0.074136
0
VERTEX
8
1
10
30.919823
20
4.724625
42
-0.192860
0
VERTEX
8
1
10
30.936333
20
4.677475
42
-0.055668
0
VERTEX
8
1
10
30.937286
20
4.560440
0
VERTEX
8
1
10
30.929184
20
4.478668
42
-0.028225
0
VERTEX
8
1
10
30.741478
20
3.604660
0
VERTEX
8
1
10
30.723175
20
3.533600
0
SEQEND
0
POLYLINE
8
1
66
1
70
1
0
VERTEX
8
1
10
26.833023
20
3.409592
42
-0.071216
0
VERTEX
8
1
10
27.019470
20
3.702148
42
-0.141681
0
VERTEX
8
1
10
27.091286
20
3.750351
0
VERTEX
8
1
10
27.095482
20
3.750427
42
-0.215372
0
VERTEX
8
1
10
27.130905
20
3.697418
42
-0.183652
0
VERTEX
8
1
10
27.129021
20
3.567429
0
VERTEX
8
1
10
27.109215
20
3.525970
0
VERTEX
8
1
10
27.081627
20
3.487045
42
-0.139570
0
VERTEX
8
1
10
26.788406
20
3.305740
42
-0.019960
0
SEQEND
0
POLYLINE
8
1
66
1
70
1
0
VERTEX
8
1
10
20.225700
20
7.267746
0
VERTEX
8
1
10
20.225700
20
9.463547
0
VERTEX
8
1
10
21.413200
20
9.463547
0
VERTEX
8
1
10
21.413200
20
7.267746
0
SEQEND
0
POLYLINE
8
1
66
1
70
1
0
VERTEX
8
1
10
22.952705
20
6.156769
42
0.117301
0
VERTEX
8
1
10
23.110130
20
6.481369
42
0.088660
0
VERTEX
8
1
10
23.282043
20
6.159195
42
0.038449
0
VERTEX
8
1
10
23.322990
20
6.100311
0
VERTEX
8
1
10
23.321266
20
6.098450
0
VERTEX
8
1
10
22.902412
20
6.098450
42
0.028519
0
SEQEND
0
POLYLINE
8
1
66
1
70
1
0
VERTEX
8
1
10
26.283470
20
6.156769
42
0.117319
0
VERTEX
8
1
10
26.440903
20
6.481369
42
0.088644
0
VERTEX
8
1
10
26.612808
20
6.159195
42
0.038360
0
VERTEX
8
1
10
26.653763
20
6.100311
0
VERTEX
8
1
10
26.652016
20
6.098450
0
VERTEX
8
1
10
26.233177
20
6.098450
42
0.028519
0
SEQEND
0
POLYLINE
8
1
66
1
70
1
0
VERTEX
8
1
10
31.444962
20
3.576141
42
0.017842
0
VERTEX
8
1
10
31.345352
20
3.076538
0
VERTEX
8
1
10
31.340813
20
3.036133
42
0.107501
0
VERTEX
8
1
10
31.360092
20
2.804916
0
VERTEX
8
1
10
30.936218
20
2.804916
0
VERTEX
8
1
10
30.937256
20
2.825577
0
VERTEX
8
1
10
30.946167
20
2.872818
42
-0.013765
0
VERTEX
8
1
10
31.190903
20
3.868546
0
VERTEX
8
1
10
31.210251
20
3.944931
0
VERTEX
8
1
10
31.222244
20
3.950500
42
0.077114
0
VERTEX
8
1
10
31.476463
20
3.938782
42
-0.007274
0
VERTEX
8
1
10
31.530266
20
3.941864
42
0.003383
0
SEQEND
0
POLYLINE
8
1
66
1
70
1
0
VERTEX
8
1
10
31.631264
20
4.410629
42
-0.018518
0
VERTEX
8
1
10
31.578545
20
4.147644
42
-0.054769
0
VERTEX
8
1
10
31.258987
20
4.137222
0
VERTEX
8
1
10
31.264671
20
4.176270
42
0.025711
0
VERTEX
8
1
10
31.322914
20
4.508331
42
0.059414
0
VERTEX
8
1
10
31.308075
20
4.688263
0
VERTEX
8
1
10
31.324341
20
4.683746
0
VERTEX
8
1
10
31.358620
20
4.659561
42
0.127421
0
VERTEX
8
1
10
31.600685
20
4.557800
0
VERTEX
8
1
10
31.621628
20
4.554413
0
VERTEX
8
1
10
31.629074
20
4.551361
42
0.170182
0
VERTEX
8
1
10
31.627625
20
4.467911
42
-0.051093
0
SEQEND
0
POLYLINE
8
1
66
1
70
1
0
VERTEX
8
1
10
33.238190
20
5.694641
0
VERTEX
8
1
10
33.236893
20
5.694855
0
VERTEX
8
1
10
33.465187
20
6.255249
42
-0.038704
0
VERTEX
8
1
10
33.779106
20
6.317764
42
-0.164336
0
VERTEX
8
1
10
33.888641
20
6.296585
42
-0.250095
0
VERTEX
8
1
10
33.916939
20
6.223450
0
VERTEX
8
1
10
33.914070
20
6.195297
0
VERTEX
8
1
10
33.906815
20
6.162720
0
VERTEX
8
1
10
33.870361
20
6.104904
0
VERTEX
8
1
10
33.831123
20
6.051926
42
-0.167780
0
SEQEND
0
POLYLINE
8
1
66
1
70
1
0
VERTEX
8
1
10
35.701523
20
13.404068
42
0.005548
0
VERTEX
8
1
10
36.312172
20
13.445892
0
VERTEX
8
1
10
36.350754
20
13.310791
0
VERTEX
8
1
10
36.346397
20
13.077805
0
VERTEX
8
1
10
36.322037
20
12.857620
0
VERTEX
8
1
10
36.280357
20
12.651321
0
VERTEX
8
1
10
36.224045
20
12.459930
0
VERTEX
8
1
10
36.155785
20
12.284561
0
VERTEX
8
1
10
36.078270
20
12.126282
0
VERTEX
8
1
10
35.994179
20
11.986176
0
VERTEX
8
1
10
35.906212
20
11.865280
0
VERTEX
8
1
10
35.817032
20
11.764709
0
VERTEX
8
1
10
35.729340
20
11.685516
0
VERTEX
8
1
10
35.645828
20
11.628799
0
VERTEX
8
1
10
35.569168
20
11.595596
0
VERTEX
8
1
10
35.442657
20
11.610840
0
VERTEX
8
1
10
35.260666
20
11.694199
0
VERTEX
8
1
10
35.109169
20
11.811691
0
VERTEX
8
1
10
34.985504
20
11.956787
0
VERTEX
8
1
10
34.886932
20
12.122971
0
VERTEX
8
1
10
34.810822
20
12.303680
0
VERTEX
8
1
10
34.754456
20
12.492447
42
-0.080850
0
VERTEX
8
1
10
34.686584
20
13.491791
0
VERTEX
8
1
10
34.677948
20
13.533752
0
VERTEX
8
1
10
34.652107
20
13.562729
0
VERTEX
8
1
10
34.612228
20
13.580429
0
VERTEX
8
1
10
34.561440
20
13.588486
0
VERTEX
8
1
10
34.502907
20
13.588623
42
0.057835
0
VERTEX
8
1
10
34.132988
20
13.507004
42
0.021788
0
VERTEX
8
1
10
34.113564
20
13.078979
42
-0.068139
0
VERTEX
8
1
10
34.048058
20
13.002686
42
-0.025042
0
VERTEX
8
1
10
33.806290
20
12.791122
42
0.036980
0
VERTEX
8
1
10
34.015068
20
13.296738
0
VERTEX
8
1
10
34.020386
20
13.315201
42
0.149955
0
VERTEX
8
1
10
34.032173
20
13.474487
42
0.320592
0
VERTEX
8
1
10
33.893738
20
13.587463
42
0.251823
0
VERTEX
8
1
10
33.750443
20
13.542908
42
0.315215
0
VERTEX
8
1
10
33.750664
20
13.486801
42
-0.059500
0
VERTEX
8
1
10
33.698647
20
13.324127
42
-0.003190
0
VERTEX
8
1
10
33.371849
20
12.557816
42
-0.102155
0
VERTEX
8
1
10
33.082748
20
12.201904
42
-0.166313
0
VERTEX
8
1
10
32.949310
20
12.146561
42
-0.415091
0
VERTEX
8
1
10
32.916145
20
12.174652
42
-0.141897
0
VERTEX
8
1
10
32.925392
20
12.365311
42
0.222132
0
VERTEX
8
1
10
33.339317
20
12.733673
42
0.230627
0
VERTEX
8
1
10
33.337494
20
12.931458
42
0.274340
0
VERTEX
8
1
10
33.195091
20
13.003555
42
0.207984
0
VERTEX
8
1
10
32.857620
20
12.858261
42
0.102070
0
VERTEX
8
1
10
32.664436
20
12.549728
42
-0.105161
0
VERTEX
8
1
10
32.370163
20
12.195068
42
-0.169853
0
VERTEX
8
1
10
32.242752
20
12.146820
42
-0.370509
0
VERTEX
8
1
10
32.212654
20
12.175751
42
-0.135970
0
VERTEX
8
1
10
32.221138
20
12.364975
42
0.218192
0
VERTEX
8
1
10
32.634285
20
12.728622
42
0.201999
0
VERTEX
8
1
10
32.642479
20
12.916351
42
0.305056
0
VERTEX
8
1
10
32.492958
20
13.003525
0
VERTEX
8
1
10
32.480362
20
13.003677
42
0.216276
0
VERTEX
8
1
10
32.126144
20
12.828262
42
0.142834
0
VERTEX
8
1
10
31.906921
20
12.328613
42
0.190130
0
VERTEX
8
1
10
31.972618
20
12.074326
0
VERTEX
8
1
10
31.985138
20
12.060654
0
VERTEX
8
1
10
31.998756
20
12.048096
0
VERTEX
8
1
10
31.559433
20
12.048080
42
0.113673
0
VERTEX
8
1
10
31.818649
20
12.335693
42
0.106974
0
VERTEX
8
1
10
31.971703
20
12.756668
0
VERTEX
8
1
10
31.973335
20
12.775452
0
VERTEX
8
1
10
31.974243
20
12.794266
0
VERTEX
8
1
10
31.974426
20
12.813110
42
0.248078
0
VERTEX
8
1
10
31.904785
20
12.971512
42
0.346273
0
VERTEX
8
1
10
31.698830
20
12.952316
42
0.284443
0
VERTEX
8
1
10
31.693771
20
12.895096
42
-0.062912
0
VERTEX
8
1
10
31.656128
20
12.670410
42
-0.075279
0
VERTEX
8
1
10
31.487701
20
12.238541
42
-0.139777
0
VERTEX
8
1
10
31.385269
20
12.131699
42
-0.241143
0
VERTEX
8
1
10
31.331139
20
12.131393
0
VERTEX
8
1
10
31.330574
20
12.132553
42
-0.136385
0
VERTEX
8
1
10
31.356750
20
12.248154
42
-0.025851
0
VERTEX
8
1
10
31.462631
20
12.467117
42
0.065725
0
VERTEX
8
1
10
31.577271
20
12.765854
42
0.274798
0
VERTEX
8
1
10
31.516777
20
12.966034
42
0.336178
0
VERTEX
8
1
10
31.295670
20
12.961441
42
0.405106
0
VERTEX
8
1
10
31.293915
20
12.892227
0
VERTEX
8
1
10
31.293846
20
12.887909
42
-0.074705
0
VERTEX
8
1
10
31.209541
20
12.662308
42
-0.045927
0
VERTEX
8
1
10
30.975868
20
12.251099
42
-0.101018
0
VERTEX
8
1
10
30.884369
20
12.152328
0
VERTEX
8
1
10
30.883850
20
12.153137
42
-0.065837
0
VERTEX
8
1
10
30.948921
20
12.302704
42
0.034524
0
VERTEX
8
1
10
31.122932
20
12.655518
0
VERTEX
8
1
10
31.134270
20
12.687866
0
VERTEX
8
1
10
31.144562
20
12.720566
0
VERTEX
8
1
10
31.149017
20
12.736542
0
VERTEX
8
1
10
31.152771
20
12.752686
42
0.272813
0
VERTEX
8
1
10
31.100639
20
12.961517
42
0.340076
0
VERTEX
8
1
10
30.874214
20
12.961899
42
0.394765
0
VERTEX
8
1
10
30.871307
20
12.891113
42
-0.073145
0
VERTEX
8
1
10
30.831451
20
12.771774
0
VERTEX
8
1
10
30.820282
20
12.745422
42
0.041581
0
VERTEX
8
1
10
30.662445
20
12.331268
42
0.159352
0
VERTEX
8
1
10
30.669899
20
12.072922
42
-0.039005
0
VERTEX
8
1
10
30.682007
20
12.048065
0
VERTEX
8
1
10
30.041580
20
12.048080
0
VERTEX
8
1
10
30.036484
20
12.049088
42
0.076598
0
VERTEX
8
1
10
30.280334
20
12.357971
42
0.040633
0
VERTEX
8
1
10
30.403397
20
12.594925
42
0.888156
0
VERTEX
8
1
10
30.263786
20
12.621170
0
VERTEX
8
1
10
30.258690
20
12.608475
42
-0.065836
0
VERTEX
8
1
10
29.977592
20
12.184006
42
-0.029503
0
VERTEX
8
1
10
29.953621
20
12.160812
0
VERTEX
8
1
10
29.954643
20
12.166824
42
-0.058937
0
VERTEX
8
1
10
30.059830
20
12.442688
0
VERTEX
8
1
10
30.118599
20
12.566116
42
0.011981
0
VERTEX
8
1
10
30.380836
20
13.133133
42
0.080329
0
VERTEX
8
1
10
30.858276
20
13.216568
42
0.167952
0
VERTEX
8
1
10
30.963882
20
13.294937
0
VERTEX
8
1
10
30.966805
20
13.301178
42
0.504446
0
VERTEX
8
1
10
30.868309
20
13.433563
42
0.396265
0
VERTEX
8
1
10
30.819321
20
13.369370
42
-0.110414
0
VERTEX
8
1
10
30.717094
20
13.337051
42
-0.048024
0
VERTEX
8
1
10
30.442284
20
13.319977
42
0.127014
0
VERTEX
8
1
10
30.453560
20
13.462952
42
0.342064
0
VERTEX
8
1
10
30.306343
20
13.587936
42
0.247990
0
VERTEX
8
1
10
30.167412
20
13.541672
42
0.285341
0
VERTEX
8
1
10
30.167175
20
13.486374
42
-0.050871
0
VERTEX
8
1
10
30.124771
20
13.346176
0
VERTEX
8
1
10
30.113495
20
13.343460
42
0.059316
0
VERTEX
8
1
10
29.728745
20
13.345688
42
0.185370
0
VERTEX
8
1
10
29.529404
20
13.248520
42
0.129431
0
VERTEX
8
1
10
29.488464
20
13.151871
0
VERTEX
8
1
10
29.485100
20
13.151581
42
0.445623
0
VERTEX
8
1
10
29.256752
20
13.011765
42
0.201777
0
VERTEX
8
1
10
29.287865
20
12.819305
42
0.004421
0
VERTEX
8
1
10
29.187546
20
12.621399
42
-0.055401
0
VERTEX
8
1
10
29.085678
20
12.430359
42
-0.059367
0
VERTEX
8
1
10
28.892502
20
12.175125
42
-0.083575
0
VERTEX
8
1
10
28.867477
20
12.154617
42
-0.067061
0
VERTEX
8
1
10
28.932236
20
12.303574
0
VERTEX
8
1
10
28.949776
20
12.336746
0
VERTEX
8
1
10
28.967789
20
12.369675
42
0.059896
0
VERTEX
8
1
10
29.131798
20
12.733109
0
VERTEX
8
1
10
29.135696
20
12.748886
42
0.275123
0
VERTEX
8
1
10
29.084717
20
12.961212
42
0.332571
0
VERTEX
8
1
10
28.860199
20
12.964249
42
0.238386
0
VERTEX
8
1
10
28.842728
20
12.922165
42
0.248214
0
VERTEX
8
1
10
28.678780
20
13.003769
42
0.226941
0
VERTEX
8
1
10
28.329285
20
12.836166
42
0.086668
0
VERTEX
8
1
10
28.165146
20
12.558182
42
-0.069058
0
VERTEX
8
1
10
27.887711
20
12.163925
0
VERTEX
8
1
10
27.884521
20
12.161148
42
-0.067404
0
VERTEX
8
1
10
27.942352
20
12.333237
42
-0.001622
0
VERTEX
8
1
10
28.262405
20
13.019302
0
VERTEX
8
1
10
28.286148
20
13.074890
42
0.062742
0
VERTEX
8
1
10
28.387276
20
13.388657
42
0.298309
0
VERTEX
8
1
10
28.311050
20
13.564697
42
0.306844
0
VERTEX
8
1
10
28.105232
20
13.550888
42
0.367650
0
VERTEX
8
1
10
28.098839
20
13.487183
0
VERTEX
8
1
10
28.097908
20
13.480103
42
-0.045482
0
VERTEX
8
1
10
28.015381
20
13.245438
42
0.007734
0
VERTEX
8
1
10
27.710907
20
12.503647
0
VERTEX
8
1
10
27.690147
20
12.446030
0
VERTEX
8
1
10
27.682747
20
12.424774
0
VERTEX
8
1
10
27.675621
20
12.403442
0
VERTEX
8
1
10
27.668770
20
12.382004
0
VERTEX
8
1
10
27.662201
20
12.360489
42
0.169972
0
VERTEX
8
1
10
27.657906
20
12.077072
42
0.041842
0
VERTEX
8
1
10
27.673370
20
12.048080
0
VERTEX
8
1
10
27.021362
20
12.048080
0
VERTEX
8
1
10
27.035454
20
12.060349
0
VERTEX
8
1
10
27.049202
20
12.073013
0
VERTEX
8
1
10
27.062592
20
12.086044
0
VERTEX
8
1
10
27.075615
20
12.099457
42
0.077822
0
VERTEX
8
1
10
27.389160
20
12.593460
42
0.934691
0
VERTEX
8
1
10
27.247444
20
12.615021
42
-0.070715
0
VERTEX
8
1
10
26.966721
20
12.186401
42
-0.126348
0
VERTEX
8
1
10
26.923149
20
12.150467
42
-0.092316
0
VERTEX
8
1
10
26.968483
20
12.275696
42
0.046458
0
VERTEX
8
1
10
27.115532
20
12.618546
42
0.129001
0
VERTEX
8
1
10
27.123810
20
12.872833
0
VERTEX
8
1
10
27.119362
20
12.885880
42
0.438607
0
VERTEX
8
1
10
26.903412
20
12.990234
42
0.114714
0
VERTEX
8
1
10
26.714935
20
12.858734
42
0.368129
0
VERTEX
8
1
10
26.561981
20
12.999207
42
0.250476
0
VERTEX
8
1
10
26.426079
20
12.953323
42
0.342969
0
VERTEX
8
1
10
26.429825
20
12.893860
42
-0.079942
0
VERTEX
8
1
10
26.385071
20
12.754181
42
-0.013820
0
VERTEX
8
1
10
26.281799
20
12.529984
42
-0.071029
0
VERTEX
8
1
10
26.019310
20
12.164566
42
-0.027464
0
VERTEX
8
1
10
26.005432
20
12.153717
42
-0.069884
0
VERTEX
8
1
10
26.056313
20
12.276337
42
0.024411
0
VERTEX
8
1
10
26.233955
20
12.627625
0
VERTEX
8
1
10
26.245026
20
12.656418
0
VERTEX
8
1
10
26.255257
20
12.685516
0
VERTEX
8
1
10
26.264633
20
12.714905
0
VERTEX
8
1
10
26.268425
20
12.727798
0
VERTEX
8
1
10
26.271805
20
12.740814
0
VERTEX
8
1
10
26.274765
20
12.753922
42
0.282801
0
VERTEX
8
1
10
26.218384
20
12.964706
42
0.324074
0
VERTEX
8
1
10
25.997917
20
12.963852
42
0.211221
0
VERTEX
8
1
10
25.980049
20
12.923035
42
0.246603
0
VERTEX
8
1
10
25.817131
20
13.003754
42
0.225189
0
VERTEX
8
1
10
25.470818
20
12.840103
42
0.086612
0
VERTEX
8
1
10
25.302750
20
12.557709
42
-0.098264
0
VERTEX
8
1
10
25.019852
20
12.206436
0
VERTEX
8
1
10
25.006317
20
12.196533
42
-0.192538
0
VERTEX
8
1
10
24.868561
20
12.148010
0
VERTEX
8
1
10
24.864815
20
12.149155
42
-0.243375
0
VERTEX
8
1
10
24.840935
20
12.200836
42
-0.093618
0
VERTEX
8
1
10
24.853073
20
12.360443
0
VERTEX
8
1
10
24.857430
20
12.365631
42
0.215399
0
VERTEX
8
1
10
25.266785
20
12.724564
42
0.189054
0
VERTEX
8
1
10
25.280655
20
12.906860
42
0.313128
0
VERTEX
8
1
10
25.137512
20
13.002991
42
0.227389
0
VERTEX
8
1
10
24.768211
20
12.837021
42
0.084123
0
VERTEX
8
1
10
24.591728
20
12.542603
42
-0.064748
0
VERTEX
8
1
10
24.326187
20
12.167175
0
VERTEX
8
1
10
24.322617
20
12.163940
0
VERTEX
8
1
10
24.318977
20
12.160782
42
-0.063209
0
VERTEX
8
1
10
24.390427
20
12.363968
42
0.004338
0
VERTEX
8
1
10
24.713531
20
13.057114
42
0.061939
0
VERTEX
8
1
10
24.821594
20
13.383942
42
0.317708
0
VERTEX
8
1
10
24.740486
20
13.567505
42
0.293259
0
VERTEX
8
1
10
24.541138
20
13.552002
42
0.364927
0
VERTEX
8
1
10
24.533531
20
13.485291
42
-0.057014
0
VERTEX
8
1
10
24.492645
20
13.354324
42
-0.008869
0
VERTEX
8
1
10
24.246452
20
12.759811
0
VERTEX
8
1
10
24.213715
20
12.679642
42
-0.096438
0
VERTEX
8
1
10
24.018051
20
12.343185
0
VERTEX
8
1
10
23.982277
20
12.301987
0
VERTEX
8
1
10
23.961914
20
12.280258
42
-0.127285
0
VERTEX
8
1
10
23.775452
20
12.150497
42
-0.225121
0
VERTEX
8
1
10
23.718758
20
12.153580
42
-0.167274
0
VERTEX
8
1
10
23.700142
20
12.252243
42
-0.114517
0
VERTEX
8
1
10
23.790245
20
12.563721
42
-0.080423
0
VERTEX
8
1
10
23.951622
20
12.813644
42
-0.032461
0
VERTEX
8
1
10
23.970879
20
12.830627
42
1.122652
0
VERTEX
8
1
10
24.162910
20
12.821198
42
0.404255
0
VERTEX
8
1
10
24.011818
20
12.999084
0
VERTEX
8
1
10
23.995682
20
13.001740
42
0.240596
0
VERTEX
8
1
10
23.629890
20
12.842804
42
0.146051
0
VERTEX
8
1
10
23.400490
20
12.324020
42
0.201635
0
VERTEX
8
1
10
23.476532
20
12.063675
0
VERTEX
8
1
10
23.490562
20
12.050217
0
VERTEX
8
1
10
23.490173
20
12.048080
0
VERTEX
8
1
10
22.679214
20
12.048080
0
VERTEX
8
1
10
22.674583
20
12.049210
42
0.095300
0
VERTEX
8
1
10
22.895531
20
12.245651
42
0.071739
0
VERTEX
8
1
10
23.111526
20
12.568481
0
VERTEX
8
1
10
23.113724
20
12.579926
42
0.864043
0
VERTEX
8
1
10
22.978645
20
12.620789
42
-0.042055
0
VERTEX
8
1
10
22.868523
20
12.449905
42
0.125594
0
VERTEX
8
1
10
22.746849
20
12.778961
42
0.019164
0
VERTEX
8
1
10
22.665321
20
12.891571
0
VERTEX
8
1
10
22.675896
20
12.910034
42
0.192224
0
VERTEX
8
1
10
22.710541
20
13.074753
42
0.347091
0
VERTEX
8
1
10
22.594948
20
13.157333
42
0.400819
0
VERTEX
8
1
10
22.400803
20
12.996994
42
0.178777
0
VERTEX
8
1
10
22.435074
20
12.819427
0
VERTEX
8
1
10
22.434372
20
12.816711
42
0.011719
0
VERTEX
8
1
10
22.334099
20
12.618973
0
VERTEX
8
1
10
22.333092
20
12.615051
42
-0.077178
0
VERTEX
8
1
10
22.036781
20
12.172241
42
-0.079595
0
VERTEX
8
1
10
22.014748
20
12.154617
42
-0.067826
0
VERTEX
8
1
10
22.082092
20
12.308517
42
0.043231
0
VERTEX
8
1
10
22.265076
20
12.687363
0
VERTEX
8
1
10
22.275398
20
12.720078
0
VERTEX
8
1
10
22.279869
20
12.736053
0
VERTEX
8
1
10
22.283646
20
12.752213
42
0.272536
0
VERTEX
8
1
10
22.231873
20
12.961304
42
0.332209
0
VERTEX
8
1
10
22.007629
20
12.964340
42
0.236729
0
VERTEX
8
1
10
21.989998
20
12.922150
42
0.241164
0
VERTEX
8
1
10
21.832222
20
13.003586
42
0.224516
0
VERTEX
8
1
10
21.490128
20
12.851044
42
0.146670
0
VERTEX
8
1
10
21.253822
20
12.333359
42
0.185691
0
VERTEX
8
1
10
21.317490
20
12.076859
0
VERTEX
8
1
10
21.330193
20
12.062546
0
VERTEX
8
1
10
21.344093
20
12.049377
0
VERTEX
8
1
10
21.342300
20
12.048065
0
VERTEX
8
1
10
20.907555
20
12.048080
42
0.119542
0
VERTEX
8
1
10
21.187691
20
12.375000
42
0.114390
0
VERTEX
8
1
10
21.320892
20
12.797104
42
0.231258
0
VERTEX
8
1
10
21.260849
20
12.964691
42
0.362503
0
VERTEX
8
1
10
21.046288
20
12.953552
42
0.294948
0
VERTEX
8
1
10
21.040115
20
12.898895
42
-0.064574
0
VERTEX
8
1
10
21.008926
20
12.695267
42
-0.067447
0
VERTEX
8
1
10
20.854897
20
12.272552
42
-0.126450
0
VERTEX
8
1
10
20.739487
20
12.135254
42
-0.290800
0
VERTEX
8
1
10
20.677078
20
12.132584
42
-0.127840
0
VERTEX
8
1
10
20.710625
20
12.265976
0
VERTEX
8
1
10
20.722359
20
12.292664
42
0.021617
0
VERTEX
8
1
10
20.889153
20
12.647339
0
VERTEX
8
1
10
20.900612
20
12.680084
0
VERTEX
8
1
10
20.911102
20
12.713165
0
VERTEX
8
1
10
20.914803
20
12.725967
0
VERTEX
8
1
10
20.918976
20
12.742020
0
VERTEX
8
1
10
20.922440
20
12.758240
42
0.278098
0
VERTEX
8
1
10
20.865524
20
12.964340
42
0.324180
0
VERTEX
8
1
10
20.644424
20
12.963791
42
0.418643
0
VERTEX
8
1
10
20.640457
20
12.891495
42
-0.081229
0
VERTEX
8
1
10
20.574364
20
12.701065
42
-0.055742
0
VERTEX
8
1
10
20.294678
20
12.215286
42
-0.101876
0
VERTEX
8
1
10
20.230148
20
12.152084
42
-0.065889
0
VERTEX
8
1
10
20.299774
20
12.310989
42
0.041164
0
VERTEX
8
1
10
20.479706
20
12.684631
0
VERTEX
8
1
10
20.490150
20
12.717392
0
VERTEX
8
1
10
20.494713
20
12.733368
0
VERTEX
8
1
10
20.498596
20
12.749527
42
0.272314
0
VERTEX
8
1
10
20.448952
20
12.960007
42
0.352958
0
VERTEX
8
1
10
20.218864
20
12.959808
42
0.382668
0
VERTEX
8
1
10
20.217842
20
12.891312
42
-0.076303
0
VERTEX
8
1
10
20.175217
20
12.765244
42
0.032514
0
VERTEX
8
1
10
20.016212
20
12.360397
42
0.141769
0
VERTEX
8
1
10
20.006172
20
12.099854
42
0.053607
0
VERTEX
8
1
10
20.029213
20
12.048080
0
VERTEX
8
1
10
20.029198
20
11.782333
0
VERTEX
8
1
10
20.199898
20
11.782242
0
VERTEX
8
1
10
34.008049
20
11.782242
0
VERTEX
8
1
10
34.033669
20
11.773849
42
0.104199
0
VERTEX
8
1
10
34.192810
20
11.599426
42
0.431082
0
VERTEX
8
1
10
34.532753
20
11.682922
42
0.299721
0
VERTEX
8
1
10
34.538391
20
11.782242
0
VERTEX
8
1
10
34.663254
20
11.782242
0
VERTEX
8
1
10
34.663750
20
11.782425
0
VERTEX
8
1
10
34.663757
20
11.823044
42
0.070510
0
VERTEX
8
1
10
35.081841
20
11.549866
0
VERTEX
8
1
10
35.157639
20
11.509537
42
-0.137973
0
VERTEX
8
1
10
35.359550
20
11.316101
42
-0.172646
0
VERTEX
8
1
10
35.383537
20
11.180298
42
-0.013749
0
VERTEX
8
1
10
35.432541
20
9.936417
42
-0.034998
0
VERTEX
8
1
10
35.413704
20
9.615051
42
-0.158837
0
VERTEX
8
1
10
35.327477
20
9.463608
42
-0.104523
0
VERTEX
8
1
10
35.098877
20
9.336258
42
-0.034055
0
VERTEX
8
1
10
34.637451
20
9.227844
42
0.083393
0
VERTEX
8
1
10
34.407883
20
9.137024
0
VERTEX
8
1
10
34.351578
20
9.261902
42
0.021894
0
VERTEX
8
1
10
33.814850
20
10.463852
42
0.041588
0
VERTEX
8
1
10
33.471695
20
11.038574
0
VERTEX
8
1
10
33.395088
20
11.130203
0
VERTEX
8
1
10
33.323769
20
11.195831
0
VERTEX
8
1
10
33.271393
20
11.209808
42
0.282325
0
VERTEX
8
1
10
33.206100
20
11.092590
42
0.090660
0
VERTEX
8
1
10
33.258049
20
10.893311
42
0.019779
0
VERTEX
8
1
10
33.690414
20
9.982758
42
-0.012109
0
VERTEX
8
1
10
34.403015
20
8.530792
0
VERTEX
8
1
10
34.493690
20
8.318619
0
VERTEX
8
1
10
34.563820
20
8.134689
0
VERTEX
8
1
10
34.608719
20
7.986404
42
0.070376
0
VERTEX
8
1
10
34.700310
20
7.625473
42
0.021079
0
VERTEX
8
1
10
35.025322
20
6.950989
42
-0.018437
0
VERTEX
8
1
10
35.208809
20
6.572021
0
VERTEX
8
1
10
35.222557
20
6.515900
0
VERTEX
8
1
10
35.201355
20
6.509262
0
VERTEX
8
1
10
35.138474
20
6.560730
0
VERTEX
8
1
10
35.029053
20
6.676849
0
VERTEX
8
1
10
34.986382
20
6.718475
0
VERTEX
8
1
10
34.952225
20
6.740021
0
VERTEX
8
1
10
34.925255
20
6.744766
0
VERTEX
8
1
10
34.904144
20
6.735992
42
0.112534
0
VERTEX
8
1
10
34.851280
20
6.631882
0
VERTEX
8
1
10
34.839272
20
6.605072
42
-0.390848
0
VERTEX
8
1
10
34.784653
20
6.575500
0
VERTEX
8
1
10
34.755791
20
6.593597
42
0.080117
0
VERTEX
8
1
10
34.530823
20
6.739883
0
VERTEX
8
1
10
34.473495
20
6.754837
0
VERTEX
8
1
10
34.424797
20
6.755768
42
0.231909
0
VERTEX
8
1
10
34.298157
20
6.667618
42
0.022146
0
VERTEX
8
1
10
34.237114
20
6.548203
0
VERTEX
8
1
10
34.225624
20
6.533081
0
VERTEX
8
1
10
34.215187
20
6.531967
0
VERTEX
8
1
10
34.205574
20
6.544220
42
-0.058279
0
VERTEX
8
1
10
34.170525
20
6.708221
42
0.005710
0
VERTEX
8
1
10
34.100655
20
7.196762
0
VERTEX
8
1
10
34.107780
20
7.259232
0
VERTEX
8
1
10
34.134605
20
7.294785
42
0.044207
0
VERTEX
8
1
10
34.272240
20
7.479996
42
0.139347
0
VERTEX
8
1
10
34.315094
20
7.693375
0
VERTEX
8
1
10
34.306541
20
7.763580
0
VERTEX
8
1
10
34.287895
20
7.842392
0
VERTEX
8
1
10
34.243401
20
7.949600
0
VERTEX
8
1
10
34.152634
20
8.117950
0
VERTEX
8
1
10
34.034561
20
8.325394
42
-0.002793
0
VERTEX
8
1
10
33.099495
20
9.920029
42
-0.021227
0
VERTEX
8
1
10
32.765228
20
10.563751
0
VERTEX
8
1
10
32.714874
20
10.699493
0
VERTEX
8
1
10
32.726357
20
10.794907
42
0.078450
0
VERTEX
8
1
10
32.863976
20
11.039063
0
VERTEX
8
1
10
32.872978
20
11.091248
0
VERTEX
8
1
10
32.868523
20
11.131393
42
0.294766
0
VERTEX
8
1
10
32.775909
20
11.202560
42
0.128064
0
VERTEX
8
1
10
32.695892
20
11.200500
42
0.155795
0
VERTEX
8
1
10
32.461723
20
10.998413
0
VERTEX
8
1
10
32.430344
20
10.929642
0
VERTEX
8
1
10
32.411415
20
10.849197
0
VERTEX
8
1
10
32.408760
20
10.756485
0
VERTEX
8
1
10
32.426216
20
10.650894
0
VERTEX
8
1
10
32.467636
20
10.531784
0
VERTEX
8
1
10
32.536850
20
10.398560
42
0.011528
0
VERTEX
8
1
10
33.335754
20
9.088165
42
-0.002376
0
VERTEX
8
1
10
34.048981
20
7.957214
0
VERTEX
8
1
10
34.084084
20
7.896454
42
-0.073251
0
VERTEX
8
1
10
34.119453
20
7.586258
42
-0.175930
0
VERTEX
8
1
10
34.070930
20
7.455368
42
-0.217315
0
VERTEX
8
1
10
33.992355
20
7.427094
0
VERTEX
8
1
10
33.975945
20
7.422562
0
VERTEX
8
1
10
33.959885
20
7.409790
0
VERTEX
8
1
10
33.945129
20
7.387787
0
VERTEX
8
1
10
33.932640
20
7.355484
42
0.091604
0
VERTEX
8
1
10
33.924171
20
7.102478
42
0.041256
0
VERTEX
8
1
10
34.027702
20
6.601624
0
VERTEX
8
1
10
34.024689
20
6.531281
42
0.135778
0
VERTEX
8
1
10
33.515648
20
6.523499
0
VERTEX
8
1
10
33.482574
20
6.509827
0
VERTEX
8
1
10
33.456657
20
6.494583
0
VERTEX
8
1
10
33.446350
20
6.507660
42
0.016149
0
VERTEX
8
1
10
33.465378
20
6.981064
0
VERTEX
8
1
10
33.462105
20
6.983505
0
VERTEX
8
1
10
33.447342
20
6.986725
42
0.045903
0
VERTEX
8
1
10
33.362740
20
7.019485
42
0.225225
0
VERTEX
8
1
10
33.303329
20
6.997177
42
0.114092
0
VERTEX
8
1
10
33.237411
20
6.892715
0
VERTEX
8
1
10
33.213974
20
6.832428
42
-0.011123
0
VERTEX
8
1
10
32.939392
20
6.054825
42
-0.034792
0
VERTEX
8
1
10
32.639214
20
5.404785
42
-0.064219
0
VERTEX
8
1
10
32.370049
20
5.035385
42
-0.137465
0
VERTEX
8
1
10
31.897873
20
4.853271
42
-0.096322
0
VERTEX
8
1
10
31.749809
20
4.869278
42
-0.243269
0
VERTEX
8
1
10
31.678757
20
4.938843
0
VERTEX
8
1
10
31.757690
20
5.004532
42
-0.014788
0
VERTEX
8
1
10
32.041603
20
5.182388
42
0.110974
0
VERTEX
8
1
10
32.362709
20
5.484985
0
VERTEX
8
1
10
32.433098
20
5.605606
0
VERTEX
8
1
10
32.499634
20
5.754196
0
VERTEX
8
1
10
32.562386
20
5.935745
0
VERTEX
8
1
10
32.621391
20
6.155273
0
VERTEX
8
1
10
32.676720
20
6.417740
0
VERTEX
8
1
10
32.611084
20
6.514603
42
-0.050027
0
VERTEX
8
1
10
31.660736
20
6.485565
42
-0.051103
0
VERTEX
8
1
10
31.353493
20
6.542343
0
VERTEX
8
1
10
31.278900
20
6.572510
0
VERTEX
8
1
10
31.221519
20
6.608749
42
-0.066430
0
VERTEX
8
1
10
31.107628
20
6.749939
0
VERTEX
8
1
10
31.096855
20
6.774719
42
-0.465764
0
VERTEX
8
1
10
31.127731
20
6.838287
42
-0.084026
0
VERTEX
8
1
10
31.284828
20
6.858307
0
VERTEX
8
1
10
31.346466
20
6.858643
0
VERTEX
8
1
10
32.848373
20
6.858643
0
VERTEX
8
1
10
32.862610
20
6.858765
42
0.124582
0
VERTEX
8
1
10
32.938004
20
6.943878
42
0.372091
0
VERTEX
8
1
10
32.917984
20
7.004974
0
VERTEX
8
1
10
32.885201
20
7.021500
0
VERTEX
8
1
10
32.834976
20
7.034470
0
VERTEX
8
1
10
32.764671
20
7.042877
0
VERTEX
8
1
10
32.675323
20
7.045746
0
VERTEX
8
1
10
30.861824
20
7.006332
0
VERTEX
8
1
10
30.872688
20
7.038406
0
VERTEX
8
1
10
31.726685
20
9.470078
0
VERTEX
8
1
10
31.731102
20
9.473007
0
VERTEX
8
1
10
32.099541
20
9.473007
0
VERTEX
8
1
10
32.100616
20
9.480270
0
VERTEX
8
1
10
32.100616
20
10.715683
0
VERTEX
8
1
10
32.099571
20
10.722336
0
VERTEX
8
1
10
31.775665
20
10.722260
0
VERTEX
8
1
10
31.765999
20
10.721054
0
VERTEX
8
1
10
31.755966
20
10.718307
0
VERTEX
8
1
10
31.745560
20
10.714035
42
0.141348
0
VERTEX
8
1
10
31.589684
20
10.531784
42
0.088336
0
VERTEX
8
1
10
31.492416
20
10.249329
42
0.072314
0
VERTEX
8
1
10
31.409752
20
10.484802
42
0.061975
0
VERTEX
8
1
10
31.314568
20
10.655914
42
0.215980
0
VERTEX
8
1
10
31.199745
20
10.722260
0
VERTEX
8
1
10
30.914124
20
10.722336
0
VERTEX
8
1
10
30.913124
20
10.716125
0
VERTEX
8
1
10
30.913124
20
9.480743
0
VERTEX
8
1
10
30.914200
20
9.473007
0
VERTEX
8
1
10
31.318336
20
9.473007
0
VERTEX
8
1
10
31.321609
20
9.471252
0
VERTEX
8
1
10
30.722260
20
7.776367
0
VERTEX
8
1
10
30.713860
20
7.753296
0
VERTEX
8
1
10
29.844032
20
9.472916
0
VERTEX
8
1
10
30.214119
20
9.473007
0
VERTEX
8
1
10
30.214386
20
9.486191
0
VERTEX
8
1
10
30.214386
20
10.719681
0
VERTEX
8
1
10
30.212189
20
10.722351
0
VERTEX
8
1
10
29.903419
20
10.722336
42
0.190900
0
VERTEX
8
1
10
29.815086
20
10.679245
42
0.106513
0
VERTEX
8
1
10
29.689056
20
10.495865
42
0.076549
0
VERTEX
8
1
10
29.611244
20
10.252853
0
VERTEX
8
1
10
29.608635
20
10.272324
42
0.085103
0
VERTEX
8
1
10
29.491333
20
10.558853
0
VERTEX
8
1
10
29.461899
20
10.610138
42
0.192597
0
VERTEX
8
1
10
29.343819
20
10.718948
0
VERTEX
8
1
10
29.331322
20
10.721405
0
VERTEX
8
1
10
29.318703
20
10.722321
0
VERTEX
8
1
10
29.027206
20
10.722336
0
VERTEX
8
1
10
29.026901
20
10.710556
0
VERTEX
8
1
10
29.026901
20
9.476379
0
VERTEX
8
1
10
29.029373
20
9.473022
0
VERTEX
8
1
10
29.431572
20
9.473007
0
VERTEX
8
1
10
29.437469
20
9.465286
0
VERTEX
8
1
10
30.531242
20
7.265503
0
VERTEX
8
1
10
30.539719
20
7.245972
0
VERTEX
8
1
10
30.218254
20
6.341644
0
VERTEX
8
1
10
30.213898
20
6.330750
0
VERTEX
8
1
10
29.019669
20
6.330750
0
VERTEX
8
1
10
29.019669
20
6.098526
0
VERTEX
8
1
10
28.997147
20
6.098434
0
VERTEX
8
1
10
27.168747
20
6.098450
0
VERTEX
8
1
10
27.166016
20
6.108170
0
VERTEX
8
1
10
27.166016
20
7.259140
0
VERTEX
8
1
10
27.163345
20
7.263016
0
VERTEX
8
1
10
26.658546
20
7.263016
0
VERTEX
8
1
10
26.655533
20
7.269226
0
VERTEX
8
1
10
26.655533
20
9.443344
0
VERTEX
8
1
10
26.657707
20
9.463562
0
VERTEX
8
1
10
28.534828
20
9.463547
0
VERTEX
8
1
10
28.559868
20
9.463806
0
VERTEX
8
1
10
28.559868
20
10.722305
0
VERTEX
8
1
10
28.169106
20
10.722336
42
0.129505
0
VERTEX
8
1
10
27.602165
20
10.587585
42
0.115144
0
VERTEX
8
1
10
27.115334
20
10.105148
0
VERTEX
8
1
10
27.115334
20
10.718109
0
VERTEX
8
1
10
27.114563
20
10.722336
0
VERTEX
8
1
10
26.764709
20
10.722305
42
0.189048
0
VERTEX
8
1
10
26.612801
20
10.642380
0
VERTEX
8
1
10
26.596687
20
10.625961
42
0.060512
0
VERTEX
8
1
10
26.486900
20
10.460266
42
0.064857
0
VERTEX
8
1
10
26.395203
20
10.250580
42
0.146366
0
VERTEX
8
1
10
26.169739
20
10.654831
42
0.190483
0
VERTEX
8
1
10
26.030518
20
10.722321
0
VERTEX
8
1
10
25.672523
20
10.722336
0
VERTEX
8
1
10
25.670784
20
10.717682
0
VERTEX
8
1
10
25.670792
20
9.473358
0
VERTEX
8
1
10
25.671623
20
9.463531
0
VERTEX
8
1
10
26.146767
20
9.463547
0
VERTEX
8
1
10
26.152290
20
9.462479
0
VERTEX
8
1
10
26.152298
20
7.263016
0
VERTEX
8
1
10
25.692650
20
7.263016
0
VERTEX
8
1
10
25.692505
20
7.248398
0
VERTEX
8
1
10
25.692513
20
6.100006
0
VERTEX
8
1
10
25.676384
20
6.098450
0
VERTEX
8
1
10
23.841034
20
6.098450
0
VERTEX
8
1
10
23.835236
20
6.104858
0
VERTEX
8
1
10
23.835243
20
7.256470
0
VERTEX
8
1
10
23.833694
20
7.263016
0
VERTEX
8
1
10
23.329277
20
7.263016
0
VERTEX
8
1
10
23.324768
20
7.265823
0
VERTEX
8
1
10
23.324768
20
9.435516
0
VERTEX
8
1
10
23.325264
20
9.463547
0
VERTEX
8
1
10
25.229073
20
9.463547
0
VERTEX
8
1
10
25.229095
20
10.721680
0
VERTEX
8
1
10
25.224678
20
10.722351
0
VERTEX
8
1
10
24.852081
20
10.722351
42
0.130021
0
VERTEX
8
1
10
24.276413
20
10.590408
42
0.118642
0
VERTEX
8
1
10
23.784561
20
10.103897
0
VERTEX
8
1
10
23.784561
20
10.716171
0
VERTEX
8
1
10
23.784256
20
10.722336
0
VERTEX
8
1
10
23.435867
20
10.722336
42
0.191474
0
VERTEX
8
1
10
23.284187
20
10.644470
42
0.093031
0
VERTEX
8
1
10
23.185890
20
10.511551
42
0.066779
0
VERTEX
8
1
10
23.064980
20
10.252930
42
0.142128
0
VERTEX
8
1
10
22.841118
20
10.652893
42
0.189234
0
VERTEX
8
1
10
22.700630
20
10.722351
0
VERTEX
8
1
10
22.342728
20
10.722336
0
VERTEX
8
1
10
22.340027
20
10.719971
0
VERTEX
8
1
10
22.340019
20
9.477524
0
VERTEX
8
1
10
22.340294
20
9.463531
0
VERTEX
8
1
10
22.821526
20
9.463501
0
VERTEX
8
1
10
22.821533
20
7.263519
0
VERTEX
8
1
10
22.815575
20
7.263016
0
VERTEX
8
1
10
22.362289
20
7.263016
0
VERTEX
8
1
10
22.361732
20
7.252502
0
VERTEX
8
1
10
22.361740
20
6.101837
0
VERTEX
8
1
10
22.356911
20
6.098434
0
VERTEX
8
1
10
21.530647
20
6.098450
0
VERTEX
8
1
10
21.530869
20
6.102631
42
0.125469
0
VERTEX
8
1
10
21.875397
20
6.641800
42
0.072650
0
VERTEX
8
1
10
21.909203
20
6.866516
0
VERTEX
8
1
10
21.909195
20
9.870529
42
0.240483
0
VERTEX
8
1
10
21.476959
20
10.715729
42
0.154493
0
VERTEX
8
1
10
21.167542
20
10.812256
0
VERTEX
8
1
10
20.490074
20
10.812256
42
0.205214
0
VERTEX
8
1
10
20.047005
20
10.623795
42
0.204974
0
VERTEX
8
1
10
19.729706
20
9.830185
0
VERTEX
8
1
10
19.729706
20
6.864975
42
0.123170
0
VERTEX
8
1
10
19.804825
20
6.535782
42
0.081150
0
VERTEX
8
1
10
20.115326
20
6.101593
0
VERTEX
8
1
10
20.106331
20
6.098450
0
VERTEX
8
1
10
18.404724
20
6.098450
0
VERTEX
8
1
10
18.408844
20
6.104126
42
0.156801
0
VERTEX
8
1
10
18.716644
20
6.396957
42
0.135513
0
VERTEX
8
1
10
18.860809
20
6.954987
0
VERTEX
8
1
10
18.860809
20
7.276184
42
-0.105748
0
VERTEX
8
1
10
18.962784
20
7.745132
0
VERTEX
8
1
10
18.978622
20
7.774734
0
VERTEX
8
1
10
18.997650
20
7.809052
42
-0.225124
0
VERTEX
8
1
10
19.333267
20
8.054947
0
VERTEX
8
1
10
19.316238
20
8.065353
42
-0.180853
0
VERTEX
8
1
10
19.009178
20
8.334824
42
-0.137548
0
VERTEX
8
1
10
18.860817
20
8.854095
0
VERTEX
8
1
10
18.860794
20
9.388702
42
0.249068
0
VERTEX
8
1
10
18.537766
20
10.023575
42
0.149100
0
VERTEX
8
1
10
18.274307
20
10.102402
0
VERTEX
8
1
10
17.897919
20
10.102402
42
-0.178156
0
VERTEX
8
1
10
17.524353
20
10.224503
42
-0.179317
0
VERTEX
8
1
10
17.303711
20
10.664658
0
VERTEX
8
1
10
17.298470
20
10.710815
0
VERTEX
8
1
10
17.293739
20
10.706406
42
-0.192630
0
VERTEX
8
1
10
17.025970
20
10.204300
42
-0.164491
0
VERTEX
8
1
10
16.688309
20
10.102386
0
VERTEX
8
1
10
16.459923
20
10.102402
0
VERTEX
8
1
10
16.456871
20
10.102646
0
VERTEX
8
1
10
16.456863
20
11.361160
0
VERTEX
8
1
10
18.251457
20
11.361191
0
VERTEX
8
1
10
18.252594
20
11.354324
0
VERTEX
8
1
10
18.252586
20
10.733032
0
VERTEX
8
1
10
18.256096
20
10.731796
0
VERTEX
8
1
10
18.732140
20
10.731796
0
VERTEX
8
1
10
18.734093
20
10.741486
0
VERTEX
8
1
10
18.734093
20
12.917236
0
VERTEX
8
1
10
18.733582
20
12.932327
0
VERTEX
8
1
10
18.502739
20
12.932281
42
0.206158
0
VERTEX
8
1
10
18.348541
20
12.846695
42
0.097521
0
VERTEX
8
1
10
18.150253
20
12.504074
0
VERTEX
8
1
10
18.144760
20
12.482162
0
VERTEX
8
1
10
18.140640
20
12.460907
42
0.140098
0
VERTEX
8
1
10
17.878433
20
12.887527
42
0.186716
0
VERTEX
8
1
10
17.762886
20
12.932312
0
VERTEX
8
1
10
16.488770
20
12.932312
0
VERTEX
8
1
10
16.483986
20
12.968353
42
0.009554
0
VERTEX
8
1
10
16.504616
20
14.007019
0
VERTEX
8
1
10
16.534706
20
14.066727
0
VERTEX
8
1
10
34.238785
20
14.066711
0
VERTEX
8
1
10
34.238785
20
14.078247
0
VERTEX
8
1
10
34.239670
20
14.077438
42
0.065971
0
VERTEX
8
1
10
34.800941
20
13.575760
0
VERTEX
8
1
10
34.843674
20
13.549133
0
VERTEX
8
1
10
34.841949
20
13.528641
0
VERTEX
8
1
10
34.839134
20
13.508728
0
VERTEX
8
1
10
34.841461
20
13.488953
0
VERTEX
8
1
10
34.848007
20
13.469559
42
0.116463
0
VERTEX
8
1
10
34.947098
20
13.361725
42
0.001986
0
SEQEND
0
POLYLINE
8
1
66
1
70
1
0
VERTEX
8
1
10
33.886261
20
12.607147
42
0.035032
0
VERTEX
8
1
10
34.130013
20
12.727112
0
VERTEX
8
1
10
34.132652
20
12.722565
42
0.128791
0
VERTEX
8
1
10
34.309052
20
12.222229
42
0.024732
0
VERTEX
8
1
10
34.438126
20
12.048080
0
VERTEX
8
1
10
34.213272
20
12.048080
0
VERTEX
8
1
10
34.207954
20
12.054062
42
-0.027041
0
VERTEX
8
1
10
33.905350
20
12.574020
0
VERTEX
8
1
10
33.895874
20
12.590622
0
SEQEND
0
POLYLINE
8
1
66
1
70
1
0
VERTEX
8
1
10
33.503128
20
12.076340
42
-0.106090
0
VERTEX
8
1
10
33.523712
20
12.167206
42
-0.029675
0
VERTEX
8
1
10
33.670670
20
12.508484
42
-0.032552
0
VERTEX
8
1
10
33.717194
20
12.532791
42
-0.079334
0
VERTEX
8
1
10
33.773529
20
12.412918
42
-0.004284
0
VERTEX
8
1
10
33.903656
20
12.048080
0
VERTEX
8
1
10
33.514992
20
12.048080
0
VERTEX
8
1
10
33.509277
20
12.050415
42
0.111264
0
SEQEND
0
POLYLINE
8
1
66
1
70
1
0
VERTEX
8
1
10
33.248886
20
12.120773
42
0.092046
0
VERTEX
8
1
10
33.274025
20
12.048080
0
VERTEX
8
1
10
33.116959
20
12.048080
0
VERTEX
8
1
10
33.120445
20
12.052521
42
0.056620
0
VERTEX
8
1
10
33.247849
20
12.156891
42
0.026154
0
SEQEND
0
POLYLINE
8
1
66
1
70
1
0
VERTEX
8
1
10
33.211334
20
12.836060
42
-0.168487
0
VERTEX
8
1
10
33.105881
20
12.637375
42
-0.085024
0
VERTEX
8
1
10
32.989822
20
12.545593
42
-0.082649
0
VERTEX
8
1
10
33.164261
20
12.816498
42
-0.160189
0
VERTEX
8
1
10
33.210732
20
12.846298
42
-0.037960
0
SEQEND
0
POLYLINE
8
1
66
1
70
1
0
VERTEX
8
1
10
32.661926
20
12.092545
42
0.067033
0
VERTEX
8
1
10
32.701904
20
12.048080
0
VERTEX
8
1
10
32.417068
20
12.048080
0
VERTEX
8
1
10
32.413002
20
12.049774
42
0.076431
0
VERTEX
8
1
10
32.608391
20
12.225174
0
VERTEX
8
1
10
32.613503
20
12.220459
42
0.104619
0
SEQEND
0
POLYLINE
8
1
66
1
70
1
0
VERTEX
8
1
10
32.286690
20
12.545593
42
-0.082649
0
VERTEX
8
1
10
32.461128
20
12.816498
42
-0.160253
0
VERTEX
8
1
10
32.507591
20
12.846298
42
-0.157337
0
VERTEX
8
1
10
32.472885
20
12.730438
42
-0.133392
0
SEQEND
0
POLYLINE
8
1
66
1
70
1
0
VERTEX
8
1
10
31.136650
20
12.048080
0
VERTEX
8
1
10
30.985519
20
12.048080
0
VERTEX
8
1
10
30.980377
20
12.048782
42
0.058238
0
VERTEX
8
1
10
31.085220
20
12.159897
0
VERTEX
8
1
10
31.090797
20
12.157608
42
0.147153
0
SEQEND
0
POLYLINE
8
1
66
1
70
1
0
VERTEX
8
1
10
29.548851
20
12.952362
42
-0.030305
0
VERTEX
8
1
10
29.555901
20
12.968552
42
0.498551
0
VERTEX
8
1
10
29.637268
20
13.032700
42
-0.363581
0
VERTEX
8
1
10
29.680130
20
13.089722
42
-0.096683
0
VERTEX
8
1
10
29.939751
20
13.130478
42
-0.003965
0
VERTEX
8
1
10
30.032112
20
13.132095
0
VERTEX
8
1
10
30.030815
20
13.114609
42
0.006273
0
VERTEX
8
1
10
29.806595
20
12.576172
42
-0.028314
0
VERTEX
8
1
10
29.720551
20
12.448975
42
0.144921
0
VERTEX
8
1
10
29.550499
20
12.848373
0
VERTEX
8
1
10
29.534241
20
12.869110
0
VERTEX
8
1
10
29.517143
20
12.890030
42
0.037177
0
SEQEND
0
POLYLINE
8
1
66
1
70
1
0
VERTEX
8
1
10
29.742958
20
12.048080
0
VERTEX
8
1
10
29.525711
20
12.048080
42
0.075483
0
VERTEX
8
1
10
29.698456
20
12.189682
0
VERTEX
8
1
10
29.705276
20
12.193588
42
0.143610
0
SEQEND
0
POLYLINE
8
1
66
1
70
1
0
VERTEX
8
1
10
29.237450
20
12.249664
0
VERTEX
8
1
10
29.239410
20
12.250900
42
0.809461
0
VERTEX
8
1
10
29.360176
20
12.393661
42
0.277200
0
VERTEX
8
1
10
29.248543
20
12.426880
0
VERTEX
8
1
10
29.247147
20
12.430069
42
-0.007887
0
VERTEX
8
1
10
29.369934
20
12.663177
42
-0.127162
0
VERTEX
8
1
10
29.428040
20
12.322968
42
-0.238930
0
VERTEX
8
1
10
29.309914
20
12.127808
42
-0.510844
0
VERTEX
8
1
10
29.234634
20
12.162186
42
-0.146649
0
SEQEND
0
POLYLINE
8
1
66
1
70
1
0
VERTEX
8
1
10
29.012291
20
12.097687
42
0.008845
0
VERTEX
8
1
10
29.088959
20
12.184784
42
0.153688
0
VERTEX
8
1
10
29.137558
20
12.048080
0
VERTEX
8
1
10
28.960106
20
12.048080
42
0.021792
0
SEQEND
0
POLYLINE
8
1
66
1
70
1
0
VERTEX
8
1
10
28.616570
20
12.356445
42
-0.073133
0
VERTEX
8
1
10
28.486771
20
12.165787
0
VERTEX
8
1
10
28.479149
20
12.159332
0
VERTEX
8
1
10
28.471634
20
12.153748
42
-0.597137
0
VERTEX
8
1
10
28.421288
20
12.165833
42
-0.147417
0
VERTEX
8
1
10
28.419144
20
12.362488
0
VERTEX
8
1
10
28.427078
20
12.394547
0
VERTEX
8
1
10
28.436508
20
12.426178
42
-0.085626
0
VERTEX
8
1
10
28.642128
20
12.798035
42
-0.062439
0
VERTEX
8
1
10
28.675880
20
12.829086
42
0.540824
0
VERTEX
8
1
10
28.793404
20
12.720245
42
-0.020597
0
SEQEND
0
POLYLINE
8
1
66
1
70
1
0
VERTEX
8
1
10
28.635071
20
12.118057
0
VERTEX
8
1
10
28.638084
20
12.114761
42
0.078630
0
VERTEX
8
1
10
28.666443
20
12.048080
0
VERTEX
8
1
10
28.569588
20
12.048080
42
0.049201
0
SEQEND
0
POLYLINE
8
1
66
1
70
1
0
VERTEX
8
1
10
28.153450
20
12.100510
42
0.079167
0
VERTEX
8
1
10
28.198311
20
12.048080
0
VERTEX
8
1
10
27.965805
20
12.048080
42
0.059147
0
VERTEX
8
1
10
28.111702
20
12.210281
42
0.086056
0
SEQEND
0
POLYLINE
8
1
66
1
70
1
0
VERTEX
8
1
10
26.707092
20
12.108749
42
0.061453
0
VERTEX
8
1
10
26.735161
20
12.048080
0
VERTEX
8
1
10
26.437141
20
12.048080
42
-0.003433
0
VERTEX
8
1
10
26.427788
20
12.093185
42
-0.083914
0
VERTEX
8
1
10
26.489586
20
12.260849
42
-0.001499
0
VERTEX
8
1
10
26.625015
20
12.523468
42
-0.064882
0
VERTEX
8
1
10
26.869843
20
12.805847
42
-0.236260
0
VERTEX
8
1
10
26.906509
20
12.825027
42
-0.080527
0
VERTEX
8
1
10
26.841286
20
12.670227
42
0.070631
0
VERTEX
8
1
10
26.699333
20
12.290421
42
0.127278
0
SEQEND
0
POLYLINE
8
1
66
1
70
1
0
VERTEX
8
1
10
26.201248
20
12.048080
0
VERTEX
8
1
10
26.099350
20
12.048080
42
0.022769
0
VERTEX
8
1
10
26.173889
20
12.123642
42
0.075209
0
SEQEND
0
POLYLINE
8
1
66
1
70
1
0
VERTEX
8
1
10
25.768143
20
12.381760
42
-0.066138
0
VERTEX
8
1
10
25.632492
20
12.173080
42
-0.212611
0
VERTEX
8
1
10
25.585556
20
12.144028
42
-0.303589
0
VERTEX
8
1
10
25.555618
20
12.174866
42
-0.142566
0
VERTEX
8
1
10
25.565109
20
12.394547
0
VERTEX
8
1
10
25.574539
20
12.426178
42
-0.083584
0
VERTEX
8
1
10
25.775223
20
12.792389
42
-0.065441
0
VERTEX
8
1
10
25.813911
20
12.829086
42
0.540777
0
VERTEX
8
1
10
25.931442
20
12.720245
42
-0.019116
0
SEQEND
0
POLYLINE
8
1
66
1
70
1
0
VERTEX
8
1
10
25.773102
20
12.118073
0
VERTEX
8
1
10
25.776108
20
12.114761
42
0.078435
0
VERTEX
8
1
10
25.804466
20
12.048080
0
VERTEX
8
1
10
25.707611
20
12.048080
42
0.049368
0
SEQEND
0
POLYLINE
8
1
66
1
70
1
0
VERTEX
8
1
10
25.087532
20
12.077286
42
0.057297
0
VERTEX
8
1
10
25.242683
20
12.225342
0
VERTEX
8
1
10
25.247818
20
12.220810
42
0.172300
0
VERTEX
8
1
10
25.336342
20
12.048080
0
VERTEX
8
1
10
25.051216
20
12.048080
0
VERTEX
8
1
10
25.047134
20
12.049774
42
0.018531
0
SEQEND
0
POLYLINE
8
1
66
1
70
1
0
VERTEX
8
1
10
25.142113
20
12.830078
42
-0.158738
0
VERTEX
8
1
10
25.036888
20
12.637375
42
-0.084970
0
VERTEX
8
1
10
24.920845
20
12.545593
42
-0.082650
0
VERTEX
8
1
10
25.095268
20
12.816498
42
-0.160137
0
VERTEX
8
1
10
25.141747
20
12.846298
42
-0.052676
0
SEQEND
0
POLYLINE
8
1
66
1
70
1
0
VERTEX
8
1
10
24.624130
20
12.055984
0
VERTEX
8
1
10
24.632919
20
12.048080
0
VERTEX
8
1
10
24.400696
20
12.048080
42
0.057352
0
VERTEX
8
1
10
24.546371
20
12.209991
42
0.160252
0
SEQEND
0
POLYLINE
8
1
66
1
70
1
0
VERTEX
8
1
10
24.108353
20
12.048080
0
VERTEX
8
1
10
23.904198
20
12.048080
42
0.067796
0
VERTEX
8
1
10
24.070808
20
12.191452
42
0.145828
0
SEQEND
0
POLYLINE
8
1
66
1
70
1
0
VERTEX
8
1
10
22.384712
20
12.249680
0
VERTEX
8
1
10
22.386665
20
12.250900
42
0.809523
0
VERTEX
8
1
10
22.507439
20
12.393661
42
0.277183
0
VERTEX
8
1
10
22.395805
20
12.426880
0
VERTEX
8
1
10
22.394402
20
12.430069
42
-0.007861
0
VERTEX
8
1
10
22.517197
20
12.663177
42
-0.127206
0
VERTEX
8
1
10
22.575302
20
12.322968
42
-0.237004
0
VERTEX
8
1
10
22.458092
20
12.128204
42
-0.519448
0
VERTEX
8
1
10
22.381905
20
12.162186
42
-0.146333
0
SEQEND
0
POLYLINE
8
1
66
1
70
1
0
VERTEX
8
1
10
22.168510
20
12.107208
42
0.002863
0
VERTEX
8
1
10
22.236221
20
12.184784
42
0.153656
0
VERTEX
8
1
10
22.284821
20
12.048080
0
VERTEX
8
1
10
22.107361
20
12.048080
42
0.027176
0
SEQEND
0
POLYLINE
8
1
66
1
70
1
0
VERTEX
8
1
10
21.773041
20
12.373535
42
-0.068651
0
VERTEX
8
1
10
21.640175
20
12.171585
42
-0.238191
0
VERTEX
8
1
10
21.592644
20
12.144409
42
-0.320144
0
VERTEX
8
1
10
21.561455
20
12.186447
42
-0.141360
0
VERTEX
8
1
10
21.589996
20
12.444595
42
-0.074699
0
VERTEX
8
1
10
21.776711
20
12.783249
42
-0.072234
0
VERTEX
8
1
10
21.823143
20
12.829086
42
0.540777
0
VERTEX
8
1
10
21.940674
20
12.720245
42
-0.019681
0
SEQEND
0
POLYLINE
8
1
66
1
70
1
0
VERTEX
8
1
10
21.782333
20
12.118073
0
VERTEX
8
1
10
21.785355
20
12.114761
42
0.078719
0
VERTEX
8
1
10
21.813705
20
12.048080
0
VERTEX
8
1
10
21.716858
20
12.048080
42
0.049388
0
SEQEND
0
POLYLINE
8
1
66
1
70
1
0
VERTEX
8
1
10
20.483170
20
12.048080
0
VERTEX
8
1
10
20.332031
20
12.048080
0
VERTEX
8
1
10
20.326881
20
12.048782
42
0.058296
0
VERTEX
8
1
10
20.431732
20
12.159897
0
VERTEX
8
1
10
20.437317
20
12.157608
42
0.147033
0
SEQEND
0
ENDSEC
0
EOF
